<svg xmlns="http://www.w3.org/2000/svg" width="16" height="16" viewBox="0 0 16 16" fill="none"><defs><linearGradient x1="7.758" y1="13.697" x2="120.537" y2="109.821" id="a" gradientTransform="matrix(.0865 0 0 .07334 .26 1.414)" gradientUnits="userSpaceOnUse"><stop stop-color="#aeb9c0" offset="0%"/><stop stop-color="#aeb9c0" offset="100%"/></linearGradient><linearGradient x1="38.732" y1="281.517" x2="190.56" y2="141.661" id="b" gradientTransform="matrix(.07832 0 0 .04882 .266 1.415)" gradientUnits="userSpaceOnUse"><stop stop-color="#aeb9c0" offset="0%"/><stop stop-color="#aeb9c0" offset="100%"/></linearGradient><linearGradient x1="65.594" y1="177.899" x2="148.764" y2="86.018" id="c" gradientTransform="matrix(.0518 0 0 .07382 .266 1.415)" gradientUnits="userSpaceOnUse"><stop stop-color="#aeb9c0" offset="0%"/><stop stop-color="#aeb9c0" offset="100%"/></linearGradient></defs><path d="M11.448 9.941l-8.61-8.08A1.511 1.63 0 101.076 4.48l9.685 6.488.044.03a.585.632 0 10.643-1.056z" fill="url(#a)"/><path d="M15.519 9.024a1.662 1.788 0 00-2.524-1.457l-9.402 5.755-.016.01a.843.907 0 10.657 1.67l10.244-4.251.026-.012a1.662 1.788 0 001.015-1.715z" fill="url(#b)"/><path d="M7.947 8.756a.455.49 0 00-.773-.512L3.205 13.66l-.008.018a.843.907 0 101.46.899L7.92 8.805a.492.492 0 00.028-.049z" fill="url(#c)"/><path d="M5.266 11.783c-.476-.103-.86-.455-1.075-.987l-.055-.135.361-.28c.2-.153.38-.293.403-.311.029-.023.082.046.174.228.152.297.289.411.454.38.14-.028.293-.185.336-.344.021-.078.035-.914.035-2.1v-1.97h1.096l-.01 2.207-.01 2.206-.081.198c-.234.566-.66.885-1.234.925-.13.01-.307.002-.394-.017zm2.856-2.781V6.255l1.014.026c.558.014 1.083.041 1.168.06.392.088.718.35.894.717.07.146.08.224.08.586 0 .478-.02.54-.303.878a1.716 1.716 0 00-.173.227c0 .01.096.07.213.13.298.155.474.332.607.611.106.22.116.274.127.65.011.393.007.42-.094.644-.135.297-.34.525-.597.665-.415.226-.525.24-2.152.281l-.784.02zm1.975 1.797c.367-.083.529-.298.529-.697 0-.277-.039-.402-.17-.547-.173-.19-.33-.238-.791-.24H9.25v1.56l.344-.02c.19-.01.416-.036.503-.056zm-.31-2.452a.665.665 0 00.435-.726.518.518 0 00-.163-.274c-.142-.139-.193-.155-.588-.19l-.22-.02V8.44l.185-.019c.101-.01.26-.044.35-.073z"/><path d="M5.266 11.783c-.476-.103-.86-.455-1.075-.987l-.055-.135.361-.28c.2-.153.38-.293.403-.311.029-.023.082.046.174.228.152.297.289.411.454.38.14-.028.293-.185.336-.344.021-.078.035-.914.035-2.1v-1.97h1.096l-.01 2.207-.01 2.206-.081.198c-.234.566-.66.885-1.234.925-.13.01-.307.002-.394-.017z"/><path d="M5.266 11.783c-.476-.103-.86-.455-1.075-.987l-.055-.135.361-.28c.2-.153.38-.293.403-.311.029-.023.082.046.174.228.152.297.289.411.454.38.14-.028.293-.185.336-.344.021-.078.035-.914.035-2.1v-1.97h1.096l-.01 2.207-.01 2.206-.081.198c-.234.566-.66.885-1.234.925-.13.01-.307.002-.394-.017zm2.856-2.781V6.255l1.014.026c.558.014 1.083.041 1.168.06.392.088.718.35.894.717.07.146.08.224.08.586 0 .478-.02.54-.303.878a1.716 1.716 0 00-.173.227c0 .01.096.07.213.13.298.155.474.332.607.611.106.22.116.274.127.65.011.393.007.42-.094.644-.135.297-.34.525-.597.665-.415.226-.525.24-2.152.281l-.784.02zm1.975 1.797c.367-.083.529-.298.529-.697 0-.277-.039-.402-.17-.547-.173-.19-.33-.238-.791-.24H9.25v1.56l.344-.02c.19-.01.416-.036.503-.056zm-.31-2.452a.665.665 0 00.435-.726.518.518 0 00-.163-.274c-.142-.139-.193-.155-.588-.19l-.22-.02V8.44l.185-.019c.101-.01.26-.044.35-.073z"/><path d="M8.122 9.002V6.255l1.014.026c.558.014 1.083.041 1.168.06.392.088.718.35.894.717.07.146.08.224.08.586 0 .478-.02.54-.303.878a1.716 1.716 0 00-.173.227c0 .01.096.07.213.13.298.155.474.332.607.611.106.22.116.274.127.65.011.393.007.42-.094.644-.135.297-.34.525-.597.665-.415.226-.525.24-2.152.281l-.784.02zm1.975 1.797c.367-.083.529-.298.529-.697 0-.277-.039-.402-.17-.547-.173-.19-.33-.238-.791-.24H9.25v1.56l.344-.02c.19-.01.416-.036.503-.056zm-.31-2.452a.665.665 0 00.435-.726.518.518 0 00-.163-.274c-.142-.139-.193-.155-.588-.19l-.22-.02V8.44l.185-.019c.101-.01.26-.044.35-.073zm-4.521 3.436c-.476-.103-.86-.455-1.075-.987l-.055-.135.361-.28c.2-.153.38-.293.403-.311.029-.023.082.046.174.228.152.297.289.411.454.38.14-.028.293-.185.336-.344.021-.078.035-.914.035-2.1v-1.97h1.096l-.01 2.207-.01 2.206-.081.198c-.234.566-.66.885-1.234.925-.13.01-.307.002-.394-.017z"/><path d="M3.47 7.383l1.05 1.043h1.703a.373.373 0 00.374-.372V4.146L3.471 7.254a.09.09 0 000 .13z" fill="#235dc1"/><path d="M.8 3.039V4.73l1.05 1.042a.09.09 0 00.13 0l3.128-3.108H1.174A.375.375 0 00.8 3.04z" fill="#3b6ec6"/><path d="M4.737 1.144L2.212 4.983a.328.328 0 00.043.412l1.617 1.607c.11.11.285.127.415.043l3.864-2.511a.865.865 0 00.394-.725V1.133A.384.384 0 008.16.75H5.468a.879.879 0 00-.73.393z" fill="#5d8de4"/><path d="M1.368 7.898V6.542H.8v1.892h1.934v-.536z" fill="#9fbbf0"/><path d="M6.607 3.595a.959.959 0 00.962-.956.959.959 0 00-.962-.955.959.959 0 00-.962.955c0 .528.43.956.962.956z" fill="#adc5f2"/><path d="M4.885 3.92L2.827 5.964l.475.471 2.057-2.044z" fill="#6c9aee"/><path d="M2.892 6.842l.409-.406-.475-.472-.408.406z" fill="#88acef"/><path d="M7.886 9.798l3.56-1.967 3.56 1.967v3.93l-3.56 1.967-3.56-1.967z" fill="#c00"/><path d="M11.546 11.761l3.31-1.809.134 3.647-3.444 1.973z" fill="#fff"/><path d="M14.907 9.842l-.01 3.864-3.454 1.9-.017-3.797zm-2.905 2.282l.01 2.538 1.148-.634-.003-1.913.579-.325v1.92l.578-.323.004-2.57-2.316 1.307z" fill="#c00"/><path d="M11.672 7.86a.68.68 0 00-.575 0L7.942 9.58a.593.593 0 00-.286.47v3.441c0 .174.13.385.286.47l3.155 1.721a.68.68 0 00.575 0l3.155-1.72c.16-.086.286-.3.286-.47V10.05a.596.596 0 00-.286-.47zm2.799 1.799c.16.085.16.227 0 .312l-2.762 1.506a.68.68 0 01-.576 0L8.332 9.95c-.16-.085-.16-.227 0-.312l2.761-1.506a.68.68 0 01.576 0l2.802 1.528zm-6.569.64c0-.173.13-.242.287-.157l2.825 1.54c.16.086.286.3.286.47v3.057c0 .173-.13.243-.286.157l-2.825-1.54a.593.593 0 01-.287-.47zm3.937 5.02c-.16.085-.286.016-.286-.158v-3.008c0-.174.13-.385.286-.47l2.742-1.494c.16-.085.286-.016.286.158v3.008c0 .174-.13.386-.286.47l-2.742 1.494z" fill="#910505"/><path d="M.283 10.995s-.167-.127.034-.298l.469-.443s.134-.149.276-.019l4.326 3.46v1.66s-.002.26-.319.232z" fill="#2489ca"/><path d="M1.398 12.065L.283 13.136s-.114.09 0 .251l.518.498s.123.14.305-.02l1.182-.947z" fill="#1070b3"/><path d="M3.356 12.074l2.045-1.65-.013-1.65s-.088-.36-.379-.173l-2.721 2.617z" fill="#0877b9"/><path d="M5.07 15.59c.118.128.262.086.262.086l1.594-.83c.204-.147.175-.33.175-.33V9.563c0-.218-.211-.293-.211-.293l-1.381-.704c-.302-.197-.5.036-.5.036s.254-.194.379.172v6.552c0 .045-.01.09-.027.13-.037.077-.116.15-.305.119z" fill="#3c99d4"/><path d="M15.211 1.013A1.291 1.291 0 0013.35.979a.14.14 0 00-.04.1.14.14 0 00.04.098l.161.174a.123.123 0 00.168.012.74.74 0 011.058.101.84.84 0 01-.052 1.119C13.62 3.702 12.202.564 8.98 2.18a.454.454 0 00-.228.28.481.481 0 00.04.367l.553 1.005c.12.219.383.295.592.171l.013-.007-.01.007.242-.142a5.69 5.69 0 00.771-.606.13.13 0 01.176-.006c.027.024.043.06.044.098a.136.136 0 01-.039.1 5.78 5.78 0 01-.814.645h-.009l-.245.145a.662.662 0 01-.339.093.693.693 0 01-.607-.367l-.523-.95c-1 .75-1.613 2.189-1.28 4.012a.13.13 0 00.124.11h.59a.13.13 0 00.13-.123c.057-.457.427-.798.864-.798.438 0 .807.341.865.798a.13.13 0 00.125.118h.577a.13.13 0 00.125-.118c.058-.457.427-.798.865-.798.437 0 .807.341.864.798a.13.13 0 00.126.118h.572c.07 0 .127-.06.128-.133.013-.85.231-1.827.851-2.316 2.15-1.694 1.585-3.145 1.087-3.67zM13.02 3.57l-.41-.216c0-.128.084-.238.202-.265a.254.254 0 01.289.153.28.28 0 01-.081.33z" fill="#6e6e6e" fill-rule="evenodd"/></svg>