<?xml version="1.0" ?><svg viewBox="0 0 128 128" xmlns="http://www.w3.org/2000/svg"><defs><style>.cls-1{fill:#4d91bb;}.cls-2{fill:#2175aa;}.cls-3{fill:#c3edf5;}.cls-4{fill:#7ad0cb;}.cls-5{fill:#4dbab4;}</style></defs><title/><g data-name="23 Page Rank Badge" id="_23_Page_Rank_Badge"><path class="cls-1" d="M43.22,61,64,73,40,114.53,35.65,98.07l-16.43,4.46Zm41.57,0L64,73l24,41.57,4.35-16.46,16.43,4.46Z"/><polygon class="cls-2" points="39.48 67.43 39.48 81.48 55.02 81.48 57.59 84.06 64 72.97 43.22 60.97 39.48 67.43"/><polygon class="cls-2" points="92.52 74.36 84.78 60.97 64 72.97 71.87 86.6 76.98 81.48 92.52 81.48 92.52 74.36"/><rect class="cls-3" height="53.03" width="53.03" x="37.48" y="24.45"/><rect class="cls-3" height="53.03" transform="translate(54.78 -30.33) rotate(45)" width="53.03" x="37.48" y="24.45"/><circle class="cls-4" cx="64" cy="50.97" r="15"/><path class="cls-5" d="M52.74,51A15,15,0,0,1,65.87,36.09a15,15,0,1,0,0,29.74A15,15,0,0,1,52.74,51Z"/></g></svg>