<svg id="Layer_1" data-name="Layer 1" xmlns="http://www.w3.org/2000/svg" viewBox="0 0 103.54 92.65"><title>20181115_vignet bch 2019_black</title><path d="M76.92,49.87a7.84,7.84,0,0,1-7.81,7.82H34.29a7.84,7.84,0,0,1-7.81-7.82V30.19a7.84,7.84,0,0,1,7.81-7.81H69.11a7.84,7.84,0,0,1,7.81,7.81ZM51.7,9a39.09,39.09,0,0,0-28,66.35l4.22-11.59a4.62,4.62,0,0,1,4-2.91H71.52a4.62,4.62,0,0,1,4,2.91l4.22,11.59A39.09,39.09,0,0,0,51.7,9"/><path d="M67.8,28l-1.92-2-.11-.1a2,2,0,0,0-1.17-.39,1.63,1.63,0,0,0-1.19.48h0L45.65,43.87l-6.12-6.12a1.69,1.69,0,0,0-2.49,0l-2,2a1.77,1.77,0,0,0-.54,1.26,1.54,1.54,0,0,0,.58,1.23l9.26,9.33.1.09a2,2,0,0,0,1.17.39,1.64,1.64,0,0,0,1.19-.48l21-21a1.78,1.78,0,0,0,.54-1.26A1.6,1.6,0,0,0,67.8,28Z"/><path d="M49.63,62.88l-6.29,0a.75.75,0,0,0-.69.76v1.62a.73.73,0,0,0,.69.76l6.29,0a.74.74,0,0,0,.69-.77V63.63a.7.7,0,0,0-.68-.75"/><path d="M59.14,62.83l-6.29,0a.73.73,0,0,0-.69.76v1.62a.73.73,0,0,0,.69.76l6.28,0a.74.74,0,0,0,.69-.77V63.58a.71.71,0,0,0-.68-.75"/><path d="M39.83,62.93l-6.28,0a.74.74,0,0,0-.7.76v1.61a.73.73,0,0,0,.7.76l6.28,0a.74.74,0,0,0,.69-.77V63.69a.73.73,0,0,0-.69-.76"/><path d="M68.52,62.78l-6.29,0a.75.75,0,0,0-.69.76v1.61a.73.73,0,0,0,.68.77l6.29,0a.74.74,0,0,0,.69-.77V63.53a.72.72,0,0,0-.69-.75"/><path d="M45.55,67.23l-6.29,0a.73.73,0,0,0-.69.76v1.61a.74.74,0,0,0,.69.77l6.28,0a.75.75,0,0,0,.7-.77V68a.72.72,0,0,0-.69-.75"/><path d="M55.05,67.18l-6.28,0a.73.73,0,0,0-.69.76v1.61a.71.71,0,0,0,.68.76l6.29,0a.74.74,0,0,0,.69-.77V67.93a.72.72,0,0,0-.69-.75"/><path d="M35.75,67.28l-6.28,0a.74.74,0,0,0-.69.76v1.62a.73.73,0,0,0,.68.76l6.28,0a.75.75,0,0,0,.7-.77V68a.72.72,0,0,0-.69-.75"/><path d="M74.24,67.07l-6.28,0a.74.74,0,0,0-.7.76v1.61a.73.73,0,0,0,.69.76l6.28,0a.74.74,0,0,0,.69-.77V67.83a.72.72,0,0,0-.68-.76"/><path d="M64.44,67.13l-6.28,0a.74.74,0,0,0-.7.76v1.61a.72.72,0,0,0,.69.76l6.29,0a.74.74,0,0,0,.69-.77V67.88a.72.72,0,0,0-.69-.75"/><path d="M49.59,71.53l-6.29,0a.73.73,0,0,0-.69.76v1.61a.73.73,0,0,0,.68.76l6.29,0a.74.74,0,0,0,.69-.77V72.29a.72.72,0,0,0-.68-.76"/><path d="M59.09,71.48l-6.28,0a.75.75,0,0,0-.7.77v1.61a.73.73,0,0,0,.69.76l6.29,0a.73.73,0,0,0,.69-.76V72.24a.73.73,0,0,0-.69-.76"/><path d="M39.79,71.58l-6.28,0a.74.74,0,0,0-.7.76V74a.73.73,0,0,0,.69.76l6.29,0a.74.74,0,0,0,.69-.77V72.34a.71.71,0,0,0-.68-.76"/><path d="M68.48,71.43l-6.29,0a.73.73,0,0,0-.69.76v1.61a.73.73,0,0,0,.69.76l6.29,0a.73.73,0,0,0,.69-.76V72.18a.71.71,0,0,0-.68-.75"/><path d="M35.71,75.93l-6.29,0a.73.73,0,0,0-.69.76v1.61a.71.71,0,0,0,.68.76l6.28,0a.75.75,0,0,0,.7-.77V76.69a.73.73,0,0,0-.69-.76"/><path d="M74.05,75.73l-6.28,0a.74.74,0,0,0-.7.76v1.61a.72.72,0,0,0,.69.76l6.28,0a.75.75,0,0,0,.7-.77V76.48a.72.72,0,0,0-.69-.75"/><path d="M64.54,75.78l-3.34,0H58.26l-3.34,0-.09,0-.08,0-4.35,0H48.46l-3.1,0H44.12l-5,0a.76.76,0,0,0-.7.77v1.61a.72.72,0,0,0,.68.76l5,0h6.28l4.35,0,.08,0,.09,0h3.35l2.93,0,3.35,0a.74.74,0,0,0,.69-.77V76.53a.72.72,0,0,0-.69-.75"/></svg>