<svg xmlns="http://www.w3.org/2000/svg" width="81.784" height="94.461" viewBox="0 0 81.784 94.461"><defs><style>.a{fill:#0087be}.b{fill:#1aa6e4}.c{fill:#0092cf}</style></defs><path class="a" d="M40.869,112.927,8.1,94.162V56.314h.046L0,51.6V98.831H0l40.869,23.615h0Z" transform="translate(0 -27.985)"/><path class="a" d="M60.231,86.442h0L35.746,72.3H35.7v28.329l24.531,14.05Z" transform="translate(-19.361 -39.211)"/><path class="b" d="M81.784,23.615,40.869,0,0,23.615H0l8.146,4.714,32.723-18.9L73.683,28.283l8.1-4.668Z"/><path class="b" d="M84.861,55.442,60.331,41.3,35.8,55.487,60.285,69.629Z" transform="translate(-19.416 -22.399)"/><path class="c" d="M89.3,86.387h0L113.876,72.2h0Z" transform="translate(-48.431 -39.157)"/><path class="c" d="M161,56.268h0l8.1-4.668h0Z" transform="translate(-87.317 -27.985)"/><path class="c" d="M130.215,51.6l-8.1,4.668-8.238,4.76L89.3,75.215h0v4.21h0V90.638h0v12.815h0l24.576-14.1V80.021L97.4,89.4V79.883l24.714-14.05V94.162L89.3,112.927v9.519l40.915-23.615h0Z" transform="translate(-48.431 -27.985)"/></svg>
