<?xml version="1.0" encoding="utf-8"?>
<!-- Generator: Adobe Illustrator 23.0.3, SVG Export Plug-In . SVG Version: 6.00 Build 0)  -->
<svg version="1.1" id="Layer_1" xmlns="http://www.w3.org/2000/svg" xmlns:xlink="http://www.w3.org/1999/xlink" x="0px" y="0px"
	 width="1097.7px" height="333.1px" viewBox="0 0 1097.7 333.1" style="enable-background:new 0 0 1097.7 333.1;"
	 xml:space="preserve">
<style type="text/css">
	.st0{fill:#FFFFFF;}
	.st1{fill:#FF6C37;}
</style>
<title>hor-white-logo</title>
<g>
	<g id="Layer_2-2">
		<path class="st0" d="M186.7,9.3C99.7-1.9,20.1,59.6,9,146.6s50.3,166.6,137.3,177.7C233.3,335.5,312.9,274,324,187
			c0-0.1,0-0.2,0-0.2C335.1,99.8,273.6,20.4,186.7,9.3z"/>
		<path class="st0" d="M419.2,113.7h-27.1c-1.3-0.1-2.6,0.4-3.5,1.2c-0.9,0.7-1.4,1.8-1.4,3v96c0,1.3,0.8,2.6,2,3.2
			c2.6,1.6,5.9,1.6,8.5,0c1.3-0.6,2.1-1.8,2.1-3.2v-37.2h18.6c8.1,0.4,16.1-2.3,22.4-7.5c6.1-6.3,9.2-14.9,8.5-23.6v-1.3
			c0.8-8.5-2.1-17-7.9-23.3C435.1,115.8,427.2,113.2,419.2,113.7z M437.8,146.7c0.4,5.5-1.4,11-4.9,15.2c-3.9,3.8-9.1,5.7-14.5,5.4
			h-18.6v-42.8h18.6c5.2-0.3,10.3,1.6,14,5.1c3.6,4.2,5.4,9.7,4.9,15.2L437.8,146.7z"/>
		<path class="st0" d="M500,120.8c-6.1,6.3-9.1,15-8.4,23.7v43.1c-0.8,8.8,2.3,17.4,8.4,23.8c13.3,10.1,31.7,10.1,45,0
			c6.2-6.3,9.3-15,8.5-23.8v-42.8c0.9-8.9-2.2-17.7-8.5-24.1C531.7,110.7,513.3,110.7,500,120.8z M541.4,187.7
			c0.5,5.6-1.3,11.1-4.9,15.3c-3.7,3.6-8.8,5.4-13.9,5.1c-12.6,0-18.6-6.9-18.6-20.5v-42.8c0-13.6,6.2-20.4,18.6-20.4
			c5.2-0.3,10.2,1.5,13.9,5.1c3.6,4.2,5.4,9.7,4.9,15.2V187.7z"/>
		<path class="st0" d="M641.5,162c-4.7-2.1-9.3-4-13.9-5.7c-4.3-1.4-8.4-3.6-11.9-6.5c-3.2-2.6-4.9-6.7-4.6-10.8
			c-0.4-4.5,1.7-8.8,5.4-11.3c4.2-2.5,9.1-3.7,13.9-3.4c4.6-0.1,9.2,0.8,13.4,2.7c2.1,1,4.2,1.9,6.4,2.6c1.6,0,3-0.9,3.7-2.3
			c0.8-1.3,1.4-2.8,1.5-4.3c0-2.9-2.8-5.3-8.2-7.1c-5.5-1.7-11.2-2.6-17-2.5c-3.7,0-7.4,0.4-11,1.3c-3.5,0.9-6.9,2.2-10,4.1
			c-3.3,2-5.9,4.9-7.6,8.4c-2,4.1-3,8.6-2.9,13.2c-0.2,5.6,1.5,11.2,4.8,15.7c3.1,4,7.2,7.2,11.9,9.3c4.7,2,9.3,3.8,13.9,5.5
			c4.4,1.6,8.5,4.2,11.8,7.5c3.3,3.5,5,8.1,4.8,12.8c0.4,5-1.6,9.9-5.3,13.3c-4.2,3.3-9.4,4.8-14.7,4.5c-3.6,0.1-7.1-0.5-10.4-1.8
			c-2.5-0.8-4.8-2.2-6.8-4l-4.5-4.3c-0.9-0.9-2.1-1.6-3.3-1.8c-1.4,0.1-2.7,0.9-3.4,2.1c-1,1.3-1.6,2.8-1.7,4.5c0,3.4,3,7,9.3,10.5
			c6.5,3.8,14,5.7,21.6,5.4c8.3,0.4,16.4-2.3,22.8-7.5c6.1-5.8,9.2-14,8.6-22.3C658.7,178,652.2,167,641.5,162L641.5,162z"/>
		<path class="st0" d="M756.6,113.7h-58.4c-1.3,0-2.4,0.6-3.2,1.6c-1.6,2.3-1.6,5.4,0,7.7c0.7,1,1.9,1.6,3.2,1.6h23.2v89.3
			c0,1.3,0.7,2.5,1.8,3.2c2.6,1.6,5.9,1.6,8.5,0c1.2-0.6,1.9-1.8,1.9-3.2v-89.3h22.9c1.3,0.1,2.5-0.6,3.2-1.7
			c0.8-1.1,1.2-2.5,1.1-3.9c0-1.3-0.3-2.6-1.1-3.7C758.9,114.3,757.8,113.7,756.6,113.7z"/>
		<path class="st0" d="M872.3,113.7c-3.6,0-6.8,2.5-9.3,7.6l-22.7,43.1l-22.5-43.1c-2.6-5.1-5.8-7.6-9.3-7.6H806
			c-2.8,0.5-4.7,3.2-4.3,6v94.1c0,1.4,0.7,2.7,2,3.3c1.3,0.8,2.8,1.2,4.3,1.1c1.4,0,2.8-0.5,4-1.3c1.2-0.6,1.9-1.8,1.9-3.2v-75.6
			l21.7,41.4c0.6,2,2.3,3.4,4.4,3.5c2.2-0.1,4-1.5,4.7-3.5l21.7-40.7v74.9c0,1.3,0.7,2.5,1.8,3.2c2.6,1.5,5.8,1.5,8.5,0
			c1.2-0.6,1.9-1.8,1.9-3.2v-94.3c0.1-0.5,0.1-1,0-1.5l0,0C877.9,115.2,875.2,113.2,872.3,113.7z"/>
		<path class="st0" d="M956.5,113.8c-4.1,0-6.5,1.4-7.3,4.1l-29.4,94.5c-0.1,0.4-0.1,0.7,0,1.1c0,1.6,0.9,3.1,2.3,3.8
			c1.5,0.9,3.2,1.4,4.9,1.4c1.9,0.3,3.8-0.9,4.4-2.8l6.2-20.9h37.2l6.2,20.9c0.6,1.8,2.5,3,4.4,2.7c1.8,0.1,3.7-0.4,5.2-1.4
			c1.4-0.6,2.3-1.9,2.3-3.4 M993,213.4v-0.5l-29.4-95c-0.7-2.7-3.1-4.1-7.2-4.1L993,213.4z M940.4,184.8l16-53.6l16.1,53.6
			L940.4,184.8L940.4,184.8z"/>
		<path class="st0" d="M1096,114.7c-2.6-1.5-5.8-1.5-8.5,0c-1.1,0.6-1.8,1.8-1.9,3.1v73.5l-35.7-69.9c-0.9-2.2-2.3-4.2-4-5.9
			c-1.4-1.2-3.2-1.8-5.1-1.8c-4.1,0-6,1.4-6,4.2v96c-0.1,1.3,0.6,2.5,1.8,3.2c2.6,1.6,5.9,1.6,8.5,0c1.1-0.6,1.8-1.9,1.8-3.2V141
			l37.2,72.1c1.2,3.2,4.2,5.3,7.5,5.5c1.5,0,3-0.4,4.3-1.2c1.1-0.7,1.8-1.9,1.8-3.2v-96.4C1097.7,116.5,1097.1,115.4,1096,114.7z"/>
		<path class="st1" d="M261.8,83.7c-0.9,0.4-1.4,1.5-1,2.4c0,0.1,0.1,0.1,0.1,0.2c1,2,0.8,4.5-0.7,6.2c-0.7,0.7-0.8,1.9-0.1,2.6
			c0,0,0,0,0.1,0.1c0.4,0.1,0.9,0.1,1.3,0c0.5,0,1.1-0.3,1.4-0.7c2.5-2.9,3-7,1.2-10.4C263.6,83.4,262.6,83.2,261.8,83.7z"/>
		<path class="st1" d="M187.7,1.4C96.5-10.4,13.1,54.1,1.4,145.3S54.1,320,145.3,331.7S319.9,279,331.7,187.8
			C343.4,96.6,279,13.1,187.7,1.4C187.8,1.4,187.8,1.4,187.7,1.4z M222,105.2c-3.1,0.1-6,1.3-8.2,3.5L152,170.5l-13.2-13.2
			C199.6,96.6,210.7,96,222,105.2z M154.5,172.7l61.6-61.2c3.4-3.3,8.8-3.3,12.2,0c1.7,1.7,2.6,4,2.5,6.3c-0.1,2.4-1.1,4.6-2.9,6.2
			l-65.1,57.4L154.5,172.7z M159.1,182l-15.3,3.9c-0.3,0.2-0.6,0.2-0.9,0c-0.2-0.3-0.2-0.7,0-1l9.3-9.3L159.1,182z M120.1,175.6
			l16.3-16.3l12.3,12.6l-27.9,6c-0.6,0.1-1.2-0.3-1.3-0.9c-0.1-0.4,0-0.7,0.3-1L120.1,175.6z M69.6,260.3c-0.4-0.1-0.8-0.4-0.9-0.7
			c-0.1-0.4-0.1-0.8,0-1.1l13.1-13.2l17,16.9L69.6,260.3z M103.2,242.8L103.2,242.8c-1.3,0.7-2,2.1-1.7,3.5l2.8,12
			c0.2,0.8-0.2,1.6-0.8,2c-0.6,0.5-1.5,0.5-2,0l-17-17.5l52.2-52.3l25.3-5.4l12.1,12.1c-21.6,18-45.4,33.3-70.8,45.4v0.2H103.2z
			 M176.6,195.2L165,183.6l65.1-57.3c0.6-0.5,1.2-1.1,1.7-1.8C229.7,143.1,203.5,169.5,176.6,195.2z M227.4,105.5
			c-9.7-10.1-9.3-26.1,0.8-35.8c9.2-8.8,23.4-9.4,33.3-1.4l-22.4,22.3c-0.6,0.7-0.6,1.7,0,2.4l17.4,17.3c-9.8,4.8-21.6,2.8-29.2-5
			L227.4,105.5z M263.1,105.5c-1.2,1.1-2.4,2.2-3.8,3.1l-16.7-16.7l21.3-21.3C273.1,80.5,272.8,95.9,263.1,105.5z"/>
	</g>
</g>
</svg>
