<svg xmlns="http://www.w3.org/2000/svg" height="36" width="157.24" id="svg3750"><defs id="defs3754"><style id="style3870">.cls-1{fill:#464646}.cls-2{fill:#82bea0}</style></defs><g transform="translate(-25.38 -12)" id="g3921"><path class="cls-1" d="M77.61 36.63a6 6 0 0 0 2.69-.54 1.88 1.88 0 0 0 1.06-1.82 2.63 2.63 0 0 0-.19-1 2.07 2.07 0 0 0-.63-.79 5.37 5.37 0 0 0-1.15-.67L77.64 31q-.85-.35-1.6-.71a6.51 6.51 0 0 1-1.34-.84 3.67 3.67 0 0 1-.93-1.15 3.49 3.49 0 0 1-.35-1.63 3.66 3.66 0 0 1 1.38-3 5.82 5.82 0 0 1 3.8-1.14 10.31 10.31 0 0 1 2.55.26 8.08 8.08 0 0 1 1.41.47L82.13 25a11.37 11.37 0 0 0-1.18-.47 7.75 7.75 0 0 0-2.43-.29 5.36 5.36 0 0 0-1.21.13 3.22 3.22 0 0 0-1 .41 2.19 2.19 0 0 0-.7.7 1.93 1.93 0 0 0-.26 1 2.21 2.21 0 0 0 .23 1.05 2.33 2.33 0 0 0 .69.77 5.76 5.76 0 0 0 1.11.63l1.5.64q.87.35 1.68.71a6.18 6.18 0 0 1 1.41.87 4 4 0 0 1 1 1.22 3.8 3.8 0 0 1 .38 1.79 3.5 3.5 0 0 1-1.53 3.09 7.3 7.3 0 0 1-4.18 1 10.52 10.52 0 0 1-3-.34 11.53 11.53 0 0 1-1.4-.51l.5-1.72a3.06 3.06 0 0 0 .38.19 7.92 7.92 0 0 0 .79.29 8.47 8.47 0 0 0 1.18.28 9.58 9.58 0 0 0 1.52.19z" id="path3876" fill="#464646"/><path class="cls-1" d="M85.92 23.44q.84-.23 2.27-.52a17.87 17.87 0 0 1 3.5-.29 7.28 7.28 0 0 1 2.87.5 4.4 4.4 0 0 1 1.84 1.41 5.77 5.77 0 0 1 1 2.2 12.78 12.78 0 0 1 .29 2.83V38h-1.92v-7.83a14.31 14.31 0 0 0-.22-2.71 4.53 4.53 0 0 0-.73-1.81 2.83 2.83 0 0 0-1.34-1 6.09 6.09 0 0 0-2.08-.31 15.86 15.86 0 0 0-2.32.15 7.11 7.11 0 0 0-1.27.26V38h-1.89z" id="path3878" fill="#464646"/><path class="cls-1" d="M105.92 22.56a6.68 6.68 0 0 1 2.52.42 4.33 4.33 0 0 1 1.67 1.17 4.59 4.59 0 0 1 .93 1.76 8 8 0 0 1 .29 2.21v9.5a8.56 8.56 0 0 1-.84.19l-1.28.22q-.73.12-1.62.19-.89.07-1.82.07a8.69 8.69 0 0 1-2.2-.26 4.86 4.86 0 0 1-1.75-.83 3.91 3.91 0 0 1-1.16-1.46 5 5 0 0 1-.42-2.17 4.4 4.4 0 0 1 .47-2.1A4 4 0 0 1 102 30a5.86 5.86 0 0 1 2-.83 11.56 11.56 0 0 1 2.53-.26h.86c.3 0 .59.07.87.12l.73.15a2.3 2.3 0 0 1 .42.13v-.93a9.92 9.92 0 0 0-.12-1.53 3.35 3.35 0 0 0-.51-1.34 2.83 2.83 0 0 0-1.11-1 4.15 4.15 0 0 0-1.88-.36 9.72 9.72 0 0 0-2.48.23q-.82.23-1.19.38l-.26-1.66a7 7 0 0 1 1.53-.44 13.07 13.07 0 0 1 2.53-.1zm.18 14q1.11 0 1.94-.07a13.15 13.15 0 0 0 1.41-.19V31a5.8 5.8 0 0 0-1-.31 9 9 0 0 0-1.92-.16 10.93 10.93 0 0 0-1.46.1 4.23 4.23 0 0 0-1.4.44 2.91 2.91 0 0 0-1 .92 2.64 2.64 0 0 0-.41 1.54 3.31 3.31 0 0 0 .28 1.43 2.3 2.3 0 0 0 .79.93 3.49 3.49 0 0 0 1.22.51 7.39 7.39 0 0 0 1.55.2z" id="path3880" fill="#464646"/><path class="cls-1" d="M116.51 43.36h-1.89V23.44a17.12 17.12 0 0 1 2.16-.55 17.39 17.39 0 0 1 3.32-.26 8.1 8.1 0 0 1 3 .54 6.53 6.53 0 0 1 2.33 1.56 7.1 7.1 0 0 1 1.57 2.46 9.45 9.45 0 0 1 .54 3.29 10.53 10.53 0 0 1-.45 3.16 7 7 0 0 1-1.33 2.48 6.09 6.09 0 0 1-2.14 1.62 6.87 6.87 0 0 1-2.9.58 7.14 7.14 0 0 1-2.58-.42 6.72 6.72 0 0 1-1.59-.8zm0-8.1a6.3 6.3 0 0 0 .66.44 6.2 6.2 0 0 0 .92.44 7.41 7.41 0 0 0 1.14.33 6.09 6.09 0 0 0 1.28.13 5.14 5.14 0 0 0 2.34-.48 4.1 4.1 0 0 0 1.53-1.31 5.56 5.56 0 0 0 .84-2 10.38 10.38 0 0 0 .26-2.37 6.43 6.43 0 0 0-1.48-4.51 5.13 5.13 0 0 0-3.93-1.59 15.61 15.61 0 0 0-2.26.13 8.47 8.47 0 0 0-1.3.28z" id="path3882" fill="#464646"/><path class="cls-1" d="M140.25 37.22a3.83 3.83 0 0 1-.76.36 9.82 9.82 0 0 1-.95.29 9.2 9.2 0 0 1-1 .2 7.64 7.64 0 0 1-1 .07 6.45 6.45 0 0 1-5-2 8.08 8.08 0 0 1-1.78-5.61 10.77 10.77 0 0 1 .47-3.29 7.19 7.19 0 0 1 1.33-2.48 5.65 5.65 0 0 1 2.1-1.56 6.9 6.9 0 0 1 2.78-.54 10.87 10.87 0 0 1 2.1.17 5.75 5.75 0 0 1 1.54.52l-.29.9a5.14 5.14 0 0 0-1.46-.5 9.67 9.67 0 0 0-1.89-.17 5 5 0 0 0-4.17 1.81 8 8 0 0 0-1.46 5.13 7.34 7.34 0 0 0 1.47 5 5.39 5.39 0 0 0 4.3 1.69 7.56 7.56 0 0 0 1.86-.26 6.46 6.46 0 0 0 1.66-.64z" id="path3884" fill="#464646"/><path class="cls-1" d="M144.07 38h-1V23.78a9.74 9.74 0 0 1 2.2-.79 10.4 10.4 0 0 1 2.32-.26 7.7 7.7 0 0 1 2.68.38l-.2.87a6.06 6.06 0 0 0-1.11-.23 11 11 0 0 0-1.43-.09 8.86 8.86 0 0 0-1.79.19 7.73 7.73 0 0 0-1.68.54z" id="path3886" fill="#464646"/><path class="cls-1" d="M161.87 37.48a15.76 15.76 0 0 1-2.35.5 18.31 18.31 0 0 1-2.49.17 6.85 6.85 0 0 1-4.31-1.15 4.1 4.1 0 0 1-1.46-3.42 3.85 3.85 0 0 1 1.52-3.31 7.67 7.67 0 0 1 4.57-1.12 11.75 11.75 0 0 1 1.86.16 10.05 10.05 0 0 1 1.66.39v-1.14a5.89 5.89 0 0 0-1-3.79 4.19 4.19 0 0 0-3.37-1.17 10 10 0 0 0-1.91.19 6.22 6.22 0 0 0-1.56.48l-.15-.93a9.26 9.26 0 0 1 3.79-.67 5 5 0 0 1 3.92 1.38 5.73 5.73 0 0 1 1.28 3.95zm-1-6.9a8.51 8.51 0 0 0-1.57-.41 11.76 11.76 0 0 0-1.92-.15q-5.07 0-5.07 3.55a3.22 3.22 0 0 0 1.18 2.75 6.15 6.15 0 0 0 3.69.89 17.73 17.73 0 0 0 1.85-.1 12 12 0 0 0 1.85-.33z" id="path3888" fill="#464646"/><path class="cls-1" d="M165.91 38h-1V21.1a6.31 6.31 0 0 1 1.27-4.36 5 5 0 0 1 3.82-1.38 7.41 7.41 0 0 1 1.56.16 5.1 5.1 0 0 1 1.15.36l-.23.9a5.58 5.58 0 0 0-1.21-.36 6.75 6.75 0 0 0-1.27-.12 4 4 0 0 0-3.09 1.09 5.5 5.5 0 0 0-1 3.77V23h6.29v1h-6.29z" id="path3890" fill="#464646"/><path class="cls-1" d="M182.62 37.36a7.22 7.22 0 0 1-1.49.55 6.67 6.67 0 0 1-1.72.23A4.48 4.48 0 0 1 176 37q-1.11-1.2-1.11-4.14V18.37l1-.23V23h6.09v.87h-6.09V33a7.85 7.85 0 0 0 .23 2.08 3 3 0 0 0 .7 1.31 2.49 2.49 0 0 0 1.12.67 5.38 5.38 0 0 0 1.5.19 6 6 0 0 0 1.68-.23 6.17 6.17 0 0 0 1.27-.5z" id="path3892" fill="#464646"/><path class="cls-2" id="polygon3894" fill="#82bea0" d="M55.37 23.83l-8.31-3.69v12z"/><path class="cls-2" id="polygon3896" fill="#82bea0" d="M45.85 33.34l-4.47-4.44L31.19 48z"/><path class="cls-2" id="polygon3898" fill="#82bea0" d="M46.35 32.84V19.58L25.38 12z"/><path id="polygon3900" fill="#fa6441" d="M47.54 19.58l15.52 6.9-3.44-6.9z"/></g></svg>