<svg xmlns="http://www.w3.org/2000/svg" xmlns:xlink="http://www.w3.org/1999/xlink" height="16" viewBox="0 0 16 16" width="16"><defs><path id="a" d="M.446 0H11v16.015H.446z"/><path id="c" d="M0 .789h6.27V7H0z"/></defs><g fill="none" fill-rule="evenodd"><path fill="#b02051" d="M6.799 10.06l-.186.187.186-.187M5.443 8.926h-.007.007m.084-.006h-.001zm-.054.003h-.006.006m-.099.01a.01.01 0 01-.004 0h.004m.127-.012h-.004.004m-.412.066l-.012.003.012-.003m.127-.03l-.007.002.007-.001m1.864.815l.123-.127-.123.127m-1.947-.797l-.012.002.012-.002m.277-.047h-.006.006m-.627.162l.017-.007-.017.007m-.096.046l.019-.01-.02.01m-.142.081l.015-.01-.015.01m1.066-.301zm-.624.098l.01-.003-.01.003m-.154.055l.014-.005zm.761-.152h-.001zM2.55 11.22c.001-.002.003-.003.003-.005 0 .002-.002.003-.003.005m1.768 1.274l.003-.002-.003.002m.01-.008l.014-.01-.014.01m.1-.206l.012-.01-.012.01m-.032.027l.03-.026-.03.026m-.15.24h.002zm2.987-2.683l-.197.199.198-.2M4.442 12.27l.01-.01-.01.01m2.98-2.597l.002-.003.192 1.705c.514-.465 1.036-.918 1.538-1.4a21.354 21.354 0 002.12-2.37c.54-.687 1.042-1.517 1.422-2.209l-.181-1.683a92.44 92.44 0 01-2.006 2.493C9.513 7.401 8.495 8.57 7.421 9.672m-2.983 4.172l-.02.013.02-.013m1.848-3.272l-.075.074.075-.074" stroke-width="1.051"/><path fill="#b02051" d="M5.65 8.916l-.031.001 1.779.525-.126.131c.18-.188.36-.378.536-.57a79.989 79.989 0 004.626-5.561l-.564-.221c-.24-.035-1.591-.27-2.752.665a10.703 10.703 0 00-1.766 1.767c-.15.193-.295.392-.443.588l.68.072v.042a2.02 2.02 0 00-.85.227c-.27.144-.515.33-.753.584.32-.06.613-.08.906.015-.037.015-.747.024-1.184.45-.616.447-.96 1.125-1.016 1.212.371-.053.832-.017.957.073M4.453 12.26l.008-.008-.008.008m-2.496.048l.024-.06-.024.06m4.547-1.952l-.092.091.092-.091m.382-.384l.12-.123-.12.123m-2.423 2.279l.006-.005-.006.005M2.54 11.239l.004-.006zm-.022.033l.01-.015-.01.015" stroke-width="1.051"/><path fill="#d9482f" d="M3.476 13.112l-.01.007zm.036-.025l-.013.009.013-.01m-.15.106l-.01.007.01-.007m.04-.027l-.01.006.01-.006m.325-.235l.01-.006-.01.007m-.026.02l-.008.005zm-.073.052a.076.076 0 00-.01.007l.01-.007m-.041.03l-.011.007.011-.008m-.036.026l-.009.006.01-.006m-.419.236l-.025.018.025-.018m.035-.025l.028-.02a.2.2 0 00-.028.02m.158-.053l-.006.004.006-.004m-.164.057l-.022.016.022-.016m1.044-.812a27.77 27.77 0 00.27-.223c.51-.467 1.036-.907 1.534-1.395.468-.46.934-.923 1.388-1.402l-1.78-.525c-.13.002-.651.013-1.121.332-.776.527-1.687 1.509-1.935 1.952-.041.074-.215.317-.396.66zm-.926.786l.01-.007-.01.007m-.097.066l.003-.002-.003.002m.038-.026l-.009.007.009-.007m-.073.05l.007-.005-.007.004m.107-.072l-.005.004.005-.004m-1.208-1.163l.023-.05-.023.05m1.569.83l-.11.084.11-.084m-1.72-.464l-.01.024.01-.024m.122-.302l.021-.048-.021.048m-.114.28l.018-.05zm3.643-.95c-.379.347-.756.64-1.179.96-.013.01-.068.053-.15.114l.149 1.321.072-.046c.334-.212 2.318-1.675 2.89-2.207l.287-.263-.192-1.705a50.008 50.008 0 01-1.877 1.825m-3.56.74l.024-.053-.024.053m1.237.994l-.026.02.026-.02m.034-.024l-.026.02.026-.02m.512-.303l.006-.005-.006.005m.074-.054l.002-.002-.002.002m-.413.226l-.032.025.032-.025m-.07.053l-.031.024.032-.024m.034-.026l-.034.026c.01-.009.023-.017.034-.026m-.072.054l-.029.022.029-.022m-.032.024l-.03.023z" stroke-width="1.051"/><g transform="matrix(.42489 0 0 .46938 12.325 -2.122)"><mask id="b" fill="#fff"><use xlink:href="#a" width="100%" height="100%"/></mask><path fill="#7f287b" d="M5.39 6.662c-1.897 2.43.868-1.297-1.065 1.103a195.144 195.144 0 01-3.88 4.664l.429 3.586c1.013-1.662 1.666-2.947 1.689-2.982.197.8.53 1.265.666 1.492.133.225.287.437.43.654-.284-1.584-.533-3.15-.098-4.76.686.148 1.184.596 1.703 1.006.02-.022.19.134.213.112-.523-.92-.881-1.186-1.228-1.662.96.072 2.11-.085 2.45-.318-.918-.043-1.932-.037-2.735-.55" mask="url(#b)"/></g><path fill="#7f287b" d="M11.902 3.225a.237.237 0 01-.032-.004l.564.22c.4-.526.797-1.058 1.19-1.595.04-.054.048-.091.01-.16a1.634 1.634 0 01-.13-.328 7.312 7.312 0 01-.117-.482c-.132.555-.01.677.1.99a10.062 10.062 0 00-.68-.27c-.452-.14-.902-.223-1.352-.038a2.225 2.225 0 00-.718.485c.31-.138.72-.1 1 .06-.358.04-.716.066-1.053.219-.336.152-.689.431-.956.712.734-.338 1.506-.298 2.174.19" stroke-width="1.051"/><g transform="matrix(.42489 0 0 .46938 1.703 11.49)"><mask id="d" fill="#fff"><use xlink:href="#c" width="100%" height="100%"/></mask><path fill="#f39124" d="M5.919 2.299c-.601.408-1.811 1.22-2.584 1.676-.068.009-.078-.06-.028-.091.7-.45 1.86-1.283 2.584-1.813L1.09.789C.316 2.117-.512 4.139.398 5.934c.508.757.88 1.274 1.992.984 1.492-.39 3.19-1.4 3.88-1.805z" mask="url(#d)"/></g></g></svg>