<?xml version="1.0" encoding="UTF-8" standalone="no"?>
<svg
   xmlns:dc="http://purl.org/dc/elements/1.1/"
   xmlns:cc="http://creativecommons.org/ns#"
   xmlns:rdf="http://www.w3.org/1999/02/22-rdf-syntax-ns#"
   xmlns:svg="http://www.w3.org/2000/svg"
   xmlns="http://www.w3.org/2000/svg"
   xmlns:xlink="http://www.w3.org/1999/xlink"
   xmlns:sodipodi="http://sodipodi.sourceforge.net/DTD/sodipodi-0.dtd"
   xmlns:inkscape="http://www.inkscape.org/namespaces/inkscape"
   height="16"
   viewBox="0 0 16 16"
   width="16"
   version="1.1"
   id="svg30"
   sodipodi:docname="apache.svg"
   inkscape:version="1.0 (4035a4fb49, 2020-05-01)">
  <metadata
     id="metadata34">
    <rdf:RDF>
      <cc:Work
         rdf:about="">
        <dc:format>image/svg+xml</dc:format>
        <dc:type
           rdf:resource="http://purl.org/dc/dcmitype/StillImage" />
      </cc:Work>
    </rdf:RDF>
  </metadata>
  <sodipodi:namedview
     inkscape:document-rotation="0"
     pagecolor="#ffffff"
     bordercolor="#666666"
     borderopacity="1"
     objecttolerance="10"
     gridtolerance="10"
     guidetolerance="10"
     inkscape:pageopacity="0"
     inkscape:pageshadow="2"
     inkscape:window-width="640"
     inkscape:window-height="480"
     id="namedview32"
     showgrid="false"
     inkscape:zoom="19.799382"
     inkscape:cx="12.428347"
     inkscape:cy="13.08809"
     inkscape:current-layer="g28" />
  <defs
     id="defs4">
    <polygon
       id="apache-a"
       points=".446 0 11 0 11 16.015 .446 16.015" />
    <polygon
       id="apache-c"
       points="0 .789 6.27 .789 6.27 7 0 7" />
  </defs>
  <g
     fill="none"
     fill-rule="evenodd"
     transform="matrix(0.42266123,0,0,0.42688161,0.7431494,0.13706988)"
     id="g28">
    <path
       fill="#b02051"
       d="m 14.327789,23.244118 c -0.146771,0.147341 -0.292535,0.293581 -0.439304,0.438724 0.146769,-0.145143 0.292533,-0.292483 0.439304,-0.438724 m -3.209135,-2.65543 c -0.005,0 -0.0091,0 -0.01509,0.0012 0.005,-0.0012 0.01006,-0.0012 0.01509,-0.0012 m 0.199245,-0.01397 h -0.002 z m -0.127671,0.0076 c -0.0041,0 -0.008,0.0012 -0.01307,0.0012 0.005,0 0.0091,-0.0012 0.01307,-0.0012 m -0.233624,0.02255 c -0.003,0.0012 -0.006,0.0012 -0.01006,0.0012 0.0041,0 0.0071,0 0.01006,-0.0012 m 0.300476,-0.02696 c -0.003,0 -0.006,0 -0.0091,0.0012 0.003,-0.0012 0.006,-0.0012 0.0091,-0.0012 m -0.973909,0.152523 c -0.01005,0.0022 -0.02011,0.0044 -0.02915,0.0077 0.0091,-0.0034 0.0191,-0.0054 0.02915,-0.0077 m 0.299471,-0.06763 c -0.006,0.0012 -0.01207,0.0022 -0.01709,0.0034 0.005,-0.0012 0.01106,-0.0022 0.01709,-0.0034 m 4.410738,1.90916 c 0.09651,-0.099 0.193013,-0.197963 0.289519,-0.296923 -0.09651,0.09896 -0.193012,0.197921 -0.289519,0.296879 M 10.177114,20.75835 c -0.01005,0.0022 -0.02011,0.0054 -0.02915,0.0088 0.0091,-0.0034 0.0191,-0.0066 0.02915,-0.0088 m 0.209098,-0.05366 c -0.01005,0.0022 -0.0191,0.0044 -0.02815,0.0066 0.0091,-0.0022 0.01809,-0.0044 0.02815,-0.0066 m 0.09922,-0.02157 c -0.008,0.0012 -0.01609,0.0034 -0.02312,0.0054 0.007,-0.0022 0.01508,-0.0044 0.02312,-0.0054 m 0.555615,-0.08699 c -0.0041,0 -0.0091,0 -0.01408,0.0012 0.005,-0.0012 0.01006,-0.0012 0.01408,-0.0012 m -1.4823763,0.380121 c 0.014074,-0.0054 0.026138,-0.01208 0.040211,-0.01759 -0.014074,0.0054 -0.026138,0.01208 -0.040211,0.01759 m -0.1149027,0.05157 c 0.015079,-0.0066 0.029152,-0.01321 0.043226,-0.02089 -0.014074,0.0077 -0.028148,0.01429 -0.043226,0.02089 m -0.1137971,0.05588 c 0.01508,-0.0077 0.030157,-0.01539 0.045237,-0.02309 -0.01508,0.0077 -0.030157,0.0154 -0.045237,0.02309 m -0.3377718,0.190111 c 0.012063,-0.0077 0.024128,-0.01539 0.03619,-0.02309 -0.012063,0.0077 -0.024127,0.01539 -0.03619,0.02309 m 0.1119874,-0.06773 c 0.014074,-0.0088 0.028148,-0.01649 0.043225,-0.0242 -0.01508,0.0077 -0.029152,0.01539 -0.043225,0.0242 m 0.8285463,-0.373627 c 9.78e-4,0 0.00303,-0.0012 0.00499,-0.0012 -0.00205,0 -0.00401,0.0012 -0.00499,0.0012 M 11.518149,20.56834 h -0.0041 z M 10.0407,20.798029 c 0.008,-0.0022 0.01709,-0.0054 0.02413,-0.0077 -0.007,0.0022 -0.01609,0.0054 -0.02413,0.0077 m -0.363206,0.128868 0.032168,-0.01321 z m 1.799441,-0.357568 h -0.003 z m -1.666946,0.306113 c 0.00301,-0.0012 0.00604,-0.0022 0.010053,-0.0034 -0.00401,0.0012 -0.00703,0.0022 -0.010053,0.0034 m -5.5339303,5.087552 c 0.00202,-0.0044 0.00503,-0.0077 0.00703,-0.01209 -0.00201,0.0044 -0.00503,0.0077 -0.00703,0.01209 m 4.1585149,3.001241 c 0.00401,-0.0034 0.00804,-0.0066 0.012063,-0.0088 -0.00401,0.0022 -0.00804,0.0054 -0.012063,0.0088 m 0.083438,-0.06224 c 0.021112,-0.01649 0.037196,-0.02858 0.049259,-0.03738 -0.012063,0.0088 -0.028148,0.02089 -0.049259,0.03738 m -0.06082,0.04508 c 0.00301,-0.0022 0.00503,-0.0034 0.00703,-0.0054 -0.00202,0.0022 -0.00401,0.0034 -0.00703,0.0054 m 0.025534,-0.01936 c 0.012063,-0.0088 0.023122,-0.01759 0.033173,-0.0242 -0.010053,0.0066 -0.021111,0.0154 -0.033173,0.0242 M 8.7183614,28.44666 c 0.010053,-0.0088 0.0191,-0.0154 0.027143,-0.0231 -0.00804,0.0077 -0.017089,0.01429 -0.027143,0.0231 m -0.076602,0.06333 c 0.027142,-0.02309 0.052274,-0.04288 0.073386,-0.0616 -0.021111,0.01871 -0.046241,0.03849 -0.073386,0.0616 m -0.3524471,0.561676 h 0.00201 z m 7.7270347,-2.527788 c -0.145766,0.130847 -0.289519,0.262794 -0.433274,0.394739 0.143755,-0.131945 0.288515,-0.263892 0.433274,-0.394739 m -0.659661,-3.75817 c -0.155817,0.156138 -0.312641,0.311176 -0.468457,0.466215 0.155816,-0.155039 0.31264,-0.310077 0.468457,-0.466215 M 8.7507319,28.41984 c 0.00905,-0.0077 0.018095,-0.01539 0.025132,-0.022 -0.00703,0.0066 -0.016084,0.01429 -0.025132,0.022 m 7.0496821,-6.082969 0.006,-0.0066 0.45539,3.993592 h -0.0011 c 1.215376,-1.090761 2.451863,-2.150734 3.638085,-3.282179 1.788382,-1.706512 3.46719,-3.554867 5.015311,-5.550565 1.280717,-1.608653 2.465934,-3.553767 3.36666,-5.173416 L 27.850638,8.3746987 c -1.551147,1.9791983 -3.133449,3.9254153 -4.744902,5.8408433 -2.357365,2.800574 -4.766002,5.539571 -7.305322,8.121333 m -7.0575229,9.772424 c -0.016084,0.01 -0.032168,0.02088 -0.049259,0.03079 0.017088,-0.01 0.033173,-0.02088 0.049259,-0.03079 m 4.3705269,-7.663584 c -0.05931,0.05828 -0.117617,0.114353 -0.175925,0.171529 0.05831,-0.05718 0.116615,-0.113252 0.175925,-0.171529"
       id="path6"
       style="stroke-width:1.05137" />
    <path
       fill="#b02051"
       d="m 11.607519,20.566147 c -0.01006,0.0012 -0.03418,0.0012 -0.07138,0.0022 l 4.208078,1.229304 c -0.09852,0.103354 -0.19804,0.205616 -0.29756,0.306776 0.427241,-0.439823 0.85046,-0.885144 1.26765,-1.337062 1.764252,-1.915428 3.493325,-3.87374 5.1852,-5.871634 1.973352,-2.328863 3.888399,-4.719301 5.761223,-7.1548207 L 26.324719,7.2240722 c -0.567978,-0.082466 -3.763741,-0.6322456 -6.510152,1.5591725 -1.532035,1.2227073 -2.937406,2.5586703 -4.177913,4.1387333 -0.355869,0.451919 -0.698667,0.917031 -1.048502,1.377746 0.558932,0.05828 1.083684,0.112154 1.608436,0.167131 0,0.03299 0.0011,0.06596 0.0011,0.09896 -0.700675,0.03739 -1.376218,0.19792 -2.012559,0.532186 -0.638347,0.336464 -1.217385,0.77409 -1.781343,1.36675 0.75697,-0.140745 1.451615,-0.188025 2.145254,0.03519 -0.08947,0.03627 -1.76928,0.05608 -2.801697,1.053376 -1.458653,1.048978 -2.2739293,2.636737 -2.4046147,2.840155 0.8786087,-0.124251 1.9683247,-0.03849 2.2648817,0.172631 m -2.8312871,7.832144 c 0.00804,-0.0066 0.015079,-0.01208 0.021112,-0.01871 -0.00604,0.0066 -0.013069,0.01208 -0.021112,0.01871 M 2.8713146,28.51106 c 0.0191,-0.04618 0.0382,-0.09238 0.058306,-0.138543 -0.020105,0.04617 -0.039206,0.09238 -0.058306,0.138543 M 13.629852,23.93783 c -0.07137,0.07146 -0.144761,0.142941 -0.217139,0.214415 0.07237,-0.07147 0.145764,-0.142945 0.217139,-0.214415 m 0.903137,-0.898778 c 0.0955,-0.09677 0.18899,-0.192423 0.284492,-0.289183 -0.0955,0.09677 -0.18899,0.192422 -0.284492,0.289183 m -5.7311649,5.3378 c 0.00401,-0.0044 0.00905,-0.0077 0.013069,-0.01099 -0.00401,0.0034 -0.00905,0.0066 -0.013069,0.01099 m 0.016687,-0.01506 c 0.00503,-0.0034 0.00905,-0.0077 0.012063,-0.01099 -0.00301,0.0034 -0.00703,0.0077 -0.012063,0.01099 m -4.5698727,-2.355801 0.00905,-0.01321 z m 4.9684635,-4.86323 c 0.015079,-0.0088 0.029152,-0.01649 0.045237,-0.02309 -0.016084,0.0066 -0.030158,0.0143 -0.045237,0.02309 m -5.0185265,4.941624 c 0.00804,-0.01209 0.016085,-0.02311 0.022116,-0.0352 -0.00604,0.0121 -0.014074,0.02309 -0.022116,0.0352"
       id="path8"
       style="stroke-width:1.05137" />
    <path
       fill="#d9482f"
       d="m 6.4662482,30.394541 -0.023122,0.01649 z m 0.084442,-0.05903 c -0.011059,0.0066 -0.021111,0.0143 -0.030157,0.02089 0.00905,-0.0066 0.0191,-0.0143 0.030157,-0.02089 m -0.3543586,0.245856 c -0.00804,0.0066 -0.017089,0.01208 -0.024127,0.01759 0.00703,-0.0054 0.016084,-0.01099 0.024127,-0.01759 m 0.092285,-0.06333 c -0.00703,0.0054 -0.015079,0.01 -0.021112,0.01538 0.00604,-0.0054 0.014073,-0.0099 0.021112,-0.01538 m 0.083438,-0.05805 c -0.010053,0.0066 -0.0191,0.01321 -0.027143,0.01978 0.00804,-0.0066 0.017089,-0.01321 0.027143,-0.01978 M 7.0631793,29.97035 c 0.00703,-0.0044 0.014074,-0.01 0.021112,-0.0154 -0.00703,0.0054 -0.014073,0.01099 -0.021112,0.0154 m -0.063835,0.04519 -0.018095,0.01321 z m -0.092284,0.06653 c -0.00905,0.0066 -0.018096,0.01321 -0.025131,0.01871 0.00703,-0.0054 0.016085,-0.01208 0.025131,-0.01871 m -0.082431,0.05903 c -0.00804,0.0054 -0.016084,0.01099 -0.023122,0.01759 0.00703,-0.0066 0.01508,-0.01208 0.023122,-0.01759 m -0.096205,0.0687 c -0.00905,0.0066 -0.018096,0.01208 -0.026137,0.01871 0.00804,-0.0066 0.017089,-0.0121 0.026137,-0.01871 m -0.084442,0.06016 c -0.00804,0.0054 -0.016084,0.0099 -0.022116,0.01539 0.00703,-0.0054 0.014074,-0.01 0.022116,-0.01539 M 5.654391,30.822928 c -0.020106,0.01539 -0.040211,0.02858 -0.060317,0.04288 0.020106,-0.01429 0.040211,-0.0275 0.060317,-0.04288 m 0.082431,-0.05795 c 0.021112,-0.01649 0.044232,-0.03188 0.066348,-0.04839 -0.022117,0.01649 -0.045237,0.03188 -0.066348,0.04839 m 0.3740625,-0.124585 c -0.00503,0.0034 -0.010053,0.0066 -0.014073,0.01 0.00401,-0.0034 0.00905,-0.0066 0.014073,-0.01 m -0.3887386,0.134264 c -0.01709,0.01321 -0.033174,0.02419 -0.050264,0.03628 0.017089,-0.01208 0.033175,-0.02309 0.050264,-0.03628 m 2.4699569,-1.901684 c -0.386025,0.308976 -0.8967039,0.711415 -1.3953196,1.096259 0.9399308,-0.722409 1.9190673,-1.512991 2.0336683,-1.618549 1.2093445,-1.095159 2.4528675,-2.126544 3.6300435,-3.267883 1.108816,-1.076469 2.20959,-2.163931 3.284226,-3.285478 l -4.209079,-1.229304 c -0.310629,0.0034 -1.5420889,0.0297 -2.6549268,0.777385 -1.8356294,1.234805 -3.9909358,3.533979 -4.5780157,4.57196 -0.097511,0.17373 -0.5086683,0.744399 -0.9359096,1.545979 z m -2.1891842,1.84044 c 0.00804,-0.0054 0.017089,-0.01099 0.024127,-0.01649 -0.00703,0.0054 -0.016084,0.01099 -0.024127,0.01649 m -0.2307102,0.154598 c 0.00301,-0.0012 0.00503,-0.0034 0.00804,-0.0054 -0.00301,0.0022 -0.00503,0.0044 -0.00804,0.0054 m 0.090273,-0.06003 c -0.00703,0.0044 -0.014074,0.0099 -0.021111,0.01429 0.00703,-0.0044 0.014074,-0.0099 0.021111,-0.01429 m -0.1737112,0.114794 c 0.00604,-0.0044 0.012063,-0.0077 0.01709,-0.01099 -0.00503,0.0034 -0.011059,0.0066 -0.01709,0.01099 m 0.2542332,-0.168569 c -0.00401,0.0034 -0.00804,0.0054 -0.013069,0.0088 0.00503,-0.0034 0.00905,-0.0054 0.013069,-0.0088 M 3.1529673,27.882931 C 3.2223303,27.737791 3.2947108,27.598146 3.36508,27.4651 3.29471,27.598146 3.2223311,27.737791 3.1529673,27.882931 m 3.3791264,2.290379 c -0.056295,0.04288 -0.1115854,0.08466 -0.1668755,0.125348 0.05529,-0.04068 0.1105802,-0.08246 0.1668755,-0.125348 M 3.0843069,28.025762 c 0.0191,-0.03738 0.03619,-0.07588 0.054286,-0.114354 -0.018095,0.03849 -0.035183,0.07696 -0.054286,0.114354 m 3.7118719,1.944568 c -0.086454,0.06707 -0.1729068,0.133047 -0.25735,0.197921 0.084442,-0.06488 0.1708966,-0.130848 0.25735,-0.197921 M 2.725927,28.884736 c -0.00703,0.01871 -0.014073,0.03738 -0.021112,0.05608 l 0.00101,0.0012 c 0.00703,-0.01978 0.013069,-0.03849 0.020105,-0.05717 m 0.2896169,-0.70973 c 0.018094,-0.03738 0.034179,-0.07367 0.051271,-0.112155 -0.017091,0.03849 -0.033175,0.07476 -0.051271,0.112155 m -0.2699158,0.657205 0.044233,-0.115455 z m 8.6194169,-2.227053 c -0.895699,0.813671 -1.7873767,1.498696 -2.7876237,2.251893 -0.032168,0.0231 -0.1628543,0.122052 -0.3568722,0.266093 L 8.5734,32.217376 c 0.065343,-0.04289 0.1226435,-0.07808 0.1698913,-0.107757 0.7921555,-0.4959 5.4847727,-3.92432 6.8398817,-5.170118 0.225181,-0.207816 0.451366,-0.412334 0.678559,-0.615752 l -0.455388,-3.993592 c -0.304599,0.310074 -0.609196,0.617951 -0.917816,0.921428 -1.157069,1.14244 -2.328212,2.267288 -3.523483,3.353651 m -8.5595991,2.070216 c 0.041217,-0.106655 0.083438,-0.210013 0.1276698,-0.312273 -0.044233,0.102255 -0.086454,0.205618 -0.1276698,0.312273 m 0.1384263,-0.337124 c 0.0191,-0.04178 0.03619,-0.08356 0.05529,-0.125349 -0.0191,0.04179 -0.03619,0.08357 -0.05529,0.125349 m 4.2969411,1.503206 c 0.00604,-0.0034 0.012063,-0.0077 0.017088,-0.01209 -0.00503,0.0044 -0.011059,0.0088 -0.017088,0.01209 m -1.3703889,0.825767 c -0.021112,0.01649 -0.043226,0.03079 -0.063333,0.04729 0.020106,-0.01649 0.042221,-0.03079 0.063333,-0.04729 m 0.078512,-0.05684 c -0.021111,0.0154 -0.041217,0.0297 -0.061321,0.04508 0.020106,-0.0154 0.040211,-0.0297 0.061321,-0.04508 M 7.1603913,29.9007 c 0.00503,-0.0034 0.010053,-0.0077 0.015079,-0.01099 -0.00503,0.0034 -0.010053,0.0077 -0.015079,0.01099 m 0.1757232,-0.127926 c 0.00201,-0.0012 0.00401,-0.0022 0.00604,-0.0044 -0.00201,0.0022 -0.00401,0.0034 -0.00604,0.0044 m -0.9778298,0.531525 c -0.024127,0.01978 -0.050264,0.03849 -0.075396,0.05718 0.025132,-0.01871 0.05127,-0.03738 0.075396,-0.05718 m -0.1629552,0.123588 c -0.025131,0.01871 -0.05127,0.03738 -0.075396,0.05607 0.024128,-0.01871 0.050264,-0.03738 0.075396,-0.05607 m 0.080522,-0.06125 c -0.026138,0.02088 -0.054286,0.04068 -0.080423,0.06159 0.026138,-0.02089 0.054286,-0.04068 0.080423,-0.06159 M 6.1059609,30.4933 c -0.022116,0.0176 -0.045236,0.0341 -0.067354,0.05059 0.022117,-0.01649 0.045237,-0.03299 0.067354,-0.05059 m -0.074592,0.05587 -0.073386,0.05497 z"
       id="path10"
       style="stroke-width:1.05137" />
    <g
       transform="matrix(1.0052734,0,0,1.0995573,27.402276,-5.2917035)"
       id="g17">
      <mask
         id="apache-b"
         fill="#ffffff">
        <use
           xlink:href="#apache-a"
           id="use12"
           x="0"
           y="0"
           width="100%"
           height="100%" />
      </mask>
      <path
         fill="#7f287b"
         d="M 5.3909262,6.6618674 C 3.4929262,9.0918674 6.2579,5.3648 4.3249,7.7648 c -1.27,1.576 -2.563,3.131 -3.879,4.664 l 0.428,3.586 c 1.013,-1.662 1.666,-2.947 1.689,-2.982 0.197,0.801 0.531,1.265 0.666,1.492 0.133,0.225 0.287,0.437 0.431,0.654 -0.285,-1.584 -0.534,-3.15 -0.099,-4.76 0.686,0.148 1.184,0.596 1.703,1.006 0.021,-0.022 0.19,0.134 0.213,0.112 -0.523,-0.919 -0.881,-1.186 -1.228,-1.662 0.96,0.072 2.111,-0.085 2.45,-0.318 -0.918,-0.043 -1.932,-0.037 -2.735,-0.55"
         mask="url(#apache-b)"
         id="path15"
         sodipodi:nodetypes="ccccccccccccc" />
    </g>
    <path
       fill="#7f287b"
       d="m 26.401928,7.2334638 c -0.01309,0 -0.03921,-0.00329 -0.07741,-0.0099 l 1.336008,0.5167921 C 28.6085,6.5066516 29.546422,5.2608531 30.474288,4.0040591 30.569789,3.8765106 30.588889,3.7896453 30.501437,3.6302096 30.371752,3.3916107 30.270219,3.1277168 30.193818,2.8594249 30.107366,2.5526482 29.989749,2.0996306 29.915359,1.7312789 29.60272,3.0309557 29.889221,3.3179402 30.151597,4.0513449 30.020913,3.994168 28.989501,3.5565441 28.543162,3.4190993 27.472544,3.0892324 26.408965,2.8957102 25.343374,3.3289358 24.405454,3.7093826 23.72187,4.371316 23.644463,4.4647784 c 0.732845,-0.3243693 1.703938,-0.2353052 2.365406,0.1418431 -0.846437,0.092362 -1.692877,0.1528384 -2.490061,0.5112941 -0.796176,0.357356 -1.629548,1.0104933 -2.26287,1.6680283 1.737113,-0.7916811 3.563694,-0.6971193 5.14499,0.4475199"
       id="path19"
       style="stroke-width:1.05137" />
    <g
       transform="matrix(1.0052734,0,0,1.0995573,2.2704375,26.595459)"
       id="g26">
      <mask
         id="apache-d"
         fill="#ffffff">
        <use
           xlink:href="#apache-c"
           id="use21"
           x="0"
           y="0"
           width="100%"
           height="100%" />
      </mask>
      <path
         fill="#f39124"
         d="m 5.9189,2.2988 c -0.601,0.408 -1.811,1.221 -2.584,1.676 -0.068,0.009 -0.078,-0.059 -0.028,-0.091 0.7,-0.45 1.861,-1.283 2.584,-1.813 l -4.8,-1.282 c -0.775,1.328 -1.603,3.351 -0.693,5.145 0.508,0.757 0.881,1.274 1.992,0.984 1.492,-0.39 3.19,-1.399 3.88,-1.805 z"
         mask="url(#apache-d)"
         id="path24" />
    </g>
  </g>
</svg>
