<?xml version="1.0" encoding="UTF-8" standalone="no"?>
<svg
   xmlns:dc="http://purl.org/dc/elements/1.1/"
   xmlns:cc="http://creativecommons.org/ns#"
   xmlns:rdf="http://www.w3.org/1999/02/22-rdf-syntax-ns#"
   xmlns:svg="http://www.w3.org/2000/svg"
   xmlns="http://www.w3.org/2000/svg"
   xmlns:sodipodi="http://sodipodi.sourceforge.net/DTD/sodipodi-0.dtd"
   xmlns:inkscape="http://www.inkscape.org/namespaces/inkscape"
   style="fill-rule:evenodd;clip-rule:evenodd;stroke-linejoin:round;stroke-miterlimit:1.41421;"
   version="1.1"
   width="16"
   height="16"
   viewBox="0 0 16 16"
   xml:space="preserve"
   id="svg17"
   sodipodi:docname="bettercodehub.svg"
   inkscape:version="0.92.4 (5da689c313, 2019-01-14)"><metadata
     id="metadata23"><rdf:RDF><cc:Work
         rdf:about=""><dc:format>image/svg+xml</dc:format><dc:type
           rdf:resource="http://purl.org/dc/dcmitype/StillImage" /></cc:Work></rdf:RDF></metadata><defs
     id="defs21"><filter
       style="color-interpolation-filters:sRGB;"
       inkscape:label="Invert"
       id="filter539"><feColorMatrix
         values="1 0 0 0 0 0 0 1 0 0 0 1 0 0 0 -0.21 -0.72 -0.07 1.68 0 "
         result="fbSourceGraphic"
         id="feColorMatrix537" /><feColorMatrix
         result="fbSourceGraphicAlpha"
         in="fbSourceGraphic"
         values="0 0 0 -1 0 0 0 0 -1 0 0 0 0 -1 0 0 0 0 1 0"
         id="feColorMatrix462" /><feColorMatrix
         id="feColorMatrix464"
         values="1 0 0 0 0 0 0 1 0 0 0 1 0 0 0 0.21 0.72 0.07 0.971354 0 "
         result="color2"
         in="fbSourceGraphic" /></filter><filter
       style="color-interpolation-filters:sRGB;"
       inkscape:label="Invert"
       id="filter543"><feColorMatrix
         values="1 0 0 0 0 0 0 1 0 0 0 1 0 0 0 -0.21 -0.72 -0.07 1.68 0 "
         result="fbSourceGraphic"
         id="feColorMatrix541" /><feColorMatrix
         result="fbSourceGraphicAlpha"
         in="fbSourceGraphic"
         values="0 0 0 -1 0 0 0 0 -1 0 0 0 0 -1 0 0 0 0 1 0"
         id="feColorMatrix466" /><feColorMatrix
         id="feColorMatrix468"
         values="1 0 0 0 0 0 0 1 0 0 0 1 0 0 0 0.21 0.72 0.07 0.971354 0 "
         result="color2"
         in="fbSourceGraphic" /></filter><filter
       style="color-interpolation-filters:sRGB;"
       inkscape:label="Invert"
       id="filter547"><feColorMatrix
         values="1 0 0 0 0 0 0 1 0 0 0 1 0 0 0 -0.21 -0.72 -0.07 1.68 0 "
         result="fbSourceGraphic"
         id="feColorMatrix545" /><feColorMatrix
         result="fbSourceGraphicAlpha"
         in="fbSourceGraphic"
         values="0 0 0 -1 0 0 0 0 -1 0 0 0 0 -1 0 0 0 0 1 0"
         id="feColorMatrix470" /><feColorMatrix
         id="feColorMatrix472"
         values="1 0 0 0 0 0 0 1 0 0 0 1 0 0 0 0.21 0.72 0.07 0.971354 0 "
         result="color2"
         in="fbSourceGraphic" /></filter><filter
       style="color-interpolation-filters:sRGB;"
       inkscape:label="Invert"
       id="filter551"><feColorMatrix
         values="1 0 0 0 0 0 0 1 0 0 0 1 0 0 0 -0.21 -0.72 -0.07 1.68 0 "
         result="fbSourceGraphic"
         id="feColorMatrix549" /><feColorMatrix
         result="fbSourceGraphicAlpha"
         in="fbSourceGraphic"
         values="0 0 0 -1 0 0 0 0 -1 0 0 0 0 -1 0 0 0 0 1 0"
         id="feColorMatrix474" /><feColorMatrix
         id="feColorMatrix476"
         values="1 0 0 0 0 0 0 1 0 0 0 1 0 0 0 0.21 0.72 0.07 0.971354 0 "
         result="color2"
         in="fbSourceGraphic" /></filter><filter
       style="color-interpolation-filters:sRGB;"
       inkscape:label="Invert"
       id="filter555"><feColorMatrix
         values="1 0 0 0 0 0 0 1 0 0 0 1 0 0 0 -0.21 -0.72 -0.07 1.68 0 "
         result="fbSourceGraphic"
         id="feColorMatrix553" /><feColorMatrix
         result="fbSourceGraphicAlpha"
         in="fbSourceGraphic"
         values="0 0 0 -1 0 0 0 0 -1 0 0 0 0 -1 0 0 0 0 1 0"
         id="feColorMatrix478" /><feColorMatrix
         id="feColorMatrix480"
         values="1 0 0 0 0 0 0 1 0 0 0 1 0 0 0 0.21 0.72 0.07 0.971354 0 "
         result="color2"
         in="fbSourceGraphic" /></filter><filter
       style="color-interpolation-filters:sRGB;"
       inkscape:label="Invert"
       id="filter559"><feColorMatrix
         values="1 0 0 0 0 0 0 1 0 0 0 1 0 0 0 -0.21 -0.72 -0.07 1.68 0 "
         result="fbSourceGraphic"
         id="feColorMatrix557" /><feColorMatrix
         result="fbSourceGraphicAlpha"
         in="fbSourceGraphic"
         values="0 0 0 -1 0 0 0 0 -1 0 0 0 0 -1 0 0 0 0 1 0"
         id="feColorMatrix482" /><feColorMatrix
         id="feColorMatrix484"
         values="1 0 0 0 0 0 0 1 0 0 0 1 0 0 0 0.21 0.72 0.07 0.971354 0 "
         result="color2"
         in="fbSourceGraphic" /></filter><filter
       style="color-interpolation-filters:sRGB;"
       inkscape:label="Invert"
       id="filter563"><feColorMatrix
         values="1 0 0 0 0 0 0 1 0 0 0 1 0 0 0 -0.21 -0.72 -0.07 1.68 0 "
         result="fbSourceGraphic"
         id="feColorMatrix561" /><feColorMatrix
         result="fbSourceGraphicAlpha"
         in="fbSourceGraphic"
         values="0 0 0 -1 0 0 0 0 -1 0 0 0 0 -1 0 0 0 0 1 0"
         id="feColorMatrix486" /><feColorMatrix
         id="feColorMatrix488"
         values="1 0 0 0 0 0 0 1 0 0 0 1 0 0 0 0.21 0.72 0.07 0.971354 0 "
         result="color2"
         in="fbSourceGraphic" /></filter><filter
       style="color-interpolation-filters:sRGB;"
       inkscape:label="Invert"
       id="filter567"><feColorMatrix
         values="1 0 0 0 0 0 0 1 0 0 0 1 0 0 0 -0.21 -0.72 -0.07 1.68 0 "
         result="fbSourceGraphic"
         id="feColorMatrix565" /><feColorMatrix
         result="fbSourceGraphicAlpha"
         in="fbSourceGraphic"
         values="0 0 0 -1 0 0 0 0 -1 0 0 0 0 -1 0 0 0 0 1 0"
         id="feColorMatrix490" /><feColorMatrix
         id="feColorMatrix492"
         values="1 0 0 0 0 0 0 1 0 0 0 1 0 0 0 0.21 0.72 0.07 0.971354 0 "
         result="color2"
         in="fbSourceGraphic" /></filter></defs><sodipodi:namedview
     pagecolor="#ffffff"
     bordercolor="#666666"
     borderopacity="1"
     objecttolerance="10"
     gridtolerance="10"
     guidetolerance="10"
     inkscape:pageopacity="0"
     inkscape:pageshadow="2"
     inkscape:window-width="1920"
     inkscape:window-height="1001"
     id="namedview19"
     showgrid="false"
     inkscape:zoom="20.86"
     inkscape:cx="-15.720732"
     inkscape:cy="0.79189736"
     inkscape:window-x="-9"
     inkscape:window-y="-9"
     inkscape:window-maximized="1"
     inkscape:current-layer="svg17" /><rect
     height="64"
     id="comparison--statistics--score--percentage"
     style="fill:none;filter:url(#filter539)"
     width="64"
     x="0"
     y="0"
     transform="matrix(0.26465462,0,0,0.26371119,-0.294963,-0.37864498)" /><path
     d="m 11,22 c -0.552,0 -1,-0.448 -1,-1 0,-1.916 0,-6.084 0,-8 0,-0.552 0.448,-1 1,-1 4.3,0 21,0 21,0 v 10 c 0,0 -16.7,0 -21,0 z"
     style="fill:#ccff90;filter:url(#filter543)"
     id="path3"
     inkscape:connector-curvature="0"
     transform="matrix(0.26465462,0,0,0.26371119,-0.294963,-0.37864498)" /><path
     d="m 42,42 c 0.552,0 1,0.448 1,1 0,1.916 0,6.084 0,8 0,0.552 -0.448,1 -1,1 -2.711,0 -10,0 -10,0 V 42 c 0,0 7.289,0 10,0 z"
     style="fill:#6ae573;filter:url(#filter547)"
     id="path5"
     inkscape:connector-curvature="0"
     transform="matrix(0.26465462,0,0,0.26371119,-0.294963,-0.37864498)" /><path
     d="m 18,37 c -0.552,0 -1,-0.448 -1,-1 0,-1.916 0,-6.084 0,-8 0,-0.552 0.448,-1 1,-1 3.355,0 14,0 14,0 v 10 c 0,0 -10.645,0 -14,0 z"
     style="fill:#ccff90;filter:url(#filter551)"
     id="path7"
     inkscape:connector-curvature="0"
     transform="matrix(0.26465462,0,0,0.26371119,-0.294963,-0.37864498)" /><path
     d="m 48,27 c 0.552,0 1,0.448 1,1 0,1.916 0,6.084 0,8 0,0.552 -0.448,1 -1,1 -3.644,0 -16,0 -16,0 V 27 c 0,0 12.356,0 16,0 z"
     style="fill:#6ae573;filter:url(#filter555)"
     id="path9"
     inkscape:connector-curvature="0"
     transform="matrix(0.26465462,0,0,0.26371119,-0.294963,-0.37864498)" /><path
     d="m 16,52 c -0.552,0 -1,-0.448 -1,-1 0,-1.916 0,-6.084 0,-8 0,-0.552 0.448,-1 1,-1 3.644,0 16,0 16,0 v 10 c 0,0 -12.356,0 -16,0 z"
     style="fill:#ccff90;filter:url(#filter559)"
     id="path11"
     inkscape:connector-curvature="0"
     transform="matrix(0.26465462,0,0,0.26371119,-0.294963,-0.37864498)" /><path
     d="m 51,12 c 0.552,0 1,0.448 1,1 0,1.916 0,6.084 0,8 0,0.552 -0.448,1 -1,1 -4.048,0 -19,0 -19,0 V 12 c 0,0 14.952,0 19,0 z"
     style="fill:#6ae573;filter:url(#filter563)"
     id="path13"
     inkscape:connector-curvature="0"
     transform="matrix(0.26465462,0,0,0.26371119,-0.294963,-0.37864498)" /><path
     d="M 31,56 V 8 h 2 v 48 z"
     style="fill:#00c853;filter:url(#filter567)"
     id="path15"
     inkscape:connector-curvature="0"
     transform="matrix(0.26465462,0,0,0.26371119,-0.294963,-0.37864498)" /></svg>