<svg xmlns="http://www.w3.org/2000/svg" viewBox="0 0 16 16" width="16" height="16"><defs><style>.cls-1{fill:#fff}</style></defs><path class="cls-1" d="M12.268 9.333a1.336 1.335 0 01-1.331 1.331H5a1.336 1.335 0 01-1.33-1.331v-3.35A1.336 1.335 0 015 4.653h5.936a1.336 1.335 0 011.331 1.33zm-4.3-6.958a6.663 6.655 0 00-4.772 11.296l.72-1.973a.788.787 0 01.681-.496h6.75a.788.787 0 01.682.496l.72 1.973a6.663 6.655 0 00-4.78-11.296" fill="#fff" stroke-width=".17"/><path class="cls-1" d="M10.713 5.61l-.327-.34-.019-.018a.34.34 0 00-.2-.066.278.277 0 00-.202.082L6.938 8.312 5.894 7.27a.288.288 0 00-.424 0l-.341.34a.302.301 0 00-.092.215.263.262 0 00.099.21l1.578 1.587.017.016a.34.34 0 00.2.066.28.28 0 00.203-.082l3.58-3.575a.303.303 0 00.091-.214.273.272 0 00-.092-.223zm-3.097 5.938H6.544a.128.128 0 00-.118.13v.275a.124.124 0 00.118.13h1.072a.126.126 0 00.118-.132v-.275a.12.12 0 00-.116-.128m1.619-.008H8.165a.124.124 0 00-.118.129v.275a.124.124 0 00.118.13h1.07a.126.126 0 00.118-.131v-.276a.121.12 0 00-.116-.128m-3.292.017h-1.07a.126.126 0 00-.12.13v.274a.124.124 0 00.12.13h1.07a.126.126 0 00.118-.132v-.272a.124.124 0 00-.118-.13m4.891-.026H9.764a.128.128 0 00-.118.13v.274a.124.124 0 00.116.131h1.072a.126.126 0 00.118-.13v-.277a.123.123 0 00-.118-.127m-3.914.757H5.849a.124.124 0 00-.117.13v.274a.126.126 0 00.117.13h1.07a.128.128 0 00.12-.13v-.273a.123.123 0 00-.117-.127m1.618-.012H7.47a.124.124 0 00-.118.13v.273a.121.12 0 00.116.13H8.54a.126.126 0 00.118-.131v-.274a.123.123 0 00-.118-.128m-3.29.017H4.18a.126.126 0 00-.118.13v.275a.124.124 0 00.116.13h1.07a.128.128 0 00.12-.132v-.28a.123.123 0 00-.118-.128m6.561-.031h-1.07a.126.126 0 00-.12.13v.274a.124.124 0 00.118.129h1.07a.126.126 0 00.118-.131v-.272a.123.123 0 00-.116-.13m-1.671.01H9.07a.126.126 0 00-.12.13v.274a.123.123 0 00.118.13h1.073a.126.126 0 00.117-.132V12.4a.123.123 0 00-.117-.128m-2.531.748H6.536a.124.124 0 00-.118.13v.274a.124.124 0 00.116.13h1.073a.126.126 0 00.117-.132v-.272a.123.123 0 00-.116-.13m1.621-.008h-1.07a.128.128 0 00-.12.131v.274a.124.124 0 00.117.13H9.23a.124.124 0 00.117-.13v-.276a.124.124 0 00-.117-.13m-3.291.018h-1.07a.126.126 0 00-.12.13v.282a.124.124 0 00.117.13H5.94a.126.126 0 00.117-.132v-.28a.121.12 0 00-.116-.13m4.889-.026H9.756a.124.124 0 00-.118.13v.274a.124.124 0 00.118.13h1.072a.124.124 0 00.118-.13v-.276a.121.12 0 00-.116-.128m-5.587.767H4.171a.124.124 0 00-.118.129v.274a.121.12 0 00.116.13h1.07a.128.128 0 00.12-.132V13.9a.124.124 0 00-.118-.13m6.538-.035h-1.07a.126.126 0 00-.12.13v.274a.123.123 0 00.118.13h1.07a.128.128 0 00.12-.132v-.274a.123.123 0 00-.118-.128m-1.621.009H5.824a.13.13 0 00-.119.131v.274a.123.123 0 00.116.13h4.334a.126.126 0 00.119-.132v-.275a.123.123 0 00-.118-.128" fill="#fff" stroke-width=".17"/></svg>