<svg xmlns="http://www.w3.org/2000/svg" viewBox="0 0 16 16" width="16" height="16"><defs><style>.cls-1{fill:#1b2e50}</style></defs><path class="cls-1" d="M12.531 9.125a1.433 1.412 0 01-1.428 1.408H4.737A1.433 1.412 0 013.31 9.125V5.58a1.433 1.412 0 011.428-1.407h6.366a1.433 1.412 0 011.428 1.407zm-4.61-7.362A7.147 7.04 0 002.8 13.714l.771-2.087a.845.832 0 01.732-.525h7.24a.845.832 0 01.731.525l.772 2.087A7.147 7.04 0 007.92 1.764" fill="#1b2e50" stroke-width=".181"/><path class="cls-1" d="M10.864 5.186l-.351-.36-.02-.019a.366.36 0 00-.214-.07.298.294 0 00-.218.087l-3.247 3.22-1.119-1.102a.309.304 0 00-.455 0l-.366.36a.324.319 0 00-.099.227.282.277 0 00.107.222l1.693 1.68.018.016a.366.36 0 00.214.07.3.295 0 00.217-.086l3.84-3.782a.325.32 0 00.098-.227.293.288 0 00-.098-.236zm-3.322 6.282h-1.15a.137.135 0 00-.126.137v.292a.133.131 0 00.126.137h1.15a.135.133 0 00.126-.139v-.292a.128.126 0 00-.124-.135m1.736-.008H8.13a.133.131 0 00-.126.136v.292a.133.131 0 00.126.137h1.15a.135.133 0 00.126-.139v-.292a.13.128 0 00-.125-.135m-3.531.018H4.602a.135.133 0 00-.128.137v.29a.133.131 0 00.128.137H5.75a.135.133 0 00.126-.139v-.288a.133.131 0 00-.126-.137m5.245-.027h-1.15a.137.135 0 00-.126.137v.29a.133.131 0 00.124.139h1.15a.135.133 0 00.127-.139v-.292a.132.13 0 00-.127-.135m-4.197.802h-1.15a.133.131 0 00-.126.137v.29a.135.133 0 00.126.138h1.148a.137.135 0 00.128-.139v-.288a.132.13 0 00-.126-.135m1.737-.012H7.384a.133.131 0 00-.126.137v.29a.13.128 0 00.125.136h1.15a.135.133 0 00.126-.138v-.29a.132.13 0 00-.126-.135m-3.529.017H3.856a.135.133 0 00-.126.138v.291a.133.131 0 00.124.137h1.148a.137.135 0 00.128-.138v-.298a.132.13 0 00-.126-.135m7.037-.032h-1.148a.135.133 0 00-.128.137v.29a.133.131 0 00.126.137h1.148a.135.133 0 00.126-.14v-.287a.132.13 0 00-.124-.137m-1.791.011H9.1a.135.133 0 00-.128.137v.29a.132.13 0 00.126.136h1.15a.135.133 0 00.127-.138v-.29a.132.13 0 00-.127-.135m-2.714.792h-1.15a.133.131 0 00-.126.137v.29a.133.131 0 00.125.137h1.15a.135.133 0 00.126-.139v-.288a.132.13 0 00-.125-.137m1.737-.009H8.123a.137.135 0 00-.128.139v.29a.133.131 0 00.126.137h1.15a.133.131 0 00.126-.137v-.292a.133.131 0 00-.126-.137m-3.528.018H4.594a.135.133 0 00-.128.137v.299a.133.131 0 00.127.137h1.15a.135.133 0 00.126-.139v-.297a.13.128 0 00-.125-.137m5.244-.027h-1.15a.133.131 0 00-.126.137v.29a.133.131 0 00.126.137h1.15a.133.131 0 00.126-.137v-.292a.13.128 0 00-.124-.135m-5.993.811h-1.15a.133.131 0 00-.126.137v.29a.13.128 0 00.124.136h1.148a.137.135 0 00.128-.138v-.288a.133.131 0 00-.126-.137m7.011-.036h-1.148a.135.133 0 00-.128.136v.29a.132.13 0 00.126.137h1.149a.137.135 0 00.128-.138v-.29a.132.13 0 00-.127-.135m-1.738.009H5.62a.139.137 0 00-.128.138v.29a.132.13 0 00.124.137h4.65a.135.133 0 00.126-.139v-.291a.132.13 0 00-.126-.135" fill="#1b2e50" stroke-width=".181"/></svg>