<?xml version="1.0" encoding="UTF-8" standalone="no"?>
<svg
   xmlns:dc="http://purl.org/dc/elements/1.1/"
   xmlns:cc="http://creativecommons.org/ns#"
   xmlns:rdf="http://www.w3.org/1999/02/22-rdf-syntax-ns#"
   xmlns:svg="http://www.w3.org/2000/svg"
   xmlns="http://www.w3.org/2000/svg"
   xmlns:sodipodi="http://sodipodi.sourceforge.net/DTD/sodipodi-0.dtd"
   xmlns:inkscape="http://www.inkscape.org/namespaces/inkscape"
   viewBox="0 0 128 128"
   version="1.1"
   id="svg23"
   sodipodi:docname="bettercodehub.svg"
   inkscape:version="0.92.4 (5da689c313, 2019-01-14)">
  <metadata
     id="metadata27">
    <rdf:RDF>
      <cc:Work
         rdf:about="">
        <dc:format>image/svg+xml</dc:format>
        <dc:type
           rdf:resource="http://purl.org/dc/dcmitype/StillImage" />
      </cc:Work>
    </rdf:RDF>
  </metadata>
  <sodipodi:namedview
     pagecolor="#ffffff"
     bordercolor="#666666"
     borderopacity="1"
     objecttolerance="10"
     gridtolerance="10"
     guidetolerance="10"
     inkscape:pageopacity="0"
     inkscape:pageshadow="2"
     inkscape:window-width="1920"
     inkscape:window-height="1001"
     id="namedview25"
     showgrid="false"
     inkscape:zoom="4.2273735"
     inkscape:cx="64"
     inkscape:cy="64"
     inkscape:window-x="-9"
     inkscape:window-y="-9"
     inkscape:window-maximized="1"
     inkscape:current-layer="svg23" />
  <defs
     id="defs4">
    <style
       id="style2">.cls-1{fill:#4d91bb;}.cls-2{fill:#2175aa;}.cls-3{fill:#c3edf5;}.cls-4{fill:#7ad0cb;}.cls-5{fill:#4dbab4;}</style>
  </defs>
  <title
     id="title6" />
  <g
     data-name="23 Page Rank Badge"
     id="_23_Page_Rank_Badge"
     transform="matrix(1.1558359,0,0,1.1169796,-10.328323,-6.7788537)">
    <path
       class="cls-1"
       d="M 43.22,61 64,73 40,114.53 35.65,98.07 19.22,102.53 Z M 84.79,61 64,73 l 24,41.57 4.35,-16.46 16.43,4.46 z"
       id="path8"
       inkscape:connector-curvature="0"
       style="fill:#4d91bb" />
    <polygon
       class="cls-2"
       points="39.48,67.43 39.48,81.48 55.02,81.48 57.59,84.06 64,72.97 43.22,60.97 "
       id="polygon10"
       style="fill:#2175aa" />
    <polygon
       class="cls-2"
       points="92.52,74.36 84.78,60.97 64,72.97 71.87,86.6 76.98,81.48 92.52,81.48 "
       id="polygon12"
       style="fill:#2175aa" />
    <rect
       class="cls-3"
       height="53.029999"
       width="53.029999"
       x="37.48"
       y="24.450001"
       id="rect14"
       style="fill:#c3edf5" />
    <rect
       class="cls-3"
       height="53.029999"
       transform="rotate(45,64.001549,50.960309)"
       width="53.029999"
       x="37.48"
       y="24.450001"
       id="rect16"
       style="fill:#c3edf5" />
    <circle
       class="cls-4"
       cx="64"
       cy="50.970001"
       r="15"
       id="circle18"
       style="fill:#7ad0cb" />
    <path
       class="cls-5"
       d="m 52.74,51 a 15,15 0 0 1 13.13,-14.91 15,15 0 1 0 0,29.74 A 15,15 0 0 1 52.74,51 Z"
       id="path20"
       inkscape:connector-curvature="0"
       style="fill:#4dbab4" />
  </g>
</svg>
