<?xml version="1.0" encoding="UTF-8" standalone="no"?>
<svg
   xmlns:dc="http://purl.org/dc/elements/1.1/"
   xmlns:cc="http://creativecommons.org/ns#"
   xmlns:rdf="http://www.w3.org/1999/02/22-rdf-syntax-ns#"
   xmlns:svg="http://www.w3.org/2000/svg"
   xmlns="http://www.w3.org/2000/svg"
   xmlns:sodipodi="http://sodipodi.sourceforge.net/DTD/sodipodi-0.dtd"
   xmlns:inkscape="http://www.inkscape.org/namespaces/inkscape"
   height="100%"
   style="fill-rule:evenodd;clip-rule:evenodd;stroke-linejoin:round;stroke-miterlimit:1.41421;"
   version="1.1"
   viewBox="0 0 64 64"
   width="100%"
   xml:space="preserve"
   id="svg17"
   sodipodi:docname="bettercodehub_dark.svg"
   inkscape:version="0.92.4 (5da689c313, 2019-01-14)"><metadata
     id="metadata23"><rdf:RDF><cc:Work
         rdf:about=""><dc:format>image/svg+xml</dc:format><dc:type
           rdf:resource="http://purl.org/dc/dcmitype/StillImage" /></cc:Work></rdf:RDF></metadata><defs
     id="defs21"><filter
       style="color-interpolation-filters:sRGB;"
       inkscape:label="Invert"
       id="filter539"><feColorMatrix
         values="1 0 0 0 0 0 0 1 0 0 0 1 0 0 0 -0.21 -0.72 -0.07 1.68 0 "
         result="color2"
         id="feColorMatrix537" /></filter><filter
       style="color-interpolation-filters:sRGB;"
       inkscape:label="Invert"
       id="filter543"><feColorMatrix
         values="1 0 0 0 0 0 0 1 0 0 0 1 0 0 0 -0.21 -0.72 -0.07 1.68 0 "
         result="color2"
         id="feColorMatrix541" /></filter><filter
       style="color-interpolation-filters:sRGB;"
       inkscape:label="Invert"
       id="filter547"><feColorMatrix
         values="1 0 0 0 0 0 0 1 0 0 0 1 0 0 0 -0.21 -0.72 -0.07 1.68 0 "
         result="color2"
         id="feColorMatrix545" /></filter><filter
       style="color-interpolation-filters:sRGB;"
       inkscape:label="Invert"
       id="filter551"><feColorMatrix
         values="1 0 0 0 0 0 0 1 0 0 0 1 0 0 0 -0.21 -0.72 -0.07 1.68 0 "
         result="color2"
         id="feColorMatrix549" /></filter><filter
       style="color-interpolation-filters:sRGB;"
       inkscape:label="Invert"
       id="filter555"><feColorMatrix
         values="1 0 0 0 0 0 0 1 0 0 0 1 0 0 0 -0.21 -0.72 -0.07 1.68 0 "
         result="color2"
         id="feColorMatrix553" /></filter><filter
       style="color-interpolation-filters:sRGB;"
       inkscape:label="Invert"
       id="filter559"><feColorMatrix
         values="1 0 0 0 0 0 0 1 0 0 0 1 0 0 0 -0.21 -0.72 -0.07 1.68 0 "
         result="color2"
         id="feColorMatrix557" /></filter><filter
       style="color-interpolation-filters:sRGB;"
       inkscape:label="Invert"
       id="filter563"><feColorMatrix
         values="1 0 0 0 0 0 0 1 0 0 0 1 0 0 0 -0.21 -0.72 -0.07 1.68 0 "
         result="color2"
         id="feColorMatrix561" /></filter><filter
       style="color-interpolation-filters:sRGB;"
       inkscape:label="Invert"
       id="filter567"><feColorMatrix
         values="1 0 0 0 0 0 0 1 0 0 0 1 0 0 0 -0.21 -0.72 -0.07 1.68 0 "
         result="color2"
         id="feColorMatrix565" /></filter></defs><sodipodi:namedview
     pagecolor="#ffffff"
     bordercolor="#666666"
     borderopacity="1"
     objecttolerance="10"
     gridtolerance="10"
     guidetolerance="10"
     inkscape:pageopacity="0"
     inkscape:pageshadow="2"
     inkscape:window-width="1920"
     inkscape:window-height="1001"
     id="namedview19"
     showgrid="false"
     inkscape:zoom="3.6875"
     inkscape:cx="32"
     inkscape:cy="32"
     inkscape:window-x="-9"
     inkscape:window-y="-9"
     inkscape:window-maximized="1"
     inkscape:current-layer="svg17" /><rect
     height="64"
     id="comparison--statistics--score--percentage"
     style="fill:none;filter:url(#filter539)"
     width="64"
     x="0"
     y="0" /><path
     d="M11,22c-0.552,0 -1,-0.448 -1,-1c0,-1.916 0,-6.084 0,-8c0,-0.552 0.448,-1 1,-1c4.3,0 21,0 21,0l0,10c0,0 -16.7,0 -21,0Z"
     style="fill:#ccff90;filter:url(#filter543)"
     id="path3" /><path
     d="M42,42c0.552,0 1,0.448 1,1c0,1.916 0,6.084 0,8c0,0.552 -0.448,1 -1,1c-2.711,0 -10,0 -10,0l0,-10c0,0 7.289,0 10,0Z"
     style="fill:#6ae573;filter:url(#filter547)"
     id="path5" /><path
     d="M18,37c-0.552,0 -1,-0.448 -1,-1c0,-1.916 0,-6.084 0,-8c0,-0.552 0.448,-1 1,-1c3.355,0 14,0 14,0l0,10c0,0 -10.645,0 -14,0Z"
     style="fill:#ccff90;filter:url(#filter551)"
     id="path7" /><path
     d="M48,27c0.552,0 1,0.448 1,1c0,1.916 0,6.084 0,8c0,0.552 -0.448,1 -1,1c-3.644,0 -16,0 -16,0l0,-10c0,0 12.356,0 16,0Z"
     style="fill:#6ae573;filter:url(#filter555)"
     id="path9" /><path
     d="M16,52c-0.552,0 -1,-0.448 -1,-1c0,-1.916 0,-6.084 0,-8c0,-0.552 0.448,-1 1,-1c3.644,0 16,0 16,0l0,10c0,0 -12.356,0 -16,0Z"
     style="fill:#ccff90;filter:url(#filter559)"
     id="path11" /><path
     d="M51,12c0.552,0 1,0.448 1,1c0,1.916 0,6.084 0,8c0,0.552 -0.448,1 -1,1c-4.048,0 -19,0 -19,0l0,-10c0,0 14.952,0 19,0Z"
     style="fill:#6ae573;filter:url(#filter563)"
     id="path13" /><path
     d="M31,56l0,-48l2,0l0,48l-2,0Z"
     style="fill:#00c853;filter:url(#filter567)"
     id="path15" /></svg>