<?xml version="1.0" ?><!DOCTYPE svg  PUBLIC '-//W3C//DTD SVG 1.1//EN'  'http://www.w3.org/Graphics/SVG/1.1/DTD/svg11.dtd'><svg height="100%" style="fill-rule:evenodd;clip-rule:evenodd;stroke-linejoin:round;stroke-miterlimit:1.41421;" version="1.1" viewBox="0 0 64 64" width="100%" xml:space="preserve" xmlns="http://www.w3.org/2000/svg" xmlns:serif="http://www.serif.com/" xmlns:xlink="http://www.w3.org/1999/xlink"><rect height="64" id="comparison--statistics--score--percentage" style="fill:none;" width="64" x="0" y="0"/><path d="M11,22c-0.552,0 -1,-0.448 -1,-1c0,-1.916 0,-6.084 0,-8c0,-0.552 0.448,-1 1,-1c4.3,0 21,0 21,0l0,10c0,0 -16.7,0 -21,0Z" style="fill:#ccff90;"/><path d="M42,42c0.552,0 1,0.448 1,1c0,1.916 0,6.084 0,8c0,0.552 -0.448,1 -1,1c-2.711,0 -10,0 -10,0l0,-10c0,0 7.289,0 10,0Z" style="fill:#6ae573;"/><path d="M18,37c-0.552,0 -1,-0.448 -1,-1c0,-1.916 0,-6.084 0,-8c0,-0.552 0.448,-1 1,-1c3.355,0 14,0 14,0l0,10c0,0 -10.645,0 -14,0Z" style="fill:#ccff90;"/><path d="M48,27c0.552,0 1,0.448 1,1c0,1.916 0,6.084 0,8c0,0.552 -0.448,1 -1,1c-3.644,0 -16,0 -16,0l0,-10c0,0 12.356,0 16,0Z" style="fill:#6ae573;"/><path d="M16,52c-0.552,0 -1,-0.448 -1,-1c0,-1.916 0,-6.084 0,-8c0,-0.552 0.448,-1 1,-1c3.644,0 16,0 16,0l0,10c0,0 -12.356,0 -16,0Z" style="fill:#ccff90;"/><path d="M51,12c0.552,0 1,0.448 1,1c0,1.916 0,6.084 0,8c0,0.552 -0.448,1 -1,1c-4.048,0 -19,0 -19,0l0,-10c0,0 14.952,0 19,0Z" style="fill:#6ae573;"/><path d="M31,56l0,-48l2,0l0,48l-2,0Z" style="fill:#00c853;"/></svg>