<?xml version="1.0" encoding="UTF-8" standalone="no"?>
<svg
   xmlns:dc="http://purl.org/dc/elements/1.1/"
   xmlns:cc="http://creativecommons.org/ns#"
   xmlns:rdf="http://www.w3.org/1999/02/22-rdf-syntax-ns#"
   xmlns:svg="http://www.w3.org/2000/svg"
   xmlns="http://www.w3.org/2000/svg"
   xmlns:sodipodi="http://sodipodi.sourceforge.net/DTD/sodipodi-0.dtd"
   xmlns:inkscape="http://www.inkscape.org/namespaces/inkscape"
   width="16"
   height="16"
   viewBox="0 0 16 16"
   version="1.1"
   id="svg39"
   sodipodi:docname="bitbucket.svg"
   inkscape:version="0.92.4 (5da689c313, 2019-01-14)">
  <metadata
     id="metadata43">
    <rdf:RDF>
      <cc:Work
         rdf:about="">
        <dc:format>image/svg+xml</dc:format>
        <dc:type
           rdf:resource="http://purl.org/dc/dcmitype/StillImage" />
      </cc:Work>
    </rdf:RDF>
  </metadata>
  <sodipodi:namedview
     pagecolor="#ffffff"
     bordercolor="#666666"
     borderopacity="1"
     objecttolerance="10"
     gridtolerance="10"
     guidetolerance="10"
     inkscape:pageopacity="0"
     inkscape:pageshadow="2"
     inkscape:window-width="1920"
     inkscape:window-height="1001"
     id="namedview41"
     showgrid="false"
     inkscape:zoom="14.822627"
     inkscape:cx="16.652781"
     inkscape:cy="8"
     inkscape:window-x="-9"
     inkscape:window-y="-9"
     inkscape:window-maximized="1"
     inkscape:current-layer="Blue" />
  <defs
     id="defs9">
    <style
       id="style2">.cls-1{fill:#253858;}.cls-2{fill:none;}.cls-3{fill:#2684ff;}.cls-4{fill:url(#New_Gradient_Swatch_1);}</style>
    <linearGradient
       id="New_Gradient_Swatch_1"
       x1="64.01"
       y1="30.27"
       x2="32.99"
       y2="54.48"
       gradientUnits="userSpaceOnUse"
       gradientTransform="matrix(0.20997442,0,0,0.23466095,1.4638402,0.12000647)">
      <stop
         offset="0.18"
         stop-color="#0052cc"
         id="stop4" />
      <stop
         offset="1"
         stop-color="#2684ff"
         id="stop6" />
    </linearGradient>
  </defs>
  <title
     id="title11">Bitbucket-blue</title>
  <g
     id="Layer_2"
     data-name="Layer 2">
    <g
       id="Blue">
      <polygon
         class="cls-2"
         points="21.23,25.12 24.7,43.51 37.75,43.51 40.9,25.12 "
         id="polygon31"
         transform="matrix(0.20997442,0,0,0.23466095,1.4638402,0.12000647)"
         style="fill:none" />
      <path
         class="cls-3"
         d="M 1.8837891,1.5889841 A 0.41994886,0.46932191 0 0 0 1.4638402,2.1333974 l 1.782683,12.0944256 a 0.57113043,0.63827781 0 0 0 0.5585318,0.532681 h 8.552257 a 0.41994886,0.46932191 0 0 0 0.41995,-0.39423 L 14.559946,2.1357443 A 0.41994886,0.46932191 0 0 0 14.139996,1.5913307 Z M 9.3903745,10.330104 H 6.6607072 L 5.9215973,6.0146898 h 4.1301967 z"
         id="path33"
         inkscape:connector-curvature="0"
         style="fill:#2684ff;stroke-width:0.22197476" />
      <path
         class="cls-4"
         d="m 13.993014,6.0146898 h -3.94122 L 9.3903745,10.330104 H 6.6607072 l -3.2231074,4.275523 a 0.56903069,0.63593121 0 0 0 0.3674552,0.154877 h 8.554358 a 0.41994886,0.46932191 0 0 0 0.419949,-0.39423 z"
         id="path35"
         style="fill:url(#New_Gradient_Swatch_1);stroke-width:0.22197476"
         inkscape:connector-curvature="0" />
    </g>
  </g>
</svg>
