<svg xmlns="http://www.w3.org/2000/svg" width="16" height="16" viewBox="0 0 256 256" preserveAspectRatio="xMidYMid"><path d="M127.688 8.1c65.703 0 118.966 53.402 118.966 119.277 0 65.874-53.263 119.277-118.966 119.277-65.702 0-118.965-53.403-118.965-119.277C8.723 61.502 61.986 8.1 127.688 8.1" fill="#ffd539"/><path d="M171.345 62.52c.972 3.386-1.594 33.973 47.16 52.397-3.47 7.049-18.96 13.725-46.735 20.02-3.291-40.801-10.94-61.129-.425-72.417" fill="#fff"/><path d="M179.622 131.859c-2.133.48-4.29.91-6.473 1.29-.529-9.854-1.682-18.472-2.819-26.182a6.789 6.789 0 007.89-5.256c.787-3.68-1.55-7.302-5.22-8.093a6.777 6.777 0 00-2.852 0 4.263 4.263 0 012.978 5.235 4.253 4.253 0 01-3.54 3.1c-2.231-14.957-3.717-26.486 1.113-37.485-.07 12.25 5.228 23.282 14.737 32.592 8.7 8.521 20.81 15.131 30.426 17.6.534.639.56 1.417-.134 2.481a24.228 24.228 0 01-2.557 1.745c-9.173 5.391-20.395 10.008-33.549 12.973m44.638-23.055c0-5.647-4.566-10.224-10.197-10.224-4.786 0-8.79 3.31-9.889 7.767-15.758-8.223-33.78-24.903-29.374-48.994 3.277-4.558 7.842-9.135 14.17-13.946-11.835-1.39-24.414.76-36.396 5.374-.188-6.244.56-12.93 2.509-20.77-11.488 2.937-22.412 9.415-31.914 17.964-2.422-5.777-4.111-12.315-5.096-20.362-9.726 6.907-17.642 16.95-23.467 28.422-4.363-4.543-8.308-10.068-12.133-17.28-6.598 9.922-10.395 22.113-11.741 34.887-5.573-2.66-11.12-6.353-17.137-11.596-2.61 11.623-1.804 24.354 1.5 36.753-6.284-.447-12.907-1.897-20.573-4.694 1.718 11.8 7.03 23.405 14.556 33.8-5.917 1.761-12.49 2.751-20.458 2.892 5.842 10.433 14.992 19.385 25.78 26.396-4.974 3.898-10.888 7.27-18.477 10.345h.002c9.144 7.608 20.825 12.667 33.341 15.346-3.22 5.27-7.459 10.406-13.279 15.848 11.234 3.81 23.919 4.342 36.537 2.359-1.108 6.168-3.229 12.57-6.775 19.859h.002c11.883-.481 23.951-4.564 35.048-10.98 1.188 6.186 1.504 12.963.794 21.093 23.958-10.349 42.569-37.163 49.131-63.707 1.781-4.799 2.728-11.741 2.728-21.324 0-2.57-.061-5.042-.15-7.46 19.379-3.299 33.482-9.981 41.586-14.746 2.973-1.748 5.986-4.314 6.952-6.418a10.194 10.194 0 002.42-6.604"/></svg>