<?xml version="1.0" encoding="UTF-8" standalone="no"?>
<svg
   xmlns:dc="http://purl.org/dc/elements/1.1/"
   xmlns:cc="http://creativecommons.org/ns#"
   xmlns:rdf="http://www.w3.org/1999/02/22-rdf-syntax-ns#"
   xmlns:svg="http://www.w3.org/2000/svg"
   xmlns="http://www.w3.org/2000/svg"
   xmlns:sodipodi="http://sodipodi.sourceforge.net/DTD/sodipodi-0.dtd"
   xmlns:inkscape="http://www.inkscape.org/namespaces/inkscape"
   width="16px"
   height="16px"
   viewBox="0 0 256 256"
   version="1.1"
   preserveAspectRatio="xMidYMid"
   id="svg10"
   sodipodi:docname="browserslist_dark.svg"
   inkscape:version="0.92.4 (5da689c313, 2019-01-14)">
  <metadata
     id="metadata16">
    <rdf:RDF>
      <cc:Work
         rdf:about="">
        <dc:format>image/svg+xml</dc:format>
        <dc:type
           rdf:resource="http://purl.org/dc/dcmitype/StillImage" />
        <dc:title />
      </cc:Work>
    </rdf:RDF>
  </metadata>
  <defs
     id="defs14" />
  <sodipodi:namedview
     pagecolor="#ffffff"
     bordercolor="#666666"
     borderopacity="1"
     objecttolerance="10"
     gridtolerance="10"
     guidetolerance="10"
     inkscape:pageopacity="0"
     inkscape:pageshadow="2"
     inkscape:window-width="1920"
     inkscape:window-height="1001"
     id="namedview12"
     showgrid="false"
     inkscape:zoom="25.679692"
     inkscape:cx="1.4968067"
     inkscape:cy="8"
     inkscape:window-x="-9"
     inkscape:window-y="-9"
     inkscape:window-maximized="1"
     inkscape:current-layer="svg10" />
  <g
     id="g8"
     transform="matrix(0.92941893,0,0,0.93185276,8.722846,8.0997856)">
    <path
       d="m 128,0 c 70.692,0 128,57.308 128,128 0,70.692 -57.308,128 -128,128 C 57.308,256 0,198.692 0,128 0,57.308 57.308,0 128,0"
       id="path2"
       inkscape:connector-curvature="0"
       style="fill:#ffd539" />
    <path
       d="m 174.9717,58.3999 c 1.046,3.634 -1.715,36.458 50.742,56.229 -3.734,7.564 -20.4,14.729 -50.285,21.485 -3.541,-43.786 -11.771,-65.6 -0.457,-77.714"
       id="path4"
       inkscape:connector-curvature="0"
       style="fill:#ffffff" />
    <path
       d="m 183.8779,132.8096 c -2.295,0.516 -4.616,0.977 -6.965,1.384 -0.569,-10.574 -1.81,-19.822 -3.033,-28.096 3.881,0.723 7.656,-1.756 8.489,-5.64 0.847,-3.949 -1.668,-7.837 -5.617,-8.685 -1.012,-0.217 -2.058,-0.217 -3.068,0 2.435,0.666 3.871,3.182 3.204,5.617 -0.5,1.829 -2.041,3.093 -3.809,3.328 -2.4,-16.052 -3.999,-28.424 1.198,-40.227 -0.075,13.145 5.625,24.984 15.856,34.975 9.36,9.145 22.391,16.238 32.737,18.888 0.574,0.685 0.602,1.52 -0.145,2.662 -0.844,0.656 -1.78,1.302 -2.751,1.873 -9.869,5.785 -21.944,10.739 -36.096,13.921 m 48.027,-24.741 c 0,-6.06 -4.912,-10.972 -10.971,-10.972 -5.149,0 -9.457,3.552 -10.64,8.336 -16.955,-8.825 -36.345,-26.725 -31.605,-52.577 3.526,-4.892 8.438,-9.804 15.246,-14.966 -12.733,-1.493 -26.268,0.816 -39.16,5.767 -0.202,-6.701 0.602,-13.876 2.7,-22.29 -12.36,3.153 -24.114,10.104 -34.338,19.278 -2.605,-6.199 -4.423,-13.215 -5.483,-21.851 -10.464,7.412 -18.981,18.19 -25.249,30.501 -4.694,-4.875 -8.939,-10.804 -13.054,-18.544 -7.099,10.648 -11.185,23.73 -12.633,37.439 -5.996,-2.856 -11.964,-6.818 -18.438,-12.445 -2.809,12.473 -1.941,26.136 1.613,39.441 -6.76,-0.479 -13.886,-2.035 -22.135,-5.037 1.849,12.662 7.565,25.117 15.662,36.272 -6.366,1.89 -13.438,2.952 -22.012,3.103 6.286,11.196 16.131,20.803 27.739,28.327 -5.353,4.183 -11.716,7.802 -19.881,11.101 h 0.002 c 9.838,8.165 22.406,13.594 35.873,16.468 -3.464,5.656 -8.025,11.167 -14.287,17.007 12.087,4.089 25.735,4.66 39.311,2.532 -1.192,6.619 -3.474,13.49 -7.289,21.311 h 0.002 c 12.785,-0.516 25.77,-4.897 37.709,-11.783 1.279,6.639 1.619,13.911 0.855,22.636 25.777,-11.106 45.801,-39.881 52.862,-68.366 1.916,-5.15 2.935,-12.6 2.935,-22.884 0,-2.758 -0.066,-5.41 -0.162,-8.005 20.851,-3.54 36.025,-10.711 44.745,-15.825 3.198,-1.875 6.44,-4.629 7.48,-6.887 1.621,-1.912 2.603,-4.384 2.603,-7.087"
       id="path6"
       inkscape:connector-curvature="0"
       style="fill:#000000" />
  </g>
  <path
     style="fill:#4d4d4d;fill-opacity:1;stroke-width:0.03894128"
     d="M 7.629707,13.850722 C 7.6299017,13.612027 7.615708,13.316401 7.5981692,13.193776 L 7.5662806,12.97082 7.2163897,13.146546 c -0.1924403,0.09665 -0.5029616,0.227009 -0.690048,0.289689 -0.3214061,0.10768 -1.0236764,0.252843 -1.0950523,0.226352 -0.018091,-0.0067 0.025885,-0.152396 0.097723,-0.323738 0.1268984,-0.302666 0.2823751,-0.859573 0.2485994,-0.890466 -0.0092,-0.0084 -0.2091189,0.0032 -0.4442543,0.02592 -0.4773777,0.04604 -1.0895588,6.62e-4 -1.5505529,-0.114925 L 3.5181492,12.293021 3.7694507,12.03711 C 4.0009848,11.801328 4.3561514,11.337024 4.3271564,11.308029 4.3203409,11.301214 4.1319561,11.24145 3.9085235,11.175221 3.685091,11.108992 3.3566476,10.986693 3.1786495,10.903446 2.8553662,10.752251 2.3144709,10.416142 2.3146888,10.366586 c 6.23e-5,-0.01442 0.1358711,-0.0909 0.3017949,-0.169964 C 2.929131,10.047648 3.4052752,9.7502955 3.404468,9.7045259 3.4042149,9.6901394 3.3122155,9.6146323 3.2000263,9.5367322 2.9272182,9.3473039 2.5456272,9.0036986 2.3062891,8.7319628 2.113192,8.5127273 1.8472782,8.1449161 1.8472782,8.09706 c 0,-0.013584 0.1445695,-0.036917 0.3212656,-0.051852 C 2.4525037,8.0212063 2.9907969,7.9229831 3.0604222,7.8824659 3.0744114,7.8743252 3.0075784,7.7493658 2.9119044,7.6047784 2.5931852,7.1231145 2.2816364,6.3905594 2.2130232,5.9614763 2.1865124,5.795687 2.188142,5.7921873 2.2794154,5.8188963 2.5878688,5.9091572 3.1008677,6.0304242 3.2632985,6.0514747 l 0.18937,0.024542 L 3.4337375,5.96907 C 3.4233248,5.9102499 3.3844606,5.6956499 3.3473722,5.4921818 3.269798,5.066607 3.2748957,3.932164 3.3547411,3.8523186 c 0.033043,-0.033043 0.091861,-0.00434 0.2321915,0.1133264 0.2109401,0.1768647 0.7444856,0.5140636 0.8133965,0.5140636 0.026,0 0.054817,-0.094311 0.068417,-0.2239124 C 4.501181,3.9467151 4.6615963,3.3497302 4.8058981,3.0010863 4.9382338,2.6813537 5.1061265,2.3764505 5.149193,2.3776425 5.164353,2.3780623 5.2694133,2.526043 5.3826593,2.7064888 5.4959054,2.8869347 5.6635202,3.1173668 5.7551366,3.2185603 L 5.9217118,3.4025485 6.0667743,3.1386398 C 6.3451714,2.6321583 6.8914244,1.9764415 7.2427728,1.7269824 l 0.1189516,-0.084456 0.065892,0.3485552 C 7.4926949,2.335337 7.6297479,2.7977295 7.6831925,2.8533523 7.6983317,2.8691086 7.7977114,2.8094609 7.9040358,2.7208018 8.3588594,2.3415454 9.1594002,1.8993809 9.5435333,1.8152544 L 9.6657104,1.7884974 9.6125584,2.034012 c -0.029233,0.135033 -0.06497,0.4251029 -0.079414,0.6445999 L 9.5068818,3.0776971 9.7367081,2.9977046 C 10.311874,2.7975146 11.137064,2.6682095 11.540351,2.7150785 l 0.210871,0.024507 -0.09405,0.073931 c -0.202003,0.1587954 -0.668393,0.6401362 -0.72497,0.7482102 -0.04718,0.090119 -0.0558,0.2082562 -0.04121,0.5646485 0.02047,0.5001265 0.104638,0.7913068 0.345917,1.1967003 0.196242,0.3297239 0.702142,0.8266162 1.11904,1.0991152 0.385808,0.2521771 0.433828,0.2722306 0.433828,0.1811723 0,-0.085916 0.21748,-0.3162102 0.350743,-0.3714098 0.155084,-0.064238 0.468228,-0.031608 0.59476,0.061974 0.143345,0.1060165 0.261677,0.333395 0.261677,0.5028192 0,0.2003653 -0.176823,0.5084523 -0.38153,0.6647575 -0.519166,0.3964125 -1.567041,0.8019637 -2.702937,1.0460971 l -0.105459,0.022666 -7.59e-4,0.5494921 c -8.26e-4,0.5982339 -0.0338,0.8430608 -0.185494,1.3774359 -0.46616,1.642099 -1.5635188,3.105395 -2.7963654,3.728872 l -0.1950572,0.09864 3.504e-4,-0.433989 z m 3.8106,-5.6498859 C 12.18451,8.0100998 12.894234,7.7225726 13.383999,7.4133976 13.610569,7.2703698 13.575881,7.1761502 13.257072,7.0686442 12.255239,6.7308146 11.313748,5.9356614 10.920454,5.0952105 10.795572,4.8283448 10.690853,4.4083243 10.684472,4.1487077 l -0.0038,-0.1557651 -0.07268,0.1557651 c -0.117165,0.2510875 -0.167382,0.6553484 -0.142697,1.1487677 0.02804,0.5605768 0.104374,1.0903557 0.157096,1.0903557 0.02205,0 0.08066,-0.038102 0.130228,-0.08467 0.09624,-0.090412 0.115413,-0.2236763 0.04982,-0.3462436 -0.06446,-0.1204516 0.06519,-0.095372 0.199071,0.038506 0.08927,0.089272 0.113828,0.148723 0.113828,0.2755843 0,0.2059258 -0.163726,0.3894128 -0.347476,0.3894128 -0.143372,0 -0.142799,-0.00559 -0.06411,0.624678 0.03064,0.2454138 0.06718,0.5820148 0.08121,0.748002 0.01836,0.2173597 0.04044,0.3017949 0.07891,0.3017949 0.02938,0 0.288792,-0.060326 0.576476,-0.1340589 z"
     id="path10"
     inkscape:connector-curvature="0"
     transform="scale(16)" />
</svg>
