<svg xmlns="http://www.w3.org/2000/svg" width="16" height="16" viewBox="0 0 16 16"><g fill="none" fill-rule="evenodd"><path fill="#BBE6FB" d="M12.914 7.312c.08 1.446-2.131 2.768-4.94 2.951-2.81.184-5.153-.839-5.231-2.286-.082-1.445 2.131-2.767 4.94-2.95 2.808-.184 5.151.839 5.231 2.285" opacity=".8"/><path fill="#D3EFFC" d="M10.862 6.468c.034 1.983-1.408 3.582-3.234 3.582-1.825 0-3.332-1.401-3.368-3.382-.002-.15.026-.429.08-.695 1.124-.805 4.285-1.322 6.295-.522.179.342.222.732.227 1.017" opacity=".8"/><path fill="#121314" d="M10.623 9.961c.098.26.194.505.284.753.108.296.205.594.26.908.024.138.036.279.045.42.004.058-.013.119-.024.177-.004.02-.017.04-.028.069a4.863 4.863 0 00-.162-.935 2.297 2.297 0 00-.293-.668c-.126-.188-.282-.333-.496-.386a.892.892 0 00-.22-.024c-.111.001-.181.088-.187.214-.008.194.044.376.106.552.061.173.134.342.203.512.005.016.012.032.012.052l-.056-.091c-.175-.285-.356-.562-.586-.797a.873.873 0 00-.331-.236c-.035-.011-.074-.016-.12-.026l.094.205c.163.355.304.72.408 1.102.058.214.1.431.12.653a1.7 1.7 0 01-.033.569L9.61 13a3.125 3.125 0 00-.235-1.341 2.405 2.405 0 00-.813-1.044c.142.208.142.436.125.665-.043.571-.21 1.107-.388 1.641a.032.032 0 01-.015.018c.004-.022.007-.047.012-.07.003-.023.01-.046.014-.07.028-.183.057-.365.084-.548.039-.277.062-.556.056-.836a1.67 1.67 0 00-.082-.536c-.046-.124-.109-.232-.236-.272-.13-.043-.25-.002-.363.063-.05.03-.053.1-.06.159a3.433 3.433 0 00-.003.65c.01.136.02.272.023.41-.022-.1-.04-.201-.063-.301a3.886 3.886 0 00-.201-.674.619.619 0 00-.15-.24c-.07-.063-.13-.064-.186.012-.1.136-.198.275-.286.422-.3.499-.57 1.019-.837 1.54a.16.16 0 01-.036.048l.09-.244c.165-.462.33-.924.458-1.4.033-.126.068-.25.064-.38-.002-.021-.01-.053-.024-.06-.014-.008-.046.002-.058.016-.052.06-.106.12-.148.188-.135.22-.236.463-.337.703a.135.135 0 01-.025.042c.005-.045.01-.09.018-.135.028-.183.05-.37.047-.556a.666.666 0 00-.027-.164c-.017-.069-.054-.087-.117-.062a1.009 1.009 0 00-.297.206c-.236.217-.468.442-.701.663a.05.05 0 01-.027.015l.11-.153c.141-.202.285-.404.384-.635.088-.205.068-.238-.086-.386-.14-.135-.304-.139-.477-.085a1.08 1.08 0 00-.451.305c-.139.149-.268.306-.4.46-.01.01-.016.02-.024.03l-.008-.007c.037-.066.075-.132.11-.198.084-.164.168-.327.203-.514a.542.542 0 00.004-.161c-.011-.086-.092-.137-.183-.114-.08.02-.16.044-.233.08a4.02 4.02 0 00-.713.478c-.14.11-.273.228-.409.341l-.014.002c.067-.076.13-.147.192-.221.135-.16.269-.322.365-.514a.841.841 0 00.054-.172.099.099 0 00-.062-.115 1.175 1.175 0 00-.23-.072c-.384-.064-.771-.052-1.158-.043a5.644 5.644 0 01-.702-.022 2.248 2.248 0 01-.704-.173A1.674 1.674 0 010 9.342c.076.033.154.069.23.1.193.077.392.124.594.154.233.033.466.03.698.022.191-.006.382-.028.573-.043.199-.014.399-.037.597-.045a6.47 6.47 0 01.591.003c.285.016.563.077.838.164.455.143.913.275 1.38.376.19.04.381.073.572.1.215.031.43.051.648.074.3.03.599.026.9.016.181-.006.362-.025.543-.044a7.71 7.71 0 001.975-.464c.483-.183.94-.423 1.366-.733.353-.257.669-.558.944-.911a4.48 4.48 0 00.473-.755c.036-.071.068-.145.116-.206.078-.097.185-.12.3-.108.24.027.442.155.64.292.058.04.114.087.182.138-.138-.052-.265-.105-.393-.147-.08-.024-.165-.037-.247-.05-.016-.004-.042.01-.048.023-.006.014.003.044.016.055.082.069.162.147.254.2.236.142.477.275.716.411a.14.14 0 01.037.023c-.113-.03-.225-.065-.337-.091a5.005 5.005 0 00-.341-.059.346.346 0 00-.112.01c-.06.01-.082.055-.05.11.042.071.087.145.141.2.191.199.388.391.583.584.076.073.155.141.225.218a13.276 13.276 0 00-.198-.154 6.903 6.903 0 00-.724-.504 1.205 1.205 0 00-.18-.077c-.055-.018-.09.02-.067.076a.7.7 0 00.11.199c.125.145.258.28.39.42l.011.02c-.058-.034-.106-.066-.156-.094a3.966 3.966 0 00-.805-.379.855.855 0 00-.347-.05.518.518 0 00-.125.032c-.047.02-.057.054-.04.106a.52.52 0 00.144.212c.144.14.293.274.44.409.029.027.062.052.09.082l-.148-.086a1.06 1.06 0 00-.315-.132.368.368 0 00-.11-.007c-.08.008-.112.06-.095.144.025.132.082.247.144.362.145.274.315.53.491.78.1.144.202.283.303.424.003.004.006.01.002.019l-.251-.285c-.3-.336-.598-.672-.922-.978-.062-.059-.13-.108-.196-.162a.086.086 0 00-.028-.015c-.02-.004-.048-.015-.056-.004-.015.014-.026.048-.02.067.028.088.05.179.093.26.083.16.178.313.268.47.004.006.006.011.003.023-.063-.069-.125-.14-.189-.206a2.546 2.546 0 00-.434-.38.576.576 0 00-.137-.061c-.074-.023-.122.016-.108.095.016.103.044.205.078.303.124.343.284.667.448.991.121.242.248.482.372.722a.022.022 0 01.003.022c-.065-.1-.128-.198-.195-.297-.23-.346-.47-.68-.75-.979a1.803 1.803 0 00-.403-.342.437.437 0 00-.24-.074c-.044.003-.088.019-.132.03"/><path fill="#1287B1" d="M10.255 6.514c.028 1.57-1.15 2.956-2.64 2.956-1.487 0-2.717-1.272-2.747-2.842-.004-.248.102-.793.29-.897 1.603-.892 3.386-.71 4.357-.396.629.248.733.783.74 1.179"/><path fill="#121314" d="M14.49 4.24c-.263.691-.613 1.316-1.157 1.804.092.02.179.03.267.02.42-.047.77-.272 1.107-.523.26-.193.497-.416.724-.651a.04.04 0 01.022-.015c-.292.536-.624 1.033-1.118 1.38a.618.618 0 00.329.043c.316-.042.577-.218.826-.418.171-.139.33-.297.478-.464.008-.009.017-.018.032-.019-.057.079-.112.158-.173.233a4.122 4.122 0 01-.538.567c-.365.315-.767.55-1.226.655-.204.047-.412.08-.62.047a.889.889 0 01-.275-.103c-.26-.141-.512-.293-.77-.436-.693-.381-1.41-.685-2.173-.85-.29-.063-.585-.107-.88-.148a6.883 6.883 0 00-.625-.055 21.963 21.963 0 00-.943-.017 5.912 5.912 0 00-.582.035c-.272.027-.544.058-.815.1-.58.095-1.152.24-1.688.504-.376.186-.75.382-1.114.588-.42.237-.808.53-1.19.83-.409.317-.815.64-1.224.955a9.314 9.314 0 01-.91.615.1.1 0 01-.047.018l.099-.109.103-.107c.192-.194.38-.393.577-.582.224-.215.453-.421.683-.627a12.3 12.3 0 01.923-.74 10.693 10.693 0 011.745-1.045 9.416 9.416 0 011.771-.627c.143-.035.286-.066.429-.1.072-.017.12-.069.16-.134a1.136 1.136 0 00.128-.447c.022.081.038.169.067.25.019.053.05.105.085.146.047.055.094.053.146.003.082-.081.127-.188.175-.293.026-.056.047-.115.073-.17-.011.069-.028.139-.034.207a.932.932 0 00.006.212c.014.089.076.122.152.08a.57.57 0 00.166-.135c.104-.13.198-.268.295-.403a.828.828 0 00.029-.044c-.02.097-.04.183-.054.272-.014.085-.036.17-.015.258.014.054.04.068.076.028.073-.078.144-.158.207-.245.096-.138.184-.282.276-.423l.02-.03c-.023.078-.046.142-.063.21a.573.573 0 00-.015.146c0 .14.11.179.208.164.175-.025.315-.127.451-.235.038-.03.073-.063.113-.092-.027.045-.058.086-.084.134a1.14 1.14 0 00-.073.16c-.022.059-.003.09.052.11.165.06.327.04.484-.033a1.17 1.17 0 00.39-.3c.076-.086.145-.178.226-.277-.041.097-.076.184-.116.269a3.831 3.831 0 01-.135.253c-.048.083-.101.162-.155.245a.53.53 0 00.362-.018c.19-.074.339-.21.469-.371.078-.098.146-.204.223-.305l-.401.885c.037 0 .07.007.097 0a.79.79 0 00.293-.182c.24-.203.453-.437.66-.677.063-.072.126-.145.19-.216-.23.406-.447.823-.788 1.146.04.028.086.023.132.01.124-.038.23-.114.334-.193.09-.068.175-.142.272-.222-.04.061-.077.11-.108.165-.06.104-.117.21-.175.316a.105.105 0 00-.011.026c-.012.043-.043.092-.004.135.04.042.094.052.15.037a.656.656 0 00.232-.144 3.54 3.54 0 00.464-.501c.13-.168.256-.34.385-.51a.067.067 0 01.02-.015c-.12.263-.261.514-.413.758a6.592 6.592 0 01-.504.702.217.217 0 00.16.028.792.792 0 00.312-.14c.17-.116.32-.257.465-.408.253-.264.486-.545.702-.842a.067.067 0 01.034-.025c-.017.057-.032.116-.053.17a2.424 2.424 0 01-.356.632c-.143.19-.302.364-.468.53-.003.003-.006.008-.017.018a.677.677 0 00.254-.087c.163-.09.305-.21.441-.343.285-.28.525-.602.75-.937l.016-.02a4.8 4.8 0 01-.42.896 3.77 3.77 0 01-.594.76c.001.004.002.009.005.01.044-.011.09-.022.133-.04.125-.055.235-.137.338-.228.293-.263.538-.577.769-.906.12-.173.235-.353.353-.528.002-.005.006-.007.009-.01"/><path fill="#FFF" d="M8.311 6.87l.311-.58v.672l.493-.407-.237.621.6-.172-.438.477.613.09-.57.258.533.339-.618.001.375.534-.572-.256.157.649-.438-.475-.083.666-.238-.62-.311.581-.001-.672-.492.406.236-.621-.599.171.437-.475-.612-.091.571-.258-.535-.338h.619l-.375-.536.573.257-.158-.65.437.475.083-.666z"/></g></svg>