<?xml version="1.0" encoding="UTF-8" standalone="no"?>
<svg
   xmlns:dc="http://purl.org/dc/elements/1.1/"
   xmlns:cc="http://creativecommons.org/ns#"
   xmlns:rdf="http://www.w3.org/1999/02/22-rdf-syntax-ns#"
   xmlns:svg="http://www.w3.org/2000/svg"
   xmlns="http://www.w3.org/2000/svg"
   xmlns:sodipodi="http://sodipodi.sourceforge.net/DTD/sodipodi-0.dtd"
   xmlns:inkscape="http://www.inkscape.org/namespaces/inkscape"
   inkscape:version="1.0 (4035a4fb49, 2020-05-01)"
   sodipodi:docname="certificate.svg"
   id="svg4"
   version="1.1"
   preserveAspectRatio="xMinYMin meet"
   viewBox="0 0 16 16"
   height="16"
   width="16">
  <metadata
     id="metadata10">
    <rdf:RDF>
      <cc:Work
         rdf:about="">
        <dc:format>image/svg+xml</dc:format>
        <dc:type
           rdf:resource="http://purl.org/dc/dcmitype/StillImage" />
      </cc:Work>
    </rdf:RDF>
  </metadata>
  <defs
     id="defs8" />
  <sodipodi:namedview
     inkscape:current-layer="svg4"
     inkscape:cy="8.1036893"
     inkscape:cx="7.8569938"
     inkscape:zoom="42.813681"
     showgrid="false"
     id="namedview6"
     inkscape:window-height="480"
     inkscape:window-width="640"
     inkscape:pageshadow="2"
     inkscape:pageopacity="0"
     guidetolerance="10"
     gridtolerance="10"
     objecttolerance="10"
     borderopacity="1"
     bordercolor="#666666"
     pagecolor="#ffffff" />
  <path
     id="path2"
     stroke-width="0.647379"
     d="M 4.7684337,9.3349795 A 1.2980652,1.2914056 0 0 1 3.471402,8.0435739 1.2980652,1.2914056 0 0 1 4.7684337,6.7521682 1.2980652,1.2914056 0 0 1 6.0664989,8.0435739 1.2980652,1.2914056 0 0 1 4.7684337,9.3349795 M 8.4352613,6.7521682 A 3.8869613,3.8669267 0 0 0 4.7684337,4.169357 3.8931622,3.8742169 0 0 0 0.87527145,8.0435739 3.8931622,3.8742169 0 0 0 4.7684337,11.917791 3.8869613,3.8669267 0 0 0 8.4352613,9.3349795 h 2.8224647 v 2.5828115 h 2.59613 V 9.3349795 h 1.298066 V 6.7521682 Z"
     fill="#26a69a" />
</svg>
