<?xml version="1.0" encoding="UTF-8" standalone="no"?>
<svg
   xmlns:dc="http://purl.org/dc/elements/1.1/"
   xmlns:cc="http://creativecommons.org/ns#"
   xmlns:rdf="http://www.w3.org/1999/02/22-rdf-syntax-ns#"
   xmlns:svg="http://www.w3.org/2000/svg"
   xmlns="http://www.w3.org/2000/svg"
   xmlns:sodipodi="http://sodipodi.sourceforge.net/DTD/sodipodi-0.dtd"
   xmlns:inkscape="http://www.inkscape.org/namespaces/inkscape"
   width="16"
   height="16"
   viewBox="0 0 16 16"
   preserveAspectRatio="xMinYMin meet"
   version="1.1"
   id="svg8"
   sodipodi:docname="circleci_dark.svg"
   inkscape:version="0.92.4 (5da689c313, 2019-01-14)">
  <metadata
     id="metadata14">
    <rdf:RDF>
      <cc:Work
         rdf:about="">
        <dc:format>image/svg+xml</dc:format>
        <dc:type
           rdf:resource="http://purl.org/dc/dcmitype/StillImage" />
      </cc:Work>
    </rdf:RDF>
  </metadata>
  <defs
     id="defs12" />
  <sodipodi:namedview
     pagecolor="#ffffff"
     bordercolor="#666666"
     borderopacity="1"
     objecttolerance="10"
     gridtolerance="10"
     guidetolerance="10"
     inkscape:pageopacity="0"
     inkscape:pageshadow="2"
     inkscape:window-width="1920"
     inkscape:window-height="1001"
     id="namedview10"
     showgrid="false"
     inkscape:zoom="39.044859"
     inkscape:cx="-0.55426319"
     inkscape:cy="8"
     inkscape:window-x="-9"
     inkscape:window-y="-9"
     inkscape:window-maximized="1"
     inkscape:current-layer="svg8" />
  <g
     id="g6"
     transform="matrix(0.05096652,0,0,0.05281297,1.5607899,1.2037436)"
     style="fill:#343434">
    <circle
       cx="126.157"
       cy="129.008"
       r="30.593"
       id="circle2" />
    <path
       d="m 1.204,96.572 c 0,0.368 -0.369,1.105 -0.369,1.474 0,3.317 2.58,6.266 6.266,6.266 h 51.972 c 2.58,0 4.423,-1.474 5.529,-3.686 10.69,-23.59 34.28,-39.44 61.186,-39.44 37.228,0 67.453,30.225 67.453,67.453 0,37.228 -30.225,67.453 -67.453,67.453 -27.276,0 -50.497,-16.218 -61.186,-39.071 -1.106,-2.58 -2.949,-4.055 -5.53,-4.055 H 7.103 c -3.318,0 -6.267,2.58 -6.267,6.267 0,0.368 0,1.105 0.369,1.474 14.375,56.026 64.872,97.309 124.953,97.309 71.139,0 129.008,-57.87 129.008,-129.008 C 255.165,57.869 197.295,0 126.157,0 66.077,0 15.579,41.283 1.204,96.572 Z"
       id="path4"
       inkscape:connector-curvature="0" />
  </g>
  <path
     style="fill:#999999;fill-opacity:1;stroke-width:0.02561157"
     d="M 7.5457661,14.801806 C 6.3049781,14.7178 5.0831072,14.244273 4.0558188,13.449299 3.7701727,13.228251 3.2283918,12.697525 2.9925732,12.407751 2.423536,11.708515 1.9541197,10.808505 1.7002939,9.9300672 1.6123378,9.6256698 1.6066504,9.5549806 1.6615708,9.4487764 1.7419702,9.2933011 1.7144039,9.2959453 3.2548896,9.2959453 c 1.2041111,0 1.4119925,0.00545 1.4588281,0.038257 0.03004,0.021041 0.1201139,0.1622249 0.2001631,0.3137417 0.5384143,1.019107 1.4008689,1.668431 2.4970532,1.879979 0.276859,0.05343 0.9150964,0.04013 1.222534,-0.02548 1.418379,-0.302673 2.470968,-1.417022 2.737074,-2.8976701 0.05419,-0.3015303 0.05306,-0.8930714 -0.0023,-1.2168938 C 11.174372,6.2547249 10.459146,5.2740204 9.4639597,4.77682 8.9607803,4.5254284 8.4492909,4.4175304 7.8591356,4.4382842 7.2951428,4.4581181 6.921208,4.5545671 6.4351763,4.8055666 5.7784748,5.1447045 5.2775392,5.6564205 4.9183093,6.3550772 4.8091177,6.5674411 4.76501,6.6283577 4.6943991,6.6643171 4.6139783,6.7052721 4.4909859,6.7091007 3.2546339,6.7091374 1.7879382,6.7091886 1.7894291,6.7093166 1.6782425,6.5679631 1.6017278,6.4706896 1.6078688,6.377243 1.7138884,6.0255552 2.048882,4.9143159 2.6337403,3.9322376 3.4417475,3.1241807 4.4809137,2.0849505 5.8614603,1.4159563 7.3044329,1.2523757 7.7142973,1.2059119 8.6523965,1.2337014 9.0467862,1.3039897 10.390166,1.5434074 11.5697,2.158667 12.533887,3.1229032 c 1.0799,1.079957 1.730262,2.4001981 1.962184,3.9832531 0.06274,0.4282236 0.06274,1.3901977 0,1.8184212 -0.126069,0.8605264 -0.335427,1.5308685 -0.70653,2.2622385 -0.530656,1.045817 -1.332556,1.941721 -2.319174,2.591042 -0.579211,0.381196 -1.398797,0.729476 -2.0761532,0.882254 -0.5675316,0.128007 -1.2630854,0.181325 -1.8484477,0.141694 z"
     id="path9"
     inkscape:connector-curvature="0" />
  <path
     style="fill:#999999;fill-opacity:1;stroke-width:0.02561157"
     d="M 7.8079133,9.6125554 C 7.5245246,9.5693434 7.1956544,9.417267 6.9826524,9.230938 6.7977207,9.0691643 6.6070988,8.7736998 6.5241683,8.5202863 6.465862,8.342118 6.4552311,8.2647959 6.4547477,8.0153669 6.4542524,7.7597526 6.4634899,7.6937925 6.5246562,7.5161872 6.6638351,7.1120615 6.9332644,6.7832126 7.2745216,6.6009472 7.8771373,6.2790905 8.5728075,6.3862099 9.0656066,6.8767387 9.6961478,7.5043751 9.6902617,8.5327217 9.0524932,9.1677315 8.847883,9.3714569 8.5994915,9.5163448 8.3556059,9.5742298 8.2137708,9.6078934 7.9146229,9.6288267 7.8079133,9.6125554 Z"
     id="path11"
     inkscape:connector-curvature="0" />
  <path
     style="fill:#e6e6e6;fill-opacity:1;stroke-width:0.02561157"
     d="m 7.5497315,14.804689 c -0.018828,-0.01892 -0.6045416,-0.07919 -0.6281063,-0.06462 -0.012608,0.0078 -0.022923,6.17e-4 -0.022923,-0.01594 0,-0.0183 -0.0251,-0.02531 -0.064029,-0.01787 -0.035216,0.0067 -0.064029,9.71e-4 -0.064029,-0.01281 0,-0.01378 -0.028813,-0.01954 -0.064029,-0.01281 -0.035216,0.0067 -0.064029,0.0041 -0.064029,-0.0057 0,-0.0099 -0.06627,-0.03249 -0.1472665,-0.05022 C 6.069481,14.531481 5.3733059,14.25448 4.8881947,13.985223 3.9662946,13.47353 3.0768083,12.620418 2.504024,11.698551 2.3065484,11.380723 2.0556579,10.88212 1.926674,10.551162 1.8689768,10.403118 1.8122068,10.278365 1.8005184,10.273933 c -0.011688,-0.0044 -0.014903,-0.0246 -0.00714,-0.04482 0.00776,-0.02022 0.00171,-0.03676 -0.013441,-0.03676 -0.015151,0 -0.020914,-0.01729 -0.012806,-0.03842 0.00811,-0.02113 0.0013,-0.03842 -0.015121,-0.03842 -0.016425,0 -0.023176,-0.01082 -0.015003,-0.02404 0.017016,-0.02753 -0.063202,-0.3345175 -0.087411,-0.3345175 -0.00877,0 -0.00933,-0.069266 -0.00124,-0.1539258 0.02286,-0.2390978 0.062396,-0.2657636 0.4168108,-0.2811274 L 2.3526496,9.3094377 2.1221455,9.2947256 c -0.1267773,-0.00809 0.3803318,-0.014634 1.1269089,-0.014539 0.7465772,1.024e-4 1.2363984,0.00719 1.0884916,0.015758 l -0.2689215,0.015585 0.3097722,0.00501 c 0.3536186,0.00572 0.3300017,-0.00727 0.486367,0.267532 0.054104,0.095083 0.1081207,0.1728781 0.1200381,0.1728781 0.011917,0 0.014805,0.011105 0.00642,0.024678 -0.00839,0.013572 0.00822,0.048148 0.036906,0.076835 0.028687,0.028686 0.045705,0.052157 0.037819,0.052157 -0.025879,0 0.2544468,0.3897373 0.301431,0.4190793 0.025222,0.01575 0.045858,0.04058 0.045858,0.05518 0,0.0146 0.080676,0.106598 0.1792809,0.204447 0.098605,0.09785 0.179281,0.167008 0.179281,0.153687 0,-0.01332 0.017178,3.05e-4 0.038173,0.03028 0.047437,0.06773 0.367623,0.298385 0.4141982,0.298385 0.018837,0 0.034249,0.0093 0.034249,0.02069 0,0.02912 0.1437472,0.10022 0.1632281,0.08074 0.00883,-0.0088 0.016053,-0.0019 0.016053,0.01534 0,0.01727 0.011525,0.02427 0.025612,0.01556 0.014086,-0.0087 0.025612,-0.0017 0.025612,0.01556 0,0.01727 0.00713,0.02426 0.015855,0.01554 0.00872,-0.0087 0.031352,-3.56e-4 0.050294,0.01858 0.045842,0.04584 0.469313,0.19812 0.4993423,0.179561 0.012966,-0.008 0.023575,-10e-4 0.023575,0.01554 0,0.0175 0.021451,0.0245 0.051223,0.01672 0.028173,-0.0074 0.051223,-0.0016 0.051223,0.01281 0,0.01441 0.022498,0.02032 0.049995,0.01313 0.027497,-0.0072 0.053666,-0.0021 0.058153,0.0114 0.031394,0.09418 1.4095369,0.06301 1.4690157,-0.03323 0.00786,-0.01272 0.024054,-0.01709 0.035985,-0.0097 0.011931,0.0074 0.054354,-5.1e-5 0.094274,-0.01652 0.03992,-0.01646 0.081692,-0.02791 0.092827,-0.02545 0.011135,0.0025 0.045711,-0.0095 0.076835,-0.02663 0.031124,-0.01711 0.079139,-0.03484 0.1066999,-0.03941 0.027561,-0.0046 0.057663,-0.02052 0.066892,-0.03545 0.00923,-0.01493 0.021255,-0.02432 0.026723,-0.02087 0.023909,0.01512 0.2020292,-0.05982 0.2020292,-0.085 0,-0.01534 0.00746,-0.02043 0.016588,-0.01131 0.019679,0.01968 0.2139165,-0.08494 0.2139165,-0.115213 0,-0.01149 0.00864,-0.01809 0.019209,-0.01465 0.029207,0.0095 0.2112954,-0.109346 0.2112954,-0.137902 0,-0.01377 0.010737,-0.0184 0.023859,-0.01029 0.013123,0.0081 0.040088,-0.0084 0.059923,-0.03674 0.01984,-0.02832 0.04224,-0.04531 0.04979,-0.03776 0.0075,0.0075 0.04397,-0.02222 0.08094,-0.06616 0.03697,-0.04393 0.06722,-0.07069 0.06722,-0.05945 0,0.01124 0.07436,-0.05326 0.165242,-0.143339 0.09088,-0.09008 0.159354,-0.1733 0.152158,-0.184944 -0.0072,-0.01164 -10e-4,-0.02117 0.01366,-0.02117 0.03419,0 0.258977,-0.285041 0.243956,-0.309345 -0.0062,-0.01003 0.0067,-0.02513 0.02862,-0.03355 0.02194,-0.0084 0.03272,-0.02692 0.02395,-0.041102 -0.0088,-0.014186 -0.0048,-0.025792 0.0087,-0.025792 0.02906,0 0.166151,-0.2263704 0.166151,-0.2743631 0,-0.018137 0.0087,-0.032976 0.01923,-0.032976 0.02076,0 0.104449,-0.2029788 0.09914,-0.2404465 -0.0018,-0.012511 0.009,-0.030299 0.02393,-0.039529 0.01493,-0.00923 0.03235,-0.045094 0.0387,-0.079698 0.0064,-0.034604 0.01377,-0.06868 0.01649,-0.075723 0.0027,-0.00704 0.0036,-0.02145 0.0019,-0.032015 -0.0017,-0.010565 0.009,-0.019209 0.0237,-0.019209 0.0147,0 0.02438,-0.014406 0.0215,-0.032014 -0.0029,-0.017608 0.0082,-0.064676 0.02467,-0.1045956 0.01645,-0.039919 0.02387,-0.082343 0.0165,-0.094274 -0.0074,-0.011931 -9.06e-4,-0.029417 0.01437,-0.038859 0.01528,-0.00944 0.02173,-0.032919 0.01434,-0.052173 -0.0074,-0.019253 -0.0014,-0.042439 0.01329,-0.051523 0.0147,-0.00908 0.02118,-0.037714 0.01441,-0.063621 -0.0068,-0.025908 -0.0018,-0.050611 0.01106,-0.054897 0.01286,-0.00429 0.03152,-0.1287345 0.04147,-0.2765524 0.02168,-0.3220432 0.02154,-0.4311464 -8.86e-4,-0.716962 -0.0094,-0.1197341 -0.0172,-0.2486351 -0.01735,-0.2864464 -1.54e-4,-0.037812 -0.01084,-0.07528 -0.02375,-0.083263 -0.01292,-0.00798 -0.01746,-0.037554 -0.0101,-0.065713 0.0074,-0.028159 8.81e-4,-0.051197 -0.01441,-0.051197 -0.01529,0 -0.02192,-0.0153 -0.01475,-0.034001 0.0072,-0.0187 -5.02e-4,-0.067682 -0.01706,-0.1088492 -0.01656,-0.041167 -0.03332,-0.098751 -0.03724,-0.1279646 -0.0039,-0.029214 -0.02725,-0.098365 -0.05186,-0.1536694 -0.05097,-0.1145636 -0.05457,-0.125292 -0.05897,-0.1755586 -0.0018,-0.020123 -0.02131,-0.054699 -0.04345,-0.076835 -0.02214,-0.022136 -0.03343,-0.040247 -0.02509,-0.040247 0.02054,0 -0.08894,-0.2136607 -0.119571,-0.2333675 -0.0134,-0.00862 -0.02243,-0.025906 -0.02008,-0.038417 0.0057,-0.030506 -0.109243,-0.2148349 -0.134006,-0.2148349 -0.01076,0 -0.01957,-0.015605 -0.01957,-0.034678 0,-0.019072 -0.02881,-0.065767 -0.06403,-0.1037657 -0.03522,-0.037999 -0.06403,-0.079922 -0.06403,-0.093163 0,-0.013241 -0.02305,-0.03847 -0.05122,-0.056064 -0.02817,-0.017594 -0.05122,-0.045092 -0.05122,-0.061106 0,-0.049025 -0.490329,-0.5018131 -0.6818166,-0.6296143 C 9.6494248,4.8602138 9.3079274,4.6755887 9.2890073,4.6945085 c -0.00799,0.00799 -0.031929,-0.00287 -0.053198,-0.024144 -0.021269,-0.021269 -0.054472,-0.032607 -0.073786,-0.025196 -0.019313,0.00741 -0.035115,0.00425 -0.035115,-0.00704 0,-0.026288 -0.1808041,-0.08241 -0.2091184,-0.06491 -0.011762,0.00727 -0.021386,0.00285 -0.021386,-0.00983 0,-0.025815 -0.1964043,-0.074096 -0.409785,-0.1007364 -0.1745605,-0.021794 -0.8429143,-0.021224 -0.9988511,8.503e-4 -0.2044874,0.028948 -0.2416856,0.034959 -0.3393533,0.054839 -0.052824,0.010752 -0.096043,0.030471 -0.096043,0.043821 0,0.01335 -0.010086,0.018039 -0.022414,0.01042 -0.022684,-0.014019 -0.2613143,0.057459 -0.2849251,0.085345 -0.00704,0.00832 -0.030094,0.018284 -0.051223,0.022146 -0.067523,0.01234 -0.4097851,0.1912336 -0.4097851,0.214187 0,0.012156 -0.00939,0.019221 -0.020873,0.015699 -0.032834,-0.010072 -0.2864659,0.1547308 -0.2864659,0.1861375 0,0.0155 -0.011072,0.021339 -0.024603,0.012975 C 5.9259,5.0928946 5.3524473,5.6324663 5.3734775,5.6534967 c 0.00682,0.00682 -0.016623,0.03524 -0.052103,0.063148 -0.03548,0.027909 -0.059656,0.055596 -0.053725,0.061528 0.00593,0.00593 -0.02223,0.046128 -0.062582,0.089324 -0.040352,0.043197 -0.066968,0.088893 -0.059148,0.1015476 0.00782,0.012654 0.00315,0.023008 -0.010374,0.023008 -0.028625,0 -0.1392096,0.1769398 -0.1400594,0.2241012 -3.176e-4,0.017608 -0.010861,0.032014 -0.023431,0.032014 -0.01257,0 -0.015732,0.011525 -0.00703,0.025612 0.00871,0.014086 0.00294,0.025611 -0.012806,0.025611 -0.015749,0 -0.021512,0.011525 -0.012806,0.025612 0.00871,0.014086 0.00294,0.025612 -0.012806,0.025612 -0.015749,0 -0.021512,0.011525 -0.012806,0.025611 0.00871,0.014086 0.00436,0.025612 -0.00966,0.025612 -0.014016,0 -0.052029,0.047231 -0.084474,0.1049572 C 4.7179374,6.687816 4.7309573,6.6857038 3.6245057,6.700685 3.0799348,6.7080586 2.4466962,6.7032359 2.2173088,6.6899707 1.808526,6.6663294 1.7987319,6.6644047 1.7242862,6.5930811 1.6300521,6.502799 1.6237392,6.3746844 1.700778,6.1160024 1.729624,6.0191444 1.74684,5.9295658 1.739036,5.9169391 1.731236,5.9043121 1.733876,5.8901161 1.744906,5.8853911 1.755939,5.8806711 1.815414,5.7442616 1.8770727,5.5822684 2.1933646,4.7512898 2.6279677,4.0360743 3.2175794,3.3762319 4.1052842,2.3827894 5.3838297,1.6438309 6.6946069,1.3666211 6.8139027,1.3413918 6.917271,1.3143554 6.9243142,1.3065402 c 0.00704,-0.00782 0.08772,-0.018199 0.179281,-0.023076 0.091561,-0.00488 0.1780004,-0.016011 0.1920867,-0.024743 0.014086,-0.00873 0.3079791,-0.011829 0.653095,-0.00688 0.9324239,0.013369 0.9337224,0.013414 0.9486216,0.033249 0.00759,0.010104 0.079544,0.021629 0.1598989,0.025612 0.080355,0.00398 0.1461773,0.017228 0.1462726,0.029435 1.024e-4,0.012207 0.028585,0.016763 0.063309,0.010125 0.034725,-0.00664 0.066419,-0.00492 0.070432,0.00383 0.00401,0.00874 0.1420274,0.052722 0.3066985,0.09773 0.8453245,0.2310483 1.6522535,0.6430806 2.3513945,1.2006641 0.275884,0.2200243 0.806531,0.7511655 1.033566,1.0345283 0.686965,0.8574025 1.1966,1.9728308 1.389593,3.0413735 0.02608,0.1443852 0.05427,0.2625186 0.06266,0.2625186 0.0084,0 0.01015,0.034681 0.0039,0.077069 -0.0062,0.042388 -1.5e-5,0.09137 0.01379,0.1088491 0.01519,0.019232 0.0251,0.3503135 0.0251,0.8385442 0,0.4882308 -0.0099,0.819312 -0.0251,0.8385442 -0.01381,0.017479 -0.02005,0.06618 -0.01388,0.108224 0.0062,0.042045 0.0044,0.079607 -0.004,0.083472 -0.0083,0.00387 -0.04159,0.1439683 -0.07387,0.3113396 -0.368271,1.9093842 -1.547245,3.5936862 -3.19422,4.5633192 -0.444252,0.261547 -1.199175,0.576899 -1.6186998,0.676175 -0.073953,0.0175 -0.1344607,0.04288 -0.1344607,0.05639 0,0.01351 -0.011233,0.01763 -0.024962,0.0091 -0.013729,-0.0085 -0.1145746,0.0015 -0.2241012,0.02217 -0.3852922,0.07275 -0.6393733,0.09823 -1.1425532,0.114584 -0.2794094,0.0091 -0.5127397,0.01176 -0.5185113,0.006 z"
     id="path12"
     inkscape:connector-curvature="0" />
  <path
     style="fill:#e6e6e6;fill-opacity:1;stroke-width:0.02561157"
     d="M 7.5495643,9.5320055 C 7.2671058,9.4316146 7.0556219,9.2974773 6.8883146,9.1125969 6.7192378,8.9257609 6.5546188,8.6194295 6.5034149,8.3963558 6.4666946,8.2363813 6.4434776,7.787336 6.4696441,7.7431886 6.4769315,7.7308935 6.4912979,7.6804957 6.5015695,7.6311934 6.5316081,7.4870121 6.6769003,7.1956516 6.8041364,7.0244433 7.1007102,6.6253751 7.5927282,6.3995618 8.0874458,6.4354641 8.4657339,6.4629169 8.7726875,6.609188 9.0653057,6.9014391 9.267154,7.103034 9.4039175,7.3459738 9.4750264,7.6292475 9.5373653,7.8775823 9.515734,8.3036048 9.428364,8.5482614 9.2711853,8.9883985 8.9126265,9.3614435 8.4994255,9.5147308 c -0.070432,0.026128 -0.1338204,0.05386 -0.1408636,0.061627 -0.00704,0.00777 -0.1453456,0.017528 -0.3073388,0.021693 -0.2699204,0.00694 -0.3118414,0.00142 -0.5016588,-0.066045 z"
     id="path14"
     inkscape:connector-curvature="0" />
</svg>
