<svg xmlns="http://www.w3.org/2000/svg" viewBox="0 0 16 16" height="16" width="16"><path d="M.03 0v15.992h8.148v-.053c-1.232-.08-2.414-.616-3.68-.63-.42-.006-1.215.158-1.525-.159 1.08-.022 2.187-.256 3.26 0v-.052c-.744-.391-1.843-.648-2.681-.684v.052l.526.421c-.36-.09-1.031-.35-1.21-.684l1.998.21-.263-.262c.126-.443-.259-.613-.578-.848a13.943 13.943 0 01-1.458-1.265c-.114-.11-.297-.108-.403-.229-.153-.173-.064-.737-.08-.972-.05-.73-.027-1.482-.034-2.21-.004-.36-.17-.559-.075-.947-.131-.04-.341-.04-.44-.144-.23-.243.046-1.269.071-1.592l.737.158V6.05l-.053-.263h.053v.21h.052c.07-.477-.003-.703-.158-1.157l-.21.105-.105-.421.158-.053c-.236-.724-.49-1.462-.641-2.209-.178-.881.354-.529.655 0 .1.176.206.348.301.526h.053c.194-.323.47-1 .846-1.136.155-.056.31.066.468.06.28-.012.585-.157.841-.26.155-.062.878-.497.972-.276.125.296-.487.644-.622.845-.137.204.027.523.123.714.7-.264 1.363-.805 1.998-1.2.255-.158.538-.445.789-.167l-1.683 1v.052c.61.443-.083.801-.379 1.21-.306.422-.446.953-.758 1.365-.165.217-.436.293-.608.496-.252.298-.308.67-.41 1.032l.946.21c-.017.217-.207 1.453-.525 1.263h-.053l.053.473h.052c.542-1.295 2.069-2.697 3.575-2.376.548.116.843.61 1.32.762.27.086.596-.025.888.07.636.206 1.182.891 1.42 1.492h.052V7.47l-.262.052-.736-1.525.946-.21c-.288-.9-1.207-1.39-2.05-1.766-.256-.114-.855-.176-1.013-.413-.302-.452.945-.572 1.17-.557-.243-.628-1.02-.815-1.332-1.368-.125-.222.119-.413.333-.393.335.032.67.38.947.551C9.525 1.514 8.326.718 9.02.368c.11-.374.495-.309.788-.163.614.307 1.126.722 1.683 1.11a13.06 13.06 0 00-.196-.473c-.148-.343-.16-1.104.389-.604.324.297.558.843.747 1.235.598 1.237.314 2.588.952 3.787l1.157-.368c0 .564.093 1.399-.473 1.684.721 1.25.249 2.212-.2 3.471-.223.63-.256 1.302-.406 1.947-.108.46-.33.824-.34 1.315l.63-.105-.788.841.946-.263-.841.58v.052l.946-.158-1.472.491-2.997 1.192v.053h6.467V0z" fill-opacity="0" fill="#fff" stroke-width=".053"/><path d="M9.107.018l.035.017-.035-.017M9.387 0v.053h.316L9.388 0m1.787 0l.053.053L11.175 0m.35.018l.036.017-.035-.017M9.02.053c-.333.41-.477.663-.106 1.104-.326.008-.803.228-.539.627.283.426.905.79 1.275 1.162-.308.006-.742.038-.993.237-.431.343-.014.658.363.71V3.84c-.345-.075-.691-.36-.261-.639.255-.165.648-.196.944-.203-.269-.576-.96-.764-1.274-1.267-.146-.233.08-.491.328-.498.225-.006.443.189.63.293-.191-.251-.7-.53-.66-.895.027-.228.276-.345.293-.578z" stroke-width=".053"/><path d="M9.02.368c-.777.236.505 1.242.736 1.473-.248-.21-.608-.537-.947-.564-.228-.019-.483.158-.365.406.26.55 1.046.817 1.364 1.368-.221-.024-1.593.128-1.176.594.2.225.744.27 1.018.4.867.412 1.671.859 2.05 1.742l-.945.21.736 1.525.262-.052c-.267.412-.022.532 0 .947h-.052c-.172-.621-.782-1.336-1.42-1.507-.275-.074-.64.023-.889-.082-.464-.196-.724-.62-1.266-.735-1.469-.313-3.224.977-3.628 2.376h-.052l-.053-.473h.053c.312.256.516-1.05.525-1.263l-.946-.21c.133-.356.175-.738.447-1.032.182-.197.449-.268.606-.496.297-.429.44-.948.762-1.365.267-.345 1.038-.874.34-1.21v-.053l1.683-1c-.194-.347-.548-.014-.789.136-.662.413-1.316.854-1.998 1.232-.069-.186-.227-.476-.116-.668.122-.21.84-.62.628-.93-.141-.206-.86.244-1.037.315-.24.096-.526.238-.789.242-.16.003-.307-.12-.468-.071-.373.111-.709.833-.846 1.165h-.053c-.12-.327-.33-.727-.558-.992-.104-.122-.35-.272-.434-.047-.09.235.036.598.099.829.171.628.314 1.297.578 1.893l-.158.053.105.42.21-.104.158 1.157h-.052v-.21H2.29l.053.263v.052l-.737-.158c-.04.32-.3 1.334-.102 1.592.09.117.337.112.47.144-.123.392.027.576.06.947.062.714.029 1.439.046 2.157.006.24-.079.836.054 1.025.1.144.315.135.433.264.43.473.873.837 1.405 1.23.32.236.722.407.631.848l.263.263c-.625-.212-1.344-.21-1.998-.21.112.346.867.63 1.21.683l-.526-.42v-.053c.897.07 1.844.36 2.681.684v.052c-1.026-.303-2.216-.045-3.26 0 .21.323 1.116.154 1.473.158.959.012 1.904.23 2.839.432.477.103.92.292 1.42.249.584-.051.708-.795 1.366-.628v.052l-.999.526v.053c.575 0 .961-.313 1.472-.533.717-.308 1.46-.541 2.208-.76.344-.1 1.052-.142 1.262-.443l-.946.158v-.053l.841-.579-.946.263.788-.841-.63.105c.02-.468.236-.822.34-1.263.178-.761.241-1.521.523-2.262.394-1.036.875-2.231.083-3.208.592-.21.473-1.15.473-1.684l-1.157.368c-.158-.408-.376-.83-.458-1.262-.173-.909-.066-1.691-.494-2.578-.186-.385-.454-1.068-.84-1.285-.801-.45-.224.948-.1 1.18C11.017.851 10.379.4 9.756.157 9.462.044 9.08-.01 9.02.368z" fill="#1e1209" stroke-width=".053"/><path d="M9.703.053v.052l1.63 1c-.11-.387-.335-.652-.158-1.052-.282.261-.12.532 0 .841L9.703.053m1.893 0v.052c.707.591 1.242 1.88 1.314 2.788h.053c-.036-.834-.599-2.422-1.367-2.84z" stroke-width=".053"/><path d="M9.335.263v.053h.21z" fill="#aea08c" stroke-width=".053"/><path d="M11.368.28l.035.018z" fill="#756a5c" stroke-width=".053"/><path d="M9.335.316l.63.551 1.105 1.027C10.372 1.574 9.849.719 9.072.579c.119.77 1.247 1.286 1.577 1.999L8.704 1.526c.14.457.767.781 1.095 1.113.118.12.22.32.386.378.208.072.503-.117.727-.124-.581.6-1.367.336-2.103.526.119.359.613.204.894.368.952.555 1.885.784 2.26 1.894.247-.05.96-.14 1.072-.39.165-.366-.34-.884-.385-1.24-.036-.286.065-.6.045-.895-.05-.726-.315-1.428-.678-2.051-.18-.307-.318-.686-.684-.79l.473 1.579-.578-.158c.14-.293-.088-.471-.316-.644C10.483.765 9.888.344 9.335.316z" fill="#f0e0c6" stroke-width=".053"/><path d="M9.598.316l.052.052z" fill="#7c7061" stroke-width=".053"/><path d="M11.49.316l.053.052z" fill="#6e6658" stroke-width=".053"/><path d="M9.703.368l.053.053z" fill="#766a5c" stroke-width=".053"/><path d="M9.335.42l.053.053z" fill="#938775" stroke-width=".053"/><path d="M9.808.42l.053.053z" fill="#716557" stroke-width=".053"/><path d="M9.913.473l.053.053z" fill="#695e50" stroke-width=".053"/><path d="M9.23.579l.052.052z" fill="#6f6455" stroke-width=".053"/><path d="M9.037.666l.018.035z" fill="#5a4f43" stroke-width=".053"/><path d="M9.335.631l.053.053z" fill="#74695a" stroke-width=".053"/><path d="M11.385.631l.053.053z" fill="#776b5c" stroke-width=".053"/><path d="M10.281.684l.053.052z" fill="#827767" stroke-width=".053"/><path d="M11.753.684l.053.052z" fill="#6d6254" stroke-width=".053"/><path d="M9.808.736l.053.053z" fill="#6b5f52" stroke-width=".053"/><path d="M10.386.736l.053.053z" fill="#6c6153" stroke-width=".053"/><path d="M11.438.736l.053.053z" fill="#897d6c" stroke-width=".053"/><path d="M9.545.79l.053.052z" fill="#908472" stroke-width=".053"/><path d="M9.125.842l.052.052z" fill="#796e5e" stroke-width=".053"/><path d="M9.966.842l.052.052z" fill="#948776" stroke-width=".053"/><path d="M11.175.894l.053.053z" fill="#fff" stroke-width=".053"/><path d="M4.34 1.42v.053c.31-.074.856-.487 1.15-.427.539.11-.44.913-.571 1.006l.105.473c.048-.159-.018-.322.079-.473.17-.262.714-.503.608-.892-.126-.462-1.098.168-1.37.26z" stroke-width=".053"/><path d="M9.756.947l.052.052z" fill="#908372" stroke-width=".053"/><path d="M10.702.947l.052.052z" fill="#8b7e6e" stroke-width=".053"/><path d="M11.911.947l.053.052z" fill="#655a4d" stroke-width=".053"/><path d="M11.543 1l.053.052z" fill="#6a5f51" stroke-width=".053"/><path d="M5.076 2.578v.105c.718-.272 1.4-.834 2.05-1.24.25-.156.631-.468.737-.023.227-.42-.392-.275-.578-.16-.626.388-1.487 1.184-2.209 1.318z" stroke-width=".053"/><path d="M10.229 1.052l.052.053z" fill="#887c6b" stroke-width=".053"/><path d="M10.86 1.052l.052.053z" fill="#6d6254" stroke-width=".053"/><path d="M11.964 1.052l.052.053z" fill="#726658" stroke-width=".053"/><path d="M9.966 1.105l.052.052z" fill="#908372" stroke-width=".053"/><path d="M11.596 1.105l.052.052z" fill="#857968" stroke-width=".053"/><path d="M8.914 1.157l.053.053z" fill="#fff" stroke-width=".053"/><path d="M11.666 1.245l.017.035z" fill="#5a4f42" stroke-width=".053"/><path d="M10.176 1.263l.053.052z" fill="#928674" stroke-width=".053"/><path d="M10.492 1.263l.052.052z" fill="#857969" stroke-width=".053"/><path d="M5.129 1.315l.053.053z" fill="#7a6f60" stroke-width=".053"/><path d="M3.815 1.946c.307.792 1.33-.127 1.472-.63z" fill="#f0e0c6" stroke-width=".053"/><path d="M5.287 1.315v.158h.052z" fill="#786c5e" stroke-width=".053"/><path d="M12.121 1.315l.053.053z" fill="#716657" stroke-width=".053"/><path d="M11.228 1.368l.052.052z" fill="#726758" stroke-width=".053"/><path d="M11.718 1.403l.018.035z" fill="#796d5e" stroke-width=".053"/><path d="M7.758 1.42l-1.472.947.223.474-.612.736-.841 1.47-.61.582h.052c.19-.225.472-.338.65-.58.32-.436.474-.98.802-1.42.336-.45.865-.687.44-1.262.335-.158 1.268-.585 1.368-.947z" stroke-width=".053"/><path d="M9.703 1.42l.053.053z" fill="#736859" stroke-width=".053"/><path d="M10.386 1.42l.053.053z" fill="#928574" stroke-width=".053"/><path d="M1.449 1.473v.053c.496.168.691.74.946 1.157h.053c.207-.314.466-.95.843-1.084.145-.05.276.051.418.06.192.012.394-.09.579-.133v-.053c-.174.026-.351.112-.526.116-.163.004-.308-.118-.472-.071-.376.107-.718.772-.842 1.112h-.053c-.14-.443-.457-1.058-.946-1.157z" stroke-width=".053"/><path d="M5.234 1.473l.053.053z" fill="#817565" stroke-width=".053"/><path d="M9.756 1.473l.052.053z" fill="#867a69" stroke-width=".053"/><path d="M5.182 1.526l.052.052z" fill="#716657" stroke-width=".053"/><path d="M8.862 1.526l.052.052z" fill="#62574a" stroke-width=".053"/><path d="M9.808 1.526l.053.052z" fill="#958976" stroke-width=".053"/><path d="M11.333 1.526l.052.052z" fill="#877b6a" stroke-width=".053"/><path d="M8.967 1.578l.053.053z" fill="#6e6254" stroke-width=".053"/><path d="M10.597 1.578l.052.053z" fill="#938674" stroke-width=".053"/><path d="M11.77 1.613l.018.035z" fill="#7b6f60" stroke-width=".053"/><path d="M1.291 1.63c-.09.845.342 1.724.56 2.526.07.262-.05.48.07.736h.054c-.062-.184-.085-.276.052-.42l-.584-1.947z" stroke-width=".053"/><path d="M11.228 1.63l.052.053z" fill="#7a6e5f" stroke-width=".053"/><path d="M4.428 1.7l.035.018z" fill="#a09380" stroke-width=".053"/><path d="M9.125 1.683l.052.053z" fill="#958977" stroke-width=".053"/><path d="M11.385 1.683v.053h.158z" fill="#6c6052" stroke-width=".053"/><path d="M11.77 1.718l.018.035z" fill="#41362b" stroke-width=".053"/><path d="M8.81 1.736l.052.053z" fill="#9c8e7c" stroke-width=".053"/><path d="M8.862 1.789l.052.052z" fill="#867a6a" stroke-width=".053"/><path d="M9.282 1.789l.053.052z" fill="#958876" stroke-width=".053"/><path d="M11.035 1.824l.017.035z" fill="#9f927f" stroke-width=".053"/><path d="M11.648 1.789l.053.052z" fill="#74695a" stroke-width=".053"/><path d="M4.06 1.859l.035.017z" fill="#ad9f8b" stroke-width=".053"/><path d="M2.71 3.577L1.66 2l.42 1.736.277.536.511-.204 1.157-.648v-.105l-.578-.316v.158H3.34l.053-.473c.367.242.63.582 1.104.473-.108-.37-.554-.646-.795-.946-.085-.107-.195-.283-.351-.283-.17 0-.291.268-.367.388-.298.474-.485.714-.274 1.262z" fill="#f0e0c6" stroke-width=".053"/><path d="M3.902 1.911l.035.018z" fill="#9e917e" stroke-width=".053"/><path d="M4.761 1.894l.053.052z" fill="#7d7162" stroke-width=".053"/><path d="M9.44 1.894l.053.052z" fill="#958877" stroke-width=".053"/><path d="M1.606 1.946v.21h.053l.053-.21z" fill="#b9aa94" stroke-width=".053"/><path d="M10.176 1.946L10.23 2z" fill="#6a5e51" stroke-width=".053"/><path d="M1.712 1.999l.052.053z" fill="#7c7060" stroke-width=".053"/><path d="M9.598 1.999l.052.053z" fill="#928574" stroke-width=".053"/><path d="M10.229 1.999l.052.053z" fill="#7e7262" stroke-width=".053"/><path d="M12.454 2.034l.018.035z" fill="#b7a994" stroke-width=".053"/><path d="M3.131 2.052l.053.052z" fill="#857968" stroke-width=".053"/><path d="M10.281 2.052l.053.052z" fill="#918573" stroke-width=".053"/><path d="M3.604 2.104l.053.053z" fill="#665b4d" stroke-width=".053"/><path d="M3.867 2.104l.053.053z" fill="#887b6b" stroke-width=".053"/><path d="M4.498 2.104l.053.053z" fill="#908472" stroke-width=".053"/><path d="M9.23 2.104l.052.053z" fill="#8e8170" stroke-width=".053"/><path d="M1.606 2.157v.158h.053z" fill="#5e5346" stroke-width=".053"/><path d="M1.817 2.157l.052.052z" fill="#7b6f60" stroke-width=".053"/><path d="M4.446 2.157l.052.052z" fill="#6e6254" stroke-width=".053"/><path d="M9.86 2.157l.053.052z" fill="#817666" stroke-width=".053"/><path d="M12.507 2.192l.018.035z" fill="#978a78" stroke-width=".053"/><path d="M4.638 2.227l.035.017z" fill="#52483c" stroke-width=".053"/><path d="M9.966 2.21l.052.052z" fill="#655a4c" stroke-width=".053"/><path d="M4.235 2.262l.053.053z" fill="#9a8d7b" stroke-width=".053"/><path d="M4.498 2.262l.053.053z" fill="#716657" stroke-width=".053"/><path d="M4.235 2.472c.057.125.46.764.595.408.068-.181-.084-.44-.122-.618z" fill="#f0e0c6" stroke-width=".053"/><path d="M1.66 2.315v.157h.052z" fill="#b8aa94" stroke-width=".053"/><path d="M1.922 2.315l.053.052z" fill="#74695b" stroke-width=".053"/><path d="M3.762 2.315l.053.052z" fill="#857968" stroke-width=".053"/><path d="M4.025 2.315l.053.052z" fill="#756a5b" stroke-width=".053"/><path d="M4.13 2.315l.053.052z" fill="#998c7a" stroke-width=".053"/><path d="M2.92 2.367l.053.053z" fill="#6c6052" stroke-width=".053"/><path d="M4.726 2.402l.017.035z" fill="#a89c88" stroke-width=".053"/><path d="M10.229 2.367l.052.053z" fill="#847968" stroke-width=".053"/><path d="M10.544 2.367l.053.053z" fill="#716557" stroke-width=".053"/><path d="M12.56 2.402l.017.035z" fill="#9f927f" stroke-width=".053"/><path d="M10.334 2.42l.052.052z" fill="#685c4f" stroke-width=".053"/><path d="M10.597 2.42l-.105.105v.053c.118-.025.164-.046.105-.158z" fill="#6f6354" stroke-width=".053"/><path d="M9.703 2.525l.053.053z" fill="#8d806f" stroke-width=".053"/><path d="M12.612 2.56l.018.035z" fill="#8f8371" stroke-width=".053"/><path d="M1.712 2.578v.157h.052z" fill="#837867" stroke-width=".053"/><path d="M2.448 4.63c.051.287.3.554.308.84.006.213-.22.454-.094.663.103.17.909.385 1.077.281.246-.152.32-.833.466-1.09.124-.218.428-.311.603-.49.245-.248.361-.599.55-.889.215-.332.508-.614.716-.947.056-.09.15-.282.022-.36-.18-.108-.688.301-.862.38-.974.44-1.838 1.106-2.786 1.611z" fill="#f0e0c6" stroke-width=".053"/><path d="M9.756 2.578l.052.052z" fill="#7e7262" stroke-width=".053"/><path d="M2.763 2.63l.053.053z" fill="#897d6c" stroke-width=".053"/><path d="M4.831 2.665l.018.035z" fill="#726759" stroke-width=".053"/><path d="M6.18 2.683v.158h.053z" fill="#918573" stroke-width=".053"/><path d="M9.86 2.683l.053.052z" fill="#857968" stroke-width=".053"/><path d="M12.665 2.718l.017.035z" fill="#615649" stroke-width=".053"/><path d="M4.393 2.735l.053.053z" fill="#74695a" stroke-width=".053"/><path d="M1.782 2.823l.017.035z" fill="#675c4f" stroke-width=".053"/><path d="M4.446 2.788l.052.053z" fill="#8d806f" stroke-width=".053"/><path d="M12.647 2.788v.21h.053z" fill="#c9baa3" stroke-width=".053"/><path d="M4.288 2.84l.052.053z" fill="#877b6a" stroke-width=".053"/><path d="M4.884 2.876l.017.035z" fill="#61574a" stroke-width=".053"/><path d="M5.427 2.91l.035.018z" fill="#ad9f8b" stroke-width=".053"/><path d="M6.128 2.893l.052.053z" fill="#847867" stroke-width=".053"/><path d="M10.544 2.893v.053l.368.052z" fill="#63584b" stroke-width=".053"/><path d="M1.817 2.946v.158h.052z" fill="#7f7464" stroke-width=".053"/><path d="M2.237 2.946l.053.052z" fill="#887e6e" stroke-width=".053"/><path d="M3.482 2.963l.035.018z" fill="#7f7565" stroke-width=".053"/><path d="M6.075 2.946l.053.052z" fill="#8e8270" stroke-width=".053"/><path d="M12.963 2.946v.42h.052z" stroke-width=".053"/><path d="M3.552 2.998l.052.053z" fill="#978b78" stroke-width=".053"/><path d="M4.708 2.998l.053.053z" fill="#61564a" stroke-width=".053"/><path d="M5.217 3.016l.035.018z" fill="#bdae98" stroke-width=".053"/><path d="M6.023 2.998l.052.053z" fill="#948875" stroke-width=".053"/><path d="M10.755 2.998l.052.053z" fill="#63584b" stroke-width=".053"/><path d="M2.518 3.086l.017.035z" fill="#7a6e5f" stroke-width=".053"/><path d="M10.264 3.069l.035.017z" fill="#5f5447" stroke-width=".053"/><path d="M12.7 3.051v.684h.052z" fill="#605548" stroke-width=".053"/><path d="M3.71 3.104l.052.052z" fill="#786c5d" stroke-width=".053"/><path d="M4.971 3.104l.053.052z" fill="#796e5f" stroke-width=".053"/><path d="M1.887 3.191l.017.035z" fill="#605549" stroke-width=".053"/><path d="M4.393 3.156l.053.053z" fill="#968977" stroke-width=".053"/><path d="M2.395 3.209l.053.052z" fill="#6a5f51" stroke-width=".053"/><path d="M2.57 3.244l.018.035z" fill="#493f34" stroke-width=".053"/><path d="M3.867 3.209l.053.052z" fill="#827767" stroke-width=".053"/><path d="M4.27 3.226l.035.018z" fill="#a69a86" stroke-width=".053"/><path d="M4.814 3.209l.052.052z" fill="#847868" stroke-width=".053"/><path d="M9.388 3.261v.053h.21z" fill="#827767" stroke-width=".053"/><path d="M9.598 3.261v.053h.578z" fill="#cfc0a8" stroke-width=".053"/><path d="M1.94 3.35l.017.034z" fill="#665b4e" stroke-width=".053"/><path d="M2.448 3.314l.052.053z" fill="#867b6a" stroke-width=".053"/><path d="M4.042 3.35l.018.034z" fill="#928573" stroke-width=".053"/><path d="M9.02 3.314v.053h.157z" fill="#554a3e" stroke-width=".053"/><path d="M2.605 3.367l.053.052z" fill="#6b6052" stroke-width=".053"/><path d="M13.015 3.367v.263h.053z" fill="#020101" stroke-width=".053"/><path d="M4.533 3.437l.035.017z" fill="#bcae98" stroke-width=".053"/><path d="M5.655 3.42l.052.052z" fill="#6e6355" stroke-width=".053"/><path d="M1.992 3.507l.018.035z" fill="#6a5f51" stroke-width=".053"/><path d="M2.553 3.472l.052.053z" fill="#665a4d" stroke-width=".053"/><path d="M2.676 3.507l.017.035z" fill="#63574a" stroke-width=".053"/><path d="M3.762 3.525l.053.052z" fill="#685d4f" stroke-width=".053"/><path d="M12.91 3.525v.263h.053z" fill="#aca28e" stroke-width=".053"/><path d="M3.657 3.577l.052.053z" fill="#817465" stroke-width=".053"/><path d="M5.55 3.577l.052.053z" fill="#766b5c" stroke-width=".053"/><path d="M2.045 3.665l.017.035z" fill="#6c6153" stroke-width=".053"/><path d="M3.552 3.63l.052.052z" fill="#968977" stroke-width=".053"/><path d="M4.025 3.63l.053.052z" fill="#6d6253" stroke-width=".053"/><path d="M9.055 3.647l.035.018z" fill="#74695a" stroke-width=".053"/><path d="M12.98 3.665l.018.035z" fill="#090909" stroke-width=".053"/><path d="M13.068 3.63v.158h.052z" stroke-width=".053"/><path d="M9.335 3.682v.053h.315z" fill="#938979" stroke-width=".053"/><path d="M3.867 3.735l.053.053z" fill="#877a6a" stroke-width=".053"/><path d="M5.444 3.735l.053.053z" fill="#7d7162" stroke-width=".053"/><path d="M12.857 3.735v.105h.106z" fill="#685f52" stroke-width=".053"/><path d="M2.097 3.823l.018.035z" fill="#6d6254" stroke-width=".053"/><path d="M3.289 3.788l.052.052z" fill="#716658" stroke-width=".053"/><path d="M13.015 3.788l.053.052z" fill="#010101" stroke-width=".053"/><path d="M3.184 3.84l.052.053z" fill="#8b7e6d" stroke-width=".053"/><path d="M9.808 3.84l.053.053z" fill="#766a5b" stroke-width=".053"/><path d="M12.963 3.84v.263h.052z" stroke-width=".053"/><path d="M3.604 3.893l.053.052z" fill="#726758" stroke-width=".053"/><path d="M5.34 3.893l.052.052z" fill="#786d5e" stroke-width=".053"/><path d="M9.107 3.91l.035.018z" stroke-width=".053"/><path d="M2.15 3.98l.017.035z" fill="#6f6455" stroke-width=".053"/><path d="M9.23 3.945v.053c.683.187 1.78.801 2.208 1.368h.053c-.136-.437-.588-.542-.947-.731-.448-.236-.8-.601-1.314-.69z" stroke-width=".053"/><path d="M9.966 3.945l.052.053z" fill="#6f6455" stroke-width=".053"/><path d="M12.595 3.945v.158h.052z" fill="#6f6456" stroke-width=".053"/><path d="M2.92 3.998l.053.053z" fill="#64594c" stroke-width=".053"/><path d="M2.816 4.05l.052.053z" fill="#7c7061" stroke-width=".053"/><path d="M5.234 4.05l.053.053z" fill="#877b6a" stroke-width=".053"/><path d="M2.202 4.138l.018.035z" fill="#695e51" stroke-width=".053"/><path d="M2.71 4.103l.053.053z" fill="#958876" stroke-width=".053"/><path d="M13.015 4.103v.158h.053z" stroke-width=".053"/><path d="M10.281 4.156l.053.052z" fill="#837766" stroke-width=".053"/><path d="M2.448 4.261l.052.053z" fill="#74695a" stroke-width=".053"/><path d="M10.44 4.261l.052.053z" fill="#928674" stroke-width=".053"/><path d="M13.085 4.296l.018.035z" stroke-width=".053"/><path d="M2.325 4.331l.035.018z" fill="#958876" stroke-width=".053"/><path d="M5.076 4.366l.053.053z" fill="#615649" stroke-width=".053"/><path d="M10.632 4.384l.035.017z" fill="#7d7262" stroke-width=".053"/><path d="M13.12 4.366v.158h.053z" stroke-width=".053"/><path d="M2.763 4.419l.053.052z" fill="#7c7061" stroke-width=".053"/><path d="M10.842 4.436l.035.018z" fill="#796e5f" stroke-width=".053"/><path d="M5.024 4.471l.052.053z" fill="#665b4e" stroke-width=".053"/><path d="M11.052 4.489l.035.017z" fill="#766b5c" stroke-width=".053"/><path d="M11.28 4.524l.053.053z" fill="#736759" stroke-width=".053"/><path d="M13.173 4.524v.158h.053z" stroke-width=".053"/><path d="M2.5 4.577l.053.052z" fill="#655b4d" stroke-width=".053"/><path d="M4.971 4.577l.053.052z" fill="#6a5f51" stroke-width=".053"/><path d="M11.333 4.577l.052.052z" fill="#837867" stroke-width=".053"/><path d="M2.413 4.664l.017.035z" fill="#62574a" stroke-width=".053"/><path d="M11.385 4.682l.053.052z" fill="#6e6354" stroke-width=".053"/><path d="M13.226 4.682v.158h.052z" stroke-width=".053"/><path d="M2.448 4.787l.052.053z" fill="#6b6051" stroke-width=".053"/><path d="M14.487 4.787l.053.053-.053-.053m-1.191.088l.017.035-.017-.035m.981-.035v.052h.158z" stroke-width=".053"/><path d="M2.5 4.892l.053.053z" fill="#7b6f60" stroke-width=".053"/><path d="M14.12 4.892v.053h.157l-.158-.053m-12.144.053v.052h.21l.105.316h.053l-.158-.368h-.21m11.356 0v.158h.052l-.052-.158m.63 0v.052h.158l-.157-.052m.63 0l-.105 1.473h.053c.053-.424.22-1.072.052-1.473z" stroke-width=".053"/><path d="M2.553 4.997l.052.053z" fill="#897d6c" stroke-width=".053"/><path d="M4.55 4.997l.053.053z" fill="#8e8170" stroke-width=".053"/><path d="M11.718 5.033l.018.035z" fill="#574c40" stroke-width=".053"/><path d="M13.804 4.997v.053h.158l-.158-.053m-.21.053v.053h.21z" stroke-width=".053"/><path d="M2.605 5.103l.053.052z" fill="#968977" stroke-width=".053"/><path d="M13.383 5.208l.21-.053z" stroke-width=".053"/><path d="M4.288 5.155l.052.053z" fill="#64594c" stroke-width=".053"/><path d="M13.068 5.155v.21h.052z" fill="#b4a793" stroke-width=".053"/><path d="M2.658 5.208l.053.052z" fill="#948875" stroke-width=".053"/><path d="M4.183 5.208v.158h.052z" fill="#766a5c" stroke-width=".053"/><path d="M2.71 5.313l.053.053z" fill="#7c7060" stroke-width=".053"/><path d="M14.154 5.33l.035.018z" fill="#918f8c" stroke-width=".053"/><path d="M14.224 5.313c-.902.389-2.077.75-3.049.894.056.244.27.828.537.906.217.062.577-.136.777-.212.56-.212 1.154-.45 1.735-.588z" fill="#fff" stroke-width=".053"/><path d="M14.295 5.348l.017.035z" fill="#76726e" stroke-width=".053"/><path d="M2.343 5.366v.42h.052z" stroke-width=".053"/><path d="M12.998 5.383l.035.018z" fill="#564c41" stroke-width=".053"/><path d="M13.997 5.383l.035.018z" fill="#aaa7a5" stroke-width=".053"/><path d="M2.763 5.418l.053.053z" fill="#615649" stroke-width=".053"/><path d="M4.13 5.418v.158h.053z" fill="#b2a48f" stroke-width=".053"/><path d="M11.49 5.418l.053.263-.788.21v.053l.84-.21z" stroke-width=".053"/><path d="M11.876 5.453l.018.035z" fill="#706456" stroke-width=".053"/><path d="M12.84 5.436l.035.017z" fill="#50463a" stroke-width=".053"/><path d="M13.786 5.436l.035.017z" fill="#878380" stroke-width=".053"/><path d="M12.63 5.488l.035.018z" fill="#837767" stroke-width=".053"/><path d="M13.629 5.488l.035.018z" fill="#a19e9c" stroke-width=".053"/><path d="M12.472 5.541l.035.018z" fill="#706455" stroke-width=".053"/><path d="M13.47 5.541l.036.018z" fill="#b6b3b1" stroke-width=".053"/><path d="M11.929 5.611l.017.035z" fill="#62574a" stroke-width=".053"/><path d="M12.314 5.594l.035.017z" fill="#5c5144" stroke-width=".053"/><path d="M13.26 5.594l.036.017z" fill="#95928f" stroke-width=".053"/><path d="M13.909 5.576v.053h.21z" fill="#5a5450" stroke-width=".053"/><path d="M14.224 5.576v.263h.053z" fill="#aba9a7" stroke-width=".053"/><path d="M4.078 5.629l.052.052z" fill="#6c6052" stroke-width=".053"/><path d="M12.069 5.629v.052h.158z" fill="#867a6a" stroke-width=".053"/><path d="M13.103 5.646l.035.018z" fill="#a8a5a3" stroke-width=".053"/><path d="M14.172 5.629c-.612.02-.065.566 0 0z" stroke-width=".053"/><path d="M4.025 5.681l.053.053z" fill="#726758" stroke-width=".053"/><path d="M4.393 5.681l-.315.842.893.158v-.053l-.788-.158z" stroke-width=".053"/><path d="M12.945 5.699l.035.017z" fill="#bbb9b6" stroke-width=".053"/><path d="M13.804 5.681l.052.053z" fill="#68635f" stroke-width=".053"/><path d="M3.99 5.769l.017.035z" fill="#807464" stroke-width=".053"/><path d="M12.735 5.751l.035.018z" fill="#a09d9b" stroke-width=".053"/><path d="M13.769 5.769l.017.035z" fill="#c7c5c3" stroke-width=".053"/><path d="M12.577 5.804l.035.018z" fill="#b2afad" stroke-width=".053"/><path d="M1.501 6.102h.053c.153-.27.423-.126.683-.105-.26-.14-.63-.243-.736.105z" stroke-width=".053"/><path d="M2.623 5.874l.017.035z" fill="#827666" stroke-width=".053"/><path d="M12.367 5.857l.035.017z" fill="#94908d" stroke-width=".053"/><path d="M14.12 5.84l.052.052z" fill="#84807d" stroke-width=".053"/><path d="M14.224 5.84v.21h.053z" fill="#6d6865" stroke-width=".053"/><path d="M12.21 5.91l.034.017z" fill="#a9a6a4" stroke-width=".053"/><path d="M4.919 7.522l.157-.736h-.052l-.21.947h.052c.76-1.009 2.005-2.062 3.365-1.653.46.137.752.586 1.165.722.27.09.592-.032.885.069.537.184.796.632 1.21.967l.157-.263-.21-.053v.263c-.25-.5-.757-.914-1.314-1.019-.218-.041-.469.03-.675-.027-.39-.107-.688-.57-1.113-.701-1.39-.43-2.56.504-3.417 1.484z" stroke-width=".053"/><path d="M11.999 5.962l.035.017z" fill="#8c8986" stroke-width=".053"/><path d="M13.909 5.944v.053h.158z" fill="#544f4b" stroke-width=".053"/><path d="M3.867 5.997v.21h.053z" fill="#9e9381" stroke-width=".053"/><path d="M11.841 6.014l.035.018z" fill="#a19e9b" stroke-width=".053"/><path d="M2.57 6.085l.018.035z" fill="#635b50" stroke-width=".053"/><path d="M10.65 6.05l.735 1.42h.053z" stroke-width=".053"/><path d="M11.63 6.067l.036.018z" fill="#7f7b78" stroke-width=".053"/><path d="M11.473 6.12l.035.017z" fill="#989591" stroke-width=".053"/><path d="M1.449 6.155v.526H1.5z" stroke-width=".053"/><path d="M2.605 6.155l.053.052z" fill="#726a5e" stroke-width=".053"/><path d="M11.315 6.172l.035.018z" fill="#b3b1af" stroke-width=".053"/><path d="M1.817 6.207v.21h.052l.053-.21z" fill="#d9d8d7" stroke-width=".053"/><path d="M1.957 6.225l.035.017z" fill="#3f3833" stroke-width=".053"/><path d="M2.693 6.225l.035.017z" fill="#6c6457" stroke-width=".053"/><path d="M11.14 6.242l.018.035z" fill="#74706d" stroke-width=".053"/><path d="M1.87 6.26l-.106 1.105 2.734.368.21-.737z" fill="#fff" stroke-width=".053"/><path d="M2.062 6.277l.035.018z" fill="#a09d9b" stroke-width=".053"/><path d="M2.85 6.277l.036.018z" fill="#887c6c" stroke-width=".053"/><path d="M4.866 8.575C5.924 7.829 7.08 7.026 8.441 7.6c.313.132.517.415.789.606.232-.976-.536-1.965-1.577-1.94-1.124.028-2.616 1.169-2.787 2.309z" fill="#6b4329" stroke-width=".053"/><path d="M2.272 6.33l.035.018z" fill="#979492" stroke-width=".053"/><path d="M3.079 6.313v.052h.21z" fill="#a59986" stroke-width=".053"/><path d="M14.102 6.33l.035.018z" fill="#76716e" stroke-width=".053"/><path d="M1.764 6.365v.158h.053z" fill="#4c4743" stroke-width=".053"/><path d="M2.448 6.365v.053h.157z" fill="#8b8885" stroke-width=".053"/><path d="M3.324 6.383l.035.017z" fill="#baac96" stroke-width=".053"/><path d="M13.944 6.383l.035.017z" fill="#807c79" stroke-width=".053"/><path d="M2.693 6.435l.035.018z" fill="#807d7b" stroke-width=".053"/><path d="M3.482 6.435l.035.018z" fill="#8d816f" stroke-width=".053"/><path d="M3.762 6.418l.053.052z" fill="#817a6a" stroke-width=".053"/><path d="M11.228 6.418l.052.052z" fill="#a5a2a0" stroke-width=".053"/><path d="M13.839 6.435l.035.018z" fill="#433c38" stroke-width=".053"/><path d="M2.816 6.47v.053h.157z" fill="#a3a09e" stroke-width=".053"/><path d="M13.681 6.488l.035.017z" fill="#4d4844" stroke-width=".053"/><path d="M1.764 6.523v.263h.053z" fill="#b0adab" stroke-width=".053"/><path d="M3.026 6.523v.053h.158z" fill="#9d9b98" stroke-width=".053"/><path d="M11.28 6.523l.053.053z" fill="#8e8b88" stroke-width=".053"/><path d="M13.523 6.54l.035.018z" fill="#534e4a" stroke-width=".053"/><path d="M14.12 6.576c1.028 1.557-.264 3.11-.474 4.734h.053c.227-1.174.94-2.301.846-3.472-.041-.505.032-.802-.32-1.21l.157-.052z" stroke-width=".053"/><path d="M2.132 6.576v.052h.263z" fill="#d0cfce" stroke-width=".053"/><path d="M3.236 6.576v.052h.158z" fill="#928f8c" stroke-width=".053"/><path d="M13.366 6.593l.035.018z" fill="#5b5652" stroke-width=".053"/><path d="M2.149 6.683c-.237.148-.031.58.223.416.223-.144.03-.575-.223-.416z" stroke-width=".053"/><path d="M3.447 6.628v.053h.157z" fill="#898582" stroke-width=".053"/><path d="M11.333 6.628l.052.053z" fill="#75706d" stroke-width=".053"/><path d="M13.208 6.646l.035.017z" fill="#645f5b" stroke-width=".053"/><path d="M2.199 6.743c-.174.091-.057.427.114.301.121-.088.061-.394-.114-.301z" fill="#1e1209" stroke-width=".053"/><path d="M3.657 6.68v.053h.158z" fill="#827e7b" stroke-width=".053"/><path d="M13.05 6.698l.035.018z" fill="#6e6966" stroke-width=".053"/><path d="M12.121 9.995c.459.109.76.378 1.052.736l-1.262-.21v.053c.58.417.816.834.946 1.525h-.052c-.144-.424-.363-.767-.789-.947-.122.649-.156 1.3 0 1.947-.304-.329-.367-.669-.368-1.105h-.052l-.053 1.525h-.052l-.368-1.367c-.484.369-.834 1.095-.625 1.683.05.142.093.44.268.48.17.04.417-.122.567-.189.44-.196.894-.453 1.367-.554v-.053l-.105-.894.407-.526.486-1.946.053.105h.053l.683-2.052c-.27-.102-.55-.264-.683-.526l.578.105c-.004-.333.021-.76-.264-.982-.298-.233-1.618.21-1.81.531-.272.454-.05.592-.05 1.03 0 .217-.14.408-.13.631.016.345.2.65.203 1z" fill="#5a4934" stroke-width=".053"/><path d="M1.396 6.733v.895h.053z" stroke-width=".053"/><path d="M2.465 6.768l.018.036z" fill="#6a6663" stroke-width=".053"/><path d="M3.867 6.733v.053h.158z" fill="#77726f" stroke-width=".053"/><path d="M12.893 6.75l.035.018z" fill="#74706d" stroke-width=".053"/><path d="M1.975 6.786v.21h.052z" fill="#c4c2bf" stroke-width=".053"/><path d="M4.025 6.786v.053h.158z" fill="#a09c9a" stroke-width=".053"/><path d="M12.735 6.804l.035.017z" fill="#7a7673" stroke-width=".053"/><path d="M4.235 6.839v.052h.158z" fill="#95928f" stroke-width=".053"/><path d="M12.577 6.856l.035.018z" fill="#827e7b" stroke-width=".053"/><path d="M1.73 6.926l.017.035z" fill="#595450" stroke-width=".053"/><path d="M4.393 6.891v.053h.158z" fill="#bfbdbb" stroke-width=".053"/><path d="M11.49 6.891l.053.053z" fill="#95918f" stroke-width=".053"/><path d="M12.472 6.909l.035.017z" fill="#403933" stroke-width=".053"/><path d="M4.638 6.961l.035.018z" fill="#b7b5b3" stroke-width=".053"/><path d="M4.726 6.979l.017.035z" fill="#807c79" stroke-width=".053"/><path d="M12.314 6.961l.035.018z" fill="#49423e" stroke-width=".053"/><path d="M1.712 6.996v.369h.052z" fill="#b7b5b3" stroke-width=".053"/><path d="M11.543 6.996l.053.053z" fill="#7d7976" stroke-width=".053"/><path d="M12.157 7.014l.035.018z" fill="#524b48" stroke-width=".053"/><path d="M11.999 7.067l.035.017z" fill="#5b5651" stroke-width=".053"/><path d="M2.08 7.102l.052.052-.052-.052m2.576 0v.157h.052z" fill="#898683" stroke-width=".053"/><path d="M9.493 7.785c.622 0 1.051.106 1.63.316-.215-.451-.569-.807-1.052-.945-.145-.041-.41-.113-.524.03-.11.138-.054.434-.054.6z" fill="#6c432a" stroke-width=".053"/><path d="M11.596 7.102l.052.052z" fill="#635e5a" stroke-width=".053"/><path d="M11.841 7.12l.035.017z" fill="#66615e" stroke-width=".053"/><path d="M2.132 7.154v.053h.21z" fill="#797572" stroke-width=".053"/><path d="M11.683 7.172l.035.017z" fill="#787471" stroke-width=".053"/><path d="M4.62 7.347l.018.035z" fill="#625e5a" stroke-width=".053"/><path d="M1.764 7.365v.052h.158z" fill="#6e6a67" stroke-width=".053"/><path d="M2.132 7.417v.053h.21z" fill="#918e8b" stroke-width=".053"/><path d="M2.535 7.487l.035.018z" fill="#5c5753" stroke-width=".053"/><path d="M2.605 7.47v.052h.158z" fill="#908d8a" stroke-width=".053"/><path d="M4.568 7.505l.018.035z" fill="#726d6a" stroke-width=".053"/><path d="M2.92 7.522v.053h.211z" fill="#9d9a96" stroke-width=".053"/><path d="M3.324 7.593l.035.017z" fill="#686460" stroke-width=".053"/><path d="M3.394 7.575v.053h.158z" fill="#9d9a98" stroke-width=".053"/><path d="M3.71 7.628v.052h.21z" fill="#aaa7a5" stroke-width=".053"/><path d="M4.516 7.663l.017.035z" fill="#817c7a" stroke-width=".053"/><path d="M7.18 7.628v.052h.84z" fill="#3f2718" stroke-width=".053"/><path d="M1.554 7.68v.053h.263l.157 1.841.053 2.315h.053l-.058-2.473-.1-1.736z" stroke-width=".053"/><path d="M2.237 7.68l.158 2.21h.053l-.053-2.21z" fill="#f8f6f4" stroke-width=".053"/><path d="M2.395 7.68c-.151.82.125 1.774.044 2.63-.031.325-.199.95-.065 1.251.122.273.4.084.547-.04l-.046.525.624.58 1.525 1.051.105.842c.276.057.82.327 1.084.23.401-.15.403-1.03.493-1.387l-.736-.474-.578.684c.116-.31.233-.992.036-1.289-.153-.23-.491-.314-.667-.552h-.053l.158.473c-.623-.324-.734-1.038-.736-1.683-.295.18-.485.622-.578.947h-.053c0-.966.91-1.83.758-2.736-.034-.203-.034-.652-.21-.787-.342-.26-1.228-.164-1.652-.265z" fill="#584833" stroke-width=".053"/><path d="M4.165 7.698l.035.017z" fill="#8f8c8a" stroke-width=".053"/><path d="M4.235 7.68v.053h.21z" fill="#d0cecc" stroke-width=".053"/><path d="M4.13 10.1c1.33-.757 2.854-.564 4.153-1.42-.056 1.04-2.015 1.194-2.786 1.387-.452.113-.911.3-.946.822 1.243-1.072 3.682-.098 4.511-1.894.557-1.205-1.191-1.333-1.935-1.314-1.193.031-2.669 1.303-2.997 2.42z" fill="#6b4229" stroke-width=".053"/><path d="M5.234 7.733l.053.052z" fill="#fff" stroke-width=".053"/><path d="M13.594 7.733l.63.473c-.089-.27-.383-.37-.63-.473z" fill="#fcfcfc" stroke-width=".053"/><path d="M2.202 7.82l.018.036z" fill="#6c6864" stroke-width=".053"/><path d="M5.182 7.785l.052.053z" fill="#fff" stroke-width=".053"/><path d="M13.751 7.785l.053.053z" fill="#5f5a56" stroke-width=".053"/><path d="M13.856 7.838l.053.053z" fill="#777370" stroke-width=".053"/><path d="M2.185 7.89v.159h.052z" fill="#b4b2af" stroke-width=".053"/><path d="M5.129 7.89l.053.053z" fill="#fff" stroke-width=".053"/><path d="M13.962 7.89l.052.053z" fill="#5b5653" stroke-width=".053"/><path d="M2.29 7.943v.21h.053z" fill="#bab4ad" stroke-width=".053"/><path d="M5.076 7.943l.053.053z" fill="#fff" stroke-width=".053"/><path d="M9.493 7.943c0 1.11 1.156 1.976 2.26 2-.022-.943-.925-1.412-1.735-1.579v-.052l1.473.526c-.26-.76-1.318-.895-1.998-.895z" fill="#6b4229" stroke-width=".053"/><path d="M11.07 7.943l.053.053z" fill="#fff" stroke-width=".053"/><path d="M13.804 7.943l.052.053z" fill="#aaa39c" stroke-width=".053"/><path d="M5.041 8.031l.018.035z" fill="#fff" stroke-width=".053"/><path d="M14.12 7.996l.052.053z" fill="#9a9896" stroke-width=".053"/><path d="M2.15 8.084l.017.035z" fill="#4d4742" stroke-width=".053"/><path d="M11.123 8.049l.052.052z" fill="#fff" stroke-width=".053"/><path d="M14.224 8.049v.157h.053z" fill="#b5b2b0" stroke-width=".053"/><path d="M4.498 8.101v.158h.053l.052-.158z" stroke-width=".053"/><path d="M4.971 8.101l.053.053L4.97 8.1m6.204 0l.053.053z" fill="#fff" stroke-width=".053"/><path d="M2.343 8.154l.052.052z" fill="#a69e95" stroke-width=".053"/><path d="M4.936 8.189l.018.035z" fill="#fff" stroke-width=".053"/><path d="M14.12 8.154l.052.052z" fill="#afa9a1" stroke-width=".053"/><path d="M2.237 8.259l.053.053z" fill="#827e7b" stroke-width=".053"/><path d="M4.866 8.259l-.21.473h.052z" fill="#fff" stroke-width=".053"/><path d="M11.7 8.259l.053.053z" stroke-width=".053"/><path d="M2.29 8.364v.421h.053z" fill="#392d21" stroke-width=".053"/><path d="M9.335 8.732c-.198.531.07.927.526 1.213.758.476 1.52.313 2.366.313v-.053l-1.472-.28z" fill="#6b4329" stroke-width=".053"/><path d="M2.343 8.995v.684h.052z" fill="#aeabaa" stroke-width=".053"/><path d="M11.596 9.311l.052.053-.052-.053m.052.105l.053.053-.053-.053m.053.105l.052.053z" fill="#fff" stroke-width=".053"/><path d="M9.16 9.592l.035.017z" fill="#9a8f7c" stroke-width=".053"/><path d="M4.498 10.258l2.05-.579c-.453-.19-1.887.056-2.05.579z" fill="#6f452b" stroke-width=".053"/><path d="M9.125 9.627c-.256.533-.68.661-1.21.789v-.053l.368-.316c-.327.06-.616.244-.946.315-.643.139-2.103-.067-2.469.638-.277.534.488.895.753 1.13.243.215.384.473.665.665.556.38.812 1.105 1.367 1.435 1.129.673 2.56-.47 2.786-1.552l-.368.105c.162-.186.396-.259.578-.427.171-.158.265-.396.441-.541.347-.285.61-.286.663-.82l-.473.525c.04-.147.145-.362.02-.494-.14-.149-.513-.165-.703-.262-.525-.266-1.041-.645-1.367-1.137z" fill="#f0e0c6" stroke-width=".053"/><path d="M11.77 9.662l.018.035z" fill="#fff" stroke-width=".053"/><path d="M2.343 9.68v.21h.052z" fill="#716d6c" stroke-width=".053"/><path d="M9.072 9.68l.053.052z" fill="#655a4c" stroke-width=".053"/><path d="M9.23 9.68l.052.052z" fill="#837767" stroke-width=".053"/><path d="M9.02 9.784l.052.053z" fill="#857868" stroke-width=".053"/><path d="M11.824 9.872l.017.035z" fill="#fff" stroke-width=".053"/><path d="M2.395 9.89v.368h.053z" fill="#c6c2be" stroke-width=".053"/><path d="M8.389 9.89l-.158.157z" fill="#aea38f" stroke-width=".053"/><path d="M8.914 9.942l.053.053z" fill="#938775" stroke-width=".053"/><path d="M8.23 10.1l.053.053z" fill="#726758" stroke-width=".053"/><path d="M9.598 10.1l.052.053z" fill="#938775" stroke-width=".053"/><path d="M13.488 10.153v.263h.053z" fill="#7f7973" stroke-width=".053"/><path d="M7.793 10.223l.035.017z" fill="#aea08c" stroke-width=".053"/><path d="M2.395 10.258v.21h.053z" fill="#a39e98" stroke-width=".053"/><path d="M7.583 10.275l.035.018z" fill="#796a5a" stroke-width=".053"/><path d="M8.476 10.275l.035.018z" fill="#a0927f" stroke-width=".053"/><path d="M9.808 10.258l.053.053z" fill="#8a7d6c" stroke-width=".053"/><path d="M7.425 10.328l.035.018z" fill="#847767" stroke-width=".053"/><path d="M7.968 10.31l-.053.106h.106z" fill="#726657" stroke-width=".053"/><path d="M8.23 10.31v.053h.159z" fill="#5b5044" stroke-width=".053"/><path d="M6.864 10.363v.053h.368z" fill="#74695a" stroke-width=".053"/><path d="M9.966 10.363l.052.053z" fill="#766b5c" stroke-width=".053"/><path d="M13.436 10.363l-.053.42z" fill="#c2bdb7" stroke-width=".053"/><path d="M6.128 10.416v.052h.42z" fill="#4f4439" stroke-width=".053"/><path d="M6.549 10.416v.052h.262z" fill="#ac9e8a" stroke-width=".053"/><path d="M5.76 10.468v.053h.368z" fill="#b7a994" stroke-width=".053"/><path d="M8.494 10.468v.316h.052l.053-.316z" fill="#817566" stroke-width=".053"/><path d="M5.637 10.538l.035.018z" fill="#9d907e" stroke-width=".053"/><path d="M8.073 10.52l.053.054z" fill="#6e6355" stroke-width=".053"/><path d="M8.126 10.52c-.141.173-.285.38-.526.395-.397.025-1.171-.322-1.42.08h.79v.052h-.106v.053c.44.003 1.154.108 1.033.736-.033.171-.173.316-.244.473.21.06.364.26.577.296.289.048.522-.398.632-.611l-.626.282-.373-1.176c.227-.114.36-.328.263-.58z" fill="#1f130a" stroke-width=".053"/><path d="M8.546 10.52c.003.26.019.451.263.58l.368-.053h1.315v-.053c-.812.035-1.36.144-1.946-.473z" stroke-width=".053"/><path d="M8.599 10.52l.053.054z" fill="#695e50" stroke-width=".053"/><path d="M5.48 10.591l.035.018z" fill="#a49784" stroke-width=".053"/><path d="M8.178 10.574v.157h.053z" fill="#b6a792" stroke-width=".053"/><path d="M8.652 10.574v.157h.052z" fill="#a79a87" stroke-width=".053"/><path d="M10.702 10.574v.052l1.104.105c-.208-.273-.792-.157-1.104-.157z" fill="#6b4127" stroke-width=".053"/><path d="M7.968 10.679l.053.052z" fill="#6a5f51" stroke-width=".053"/><path d="M10.44 10.679l.052.052z" fill="#938775" stroke-width=".053"/><path d="M5.129 10.731l.053.053z" fill="#7a6e5f" stroke-width=".053"/><path d="M7.915 10.731l.053.053z" fill="#8e8170" stroke-width=".053"/><path d="M10.544 10.731l.053.053z" fill="#786c5d" stroke-width=".053"/><path d="M13.33 10.731v.21h.053z" fill="#e5e2df" stroke-width=".053"/><path d="M6.443 10.784v.053h.368z" fill="#51473b" stroke-width=".053"/><path d="M10.684 10.801l.035.018z" fill="#584e41" stroke-width=".053"/><path d="M6.18 10.837l.053.052z" fill="#867a69" stroke-width=".053"/><path d="M7.074 10.837v.052h.263z" fill="#7b6f5f" stroke-width=".053"/><path d="M13.296 10.872l.017.035z" fill="#aba49b" stroke-width=".053"/><path d="M6.023 11.1l.946-.053v-.053c-.236 0-.78.07-.736-.105z" stroke-width=".053"/><path d="M7.495 10.89v.052h.263z" fill="#887c6b" stroke-width=".053"/><path d="M8.844 10.907l.035.017z" fill="#948876" stroke-width=".053"/><path d="M10.912 10.89v.052h.158z" fill="#897c6c" stroke-width=".053"/><path d="M9.02 10.942v.052h.157z" fill="#74685a" stroke-width=".053"/><path d="M10.369 10.96l.035.017z" fill="#ab9d89" stroke-width=".053"/><path d="M11.543 11.047l.21-.053z" fill="#574c40" stroke-width=".053"/><path d="M13.278 10.942l-.105.684h.105z" fill="#dcd9d6" stroke-width=".053"/><path d="M13.348 10.977l.018.035z" fill="#82807e" stroke-width=".053"/><path d="M8.757 10.994v.158c.469.149.9.811 1.472.421-.393-.116-.696-.028-1-.368.263.033.613.144.79-.105z" fill="#1d1108" stroke-width=".053"/><path d="M9.388 10.994v.053h.683z" fill="#968977" stroke-width=".053"/><path d="M10.071 10.994v.053h.158z" fill="#5d5245" stroke-width=".053"/><path d="M11.753 10.994v.158h.053z" fill="#827666" stroke-width=".053"/><path d="M4.761 11.047v.158h.053z" fill="#584d41" stroke-width=".053"/><path d="M5.059 11.064l.035.018z" fill="#7e7262" stroke-width=".053"/><path d="M5.988 11.082l.017.035z" fill="#a19380" stroke-width=".053"/><path d="M6.075 11.047v.053h.21z" fill="#978a77" stroke-width=".053"/><path d="M6.286 11.047v.053h.42z" fill="#d0c1aa" stroke-width=".053"/><path d="M6.706 11.047v.053h.158z" fill="#9a8d7a" stroke-width=".053"/><path d="M10.369 11.064l.035.018z" fill="#a49683" stroke-width=".053"/><path d="M13.348 11.082l.018.035z" fill="#48423e" stroke-width=".053"/><path d="M4.971 11.1v.263h.053z" fill="#726658" stroke-width=".053"/><path d="M5.024 11.1c.01.294.123.423.368.578l-.263-.578z" stroke-width=".053"/><path d="M5.129 11.1l.053.052z" fill="#928574" stroke-width=".053"/><path d="M7.127 11.1v.052h.158z" fill="#786c5d" stroke-width=".053"/><path d="M7.863 11.1v.105l.105-.105z" fill="#867a69" stroke-width=".053"/><path d="M11.403 11.135l.017.035z" fill="#8a7d6d" stroke-width=".053"/><path d="M13.243 11.135l.018.035z" fill="#9d958c" stroke-width=".053"/><path d="M7.495 11.152v.053h.158z" fill="#6c6153" stroke-width=".053"/><path d="M10.054 11.17l.035.017z" fill="#958876" stroke-width=".053"/><path d="M5.2 11.24l.017.035z" fill="#6a5f51" stroke-width=".053"/><path d="M9.23 11.31l.21-.053z" fill="#5b5043" stroke-width=".053"/><path d="M10.544 11.205l.053.052z" fill="#3d3126" stroke-width=".053"/><path d="M11.7 11.205l.053.052z" fill="#7f7364" stroke-width=".053"/><path d="M4.814 11.257l.052.053z" fill="#786d5e" stroke-width=".053"/><path d="M9.072 11.257v.158h.053z" fill="#837767" stroke-width=".053"/><path d="M9.545 11.257v.053h.21z" fill="#cbbca5" stroke-width=".053"/><path d="M9.913 11.468v.052c.299.02.448-.011.631-.263z" stroke-width=".053"/><path d="M11.333 11.257l.052.053z" fill="#64594c" stroke-width=".053"/><path d="M13.278 11.257v.158h.053z" fill="#959390" stroke-width=".053"/><path d="M6.286 11.31v.053h.263z" fill="#51463a" stroke-width=".053"/><path d="M6.549 11.31v.053h.21z" fill="#cabba4" stroke-width=".053"/><path d="M7.18 11.31v.053h.157z" fill="#8f8271" stroke-width=".053"/><path d="M7.074 11.363v.052l.579.053z" stroke-width=".053"/><path d="M7.53 11.328l.035.017z" fill="#baac96" stroke-width=".053"/><path d="M7.968 11.31l.053.053z" fill="#7c7161" stroke-width=".053"/><path d="M11.648 11.31l.053.053z" fill="#918573" stroke-width=".053"/><path d="M4.866 11.363l.053.052z" fill="#8a7e6d" stroke-width=".053"/><path d="M6.128 11.468c.348.047.878.335 1.104-.053-.32-.048-.834-.152-1.104.053z" fill="#1e130a" stroke-width=".053"/><path d="M6.811 11.363v.052h.158z" fill="#685c4e" stroke-width=".053"/><path d="M7.6 11.363l.053.052z" fill="#6f6456" stroke-width=".053"/><path d="M10.229 11.363l.052.052z" fill="#726758" stroke-width=".053"/><path d="M11.28 11.363l.105.157z" fill="#64594c" stroke-width=".053"/><path d="M13.594 11.363l-.21 1.052h.052c.116-.302.286-.737.158-1.052z" stroke-width=".053"/><path d="M7.828 11.45l.017.035z" fill="#998d7a" stroke-width=".053"/><path d="M8.038 11.45l.018.035z" fill="#5b5043" stroke-width=".053"/><path d="M10.106 11.433l.035.017z" fill="#5a4f43" stroke-width=".053"/><path d="M13.296 11.45l.017.035z" fill="#433c38" stroke-width=".053"/><path d="M4.919 11.468l.052.052z" fill="#8b7e6d" stroke-width=".053"/><path d="M6.233 11.468v.052h.263z" fill="#9c8f7c" stroke-width=".053"/><path d="M7.232 11.468v.052h.158z" fill="#716557" stroke-width=".053"/><path d="M9.177 11.468l.053.052z" fill="#796e5e" stroke-width=".053"/><path d="M9.545 11.468v.052h.368z" fill="#4a4035" stroke-width=".053"/><path d="M5.182 11.52l.052.053z" fill="#968977" stroke-width=".053"/><path d="M6.549 11.52l.052.053z" fill="#655b4d" stroke-width=".053"/><path d="M11.543 11.52l.053.053z" fill="#817565" stroke-width=".053"/><path d="M4.971 11.573l.053.053z" fill="#827565" stroke-width=".053"/><path d="M5.392 11.573v.21h.052z" fill="#685d50" stroke-width=".053"/><path d="M7.863 11.573v.42h.052z" fill="#857969" stroke-width=".053"/><path d="M8.073 11.573v.368h.053z" fill="#6d6153" stroke-width=".053"/><path d="M9.44 11.573v.053h.158z" fill="#a89b87" stroke-width=".053"/><path d="M6.706 11.626v.052h.21z" fill="#54493d" stroke-width=".053"/><path d="M10.124 11.626l.052.052z" fill="#958877" stroke-width=".053"/><path d="M11.438 11.626l.053.052z" fill="#7d7161" stroke-width=".053"/><path d="M13.173 11.626l-.526 1.893c.236-.153.174-.484.225-.736.078-.388.472-.749.3-1.157z" fill="#fff" stroke-width=".053"/><path d="M13.226 11.626v.157h.052z" fill="#8e8b88" stroke-width=".053"/><path d="M5.024 11.678l.052.053z" fill="#776c5d" stroke-width=".053"/><path d="M9.703 11.678v.053h.263z" fill="#958876" stroke-width=".053"/><path d="M10 11.696l.036.017z" fill="#5d5245" stroke-width=".053"/><path d="M11.385 11.678l.053.053z" fill="#7e7364" stroke-width=".053"/><path d="M11.07 11.73v.053h.263z" fill="#a39682" stroke-width=".053"/><path d="M11.017 11.783l.053.053z" fill="#7b6f5f" stroke-width=".053"/><path d="M5.129 11.836l.053.053z" fill="#675c4e" stroke-width=".053"/><path d="M10.965 11.889l.052.052z" fill="#716557" stroke-width=".053"/><path d="M2.132 11.941v.053l.263.052v-.052z" stroke-width=".053"/><path d="M8.09 11.976l.018.035z" fill="#b3a48f" stroke-width=".053"/><path d="M8.704 11.941v.053h.158z" fill="#594f42" stroke-width=".053"/><path d="M11.385 11.941l-.105.579h.053z" fill="#6d4329" stroke-width=".053"/><path d="M8.88 12.029l.017.035z" fill="#978977" stroke-width=".053"/><path d="M10.912 11.994l.053.052z" fill="#605649" stroke-width=".053"/><path d="M2.448 12.046v.053c.518.643 1.37 1.404 2.155 1.736l-.052.368c-.458-.02-.907-.113-1.367-.105-.144.003-.453.03-.359.257.126.304.717.38.937.637H3.29v.053h2.629v-.053c-.826-.121-1.655.092-2.419-.302-.149-.077-.563-.191-.598-.38-.035-.193.336-.16.44-.16.478.006.946.121 1.42.158v-.052l-.232-.502-1.556-1.162z" stroke-width=".053"/><path d="M5.602 12.046l.053.053z" fill="#766a5b" stroke-width=".053"/><path d="M8.546 12.046l.053.053z" fill="#776b5c" stroke-width=".053"/><path d="M8.038 12.134l.018.035z" fill="#948876" stroke-width=".053"/><path d="M8.494 12.1l.052.052z" fill="#837666" stroke-width=".053"/><path d="M8.757 12.1l.052.052z" fill="#857969" stroke-width=".053"/><path d="M13.12 12.1l.053.052z" fill="#959290" stroke-width=".053"/><path d="M5.655 12.152l.052.052z" fill="#6c6153" stroke-width=".053"/><path d="M8.704 12.152l.053.052z" fill="#8b7f6f" stroke-width=".053"/><path d="M10.807 12.152l.053.052z" fill="#6c6152" stroke-width=".053"/><path d="M8.073 12.204l.053.053z" fill="#978a78" stroke-width=".053"/><path d="M10.755 12.204l.052.053z" fill="#7d7162" stroke-width=".053"/><path d="M13.068 12.204l.052.053z" fill="#9c9997" stroke-width=".053"/><path d="M5.707 12.257l.053.052z" fill="#62574a" stroke-width=".053"/><path d="M8.126 12.257l.052.052z" fill="#918573" stroke-width=".053"/><path d="M10.702 12.257l.052.052z" fill="#887c6b" stroke-width=".053"/><path d="M8.178 12.31l.053.052z" fill="#8a7d6c" stroke-width=".053"/><path d="M10.65 12.31l.052.052z" fill="#938674" stroke-width=".053"/><path d="M13.015 12.31l.053.052z" fill="#acaaa8" stroke-width=".053"/><path d="M7.863 12.362l.052.053z" fill="#9b8e7b" stroke-width=".053"/><path d="M10.597 12.362l.052.053z" fill="#756a5b" stroke-width=".053"/><path d="M7.915 12.415l.053.052z" fill="#968a77" stroke-width=".053"/><path d="M7.968 12.467l.053.053z" fill="#918573" stroke-width=".053"/><path d="M12.963 12.467l.052.053z" fill="#706b69" stroke-width=".053"/><path d="M13.33 12.467l-.157.79.63-.053v.105l-.683.631.789-.21v-.053l-.578.105c.428-.419.642-.69-.105-.63z" stroke-width=".053"/><path d="M10.229 12.573l.052.052z" fill="#8d806f" stroke-width=".053"/><path d="M12.91 12.573l.053.052z" fill="#837f7d" stroke-width=".053"/><path d="M7.705 12.625v.053h.316z" fill="#afa18c" stroke-width=".053"/><path d="M8.126 12.625v.053h.21z" fill="#a99c88" stroke-width=".053"/><path d="M8.967 12.625l.053.053z" fill="#6c6153" stroke-width=".053"/><path d="M7.232 12.836v.105l.63-.064 1.315-.094-.052-.158z" fill="#170900" stroke-width=".053"/><path d="M10.124 12.625l.052.053z" fill="#615648" stroke-width=".053"/><path d="M12.595 12.625v.474h.052z" fill="#402900" stroke-width=".053"/><path d="M12.857 12.625v.158h.053z" fill="#aaa7a5" stroke-width=".053"/><path d="M5.655 12.678v.315h.052l.053-.315z" fill="#6a432b" stroke-width=".053"/><path d="M6.128 12.678l.052.052z" fill="#8c806f" stroke-width=".053"/><path d="M7.653 12.678l.052.052z" fill="#807364" stroke-width=".053"/><path d="M8.441 12.678v.052h.263z" fill="#aa9c88" stroke-width=".053"/><path d="M8.74 12.695l.034.018z" fill="#685d4e" stroke-width=".053"/><path d="M9.125 12.678l.052.052z" fill="#64594c" stroke-width=".053"/><path d="M12.647 12.678v.526h.053z" fill="#dedcd9" stroke-width=".053"/><path d="M7.337 12.73v.053H7.6z" fill="#b6a892" stroke-width=".053"/><path d="M8.389 12.73l.052.053z" fill="#796d5e" stroke-width=".053"/><path d="M10.211 12.748l.035.017z" fill="#746859" stroke-width=".053"/><path d="M6.286 12.783l.052.053z" fill="#62574a" stroke-width=".053"/><path d="M7.285 12.783l.052.053z" fill="#776b5d" stroke-width=".053"/><path d="M8.266 12.8l.035.018z" fill="#baac96" stroke-width=".053"/><path d="M8.81 12.783v.053h.157z" fill="#938675" stroke-width=".053"/><path d="M9.125 12.783l.052.053z" fill="#857969" stroke-width=".053"/><path d="M10.386 12.783v.158h.053z" fill="#837868" stroke-width=".053"/><path d="M12.857 12.783v.158h.053z" fill="#74706d" stroke-width=".053"/><path d="M6.39 12.836l.053.052z" fill="#7b6f60" stroke-width=".053"/><path d="M7.197 12.87l.017.036z" fill="#928573" stroke-width=".053"/><path d="M7.758 12.836v.052h.21z" fill="#6b6051" stroke-width=".053"/><path d="M9.002 12.853l.035.018z" fill="#aea08c" stroke-width=".053"/><path d="M8.02 12.888l.053.053z" fill="#807465" stroke-width=".053"/><path d="M8.529 12.906l.035.017z" fill="#bbac96" stroke-width=".053"/><path d="M7.267 12.958l.035.018z" fill="#786c5d" stroke-width=".053"/><path d="M7.53 12.958l.035.018z" fill="#a29582" stroke-width=".053"/><path d="M10.334 12.993l.052.053z" fill="#7c7061" stroke-width=".053"/><path d="M8.389 13.046v.053h.21z" fill="#a69885" stroke-width=".053"/><path d="M8.056 13.116l.035.018z" fill="#bfb09b" stroke-width=".053"/><path d="M8.126 13.099v.052h.157z" fill="#807363" stroke-width=".053"/><path d="M8.073 13.151v.053l.894.158c-.249-.306-.538-.256-.894-.21z" stroke-width=".053"/><path d="M8.687 13.116l.035.018z" fill="#b6a793" stroke-width=".053"/><path d="M10.281 13.099l.053.052z" fill="#817565" stroke-width=".053"/><path d="M12.805 13.099v.368h.052z" fill="#c5c2c0" stroke-width=".053"/><path d="M7.6 13.888l.63-.632c-.48-.28-.63.264-.63.632z" fill="#221810" stroke-width=".053"/><path d="M7.81 13.204l.053.052z" fill="#7b6f60" stroke-width=".053"/><path d="M8.862 13.204l.052.052z" fill="#918573" stroke-width=".053"/><path d="M10.229 13.204l.052.052z" fill="#857a69" stroke-width=".053"/><path d="M8.266 13.274l.035.017z" fill="#b2a490" stroke-width=".053"/><path d="M8.599 13.256v.053h.158z" fill="#9c8f7c" stroke-width=".053"/><path d="M12.595 13.256v.263h.052z" fill="#80766b" stroke-width=".053"/><path d="M7.653 13.309l.052.053z" fill="#695e50" stroke-width=".053"/><path d="M8.108 13.326l.035.018z" fill="#9f927f" stroke-width=".053"/><path d="M8.81 13.309l.052.053z" fill="#918472" stroke-width=".053"/><path d="M10.176 13.309l.053.053z" fill="#8b7f6e" stroke-width=".053"/><path d="M6.917 13.362l.052.052z" fill="#827666" stroke-width=".053"/><path d="M8.003 13.38l.035.017z" fill="#b8ab95" stroke-width=".053"/><path d="M6.97 13.414l.052.053z" fill="#968977" stroke-width=".053"/><path d="M10.124 13.414l.052.053z" fill="#685d4f" stroke-width=".053"/><path d="M12.752 13.467l.053.052z" fill="#6c6864" stroke-width=".053"/><path d="M7.775 13.607l.018.035z" fill="#b7a994" stroke-width=".053"/><path d="M13.068 13.572l-2.471 1.157.052.316c.552-.23 1.075-.524 1.63-.747.36-.144.744-.28.789-.726z" fill="#fff" stroke-width=".053"/><path d="M6.864 13.625l.053.052z" fill="#8c8784" stroke-width=".053"/><path d="M7.127 13.625l.052.052z" fill="#8a7f6d" stroke-width=".053"/><path d="M7.547 13.625v.157H7.6z" fill="#7a6f5f" stroke-width=".053"/><path d="M9.966 13.625l.052.052z" fill="#7c7161" stroke-width=".053"/><path d="M6.864 13.677l-.21 1.736 1.261-.631v-.053c-.298.003-.613.128-.84-.105l.735-.105v-.053z" fill="#fff" stroke-width=".053"/><path d="M12.91 13.677l-1.051.474v.052l.946-.368-.368.263v.053c.242-.06.5-.188.473-.474z" stroke-width=".053"/><path d="M6.829 13.765l.017.035z" fill="#c7c5c4" stroke-width=".053"/><path d="M6.97 13.73l.052.052z" fill="#817d7a" stroke-width=".053"/><path d="M7.723 13.765l.017.035z" fill="#837767" stroke-width=".053"/><path d="M7.232 13.782l.053.053z" fill="#8b7f6e" stroke-width=".053"/><path d="M10.124 13.782l.052.053z" fill="#7e7a78" stroke-width=".053"/><path d="M10.176 13.782l-.736.632v.052c.321.055.688.13.789.474l-1.157-.316c.133.177.99.564 1.193.451.344-.19.1-1.07-.089-1.293m2.629 0l.052.053z" fill="#fff" stroke-width=".053"/><path d="M6.776 13.87l.018.035z" fill="#8b8785" stroke-width=".053"/><path d="M7.074 13.888l.053.052z" fill="#9e9b98" stroke-width=".053"/><path d="M7.232 13.888c-.07.723 1.16.544 1.577.526v-.053c-.7.006-1.007-.012-1.577-.473z" stroke-width=".053"/><path d="M7.653 13.888l.052.052z" fill="#8f8271" stroke-width=".053"/><path d="M10.018 13.94l.053.053z" fill="#797471" stroke-width=".053"/><path d="M10.299 13.975l.017.035z" fill="#bbb9b7" stroke-width=".053"/><path d="M13.278 14.256v.052l.578-.052v-.053h-.368v-.052l.421-.158z" stroke-width=".053"/><path d="M7.337 13.993l.053.052z" fill="#7a6f5f" stroke-width=".053"/><path d="M9.545 13.993l.053.052z" fill="#796d5e" stroke-width=".053"/><path d="M6.724 14.08l.017.036z" fill="#918f8d" stroke-width=".053"/><path d="M7.18 14.045l.052.053z" fill="#938f8d" stroke-width=".053"/><path d="M7.39 14.045l.052.053z" fill="#74695a" stroke-width=".053"/><path d="M9.86 14.098l.053.053z" fill="#6e6a66" stroke-width=".053"/><path d="M7.547 14.15l.053.053z" fill="#8b7f6e" stroke-width=".053"/><path d="M9.23 14.15l.052.053z" fill="#6d6153" stroke-width=".053"/><path d="M9.808 14.15l.053.053z" fill="#8c8885" stroke-width=".053"/><path d="M10.755 14.887c.184-.325.716-.493 1.051-.631v-.053l-1.157.526.053.21 1.682-.736c-.43-.089-1.257.467-1.63.684z" stroke-width=".053"/><path d="M4.55 14.203l.053.053z" fill="#fff" stroke-width=".053"/><path d="M9.756 14.203l.052.053z" fill="#a7a5a2" stroke-width=".053"/><path d="M10.404 14.238l.018.035z" fill="#bab8b6" stroke-width=".053"/><path d="M6.759 14.256v.158h.052z" fill="#5b5754" stroke-width=".053"/><path d="M7.442 14.256l.053.052z" fill="#77736f" stroke-width=".053"/><path d="M8.81 14.256v.052h.157z" fill="#ac9f8b" stroke-width=".053"/><path d="M8.652 14.308v.053h.157z" fill="#5b5044" stroke-width=".053"/><path d="M10.457 14.344l.017.035z" fill="#878381" stroke-width=".053"/><path d="M7.6 14.361l.053.053z" fill="#86827f" stroke-width=".053"/><path d="M7.915 14.361v.053h.526z" fill="#776b5c" stroke-width=".053"/><path d="M9.335 14.414l.315.105v-.053z" fill="#afacaa" stroke-width=".053"/><path d="M13.909 14.414l-3.89 1.315v.052l1.682-.656 2.26-.659-.052-.052m-10.2.052l.316.263-.105-.158 1.42.316v-.052z" stroke-width=".053"/><path d="M10.386 14.466l.053.053z" fill="#928f8d" stroke-width=".053"/><path d="M7.425 14.536l.035.018z" fill="#c7c5c3" stroke-width=".053"/><path d="M7.53 14.536l.035.018z" fill="#716d6a" stroke-width=".053"/><path d="M9.685 14.536l.036.018z" fill="#85817d" stroke-width=".053"/><path d="M7.232 14.571v.053h.158z" fill="#888480" stroke-width=".053"/><path d="M7.127 14.624v.105l.999-.052z" stroke-width=".053"/><path d="M8.389 14.571v.106h.473v-.106z" fill="#e7e7e7" stroke-width=".053"/><path d="M8.88 14.607l.017.035z" fill="#504b47" stroke-width=".053"/><path d="M9.86 14.571v.053h.158z" fill="#807d7b" stroke-width=".053"/><path d="M10.351 14.607l.018.035z" fill="#8e8a87" stroke-width=".053"/><path d="M7.092 14.66l.017.034z" fill="#b2b0ae" stroke-width=".053"/><path d="M9.037 14.66l.018.034z" fill="#6e6965" stroke-width=".053"/><path d="M9.177 14.624v.053h.158z" fill="#706c69" stroke-width=".053"/><path d="M9.86 14.624v.053l.264.052-.053.106z" stroke-width=".053"/><path d="M6.496 14.677v.158h.053z" fill="#736f6b" stroke-width=".053"/><path d="M7.547 14.677v.052h.21z" fill="#7b7773" stroke-width=".053"/><path d="M7.758 14.677v.052l.315.053z" fill="#afacaa" stroke-width=".053"/><path d="M8.09 14.712l.018.035z" fill="#504a45" stroke-width=".053"/><path d="M9.37 14.694l.035.018z" fill="#9e9b99" stroke-width=".053"/><path d="M7.127 14.73v.052h.42z" fill="#a5a2a0" stroke-width=".053"/><path d="M9.16 14.747l.035.017z" fill="#a7a4a2" stroke-width=".053"/><path d="M9.58 14.747l.035.017z" fill="#9d9a98" stroke-width=".053"/><path d="M10.176 14.73l-.052.21z" fill="#8e8a88" stroke-width=".053"/><path d="M7.81 14.782l.053.053z" fill="#a7a4a2" stroke-width=".053"/><path d="M9.317 14.8l.035.017z" fill="#a19e9c" stroke-width=".053"/><path d="M9.756 14.782v.053h.157z" fill="#9b9895" stroke-width=".053"/><path d="M4.13 14.835l.053.052z" stroke-width=".053"/><path d="M7.705 14.835l.053.052z" fill="#9a9795" stroke-width=".053"/><path d="M9.475 14.852l.035.018z" fill="#a09d9a" stroke-width=".053"/><path d="M10.386 14.835v.21h.053z" fill="#676360" stroke-width=".053"/><path d="M7.6 14.887l.053.053z" fill="#8e8a88" stroke-width=".053"/><path d="M7.6 15.203v.052l1.104.414.736-.519c-.574-.434-1.243-.178-1.84.053z" fill="#fff" stroke-width=".053"/><path d="M9.633 14.905l.035.017z" fill="#a09d9b" stroke-width=".053"/><path d="M6.601 14.94v.42h.053z" fill="#bbb8b6" stroke-width=".053"/><path d="M7.495 14.94l.052.052z" fill="#827e7b" stroke-width=".053"/><path d="M8.81 14.94v.052l.21.053v-.053z" stroke-width=".053"/><path d="M9.79 14.957l.036.018z" fill="#9d9a98" stroke-width=".053"/><path d="M7.39 14.992l.052.053z" fill="#746f6d" stroke-width=".053"/><path d="M7.81 15.203c.59.446 1.04.495 1.525-.105l-.263-.053v.053c.072.74-.886.233-1.157.105l.474-.158-.579.158m.631-.21v.052h.316l-.316-.053m-5.415.053v.053h.21z" stroke-width=".053"/><path d="M7.285 15.045l.052.053z" fill="#65605d" stroke-width=".053"/><path d="M10.281 15.045l.053.053z" fill="#9f9c9a" stroke-width=".053"/><path d="M7.18 15.098l.052.052z" fill="#7a7573" stroke-width=".053"/><path d="M10.071 15.098l.053.052z" fill="#67625e" stroke-width=".053"/><path d="M10.229 15.098l.052.052z" fill="#6a6662" stroke-width=".053"/><path d="M2.868 15.15c.155.306.431.263.736.263.634 0 1.26.053 1.893.053v-.053c-.687 0-2.094.178-2.629-.263z" stroke-width=".053"/><path d="M7.022 15.203l.052.052z" fill="#827f7c" stroke-width=".053"/><path d="M8.914 15.992l1.157-.579c-.436-.347-.913.233-1.157.579z" fill="#fff" stroke-width=".053"/><path d="M6.864 15.308l.053.053z" fill="#a4a19f" stroke-width=".053"/><path d="M9.02 15.94l.946-.527c-.36-.21-.736.264-.946.526z" stroke-width=".053"/><path d="M7.232 15.36v.053l.263.053v-.053l-.263-.052m2.156.315l.42-.315z" fill="#fff" stroke-width=".053"/><path d="M6.794 15.43l.035.018z" fill="#635e5b" stroke-width=".053"/><path d="M5.55 15.466v.052l.788.106-.788-.158m-.158.158v.052l.21.053v-.053l-.21-.052m.999 0v.052h.21l-.21-.052m-2.26.052l.052.053-.053-.053m.999 0v.053h.158l-.158-.053m1.525 0v.053h.21l-.21-.053m-2.366.053l.052.052-.052-.052m.718.017l.035.018-.035-.018m1.963-.017v.052l.368.158h.316v-.052l-.684-.158m3.558.017l.035.018-.035-.018m-4.154.053l.035.018-.035-.018m1.367.105l.035.018-.035-.018m1.227.035l.053.053z" stroke-width=".053"/></svg>