<svg xmlns="http://www.w3.org/2000/svg" xmlns:xlink="http://www.w3.org/1999/xlink" width="16" height="16" viewBox="0 0 16 16"><style>.st1{fill:#fff}.st2{fill:#2e3340}</style><g transform="matrix(.23376 0 0 .24531 -1.033 -1.628)"><defs><path id="a" d="M7.5 7.5h65v65h-65z"/></defs><clipPath id="b"><use xlink:href="#a" width="100%" height="100%" overflow="visible"/></clipPath><g clip-path="url(#b)"><path class="st1" d="M43.5 40.5v-1c1.3-3.8 5.4-6.9 13.1-7 1.6 0 .3.7-1.1 1-4 1-7.5 3.7-7.5 10 0 3.5 1.6 6.2 3.5 7.5 1 1 1.5 1.5 0 1.5-3.9-.1-8-2-8-7h2v-3.9z" fill="#fff"/><path class="st1" d="M30.5 40.5c-.6-.1-1.9-.8-3-1 1-13.8 22.5-15.5 27-14 1.3.4-1.8.9-3 1C45 27.3 36 31.1 36 43c0 9.1 4.1 12.6 7.5 13.4 2 1.1 0 2.1-2 2.1-6.2 0-13-1.7-14-13h3c0-1.7-.1-3.3 0-5z" fill="#fff"/><path class="st1" d="M9.5 30.5C13 18.6 31.5 16 42.5 16c7.9-.1 14 .7 21 2.5 2 .5 1 1-1 1-9.1-.4-23.5.5-32 6.5-11.1 7.7-12.2 26.7-2.5 33.5 5 3.5 5.7 2.9 8.8 2.9.1 0 .1 0 .2.1.1 0 .1.1.1.2v.2c0 .1-.1.1-.1.1-3.8 1.4-4.8.5-8.9.5-10.1 0-19.6-3-19.6-21l4 1v-8c-.9-.1-3.9-1-3.9-1s.8-3.5.9-4z" fill="#fff"/><path class="st2" d="M64.1 32.2c-1.9-.2-3.8-.4-5.6-.3-5.9 0-16 1.9-16 9.6l1.9.4v2.8l-1.9-.1c.5 7 4.7 8.9 8.6 9 1.9 0 3.6-.2 5.4-1 .1 0 .1-.1.1-.1v-.2c0-.1-.1-.1-.1-.2-.1 0-.1-.1-.2-.1-3.6.5-7.3-2.4-7.3-8.5 0-7.8 6.3-10.8 15.2-10.8.2.1.3-.4-.1-.5zM44.5 46h3c.2 2.1 2 5 4 6-3.5.1-6.7-2.5-7-6zm3.3-6.5c0 .3-.2.7-.3 1.2h-1.2c-.6 0-1.3-.1-1.9-.2v-.2c.8-4.2 4.8-5.9 8.7-6.6-1.3.5-2.4 1.3-3.3 2.3-.9.9-1.6 2.1-2 3.5z" fill="#2e3340"/><path class="st2" d="M68.2 26C60.3 23.8 27 21 27 40c1.1.2 1.9.4 2.5.5-.1 1.4 0 3 0 4.5l-3-.5c0 11 7.8 14.5 14 14.5 1 0 2-.1 3.1-.2 2.5-.3 5-1.1 7.3-2.3l.1-.1v-.2c0-.1-.1-.1-.1-.2 0 0-.1-.1-.2-.1-5.2 1.1-12.4-.4-12.4-13.1 0-17 23.2-15.9 30-16.1.1 0 .1-.1.1-.1v-.2c0-.1 0-.1-.1-.2 0-.1 0-.2-.1-.2zM32.3 54.7c-2.3-2-3.7-4.9-4-8 2 .3 4.5.5 6.6.6.1 2.1.8 4.2 1.9 6 1.1 1.8 2.7 3.3 4.5 4.2-3.4 0-6.4-.5-9-2.8zM35.7 37c-.2.6-.4 1.7-.6 2.6l-3.1-.4-3.2-.4c0-9.9 15.7-13.3 22.7-12.8-8.1 2-14.5 5.5-15.8 11z" fill="#2e3340"/><path class="st2" d="M72.3 20.4c-9.6-3.4-20.6-5-30.8-4.9-14.8 0-33.5 4.5-34 20l4 1c-.5 2-.5 6-.5 6s-2.3-.7-3.5-1c0 18.3 10.5 23 20.6 23 4.1 0 8.1-.7 11.9-2.1.1 0 .1-.1.1-.1v-.2c0-.1-.1-.1-.1-.2s-.1-.1-.2-.1c-3.1 0-5.6 1-10.6-2.6-9.7-6.9-8.5-25 2.6-32.9 11.4-8.3 36.1-5.7 40.3-5.5h.2s.1 0 .1-.1v-.3c0 .1 0 .1-.1 0 .1 0 0 0 0 0zM28.2 63c-12 0-18.1-6.7-18.7-19.4 3.3.8 6.3 1.7 9.7 2.1-.2 5 1.5 9.9 4.9 13.7 1.7 1.7 3.8 2.9 6.1 3.6zm27.1-44.6c-14.6 0-31.5 1.8-34.8 18.1 0 0-9-1.5-11-2 2.5-20.5 37-19 51-16.1z" fill="#2e3340"/></g></g></svg>