<?xml version="1.0" encoding="UTF-8" standalone="no"?>
<!-- Generator: Adobe Illustrator 24.0.0, SVG Export Plug-In . SVG Version: 6.00 Build 0)  -->

<svg
   xmlns:dc="http://purl.org/dc/elements/1.1/"
   xmlns:cc="http://creativecommons.org/ns#"
   xmlns:rdf="http://www.w3.org/1999/02/22-rdf-syntax-ns#"
   xmlns:svg="http://www.w3.org/2000/svg"
   xmlns="http://www.w3.org/2000/svg"
   xmlns:xlink="http://www.w3.org/1999/xlink"
   xmlns:sodipodi="http://sodipodi.sourceforge.net/DTD/sodipodi-0.dtd"
   xmlns:inkscape="http://www.inkscape.org/namespaces/inkscape"
   version="1.1"
   id="crowdin-symbol"
   width="16"
   height="16"
   viewBox="0 0 16 16"
   style="enable-background:new 0 0 80 80;"
   xml:space="preserve"
   sodipodi:docname="crowdin.svg"
   inkscape:version="0.92.5 (2060ec1f9f, 2020-04-08)"><metadata
   id="metadata31"><rdf:RDF><cc:Work
       rdf:about=""><dc:format>image/svg+xml</dc:format><dc:type
         rdf:resource="http://purl.org/dc/dcmitype/StillImage" /></cc:Work></rdf:RDF></metadata><defs
   id="defs29" /><sodipodi:namedview
   pagecolor="#ffffff"
   bordercolor="#666666"
   borderopacity="1"
   objecttolerance="10"
   gridtolerance="10"
   guidetolerance="10"
   inkscape:pageopacity="0"
   inkscape:pageshadow="2"
   inkscape:window-width="1920"
   inkscape:window-height="1001"
   id="namedview27"
   showgrid="false"
   inkscape:zoom="29.5"
   inkscape:cx="9.0982131"
   inkscape:cy="10.083866"
   inkscape:window-x="-9"
   inkscape:window-y="-9"
   inkscape:window-maximized="1"
   inkscape:current-layer="crowdin-symbol" />
<style
   type="text/css"
   id="style2">
	.st0{clip-path:url(#SVGID_2_);}
	.st1{fill:#FFFFFF;}
	.st2{fill:#2E3340;}
</style>
<g
   id="g24"
   transform="matrix(0.2337625,0,0,0.24531177,-1.0328798,-1.627694)">
	<defs
   id="defs5">
		<rect
   id="SVGID_1_"
   x="7.5"
   y="7.5"
   width="65"
   height="65" />
	</defs>
	<clipPath
   id="SVGID_2_">
		<use
   xlink:href="#SVGID_1_"
   style="overflow:visible"
   id="use7"
   x="0"
   y="0"
   width="100%"
   height="100%" />
	</clipPath>
	<g
   class="st0"
   clip-path="url(#SVGID_2_)"
   id="g22">
		<path
   class="st1"
   d="m 43.5,40.5 c 0,-0.2 0,-0.7 0,-1 1.3,-3.8 5.4,-6.9 13.1,-7 1.6,0 0.3,0.7 -1.1,1 -4,1 -7.5,3.7 -7.5,10 0,3.5 1.6,6.2 3.5,7.5 v 0 c 1,1 1.5,1.5 0,1.5 -3.9,-0.1 -8,-2 -8,-7 h 2 v -2.2 c 0,-0.3 0,-1.3 0,-1.7 z"
   id="path10"
   inkscape:connector-curvature="0"
   style="fill:#ffffff" />
		<path
   class="st1"
   d="m 30.5,40.5 c -0.6,-0.1 -1.9,-0.8 -3,-1 1,-13.8 22.5,-15.5 27,-14 1.3,0.4 -1.8,0.9 -3,1 C 45,27.3 36,31.1 36,43 c 0,9.1 4.1,12.6 7.5,13.4 2,1.1 0,2.1 -2,2.1 -6.2,0 -13,-1.7 -14,-13 h 3 c 0,-1.7 -0.1,-3.3 0,-5 z"
   id="path12"
   inkscape:connector-curvature="0"
   style="fill:#ffffff" />
		<path
   class="st1"
   d="M 9.5,30.5 C 13,18.6 31.5,16 42.5,16 c 7.9,-0.1 14,0.7 21,2.5 2,0.5 1,1 -1,1 C 53.4,19.1 39,20 30.5,26 19.4,33.7 18.3,52.7 28,59.5 c 5,3.5 5.7,2.9 8.8,2.9 0.1,0 0.1,0 0.2,0.1 0.1,0 0.1,0.1 0.1,0.2 0,0.1 0,0.1 0,0.2 0,0.1 -0.1,0.1 -0.1,0.1 -3.8,1.4 -4.8,0.5 -8.9,0.5 -10.1,0 -19.6,-3 -19.6,-21 1.2,0.3 2.8,0.7 4,1 0,-2.6 0,-5.4 0,-8 -0.9,-0.1 -3.9,-1 -3.9,-1 0,0 0.8,-3.5 0.9,-4 z"
   id="path14"
   inkscape:connector-curvature="0"
   style="fill:#ffffff" />
		<path
   class="st2"
   d="m 64.1,32.2 c -1.9,-0.2 -3.8,-0.4 -5.6,-0.3 -5.9,0 -16,1.9 -16,9.6 l 1.9,0.4 c 0,0.3 0,0.7 0,1 0,0.6 0,1.2 0,1.8 l -1.9,-0.1 c 0.5,7 4.7,8.9 8.6,9 1.9,0 3.6,-0.2 5.4,-1 0.1,0 0.1,-0.1 0.1,-0.1 0,-0.1 0,-0.1 0,-0.2 0,-0.1 -0.1,-0.1 -0.1,-0.2 -0.1,0 -0.1,-0.1 -0.2,-0.1 -3.6,0.5 -7.3,-2.4 -7.3,-8.5 0,-7.8 6.3,-10.8 15.2,-10.8 0.2,0.1 0.3,-0.4 -0.1,-0.5 z M 44.5,46 c 1,0 1.8,0 3,0 0.2,2.1 2,5 4,6 -3.5,0.1 -6.7,-2.5 -7,-6 z m 3.3,-6.5 c 0,0.3 -0.2,0.7 -0.3,1.2 h -1.2 c -0.6,0 -1.3,-0.1 -1.9,-0.2 0,-0.1 0,-0.1 0,-0.2 0.8,-4.2 4.8,-5.9 8.7,-6.6 -1.3,0.5 -2.4,1.3 -3.3,2.3 -0.9,0.9 -1.6,2.1 -2,3.5 z"
   id="path16"
   inkscape:connector-curvature="0"
   style="fill:#2e3340" />
		<path
   class="st2"
   d="M 68.2,26 C 60.3,23.8 27,21 27,40 c 1.1,0.2 1.9,0.4 2.5,0.5 -0.1,1.4 0,3 0,4.5 l -3,-0.5 c 0,11 7.8,14.5 14,14.5 1,0 2,-0.1 3.1,-0.2 2.5,-0.3 5,-1.1 7.3,-2.3 0,0 0.1,-0.1 0.1,-0.1 0,-0.1 0,-0.1 0,-0.2 0,-0.1 -0.1,-0.1 -0.1,-0.2 0,0 -0.1,-0.1 -0.2,-0.1 -5.2,1.1 -12.4,-0.4 -12.4,-13.1 0,-17 23.2,-15.9 30,-16.1 0.1,0 0.1,-0.1 0.1,-0.1 0,-0.1 0,-0.1 0,-0.2 0,-0.1 0,-0.1 -0.1,-0.2 0,-0.1 0,-0.2 -0.1,-0.2 z M 32.3,54.7 c -2.3,-2 -3.7,-4.9 -4,-8 2,0.3 4.5,0.5 6.6,0.6 0.1,2.1 0.8,4.2 1.9,6 1.1,1.8 2.7,3.3 4.5,4.2 -3.4,0 -6.4,-0.5 -9,-2.8 z M 35.7,37 c -0.2,0.6 -0.4,1.7 -0.6,2.6 L 32,39.2 28.8,38.8 C 28.8,28.9 44.5,25.5 51.5,26 43.4,28 37,31.5 35.7,37 Z"
   id="path18"
   inkscape:connector-curvature="0"
   style="fill:#2e3340" />
		<path
   class="st2"
   d="M 72.3,20.4 C 62.7,17 51.7,15.4 41.5,15.5 26.7,15.5 8,20 7.5,35.5 l 4,1 c -0.5,2 -0.5,6 -0.5,6 0,0 -2.3,-0.7 -3.5,-1 0,18.3 10.5,23 20.6,23 4.1,0 8.1,-0.7 11.9,-2.1 0.1,0 0.1,-0.1 0.1,-0.1 0,-0.1 0,-0.1 0,-0.2 C 40.1,62 40,62 40,61.9 c 0,-0.1 -0.1,-0.1 -0.2,-0.1 -3.1,0 -5.6,1 -10.6,-2.6 -9.7,-6.9 -8.5,-25 2.6,-32.9 11.4,-8.3 36.1,-5.7 40.3,-5.5 0,0 0.1,0 0.1,0 0,0 0.1,0 0.1,0 0,0 0.1,0 0.1,-0.1 0,0 0,-0.1 0,-0.1 0,0 0,-0.1 0,-0.1 0,0 0,-0.1 0,-0.1 0,0.1 0,0.1 -0.1,0 0.1,0 0,0 0,0 z M 28.2,63 c -12,0 -18.1,-6.7 -18.7,-19.4 3.3,0.8 6.3,1.7 9.7,2.1 -0.2,5 1.5,9.9 4.9,13.7 1.7,1.7 3.8,2.9 6.1,3.6 z M 55.3,18.4 c -14.6,0 -31.5,1.8 -34.8,18.1 0,0 -9,-1.5 -11,-2 2.5,-20.5 37,-19 51,-16.1 z"
   id="path20"
   inkscape:connector-curvature="0"
   style="fill:#2e3340" />
	</g>
</g>
</svg>