<svg xmlns="http://www.w3.org/2000/svg" width="16" height="16" fill="#7A8387" viewBox="-48 -48 608 608"><path d="M141.35 65.527a55.757 55.757 0 0022.081 44.543c-56.821 8.813-120.74 52.35-135.57 90.25-20.422-11.187-45.5.764-45.5 20.42-.534 18.646 27.792 35.254 50.392 16.894 5.501 7.083 13.502 13.147 23.177 18.046-.239 8.17-.341 31.735 3.007 36.126 4.382 5.749 52.038 5.294 54.017.092 1.099-2.889 1.78-15.365 2.198-22.116 15.444.633 31.287-.748 46.138-4.402-2.614 5.904-4.724 15.857-2.955 27.361C108.455 326.363 80.7 398.04 131.12 460.42c-31.327 11.196-61.739 27.235-60.588 47.074 44.942-.947 207.929 0 207.929 0 9.968 0 19.436-1.315 28.348-3.78 407.97-53.393-4.01-372.418 222.837-469.558-263.4 47.897 98.506 381.32-173.516 430.425 67.727-59.74 44.493-242.21-66.656-324.198 28.73-5.076 50.597-30.434 50.597-60.915.855-44.536-52.775-85.368-100.001-47.798-30.28-40.54-96.765-23.093-98.72 33.858z" stroke-width="1.075"/></svg>