<?xml version="1.0" encoding="UTF-8" standalone="no"?>
<!-- Created with Inkscape (http://www.inkscape.org/) -->

<svg
   xmlns:dc="http://purl.org/dc/elements/1.1/"
   xmlns:cc="http://creativecommons.org/ns#"
   xmlns:rdf="http://www.w3.org/1999/02/22-rdf-syntax-ns#"
   xmlns:svg="http://www.w3.org/2000/svg"
   xmlns="http://www.w3.org/2000/svg"
   xmlns:sodipodi="http://sodipodi.sourceforge.net/DTD/sodipodi-0.dtd"
   xmlns:inkscape="http://www.inkscape.org/namespaces/inkscape"
   width="16"
   height="16"
   viewBox="0 0 16 16"
   version="1.1"
   id="svg8"
   inkscape:version="0.92.4 (5da689c313, 2019-01-14)"
   sodipodi:docname="folder_mvnw.svg">
  <defs
     id="defs2" />
  <sodipodi:namedview
     id="base"
     pagecolor="#ffffff"
     bordercolor="#666666"
     borderopacity="1.0"
     inkscape:pageopacity="0.0"
     inkscape:pageshadow="2"
     inkscape:zoom="9.95"
     inkscape:cx="-15.182322"
     inkscape:cy="14.482824"
     inkscape:document-units="mm"
     inkscape:current-layer="layer1"
     showgrid="false"
     inkscape:window-width="1920"
     inkscape:window-height="1001"
     inkscape:window-x="-9"
     inkscape:window-y="-9"
     inkscape:window-maximized="1" />
  <metadata
     id="metadata5">
    <rdf:RDF>
      <cc:Work
         rdf:about="">
        <dc:format>image/svg+xml</dc:format>
        <dc:type
           rdf:resource="http://purl.org/dc/dcmitype/StillImage" />
        <dc:title></dc:title>
      </cc:Work>
    </rdf:RDF>
  </metadata>
  <g
     inkscape:label="Layer 1"
     inkscape:groupmode="layer"
     id="layer1">
    <text
       xml:space="preserve"
       style="font-style:normal;font-weight:normal;font-size:38.08229828px;line-height:1.25;font-family:sans-serif;letter-spacing:0px;word-spacing:0px;fill:#000000;fill-opacity:1;stroke:none;stroke-width:0.44627687"
       x="-13.094031"
       y="-3.6797841"
       id="text12"
       transform="scale(0.95511593,1.0469933)"><tspan
         sodipodi:role="line"
         id="tspan10"
         x="-13.094031"
         y="31.06385"
         style="font-size:38.08229828px;stroke-width:0.44627687" /></text>
    <path
       style="fill:#87939a;fill-opacity:1;stroke-width:0.11531623"
       d="M 0.64898989,13.159944 C 1.0124396,11.773049 1.6939657,8.7164567 2.5788141,4.504831 2.6276643,4.2723175 2.7036512,4.2554737 3.7037238,4.2554737 c 0.5898862,0 1.0719185,0.032577 1.0711826,0.072394 -7.358e-4,0.039817 -0.072229,0.3511112 -0.1588729,0.6917655 -0.086644,0.3406543 -0.1311961,0.6193716 -0.099003,0.6193716 0.032192,0 0.3252204,-0.2551101 0.6511735,-0.5669112 C 5.5463227,4.7103911 5.9749382,4.4328124 6.3522992,4.3052525 7.0649239,4.064363 8.2527303,4.0451058 8.7583973,4.2662445 9.1828411,4.451862 9.7357874,5.0889949 9.7357874,5.3924428 c 0,0.373969 0.1253858,0.35054 0.5102606,-0.095345 0.20867,-0.2417494 0.64841,-0.5929535 0.977202,-0.7804532 0.49434,-0.2819095 0.765482,-0.3493486 1.566704,-0.3896766 1.176044,-0.059194 1.874664,0.1983028 2.240097,0.8256521 0.342124,0.5873316 0.289189,1.2943759 -0.280381,3.7451248 -0.280085,1.205144 -0.627777,2.7486041 -0.772649,3.4299141 l -0.263407,1.238744 -1.152415,0.03373 c -1.062421,0.03108 -1.147542,0.01727 -1.090017,-0.176964 0.34189,-1.154371 1.307321,-5.6473057 1.307599,-6.0853317 4.87e-4,-0.7637377 -0.345386,-1.1448989 -1.038905,-1.1448989 -0.937457,0 -1.7510355,0.7531144 -2.2146589,2.0500709 C 9.3989961,8.3961005 9.0716705,9.7383129 8.7978255,11.0257 l -0.4978994,2.340707 -1.1507766,0.03373 C 6.0882827,13.431212 6.0032535,13.417384 6.0608392,13.223163 6.3672559,12.189673 7.2782983,8.0082532 7.3317646,7.3899834 7.3952891,6.655403 7.3807554,6.584668 7.1075435,6.2987098 6.5301599,5.6943891 5.3118542,6.0187143 4.6687251,6.9479481 4.1655033,7.6750349 3.7881173,9.0093705 2.911806,13.159944 c -0.053601,0.253879 -0.1056395,0.265445 -1.1942109,0.265445 -1.12578861,0 -1.13741117,-0.0029 -1.06860521,-0.265445 z"
       id="path22"
       inkscape:connector-curvature="0" />
    <text
       xml:space="preserve"
       style="font-style:normal;font-weight:normal;font-size:40px;line-height:1.25;font-family:sans-serif;letter-spacing:0px;word-spacing:0px;fill:#000000;fill-opacity:1;stroke:none"
       x="-51.859295"
       y="11.477387"
       id="text30"><tspan
         sodipodi:role="line"
         id="tspan28"
         x="-51.859295"
         y="47.9706"></tspan></text>
    <path
       style="fill:#aeb9c0;fill-opacity:1;stroke-width:0.10050251"
       d="m 0.69707546,13.261061 c 0,-0.04511 0.19881038,-0.939853 0.44180084,-1.988325 C 1.3818668,10.224263 1.8183064,8.2583822 2.1087422,6.9041108 2.3991781,5.5498395 2.6865485,4.4085722 2.7473434,4.3679614 2.8081383,4.3273505 3.2811241,4.2934309 3.798423,4.2925845 l 0.9405435,-0.00154 -0.063079,0.2513254 C 4.6411946,4.6805999 4.583498,5.0075452 4.547673,5.268916 L 4.482537,5.7441358 5.0772434,5.2104039 c 0.859489,-0.7713668 1.2472472,-0.9457483 2.2219654,-0.9992555 0.4527814,-0.024855 0.986711,-0.014524 1.1865103,0.022958 0.4484403,0.084128 1.1081442,0.7154236 1.2040837,1.1522334 0.037658,0.1714573 0.094106,0.3117405 0.1254385,0.3117405 0.031333,0 0.2658377,-0.1953727 0.5211227,-0.4341616 0.255284,-0.2387889 0.689623,-0.566325 0.965197,-0.727858 0.4522,-0.2650663 0.603912,-0.2969941 1.556318,-0.3275255 0.952806,-0.030544 1.098165,-0.010859 1.496951,0.2027248 0.673274,0.3605941 0.840545,0.7445972 0.779433,1.7893328 -0.03954,0.6760175 -1.122045,5.9349422 -1.432612,6.9597992 -0.04632,0.15286 -0.190531,0.17588 -1.101801,0.17588 -0.576676,0 -1.048503,-0.03069 -1.048503,-0.0682 0,-0.03751 0.224169,-1.066405 0.498154,-2.286433 0.273984,-1.2200276 0.565909,-2.6081616 0.648722,-3.0847422 0.245631,-1.4135733 -0.009,-1.897309 -0.998809,-1.897309 -0.92134,0 -1.730245,0.7390928 -2.1999146,2.0100503 C 9.4075787,8.2583822 9.0923842,9.5473269 8.7990672,10.87396 l -0.5333034,2.41206 -1.0707764,0.02853 c -0.7387684,0.01968 -1.0707763,-0.0063 -1.0707763,-0.08376 0,-0.06176 0.09212,-0.473081 0.2047108,-0.914056 C 6.7944531,10.493427 7.3475072,7.7163778 7.3634369,7.1221251 7.3790539,6.5395391 7.3567062,6.4653582 7.0985062,6.2427281 6.7199012,5.9162796 6.0223802,5.9116158 5.4113754,6.2314478 4.5104791,6.7030239 4.0574399,7.7857779 3.2706755,11.347674 L 2.8425267,13.28602 1.7698011,13.31455 C 1.179802,13.33024 0.69707546,13.30615 0.69707546,13.26106 Z"
       id="path43"
       inkscape:connector-curvature="0" />
  </g>
</svg>
