<?xml version="1.0" encoding="UTF-8" standalone="no"?>
<svg
   xmlns:dc="http://purl.org/dc/elements/1.1/"
   xmlns:cc="http://creativecommons.org/ns#"
   xmlns:rdf="http://www.w3.org/1999/02/22-rdf-syntax-ns#"
   xmlns:svg="http://www.w3.org/2000/svg"
   xmlns="http://www.w3.org/2000/svg"
   xmlns:sodipodi="http://sodipodi.sourceforge.net/DTD/sodipodi-0.dtd"
   xmlns:inkscape="http://www.inkscape.org/namespaces/inkscape"
   width="16"
   height="16"
   viewBox="0 0 16 16"
   version="1.1"
   id="svg4"
   sodipodi:docname="folder_sqlite.svg"
   inkscape:version="0.92.5 (2060ec1f9f, 2020-04-08)">
  <metadata
     id="metadata10">
    <rdf:RDF>
      <cc:Work
         rdf:about="">
        <dc:format>image/svg+xml</dc:format>
        <dc:type
           rdf:resource="http://purl.org/dc/dcmitype/StillImage" />
      </cc:Work>
    </rdf:RDF>
  </metadata>
  <defs
     id="defs8">
    <linearGradient
       gradientUnits="userSpaceOnUse"
       gradientTransform="matrix(1.6707165,0,0,1.1203937,163.00969,-22.289002)"
       x1="92.696583"
       y1="17.661397"
       x2="92.696574"
       y2="157.95518"
       id="linearGradient-1">
      <stop
         stop-color="#97D9F6"
         offset="0%"
         id="stop2" />
      <stop
         stop-color="#0F80CC"
         offset="92.024499%"
         id="stop4" />
      <stop
         stop-color="#0F80CC"
         offset="100%"
         id="stop6" />
    </linearGradient>
  </defs>
  <sodipodi:namedview
     pagecolor="#ffffff"
     bordercolor="#666666"
     borderopacity="1"
     objecttolerance="10"
     gridtolerance="10"
     guidetolerance="10"
     inkscape:pageopacity="0"
     inkscape:pageshadow="2"
     inkscape:window-width="1920"
     inkscape:window-height="1001"
     id="namedview6"
     showgrid="false"
     inkscape:zoom="25.25"
     inkscape:cx="26.687335"
     inkscape:cy="11.021441"
     inkscape:window-x="-9"
     inkscape:window-y="-9"
     inkscape:window-maximized="1"
     inkscape:current-layer="g19" />
  <path
     fill="#9AA7B0"
     fill-opacity=".8"
     fill-rule="evenodd"
     d="M1,13 L15,13 L15,4 L7.98457,4 L6.69633,2.71149 C6.22161957,2.28559443 5.61570121,2.03457993 4.97888,2 L1.05128,2 C1.02295884,2 1,2.02295884 1,2.05128 L1,13 Z"
     id="path2" />
  <path
     style="fill:#87939a;fill-opacity:1;stroke-width:0.06779661"
     d="M 1.0169492,7.4983051 V 2.0067797 h 1.9966629 c 1.2212364,0 2.1361893,0.029628 2.3559322,0.076289 0.6429451,0.136526 1.0548486,0.4052591 1.8496385,1.2067371 L 7.9637892,4.040678 H 11.47342 14.983051 V 8.5152542 12.989831 H 8 1.0169492 Z"
     id="path23"
     inkscape:connector-curvature="0" />
  <g
     transform="matrix(0.02672501,0,0,0.03909045,2.2727253,7.1434569)"
     id="g19">
    <path
       style="fill:#0f80cc;stroke-width:1.36815941"
       inkscape:connector-curvature="0"
       d="M 434.066,-11.438165 H 192.45204 c -16.19324,0 -29.44235,8.4162282 -29.44235,18.7003611 V 176.49111 c 0,10.28355 13.24911,18.69843 29.44235,18.69843 H 351.5853 C 349.77909,144.90162 376.81786,47.308338 434.066,-11.438165 Z"
       id="path13" />
    <path
       style="fill:url(#linearGradient-1);stroke-width:1.36815941"
       inkscape:connector-curvature="0"
       d="M 425.28829,-5.9828431 H 192.45204 c -11.49813,0 -20.85494,5.94108968 -20.85494,13.2450392 V 164.14417 C 224.3295,151.29044 303.47445,140.19954 358.19822,140.70325 369.19507,104.18402 401.5147,32.61409 425.28829,-5.9828431 Z"
       id="path15" />
    <path
       style="fill:#003b57;stroke-width:1.36815941"
       inkscape:connector-curvature="0"
       d="m 490.42301,-16.976363 c -16.54775,-9.372346 -36.58293,-5.607609 -56.35701,5.538198 -2.93502,1.6558783 -5.86395,3.4929493 -8.77771,5.4553219 -33.82696,22.7908811 -65.22577,65.0069281 -74.9808,97.2472651 3.80003,4.894363 6.76842,11.140028 8.72307,15.911018 0.50081,1.22407 0.95304,2.37297 1.31423,3.3503 0.85895,2.31302 1.3203,3.81293 1.3203,3.81293 0,0 -0.30352,-0.72885 -1.54794,-3.02066 -0.23674,-0.43951 -0.5008,-0.9195 -0.81342,-1.48431 -0.13357,-0.23324 -0.3187,-0.51661 -0.52205,-0.81926 -2.20656,-3.25776 -8.31029,-10.133773 -10.99641,-13.127455 -2.29764,4.304495 -4.32816,8.331405 -6.02784,11.974705 7.75484,9.01149 12.4806,24.45485 12.4806,24.45485 0,0 -0.40974,-1.00085 -2.35832,-4.49397 -1.73006,-3.08949 -10.34689,-12.67813 -12.38804,-14.91981 -3.49166,8.18645 -4.87903,13.71347 -3.62794,15.05917 2.42905,2.60757 4.74245,7.10676 6.77388,12.08247 4.58918,11.20922 7.77915,24.85504 7.77915,24.85504 0,0 0.10318,0.90426 0.2762,2.29585 -0.63739,9.41322 -0.25496,19.17283 0.89234,27.99425 1.52061,11.67746 4.38278,21.70889 8.03105,27.07764 l 2.4767,-0.85761 c -5.35707,-10.57734 -7.5333,-24.43924 -6.58025,-40.42544 1.4417,-24.43538 10.2953,-53.90333 26.65485,-84.617156 C 409.8059,50.002574 448.15226,12.802333 483.24778,-4.9631023 451.26029,13.384491 407.96657,72.77418 395.0064,94.767009 c -14.51112,24.627951 -24.79428,47.739031 -30.99209,69.881631 10.6929,-20.75853 45.2665,-29.68155 45.2665,-29.68155 0,0 16.95748,-13.28224 36.77409,-32.25806 -11.87053,1.71947 -31.3624,4.66303 -37.89104,6.40566 -9.63058,2.56572 -12.22565,3.44089 -12.22565,3.44089 0,0 31.19545,-12.06531 57.95955,-17.528339 36.80749,-36.818561 76.90807,-89.1240559 36.52525,-112.003604"
       id="path17" />
  </g>
</svg>
