<svg xmlns="http://www.w3.org/2000/svg" width="16" height="16" viewBox="0 0 16 16"><path fill="#9AA7B0" fill-opacity=".8" fill-rule="evenodd" d="M1 13h14V4H7.985L6.696 2.711A2.8 2.8 0 004.98 2H1.05a.051.051 0 00-.05.051V13z"/><path d="M1.017 7.498V2.007h1.997c1.22 0 2.136.03 2.356.076.642.137 1.054.405 1.85 1.207l.744.75h7.02v8.95H1.016z" fill="#aeb9c0" stroke-width=".068"/><path d="M7.36 7.26h4.103v4.133H7.36z" fill="#f25022" stroke-width=".067"/><path d="M11.89 7.26h4.104v4.133H11.89z" fill="#7fba00" stroke-width=".067"/><path d="M7.36 11.824h4.103v4.133H7.36z" fill="#00a4ef" stroke-width=".067"/><path d="M11.89 11.824h4.104v4.133H11.89z" fill="#ffb900" stroke-width=".067"/></svg>