<?xml version="1.0" encoding="UTF-8" standalone="no"?>
<svg
   xmlns:dc="http://purl.org/dc/elements/1.1/"
   xmlns:cc="http://creativecommons.org/ns#"
   xmlns:rdf="http://www.w3.org/1999/02/22-rdf-syntax-ns#"
   xmlns:svg="http://www.w3.org/2000/svg"
   xmlns="http://www.w3.org/2000/svg"
   xmlns:sodipodi="http://sodipodi.sourceforge.net/DTD/sodipodi-0.dtd"
   xmlns:inkscape="http://www.inkscape.org/namespaces/inkscape"
   width="16"
   height="16"
   viewBox="0 0 16 16"
   version="1.1"
   id="svg14"
   sodipodi:docname="folder_gitlab.svg"
   inkscape:version="0.92.4 (5da689c313, 2019-01-14)">
  <metadata
     id="metadata20">
    <rdf:RDF>
      <cc:Work
         rdf:about="">
        <dc:format>image/svg+xml</dc:format>
        <dc:type
           rdf:resource="http://purl.org/dc/dcmitype/StillImage" />
      </cc:Work>
    </rdf:RDF>
  </metadata>
  <defs
     id="defs18" />
  <sodipodi:namedview
     pagecolor="#ffffff"
     bordercolor="#666666"
     borderopacity="1"
     objecttolerance="10"
     gridtolerance="10"
     guidetolerance="10"
     inkscape:pageopacity="0"
     inkscape:pageshadow="2"
     inkscape:window-width="1920"
     inkscape:window-height="1001"
     id="namedview16"
     showgrid="false"
     inkscape:zoom="14.75"
     inkscape:cx="8"
     inkscape:cy="8"
     inkscape:window-x="-9"
     inkscape:window-y="-9"
     inkscape:window-maximized="1"
     inkscape:current-layer="svg14" />
  <g
     fill="none"
     fill-rule="evenodd"
     id="g12">
    <polygon
       fill="#aeb9c0"
       points="12.298 1 10.702 6 5.298 6 3.702 1 1 8.907 8 14.008 15.001 8.907"
       id="polygon2" />
    <polygon
       fill="#aeb9c0"
       points="10.701 6 8 14.008 14.007 6"
       id="polygon4" />
    <polygon
       fill="#aeb9c0"
       points="8 14.008 15 8.907 15 8.906 14.008 6.002"
       id="polygon6" />
    <polygon
       fill="#aeb9c0"
       points="1 8.906 1 8.907 8 14.008 1.994 6"
       id="polygon8" />
    <polygon
       fill="#aeb9c0"
       points="1.994 6 8.001 14.008 5.299 6"
       id="polygon10" />
  </g>
  <path
     style="fill:#aeb9c0;fill-opacity:1;stroke-width:0.06779661"
     d="M 4.9721345,9.9953644 C 3.3974156,7.8948631 2.0792211,6.1381356 2.0428134,6.0915254 1.9902516,6.0242343 2.3182523,6.0067797 3.635324,6.0067797 H 5.2940303 L 6.5969162,9.8783475 C 7.3135035,12.00771 7.8852801,13.764437 7.867531,13.782186 7.8497818,13.799936 6.5468534,12.095866 4.9721345,9.9953644 Z"
     id="path33"
     inkscape:connector-curvature="0" />
  <path
     style="fill:#aeb9c0;fill-opacity:1;stroke-width:0.06779661"
     d="M 6.6574277,9.9668456 5.321635,6.0067797 h 2.6747757 c 1.4711267,0 2.6747753,0.01188 2.6747753,0.0264 0,0.037301 -2.6437131,7.8603353 -2.6625133,7.8786653 -0.0085,0.0083 -0.6165591,-1.766963 -1.351245,-3.9449994 z"
     id="path35"
     inkscape:connector-curvature="0" />
  <path
     style="fill:#aeb9c0;fill-opacity:1;stroke-width:0.06779661"
     d="m 8.1109538,13.718644 c 0.0168,-0.04661 0.6073522,-1.800457 1.3123383,-3.8974382 l 1.2817929,-3.8126926 1.652369,-8.668e-4 c 1.311967,-6.882e-4 1.638783,0.016592 1.586423,0.083879 -0.03627,0.04661 -1.353081,1.8008475 -2.926245,3.8983051 C 9.4444681,12.087288 8.1400257,13.80339 8.1188711,13.80339 c -0.021154,0 -0.024717,-0.03814 -0.00792,-0.08475 z"
     id="path37"
     inkscape:connector-curvature="0" />
  <path
     style="fill:#aeb9c0;fill-opacity:1;stroke-width:0.06779661"
     d="m 10.75661,5.9220339 c 0.01767,-0.04661 0.364139,-1.129661 0.769923,-2.4067797 0.405784,-1.2771186 0.754215,-2.3220339 0.774291,-2.3220339 0.02008,0 0.115712,0.2364407 0.212525,0.5254238 0.09681,0.288983 0.466161,1.3720339 0.820775,2.4067796 l 0.644752,1.881356 h -1.6272 c -1.2737,0 -1.620219,-0.01841 -1.595066,-0.084746 z"
     id="path39"
     inkscape:connector-curvature="0" />
  <path
     style="fill:#aeb9c0;fill-opacity:1;stroke-width:0.06779661"
     d="M 8.2364324,13.761594 C 8.2866916,13.6256 13.94599,6.1423729 13.998578,6.1423729 c 0.07443,0 0.961546,2.6960903 0.912975,2.7746795 -0.02252,0.036439 -1.496832,1.1252716 -3.276249,2.4196296 -1.7794174,1.294358 -3.2784009,2.386505 -3.3310749,2.426993 -0.069415,0.05336 -0.088073,0.05278 -0.067797,-0.0021 z"
     id="path41"
     inkscape:connector-curvature="0" />
  <path
     style="fill:#aeb9c0;fill-opacity:1;stroke-width:0.06779661"
     d="M 4.449363,11.405061 C 2.649394,10.089966 1.1428671,8.9801552 1.1015254,8.9388136 1.035348,8.8726361 1.3231481,7.936955 1.9367553,6.2233567 c 0.04967,-0.1387117 0.2672059,0.1245492 1.9327328,2.338983 1.0322197,1.3724081 2.3441179,3.1130843 2.9153292,3.8681683 0.5712114,0.755085 1.0157624,1.371251 0.9878912,1.369257 -0.027871,-0.002 -1.5233765,-1.07961 -3.3233455,-2.394704 z"
     id="path43"
     inkscape:connector-curvature="0" />
  <path
     style="fill:#aeb9c0;fill-opacity:1;stroke-width:0.06779661"
     d="m 2.0610169,5.9503632 c 0,-0.059574 1.4402256,-4.3166068 1.5705269,-4.6421788 0.069516,-0.1736928 0.142469,0.016697 0.8442915,2.2033898 0.4225105,1.3164308 0.7689707,2.4163919 0.7699116,2.444358 9.409e-4,0.027966 -0.7152384,0.050847 -1.5915096,0.050847 -0.8762712,0 -1.5932204,-0.025387 -1.5932204,-0.056417 z"
     id="path45"
     inkscape:connector-curvature="0" />
  <path
     style="fill:#aeb9c0;fill-opacity:1;stroke-width:0.06779661"
     d=""
     id="path47"
     inkscape:connector-curvature="0" />
  <path
     style="fill:#aeb9c0;fill-opacity:1;stroke-width:0.06779661"
     d=""
     id="path49"
     inkscape:connector-curvature="0" />
  <path
     style="fill:#aeb9c0;fill-opacity:1;stroke-width:0.06779661"
     d="M 6.6838503,9.9566171 C 5.9670829,7.8401387 5.38118,6.081729 5.3818439,6.0490399 c 0.00139,-0.068515 5.1257381,-0.025074 5.1948501,0.044038 0.02493,0.024929 -0.124572,0.5419814 -0.332225,1.149005 C 10.036815,7.849107 9.4648766,9.5355932 8.9734934,10.989831 8.4821101,12.444068 8.0591431,13.672342 8.0335665,13.719329 8.0079899,13.766316 7.4006176,12.073095 6.6838503,9.9566171 Z"
     id="path51"
     inkscape:connector-curvature="0" />
</svg>
