<?xml version="1.0" encoding="UTF-8" standalone="no"?>
<svg
    xmlns:dc="http://purl.org/dc/elements/1.1/"
    xmlns:cc="http://creativecommons.org/ns#"
    xmlns:rdf="http://www.w3.org/1999/02/22-rdf-syntax-ns#"
    xmlns:svg="http://www.w3.org/2000/svg"
    xmlns="http://www.w3.org/2000/svg"
    xmlns:sodipodi="http://sodipodi.sourceforge.net/DTD/sodipodi-0.dtd"
    xmlns:inkscape="http://www.inkscape.org/namespaces/inkscape"
    width="16"
    height="16"
    viewBox="0 0 16 16"
    version="1.1"
    id="svg4"
    sodipodi:docname="folder_mariadb_dark.svg"
    inkscape:version="0.92.5 (2060ec1f9f, 2020-04-08)">
    <metadata
        id="metadata10">
        <rdf:RDF>
            <cc:Work
                rdf:about="">
                <dc:format>image/svg+xml</dc:format>
                <dc:type
                    rdf:resource="http://purl.org/dc/dcmitype/StillImage" />
            </cc:Work>
        </rdf:RDF>
    </metadata>
    <defs
        id="defs8" />
    <sodipodi:namedview
        pagecolor="#ffffff"
        bordercolor="#666666"
        borderopacity="1"
        objecttolerance="10"
        gridtolerance="10"
        guidetolerance="10"
        inkscape:pageopacity="0"
        inkscape:pageshadow="2"
        inkscape:window-width="1920"
        inkscape:window-height="1001"
        id="namedview6"
        showgrid="false"
        inkscape:zoom="29.889931"
        inkscape:cx="-0.95424135"
        inkscape:cy="8.629426"
        inkscape:window-x="-9"
        inkscape:window-y="-9"
        inkscape:window-maximized="1"
        inkscape:current-layer="svg4" />
    <path
        fill="#9AA7B0"
        fill-opacity=".8"
        fill-rule="evenodd"
        d="M1,13 L15,13 L15,4 L7.98457,4 L6.69633,2.71149 C6.22161957,2.28559443 5.61570121,2.03457993 4.97888,2 L1.05128,2 C1.02295884,2 1,2.02295884 1,2.05128 L1,13 Z"
        id="path2" />
    <path
        style="fill:#aeb9c0;fill-opacity:1;stroke-width:0.06779661"
        d="M 1.0169492,7.4983051 V 2.0067797 h 1.9966629 c 1.2212364,0 2.1361893,0.029628 2.3559322,0.076289 0.6429451,0.136526 1.0548486,0.4052591 1.8496385,1.2067371 L 7.9637892,4.040678 H 11.47342 14.983051 V 8.5152542 12.989831 H 8 1.0169492 Z"
        id="path23"
        inkscape:connector-curvature="0" />
    <path
        style="fill:#333333;fill-opacity:1;stroke-width:0.03585106"
        d="m 3.7377427,15.931926 c -0.1069259,-0.04369 -0.039573,-0.222001 0.2460882,-0.651482 l 0.1732562,-0.260485 -0.09834,-0.06299 c -0.054088,-0.03464 -0.2173698,-0.165 -0.3628495,-0.289691 -0.1454798,-0.124693 -0.2807413,-0.226714 -0.3005811,-0.226714 -0.053442,0 0.1579411,-0.214832 0.2694047,-0.2738 0.1440041,-0.07619 0.519752,-0.06234 1.1176488,0.04119 0.532587,0.09222 0.7595861,0.09363 0.8723623,0.0055 0.083472,-0.06534 0.3720363,-0.433741 0.5075084,-0.647983 0.3003388,-0.47497 0.8377357,-0.988479 1.2458397,-1.190462 0.2149334,-0.106379 1.0173042,-0.417894 1.7893712,-0.694717 1.4228734,-0.510168 1.9617174,-0.795976 2.4275744,-1.287606 0.269933,-0.284865 0.440019,-0.5504281 0.884999,-1.3817863 0.444068,-0.8296542 0.620512,-1.0989699 0.909998,-1.3889797 0.36121,-0.3618646 0.862146,-0.5747259 1.356967,-0.5766119 0.256021,-9.75e-4 0.531497,-0.064438 0.726292,-0.1673176 0.250053,-0.1320645 0.369639,-0.1629479 0.453975,-0.1172405 0.06452,0.034968 0.06952,0.067845 0.05645,0.3706167 -0.02379,0.5507479 -0.143192,0.7260144 -0.955754,1.402877 -0.293385,0.244389 -0.446517,0.4476348 -0.516623,0.685693 -0.03042,0.1032974 -0.144031,0.6240141 -0.252466,1.1571463 -0.305257,1.500837 -0.561836,2.303913 -0.926517,2.899938 -0.186859,0.305401 -0.535974,0.684693 -0.717912,0.779968 l -0.115267,0.06037 0.02316,-0.330371 c 0.02951,-0.42094 -0.02075,-0.418734 -0.183683,0.0081 -0.242375,0.634871 -0.523154,1.083707 -0.907799,1.451157 -0.370999,0.354416 -0.870975,0.608051 -1.272009,0.645283 l -0.184282,0.01712 0.146046,-0.171695 c 0.191637,-0.225296 0.498976,-0.772184 0.637286,-1.134002 0.18084,-0.47308 0.314302,-1.280747 0.211634,-1.280747 -0.01797,0 -0.06058,0.07712 -0.09469,0.171367 -0.214592,0.593079 -0.279603,0.739284 -0.374435,0.842088 l -0.106039,0.114956 -0.4887616,-0.02033 c -0.268814,-0.01119 -0.7212175,-0.0556 -1.005336,-0.0987 -0.6660738,-0.10103 -1.3522533,-0.109828 -1.6744295,-0.02146 -0.3017593,0.08276 -0.6653895,0.282557 -1.1709011,0.643325 -0.3870322,0.276213 -1.0892342,0.677301 -1.485584,0.848546 -0.2603081,0.112466 -0.7307438,0.18342 -0.8615981,0.129951 z"
        id="path20"
        inkscape:connector-curvature="0" />
</svg>
