<svg xmlns="http://www.w3.org/2000/svg" width="16" height="16" viewBox="0 0 16 16"><path fill="#AFB1B3" d="M15.412 3.27c-.526-.967-1.467-1.256-2.131-1.27-.815-.016-1.485.445-1.358.747.027.065.18.405.274.545.136.202.379.046.464 0 .254-.138.526-.182.834-.146.295.035.686.22.948.736.618 1.213-1.289 3.709-3.677 1.98-2.387-1.728-4.709-1.155-5.76-.807-1.051.348-1.534.699-1.119 1.509.565 1.1.377.763.925 1.674.87 1.447 2.772-.666 2.772-.666-1.417 2.134-2.633 1.619-3.099.872-.42-.672-.746-1.447-.746-1.447C.149 8.29 1.119 14 1.119 14h1.784c.454-2.102 2.08-2.025 2.358 0h1.36c1.204-4.105 4.254 0 4.254 0h1.773c-.496-2.8.998-3.68 1.94-5.322s1.834-3.65.824-5.409z"/><path d="M1.088 13.583a14.83 14.83 0 01-.043-1.237c0-2.555.777-4.34 2.225-5.108.235-.125.437-.217.449-.204.012.013.177.335.367.715.414.829.661 1.126 1.062 1.28.68.259 1.533-.168 2.201-1.101l.235-.328-.293.237c-.754.612-1.254.88-1.644.881-.491.001-.8-.356-1.513-1.746-.427-.832-.452-1.012-.18-1.32.4-.457 1.7-.858 2.959-.914 1.394-.062 2.417.23 3.71 1.058.852.546 1.395.729 1.969.662.977-.115 1.782-.851 1.956-1.79.073-.391.068-.432-.11-.794-.335-.686-.898-.907-1.647-.648-.232.08-.454.127-.492.103-.106-.066-.34-.553-.34-.708 0-.194.434-.461.9-.555.749-.15 1.604.14 2.156.73.712.764.961 1.87.702 3.123-.192.929-.797 2.25-1.488 3.25-1.031 1.493-1.263 1.865-1.422 2.287a4.34 4.34 0 00-.252 1.958l.056.525h-1.703l-.683-.67c-.87-.852-1.378-1.122-2.028-1.08-.657.041-1.057.412-1.426 1.32l-.16.396-.682.02c-.626.017-.682.008-.682-.107 0-.288-.238-.795-.506-1.074-.259-.27-.313-.297-.613-.297-.304 0-.353.025-.64.323-.266.276-.426.573-.583 1.084-.02.062-.26.085-.9.085H1.13z" fill="#999" stroke-width=".068"/><path d="M1.1 13.61c-.067-.493-.05-1.895.033-2.566.16-1.314.62-2.426 1.292-3.125.344-.359 1.064-.842 1.252-.84.032 0 .21.295.393.657.518 1.018.912 1.377 1.51 1.375.54-.001 1.282-.498 1.778-1.19l.23-.32-.502.384c-1.203.92-1.73.948-2.288.126-.334-.492-.949-1.7-.997-1.956-.084-.446.4-.818 1.495-1.153.566-.172.697-.186 1.863-.19 1.153-.005 1.293.008 1.73.157.576.197 1.168.488 1.928.95.64.389 1.095.549 1.563.549 1.016 0 1.959-.783 2.17-1.803.067-.32.06-.399-.068-.685-.336-.76-.813-.983-1.653-.768-.266.067-.507.109-.535.091-.078-.047-.321-.544-.321-.657 0-.144.373-.434.663-.514.413-.115 1.057-.085 1.467.068.41.154.983.628 1.23 1.021.496.785.6 1.963.27 3.077-.281.955-.851 2.06-1.77 3.431-.465.694-.92 1.447-1.012 1.674-.23.564-.331 1.286-.276 1.963l.045.56h-1.673l-.336-.344c-.47-.48-1.164-1.036-1.511-1.211-.67-.338-1.368-.23-1.802.277-.128.15-.334.498-.459.774l-.226.503h-.661c-.583 0-.661-.014-.664-.118-.005-.204-.179-.623-.376-.907-.225-.324-.473-.466-.817-.466-.213 0-.302.05-.57.329a2.28 2.28 0 00-.44.66c-.19.517-.16.502-1.081.502h-.83z" fill="#939dac" stroke-width=".068"/><path d="M1.088 13.619c-.079-.524.014-2.728.139-3.287.222-1 .672-1.903 1.23-2.469.307-.311 1.015-.785 1.17-.784.068 0 .236.245.448.65.186.358.438.767.56.91a1.26 1.26 0 001.126.444c.394-.06 1.019-.466 1.37-.891.433-.523.42-.548-.08-.164-1.118.858-1.725.885-2.264.102-.353-.513-1.017-1.866-1.017-2.07 0-.587 1.267-1.16 2.826-1.28 1.619-.124 2.548.113 4.08 1.041.838.507 1.361.681 1.886.627 1.062-.11 1.988-1.048 1.988-2.013 0-.306-.04-.443-.202-.699-.11-.175-.302-.38-.424-.454-.268-.163-.758-.177-1.232-.033a3.33 3.33 0 01-.384.101c-.028 0-.118-.138-.2-.307-.21-.434-.15-.591.307-.815.34-.166.428-.18.966-.154.486.023.654.062.932.215 1.006.553 1.488 1.438 1.483 2.722-.004 1.36-.501 2.55-1.993 4.781-1.111 1.662-1.253 2.039-1.242 3.304l.007.83h-1.66l-.501-.486c-1.25-1.212-2.08-1.523-2.83-1.06-.258.16-.669.754-.851 1.232l-.12.314H5.284l-.11-.393c-.14-.505-.562-1.006-.9-1.07-.474-.088-.788.16-1.18.935l-.251.495-.855.018-.854.02z" fill="#87939a" stroke-width=".068"/></svg>