<?xml version="1.0" encoding="UTF-8" standalone="no"?>
<svg
   xmlns:dc="http://purl.org/dc/elements/1.1/"
   xmlns:cc="http://creativecommons.org/ns#"
   xmlns:rdf="http://www.w3.org/1999/02/22-rdf-syntax-ns#"
   xmlns:svg="http://www.w3.org/2000/svg"
   xmlns="http://www.w3.org/2000/svg"
   xmlns:sodipodi="http://sodipodi.sourceforge.net/DTD/sodipodi-0.dtd"
   xmlns:inkscape="http://www.inkscape.org/namespaces/inkscape"
   width="16"
   height="16"
   viewBox="0 0 16 16"
   version="1.1"
   id="svg4"
   sodipodi:docname="folder_mysql.svg"
   inkscape:version="0.92.5 (2060ec1f9f, 2020-04-08)">
  <metadata
     id="metadata10">
    <rdf:RDF>
      <cc:Work
         rdf:about="">
        <dc:format>image/svg+xml</dc:format>
        <dc:type
           rdf:resource="http://purl.org/dc/dcmitype/StillImage" />
      </cc:Work>
    </rdf:RDF>
  </metadata>
  <defs
     id="defs8" />
  <sodipodi:namedview
     pagecolor="#ffffff"
     bordercolor="#666666"
     borderopacity="1"
     objecttolerance="10"
     gridtolerance="10"
     guidetolerance="10"
     inkscape:pageopacity="0"
     inkscape:pageshadow="2"
     inkscape:window-width="1920"
     inkscape:window-height="1001"
     id="namedview6"
     showgrid="false"
     inkscape:zoom="29.889931"
     inkscape:cx="-6.5414071"
     inkscape:cy="8.629426"
     inkscape:window-x="-9"
     inkscape:window-y="-9"
     inkscape:window-maximized="1"
     inkscape:current-layer="svg4" />
  <path
     fill="#9AA7B0"
     fill-opacity=".8"
     fill-rule="evenodd"
     d="M1,13 L15,13 L15,4 L7.98457,4 L6.69633,2.71149 C6.22161957,2.28559443 5.61570121,2.03457993 4.97888,2 L1.05128,2 C1.02295884,2 1,2.02295884 1,2.05128 L1,13 Z"
     id="path2" />
  <path
     style="fill:#aeb9c0;fill-opacity:1;stroke-width:0.06779661"
     d="M 1.0169492,7.4983051 V 2.0067797 h 1.9966629 c 1.2212364,0 2.1361893,0.029628 2.3559322,0.076289 0.6429451,0.136526 1.0548486,0.4052591 1.8496385,1.2067371 L 7.9637892,4.040678 H 11.47342 14.983051 V 8.5152542 12.989831 H 8 1.0169492 Z"
     id="path23"
     inkscape:connector-curvature="0" />
  <path
     style="fill:#2780af;fill-opacity:1;stroke-width:0.03585106"
     d="m 15.668593,15.931926 c 0.106926,-0.04369 0.03957,-0.222001 -0.246088,-0.651482 l -0.173256,-0.260485 0.09834,-0.06299 c 0.05409,-0.03464 0.21737,-0.165 0.362849,-0.289691 0.14548,-0.124693 0.280742,-0.226714 0.300581,-0.226714 0.05344,0 -0.157941,-0.214832 -0.269404,-0.2738 -0.144004,-0.07619 -0.519752,-0.06234 -1.117649,0.04119 -0.532587,0.09222 -0.759586,0.09363 -0.872362,0.0055 -0.08347,-0.06534 -0.372037,-0.433741 -0.507509,-0.647983 -0.300339,-0.47497 -0.837736,-0.988479 -1.24584,-1.190462 C 11.783322,12.26863 10.980951,11.957115 10.208884,11.680292 8.7860109,11.170124 8.2471669,10.884316 7.7813099,10.392686 7.5113769,10.107821 7.3412909,9.8422579 6.8963109,9.0108997 6.4522429,8.1812455 6.2757989,7.9119298 5.9863129,7.62192 5.6251029,7.2600554 5.1241669,7.0471941 4.6293459,7.0453081 4.3733249,7.0443331 4.0978489,6.9808701 3.9030539,6.8779905 3.6530009,6.745926 3.5334149,6.7150426 3.4490789,6.76075 c -0.06452,0.034968 -0.06952,0.067845 -0.05645,0.3706167 0.02379,0.5507479 0.143192,0.7260144 0.955754,1.402877 0.293385,0.244389 0.446517,0.4476348 0.516623,0.685693 0.03042,0.1032974 0.144031,0.6240141 0.252466,1.1571463 0.305257,1.500837 0.561836,2.303913 0.926517,2.899938 0.186859,0.305401 0.535974,0.684693 0.717912,0.779968 l 0.115267,0.06037 -0.02316,-0.330371 c -0.02951,-0.42094 0.02075,-0.418734 0.183683,0.0081 0.242375,0.634871 0.523154,1.083707 0.907799,1.451157 0.370999,0.354416 0.870975,0.608051 1.272009,0.645283 l 0.184282,0.01712 -0.146046,-0.171695 c -0.191637,-0.225296 -0.498976,-0.772184 -0.637286,-1.134002 -0.18084,-0.47308 -0.314302,-1.280747 -0.211634,-1.280747 0.01797,0 0.06058,0.07712 0.09469,0.171367 0.214592,0.593079 0.279603,0.739284 0.374435,0.842088 l 0.106039,0.114956 0.4887616,-0.02033 c 0.268814,-0.01119 0.7212175,-0.0556 1.0053355,-0.0987 0.666074,-0.10103 1.352254,-0.109828 1.67443,-0.02146 0.301759,0.08276 0.665389,0.282557 1.170901,0.643325 0.387032,0.276213 1.089234,0.677301 1.485584,0.848546 0.260308,0.112466 0.730744,0.18342 0.861598,0.129951 z"
     id="path20"
     inkscape:connector-curvature="0" />
</svg>
