<svg xmlns="http://www.w3.org/2000/svg" width="16" height="16" viewBox="0 0 16 16"><path fill="#AFB1B3" d="M15.412 3.27c-.526-.967-1.467-1.256-2.131-1.27-.815-.016-1.485.445-1.358.747.027.065.18.405.274.545.136.202.379.046.464 0 .254-.138.526-.182.834-.146.295.035.686.22.948.736.618 1.213-1.289 3.709-3.677 1.98-2.387-1.728-4.709-1.155-5.76-.807-1.051.348-1.534.699-1.119 1.509.565 1.1.377.763.925 1.674.87 1.447 2.772-.666 2.772-.666-1.417 2.134-2.633 1.619-3.099.872-.42-.672-.746-1.447-.746-1.447C.149 8.29 1.119 14 1.119 14h1.784c.454-2.102 2.08-2.025 2.358 0h1.36c1.204-4.105 4.254 0 4.254 0h1.773c-.496-2.8.998-3.68 1.94-5.322s1.834-3.65.824-5.409z"/><path d="M1.088 13.583a14.83 14.83 0 01-.043-1.237c0-2.555.777-4.34 2.225-5.108.235-.125.437-.217.449-.204.012.013.177.335.367.715.414.829.661 1.126 1.062 1.28.68.259 1.533-.168 2.201-1.101l.235-.328-.293.237c-.754.612-1.254.88-1.644.881-.491.001-.8-.356-1.513-1.746-.427-.832-.452-1.012-.18-1.32.4-.457 1.7-.858 2.959-.914 1.394-.062 2.417.23 3.71 1.058.852.546 1.395.729 1.969.662.977-.115 1.782-.851 1.956-1.79.073-.391.068-.432-.11-.794-.335-.686-.898-.907-1.647-.648-.232.08-.454.127-.492.103-.106-.066-.34-.553-.34-.708 0-.194.434-.461.9-.555.749-.15 1.604.14 2.156.73.712.764.961 1.87.702 3.123-.192.929-.797 2.25-1.488 3.25-1.031 1.493-1.263 1.865-1.422 2.287a4.34 4.34 0 00-.252 1.958l.056.525h-1.703l-.683-.67c-.87-.852-1.378-1.122-2.028-1.08-.657.041-1.057.412-1.426 1.32l-.16.396-.682.02c-.626.017-.682.008-.682-.107 0-.288-.238-.795-.506-1.074-.259-.27-.313-.297-.613-.297-.304 0-.353.025-.64.323-.266.276-.426.573-.583 1.084-.02.062-.26.085-.9.085H1.13z" fill="#aeb9c0" stroke-width=".068"/></svg>