<?xml version="1.0" encoding="UTF-8" standalone="no"?>
<svg
    xmlns:dc="http://purl.org/dc/elements/1.1/"
    xmlns:cc="http://creativecommons.org/ns#"
    xmlns:rdf="http://www.w3.org/1999/02/22-rdf-syntax-ns#"
    xmlns:svg="http://www.w3.org/2000/svg"
    xmlns="http://www.w3.org/2000/svg"
    xmlns:sodipodi="http://sodipodi.sourceforge.net/DTD/sodipodi-0.dtd"
    xmlns:inkscape="http://www.inkscape.org/namespaces/inkscape"
    width="16"
    height="16"
    viewBox="0 0 16 16"
    preserveAspectRatio="xMinYMin meet"
    version="1.1"
    id="svg8"
    sodipodi:docname="circleci.svg"
    inkscape:version="0.92.4 (5da689c313, 2019-01-14)">
    <metadata
        id="metadata14">
        <rdf:RDF>
            <cc:Work
                rdf:about="">
                <dc:format>image/svg+xml</dc:format>
                <dc:type
                    rdf:resource="http://purl.org/dc/dcmitype/StillImage" />
            </cc:Work>
        </rdf:RDF>
    </metadata>
    <defs
        id="defs12" />
    <sodipodi:namedview
        pagecolor="#ffffff"
        bordercolor="#666666"
        borderopacity="1"
        objecttolerance="10"
        gridtolerance="10"
        guidetolerance="10"
        inkscape:pageopacity="0"
        inkscape:pageshadow="2"
        inkscape:window-width="1920"
        inkscape:window-height="1001"
        id="namedview10"
        showgrid="false"
        inkscape:zoom="39.044859"
        inkscape:cx="8"
        inkscape:cy="8"
        inkscape:window-x="-9"
        inkscape:window-y="-9"
        inkscape:window-maximized="1"
        inkscape:current-layer="svg8" />
    <g
        id="g6"
        transform="matrix(0.05096652,0,0,0.05281297,1.5607899,1.2037436)"
        style="fill:#87939a">
        <circle
            cx="126.157"
            cy="129.008"
            r="30.593"
            id="circle2" />
        <path
            d="m 1.204,96.572 c 0,0.368 -0.369,1.105 -0.369,1.474 0,3.317 2.58,6.266 6.266,6.266 h 51.972 c 2.58,0 4.423,-1.474 5.529,-3.686 10.69,-23.59 34.28,-39.44 61.186,-39.44 37.228,0 67.453,30.225 67.453,67.453 0,37.228 -30.225,67.453 -67.453,67.453 -27.276,0 -50.497,-16.218 -61.186,-39.071 -1.106,-2.58 -2.949,-4.055 -5.53,-4.055 H 7.103 c -3.318,0 -6.267,2.58 -6.267,6.267 0,0.368 0,1.105 0.369,1.474 14.375,56.026 64.872,97.309 124.953,97.309 71.139,0 129.008,-57.87 129.008,-129.008 C 255.165,57.869 197.295,0 126.157,0 66.077,0 15.579,41.283 1.204,96.572 Z"
            id="path4"
            inkscape:connector-curvature="0" />
    </g>
</svg>
