<?xml version="1.0" encoding="UTF-8" standalone="no"?>
<svg
   xmlns:dc="http://purl.org/dc/elements/1.1/"
   xmlns:cc="http://creativecommons.org/ns#"
   xmlns:rdf="http://www.w3.org/1999/02/22-rdf-syntax-ns#"
   xmlns:svg="http://www.w3.org/2000/svg"
   xmlns="http://www.w3.org/2000/svg"
   xmlns:sodipodi="http://sodipodi.sourceforge.net/DTD/sodipodi-0.dtd"
   xmlns:inkscape="http://www.inkscape.org/namespaces/inkscape"
   width="16"
   height="16"
   viewBox="0 0 16 16"
   version="1.1"
   id="svg4"
   sodipodi:docname="folder_github.svg"
   inkscape:version="0.92.4 (5da689c313, 2019-01-14)">
  <metadata
     id="metadata10">
    <rdf:RDF>
      <cc:Work
         rdf:about="">
        <dc:format>image/svg+xml</dc:format>
        <dc:type
           rdf:resource="http://purl.org/dc/dcmitype/StillImage" />
      </cc:Work>
    </rdf:RDF>
  </metadata>
  <defs
     id="defs8" />
  <sodipodi:namedview
     pagecolor="#ffffff"
     bordercolor="#666666"
     borderopacity="1"
     objecttolerance="10"
     gridtolerance="10"
     guidetolerance="10"
     inkscape:pageopacity="0"
     inkscape:pageshadow="2"
     inkscape:window-width="1920"
     inkscape:window-height="1001"
     id="namedview6"
     showgrid="false"
     inkscape:zoom="14.75"
     inkscape:cx="8"
     inkscape:cy="8"
     inkscape:window-x="-9"
     inkscape:window-y="-9"
     inkscape:window-maximized="1"
     inkscape:current-layer="svg4" />
  <path
     fill="#161514"
     fill-rule="evenodd"
     d="M7.99707713,1 C4.13339149,1 1,4.1329619 1,7.9979363 C1,11.0896581 3.00487223,13.7122732 5.78557461,14.6375989 C6.13568621,14.7020366 6.2632729,14.4859554 6.2632729,14.3003748 C6.2632729,14.1345551 6.25725871,13.6942307 6.25382203,13.1104249 C4.30737333,13.5331364 3.89669027,12.1722117 3.89669027,12.1722117 C3.57836793,11.3637332 3.11957137,11.1485112 3.11957137,11.1485112 C2.48421546,10.7146305 3.16768487,10.7232222 3.16768487,10.7232222 C3.87005601,10.7726245 4.23949893,11.4444951 4.23949893,11.4444951 C4.86368564,12.5137317 5.87750575,12.2048602 6.27616044,12.0257233 C6.33973899,11.5738001 6.52059419,11.2653582 6.72035112,11.0905172 C5.16654292,10.9139579 3.53283195,10.3133983 3.53283195,7.63193005 C3.53283195,6.86812829 3.80561829,6.24308241 4.25324565,5.75421492 C4.1810754,5.57722598 3.9409375,4.86540398 4.32197921,3.90227487 C4.32197921,3.90227487 4.90922163,3.71411673 6.24608951,4.61968148 C6.80412015,4.46417178 7.40296136,4.38684652 7.9979363,4.38383942 C8.59248165,4.38684652 9.19089327,4.46417178 9.74978309,4.61968148 C11.0857918,3.71411673 11.672175,3.90227487 11.672175,3.90227487 C12.0540759,4.86540398 11.813938,5.57722598 11.7421974,5.75421492 C12.1906839,6.24308241 12.4613223,6.86812829 12.4613223,7.63193005 C12.4613223,10.3202717 10.8250338,10.91181 9.26650019,11.0849326 C9.51737771,11.3010138 9.74119139,11.7280211 9.74119139,12.38099 C9.74119139,13.316196 9.7325997,14.0709765 9.7325997,14.3003748 C9.7325997,14.4876738 9.85889763,14.7054733 10.2137347,14.6371693 C12.9922891,13.7096957 14.995443,11.0887989 14.995443,7.9979363 C14.995443,4.1329619 11.8620515,1 7.99707713,1"
     id="path2" />
  <path
     style="fill:#aeb9c0;fill-opacity:1;stroke-width:0.06779661"
     d="M 5.2340375,14.387433 C 3.2890812,13.538259 1.7836804,11.764325 1.2389388,9.6796902 1.0613452,9.0000692 1.0003828,7.7581847 1.1083634,7.0197005 1.4431709,4.7299389 2.8655756,2.7811085 4.9423729,1.7667412 5.988947,1.2555644 6.5532177,1.1173175 7.7559322,1.0774162 c 0.8057092,-0.02673 1.0994034,-0.00856 1.6280231,0.1007028 2.6086187,0.5392043 4.6601707,2.489183 5.3654967,5.0998471 0.135316,0.500853 0.15529,0.7315439 0.152622,1.7627119 -0.0028,1.0914088 -0.01784,1.2353139 -0.187469,1.7966101 -0.620284,2.0524899 -1.960412,3.6282669 -3.814031,4.4846919 -0.608426,0.281109 -0.9161326,0.346347 -1.0228384,0.216854 -0.047256,-0.05735 -0.084452,-0.571081 -0.099881,-1.379512 -0.025168,-1.318646 -0.044173,-1.419972 -0.3760745,-2.005042 -0.01215,-0.02142 0.2269661,-0.09246 0.5313674,-0.157873 1.7118855,-0.367865 2.5231375,-1.402365 2.5305395,-3.2269155 0.0032,-0.792601 -0.09679,-1.1837173 -0.431701,-1.6883209 -0.190688,-0.2873074 -0.19669,-0.3204121 -0.160202,-0.8836085 0.02849,-0.4397818 0.0094,-0.6831523 -0.07683,-0.9798002 l -0.114737,-0.3946821 -0.314086,0.0471 c -0.396304,0.059429 -0.85647,0.239869 -1.286461,0.5044449 L 9.7447281,4.5807173 9.2757539,4.4813664 C 8.6748671,4.3540702 7.3163256,4.3530563 6.7198035,4.4794588 L 6.2599458,4.5769024 5.9091319,4.370055 C 5.4508734,4.0998561 5.0092296,3.9285021 4.6210525,3.8702913 L 4.3077112,3.8233029 4.2013132,4.1815837 c -0.1181687,0.3979174 -0.1406899,1.1160047 -0.043055,1.3728042 0.051975,0.1367053 0.026841,0.2162404 -0.1400527,0.4431802 -0.356976,0.485412 -0.4943687,0.9722684 -0.4904773,1.7380251 0.00917,1.8040102 0.7350558,2.7980478 2.3592121,3.2307258 0.2584952,0.06886 0.5254443,0.125206 0.5932203,0.125206 0.1516055,0 0.1555147,-0.03086 -0.046546,0.367423 -0.093064,0.183438 -0.1692078,0.385748 -0.1692078,0.449578 0,0.128605 -0.4354254,0.268854 -0.8266319,0.266256 C 5.1000824,12.172538 4.6780115,11.950631 4.459459,11.66042 3.9047382,10.92382 3.407652,10.604317 2.9824131,10.711045 c -0.2597953,0.0652 -0.2171606,0.183174 0.1947074,0.538755 0.2658666,0.229533 0.4508802,0.474536 0.6558369,0.868489 0.4421033,0.849778 0.8829767,1.105853 1.8316681,1.0639 l 0.5170954,-0.02287 0.033359,0.576271 c 0.037224,0.643029 -0.046399,0.881964 -0.3081683,0.880528 -0.083039,-4.74e-4 -0.3858321,-0.103364 -0.6728742,-0.228688 z"
     id="path23"
     inkscape:connector-curvature="0" />
</svg>
