<?xml version="1.0" encoding="UTF-8" standalone="no"?>
<svg
   xmlns:dc="http://purl.org/dc/elements/1.1/"
   xmlns:cc="http://creativecommons.org/ns#"
   xmlns:rdf="http://www.w3.org/1999/02/22-rdf-syntax-ns#"
   xmlns:svg="http://www.w3.org/2000/svg"
   xmlns="http://www.w3.org/2000/svg"
   xmlns:sodipodi="http://sodipodi.sourceforge.net/DTD/sodipodi-0.dtd"
   xmlns:inkscape="http://www.inkscape.org/namespaces/inkscape"
   width="16"
   height="16"
   viewBox="0 0 16 16"
   version="1.1"
   id="svg10"
   sodipodi:docname="folder_vscode_dark.svg"
   inkscape:version="0.92.4 (5da689c313, 2019-01-14)">
  <metadata
     id="metadata16">
    <rdf:RDF>
      <cc:Work
         rdf:about="">
        <dc:format>image/svg+xml</dc:format>
        <dc:type
           rdf:resource="http://purl.org/dc/dcmitype/StillImage" />
        <dc:title />
      </cc:Work>
    </rdf:RDF>
  </metadata>
  <defs
     id="defs14" />
  <sodipodi:namedview
     pagecolor="#ffffff"
     bordercolor="#666666"
     borderopacity="1"
     objecttolerance="10"
     gridtolerance="10"
     guidetolerance="10"
     inkscape:pageopacity="0"
     inkscape:pageshadow="2"
     inkscape:window-width="1920"
     inkscape:window-height="1001"
     id="namedview12"
     showgrid="false"
     inkscape:zoom="18"
     inkscape:cx="-22.722222"
     inkscape:cy="-0.98217494"
     inkscape:window-x="-9"
     inkscape:window-y="-9"
     inkscape:window-maximized="1"
     inkscape:current-layer="svg10" />
  <path
     d="m 1.2416419,6.0950044 c 0,0 -0.32704761,-0.2329751 0.06541,-0.5440565 L 2.2214218,4.7429424 c 0,0 0.261638,-0.2720282 0.5382657,-0.035014 L 11.197514,11.02114 v 3.027327 c 0,0 -0.004,0.475377 -0.621391,0.422855 z"
     id="path2"
     inkscape:connector-curvature="0"
     style="fill:#87939a;stroke-width:0.01354663" />
  <path
     d="M 3.4165081,8.0463363 1.2416419,10.000362 c 0,0 -0.2234826,0.164294 0,0.457869 l 1.0097594,0.907659 c 0,0 0.2398347,0.254522 0.5941363,-0.03502 L 5.1512229,9.603092 Z"
     id="path4"
     inkscape:connector-curvature="0"
     style="fill:#87939a;stroke-width:0.01354663" />
  <path
     d="M 7.2347882,8.0624967 11.223407,5.0526779 11.197517,2.0415127 c 0,0 -0.170338,-0.6571776 -0.738583,-0.3151222 L 5.1512242,6.5003537 Z"
     id="path6"
     inkscape:connector-curvature="0"
     style="fill:#87939a;stroke-width:0.01354663" />
  <path
     d="m 10.576123,14.475363 c 0.23166,0.234321 0.512374,0.157561 0.512374,0.157561 l 3.108316,-1.513663 c 0.397909,-0.267988 0.342038,-0.600617 0.342038,-0.600617 V 3.4797616 c 0,-0.3972694 -0.411536,-0.5346301 -0.411536,-0.5346301 L 11.433262,1.6617501 c -0.588686,-0.3595622 -0.974331,0.06464 -0.974331,0.06464 0,0 0.496024,-0.352829 0.738583,0.315122 V 13.993252 c 0,0.08215 -0.01772,0.162948 -0.05314,0.235668 -0.07087,0.141402 -0.224846,0.273376 -0.594136,0.218163 z"
     id="path8"
     inkscape:connector-curvature="0"
     style="fill:#87939a;stroke-width:0.01354663" />
  <path
     style="fill:#87939a;fill-opacity:1;stroke-width:0.05206658"
     d="M 7.5082699,11.687043 C 5.7991071,10.152927 4.3928205,8.8977415 4.3831885,8.8977415 c -0.00963,0 -0.1582749,-0.1336969 -0.3303176,-0.2971044 C 3.8808283,8.4372295 3.1729174,7.7955933 2.4797357,7.1747785 1.786554,6.5539639 1.1980707,6.0023629 1.171995,5.9489986 1.0978906,5.7973423 1.1786636,5.6907546 1.7445429,5.1934668 2.3318351,4.6773616 2.455823,4.5978119 2.5940875,4.6484061 c 0.052637,0.01926 0.662852,0.4595889 1.3560337,0.9785065 0.6931817,0.5189177 1.2839617,0.9490522 1.3128443,0.9558547 0.028883,0.0068 0.093082,0.060037 0.1426657,0.1183013 0.049584,0.058264 0.090939,0.083341 0.091899,0.05573 9.603e-4,-0.027613 0.038534,0.00142 0.083495,0.064528 0.044962,0.063104 0.113327,0.1147329 0.1519229,0.1147329 0.038596,0 0.083777,0.034846 0.1004016,0.077434 0.016625,0.042588 0.063888,0.077434 0.1050277,0.077434 0.04114,0 0.088402,0.034846 0.1050275,0.077434 0.016625,0.042588 0.060731,0.077434 0.098014,0.077434 0.037282,0 0.097875,0.047362 0.1346501,0.1052495 0.036774,0.057887 0.088536,0.092081 0.1150247,0.075989 0.026489,-0.016093 0.074165,0.018502 0.1059448,0.076878 0.031781,0.058377 0.079044,0.093222 0.1050276,0.077434 0.025984,-0.015786 0.072892,0.018408 0.1042404,0.075989 0.031348,0.057581 0.089083,0.1046922 0.1283006,0.1046922 0.039217,0 0.084907,0.034846 0.1015322,0.077434 0.016625,0.042588 0.066415,0.077434 0.1106459,0.077434 0.04423,0 0.080419,0.019581 0.080419,0.043515 0,0.023933 0.9098011,0.7238937 2.0217801,1.5554675 L 11.170765,11.02783 v 1.564857 c 0,1.550446 -0.0011,1.566038 -0.118157,1.692952 -0.06498,0.07045 -0.189844,0.14218 -0.277463,0.159397 -0.150941,0.02966 -0.322498,-0.115175 -3.2668751,-2.757999 z"
     id="path21"
     inkscape:connector-curvature="0" />
  <path
     style="fill:#87939a;fill-opacity:1;stroke-width:0.05206658"
     d="m 10.763782,14.574686 c -0.159695,-0.0631 -0.150288,-0.144983 0.01313,-0.114273 0.08488,0.01595 0.131284,0.0012 0.131284,-0.04157 0,-0.03643 0.01378,-0.0527 0.03063,-0.03613 0.04818,0.04736 0.216483,-0.134576 0.191026,-0.206493 -0.01256,-0.03549 0.0052,-0.06453 0.03938,-0.06453 0.04767,0 0.0594,-1.415932 0.05015,-6.0528209 -0.01172,-5.8753517 -0.01505,-6.0577396 -0.113396,-6.2205959 -0.10073,-0.166791 -0.140139,-0.1880549 -0.315942,-0.1704752 -0.05054,0.00505 -0.0919,-0.015501 -0.0919,-0.045679 0,-0.056934 0.141204,-0.079585 0.367596,-0.058971 0.14842,0.013515 0.277865,0.071579 1.995523,0.8951175 0.67874,0.3254251 1.281335,0.6438107 1.3391,0.7075235 0.103169,0.1137897 0.105273,0.1987186 0.118804,4.7952403 0.01305,4.4348667 0.0088,4.6888407 -0.08155,4.8600787 -0.08572,0.162489 -0.258961,0.262291 -1.720474,0.991189 -0.893833,0.445777 -1.672413,0.810185 -1.730178,0.809792 -0.05776,-4.13e-4 -0.158198,-0.02173 -0.223184,-0.0474 z"
     id="path23"
     inkscape:connector-curvature="0" />
  <path
     style="fill:#87939a;fill-opacity:1;stroke-width:0.05206658"
     d="M 6.2082133,7.2654272 C 5.6594444,6.8523756 5.2187635,6.4989477 5.2289225,6.4800319 5.2980333,6.3513481 10.527616,1.7143302 10.632942,1.6883436 c 0.215954,-0.053283 0.399288,0.041028 0.469216,0.2413734 0.04254,0.1218791 0.06364,0.6541658 0.06564,1.6567412 l 0.003,1.4771677 -1.9421627,1.4650769 C 8.1604139,7.334495 7.2683364,7.9988763 7.2462081,8.0051051 7.2240798,8.0113339 6.7569821,7.6784789 6.2082133,7.2654272 Z"
     id="path25"
     inkscape:connector-curvature="0" />
  <path
     style="fill:#87939a;fill-opacity:1;stroke-width:0.05206658"
     d="M 1.7716767,10.904923 C 1.240908,10.424702 1.1893342,10.362006 1.2036546,10.214404 1.2170563,10.076274 1.3837112,9.9045315 2.321134,9.0628114 L 3.4228629,8.0735599 3.6339782,8.2700668 C 3.7500917,8.3781455 4.1303008,8.7231239 4.4788871,9.0366852 L 5.1126808,9.6067967 3.9136178,10.504132 C 2.9847269,11.19928 2.6740981,11.405031 2.5350021,11.417284 2.3718704,11.431655 2.3020597,11.384796 1.7716767,10.904923 Z"
     id="path27"
     inkscape:connector-curvature="0" />
  <path
     style="fill:#87939a;fill-opacity:1;stroke-width:0.05206658"
     d="m 10.881939,14.586852 c -0.154877,-0.03035 -0.225968,-0.113805 -0.09694,-0.113805 0.15789,0 0.37399,-0.22082 0.411298,-0.420283 0.01784,-0.09536 0.02529,-2.857536 0.01658,-6.1381641 C 11.197975,2.3064473 11.191455,1.941469 11.103916,1.8101563 11.046952,1.724706 10.965411,1.6717635 10.89386,1.6737655 l -0.116945,0.00327 0.11892,0.046966 c 0.0654,0.025832 0.141425,0.1051564 0.168932,0.1762791 0.0275,0.071122 0.0646,0.8093127 0.08243,1.6404224 L 11.179607,5.0518116 10.69071,5.413174 C 10.421813,5.6119247 9.5433393,6.2681847 8.7385433,6.8715309 7.9337474,7.474877 7.2567709,7.9685239 7.2341509,7.9685239 7.1888982,7.9685239 5.9352266,7.0441403 5.5386627,6.7183705 5.4014706,6.6056698 5.2892223,6.4940534 5.2892223,6.4703341 c 0,-0.060211 4.2076349,-3.8217998 5.0487387,-4.5135269 0.105168,-0.086491 0.257644,-0.2119528 0.338835,-0.2788045 0.11792,-0.097094 0.188832,-0.1161145 0.352462,-0.094539 0.215109,0.028363 2.084725,0.8859404 2.906456,1.3331667 0.466948,0.2541365 0.481487,0.2676477 0.511806,0.4756498 0.06005,0.4118805 0.04982,9.2390528 -0.01087,9.3862208 -0.07113,0.172497 -0.418842,0.373587 -1.928608,1.11536 -1.346114,0.661368 -1.485134,0.720614 -1.6261,0.692991 z"
     id="path29"
     inkscape:connector-curvature="0" />
  <path
     style="fill:#87939a;fill-opacity:1;stroke-width:0.05206658"
     d="m 10.881939,14.586852 c -0.153948,-0.03017 -0.226285,-0.113805 -0.09843,-0.113805 0.0585,0 0.163665,-0.06244 0.233685,-0.138754 l 0.12731,-0.138755 -0.151494,0.112943 C 10.685486,14.537748 10.94072,14.732695 7.38977,11.556353 6.277794,10.561683 5.1188422,9.5275466 4.8143248,9.2582729 2.5084592,7.2192771 1.1931483,5.9752393 1.1931483,5.8333179 c 0,-0.1697071 1.1210168,-1.1686789 1.3114572,-1.1686789 0.088793,0 2.5588621,1.7766502 4.2812592,3.0793874 2.8049127,2.121498 3.5275523,2.6656516 3.9316063,2.9605276 l 0.459788,0.33555 -0.01743,1.574508 c -0.0096,0.865979 -5.92e-4,1.481586 0.01998,1.368015 0.02058,-0.113571 0.03372,-2.564382 0.0292,-5.4462479 -0.0045,-2.8818651 -0.02088,-4.8397103 -0.03636,-4.350767 l -0.02814,0.8889881 -0.735192,0.5523713 C 8.0185488,7.4232223 7.2603382,7.9703627 7.1957032,7.9459806 7.0859142,7.9045653 5.4873905,6.7051199 5.367993,6.5745663 L 5.2629655,6.4597254 5.6568186,6.096253 C 6.2752365,5.5255382 9.0637093,3.0488102 9.962948,2.271539 10.822556,1.5285232 10.86587,1.5064362 11.22857,1.6261798 c 0.254327,0.083965 2.364253,1.0917788 2.812744,1.3435171 0.31433,0.1764337 0.38108,0.2376139 0.406168,0.3722757 0.05983,0.321162 0.05,9.2914644 -0.01033,9.4365284 -0.07176,0.172506 -0.420682,0.374246 -1.929107,1.11536 -1.346114,0.661368 -1.485134,0.720614 -1.6261,0.692991 z M 11.092472,1.8262722 c -0.04507,-0.085679 -0.119404,-0.1557789 -0.165186,-0.1557789 -0.06175,0 -0.05124,0.025443 0.04073,0.098585 0.113722,0.090433 0.126145,0.146994 0.15023,0.6840074 l 0.02626,0.585422 0.01495,-0.5282285 c 0.01133,-0.4003086 -0.0049,-0.5659532 -0.06699,-0.6840074 z"
     id="path31"
     inkscape:connector-curvature="0" />
  <path
     style="fill:#87939a;fill-opacity:1;stroke-width:0.05206658"
     d="m 10.803169,14.567489 -0.131286,-0.05292 0.118157,-0.04491 c 0.154081,-0.05856 0.151198,-0.09175 -0.0054,-0.06232 -0.165301,0.03106 -0.335217,-0.11185 -3.6569676,-3.075804 C 1.9922321,6.7492639 1.1933096,6.0087967 1.1928982,5.8310102 1.1927392,5.7622997 1.3505919,5.5765017 1.6261368,5.3210734 2.1946485,4.7940667 2.4171988,4.6439298 2.5700998,4.6842568 c 0.1514988,0.039957 3.1645446,2.2450797 5.5811229,4.0845909 0.4910037,0.3737545 1.365358,1.0332435 1.9430093,1.4655333 l 1.050275,0.785978 0.03113,1.042337 c 0.01713,0.573284 0.02894,-0.827714 0.02626,-3.1133312 -0.0027,-2.2856173 -0.01208,-4.0946085 -0.02088,-4.0199806 -0.01724,0.146213 -0.0398,0.1641479 -2.6025009,2.068765 -0.7181116,0.5337059 -1.3262179,0.9703747 -1.3513468,0.9703747 -0.060192,0 -1.4353652,-1.0224966 -1.7324562,-1.2881507 L 5.2629655,6.4731458 5.6571226,6.0980301 c 0.4932826,-0.469452 3.3067507,-2.9716533 4.3436544,-3.8630953 0.652286,-0.560781 0.803315,-0.66729 0.946474,-0.6674718 0.09368,-1.187e-4 0.412709,0.10676 0.708936,0.2375085 0.668744,0.2951695 2.549518,1.2305628 2.69166,1.3386835 0.101501,0.077206 0.105987,0.1582736 0.133602,2.4136618 0.04072,3.3248397 0.01295,7.1392952 -0.05285,7.2601442 -0.02967,0.0545 -0.19049,0.180627 -0.357384,0.280289 -0.347078,0.207263 -2.872919,1.452611 -3.031736,1.494776 -0.05776,0.01534 -0.164106,0.0041 -0.236312,-0.02503 z M 11.14677,2.0002256 C 11.12996,1.9118466 11.06349,1.7956949 10.999067,1.7421095 l -0.117128,-0.097428 0.10488,0.1214131 c 0.07969,0.092258 0.111144,0.2224186 0.130958,0.5420436 0.02347,0.3785916 0.02775,0.392254 0.04282,0.1367029 0.0091,-0.1561602 0.003,-0.3562372 -0.01383,-0.4446157 z"
     id="path33"
     inkscape:connector-curvature="0" />
  <path
     style="fill:#87939a;fill-opacity:1;stroke-width:0.05206658"
     d=""
     id="path35"
     inkscape:connector-curvature="0" />
  <path
     style="fill:#87939a;fill-opacity:1;stroke-width:0.05206658"
     d=""
     id="path37"
     inkscape:connector-curvature="0" />
  <path
     style="fill:#87939a;fill-opacity:1;stroke-width:0.05206658"
     d=""
     id="path39"
     inkscape:connector-curvature="0" />
  <path
     style="fill:#87939a;fill-opacity:1;stroke-width:0.05206658"
     d=""
     id="path41"
     inkscape:connector-curvature="0" />
  <path
     style="fill:#87939a;fill-opacity:1;stroke-width:0.05206658"
     d=""
     id="path43"
     inkscape:connector-curvature="0" />
  <path
     style="fill:#87939a;fill-opacity:1;stroke-width:0.05206658"
     d="m 10.803169,14.56712 c -0.122426,-0.0497 -0.124364,-0.05583 -0.02871,-0.09095 0.08907,-0.0327 0.08216,-0.04192 -0.05252,-0.07006 -0.188846,-0.03944 -0.518736,-0.322749 -4.0920948,-3.5143 C 1.8936383,6.6616588 1.1933624,6.0098164 1.1928233,5.8308332 1.1926181,5.7627099 1.3486166,5.577236 1.6158658,5.3278579 2.1720292,4.8088856 2.4165886,4.6438575 2.5700998,4.683943 2.7364356,4.7273775 5.3891484,6.6761392 9.4640669,9.748457 l 1.6804401,1.266982 0.01392,-1.5013314 c 0.0077,-0.8257322 0.0077,-2.1608662 0,-2.9669636 l -0.01392,-1.4656321 -0.755262,0.570005 c -1.5706207,1.1853649 -3.1125142,2.317007 -3.1569854,2.317007 -0.1154784,0 -1.9430373,-1.4068584 -1.9430373,-1.4957539 0,-0.05844 0.9428001,-0.9195098 3.0239959,-2.7618467 2.2203878,-1.965553 2.4396188,-2.1436765 2.6384208,-2.1436765 0.207482,0 0.85091,0.2793555 2.284004,0.9916397 0.919772,0.4571506 1.156119,0.5959913 1.19774,0.7036055 0.06464,0.1671189 0.09136,9.325343 0.02771,9.498329 -0.02436,0.06622 -0.178978,0.205602 -0.34359,0.309739 -0.321563,0.203428 -2.903732,1.482296 -3.078024,1.524449 -0.05776,0.01397 -0.164106,0.0014 -0.236312,-0.02788 z M 11.155933,2.1487176 c -0.01207,-0.07847 -0.02227,-0.026521 -0.02266,0.1154425 -3.68e-4,0.1419638 0.0095,0.2061668 0.02195,0.1426736 0.01246,-0.063493 0.01279,-0.1796455 7.14e-4,-0.2581161 z M 11.015869,1.7593999 10.893066,1.6446817 10.99253,1.7815895 c 0.0547,0.075299 0.109966,0.1269224 0.122802,0.1147182 0.01284,-0.012205 -0.03192,-0.073813 -0.09946,-0.1369078 z"
     id="path45"
     inkscape:connector-curvature="0" />
  <path
     style="fill:#87939a;fill-opacity:1;stroke-width:0.05206658"
     d="m 10.776911,14.554427 c -0.07952,-0.05914 -0.08591,-0.07898 -0.02626,-0.08176 0.04332,-0.002 0.0079,-0.03437 -0.07877,-0.0719 -0.202302,-0.08763 -0.622297,-0.45144 -3.9910516,-3.457134 C 2.0862231,6.8441969 1.1934985,6.0130624 1.1925754,5.8340152 1.192198,5.7608137 1.3542671,5.5711532 1.6676783,5.2780284 2.2338494,4.7485042 2.4446518,4.6205339 2.6206153,4.6995358 2.8302245,4.793644 6.131515,7.2262024 9.4267988,9.7146774 10.301661,10.375342 11.051952,10.928896 11.094111,10.9448 c 0.06664,0.02514 0.07665,-0.356825 0.07665,-2.925451 0,-2.3559309 -0.0133,-2.9441674 -0.06563,-2.9040163 -1.3484814,1.0343358 -3.8158248,2.8531912 -3.8704581,2.8531912 -0.063552,0 -1.4056366,-0.9892162 -1.7353867,-1.2791094 L 5.2629663,6.4816654 5.3942506,6.3400569 C 5.6773757,6.0346664 9.7862622,2.3866133 10.530169,1.780158 c 0.407802,-0.332453 0.448507,-0.3221431 2.300595,0.582709 1.304122,0.6371396 1.555531,0.7778694 1.601386,0.8963994 0.06487,0.1676516 0.09583,9.2499656 0.03231,9.4736006 -0.02785,0.09802 -0.141853,0.208194 -0.356706,0.344706 -0.364052,0.231307 -2.89829,1.480168 -3.094537,1.524974 -0.07887,0.01801 -0.173219,-0.0012 -0.236312,-0.04812 z M 11.154123,2.2286691 c -0.01677,-0.041182 -0.02921,-0.028948 -0.03172,0.031189 -0.0023,0.05442 0.01013,0.084909 0.02758,0.067756 0.01745,-0.017155 0.01931,-0.061679 0.0041,-0.098944 z"
     id="path34"
     inkscape:connector-curvature="0" />
  <path
     style="fill:#87939a;fill-opacity:1;stroke-width:0.05206658"
     d="M 2.1533518,11.211365 C 1.6246748,10.77436 1.245662,10.368864 1.245662,10.240253 c 0,-0.09731 0.1195303,-0.2462925 0.4594955,-0.5727305 0.6555499,-0.6294646 1.6729059,-1.544129 1.7174923,-1.544129 0.020807,0 0.3724966,0.3057718 0.7815321,0.6794929 0.4090354,0.373721 0.7745916,0.7069134 0.8123472,0.7404275 0.054643,0.048504 -0.1038602,0.1898738 -0.7770014,0.6930071 -1.6582505,1.239448 -1.7272772,1.27171 -2.0861759,0.975044 z"
     id="path36"
     inkscape:connector-curvature="0" />
</svg>
