<?xml version="1.0" encoding="UTF-8" standalone="no"?>
<svg
   xmlns:dc="http://purl.org/dc/elements/1.1/"
   xmlns:cc="http://creativecommons.org/ns#"
   xmlns:rdf="http://www.w3.org/1999/02/22-rdf-syntax-ns#"
   xmlns:svg="http://www.w3.org/2000/svg"
   xmlns="http://www.w3.org/2000/svg"
   xmlns:sodipodi="http://sodipodi.sourceforge.net/DTD/sodipodi-0.dtd"
   xmlns:inkscape="http://www.inkscape.org/namespaces/inkscape"
   width="16"
   height="16"
   viewBox="0 0 16 16"
   version="1.1"
   id="svg14"
   sodipodi:docname="folder_gitlab_dark.svg"
   inkscape:version="0.92.4 (5da689c313, 2019-01-14)">
  <metadata
     id="metadata20">
    <rdf:RDF>
      <cc:Work
         rdf:about="">
        <dc:format>image/svg+xml</dc:format>
        <dc:type
           rdf:resource="http://purl.org/dc/dcmitype/StillImage" />
      </cc:Work>
    </rdf:RDF>
  </metadata>
  <defs
     id="defs18" />
  <sodipodi:namedview
     pagecolor="#ffffff"
     bordercolor="#666666"
     borderopacity="1"
     objecttolerance="10"
     gridtolerance="10"
     guidetolerance="10"
     inkscape:pageopacity="0"
     inkscape:pageshadow="2"
     inkscape:window-width="1920"
     inkscape:window-height="1001"
     id="namedview16"
     showgrid="false"
     inkscape:zoom="14.75"
     inkscape:cx="8"
     inkscape:cy="8"
     inkscape:window-x="-9"
     inkscape:window-y="-9"
     inkscape:window-maximized="1"
     inkscape:current-layer="svg14" />
  <g
     fill="none"
     fill-rule="evenodd"
     id="g12">
    <polygon
       fill="#87939a"
       points="12.298 1 10.702 6 5.298 6 3.702 1 1 8.907 8 14.008 15.001 8.907"
       id="polygon2" />
    <polygon
       fill="#87939a"
       points="10.701 6 8 14.008 14.007 6"
       id="polygon4" />
    <polygon
       fill="#87939a"
       points="8 14.008 15 8.907 15 8.906 14.008 6.002"
       id="polygon6" />
    <polygon
       fill="#87939a"
       points="1 8.906 1 8.907 8 14.008 1.994 6"
       id="polygon8" />
    <polygon
       fill="#87939a"
       points="1.994 6 8.001 14.008 5.299 6"
       id="polygon10" />
  </g>
  <path
     style="fill:#87939a;fill-opacity:1;stroke-width:0.06779661"
     d="M 4.4338983,11.395134 C 2.6254237,10.07458 1.1214379,8.9550242 1.0917077,8.9072327 1.0337002,8.8139855 1.9176991,6.1746633 2.0155124,6.1490635 c 0.030905,-0.00809 1.3505296,1.7108262 2.9324997,3.8198101 1.5819701,2.1089844 2.8532943,3.8328854 2.8251655,3.8308914 -0.028129,-0.002 -1.5308047,-1.084077 -3.3392793,-2.404631 z"
     id="path33"
     inkscape:connector-curvature="0" />
  <path
     style="fill:#87939a;fill-opacity:1;stroke-width:0.06779661"
     d="M 5.1039347,10.163425 C 3.5981265,8.1589369 2.2795641,6.4036736 2.1737959,6.2628403 L 1.9814901,6.0067797 h 1.6562701 1.6562701 l 1.3028859,3.8715678 c 0.7165873,2.1293625 1.2898281,3.8846255 1.2738687,3.9005855 -0.01596,0.01596 -1.2610421,-1.611019 -2.7668502,-3.615508 z"
     id="path35"
     inkscape:connector-curvature="0" />
  <path
     style="fill:#87939a;fill-opacity:1;stroke-width:0.06779661"
     d="M 6.6546784,9.9688038 5.3192807,6.0067797 h 2.6759529 c 1.4717741,0 2.6759524,0.01188 2.6759524,0.0264 0,0.039051 -2.6441419,7.8606803 -2.6640855,7.8806233 -0.00936,0.0094 -0.6179534,-1.765886 -1.3524221,-3.9449992 z"
     id="path37"
     inkscape:connector-curvature="0" />
  <path
     style="fill:#87939a;fill-opacity:1;stroke-width:0.06779661"
     d="m 8.111209,13.718644 c 0.01694,-0.04661 0.6074925,-1.800445 1.3123382,-3.8974103 l 1.2815378,-3.8126646 1.652369,-8.947e-4 c 1.311971,-7.104e-4 1.638784,0.016563 1.586423,0.083851 -0.03627,0.04661 -1.353081,1.8008475 -2.926245,3.8983051 C 9.4444681,12.087288 8.1400257,13.80339 8.1188711,13.80339 c -0.021154,0 -0.024603,-0.03814 -0.00766,-0.08475 z"
     id="path39"
     inkscape:connector-curvature="0" />
  <path
     style="fill:#87939a;fill-opacity:1;stroke-width:0.06779661"
     d="m 8.2364324,13.762981 c 0.051536,-0.136892 5.7100636,-7.6206081 5.7620346,-7.6206081 0.0745,0 0.961704,2.6960152 0.913086,2.7746795 -0.02252,0.036439 -1.496832,1.1252716 -3.276249,2.4196296 -1.7794174,1.294358 -3.2784009,2.386505 -3.3310749,2.426993 -0.069071,0.05309 -0.087972,0.0529 -0.067797,-6.92e-4 z"
     id="path41"
     inkscape:connector-curvature="0" />
  <path
     style="fill:#87939a;fill-opacity:1;stroke-width:0.06779661"
     d="m 10.75661,5.9220339 c 0.01767,-0.04661 0.364139,-1.129661 0.769923,-2.4067797 0.405784,-1.2771186 0.754215,-2.3220339 0.774291,-2.3220339 0.02008,0 0.115712,0.2364407 0.212525,0.5254238 0.09681,0.288983 0.466161,1.3720339 0.820775,2.4067796 l 0.644752,1.881356 h -1.6272 c -1.2737,0 -1.620219,-0.01841 -1.595066,-0.084746 z"
     id="path43"
     inkscape:connector-curvature="0" />
  <path
     style="fill:#87939a;fill-opacity:1;stroke-width:0.06779661"
     d="m 2.0610169,5.9503632 c 0,-0.059574 1.4402256,-4.3166068 1.5705269,-4.6421788 0.069516,-0.1736928 0.142469,0.016697 0.8442915,2.2033898 0.4225105,1.3164308 0.7689707,2.4163919 0.7699116,2.444358 9.409e-4,0.027966 -0.7152384,0.050847 -1.5915096,0.050847 -0.8762712,0 -1.5932204,-0.025387 -1.5932204,-0.056417 z"
     id="path45"
     inkscape:connector-curvature="0" />
</svg>
