<?xml version="1.0" encoding="UTF-8" standalone="no"?>
<svg
   xmlns:dc="http://purl.org/dc/elements/1.1/"
   xmlns:cc="http://creativecommons.org/ns#"
   xmlns:rdf="http://www.w3.org/1999/02/22-rdf-syntax-ns#"
   xmlns:svg="http://www.w3.org/2000/svg"
   xmlns="http://www.w3.org/2000/svg"
   xmlns:sodipodi="http://sodipodi.sourceforge.net/DTD/sodipodi-0.dtd"
   xmlns:inkscape="http://www.inkscape.org/namespaces/inkscape"
   width="16"
   height="16"
   viewBox="0 0 16 16"
   version="1.1"
   id="svg4"
   sodipodi:docname="folder_oracle.svg"
   inkscape:version="0.92.5 (2060ec1f9f, 2020-04-08)">
  <metadata
     id="metadata10">
    <rdf:RDF>
      <cc:Work
         rdf:about="">
        <dc:format>image/svg+xml</dc:format>
        <dc:type
           rdf:resource="http://purl.org/dc/dcmitype/StillImage" />
      </cc:Work>
    </rdf:RDF>
  </metadata>
  <defs
     id="defs8" />
  <sodipodi:namedview
     pagecolor="#ffffff"
     bordercolor="#666666"
     borderopacity="1"
     objecttolerance="10"
     gridtolerance="10"
     guidetolerance="10"
     inkscape:pageopacity="0"
     inkscape:pageshadow="2"
     inkscape:window-width="1920"
     inkscape:window-height="1001"
     id="namedview6"
     showgrid="false"
     inkscape:zoom="45.254834"
     inkscape:cx="9.3564116"
     inkscape:cy="6.2627987"
     inkscape:window-x="-9"
     inkscape:window-y="-9"
     inkscape:window-maximized="1"
     inkscape:current-layer="svg4" />
  <path
     fill="#9AA7B0"
     fill-opacity=".8"
     fill-rule="evenodd"
     d="M1,13 L15,13 L15,4 L7.98457,4 L6.69633,2.71149 C6.22161957,2.28559443 5.61570121,2.03457993 4.97888,2 L1.05128,2 C1.02295884,2 1,2.02295884 1,2.05128 L1,13 Z"
     id="path2" />
  <path
     style="fill:#87939a;fill-opacity:1;stroke-width:0.06779661"
     d="M 1.0169492,7.4983051 V 2.0067797 h 1.9966629 c 1.2212364,0 2.1361893,0.029628 2.3559322,0.076289 0.6429451,0.136526 1.0548486,0.4052591 1.8496385,1.2067371 L 7.9637892,4.040678 H 11.47342 14.983051 V 8.5152542 12.989831 H 8 1.0169492 Z"
     id="path23"
     inkscape:connector-curvature="0" />
  <g
     id="g4"
     transform="matrix(0.0457486,0,0,0.11892054,-19.284299,6.0391643)">
    <path
       style="fill:#ea1b22;stroke-width:1.52588809"
       inkscape:connector-curvature="0"
       d="m 603.23877,83.603211 c -42.37578,0 -76.76384,-14.732445 -76.76384,-32.937529 0,-18.205126 34.38806,-32.990169 76.76384,-32.990169 h 89.22148 c 42.38754,0 76.75113,14.785043 76.75113,32.990169 0,18.205084 -34.36359,32.937529 -76.75113,32.937529 z M 690.4756,71.9751 c 27.4544,0 49.68948,-9.52349 49.68948,-21.309418 0,-11.785978 -22.23508,-21.362049 -49.68948,-21.362049 h -85.26489 c -27.44168,0 -49.6895,9.576071 -49.6895,21.362049 0,11.785928 22.24782,21.309418 49.6895,21.309418 z"
       id="path2-0"
       sodipodi:nodetypes="ssssssssssssss" />
  </g>
</svg>
