<svg xmlns="http://www.w3.org/2000/svg" width="16" height="16" viewBox="0 0 16 16"><path fill="#9AA7B0" fill-opacity=".8" fill-rule="evenodd" d="M1 13h14V4H7.985L6.696 2.711A2.8 2.8 0 004.98 2H1.05a.051.051 0 00-.05.051V13z"/><path d="M1.017 7.498V2.007h1.997c1.22 0 2.136.03 2.356.076.642.137 1.054.405 1.85 1.207l.744.75h7.02v8.95H1.016z" fill="#87939a" stroke-width=".068"/><path d="M3.738 15.932c-.107-.044-.04-.222.246-.652l.173-.26-.098-.063a5.156 5.156 0 01-.363-.29c-.146-.124-.28-.226-.3-.226-.054 0 .157-.215.269-.274.144-.076.52-.063 1.117.041.533.092.76.094.873.005.083-.065.372-.433.507-.648.3-.474.838-.988 1.246-1.19.215-.106 1.017-.418 1.79-.695 1.422-.51 1.961-.796 2.427-1.287.27-.285.44-.55.885-1.382.444-.83.62-1.1.91-1.39a1.96 1.96 0 011.357-.576c.256 0 .531-.064.726-.167.25-.132.37-.163.454-.117.065.035.07.068.057.37-.024.551-.143.726-.956 1.403-.293.245-.447.448-.517.686-.03.103-.144.624-.252 1.157-.305 1.5-.562 2.304-.927 2.9-.187.305-.536.685-.718.78l-.115.06.023-.33c.03-.421-.02-.419-.183.008-.243.635-.524 1.084-.908 1.451-.371.355-.871.608-1.272.646l-.184.017.146-.172c.191-.225.499-.772.637-1.134.18-.473.314-1.28.212-1.28-.018 0-.061.076-.095.17-.215.594-.28.74-.375.843l-.106.115-.488-.02a11.244 11.244 0 01-1.006-.1c-.666-.1-1.352-.11-1.674-.02-.302.082-.666.282-1.171.642-.387.277-1.09.678-1.486.849-.26.112-.73.183-.861.13z" fill="#fff" stroke-width=".036"/></svg>