<?xml version="1.0" encoding="UTF-8" standalone="no"?>
<svg
   xmlns:dc="http://purl.org/dc/elements/1.1/"
   xmlns:cc="http://creativecommons.org/ns#"
   xmlns:rdf="http://www.w3.org/1999/02/22-rdf-syntax-ns#"
   xmlns:svg="http://www.w3.org/2000/svg"
   xmlns="http://www.w3.org/2000/svg"
   xmlns:sodipodi="http://sodipodi.sourceforge.net/DTD/sodipodi-0.dtd"
   xmlns:inkscape="http://www.inkscape.org/namespaces/inkscape"
   style="enable-background:new 0 0 512 512;"
   version="1.1"
   width="16"
   height="16"
   viewBox="0 0 16 16"
   xml:space="preserve"
   id="svg28"
   sodipodi:docname="folder_docker.svg"
   inkscape:version="0.92.4 (5da689c313, 2019-01-14)"><metadata
     id="metadata34"><rdf:RDF><cc:Work
         rdf:about=""><dc:format>image/svg+xml</dc:format><dc:type
           rdf:resource="http://purl.org/dc/dcmitype/StillImage" /></cc:Work></rdf:RDF></metadata><defs
     id="defs32" /><sodipodi:namedview
     pagecolor="#ffffff"
     bordercolor="#666666"
     borderopacity="1"
     objecttolerance="10"
     gridtolerance="10"
     guidetolerance="10"
     inkscape:pageopacity="0"
     inkscape:pageshadow="2"
     inkscape:window-width="1920"
     inkscape:window-height="1001"
     id="namedview30"
     showgrid="false"
     inkscape:zoom="18.552399"
     inkscape:cx="-21.092865"
     inkscape:cy="2.9570253"
     inkscape:window-x="-9"
     inkscape:window-y="-9"
     inkscape:window-maximized="1"
     inkscape:current-layer="svg28" /><g
     id="_x39_7-docker"
     transform="matrix(0.02966801,0,0,0.03451282,0.73970457,-0.74755298)"><g
       id="g24"><g
         id="g22"><rect
           height="43.193001"
           style="fill:#aeb9c0"
           width="47.506001"
           x="229.99899"
           y="147.22501"
           id="rect2" /><rect
           height="42.689999"
           style="fill:#aeb9c0"
           width="47.506001"
           x="229.99899"
           y="199.11501"
           id="rect4" /><rect
           height="43.193001"
           style="fill:#aeb9c0"
           width="47.506001"
           x="173.869"
           y="147.22501"
           id="rect6" /><rect
           height="42.691002"
           style="fill:#aeb9c0"
           width="47.507"
           x="286.20001"
           y="199.043"
           id="rect8" /><rect
           height="43.625"
           style="fill:#aeb9c0"
           width="47.506001"
           x="229.99899"
           y="94.974998"
           id="rect10" /><rect
           height="43.193001"
           style="fill:#aeb9c0"
           width="47.505001"
           x="117.738"
           y="147.22501"
           id="rect12" /><rect
           height="42.691002"
           style="fill:#aeb9c0"
           width="47.506001"
           x="173.869"
           y="199.043"
           id="rect14" /><path
           d="m 476.441,219.095 c -10.35,-6.972 -34.21,-9.487 -52.537,-6.036 -2.371,-17.249 -12.003,-32.27 -29.538,-45.782 l -10.062,-6.685 -6.685,10.062 c -13.225,19.98 -16.817,52.896 -2.658,74.602 -6.252,3.377 -18.545,7.978 -34.786,7.689 H 27.757 c -6.252,36.511 4.169,83.945 31.624,116.501 26.663,31.551 66.623,47.579 118.872,47.579 113.124,0 196.851,-52.104 236.021,-146.76 15.381,0.288 48.584,0.073 65.618,-32.483 1.078,-1.797 4.743,-9.488 6.107,-12.291 z"
           style="fill:#aeb9c0"
           id="path16"
           inkscape:connector-curvature="0" /><polygon
           points="61.68,241.734 109.186,241.734 109.186,199.043 109.113,199.043 61.68,199.043 "
           style="fill:#aeb9c0"
           id="polygon18" /><rect
           height="42.691002"
           style="fill:#aeb9c0"
           width="47.505001"
           x="117.738"
           y="199.043"
           id="rect20" /></g></g></g><g
     id="Layer_1"
     transform="matrix(0.02966801,0,0,0.03451282,0.73970457,-0.74755298)" /><path
     style="fill:#aeb9c0;fill-opacity:1;stroke-width:0.06942123"
     d="M 4.859034,13.4903 C 3.6605543,13.19033 2.7304238,12.471936 2.1913501,11.429893 1.7467673,10.570502 1.4575112,9.1712957 1.5524042,8.3391428 L 1.5930282,7.982902 h 4.8738064 c 5.5522614,0 5.5488454,3.438e-4 5.3030424,-0.5342422 -0.08521,-0.1853032 -0.116077,-0.4202971 -0.116721,-0.888388 -7.21e-4,-0.5326935 0.02656,-0.7035692 0.1674,-1.0482534 0.300296,-0.7348996 0.298934,-0.7341435 0.68418,-0.3798969 0.326963,0.3006538 0.683292,0.9047082 0.753783,1.2778213 0.03443,0.1822459 0.05199,0.1879744 0.597291,0.1948208 0.557382,0.00699 1.08652,0.1817417 1.20061,0.3964942 0.06725,0.1265742 -0.283329,0.8191518 -0.538504,1.0638347 -0.259883,0.2492003 -0.654101,0.4100048 -1.17153,0.4778742 -0.355001,0.046565 -0.364988,0.054341 -0.466371,0.3631511 -0.161477,0.4918712 -0.809922,1.6091242 -1.255588,2.1633412 -0.944484,1.174531 -2.247679,1.991047 -3.7418549,2.344454 -0.6910408,0.163447 -2.4937437,0.20899 -3.0235363,0.07638 z"
     id="path47"
     inkscape:connector-curvature="0" /><path
     style="fill:#aeb9c0;fill-opacity:1;stroke-width:0.06942123"
     d="M 2.6062756,6.8597733 V 6.1858959 H 3.282103 3.9579306 V 6.8597733 7.5336506 H 3.282103 2.6062756 Z"
     id="path49"
     inkscape:connector-curvature="0" /><path
     style="fill:#aeb9c0;fill-opacity:1;stroke-width:0.06942123"
     d="M 4.2797529,6.8597733 V 6.1858959 h 0.6758279 0.675827 V 6.8597733 7.5336506 H 4.9555808 4.2797529 Z"
     id="path51"
     inkscape:connector-curvature="0" /><path
     style="fill:#aeb9c0;fill-opacity:1;stroke-width:0.06942123"
     d="M 5.9532303,5.1002044 V 4.3888896 H 6.6290582 7.3048858 V 5.1002044 5.8115197 H 6.6290582 5.9532303 Z"
     id="path55"
     inkscape:connector-curvature="0" /><path
     style="fill:#aeb9c0;fill-opacity:1;stroke-width:0.06942123"
     d="M 4.2797529,5.1002044 V 4.3888896 h 0.6758279 0.675827 V 5.1002044 5.8115197 H 4.9555808 4.2797529 Z"
     id="path57"
     inkscape:connector-curvature="0" /><path
     style="fill:#aeb9c0;fill-opacity:1;stroke-width:0.06942123"
     d="M 5.9532303,6.8597733 V 6.1858959 H 6.6290582 7.3048858 V 6.8597733 7.5336506 H 6.6290582 5.9532303 Z"
     id="path59"
     inkscape:connector-curvature="0" /><path
     style="fill:#aeb9c0;fill-opacity:1;stroke-width:0.06942123"
     d="M 7.5623439,6.8597733 V 6.1858959 H 8.238171 8.9139985 V 6.8597733 7.5336506 H 8.238171 7.5623439 Z"
     id="path61"
     inkscape:connector-curvature="0" /><path
     style="fill:#aeb9c0;fill-opacity:1;stroke-width:0.06942123"
     d="M 9.2358211,6.8597733 V 6.1858959 H 9.9116488 10.587476 V 6.8597733 7.5336506 H 9.9116488 9.2358211 Z"
     id="path63"
     inkscape:connector-curvature="0" /><path
     style="fill:#aeb9c0;fill-opacity:1;stroke-width:0.06942123"
     d="M 7.5623439,5.1002044 V 4.3888896 H 8.238171 8.9139985 V 5.1002044 5.8115197 H 8.238171 7.5623439 Z"
     id="path65"
     inkscape:connector-curvature="0" /><path
     style="fill:#aeb9c0;fill-opacity:1;stroke-width:0.06942123"
     d="M 7.5623439,3.3031981 V 2.5918835 H 8.238171 8.9139985 V 3.3031981 4.0145132 H 8.238171 7.5623439 Z"
     id="path67"
     inkscape:connector-curvature="0" /><path
     style="fill:#aeb9c0;fill-opacity:1;stroke-width:0.01233719"
     d="M 8.9180828,5.1017613 V 4.3832133 H 8.2432095 c -0.5922613,0 -0.6748732,-0.00244 -0.6748732,-0.019959 0,-0.017524 0.085153,-0.019959 0.6977506,-0.019959 h 0.6977502 v 0.7385076 c 0,0.7296366 -2.587e-4,0.7385078 -0.022874,0.7385078 -0.022595,0 -0.022874,-0.00888 -0.022874,-0.718548 z"
     id="path71"
     inkscape:connector-curvature="0" /><path
     style="fill:#aeb9c0;fill-opacity:1;stroke-width:0.01233719"
     d="m 9.2383618,7.5634535 c 0,-0.026313 0.00762,-0.026612 0.674874,-0.026612 H 10.588108 V 6.8582118 6.1795832 H 9.9132358 c -0.6672482,0 -0.674874,-3.076e-4 -0.674874,-0.026612 0,-0.026323 0.00762,-0.026612 0.69775,-0.026612 h 0.6977502 v 0.731854 0.7318544 H 9.9361118 c -0.6901242,0 -0.69775,-2.713e-4 -0.69775,-0.026613 z"
     id="path73"
     inkscape:connector-curvature="0" /><path
     style="fill:#aeb9c0;fill-opacity:1;stroke-width:0.01233719"
     d="m 7.903732,6.1829161 c 0.1876135,-0.00206 0.4913062,-0.00206 0.6748735,3.2e-6 0.1835671,0.00206 0.030064,0.00374 -0.341115,0.00374 -0.3711806,-1.9e-6 -0.5213716,-0.00167 -0.3337585,-0.00374 z"
     id="path75"
     inkscape:connector-curvature="0" /></svg>
