<svg xmlns="http://www.w3.org/2000/svg" width="16" height="16" viewBox="0 0 16 16"><path fill="#9AA7B0" fill-opacity=".8" fill-rule="evenodd" d="M1 13h14V4H7.985L6.696 2.711A2.8 2.8 0 004.98 2H1.05a.051.051 0 00-.05.051V13z"/><path d="M1.017 7.498V2.007h1.997c1.22 0 2.136.03 2.356.076.642.137 1.054.405 1.85 1.207l.744.75h7.02v8.95H1.016z" fill="#87939a" stroke-width=".068"/><g fill="none" stroke="#fff" stroke-width="12.465" stroke-linecap="round" stroke-linejoin="round"><path d="M323.205 324.227c2.833-23.601 1.984-27.062 19.563-23.239l4.463.392c13.517.615 31.199-2.174 41.587-7 22.362-10.376 35.622-27.7 13.572-23.148-50.297 10.376-53.755-6.655-53.755-6.655 53.111-78.803 75.313-178.836 56.149-203.322-52.27-66.789-142.748-35.206-144.262-34.386l-.482.089c-9.938-2.062-21.06-3.294-33.554-3.496-22.761-.374-40.032 5.967-53.133 15.904 0 0-161.408-66.498-153.899 83.628 1.597 31.936 45.777 241.655 98.47 178.31 19.259-23.163 37.871-42.748 37.871-42.748 9.242 6.14 20.307 9.272 31.912 8.147l.897-.765c-.281 2.876-.157 5.689.359 9.019-13.572 15.167-9.584 17.83-36.723 23.416-27.457 5.659-11.326 15.734-.797 18.367 12.768 3.193 42.305 7.716 62.268-20.224l-.795 3.188c5.325 4.26 4.965 30.619 5.72 49.452.756 18.834 2.017 36.409 5.856 46.771 3.839 10.36 8.369 37.05 44.036 29.406 29.809-6.388 52.6-15.582 54.677-101.107" fill="#000" stroke="#000" stroke-width="37.395" stroke-linecap="butt" stroke-linejoin="miter" transform="matrix(.02341 0 0 .02294 5.813 5.743)"/><path d="M15.235 11.966c-1.178.238-1.26-.153-1.26-.153 1.244-1.808 1.764-4.103 1.316-4.665-1.224-1.532-3.343-.807-3.378-.788l-.011.002a4.283 4.283 0 00-.786-.08c-.533-.009-.937.136-1.244.364 0 0-3.78-1.525-3.604 1.919.038.733 1.072 5.544 2.306 4.09.451-.53.887-.98.887-.98.216.14.475.213.747.187l.02-.018a.79.79 0 00.01.207c-.319.348-.225.41-.86.537-.643.13-.266.361-.02.422.3.073.991.177 1.459-.464l-.019.073c.125.098.212.636.197 1.123-.014.488-.024.823.074 1.085.098.261.196.85 1.031.674.698-.146 1.06-.526 1.11-1.16.036-.45.117-.383.122-.786l.065-.19c.074-.611.012-.808.442-.717l.104.01c.316.014.73-.05.974-.161.523-.238.834-.636.318-.531z" fill="#336791" stroke="none"/><path d="M215.866 286.484c-1.385 49.516.348 99.377 5.193 111.495 4.848 12.118 15.223 35.688 50.9 28.045 29.806-6.39 40.651-18.756 45.357-46.051 3.466-20.082 10.148-75.854 11.005-87.281M173.104 38.256S11.583-27.76 19.092 122.365c1.597 31.938 45.779 241.664 98.473 178.316 19.256-23.166 36.671-41.335 36.671-41.335M260.349 26.207c-5.591 1.753 89.848-34.889 144.087 34.417 19.159 24.484-3.043 124.519-56.153 203.329" transform="matrix(.02341 0 0 .02294 5.813 5.743)"/><path d="M348.282 263.953s3.461 17.036 53.764 6.653c22.04-4.552 8.776 12.774-13.577 23.155-18.345 8.514-59.474 10.696-60.146-1.069-1.729-30.355 21.647-21.133 19.96-28.739-1.525-6.85-11.979-13.573-18.894-30.338-6.037-14.633-82.796-126.849 21.287-110.183 3.813-.789-27.146-99.002-124.553-100.599-97.385-1.597-94.19 119.762-94.19 119.762" stroke-linejoin="bevel" transform="matrix(.02341 0 0 .02294 5.813 5.743)"/><path d="M188.604 274.334c-13.577 15.166-9.584 17.829-36.723 23.417-27.459 5.66-11.326 15.733-.797 18.365 12.768 3.195 42.307 7.718 62.266-20.229 6.078-8.509-.036-22.086-8.385-25.547-4.034-1.671-9.428-3.765-16.361 3.994z" transform="matrix(.02341 0 0 .02294 5.813 5.743)"/><path d="M187.715 274.069c-1.368-8.917 2.93-19.528 7.536-31.942 6.922-18.626 22.893-37.255 10.117-96.339-9.523-44.029-73.396-9.163-73.436-3.193-.039 5.968 2.889 30.26-1.067 58.548-5.162 36.913 23.488 68.132 56.479 64.938" transform="matrix(.02341 0 0 .02294 5.813 5.743)"/><path d="M172.517 141.7c-.288 2.039 3.733 7.48 8.976 8.207 5.234.73 9.714-3.522 9.998-5.559.284-2.039-3.732-4.285-8.977-5.015-5.237-.731-9.719.333-9.996 2.367z" fill="#fff" stroke-width="4.155" stroke-linecap="butt" stroke-linejoin="miter" transform="matrix(.02341 0 0 .02294 5.813 5.743)"/><path d="M331.941 137.543c.284 2.039-3.732 7.48-8.976 8.207-5.238.73-9.718-3.522-10.005-5.559-.277-2.039 3.74-4.285 8.979-5.015 5.239-.73 9.718.333 10.002 2.368z" fill="#fff" stroke-width="2.078" stroke-linecap="butt" stroke-linejoin="miter" transform="matrix(.02341 0 0 .02294 5.813 5.743)"/><path d="M350.676 123.432c.863 15.994-3.445 26.888-3.988 43.914-.804 24.748 11.799 53.074-7.191 81.435" transform="matrix(.02341 0 0 .02294 5.813 5.743)"/></g></svg>