<svg xmlns="http://www.w3.org/2000/svg" width="16" height="16" viewBox="0 0 16 16"><defs><style>.a{fill:#0087be}.b{fill:#1aa6e4}</style></defs><path class="a" d="M8.045 13.519l-5.606-2.714V5.332h.008L1.054 4.65v6.83l6.99 3.415z" fill="#0087be" stroke-width=".157"/><path class="a" d="M8.045 8.065L3.856 6.02H3.85v4.097l4.196 2.032z" fill="#0087be" stroke-width=".157"/><path class="b" d="M15.043 4.65L8.045 1.235 1.054 4.65l1.393.682 5.598-2.733 5.612 2.726 1.386-.675z" fill="#1aa6e4" stroke-width=".157"/><path class="b" d="M12.248 6.014L8.052 3.969 3.856 6.02l4.189 2.045z" fill="#1aa6e4" stroke-width=".157"/><path d="M8.045 8.065l4.203-2.051zm5.612-2.74l1.386-.675zm1.386-.675l-1.385.675-1.41.689-4.203 2.051v4.084l4.203-2.04V8.76L9.43 10.116V8.74l4.227-2.032v4.097l-5.612 2.714v1.376l6.998-3.415z" fill="#0092cf" stroke-width=".157"/></svg>