<?xml version="1.0" encoding="UTF-8" standalone="no"?>
<svg
   xmlns:dc="http://purl.org/dc/elements/1.1/"
   xmlns:cc="http://creativecommons.org/ns#"
   xmlns:rdf="http://www.w3.org/1999/02/22-rdf-syntax-ns#"
   xmlns:svg="http://www.w3.org/2000/svg"
   xmlns="http://www.w3.org/2000/svg"
   xmlns:sodipodi="http://sodipodi.sourceforge.net/DTD/sodipodi-0.dtd"
   xmlns:inkscape="http://www.inkscape.org/namespaces/inkscape"
   width="16"
   height="16"
   viewBox="0 0 16 16"
   version="1.1"
   preserveAspectRatio="xMidYMid"
   id="svg13"
   sodipodi:docname="grafana.svg"
   inkscape:version="0.92.4 (5da689c313, 2019-01-14)">
  <metadata
     id="metadata17">
    <rdf:RDF>
      <cc:Work
         rdf:about="">
        <dc:format>image/svg+xml</dc:format>
        <dc:type
           rdf:resource="http://purl.org/dc/dcmitype/StillImage" />
      </cc:Work>
    </rdf:RDF>
  </metadata>
  <sodipodi:namedview
     pagecolor="#ffffff"
     bordercolor="#666666"
     borderopacity="1"
     objecttolerance="10"
     gridtolerance="10"
     guidetolerance="10"
     inkscape:pageopacity="0"
     inkscape:pageshadow="2"
     inkscape:window-width="1920"
     inkscape:window-height="1001"
     id="namedview15"
     showgrid="false"
     inkscape:zoom="39.21"
     inkscape:cx="8"
     inkscape:cy="7.0903798"
     inkscape:window-x="-9"
     inkscape:window-y="-9"
     inkscape:window-maximized="1"
     inkscape:current-layer="svg13" />
  <defs
     id="defs7">
    <linearGradient
       x1="133.42035"
       y1="326.78147"
       x2="133.42035"
       y2="83.100216"
       id="linearGradient-1"
       gradientTransform="scale(0.95927378,1.0424553)"
       gradientUnits="userSpaceOnUse">
      <stop
         stop-color="#FFF100"
         offset="0%"
         id="stop2" />
      <stop
         stop-color="#F05A28"
         offset="100%"
         id="stop4" />
    </linearGradient>
  </defs>
  <g
     id="g11"
     transform="matrix(0.05766953,0,0,0.05277959,0.63759245,0.66309615)">
    <path
       d="m 255.5901,122.77522 c -0.45983,-4.67497 -1.22622,-10.03968 -2.75899,-16.0175 -1.53278,-5.90118 -3.83194,-12.415467 -7.20404,-19.159674 -3.37211,-6.744206 -7.74051,-13.718329 -13.41178,-20.539174 -2.22252,-2.682355 -4.67496,-5.288071 -7.28067,-7.817149 3.90857,-15.557658 -4.7516,-29.046071 -4.7516,-29.046071 -14.94455,-0.919665 -24.44775,4.674961 -27.97313,7.204039 -0.61311,-0.229916 -1.14958,-0.536471 -1.76269,-0.766387 -2.52908,-0.996304 -5.1348,-1.992607 -7.89379,-2.835633 -2.68236,-0.843025 -5.44135,-1.609412 -8.27698,-2.299161 -2.83563,-0.689748 -5.67127,-1.226219 -8.58354,-1.686051 -0.53647,-0.07664 -0.9963,-0.153278 -1.53277,-0.229917 C 157.64583,8.736813 138.94598,0 138.94598,0 c -20.92237,13.258497 -24.83094,31.805065 -24.83094,31.805065 0,0 -0.0766,0.383194 -0.22992,1.072942 -1.14958,0.306555 -2.29916,0.689748 -3.44874,0.996303 -1.60941,0.459832 -3.21882,1.072942 -4.7516,1.686052 -1.60941,0.613109 -3.14218,1.226219 -4.7516,1.915967 -3.142185,1.379497 -6.284372,2.912272 -9.349921,4.598323 -2.988909,1.686052 -5.90118,3.525381 -8.736813,5.441349 -0.383193,-0.153278 -0.766387,-0.306555 -0.766387,-0.306555 -28.969432,-11.035975 -54.643401,2.222522 -54.643401,2.222522 -2.3758,30.808762 11.572446,50.198356 14.331439,53.723732 -0.689748,1.91597 -1.302858,3.83194 -1.915967,5.74791 -2.145884,6.97412 -3.755297,14.10152 -4.751601,21.53548 -0.153277,1.07294 -0.306554,2.14588 -0.383193,3.21882 C 7.8937872,146.91641 0,173.96987 0,173.96987 c 22.301865,25.67397 48.359026,27.28338 48.359026,27.28338 0,0 0.07664,-0.0766 0.07664,-0.0766 3.295465,5.90118 7.1274,11.4958 11.419168,16.78387 1.839329,2.22253 3.678658,4.29177 5.671265,6.36102 -8.123704,23.29816 1.14958,42.61112 1.14958,42.61112 24.830943,0.91966 41.154991,-10.8827 44.603731,-13.56505 2.45244,0.84302 4.98151,1.60941 7.51059,2.22252 7.66387,1.99261 15.48102,3.14219 23.29817,3.44874 1.91597,0.0766 3.90857,0.15328 5.82454,0.0766 h 0.91967 0.61311 1.22621 l 1.22622,-0.0766 v 0.0766 c 11.72573,16.70724 32.2649,19.08304 32.2649,19.08304 14.638,-15.40438 15.48102,-30.73212 15.48102,-34.02759 0,0 0,-0.0766 0,-0.22991 0,-0.30656 0,-0.45984 0,-0.45984 0,-0.22991 0,-0.45983 0,-0.68974 3.06555,-2.14589 5.97782,-4.44505 8.73681,-6.97413 5.82455,-5.28807 10.95934,-11.34253 15.25111,-17.85682 0.38319,-0.61311 0.76638,-1.22622 1.14958,-1.83933 16.55396,0.91967 28.27968,-10.26958 28.27968,-10.26958 -2.75899,-17.24371 -12.56875,-25.67397 -14.63799,-27.28338 0,0 -0.0766,-0.0766 -0.22992,-0.15328 -0.15328,-0.0766 -0.15328,-0.15328 -0.15328,-0.15328 0,0 0,0 0,0 -0.0766,-0.0766 -0.22991,-0.15328 -0.38319,-0.22992 0.0766,-1.07294 0.15328,-2.06924 0.22992,-3.14218 0.15327,-1.83933 0.15327,-3.7553 0.15327,-5.59463 v -1.3795 -0.68974 -0.3832 c 0,-0.45983 0,-0.30655 0,-0.45983 l -0.0766,-1.14958 -0.0766,-1.53277 c 0,-0.53648 -0.0766,-0.99631 -0.15328,-1.45614 -0.0766,-0.45983 -0.0766,-0.9963 -0.15328,-1.45614 l -0.15327,-1.45613 -0.22992,-1.45614 c -0.30656,-1.91596 -0.61311,-3.75529 -1.07294,-5.67126 -1.76269,-7.43396 -4.67496,-14.48472 -8.43026,-20.84573 -3.83194,-6.36101 -8.58354,-11.95564 -14.02489,-16.70724 -5.3647,-4.7516 -11.41916,-8.58353 -17.70354,-11.41917 -6.36101,-2.83563 -12.95194,-4.674958 -19.54287,-5.517984 -3.29546,-0.459832 -6.59093,-0.613109 -9.88639,-0.536471 h -1.22622 -0.30656 c -0.0766,0 -0.45983,0 -0.38319,0 h -0.53647 l -1.22622,0.07664 c -0.45983,0 -0.91966,0.07664 -1.30286,0.07664 -1.68605,0.153277 -3.3721,0.383193 -4.98151,0.689748 -6.59093,1.226219 -12.79867,3.602017 -18.24002,6.897487 -5.44135,3.29546 -10.19295,7.35731 -14.02488,11.95563 -3.83194,4.59833 -6.82085,9.73312 -8.89009,15.02119 -2.06925,5.28807 -3.21883,10.80606 -3.52538,16.09413 -0.0766,1.30286 -0.0766,2.68235 -0.0766,3.98521 0,0.30656 0,0.68975 0,0.99631 l 0.0766,1.07294 c 0.0766,0.61311 0.0766,1.30286 0.15327,1.91597 0.22992,2.68235 0.76639,5.28807 1.45614,7.74051 1.45614,4.98151 3.7553,9.5032 6.59093,13.33513 2.83563,3.83194 6.28437,6.97412 9.88639,9.5032 3.60202,2.45244 7.5106,4.21513 11.34253,5.36471 3.83194,1.14958 7.66387,1.60941 11.26589,1.60941 0.45983,0 0.91967,0 1.30286,0 0.22992,0 0.45983,0 0.68975,0 0.22992,0 0.45983,0 0.68975,-0.0766 0.38319,0 0.76638,-0.0766 1.14958,-0.0766 0.0766,0 0.22991,0 0.30655,-0.0766 l 0.3832,-0.0766 c 0.22991,0 0.45983,-0.0766 0.68974,-0.0766 0.45984,-0.0766 0.84303,-0.15328 1.30286,-0.22992 0.45984,-0.0766 0.84303,-0.15327 1.22622,-0.30655 0.84303,-0.15328 1.60942,-0.45983 2.3758,-0.68975 1.53278,-0.53647 3.06555,-1.14958 4.36841,-1.83933 1.3795,-0.68975 2.60572,-1.53277 3.83193,-2.29916 0.30656,-0.22992 0.68975,-0.45983 0.99631,-0.76639 1.22622,-0.9963 1.45613,-2.83563 0.45983,-4.06185 -0.84303,-1.07294 -2.3758,-1.37949 -3.60202,-0.68975 -0.30655,0.15328 -0.61311,0.30656 -0.91966,0.45984 -1.07295,0.53647 -2.14589,0.9963 -3.29547,1.37949 -1.14958,0.3832 -2.3758,0.68975 -3.60202,0.91967 -0.61311,0.0766 -1.22622,0.15327 -1.91597,0.22991 -0.30655,0 -0.61311,0.0766 -0.9963,0.0766 -0.30655,0 -0.68975,0 -0.91966,0 -0.30656,0 -0.61311,0 -0.91967,0 -0.38319,0 -0.76639,0 -1.14958,-0.0766 0,0 -0.22991,0 -0.0766,0 h -0.15327 -0.22992 c -0.15328,0 -0.38319,0 -0.53647,-0.0766 -0.3832,-0.0766 -0.68975,-0.0766 -1.07294,-0.15327 -2.83564,-0.3832 -5.67127,-1.22622 -8.35362,-2.45244 -2.759,-1.22622 -5.36471,-2.91227 -7.74051,-5.05816 -2.3758,-2.14588 -4.44505,-4.67496 -6.05446,-7.58723 -1.60941,-2.91227 -2.75899,-6.1311 -3.29546,-9.5032 -0.22992,-1.68605 -0.3832,-3.44874 -0.30656,-5.13479 0,-0.45983 0.0766,-0.91967 0.0766,-1.3795 0,0.15328 0,-0.0766 0,-0.0766 v -0.15328 -0.38319 c 0,-0.22992 0.0766,-0.45983 0.0766,-0.68975 0.0766,-0.91966 0.22991,-1.83933 0.38319,-2.75899 1.30286,-7.35732 4.98152,-14.56136 10.65278,-20.0027 1.45614,-1.3795 2.98891,-2.60572 4.59832,-3.7553 1.60942,-1.14958 3.37211,-2.14588 5.21144,-2.98891 1.83933,-0.84303 3.67865,-1.53277 5.67126,-2.06925 1.91597,-0.53647 3.90857,-0.84302 5.97782,-1.07294 0.9963,-0.0766 1.99261,-0.15327 3.06555,-0.15327 0.30655,0 0.45983,0 0.68975,0 h 0.84302 0.53647 c 0.22992,0 0,0 0.0766,0 h 0.22992 l 0.84302,0.0766 c 2.22253,0.15328 4.36841,0.45984 6.51429,0.99631 4.29177,0.91966 8.5069,2.52907 12.41548,4.67496 7.81714,4.3684 14.48471,11.11261 18.54656,19.23631 2.06925,4.06186 3.52538,8.43026 4.21513,12.95195 0.15328,1.14958 0.30656,2.29916 0.3832,3.44874 l 0.0766,0.84302 0.0766,0.84303 c 0,0.30655 0,0.61311 0,0.84303 0,0.30655 0,0.61311 0,0.84302 v 0.76639 0.84302 c 0,0.53648 -0.0766,1.45614 -0.0766,1.99261 -0.0766,1.22622 -0.22992,2.52908 -0.3832,3.7553 -0.15328,1.22622 -0.38319,2.45244 -0.61311,3.67866 -0.22991,1.22622 -0.53647,2.45243 -0.84302,3.60202 -0.61311,2.3758 -1.3795,4.7516 -2.29917,7.1274 -1.83932,4.59832 -4.29176,9.04336 -7.20403,13.10521 -5.90118,8.12371 -13.94825,14.71464 -23.14489,18.92977 -4.59833,2.06924 -9.42657,3.60202 -14.40808,4.3684 -2.45244,0.45984 -4.98152,0.68975 -7.5106,0.76639 h -0.45983 -0.38319 -0.84303 -1.22622 -0.61311 c 0.30656,0 -0.0766,0 -0.0766,0 h -0.22991 c -1.3795,0 -2.68236,-0.0766 -4.06185,-0.22992 -5.36471,-0.38319 -10.65278,-1.37949 -15.86422,-2.83563 -5.13479,-1.45613 -10.11631,-3.52538 -14.86791,-5.97782 -9.42656,-5.05815 -17.933453,-11.95564 -24.524382,-20.30926 -3.295465,-4.13849 -6.207736,-8.66017 -8.583536,-13.33513 -2.3758,-4.67496 -4.291767,-9.65648 -5.671264,-14.638 -1.379497,-5.05815 -2.222523,-10.19294 -2.605716,-15.40438 l -0.07664,-0.9963 v -0.22992 -0.22991 -0.45983 -0.84303 -0.22992 -0.30655 -0.61311 -1.22622 -0.22992 c 0,0 0,0.0766 0,-0.0766 v -0.45984 c 0,-0.61311 0,-1.30286 0,-1.91597 0.07664,-2.52907 0.306555,-5.21143 0.61311,-7.81714 0.306554,-2.60572 0.766387,-5.28807 1.302858,-7.89379 0.536471,-2.60572 1.14958,-5.21143 1.915968,-7.81715 1.456135,-5.13479 3.295464,-10.11631 5.441348,-14.79127 4.368406,-9.349921 10.039671,-17.70354 16.860516,-24.371108 1.686052,-1.686052 3.448738,-3.218826 5.288068,-4.7516 1.83933,-1.456136 3.7553,-2.835632 5.74791,-4.13849 1.91596,-1.302858 3.98521,-2.452439 6.05446,-3.525381 0.9963,-0.536471 2.06924,-1.072942 3.14218,-1.532774 0.53647,-0.229916 1.07294,-0.459833 1.60942,-0.689749 0.53647,-0.229916 1.07294,-0.459832 1.60941,-0.689748 2.14588,-0.919665 4.3684,-1.686052 6.66757,-2.3758 0.53647,-0.153278 1.14958,-0.306555 1.68605,-0.536471 0.53647,-0.153278 1.14958,-0.306555 1.68605,-0.459832 1.14958,-0.306555 2.29916,-0.61311 3.44874,-0.843026 0.53647,-0.153278 1.14958,-0.229916 1.76269,-0.383194 0.61311,-0.153277 1.14958,-0.229916 1.76269,-0.383193 0.61311,-0.07664 1.14958,-0.229916 1.76269,-0.306555 l 0.84303,-0.153277 0.91966,-0.153278 c 0.61311,-0.07664 1.14958,-0.153277 1.76269,-0.229916 0.68975,-0.07664 1.30286,-0.153277 1.99261,-0.229916 0.53647,-0.07664 1.45613,-0.153278 1.99261,-0.229916 0.38319,-0.07664 0.84302,-0.07664 1.22621,-0.153278 l 0.84303,-0.07664 0.38319,-0.07664 h 0.45984 c 0.68974,-0.07664 1.30285,-0.07664 1.9926,-0.153278 l 0.99631,-0.07664 c 0,0 0.38319,0 0.0766,0 h 0.22992 0.45983 c 0.53647,0 1.14958,-0.07664 1.68605,-0.07664 2.22253,-0.07664 4.52169,-0.07664 6.74421,0 4.44505,0.153277 8.81345,0.689748 13.02858,1.456136 8.5069,1.609412 16.47732,4.291767 23.758,7.893787 7.28068,3.52538 13.71833,7.893787 19.3896,12.645387 0.38319,0.306555 0.68974,0.61311 1.07294,0.919665 0.30655,0.306554 0.68975,0.613109 0.9963,0.919664 0.68975,0.61311 1.30286,1.226219 1.99261,1.839329 0.68975,0.61311 1.30286,1.226219 1.91597,1.839329 0.61311,0.61311 1.22621,1.226219 1.83932,1.915968 2.3758,2.529077 4.59833,5.058155 6.59093,7.663871 3.98522,5.134794 7.20404,10.346234 9.73312,15.251104 0.15328,0.30656 0.30656,0.61311 0.45983,0.91967 0.15328,0.30655 0.30656,0.61311 0.45983,0.91966 0.30656,0.61311 0.61311,1.22622 0.84303,1.83933 0.30656,0.61311 0.53647,1.14958 0.84303,1.76269 0.22991,0.61311 0.53647,1.14958 0.76638,1.76269 0.91967,2.29916 1.83933,4.52169 2.52908,6.59093 1.14958,3.37211 1.99261,6.36101 2.68236,8.96673 0.22991,1.07294 1.22621,1.76269 2.29916,1.60941 1.14958,-0.0766 1.9926,-0.9963 1.9926,-2.14588 0.0766,-2.75899 0,-6.05446 -0.38319,-9.80975 z"
       id="path9"
       style="fill:url(#linearGradient-1);fill-rule:nonzero"
       inkscape:connector-curvature="0" />
  </g>
</svg>
