<?xml version="1.0" encoding="UTF-8" standalone="no"?>
<svg
   xmlns:dc="http://purl.org/dc/elements/1.1/"
   xmlns:cc="http://creativecommons.org/ns#"
   xmlns:rdf="http://www.w3.org/1999/02/22-rdf-syntax-ns#"
   xmlns:svg="http://www.w3.org/2000/svg"
   xmlns="http://www.w3.org/2000/svg"
   xmlns:sodipodi="http://sodipodi.sourceforge.net/DTD/sodipodi-0.dtd"
   xmlns:inkscape="http://www.inkscape.org/namespaces/inkscape"
   width="16"
   height="16"
   viewBox="0 0 16 16"
   preserveAspectRatio="xMinYMin meet"
   version="1.1"
   id="svg96"
   sodipodi:docname="grunt.svg"
   inkscape:version="0.92.4 (5da689c313, 2019-01-14)">
  <metadata
     id="metadata102">
    <rdf:RDF>
      <cc:Work
         rdf:about="">
        <dc:format>image/svg+xml</dc:format>
        <dc:type
           rdf:resource="http://purl.org/dc/dcmitype/StillImage" />
      </cc:Work>
    </rdf:RDF>
  </metadata>
  <defs
     id="defs100" />
  <sodipodi:namedview
     pagecolor="#ffffff"
     bordercolor="#666666"
     borderopacity="1"
     objecttolerance="10"
     gridtolerance="10"
     guidetolerance="10"
     inkscape:pageopacity="0"
     inkscape:pageshadow="2"
     inkscape:window-width="1920"
     inkscape:window-height="1001"
     id="namedview98"
     showgrid="false"
     inkscape:zoom="21.098775"
     inkscape:cx="8"
     inkscape:cy="11.571757"
     inkscape:window-x="-9"
     inkscape:window-y="-9"
     inkscape:window-maximized="1"
     inkscape:current-layer="svg96" />
  <path
     d="m 2.5049962,4.3309558 c 0,0 0.2972589,0.9709183 0.3396593,1.2946148 0.042501,0.323611 -0.7642714,1.0428224 -0.7642714,1.4024282 0,0.3596485 0.169602,1.0069131 1.1038803,1.3306097 0.9342781,0.3236538 1.0615302,1.1506784 1.0615302,1.6542635 0,0.503414 -0.3396594,1.474246 -0.3396594,1.474246 0,0 -0.2122047,2.409342 0.9341265,2.840852 1.1463313,0.431467 0.8916753,0.431467 1.1463313,0.431467 0.2547065,0 2.1230606,0.647479 3.2269914,0.395685 1.1040326,-0.251706 1.4010376,-0.539364 1.4010376,-0.539364 0,0 1.104083,0.07186 1.443742,-0.755336 0.339811,-0.827024 0.552016,-2.553063 0.424562,-3.344223 C 12.355522,9.724956 12.185768,8.6823051 12.949939,8.3226565 13.714462,7.9630078 14.521084,7.5316268 14.39368,7.1719353 14.266276,6.8122868 13.587109,6.3088302 13.587109,6.3088302 c 0,0 -0.169905,-0.8989288 -0.0426,-1.1147265 0.127301,-0.2157548 0.891673,-0.7552919 0.46701,-1.150764 C 13.587161,3.6478249 12.822635,3.6478249 12.822635,3.6478249 l -0.976526,0.071818 c 0,0 -1.655947,-1.2585344 -3.8214588,-1.1866305 C 5.8592396,2.6049164 4.5004,3.7196427 4.5004,3.7196427 c 0,0 -0.7217697,-0.2157549 -1.3587387,0 -0.6369687,0.2158408 -0.7639678,-4.26e-5 -0.6366651,0.6113131 z"
     id="path2"
     inkscape:connector-curvature="0"
     style="fill:#fba919;stroke-width:0.04656333" />
  <path
     d="m 6.384844,9.6850617 c 0,0 -0.8408758,1.0888443 -1.4576562,1.8615773 -0.095427,0.119555 0.6167804,0.127824 0.6167804,0.127824 L 6.384844,9.6850189 Z m 0.4003254,-2.25752 c 0,0 -0.2534922,0.535552 -0.3923311,0.8194399 -0.1506786,0.3086559 -0.7253622,0.4621911 -0.7253622,0.4621911 0,0 0.2978661,-0.2646051 0.2978661,-0.9349235 0,-0.2811884 0.4287104,-0.3930295 0.4287104,-0.3930295 l 0.3911168,0.04628 z"
     id="path4"
     inkscape:connector-curvature="0"
     style="fill:#e78724;stroke-width:0.04656333" />
  <path
     d="m 6.5291473,7.7303269 c 0,0 -0.5193302,0.5235538 -1.4835114,0.2303241 C 4.0812018,7.6675502 3.9823347,6.620357 3.9823347,6.3271704 c 0,-0.2931867 1.829799,0.2931866 2.0771689,0.4188686 0.2473194,0.1256821 0.7168619,0.6281959 0.4695931,0.9842879 z M 2.8868031,2.1361266 c 0,0 0.8901573,-0.1467218 1.4835114,0.2512356 0.5936575,0.3978716 0.7665482,0.7120553 0.7665482,0.7120553 l -1.000257,0.6714754 c 0,0 -0.4833049,-0.1897443 -0.631656,-0.734295 C 3.3565985,2.4920901 3.4555161,2.2408545 2.8868031,2.1361266 Z"
     id="path6"
     inkscape:connector-curvature="0"
     style="fill:#e78724;stroke-width:0.04656333" />
  <path
     d="M 6.2694822,6.2181145 C 5.8862587,5.7573804 5.2546532,5.5564091 4.7503504,5.5231138 c -0.8598497,-0.056949 -1.2680683,0.2005 -1.2680683,0.2005 0,0 1.4082227,0.050479 1.8141138,0.5019567 C 6.0520153,7.0658791 7.1543775,7.1341407 7.3306584,6.9495814 7.126802,6.9581943 6.9026056,6.8726637 6.6625722,6.680477 6.5126526,6.560237 6.3911179,6.3643651 6.2694822,6.2181145 Z m -2.3772611,1.62911 c 0,0 -1.5624431,-0.4549064 -1.265488,-0.915512 0.2966519,-0.460777 0.060515,-0.7118411 0.060515,-0.7118411 0,0 -0.8724483,0.5515783 -0.6501746,1.1379516 0.1366629,0.3598629 0.3658684,0.6204399 1.6245257,1.119997 0.6037264,0.9497071 0.1246716,2.65912 0.1533603,2.667133 0.047814,0.01346 0.8476557,-0.334796 0.7930612,-1.9340806 C 4.5913232,8.7197997 4.5449761,8.0493528 3.8922211,7.8472673 Z M 5.9396893,2.9555667 C 5.2845561,3.2374407 4.3870115,3.6299988 4.3870115,3.6299988 l 0.3532701,0.1496785 c -0.033748,0.046236 -0.049991,0.073833 -0.049991,0.073833 l 0.3625798,0.1396086 c 0,0 0.8850978,0.5430081 1.4273485,0.8921582 C 6.2994358,4.4136583 5.7686706,3.6728926 5.7686706,3.6728926 c 0,0 -0.150375,-0.3403656 0.1710187,-0.7173688 z M 8.1161807,14.44581 c -2.0137706,0 -2.6958215,-0.865762 -2.6958215,-0.865762 l 0.3147149,0.649022 c 0.1189035,0.280759 1.3878826,1.154491 2.3780707,1.154491"
     id="path8"
     inkscape:connector-curvature="0"
     style="fill:#e78724;stroke-width:0.04656333" />
  <path
     d="m 5.6410137,12.995046 c 0,0 0.1852872,0.95892 0.9271441,0.95892 0.6303911,0 0.8161336,-0.810013 0.8161336,-0.977433 z M 4.4064914,11.548825 c 0.065928,-0.153665 0.2967023,-0.774919 0.3708274,-1.340295 0.088849,-0.6771748 0.056466,-1.6675475 0.056466,-1.6675475 0,0 -0.1979365,0.6491929 -0.3710297,0.7540921 -0.1729921,0.1046422 -0.4945376,0.8166114 -0.4945376,0.8166114 0,0 -0.172233,1.059964 -0.2542006,1.416226 0.2268782,0.03845 0.4178322,-0.07473 0.692474,0.02091 z M 2.6150452,7.3473673 c 0,0 0.4202608,-0.1257677 0.5440217,-0.900514 C 3.282676,5.6719783 3.0106146,5.0018312 3.0106146,5.0018312 c 0,0 0.024691,1.0680188 -0.1236092,1.2775174 C 2.7385531,6.4886759 2.6150452,6.5515383 2.4418508,6.8238564 2.2686564,7.0962176 2.5159761,7.2635507 2.6150452,7.3473673 Z"
     id="path10"
     inkscape:connector-curvature="0"
     style="fill:#e78724;stroke-width:0.04656333" />
  <path
     d="M 3.1168688,2.3194004 3.031056,2.2733787 c -0.2529863,0.00725 0.085813,0.046023 0.085813,0.046022 z"
     id="path12"
     inkscape:connector-curvature="0"
     style="fill:#fdc168;stroke-width:0.04656333" />
  <path
     d="m 6.2817268,2.7261423 c 0,0 -0.3954681,-0.055792 -0.5934045,-0.3070703 C 5.4903858,2.1677506 4.9300212,1.6650654 4.0366256,1.6594947 3.1432805,1.6538385 2.2594477,1.8605946 2.2594477,1.8605946 l 0.7715069,0.4128696 c 0.081613,-0.00227 0.2242976,-0.00133 0.4602326,0.00536 0.9682795,0.027253 1.1173391,0.8383373 1.1173391,0.8383373 L 8.020906,2.7192004"
     id="path14"
     inkscape:connector-curvature="0"
     style="fill:#fba919;stroke-width:0.04656333" />
  <path
     d="m 6.6115702,7.2060875 c 0,0 -0.4616493,0.3909299 -1.170618,0.2652049 C 4.7320342,7.3456961 4.3033237,7.0804055 4.2703849,6.6196286 4.2374461,6.1588944 4.4188878,5.9774203 4.4188878,5.9774203 c 0,0 0.7911891,0.2095415 1.1705674,0.4888016 0.3791758,0.2791744 0.6593834,0.7259391 1.0220644,0.7398656 z"
     id="path16"
     inkscape:connector-curvature="0"
     style="fill:#ffffff;stroke-width:0.04656333" />
  <path
     d="m 6.0528753,7.0664361 c 0,0 -0.4003759,0.1548636 -0.847858,0.02871 C 4.6192529,6.9296556 4.5802424,6.4137294 4.5802424,6.4137294 c 0,0 -0.3593923,0.8931438 0.6481507,1.065062 C 6.0364819,7.6166432 6.5144235,7.2200569 6.5144235,7.2200569 L 6.0528753,7.0663933 Z"
     id="path18"
     inkscape:connector-curvature="0"
     style="fill:#c9c9c9;stroke-width:0.04656333" />
  <path
     d="M 6.3373837,2.5366551 C 6.2943255,1.770736 7.0357269,1.1607089 7.2926599,1.1346984 7.306827,1.2644941 7.2782902,1.7707788 7.5351218,1.9264566 7.6099046,1.5129443 7.8627391,1.0570094 8.8611746,0.7583379 8.6473505,1.2386549 8.8325871,1.6409832 8.9208793,1.8274708 9.6026266,1.3034029 10.061999,1.3899619 10.061999,1.3899619 c 0,0 -0.4737417,0.692301 -0.2884044,1.1465646 C 8.4049392,2.4456398 6.3440625,2.6596804 6.3373837,2.5366979 Z M 3.4358338,3.7034026 C 3.1092286,3.4739354 3.3526519,3.2610087 3.3268474,3.0003031 3.312832,2.8615944 3.299879,2.7307274 3.2458917,2.6585234 2.9453441,2.2566665 2.2364261,2.1347126 2.2293424,2.133427 L 1.8966149,2.0782349 2.1168647,1.8600375 C 2.1454017,1.8317562 3.049878,1.1008461 4.4496509,1.4835913 5.4288089,1.7510246 6.1536651,2.6579235 6.1806334,2.6945611 L 5.6896884,2.8900903 C 5.6839203,2.8823771 5.1108558,2.029899 4.2708402,1.8005175 3.5918252,1.6149725 2.9659371,1.7915188 2.6979236,1.9072166 2.9828872,2.0035458 3.3554348,2.1790205 3.5799348,2.4791919 3.6858349,2.6209859 3.7037462,2.7994604 3.721,2.9723214 3.743769,3.2011458 3.765019,3.4171578 3.9638667,3.5570664 Z M 2.5636384,7.0528523 c 0,0 0.4114062,-0.4321097 0.533295,-1.2728466 C 3.1447982,5.4488102 3.0597448,4.7956322 2.9236884,4.5443538 2.94843,5.1621369 2.7629916,5.7800057 2.7629916,5.7800057 c 0,0 -0.1250258,1.1471646 -0.1993532,1.2728466 z"
     id="path20"
     inkscape:connector-curvature="0"
     style="fill:#463014;stroke-width:0.04656333" />
  <path
     d="M 4.7331473,3.2670078 C 4.7328943,3.266108 4.6010885,2.778292 4.2356752,2.5320272 3.7201904,2.1847625 3.0908111,2.3694933 3.0847395,2.3711216 L 2.9933613,2.1320128 C 3.0238207,2.1236596 3.7432126,1.9316845 4.4061884,2.3263851 5.0731613,2.7233142 5.1532061,3.0831341 5.160138,3.122857 L 4.7330967,3.2670078 Z M 3.8558416,6.7429537 c 0,0 -0.2158479,-0.2616911 -0.1770398,-0.5494785 0.019329,-0.1421369 0.097147,-0.2880446 0.235935,-0.3398086 0.258046,-0.095986 0.3723958,0.1516926 0.3723958,0.1516926 0,0 -0.3631365,0.075889 -0.431291,0.7375945 z"
     id="path22"
     inkscape:connector-curvature="0"
     style="fill:#463014;stroke-width:0.04656333" />
  <path
     d="m 6.2258673,7.1418538 c 0.009,0.014227 0.013661,0.022241 0.013661,0.022241 0,0 -0.6732976,0.4279102 -1.3632417,-0.00635 C 4.506927,6.9250706 4.5418391,6.3496243 4.6549746,6.1055878 4.9492482,6.1620654 5.1987938,6.2638365 5.4073557,6.3827053 5.143744,6.183448 4.9130205,6.036769 4.9136277,6.0333838 L 4.6139908,5.9615654 4.0316165,5.7924325 c -0.00744,0.037623 -0.2198451,0.8808454 0.3932923,1.4553919 0.2717074,0.2547921 1.545746,0.8253107 2.1506867,-0.1502356 l -0.3497282,0.044222 z"
     id="path24"
     inkscape:connector-curvature="0"
     style="fill:#463014;stroke-width:0.04656333" />
  <path
     d="m 6.1628232,7.2045449 c 0.379024,0.4885873 1.3354133,0.2093701 1.3189691,-0.3071561 0,0 -0.6390433,0.2986716 -1.203658,-0.2512783 C 5.9484932,6.3250707 4.8922757,5.4398114 3.4598675,5.7339838 4.4490438,5.9182431 5.7586524,6.6835623 6.1627726,7.2045449 Z"
     id="path26"
     inkscape:connector-curvature="0"
     style="fill:#463014;stroke-width:0.04656333" />
  <path
     d="m 3.3260885,8.5834906 c 0.091176,0.044608 0.4127723,0.3266962 0.4129746,0.7485216 0,0.2115555 -0.024843,1.2742608 -0.1485029,1.9234958 0.1859449,0.10233 0.3154739,0.124097 0.5006597,0.228397 C 4.1839142,10.731997 4.2503989,9.6422107 4.2194334,9.2022593 4.1840154,8.7007738 3.8669224,8.364222 3.5729018,8.220714 3.4808148,8.1758489 3.3846294,8.1317552 3.2877356,8.0874045 2.7841412,7.8569516 2.2633438,7.6185286 2.2633438,7.2114868 c 0,-0.3184687 0.146226,-0.4180546 0.3009524,-0.5236395 l 0.016697,-0.011441 c 0.1027126,-0.070276 0.2188835,-0.1499789 0.2877463,-0.2808031 0.1878677,-0.3577203 0.2185801,-1.2690329 0,-1.5003426 C 2.7597531,4.7799916 2.4678069,4.3923613 2.5517477,4.13187 2.5837247,4.032455 2.6576478,3.9587519 2.7780187,3.9065593 c 0.1273533,-0.055278 0.2994345,-0.08326 0.5112346,-0.08326 0.4160105,0 0.8774575,0.107256 1.1155175,0.1711041 0.8506915,0.2283531 1.8772086,0.886716 2.1714316,1.0830594 0.00845,0.00548 0.013408,0.00871 0.014319,0.00922 L 6.7787941,5.1975747 6.6610543,5.0307128 C 6.6537683,5.0203 5.9080154,3.9817628 4.574525,3.6009887 4.3151128,3.5268992 3.8054467,3.4025884 3.3045339,3.4025884 c -0.2981695,0 -0.551257,0.044137 -0.7515715,0.1309956 C 2.3087295,3.6393832 2.1433777,3.8081733 2.0746666,4.0215715 1.9062789,4.5446537 2.4547026,5.1270419 2.473373,5.1456821 2.537328,5.2423541 2.564448,5.9445536 2.416704,6.2255705 2.396465,6.2643935 2.340707,6.3024885 2.270225,6.3506955 2.248114,6.3658215 2.223423,6.3815485 2.197264,6.3983465 1.9888538,6.53157 1.6737341,6.7328411 1.6737341,7.1967891 c 0,0.6347949 0.7596672,0.9789743 1.3701735,1.2557061 0.1001822,0.045636 0.1957608,0.08883 0.2821809,0.1309954 z"
     id="path28"
     inkscape:connector-curvature="0"
     style="fill:#463014;stroke-width:0.04656333" />
  <path
     d="M 3.4358338,3.7034026 C 3.1092286,3.4739354 3.3526519,3.2610087 3.3268474,3.0003031 3.312832,2.8615944 3.299879,2.7307274 3.2458917,2.6585234 2.9453441,2.2566665 2.2364261,2.1347126 2.2293424,2.133427 L 1.8966149,2.0782349 2.1168647,1.8600375 C 2.1454017,1.8317562 3.049878,1.1008461 4.4496509,1.4835913 5.4288089,1.7510246 6.1536651,2.6579235 6.1806334,2.6945611 L 5.6896884,2.8900903 C 5.6839203,2.8823771 5.1108558,2.029899 4.2708402,1.8005175 3.5918252,1.6149725 2.9659371,1.7915188 2.6979236,1.9072166 2.9828872,2.0035458 3.3554348,2.1790205 3.5799348,2.4791919 3.6858349,2.6209859 3.7037462,2.7994604 3.721,2.9723214 3.743769,3.2011458 3.765019,3.4171578 3.9638667,3.5570664 Z"
     id="path30"
     inkscape:connector-curvature="0"
     style="fill:#463014;stroke-width:0.04656333" />
  <path
     d="M 3.4252084,3.7504102 3.4041093,3.7355837 C 3.1619509,3.5653794 3.204908,3.3977463 3.2464989,3.2355124 3.2654223,3.1606516 3.2853576,3.0832627 3.277262,3.0038598 3.2640562,2.8703789 3.2513562,2.7444396 3.2038961,2.6808916 2.9177685,2.298232 2.2262054,2.1756782 2.2193747,2.1744784 L 1.8038702,2.1054454 2.0793215,1.8326986 c 0.00507,-0.00514 0.585815,-0.5016141 1.569375,-0.5016141 0.2681654,0 0.5428578,0.037794 0.8161336,0.1125697 C 5.4867934,1.7227 6.2157986,2.6630227 6.2226797,2.6723215 L 6.252178,2.7122588 5.6714228,2.9435686 5.648148,2.9122872 C 5.5856098,2.8220429 5.0349599,2.0529528 4.2559647,1.8401547 4.0646565,1.7878764 3.863077,1.7614374 3.657045,1.7614374 c -0.3732053,0 -0.6758274,0.086131 -0.8368785,0.1439793 0.2691267,0.102628 0.5955296,0.2753608 0.8019664,0.5511927 0.112326,0.1502357 0.1305409,0.3338523 0.1483512,0.5112983 0.021858,0.2205971 0.042501,0.4280817 0.2252589,0.5565491 l 0.068964,0.048421 -0.639448,0.1775318 z"
     id="path32"
     inkscape:connector-curvature="0"
     style="fill:#463014;stroke-width:0.04656333" />
  <path
     d="M 4.7331473,3.2670078 C 4.7328943,3.266108 4.6010885,2.778292 4.2356752,2.5320272 3.7201904,2.1847625 3.0908111,2.3694933 3.0847395,2.3711216 L 2.9933613,2.1320128 C 3.0238207,2.1236596 3.7432126,1.9316845 4.4061884,2.3263851 5.0731613,2.7233142 5.1532061,3.0831341 5.160138,3.122857 L 4.7330967,3.2670078 Z"
     id="path34"
     inkscape:connector-curvature="0"
     style="fill:#463014;stroke-width:0.04656333" />
  <path
     d="M 4.6976787,3.3240425 4.6848269,3.2760495 C 4.6835114,3.2713358 4.5542354,2.8002317 4.2047603,2.5648939 4.0055589,2.4305988 3.7653738,2.3623801 3.4912378,2.3623801 c -0.2139758,0 -0.3730029,0.04328 -0.3903578,0.048379 L 3.0536735,2.424043 2.9310762,2.1051028 2.9780812,2.0922485 c 0.021048,-0.0057 0.2120025,-0.056135 0.4820905,-0.056135 0.3563058,0 0.6931824,0.088573 0.9746043,0.2559492 0.6837205,0.4068703 0.7672061,0.7831451 0.7742896,0.8246678 l 0.00603,0.032824 z M 3.4912884,2.2787777 c 0.2928569,0 0.5611235,0.076274 0.7751499,0.2204257 0.3103128,0.2093272 0.456286,0.5788314 0.5004067,0.7113268 L 5.1032156,3.096975 C 5.072756,2.9964036 4.9386733,2.6945611 4.3778534,2.360666 4.1095362,2.2009602 3.800893,2.1200576 3.4602217,2.1200576 c -0.1869569,0 -0.3321709,0.025196 -0.4039179,0.040536 l 0.060666,0.1588059 c 0.07033,-0.016026 0.2057285,-0.040623 0.3743186,-0.040622 z M 6.5371417,13.723942 c -0.1461249,0 -0.295235,-0.04491 -0.3985546,-0.120669 -0.079135,-0.05776 -0.3466923,-0.26589 -0.4646851,-0.520853 -0.04402,-0.09535 -0.034153,-0.171619 0.029751,-0.226512 0.044019,-0.03761 0.1354489,-0.08258 0.3209888,-0.08258 l 0.1320084,-1.7e-4 c 0.1573068,-1.72e-4 0.4221328,-1.72e-4 0.6485049,-1.72e-4 h 0.2170622 c 0.1411663,0 0.2423609,0.02588 0.300497,0.07628 0.074732,0.06501 0.050799,0.147708 0.029852,0.191245 -0.036329,0.07628 -0.1868556,0.324424 -0.4416634,0.555135 -0.091227,0.0827 -0.223994,0.128296 -0.3737612,0.128296 z M 6.6902995,7.2332551 6.1627726,7.2045449 c 0,0 0.1348416,0.201314 0.2222232,0.4616769 0.098664,0.2945151 -0.090214,0.7249535 -0.090214,0.7249535 0,0 0.7034029,-0.674475 0.3955177,-1.1579202 z M 6.0317764,14.90363 C 4.154163,14.781419 3.4935653,13.278849 3.4935653,12.965907 l 0.4903379,1.72e-4 -0.2451437,-1.72e-4 h 0.2451437 c 0.00247,0.135281 0.5014188,1.420597 2.0854163,1.523782 z"
     id="path36"
     inkscape:connector-curvature="0"
     style="fill:#463014;stroke-width:0.04656333" />
  <path
     d="M 5.5041482,12.211559 C 5.4748014,12.067964 5.4717665,11.931741 5.5075298,11.797918 5.3648507,11.707067 5.1088286,11.673349 4.9167108,11.6206 4.7596063,11.5364 3.9556666,11.706902 3.3724827,11.10913 2.64171,10.360607 2.795475,9.9137147 2.795475,9.9137147 2.6081134,10.090004 2.4265199,10.022813 2.1409491,10.844866 c -0.2860264,0.822227 0.1342344,1.395402 0.9174799,1.970849 0.3700176,0.271803 0.8930919,0.383816 1.3430533,0.426667 -0.1507292,-0.128125 0.2574388,-0.14098 0.5387595,-0.23011 -0.022415,-0.192401 0.015179,-0.379146 0.1845281,-0.52951 0.1021056,-0.09067 0.2335064,-0.144836 0.369866,-0.18803 0.0076,-0.01492 0.014015,-0.02871 0.021251,-0.04302 a 0.43402321,0.36757602 0 0 1 -0.011739,-0.04015 z"
     id="path38"
     inkscape:connector-curvature="0"
     style="fill:#ffffff;stroke-width:0.04656333" />
  <path
     d="m 4.9364977,13.007258 c -0.016292,-0.0404 -0.028587,-0.08155 -0.04063,-0.122982 -0.013004,-0.04521 -0.077768,-0.173418 0.00203,-0.02704 -0.020492,-0.03749 -0.0339,-0.0761 -0.043766,-0.115012 -1.2684761,-0.0014 -2.372002,-0.738969 -2.1587852,-2.289619 -0.1660602,-0.186702 -0.3986052,0.376488 -0.3986052,0.376488 0,0 -0.635046,1.561578 1.0050132,2.166806 0.5464504,0.201828 1.0294011,0.346536 1.1433461,0.288131 0.2373517,0.04084 0.4515804,-0.09928 0.5319289,-0.19146 -0.015028,-0.02828 -0.02879,-0.05665 -0.040529,-0.08531 z"
     id="path40"
     inkscape:connector-curvature="0"
     style="fill:#c9c9c9;stroke-width:0.04656333" />
  <path
     d="m 5.4812782,11.986719 c 0.00197,-0.130868 0.033545,-0.257664 0.1082782,-0.383945 0.00522,-0.0087 0.011233,-0.01705 0.01685,-0.02554 -0.488112,-0.0035 -1.0502474,-0.04311 -1.528948,-0.205382 -0.5261608,-0.178259 -1.1843299,-0.78803 -1.2974147,-1.5044989 0,0 -0.9908966,0.6475639 -0.69976,2.0336659 0.2733264,1.301514 1.5593566,1.725825 3.0260191,1.797601 C 5.1071119,13.69022 4.9413555,13.400286 4.9937236,13.222755 4.1608925,13.27401 3.2295994,13.001516 2.7800429,12.375034 2.3684342,11.801602 2.4838972,10.822628 2.6530437,10.679162 c 0.4126206,1.102643 1.8973464,1.326796 2.8282345,1.307557 z"
     id="path42"
     inkscape:connector-curvature="0"
     style="fill:#463014;stroke-width:0.04656333" />
  <path
     d="m 5.6349421,11.19736 c -0.2639153,0.655921 -0.8029784,1.186801 -0.8029784,1.186801 0,0 0.7415533,-0.02859 0.7824866,-0.139694 0.030308,-0.08193 0.6696039,-1.349378 0.9150005,-2.8341659 C 6.2986263,9.7314694 5.6575591,11.141182 5.6349421,11.19736 Z"
     id="path44"
     inkscape:connector-curvature="0"
     style="fill:#463014;stroke-width:0.04656333" />
  <path
     d="m 9.8363861,9.6850617 c 0,0 0.8406729,1.0888443 1.4576559,1.8615773 0.09542,0.119555 -0.616983,0.127824 -0.616983,0.127824 L 9.8363861,9.6850189 Z m -0.4004266,-2.25752 c 0,0 0.2534924,0.535552 0.3921283,0.8194399 0.1507797,0.3086559 0.7253622,0.4621911 0.7253622,0.4621911 0,0 -0.297816,-0.2646051 -0.297816,-0.9349235 0,-0.2811884 -0.4286589,-0.3930295 -0.4286589,-0.3930295 l -0.3910156,0.04628 z"
     id="path46"
     inkscape:connector-curvature="0"
     style="fill:#e78724;stroke-width:0.04656333" />
  <path
     d="m 9.6919811,7.7303269 c 0,0 0.5192799,0.5235538 1.4837639,0.2303241 0.964486,-0.2931866 1.063252,-1.340294 1.063252,-1.6334806 0,-0.2931867 -1.829799,0.2931866 -2.07717,0.4188686 C 9.9145078,6.8717211 9.4447632,7.3742349 9.6919811,7.7303269 Z M 13.334376,2.1361266 c 0,0 -0.890158,-0.1467218 -1.483765,0.2512356 -0.593353,0.3978716 -0.766547,0.7120553 -0.766547,0.7120553 l 1.000307,0.6714754 c 0,0 0.483508,-0.1898299 0.631859,-0.7343378 0.1483,-0.544465 0.04943,-0.7957434 0.618146,-0.9004285 z"
     id="path48"
     inkscape:connector-curvature="0"
     style="fill:#e78724;stroke-width:0.04656333" />
  <path
     d="M 9.9516972,6.2181145 C 10.334921,5.7573804 10.966323,5.5564091 11.470829,5.5231138 c 0.8599,-0.056948 1.267917,0.2005 1.267917,0.2005 0,0 -1.408223,0.050479 -1.814216,0.5019567 C 10.16886,7.0658791 9.066903,7.1341407 8.8906222,6.9495814 9.0944278,6.9581947 9.3187757,6.8726632 9.5586071,6.680477 9.7084757,6.560237 9.8301115,6.3643651 9.9516972,6.2181145 Z m 2.3772608,1.62911 c 0,0 1.562292,-0.4549064 1.265539,-0.915512 -0.296652,-0.460777 -0.06072,-0.7118411 -0.06072,-0.7118411 0,0 0.872651,0.5515783 0.650174,1.1379087 C 14.047288,7.717643 13.818084,7.97822 12.559426,8.4777773 11.9557,9.4274843 12.434755,11.136897 12.406217,11.14491 c -0.04787,0.01346 -0.847604,-0.334795 -0.79301,-1.9340804 0.01659,-0.4910728 0.06299,-1.1615197 0.715748,-1.3636051 z M 10.281541,2.9555667 c 0.65493,0.281874 1.552627,0.6744321 1.552627,0.6744321 l -0.353169,0.1496785 c 0.0337,0.046236 0.04999,0.073833 0.04999,0.073833 L 11.16841,3.9931185 c 0,0 -0.885147,0.5430081 -1.4274486,0.8921582 0.1806317,-0.4715755 0.7113966,-1.212341 0.7113966,-1.212341 0,0 0.150678,-0.3403656 -0.170816,-0.7173689 z M 8.1050999,14.44581 c 2.0134161,0 2.6955171,-0.865762 2.6955171,-0.865762 l -0.314512,0.649022 c -0.118903,0.280759 -1.3880341,1.154491 -2.3779187,1.154491"
     id="path50"
     inkscape:connector-curvature="0"
     style="fill:#e78724;stroke-width:0.04656333" />
  <path
     d="m 10.580166,12.995046 c 0,0 -0.18549,0.95892 -0.9271444,0.95892 -0.6302394,0 -0.8160831,-0.810013 -0.8160831,-0.977433 z m 1.234522,-1.446221 c -0.06593,-0.153665 -0.296702,-0.774919 -0.37103,-1.340295 -0.08885,-0.6771748 -0.05626,-1.6675475 -0.05626,-1.6675475 0,0 0.197836,0.6491929 0.370777,0.7540921 0.173245,0.1046422 0.494587,0.8166114 0.494587,0.8166114 0,0 0.172183,1.059964 0.254151,1.416226 -0.226776,0.03845 -0.417528,-0.07473 -0.692221,0.02091 z m 1.791598,-4.2014577 c 0,0 -0.420463,-0.1257677 -0.544022,-0.900514 -0.123609,-0.774875 0.148402,-1.4450221 0.148402,-1.4450221 0,0 -0.02484,1.0680188 0.123609,1.2775174 0.148452,0.2094129 0.272011,0.2721897 0.445154,0.5445078 0.172942,0.2722754 -0.07432,0.4396943 -0.173143,0.5235109 z"
     id="path52"
     inkscape:connector-curvature="0"
     style="fill:#e78724;stroke-width:0.04656333" />
  <path
     d="m 13.10426,2.3194004 0.08597,-0.046023 c 0.253036,0.00725 -0.08597,0.046023 -0.08597,0.046023 z"
     id="path54"
     inkscape:connector-curvature="0"
     style="fill:#fdc168;stroke-width:0.04656333" />
  <path
     d="m 9.9392498,2.7261423 c 0,0 0.3957212,-0.055792 0.5934562,-0.3070703 0.197833,-0.2513214 0.758452,-0.7540066 1.651898,-0.7596201 0.893345,-0.00566 1.777178,0.2010999 1.777178,0.2010999 l -0.771557,0.4128695 c -0.08162,-0.00227 -0.224298,-0.00133 -0.460436,0.00536 -0.968127,0.027252 -1.117187,0.8383373 -1.117187,0.8383373 L 8.2003239,2.7191576"
     id="path56"
     inkscape:connector-curvature="0"
     style="fill:#fba919;stroke-width:0.04656333" />
  <path
     d="m 9.6096093,7.2060875 c 0,0 0.4616487,0.3909299 1.1704657,0.2652049 0.708969,-0.1255963 1.13763,-0.3908869 1.170617,-0.8516638 0.03289,-0.4607342 -0.14835,-0.6422083 -0.14835,-0.6422083 0,0 -0.791442,0.2095415 -1.170567,0.4888016 -0.379176,0.27926 -0.6593839,0.7259391 -1.0221657,0.7398656 z"
     id="path58"
     inkscape:connector-curvature="0"
     style="fill:#ffffff;stroke-width:0.04656333" />
  <path
     d="m 10.168152,7.0664361 c 0,0 0.400527,0.1548636 0.847857,0.02871 0.585918,-0.1654907 0.624928,-0.6814169 0.624928,-0.6814169 0,0 0.35919,0.8931438 -0.648354,1.065062 C 10.184647,7.6166432 9.7066039,7.2200569 9.7066039,7.2200569 L 10.168152,7.0663933 Z"
     id="path60"
     inkscape:connector-curvature="0"
     style="fill:#c9c9c9;stroke-width:0.04656333" />
  <path
     d="M 12.785294,3.7034026 C 13.1119,3.4739354 12.868674,3.2610087 12.894483,3.0003031 12.908243,2.8615944 12.921203,2.7307274 12.975233,2.6585234 13.27578,2.2566665 13.984698,2.1347126 13.991984,2.133427 L 14.324816,2.0782344 14.104465,1.860037 C 14.07593,1.8317559 13.171452,1.1008461 11.771427,1.4835913 10.792472,1.7510246 10.067666,2.6579235 10.040698,2.6945611 l 0.490793,0.1955292 c 0.0059,-0.00772 0.579034,-0.8601913 1.419051,-1.0895728 0.679014,-0.185545 1.304802,-0.009 1.572714,0.1066991 -0.284812,0.096329 -0.657511,0.2718039 -0.882011,0.5719753 -0.105898,0.141794 -0.12366,0.3202685 -0.140864,0.4931295 -0.02277,0.2288244 -0.04422,0.4448364 -0.243119,0.584745 z m 0.872044,3.3494497 c 0,0 -0.411204,-0.4321097 -0.533092,-1.2728466 -0.04787,-0.3311955 0.03704,-0.9843735 0.173042,-1.2356519 -0.02474,0.6177831 0.160899,1.2356519 0.160899,1.2356519 0,0 0.125027,1.1471646 0.199151,1.2728466 z"
     id="path62"
     inkscape:connector-curvature="0"
     style="fill:#463014;stroke-width:0.04656333" />
  <path
     d="m 11.488082,3.2670078 c 2.03e-4,-8.998e-4 0.132009,-0.4887158 0.497473,-0.7349806 0.515434,-0.3472647 1.144864,-0.1625339 1.150732,-0.1609056 l 0.09164,-0.2391088 c -0.03056,-0.00835 -0.749854,-0.2003283 -1.413032,0.1943723 -0.666975,0.3969291 -0.746816,0.756749 -0.75395,0.7964719 z m 0.877256,3.4759459 c 0,0 0.215848,-0.2616911 0.176837,-0.5494785 -0.01913,-0.1421369 -0.09689,-0.2880446 -0.235783,-0.3398086 -0.257996,-0.095986 -0.372396,0.1516926 -0.372396,0.1516926 0,0 0.363188,0.075889 0.431342,0.7375945 z"
     id="path64"
     inkscape:connector-curvature="0"
     style="fill:#463014;stroke-width:0.04656333" />
  <path
     d="m 9.9953622,7.1418538 c -0.00901,0.014227 -0.013663,0.022241 -0.013663,0.022241 0,0 0.6729928,0.4279102 1.3629888,-0.00635 C 11.71425,6.925062 11.679338,6.3496157 11.566,6.1055792 11.271878,6.1620562 11.022383,6.263828 10.813669,6.3826967 11.077331,6.1834394 11.308106,6.0367604 11.307295,6.0333752 l 0.29984,-0.071818 0.582274,-0.1690473 c 0.0075,0.037623 0.219845,0.8808455 -0.393496,1.4554348 -0.271707,0.2547491 -1.545745,0.8252676 -2.1504838,-0.1502786 l 0.3499305,0.044137 z"
     id="path66"
     inkscape:connector-curvature="0"
     style="fill:#463014;stroke-width:0.04656333" />
  <path
     d="M 10.058205,7.2045449 C 9.6791801,7.6931322 8.723044,7.413915 8.7395387,6.8973888 c 0,0 0.6388411,0.2986716 1.2034557,-0.2512783 C 10.272585,6.3250707 11.329054,5.4398114 12.761363,5.7339838 11.772236,5.9182431 10.462577,6.6835623 10.058205,7.2045449 Z"
     id="path68"
     inkscape:connector-curvature="0"
     style="fill:#463014;stroke-width:0.04656333" />
  <path
     d="m 12.895294,8.5834906 c -0.09128,0.044608 -0.413026,0.3266962 -0.413026,0.7485216 -2.03e-4,0.2115555 0.0247,1.2742608 0.148503,1.9234958 -0.185995,0.10233 -0.315525,0.124097 -0.50071,0.228397 -0.09269,-0.751908 -0.159382,-1.8416943 -0.128163,-2.2816457 0.03536,-0.5014855 0.352308,-0.8380373 0.646278,-0.9815453 0.09208,-0.044865 0.188323,-0.088959 0.28542,-0.1333095 0.503594,-0.2304529 1.024392,-0.4688759 1.024392,-0.8759177 0,-0.3184687 -0.146328,-0.4180546 -0.301054,-0.5236395 l -0.01649,-0.011441 C 13.537727,6.6061304 13.421302,6.5264276 13.352642,6.3956034 13.164723,6.0378831 13.13391,5.1265705 13.35244,4.8952608 13.461425,4.7799915 13.753575,4.3923612 13.669633,4.1318699 13.637449,4.0324553 13.563479,3.9587518 13.443161,3.9065592 c -0.127404,-0.055278 -0.299182,-0.083259 -0.511235,-0.083259 -0.415758,0 -0.877458,0.107256 -1.115316,0.1711041 -0.850692,0.2283529 -1.8771575,0.8867158 -2.171633,1.0830592 -0.0084,0.00548 -0.013255,0.00871 -0.014165,0.00922 l -0.1884236,0.11089 0.1177402,-0.1668618 c 0.00751,-0.010413 0.7530884,-1.04895 2.0865284,-1.4297242 0.259464,-0.07409 0.769079,-0.1984002 1.269992,-0.1984002 0.298221,0 0.551004,0.044137 0.751571,0.1309955 0.244284,0.1057992 0.409535,0.2745893 0.478347,0.4879874 0.168388,0.5230824 -0.380087,1.1054705 -0.398808,1.1241107 -0.06391,0.096673 -0.09097,0.7988716 0.05652,1.0798885 0.02033,0.038823 0.07605,0.076918 0.146732,0.125125 0.02206,0.015126 0.04654,0.030853 0.07291,0.047651 0.208461,0.1332238 0.523429,0.334495 0.523429,0.7984431 0,0.6347948 -0.759668,0.9789743 -1.369972,1.2557061 -0.100233,0.045636 -0.195963,0.08883 -0.28213,0.1309955 z"
     id="path70"
     inkscape:connector-curvature="0"
     style="fill:#463014;stroke-width:0.04656333" />
  <path
     d="M 11.989046,3.6287132 C 11.868221,3.4553809 11.559172,3.1207144 10.847015,2.8266279 10.052184,2.4985606 9.1323252,2.3320415 8.1125376,2.3316558 v -2.142e-4 h -0.00395 v 8.57e-5 C 7.0886517,2.3319558 6.1685912,2.4985177 5.3740121,2.8265422 4.6618052,3.1206716 4.3529596,3.4552952 4.2320322,3.6286276 l -0.051913,0.058149 0.6098993,0.1149693 0.019329,-0.020697 0.01022,-0.018941 c 0.00941,-0.034151 0.091176,-0.218454 0.7711019,-0.4992567 0.7269308,-0.3002571 1.5747889,-0.4525067 2.5197431,-0.4527639 0.9451567,2.572e-4 1.7926606,0.1525068 2.5194905,0.4527639 0.680026,0.2808027 0.762045,0.465105 0.771354,0.4992144 l 0.01013,0.018983 0.01913,0.020697 0.610052,-0.1149693 -0.05161,-0.058064 z"
     id="path72"
     inkscape:connector-curvature="0"
     style="fill:#463014;stroke-width:0.04656333" />
  <path
     d="M 12.785294,3.7034026 C 13.1119,3.4739354 12.868674,3.2610087 12.894483,3.0003031 12.908243,2.8615944 12.921203,2.7307274 12.975233,2.6585234 13.27578,2.2566665 13.984698,2.1347126 13.991984,2.133427 L 14.324816,2.0782344 14.104465,1.860037 C 14.07593,1.8317559 13.171452,1.1008461 11.771427,1.4835913 10.792472,1.7510246 10.067666,2.6579235 10.040698,2.6945611 l 0.490793,0.1955292 c 0.0059,-0.00772 0.579034,-0.8601913 1.419051,-1.0895728 0.679014,-0.185545 1.304802,-0.009 1.572714,0.1066991 -0.284812,0.096329 -0.657511,0.2718039 -0.882011,0.5719753 -0.105898,0.141794 -0.12366,0.3202685 -0.140864,0.4931295 -0.02277,0.2288244 -0.04422,0.4448364 -0.243119,0.584745 z"
     id="path74"
     inkscape:connector-curvature="0"
     style="fill:#463014;stroke-width:0.04656333" />
  <path
     d="m 12.156776,3.5730926 0.06871,-0.048464 C 12.408397,3.3961607 12.42889,3.188676 12.451,2.968079 12.46871,2.7905901 12.48697,2.6069306 12.59925,2.4567807 12.805585,2.1810344 13.132191,2.0082591 13.401216,1.9055024 13.240165,1.8477394 12.937492,1.7616087 12.564236,1.7616087 c -0.206133,0 -0.407308,0.026396 -0.598717,0.078717 -0.779198,0.2127981 -1.329798,0.9818882 -1.392134,1.0721325 l -0.02337,0.031281 -0.5807547,-0.2313098 0.029546,-0.039936 c 0.00684,-0.0093 0.7356847,-0.9495785 1.7576477,-1.2286672 0.273276,-0.074775 0.547968,-0.1125268 0.816336,-0.1125268 0.98356,0 1.564366,0.4966005 1.569325,0.5016141 l 0.275502,0.2727467 -0.415657,0.06899 c -0.0068,0.00121 -0.698394,0.1237108 -0.984723,0.5064561 -0.04746,0.06359 -0.05991,0.1894016 -0.07336,0.3229681 -0.0079,0.079446 0.01184,0.1568348 0.03101,0.2316527 0.04154,0.1622339 0.0845,0.3300385 -0.157812,0.5000713 l -0.02105,0.014827 z"
     id="path76"
     inkscape:connector-curvature="0"
     style="fill:#463014;stroke-width:0.04656333" />
  <path
     d="m 11.488082,3.2670078 c 2.03e-4,-8.998e-4 0.132009,-0.4887158 0.497473,-0.7349806 0.515434,-0.3472647 1.144864,-0.1625339 1.150732,-0.1609056 l 0.09164,-0.2391088 c -0.03056,-0.00835 -0.749854,-0.2003283 -1.413032,0.1943723 -0.666975,0.3969291 -0.746816,0.756749 -0.75395,0.7964719 z"
     id="path78"
     inkscape:connector-curvature="0"
     style="fill:#463014;stroke-width:0.04656333" />
  <path
     d="m 11.006396,3.1495533 0.0058,-0.032824 c 0.0073,-0.041523 0.09077,-0.4177117 0.774342,-0.8246678 0.28122,-0.1673761 0.618197,-0.2559064 0.974503,-0.2559064 0.27024,0 0.461194,0.050308 0.482344,0.056092 l 0.04691,0.012854 -0.122496,0.3189402 -0.0473,-0.013284 c -0.01771,-0.00506 -0.176635,-0.048379 -0.390509,-0.048379 -0.274085,0 -0.514117,0.068133 -0.713319,0.202514 C 11.6671,2.8003164 11.537774,3.2714206 11.53656,3.2760484 L 11.5237,3.3239564 Z M 13.10426,2.3194004 13.16513,2.1605946 c -0.07179,-0.015427 -0.217163,-0.040536 -0.404121,-0.040536 -0.340619,0 -0.649364,0.080988 -0.917529,0.2406084 -0.561024,0.3339803 -0.695107,0.6357371 -0.725515,0.7363085 l 0.336623,0.1135552 c 0.04401,-0.132581 0.189841,-0.5020854 0.500305,-0.7113268 0.214229,-0.1441938 0.482193,-0.2204257 0.774999,-0.2204257 0.168387,0 0.304038,0.024597 0.374419,0.040623 z M 9.3104783,13.595646 C 9.0557209,13.364978 8.9049918,13.116743 8.8685618,13.040511 c -0.020846,-0.04345 -0.044526,-0.12624 0.030155,-0.191287 0.058238,-0.05036 0.159179,-0.07623 0.3002947,-0.07623 h 0.2172143 c 0.2263722,0 0.4910466,0 0.6484552,1.72e-4 l 0.132058,1.7e-4 c 0.185388,0 0.276767,0.04491 0.320736,0.08258 0.06395,0.0548 0.07393,0.131039 0.02986,0.226511 -0.117891,0.255007 -0.385551,0.463134 -0.464635,0.520854 -0.1036225,0.07576 -0.2523787,0.120668 -0.3985038,0.120668 -0.1497678,0 -0.2824844,-0.04559 -0.3737108,-0.128295 z m 0.220503,-6.3623909 0.5272237,-0.02871 c 0,0 -0.1346399,0.201314 -0.2220216,0.4616769 -0.098664,0.2945151 0.090215,0.7249535 0.090215,0.7249535 0,0 -0.7034537,-0.674475 -0.3954171,-1.1579204 z"
     id="path80"
     inkscape:connector-curvature="0"
     style="fill:#463014;stroke-width:0.04656333" />
  <path
     d="m 8.1106655,5.6382117 c -0.3362187,0 -0.7745933,-0.00779 -1.103526,-0.2079989 0,0 0.4306838,0.6393801 1.1029695,0.6393801 l 5.565e-4,-0.080903 5.566e-4,0.080903 c 0.6723362,0 1.1029188,-0.6393372 1.1029188,-0.6393372 C 8.8852588,5.63037 8.4465807,5.6382117 8.1106655,5.6382117 Z"
     id="path82"
     inkscape:connector-curvature="0"
     style="fill:#e78724;stroke-width:0.04656333" />
  <path
     d="M 9.0363928,5.6351264 C 8.6991621,5.8079875 8.3979567,5.8678931 8.1106655,5.8732067 7.8232732,5.8678931 7.5222195,5.8079875 7.1849383,5.6351264 c 0,0 0.4911475,0.5075703 0.923248,0.5114698 v 2.999e-4 c 7.589e-4,0 0.00151,-1.714e-4 0.00243,-1.714e-4 7.589e-4,0 0.00151,1.714e-4 0.00243,1.714e-4 V 6.1465962 C 8.545036,6.1426962 9.0363859,5.6351264 9.0363859,5.6351264 Z m 1.1530602,9.2685036 -0.0376,-0.414027 c 1.583593,-0.10314 2.082584,-1.388458 2.085163,-1.523781 h 0.490389 c 2.02e-4,0.312941 -0.660598,1.815597 -2.537959,1.937808 z"
     id="path84"
     inkscape:connector-curvature="0"
     style="fill:#463014;stroke-width:0.04656333" />
  <path
     d="m 10.716981,12.211559 c 0.0295,-0.143595 0.03239,-0.279818 -0.0034,-0.413641 0.142886,-0.09084 0.398705,-0.124569 0.590824,-0.177318 0.157104,-0.0842 0.961247,0.0863 1.544482,-0.51147 0.730724,-0.748523 0.576757,-1.1954153 0.576757,-1.1954153 0.187514,0.1762893 0.368955,0.1090983 0.654729,0.9311513 0.286026,0.822227 -0.134437,1.395402 -0.917683,1.970849 -0.369967,0.271803 -0.893092,0.383816 -1.343053,0.426667 0.150729,-0.128125 -0.25744,-0.14098 -0.538607,-0.23011 0.02247,-0.192401 -0.01528,-0.379146 -0.184631,-0.52951 -0.101908,-0.09067 -0.233506,-0.144836 -0.369714,-0.18803 -0.0077,-0.01492 -0.01427,-0.02871 -0.0213,-0.04302 0.0045,-0.01306 0.0087,-0.02627 0.01164,-0.04015 z"
     id="path86"
     inkscape:connector-curvature="0"
     style="fill:#ffffff;stroke-width:0.04656333" />
  <path
     d="m 11.284479,13.007258 c 0.01649,-0.0404 0.02854,-0.08155 0.04063,-0.122982 0.01321,-0.04521 0.07797,-0.173418 -0.002,-0.02704 0.02055,-0.03749 0.0339,-0.0761 0.04382,-0.115012 1.268474,-0.0014 2.371999,-0.738966 2.158581,-2.289616 0.16606,-0.186702 0.398757,0.376488 0.398757,0.376488 0,0 0.635045,1.561578 -1.005014,2.166806 -0.54645,0.201828 -1.0293,0.346537 -1.143295,0.288131 -0.237554,0.04084 -0.451834,-0.09928 -0.53198,-0.191459 0.01498,-0.02829 0.02905,-0.05665 0.04047,-0.08531 z"
     id="path88"
     inkscape:connector-curvature="0"
     style="fill:#c9c9c9;stroke-width:0.04656333" />
  <path
     d="m 10.739699,11.986719 c -0.0017,-0.130868 -0.03354,-0.257664 -0.108025,-0.383945 -0.0053,-0.0087 -0.01134,-0.01705 -0.0169,-0.02554 0.488061,-0.0035 1.050246,-0.04311 1.528947,-0.205386 0.52611,-0.178259 1.184279,-0.78803 1.297414,-1.5044988 0,0 0.990898,0.6475648 0.699761,2.0336668 -0.273529,1.301513 -1.559408,1.725825 -3.02602,1.7976 -8.09e-4,-0.0084 0.164998,-0.298329 0.112579,-0.47586 0.832578,0.05125 1.763922,-0.221241 2.213731,-0.847722 0.411356,-0.573433 0.295994,-1.552407 0.126797,-1.695873 -0.412468,1.102643 -1.897347,1.326797 -2.828285,1.307557 z"
     id="path90"
     inkscape:connector-curvature="0"
     style="fill:#463014;stroke-width:0.04656333" />
  <path
     d="M 11.331939,12.313201 C 11.156721,12.152766 10.834568,11.961565 10.09175,11.961565 l -1.9786052,-10e-4 h -0.00485 c -0.570231,3.43e-4 -1.9788585,10e-4 -1.9788585,10e-4 -0.7426664,0 -1.0648191,0.191244 -1.2401386,0.351636 -0.2553644,0.233495 -0.2954374,0.558262 -0.1187518,0.964233 0.4694413,1.080573 1.1291789,2.178417 3.3376476,2.17996 v 1.71e-4 c 8.096e-4,0 0.00151,-1.71e-4 0.00243,-1.71e-4 7.589e-4,0 0.00151,1.71e-4 0.00243,1.71e-4 v -1.71e-4 c 2.2082655,-0.0017 2.8680035,-1.099387 3.3375975,-2.17996 0.176685,-0.405971 0.136511,-0.730738 -0.118703,-0.964233 z m -0.343809,0.888473 c -0.223639,0.542622 -0.824784,1.856006 -2.8775656,1.858277 -2.053034,-0.0022 -2.653927,-1.315612 -2.8776175,-1.858277 -0.1237608,-0.301073 -0.1143497,-0.523854 0.028942,-0.66222 0.097906,-0.09461 0.3227599,-0.207528 0.8352088,-0.207528 l 0.5353694,-1.71e-4 c 0.3949622,-3e-4 0.8908659,-6.43e-4 1.4781482,-8.58e-4 0.5870799,2.15e-4 1.0832365,5.58e-4 1.4780982,8.58e-4 l 0.5351675,1.71e-4 c 0.512599,0 0.737403,0.11287 0.83536,0.207528 0.143139,0.138494 0.152652,0.361147 0.02883,0.66222 z"
     id="path92"
     inkscape:connector-curvature="0"
     style="fill:#463014;stroke-width:0.04656333" />
  <path
     d="m 10.586135,11.19736 c 0.263916,0.655921 0.802979,1.186801 0.802979,1.186801 0,0 -0.741553,-0.02859 -0.782537,-0.139694 -0.0301,-0.08193 -0.6694017,-1.349378 -0.9147978,-2.8341659 0.2306222,0.3211683 0.8716898,1.7308809 0.8943558,1.7870589 z"
     id="path94"
     inkscape:connector-curvature="0"
     style="fill:#463014;stroke-width:0.04656333" />
</svg>
