<svg xmlns="http://www.w3.org/2000/svg" width="16" height="16" viewBox="0 0 16 16"><path d="M12.433 7.922c-.015.01-.552-.084-1.229-.131a13.054 13.054 0 00-1.711 0c-.423.028-.978-.19-1.045.072a5.322 5.322 0 01-1.464 2.493 4.948 4.948 0 01-1.733 1.11c-.754-.399-1.11-1.291-.79-2.071.253-.621.552-1.301.002-1.457-.398-.113-.619.28-.77.702-.292.808-.85 1.644-1.01 2.636-.17 1.045 0 2.156.875 2.786 2.04 1.46 4.253-.905 6.587-1.5.845-.216 1.775-.182 2.52-.628.559-.334.93-.889 1.033-1.513.169-1.004-.335-2-1.265-2.499z" fill="#99425b" stroke="#fff" stroke-width=".614"/><path d="M8.448 7.863a5.322 5.322 0 01-1.464 2.493 4.948 4.948 0 01-1.733 1.11c-.754-.399-1.11-1.291-.79-2.071.253-.621.552-1.301.002-1.457-.398-.113-.619.28-.77.702-.292.808-.85 1.644-1.01 2.636-.17 1.045 0 2.156.875 2.786 2.04 1.46 4.253-.905 6.587-1.5.845-.216 1.775-.182 2.52-.628.559-.334.93-.889 1.033-1.513.169-1.001-.335-2-1.265-2.496" fill="none" stroke="#fff" stroke-width=".614"/><path d="M10.32 3.963l1.639 3.457 1.965-5.99H6.71l1.963 5.977z" fill="#99425b" stroke-width=".031"/><path d="M10.32 3.963l1.639 3.457 1.965-5.99H6.71l1.963 5.977z" fill="none" stroke="#fff" stroke-width=".614"/><ellipse cx="8.33" cy="7.875" rx="1.235" ry="1.276" fill="#99425b" stroke-width=".031"/><g transform="matrix(.03019 0 0 .0312 2.323 1.118)" stroke="#fff" stroke-width="20"><circle cx="199" cy="216.6" r="40.9" fill="none"/><circle cx="332.4" cy="216.6" r="40.9" fill="#99425b"/><circle cx="332.4" cy="216.6" r="40.9" fill="none"/></g><ellipse cx="4.288" cy="7.885" rx="1.235" ry="1.276" fill="#99425b" stroke-width=".031"/><ellipse cx="4.288" cy="7.885" rx="1.235" ry="1.276" fill="none" stroke="#fff" stroke-width=".614"/></svg>