<?xml version="1.0" encoding="UTF-8" standalone="no"?>
<svg
   xmlns:dc="http://purl.org/dc/elements/1.1/"
   xmlns:cc="http://creativecommons.org/ns#"
   xmlns:rdf="http://www.w3.org/1999/02/22-rdf-syntax-ns#"
   xmlns:svg="http://www.w3.org/2000/svg"
   xmlns="http://www.w3.org/2000/svg"
   xmlns:sodipodi="http://sodipodi.sourceforge.net/DTD/sodipodi-0.dtd"
   xmlns:inkscape="http://www.inkscape.org/namespaces/inkscape"
   enable-background="new 0 0 398.3 439.9"
   width="16"
   height="16"
   viewBox="0 0 16 16"
   version="1.1"
   id="svg24"
   sodipodi:docname="jest.svg"
   inkscape:version="0.92.4 (5da689c313, 2019-01-14)">
  <metadata
     id="metadata30">
    <rdf:RDF>
      <cc:Work
         rdf:about="">
        <dc:format>image/svg+xml</dc:format>
        <dc:type
           rdf:resource="http://purl.org/dc/dcmitype/StillImage" />
      </cc:Work>
    </rdf:RDF>
  </metadata>
  <defs
     id="defs28" />
  <sodipodi:namedview
     pagecolor="#ffffff"
     bordercolor="#666666"
     borderopacity="1"
     objecttolerance="10"
     gridtolerance="10"
     guidetolerance="10"
     inkscape:pageopacity="0"
     inkscape:pageshadow="2"
     inkscape:window-width="1920"
     inkscape:window-height="1001"
     id="namedview26"
     showgrid="false"
     inkscape:zoom="29.134735"
     inkscape:cx="2.2680103"
     inkscape:cy="8"
     inkscape:window-x="-9"
     inkscape:window-y="-9"
     inkscape:window-maximized="1"
     inkscape:current-layer="svg24" />
  <path
     d="m 12.432971,7.9220701 c -0.01509,0.00935 -0.552443,-0.084238 -1.228656,-0.131037 -0.549422,-0.03744 -1.192428,-0.03744 -1.7116633,0 C 9.0700184,7.8191125 8.5145577,7.6007173 8.448144,7.8627916 8.2006017,8.8424496 7.6632539,9.6941906 6.9840222,10.355615 6.4708248,10.854803 5.885176,11.232316 5.2512264,11.46631 4.4965243,11.06696 4.1403051,10.174661 4.4602987,9.3946773 4.7138785,8.7738113 5.0127405,8.0936664 4.4633176,7.9376698 4.0648349,7.8253524 3.8444619,8.2184635 3.6935215,8.6396541 3.400697,9.447716 2.8422176,10.283859 2.6822208,11.275995 c -0.1690532,1.045177 0,2.155872 0.8754543,2.786098 2.0407142,1.460128 4.2535004,-0.90478 6.5870379,-1.500686 0.845267,-0.215275 1.775061,-0.180957 2.520705,-0.627106 0.558481,-0.333833 0.929794,-0.88918 1.032433,-1.513165 0.169053,-1.0046192 -0.335087,-1.9998769 -1.26488,-2.4990659 z"
     id="path2"
     inkscape:connector-curvature="0"
     style="fill:#99425b;stroke:#ffffff;stroke-width:0.61379051" />
  <path
     d="M 8.448144,7.8627916 C 8.2006017,8.8424496 7.6632539,9.6941906 6.9840222,10.355615 6.4708248,10.854803 5.885176,11.232316 5.2512264,11.46631 4.4965243,11.06696 4.1403051,10.174661 4.4602987,9.3946773 4.7138785,8.7738113 5.0127405,8.0936664 4.4633176,7.9376698 4.0648349,7.8253524 3.8444619,8.2184635 3.6935215,8.6396541 3.400697,9.447716 2.8422176,10.283859 2.6822208,11.275995 c -0.1690532,1.045177 0,2.155872 0.8754543,2.786098 2.0407142,1.460128 4.2535004,-0.90478 6.5870379,-1.500686 0.845267,-0.215275 1.775061,-0.180957 2.520705,-0.627106 0.558481,-0.333833 0.929794,-0.88918 1.032433,-1.513165 0.169053,-1.0014992 -0.335087,-1.9998769 -1.26488,-2.4959459"
     id="path4"
     inkscape:connector-curvature="0"
     style="fill:none;stroke:#ffffff;stroke-width:0.61379051" />
  <path
     d="m 10.319805,3.9628785 1.639212,3.4568829 1.965245,-5.9902665 H 6.7093106 l 1.9622252,5.9777867 z"
     id="path6"
     inkscape:connector-curvature="0"
     style="fill:#99425b;stroke-width:0.03068953" />
  <path
     d="m 10.319805,3.9628785 1.639212,3.4568829 1.965245,-5.9902665 H 6.7093106 l 1.9622252,5.9777867 z"
     id="path8"
     inkscape:connector-curvature="0"
     style="fill:none;stroke:#ffffff;stroke-width:0.61379051" />
  <ellipse
     cx="8.330411"
     cy="7.8752718"
     id="circle10"
     rx="1.2346926"
     ry="1.2760516"
     style="fill:#99425b;stroke-width:0.03068953" />
  <g
     id="g18"
     transform="matrix(0.03018808,0,0,0.03119931,2.3229827,1.117502)"
     style="stroke:#ffffff;stroke-width:20">
    <circle
       cx="199"
       cy="216.60001"
       r="40.900002"
       id="circle12"
       style="fill:none" />
    <circle
       cx="332.39999"
       cy="216.60001"
       r="40.900002"
       id="circle14"
       style="fill:#99425b" />
    <circle
       cx="332.39999"
       cy="216.60001"
       r="40.900002"
       id="circle16"
       style="fill:none" />
  </g>
  <ellipse
     cx="4.2882266"
     cy="7.8846307"
     id="circle20"
     rx="1.2346926"
     ry="1.2760516"
     style="fill:#99425b;stroke-width:0.03068953" />
  <ellipse
     cx="4.2882266"
     cy="7.8846307"
     id="circle22"
     rx="1.2346926"
     ry="1.2760516"
     style="fill:none;stroke:#ffffff;stroke-width:0.61379051" />
</svg>
