<?xml version="1.0" encoding="UTF-8" standalone="no"?>
<svg
   xmlns:dc="http://purl.org/dc/elements/1.1/"
   xmlns:cc="http://creativecommons.org/ns#"
   xmlns:rdf="http://www.w3.org/1999/02/22-rdf-syntax-ns#"
   xmlns:svg="http://www.w3.org/2000/svg"
   xmlns="http://www.w3.org/2000/svg"
   xmlns:sodipodi="http://sodipodi.sourceforge.net/DTD/sodipodi-0.dtd"
   xmlns:inkscape="http://www.inkscape.org/namespaces/inkscape"
   width="16"
   height="16"
   viewBox="0 0 16 16"
   preserveAspectRatio="xMidYMid"
   version="1.1"
   id="svg29"
   sodipodi:docname="jetbrains.svg"
   inkscape:version="0.92.4 (5da689c313, 2019-01-14)">
  <metadata
     id="metadata33">
    <rdf:RDF>
      <cc:Work
         rdf:about="">
        <dc:format>image/svg+xml</dc:format>
        <dc:type
           rdf:resource="http://purl.org/dc/dcmitype/StillImage" />
      </cc:Work>
    </rdf:RDF>
  </metadata>
  <sodipodi:namedview
     pagecolor="#ffffff"
     bordercolor="#666666"
     borderopacity="1"
     objecttolerance="10"
     gridtolerance="10"
     guidetolerance="10"
     inkscape:pageopacity="0"
     inkscape:pageshadow="2"
     inkscape:window-width="1920"
     inkscape:window-height="1001"
     id="namedview31"
     showgrid="false"
     inkscape:zoom="39.000665"
     inkscape:cx="8"
     inkscape:cy="8"
     inkscape:window-x="-9"
     inkscape:window-y="-9"
     inkscape:window-maximized="1"
     inkscape:current-layer="svg29" />
  <defs
     id="defs17">
    <linearGradient
       x1="7.7583556"
       y1="13.697368"
       x2="120.53718"
       y2="109.82117"
       id="a"
       gradientTransform="matrix(0.0645211,0,0,0.05294953,0.64035916,1.5320361)"
       gradientUnits="userSpaceOnUse">
      <stop
         stop-color="#AA4A9B"
         offset="0%"
         id="stop2" />
      <stop
         stop-color="#F05922"
         offset="100%"
         id="stop4" />
    </linearGradient>
    <linearGradient
       x1="38.732097"
       y1="281.51738"
       x2="190.55971"
       y2="141.66053"
       id="b"
       gradientTransform="matrix(0.0751188,0,0,0.04547945,0.64035916,1.5320361)"
       gradientUnits="userSpaceOnUse">
      <stop
         stop-color="#FFE42E"
         offset="0%"
         id="stop7" />
      <stop
         stop-color="#ED417C"
         offset="100%"
         id="stop9" />
    </linearGradient>
    <linearGradient
       x1="65.594449"
       y1="177.89853"
       x2="148.76365"
       y2="86.018055"
       id="c"
       gradientTransform="matrix(0.04967433,0,0,0.06877521,0.64035916,1.5320361)"
       gradientUnits="userSpaceOnUse">
      <stop
         stop-color="#FFE42E"
         offset="0%"
         id="stop12" />
      <stop
         stop-color="#F05922"
         offset="100%"
         id="stop14" />
    </linearGradient>
  </defs>
  <path
     d="M 8.9853097,7.6884904 2.5635215,1.8550381 A 1.1272014,1.1774313 0 1 0 1.2498256,3.7452604 l 7.2231251,4.6839783 0.03277,0.021386 a 0.43656426,0.45601826 0 1 0 0.479589,-0.7621343 z"
     id="path19"
     style="fill:url(#a);stroke-width:0.05844965"
     inkscape:connector-curvature="0" />
  <path
     d="m 15.268814,8.6208177 a 1.5944381,1.6654888 0 0 0 -2.420366,-1.357242 l -9.0174969,5.3614633 -0.015327,0.0087 a 0.80888568,0.84493092 0 1 0 0.6302262,1.556266 l 9.8248387,-3.960376 0.02459,-0.01069 a 1.5944381,1.6654888 0 0 0 0.973416,-1.5980443 z"
     id="path21"
     style="fill:url(#b);stroke-width:0.05844965"
     inkscape:connector-curvature="0" />
  <path
     d="M 8.0066862,8.3714125 A 0.43652604,0.45597835 0 0 0 7.2658557,7.894048 l -3.8068067,5.04569 -0.00818,0.01714 a 0.80848535,0.84451275 0 1 0 1.4007953,0.836985 L 7.980036,8.4163951 c 0.00972,-0.014457 0.018643,-0.029452 0.02665,-0.044983 z"
     id="path23"
     style="fill:url(#c);stroke-width:0.05844965"
     inkscape:connector-curvature="0" />
  <path
     d="M 5.3137557,5.3422898 H 10.541775 V 10.803277 H 5.3137557 Z"
     id="path25"
     inkscape:connector-curvature="0"
     style="stroke-width:0.05844965" />
  <path
     d="M 7.2771221,7.9046814 7.1428987,7.701334 A 0.26947605,0.28148434 0 0 0 7.3181268,7.4263014 0.26644502,0.27831824 0 0 0 7.2422938,7.2186529 0.37710635,0.39391081 0 0 0 6.9645824,7.1233712 h -0.4027271 0.00412 v 0.88842 H 6.8016501 V 7.7420155 h 0.1024833 l 0.1721398,0.2697757 h 0.1576137 l -8.578e-4,0.00208 H 7.4800297 L 7.540479,7.8533666 H 7.8714337 L 7.9318829,8.013882 H 8.1850027 L 7.8222506,7.1169195 H 7.5947515 Z M 5.7646362,9.7789537 H 7.7249144 V 10.120415 H 5.7646362 Z M 5.743133,6.7797596 5.8947991,6.6299373 a 0.17213984,0.17981067 0 0 0 0.1342233,0.082438 0.10248326,0.10705007 0 0 0 0.096307,-0.1241949 V 6.0251522 H 6.359977 V 6.5892559 A 0.31665724,0.33076799 0 0 1 6.2759658,6.8397363 0.32071768,0.33500937 0 0 1 6.0423475,6.9296417 0.34839731,0.36392245 0 0 1 5.743133,6.7797596 Z M 6.4143069,6.0251522 h 0.6855283 v 0.2087237 h -0.45191 V 6.3698391 H 7.057801 v 0.194745 H 6.6479252 V 6.7059237 H 7.1060116 V 6.9200238 H 6.4143069 Z M 7.4092866,6.2414029 H 7.1551945 V 6.0273027 H 7.9011719 V 6.2414029 H 7.6459931 V 6.9157227 H 7.4103732 V 6.2414029 Z M 5.7646362,7.1233712 h 0.4365261 a 0.31865886,0.33285881 0 0 1 0.2326461,0.079212 0.19158421,0.2001215 0 0 1 0.054329,0.1445056 0.19673125,0.2054979 0 0 1 -0.1311924,0.197971 0.20496651,0.21410014 0 0 1 0.1690516,0.2141001 c 0,0.1530481 -0.1188393,0.2451041 -0.3227764,0.2451041 H 5.7636069 V 7.1233712 Z m 0.4918282,0.2750924 c 0,-0.049224 -0.03786,-0.075986 -0.1024261,-0.075986 H 5.999284 v 0.156274 h 0.1485778 c 0.071772,0 0.1127202,-0.025687 0.1127202,-0.077062 l -0.00406,-0.00323 z M 6.1745118,7.6510349 H 5.9941942 v 0.1638009 h 0.1824339 c 0.072688,0 0.1126629,-0.028912 0.1126629,-0.081363 0.00103,-0.053525 -0.034886,-0.082439 -0.1147792,-0.082438 z M 6.9553749,7.5515118 A 0.10248326,0.10705007 0 0 0 7.0823924,7.4444617 0.10248326,0.10705007 0 0 0 6.9542884,7.3374116 H 6.7985619 V 7.5515118 Z M 7.799718,7.6607124 7.7044406,7.4091567 7.6080766,7.6606526 H 7.7996608 Z M 8.2126249,7.1233712 H 8.4483592 V 8.013882 H 8.2126821 V 7.1233712 Z m 0.295154,0 H 8.7280722 L 9.0785283,7.5943437 V 7.1233712 H 9.3122039 V 8.013882 H 9.1072374 L 8.7424267,7.5258245 V 8.013882 H 8.5088083 V 7.1233712 Z m 0.8187223,0.7578333 0.1311922,-0.163801 a 0.44167309,0.46135474 0 0 0 0.2766819,0.1070501 c 0.06451,0 0.1024261,-0.022462 0.1024261,-0.060993 0,-0.038531 -0.027627,-0.05675 -0.1444602,-0.086739 -0.1813474,-0.042772 -0.3217471,-0.096298 -0.3217471,-0.2782585 0,-0.1648762 0.1250159,-0.2847103 0.3299824,-0.2847103 a 0.53592107,0.55980258 0 0 1 0.3503985,0.117684 L 9.9331654,7.4059308 A 0.4180539,0.43668304 0 0 0 9.6944,7.3181163 c -0.057418,0 -0.08504,0.024671 -0.08504,0.056751 0,0.040681 0.029738,0.058901 0.1485779,0.086739 0.1946724,0.044923 0.3165991,0.1070501 0.3165991,0.2771833 0,0.1820208 -0.1372536,0.2900865 -0.3442788,0.2900865 A 0.59739959,0.62402067 0 0 1 9.3265012,7.8812045 Z"
     id="path27"
     inkscape:connector-curvature="0"
     style="fill:#ffffff;stroke-width:0.05844965" />
</svg>
