<?xml version="1.0" encoding="UTF-8" standalone="no"?>
<svg
   xmlns:dc="http://purl.org/dc/elements/1.1/"
   xmlns:cc="http://creativecommons.org/ns#"
   xmlns:rdf="http://www.w3.org/1999/02/22-rdf-syntax-ns#"
   xmlns:svg="http://www.w3.org/2000/svg"
   xmlns="http://www.w3.org/2000/svg"
   xmlns:sodipodi="http://sodipodi.sourceforge.net/DTD/sodipodi-0.dtd"
   xmlns:inkscape="http://www.inkscape.org/namespaces/inkscape"
   id="svg"
   version="1.1"
   width="16"
   height="16"
   viewBox="0 0 16 16"
   style="display: block;"
   sodipodi:docname="karate.svg"
   inkscape:version="0.92.5 (2060ec1f9f, 2020-04-08)">
  <metadata
     id="metadata13">
    <rdf:RDF>
      <cc:Work
         rdf:about="">
        <dc:format>image/svg+xml</dc:format>
        <dc:type
           rdf:resource="http://purl.org/dc/dcmitype/StillImage" />
      </cc:Work>
    </rdf:RDF>
  </metadata>
  <defs
     id="defs11" />
  <sodipodi:namedview
     pagecolor="#ffffff"
     bordercolor="#666666"
     borderopacity="1"
     objecttolerance="10"
     gridtolerance="10"
     guidetolerance="10"
     inkscape:pageopacity="0"
     inkscape:pageshadow="2"
     inkscape:window-width="1920"
     inkscape:window-height="1001"
     id="namedview9"
     showgrid="false"
     inkscape:zoom="19.423156"
     inkscape:cx="8"
     inkscape:cy="8"
     inkscape:window-x="-9"
     inkscape:window-y="-9"
     inkscape:window-maximized="1"
     inkscape:current-layer="svg" />
  <g
     id="svgg"
     transform="matrix(0.03391104,0,0,0.03412449,1.2871234,1.2356385)">

    <path
       id="path1"
       d="m 155.584,101.323 c 0.323,0.085 0.852,0.085 1.175,0 0.323,-0.084 0.059,-0.154 -0.588,-0.154 -0.646,0 -0.911,0.07 -0.587,0.154 m 8.732,0.336 c 0.323,0.084 0.852,0.084 1.175,0 0.323,-0.085 0.059,-0.154 -0.588,-0.154 -0.646,0 -0.911,0.069 -0.587,0.154 m 9.068,0.336 c 0.323,0.084 0.852,0.084 1.175,0 0.323,-0.085 0.059,-0.154 -0.588,-0.154 -0.646,0 -0.911,0.069 -0.587,0.154 m -50.72,25.293 c 0,0.647 0.069,0.911 0.154,0.588 0.084,-0.324 0.084,-0.852 0,-1.176 -0.085,-0.323 -0.154,-0.059 -0.154,0.588 m 0.343,9.908 c 0.003,0.739 0.072,1.001 0.152,0.583 0.081,-0.417 0.078,-1.022 -0.006,-1.343 -0.084,-0.321 -0.15,0.021 -0.146,0.76 m 0.329,9.907 c 0,0.647 0.069,0.911 0.153,0.588 0.085,-0.323 0.085,-0.852 0,-1.175 -0.084,-0.324 -0.153,-0.059 -0.153,0.587 m 21.672,18.038 c 0.418,0.08 1.022,0.077 1.344,-0.007 0.321,-0.084 -0.021,-0.15 -0.76,-0.146 -0.739,0.004 -1.002,0.073 -0.584,0.153 m 12.087,0.335 c 0.415,0.08 1.096,0.08 1.511,0 0.416,-0.08 0.076,-0.145 -0.755,-0.145 -0.832,0 -1.172,0.065 -0.756,0.145 m 12.599,0.34 c 0.51,0.077 1.266,0.075 1.679,-0.004 0.413,-0.08 -0.004,-0.143 -0.928,-0.141 -0.924,0.003 -1.262,0.068 -0.751,0.145 m 12.59,0.332 c 0.415,0.08 1.096,0.08 1.511,0 0.416,-0.08 0.076,-0.146 -0.756,-0.146 -0.831,0 -1.171,0.066 -0.755,0.146 m 12.599,0.34 c 0.51,0.077 1.266,0.075 1.679,-0.005 0.413,-0.079 -0.004,-0.143 -0.928,-0.14 -0.924,0.002 -1.262,0.068 -0.751,0.145 m 36.933,20.918 c 0,0.646 0.069,0.911 0.154,0.587 0.084,-0.323 0.084,-0.852 0,-1.175 -0.085,-0.323 -0.154,-0.059 -0.154,0.588 m -55.249,22.744 c 0.596,0.074 1.654,0.075 2.351,0.003 0.697,-0.073 0.209,-0.134 -1.084,-0.135 -1.293,-0.002 -1.863,0.058 -1.267,0.132 m 20.151,0.336 c 0.596,0.074 1.654,0.075 2.351,0.003 0.697,-0.073 0.209,-0.134 -1.084,-0.135 -1.293,-0.002 -1.863,0.058 -1.267,0.132 m 19.995,0.334 c 0.511,0.078 1.266,0.075 1.68,-0.004 0.413,-0.08 -0.005,-0.143 -0.929,-0.141 -0.923,0.003 -1.261,0.068 -0.751,0.145 m -10.255,41.312 c 0.596,0.074 1.654,0.075 2.351,0.002 0.696,-0.072 0.209,-0.133 -1.084,-0.135 -1.293,-0.001 -1.864,0.058 -1.267,0.133 m -39.623,0.666 c 0.415,0.08 1.095,0.08 1.511,0 0.416,-0.08 0.075,-0.146 -0.756,-0.146 -0.831,0 -1.171,0.066 -0.755,0.146 m 104.366,7.152 c 1.096,1.108 2.069,2.015 2.162,2.015 0.092,0 -0.73,-0.907 -1.826,-2.015 -1.097,-1.109 -2.07,-2.015 -2.162,-2.015 -0.093,0 0.729,0.906 1.826,2.015 m -80.853,12.328 c 0.418,0.08 1.022,0.077 1.344,-0.007 0.321,-0.084 -0.021,-0.15 -0.76,-0.146 -0.739,0.004 -1.002,0.073 -0.584,0.153 m -10.411,0.336 c 0.418,0.08 1.022,0.077 1.343,-0.007 0.321,-0.084 -0.021,-0.15 -0.759,-0.146 -0.739,0.004 -1.002,0.072 -0.584,0.153 m -40.406,42.499 -1.328,1.428 1.428,-1.328 c 1.327,-1.235 1.581,-1.527 1.327,-1.527 -0.055,0 -0.697,0.642 -1.427,1.427 m -8.732,8.397 -1.328,1.427 1.427,-1.328 c 1.328,-1.234 1.582,-1.527 1.328,-1.527 -0.055,0 -0.697,0.643 -1.427,1.428 m -8.733,8.396 -1.327,1.427 1.427,-1.327 c 1.328,-1.235 1.582,-1.527 1.328,-1.527 -0.055,0 -0.697,0.642 -1.428,1.427 m -8.396,8.06 -1.327,1.428 1.427,-1.328 c 1.327,-1.234 1.582,-1.527 1.328,-1.527 -0.055,0 -0.698,0.642 -1.428,1.427 m -8.732,8.397 -1.328,1.427 1.428,-1.328 c 1.327,-1.234 1.581,-1.527 1.327,-1.527 -0.054,0 -0.697,0.643 -1.427,1.428 m -61.684,31.063 c 1.162,0.066 2.975,0.065 4.03,-10e-4 1.055,-0.066 0.105,-0.12 -2.112,-0.12 -2.217,10e-4 -3.08,0.055 -1.918,0.121 m 280.256,0.99 c 0.323,0.085 0.852,0.085 1.175,0 0.323,-0.084 0.059,-0.153 -0.588,-0.153 -0.646,0 -0.911,0.069 -0.587,0.153"
       inkscape:connector-curvature="0"
       style="fill:#3e3e3e;fill-rule:evenodd;stroke:none" />
    <path
       id="path2"
       d="m 210.501,33.493 c 0.604,0.075 1.511,0.073 2.016,-0.004 0.504,-0.076 0.01,-0.137 -1.098,-0.136 -1.108,0.002 -1.521,0.065 -0.918,0.14 m -56.933,67.83 c 0.324,0.085 0.853,0.085 1.176,0 0.323,-0.084 0.059,-0.154 -0.588,-0.154 -0.646,0 -0.911,0.07 -0.588,0.154 m 17.801,0.672 c 0.323,0.084 0.852,0.084 1.175,0 0.323,-0.085 0.059,-0.154 -0.588,-0.154 -0.646,0 -0.911,0.069 -0.587,0.154 M 317.3,107.71 c 0.418,0.081 1.023,0.078 1.344,-0.007 0.321,-0.084 -0.021,-0.149 -0.76,-0.146 -0.739,0.004 -1.001,0.073 -0.584,0.153 m -194.629,17.395 c 0.003,0.739 0.072,1.002 0.153,0.584 0.08,-0.418 0.077,-1.023 -0.007,-1.344 -0.084,-0.321 -0.15,0.021 -0.146,0.76 m 0.329,9.908 c 0,0.646 0.069,0.911 0.153,0.587 0.085,-0.323 0.085,-0.852 0,-1.175 -0.084,-0.323 -0.153,-0.059 -0.153,0.588 m 0.342,9.907 c 0.004,0.739 0.073,1.002 0.153,0.584 0.081,-0.418 0.078,-1.022 -0.006,-1.343 -0.085,-0.321 -0.15,0.02 -0.147,0.759 m 24.013,20.22 c 0.416,0.081 1.096,0.081 1.511,0 0.416,-0.08 0.076,-0.145 -0.755,-0.145 -0.831,0 -1.171,0.065 -0.756,0.145 m 12.427,0.336 c 0.415,0.08 1.095,0.08 1.511,0 0.416,-0.08 0.076,-0.145 -0.756,-0.145 -0.831,0 -1.171,0.065 -0.755,0.145 m 12.762,0.336 c 0.416,0.08 1.096,0.08 1.511,0 0.416,-0.08 0.076,-0.145 -0.755,-0.145 -0.831,0 -1.172,0.065 -0.756,0.145 m 12.599,0.34 c 0.511,0.077 1.266,0.075 1.679,-0.005 0.413,-0.079 -0.004,-0.142 -0.928,-0.14 -0.923,0.003 -1.261,0.068 -0.751,0.145 m 12.59,0.332 c 0.416,0.08 1.096,0.08 1.511,0 0.416,-0.08 0.076,-0.146 -0.755,-0.146 -0.832,0 -1.172,0.066 -0.756,0.146 m 34.419,10.846 c 0,0.646 0.069,0.911 0.153,0.588 0.085,-0.324 0.085,-0.853 0,-1.176 -0.084,-0.323 -0.153,-0.059 -0.153,0.588 m -0.672,16.457 c 0,0.646 0.069,0.911 0.154,0.587 0.084,-0.323 0.084,-0.852 0,-1.175 -0.085,-0.323 -0.154,-0.059 -0.154,0.588 m -50.372,16.365 c 0.693,0.073 1.827,0.073 2.519,0 0.693,-0.072 0.126,-0.131 -1.259,-0.131 -1.386,0 -1.952,0.059 -1.26,0.131 m 20.151,0.336 c 0.693,0.073 1.827,0.073 2.519,0 0.693,-0.072 0.126,-0.132 -1.259,-0.132 -1.385,0 -1.952,0.06 -1.26,0.132 m 9.74,41.646 c 0.693,0.072 1.826,0.072 2.519,0 0.693,-0.073 0.126,-0.132 -1.259,-0.132 -1.386,0 -1.953,0.059 -1.26,0.132 m -41.474,0.664 c 0.418,0.081 1.023,0.078 1.344,-0.006 0.321,-0.084 -0.021,-0.15 -0.76,-0.146 -0.739,0.003 -1.001,0.072 -0.584,0.152 m -11.758,0.336 c 0.415,0.08 1.095,0.08 1.511,0 0.416,-0.08 0.075,-0.146 -0.756,-0.146 -0.831,0 -1.171,0.066 -0.755,0.146 m 40.642,18.808 c 0.417,0.08 1.022,0.077 1.343,-0.007 0.321,-0.084 -0.021,-0.15 -0.76,-0.146 -0.738,0.004 -1.001,0.073 -0.583,0.153 m -10.412,0.336 c 0.418,0.08 1.023,0.077 1.344,-0.007 0.321,-0.084 -0.021,-0.15 -0.76,-0.146 -0.739,0.004 -1.002,0.073 -0.584,0.153 m -46.121,40.484 -0.986,1.092 1.092,-0.987 c 1.017,-0.919 1.245,-1.196 0.986,-1.196 -0.058,0 -0.549,0.491 -1.092,1.091 m -8.732,8.397 -0.986,1.091 1.091,-0.986 c 1.018,-0.92 1.246,-1.197 0.987,-1.197 -0.058,0 -0.549,0.491 -1.092,1.092 m -8.732,8.396 -0.986,1.092 1.091,-0.987 c 1.018,-0.919 1.246,-1.197 0.987,-1.197 -0.058,0 -0.549,0.492 -1.092,1.092 m -8.396,8.06 -0.987,1.092 1.092,-0.986 c 1.017,-0.92 1.246,-1.197 0.986,-1.197 -0.057,0 -0.549,0.491 -1.091,1.091 m -8.732,8.397 -0.987,1.091 1.092,-0.986 c 1.017,-0.92 1.246,-1.197 0.986,-1.197 -0.058,0 -0.549,0.491 -1.091,1.092 m -56.305,33.414 c 1.161,0.066 2.975,0.065 4.03,-10e-4 1.055,-0.066 0.104,-0.12 -2.112,-0.12 -2.217,10e-4 -3.08,0.055 -1.918,0.121 m 274.714,0.996 c 0.415,0.08 1.095,0.08 1.511,0 0.416,-0.08 0.076,-0.146 -0.756,-0.146 -0.831,0 -1.171,0.066 -0.755,0.146 m 15.281,-0.006 c 0.323,0.085 0.852,0.085 1.175,0 0.324,-0.084 0.059,-0.153 -0.587,-0.153 -0.647,0 -0.911,0.069 -0.588,0.153"
       inkscape:connector-curvature="0"
       style="fill:#7c7c7c;fill-rule:evenodd;stroke:none" />
    <path
       id="path3"
       d="m 220.746,50.378 c 0,0.831 0.066,1.171 0.146,0.756 0.08,-0.416 0.08,-1.096 0,-1.512 -0.08,-0.415 -0.146,-0.075 -0.146,0.756 m 0.329,6.885 c 0.004,0.739 0.073,1.001 0.153,0.584 0.081,-0.418 0.078,-1.023 -0.006,-1.344 -0.085,-0.321 -0.15,0.021 -0.147,0.76 m 0,15.785 c 0.004,0.739 0.073,1.001 0.153,0.584 0.081,-0.418 0.078,-1.023 -0.006,-1.344 -0.085,-0.321 -0.15,0.021 -0.147,0.76 m -60.618,28.617 c 0.418,0.08 1.023,0.077 1.344,-0.007 0.321,-0.084 -0.021,-0.15 -0.76,-0.146 -0.739,0.004 -1.001,0.073 -0.584,0.153 m 8.732,0.336 c 0.418,0.08 1.023,0.077 1.344,-0.007 0.321,-0.084 -0.021,-0.15 -0.76,-0.146 -0.739,0.004 -1.001,0.072 -0.584,0.153 m 144.755,5.715 c 0.604,0.075 1.51,0.073 2.015,-0.003 0.505,-0.077 0.011,-0.138 -1.098,-0.136 -1.108,0.002 -1.521,0.064 -0.917,0.139 m -191.28,15.206 c 0,0.646 0.069,0.911 0.154,0.588 0.084,-0.324 0.084,-0.853 0,-1.176 -0.085,-0.323 -0.154,-0.059 -0.154,0.588 m 0.349,9.74 c 0,0.831 0.066,1.171 0.146,0.755 0.08,-0.415 0.08,-1.095 0,-1.511 -0.08,-0.416 -0.146,-0.076 -0.146,0.756 m 0.329,9.907 c 0.004,0.739 0.073,1.002 0.153,0.584 0.081,-0.418 0.078,-1.022 -0.006,-1.343 -0.085,-0.321 -0.15,0.02 -0.147,0.759 m 0.278,9.804 c -0.014,0.774 0.093,1.482 0.239,1.572 0.146,0.09 0.211,-0.392 0.144,-1.072 -0.184,-1.858 -0.353,-2.08 -0.383,-0.5 m 26.59,12.771 c 0.508,0.077 1.339,0.077 1.847,0 0.508,-0.077 0.092,-0.14 -0.923,-0.14 -1.016,0 -1.432,0.063 -0.924,0.14 m 12.426,0.336 c 0.508,0.077 1.34,0.077 1.848,0 0.508,-0.077 0.092,-0.14 -0.924,-0.14 -1.016,0 -1.432,0.063 -0.924,0.14 m 12.763,0.336 c 0.508,0.077 1.339,0.077 1.847,0 0.508,-0.077 0.092,-0.14 -0.924,-0.14 -1.016,0 -1.431,0.063 -0.923,0.14 m 12.767,0.336 c 0.51,0.077 1.266,0.075 1.679,-0.005 0.413,-0.079 -0.005,-0.142 -0.928,-0.14 -0.924,0.003 -1.262,0.068 -0.751,0.145 m 12.422,0.335 c 0.508,0.077 1.339,0.077 1.847,0 0.508,-0.077 0.092,-0.14 -0.924,-0.14 -1.016,0 -1.431,0.063 -0.923,0.14 m 31.564,8.828 c 0,0.646 0.069,0.911 0.153,0.588 0.085,-0.324 0.085,-0.853 0,-1.176 -0.084,-0.323 -0.153,-0.059 -0.153,0.588 m -0.329,8.228 c 0.003,0.739 0.072,1.002 0.153,0.584 0.08,-0.418 0.077,-1.022 -0.007,-1.343 -0.084,-0.321 -0.15,0.02 -0.146,0.759 m -0.343,8.229 c 0,0.646 0.069,0.911 0.154,0.587 0.084,-0.323 0.084,-0.852 0,-1.175 -0.085,-0.323 -0.154,-0.059 -0.154,0.588 m -65.989,18.046 c 0.785,0.07 2.07,0.07 2.855,0 0.785,-0.071 0.143,-0.129 -1.427,-0.129 -1.571,0 -2.213,0.058 -1.428,0.129 m 20.496,0.336 c 0.79,0.071 1.999,0.07 2.687,-0.002 0.688,-0.072 0.041,-0.13 -1.436,-0.129 -1.478,0.001 -2.041,0.06 -1.251,0.131 m 20.151,0.336 c 0.79,0.071 1.999,0.07 2.687,-0.002 0.688,-0.073 0.041,-0.131 -1.436,-0.129 -1.478,0.001 -2.041,0.06 -1.251,0.131 m 9.731,41.645 c 0.785,0.071 2.07,0.071 2.855,0 0.785,-0.071 0.142,-0.128 -1.428,-0.128 -1.57,0 -2.212,0.057 -1.427,0.128 m -43.824,0.667 c 0.51,0.077 1.266,0.075 1.679,-0.005 0.413,-0.079 -0.004,-0.143 -0.928,-0.14 -0.924,0.002 -1.262,0.068 -0.751,0.145 m -11.419,0.336 c 0.51,0.077 1.266,0.075 1.679,-0.005 0.413,-0.08 -0.004,-0.143 -0.928,-0.14 -0.924,0.002 -1.262,0.068 -0.751,0.145 m 35.092,18.803 c 0.416,0.081 1.096,0.081 1.511,0 0.416,-0.08 0.076,-0.145 -0.755,-0.145 -0.832,0 -1.172,0.065 -0.756,0.145 m -10.412,0.336 c 0.416,0.08 1.096,0.08 1.512,0 0.415,-0.08 0.075,-0.145 -0.756,-0.145 -0.831,0 -1.171,0.065 -0.756,0.145 m 108.565,9.335 c 2.118,2.124 3.927,3.862 4.019,3.862 0.092,0 -1.565,-1.738 -3.683,-3.862 -2.119,-2.124 -3.927,-3.862 -4.02,-3.862 -0.092,0 1.565,1.738 3.684,3.862 m -158.187,36.944 c -0.815,0.831 -1.407,1.511 -1.315,1.511 0.092,0 0.835,-0.68 1.651,-1.511 0.816,-0.831 1.408,-1.511 1.315,-1.511 -0.092,0 -0.835,0.68 -1.651,1.511 m -8.732,8.396 c -0.816,0.831 -1.408,1.511 -1.315,1.511 0.092,0 0.835,-0.68 1.651,-1.511 0.816,-0.831 1.408,-1.511 1.315,-1.511 -0.092,0 -0.835,0.68 -1.651,1.511 m -8.58,8.312 -1.327,1.428 1.427,-1.328 c 1.327,-1.234 1.582,-1.527 1.327,-1.527 -0.054,0 -0.697,0.642 -1.427,1.427 m -8.548,8.145 c -0.816,0.831 -1.408,1.511 -1.316,1.511 0.093,0 0.836,-0.68 1.652,-1.511 0.815,-0.831 1.407,-1.511 1.315,-1.511 -0.092,0 -0.836,0.68 -1.651,1.511 m -8.732,8.396 c -0.816,0.831 -1.408,1.512 -1.316,1.512 0.093,0 0.836,-0.681 1.651,-1.512 0.816,-0.831 1.408,-1.511 1.316,-1.511 -0.093,0 -0.836,0.68 -1.651,1.511 m -42.234,27.621 c 1.247,0.065 3.287,0.065 4.534,0 1.247,-0.064 0.227,-0.117 -2.267,-0.117 -2.494,0 -3.514,0.053 -2.267,0.117 m 272.04,1.009 c 1.801,0.06 4.749,0.06 6.55,0 1.801,-0.06 0.327,-0.11 -3.275,-0.11 -3.602,0 -5.076,0.05 -3.275,0.11"
       inkscape:connector-curvature="0"
       style="fill:#b3b3b3;fill-rule:evenodd;stroke:none" />
    <path
       id="path4"
       d="m 193.022,34.729 c -7.902,0.612 -14.417,1.172 -14.479,1.244 -1.316,1.531 -10.036,17.138 -9.99,17.878 0.033,0.525 0.889,6.387 1.903,13.025 l 1.843,12.071 3.564,4.943 c 1.961,2.719 3.666,5.055 3.789,5.192 0.124,0.137 5.131,0.557 11.126,0.932 15.855,0.993 15.706,0.286 1.306,6.168 -6.729,2.748 -12.689,5.246 -13.243,5.549 -0.926,0.507 -1.998,0.515 -13.266,0.097 l -12.258,-0.456 -8.64,4.69 c -8.586,4.661 -8.681,4.724 -15.198,10.187 l -6.557,5.497 0.013,3.359 c 0.037,9.607 0.937,28.465 1.378,28.879 4.245,3.985 18.425,11.917 19.793,11.072 0.426,-0.264 57.938,1.162 59.167,1.466 0.733,0.182 -4.647,2.165 -26.127,9.632 l -27.05,9.404 -2.798,6.091 -2.798,6.092 9.601,5.939 9.602,5.939 27.668,0.486 27.667,0.486 5.93,-4.931 c 3.262,-2.712 5.992,-4.98 6.067,-5.04 0.075,-0.06 0.409,-6.798 0.744,-14.974 0.334,-8.176 0.651,-15.264 0.703,-15.752 l 0.096,-0.887 13.098,4.023 c 7.204,2.213 13.4,4.027 13.77,4.031 0.775,0.009 33.778,-10.114 34.203,-10.491 0.288,-0.255 -4.394,-33.544 -4.779,-33.978 -0.116,-0.131 -4.894,1.558 -10.619,3.753 -5.725,2.196 -10.513,3.889 -10.641,3.765 -0.128,-0.125 -2.941,-4.683 -6.253,-10.129 l -6.02,-9.901 -8.378,-4.708 -8.377,-4.709 -15.343,-3.19 -15.342,-3.191 -0.002,-0.999 c -0.007,-3.207 1.126,-11.813 1.632,-12.387 0.899,-1.023 3.371,-2.086 6.762,-2.907 1.755,-0.425 3.289,-0.922 3.409,-1.105 1.004,-1.532 1.791,-16.475 1.419,-26.934 -0.469,-13.157 -0.455,-13.272 2.296,-18.885 1.896,-3.867 1.932,-4.77 0.231,-5.65 -3.831,-1.981 -11.643,-2.156 -30.622,-0.686 m 111.149,76.156 -2.965,3.724 0.411,6.19 c 0.242,3.633 0.287,6.298 0.111,6.452 -0.165,0.144 -2.669,1.151 -5.565,2.238 l -5.264,1.977 1.096,1.521 c 0.603,0.837 2.415,3.449 4.027,5.804 1.613,2.355 3.056,4.282 3.207,4.282 0.269,0 31.291,-13.028 31.486,-13.223 0.107,-0.107 -0.772,-14.173 -1.101,-17.624 l -0.203,-2.131 -1.733,-0.788 c -2.125,-0.967 -5.599,-1.4 -13.32,-1.664 -3.233,-0.111 -6.18,-0.264 -6.549,-0.342 -0.524,-0.11 -1.325,0.679 -3.638,3.584 m 10.858,11.642 c 7.73,5.057 7.226,4.701 6.989,4.937 -0.274,0.274 -13.098,3.903 -13.25,3.75 -0.107,-0.107 -1.43,-12.31 -1.457,-13.434 -0.008,-0.331 -0.595,-0.692 7.718,4.747 m -89.774,13.944 c -0.109,1.172 -0.724,4.761 -1.366,7.977 -0.642,3.215 -1.343,7.13 -1.557,8.7 -0.214,1.57 -0.414,2.877 -0.445,2.904 -1.27,1.118 -13.116,10.178 -13.199,10.095 -0.158,-0.158 16.341,-31.806 16.582,-31.806 0.101,0 0.094,0.959 -0.015,2.13 m -88.357,83.807 c -0.064,0.115 -0.376,1.04 -0.692,2.056 -0.317,1.016 -1.926,5.252 -3.577,9.412 l -3,7.566 -8.646,11.242 c -4.754,6.184 -12.219,15.411 -16.588,20.505 -7.29,8.501 -29.285,38.347 -53.585,72.711 l -0.73,1.033 4.347,3.608 c 3.614,3 4.294,3.706 4.033,4.193 -0.646,1.207 -5.432,5.404 -11.441,10.032 -3.417,2.632 -6.616,5.125 -7.109,5.541 -1.285,1.085 -3.368,6.282 -3.236,8.075 0.212,2.887 0.403,2.925 14.88,2.925 6.872,0 13.386,0.092 14.476,0.204 l 1.98,0.204 2.603,-4.047 c 1.432,-2.226 2.603,-4.207 2.603,-4.403 0,-0.195 -3.257,-4.755 -7.239,-10.133 -3.981,-5.378 -7.18,-9.835 -7.109,-9.906 0.071,-0.071 6.388,0.767 14.039,1.862 l 13.911,1.991 6.325,-0.805 6.324,-0.806 2.024,-1.874 c 22.652,-20.971 42.865,-41.209 59.786,-59.86 14.781,-16.292 17.582,-19.228 18.344,-19.227 0.495,0 5.535,-0.164 11.2,-0.366 l 10.3,-0.367 20.766,13.162 c 11.422,7.239 21.022,13.411 21.335,13.716 0.312,0.305 6.773,13.241 14.356,28.748 7.583,15.506 13.901,28.306 14.041,28.445 0.139,0.138 4.837,0.657 10.44,1.151 l 10.187,0.9 13.409,-1.241 c 7.375,-0.682 13.751,-1.196 14.169,-1.141 0.765,0.1 7.968,-3.855 7.968,-4.375 0,-1.424 -3.709,-10.178 -10.368,-24.473 -6.262,-13.44 -7.062,-15.439 -8.78,-21.921 -2.983,-11.252 -5.866,-14.953 -27.2,-34.923 -11.409,-10.679 -10.612,-9.835 -27.834,-29.452 -7.814,-8.9 -14.383,-16.123 -14.597,-16.051 -7.823,2.642 -12.005,3.561 -19.366,4.258 -4.156,0.394 -7.593,0.74 -7.637,0.769 -0.045,0.029 2.345,5.083 5.31,11.23 2.965,6.148 5.294,11.275 5.175,11.394 -0.119,0.12 -4.322,0.217 -9.341,0.217 h -9.124 l -0.56,-6.885 c -0.309,-3.787 -0.573,-7.2 -0.588,-7.585 -0.035,-0.902 -10.866,-8.725 -11.522,-8.323 -1.195,0.732 -11.378,8.304 -11.557,8.593 -0.114,0.185 -0.528,3.481 -0.92,7.325 -0.392,3.844 -0.809,7.084 -0.925,7.2 -0.274,0.272 -20.785,0.956 -21.041,0.701 -0.106,-0.106 1.365,-4.102 3.269,-8.88 l 3.462,-8.688 2.819,-3.305 2.82,-3.306 -10.169,-2.594 c -5.592,-1.427 -12.853,-3.415 -16.135,-4.418 -3.283,-1.003 -6.021,-1.73 -6.085,-1.614 m 176.508,145.717 c -7.169,10.767 -6.73,9.88 -5.618,11.338 1.58,2.071 5.072,2.502 22.28,2.747 19.456,0.277 23.339,-0.194 26.305,-3.192 4.246,-4.29 1.272,-6.66 -14.811,-11.802 -14.313,-4.575 -19.224,-6.472 -21.019,-8.117 l -0.7,-0.642 -6.437,9.668"
       inkscape:connector-curvature="0"
       style="fill:#ffffff;fill-rule:evenodd;stroke:none" />
  </g>
</svg>
