<?xml version="1.0" encoding="UTF-8" standalone="no"?>
<svg
   xmlns:dc="http://purl.org/dc/elements/1.1/"
   xmlns:cc="http://creativecommons.org/ns#"
   xmlns:rdf="http://www.w3.org/1999/02/22-rdf-syntax-ns#"
   xmlns:svg="http://www.w3.org/2000/svg"
   xmlns="http://www.w3.org/2000/svg"
   xmlns:sodipodi="http://sodipodi.sourceforge.net/DTD/sodipodi-0.dtd"
   xmlns:inkscape="http://www.inkscape.org/namespaces/inkscape"
   height="16"
   viewBox="0 0 16 16"
   width="16"
   version="1.1"
   id="svg8"
   sodipodi:docname="kubernetes.svg"
   inkscape:version="1.0 (4035a4fb49, 2020-05-01)">
  <metadata
     id="metadata14">
    <rdf:RDF>
      <cc:Work
         rdf:about="">
        <dc:format>image/svg+xml</dc:format>
        <dc:type
           rdf:resource="http://purl.org/dc/dcmitype/StillImage" />
      </cc:Work>
    </rdf:RDF>
  </metadata>
  <defs
     id="defs12" />
  <sodipodi:namedview
     inkscape:document-rotation="0"
     pagecolor="#ffffff"
     bordercolor="#666666"
     borderopacity="1"
     objecttolerance="10"
     gridtolerance="10"
     guidetolerance="10"
     inkscape:pageopacity="0"
     inkscape:pageshadow="2"
     inkscape:window-width="640"
     inkscape:window-height="480"
     id="namedview10"
     showgrid="false"
     inkscape:zoom="22.822548"
     inkscape:cx="12.104499"
     inkscape:cy="11.842279"
     inkscape:current-layer="svg8" />
  <g
     fill="none"
     fill-rule="evenodd"
     transform="matrix(0.42260643,0,0,0.43529627,0.51031759,0.40513415)"
     id="g6">
    <path
       fill="#326ce5"
       d="M 17.895824,0.98065308 C 17.594772,0.99581859 17.299805,1.0704613 17.028227,1.2002022 L 5.1892291,6.856999 C 4.5685104,7.1534361 4.1176619,7.714071 3.9642964,8.3802157 L 1.043536,21.086811 c -0.13626029,0.591474 -0.025389,1.212466 0.3073688,1.721567 0.039937,0.0616 0.082889,0.12123 0.1287012,0.178668 L 9.6740883,33.17564 c 0.4296727,0.534055 1.0811377,0.844885 1.7700207,0.844885 l 13.14115,-0.003 c 0.688625,5.02e-4 1.340044,-0.309884 1.77002,-0.843371 l 8.191454,-10.190108 c 0.429902,-0.534323 0.590973,-1.233783 0.437584,-1.900236 L 32.059014,8.3771874 C 31.905649,7.7110427 31.4548,7.1504078 30.834082,6.8539707 L 18.99357,1.2002022 C 18.651966,1.0369984 18.274503,0.96150589 17.895824,0.98065308 Z"
       id="path2" />
    <path
       fill="#ffffff"
       fill-rule="nonzero"
       d="m 18.013135,5.3048747 c -0.391347,0 -0.708661,0.352534 -0.708614,0.7873481 0,0.00667 0.0014,0.01305 0.0015,0.019684 -5.77e-4,0.059081 -0.0034,0.130257 -0.0015,0.1816959 0.0093,0.2507887 0.064,0.4427316 0.0969,0.6737887 0.05961,0.4945353 0.109559,0.904475 0.07874,1.2854979 -0.02998,0.1436803 -0.135806,0.2750832 -0.230148,0.36642 l -0.01666,0.2997981 c -0.425257,0.035233 -0.853358,0.099751 -1.280956,0.1968371 -1.839954,0.4177638 -3.424122,1.3655325 -4.630215,2.6451885 -0.07826,-0.05339 -0.215178,-0.151614 -0.255891,-0.181696 -0.126517,0.01708 -0.254384,0.05612 -0.420929,-0.04088 C 10.328251,11.325093 10.039429,11.03044 9.6899491,10.6755 9.5298155,10.505714 9.4138529,10.344038 9.2235965,10.180379 9.1803907,10.143213 9.114454,10.092945 9.0661268,10.054706 8.9173843,9.9361158 8.7419475,9.874269 8.5725198,9.8684678 8.3546839,9.861009 8.1449803,9.9461779 8.0077486,10.118299 c -0.2439671,0.305995 -0.1658578,0.773688 0.1741252,1.044752 0.00345,0.0027 0.00712,0.0049 0.010599,0.0076 0.046719,0.03787 0.1039281,0.0864 0.1468708,0.118103 0.2018941,0.149065 0.3863192,0.225373 0.5874832,0.343707 0.4238115,0.26173 0.7751565,0.47875 1.0538358,0.740411 0.1088244,0.116003 0.1278454,0.320411 0.1423284,0.408816 l 0.22712,0.202893 c -1.2158322,1.829734 -1.7785291,4.089826 -1.4459938,6.392665 l -0.2967698,0.08631 c -0.078216,0.101004 -0.1887413,0.259933 -0.304343,0.307368 -0.3646092,0.114842 -0.7749564,0.157014 -1.2703566,0.208951 -0.2325857,0.01934 -0.4332685,0.0078 -0.6798453,0.05451 -0.05427,0.01028 -0.1298868,0.02998 -0.1892665,0.04391 -0.00206,4.36e-4 -0.00399,10e-4 -0.00606,0.0015 -0.00324,7.51e-4 -0.00749,0.0023 -0.010599,0.003 -0.4176649,0.100916 -0.685974,0.484813 -0.5995962,0.863055 0.086398,0.378331 0.4943648,0.608404 0.9145356,0.517833 0.00303,-6.92e-4 0.00744,-8.09e-4 0.010599,-0.0015 0.00474,-0.0011 0.00892,-0.0034 0.013627,-0.0045 0.058572,-0.01286 0.1319727,-0.02716 0.18321,-0.04088 0.2424229,-0.06491 0.4179944,-0.160278 0.6359354,-0.243775 0.4688692,-0.168167 0.8572036,-0.308651 1.2355316,-0.363392 0.1580114,-0.01238 0.3244899,0.09749 0.4073015,0.143843 l 0.3088829,-0.05299 c 0.7108028,2.203744 2.2004162,3.984954 4.0866412,5.102625 l -0.128701,0.308883 c 0.04639,0.119939 0.09755,0.282219 0.063,0.400666 -0.137541,0.356667 -0.373129,0.73313 -0.641397,1.152833 -0.129893,0.193902 -0.262831,0.344379 -0.380047,0.566285 -0.02805,0.0531 -0.06377,0.134665 -0.09085,0.190781 -0.182124,0.38967 -0.04853,0.838475 0.301312,1.006898 0.352042,0.16948 0.789019,-0.0093 0.978129,-0.399731 2.91e-4,-5.53e-4 0.0012,-9.6e-4 0.0015,-0.0015 1.94e-4,-4.36e-4 -1.94e-4,-0.0011 0,-0.0015 0.02694,-0.05536 0.0651,-0.128125 0.08782,-0.180181 0.100399,-0.230004 0.133806,-0.42711 0.204407,-0.649563 0.187492,-0.470962 0.290504,-0.965121 0.548605,-1.273039 0.07068,-0.08432 0.185902,-0.116746 0.305366,-0.148731 l 0.160498,-0.290713 c 1.644383,0.631177 3.485006,0.80055 5.323687,0.383075 0.41945,-0.09524 0.824388,-0.218493 1.215848,-0.36642 0.04511,0.08001 0.128938,0.233816 0.151414,0.272544 0.121401,0.0395 0.253911,0.05989 0.361877,0.219549 0.193101,0.32991 0.325158,0.720202 0.486036,1.191622 0.07061,0.222449 0.105511,0.419564 0.205922,0.649563 0.02289,0.05242 0.06086,0.126211 0.08782,0.181695 0.188713,0.391729 0.627074,0.571091 0.979643,0.401245 0.349801,-0.168512 0.483541,-0.617276 0.301313,-1.006897 -0.02708,-0.05611 -0.06431,-0.137684 -0.09236,-0.190781 -0.117229,-0.221899 -0.250145,-0.370877 -0.380048,-0.564771 -0.26829,-0.419689 -0.490805,-0.768341 -0.628364,-1.125 -0.05752,-0.183952 0.0097,-0.298356 0.05451,-0.417901 -0.02683,-0.03076 -0.08425,-0.204472 -0.118102,-0.286171 1.960251,-1.157434 3.406122,-3.005069 4.085128,-5.138963 0.09169,0.01441 0.251057,0.04261 0.302826,0.05299 0.106573,-0.07029 0.204563,-0.162001 0.396703,-0.14687 0.37833,0.05472 0.766654,0.195249 1.235532,0.363391 0.217945,0.08349 0.393509,0.180394 0.635935,0.24529 0.05124,0.01372 0.124638,0.02651 0.18321,0.03937 0.0047,0.0012 0.0089,0.0035 0.01363,0.0045 0.0032,7.07e-4 0.0076,8.19e-4 0.0106,0.0015 0.420195,0.09046 0.828235,-0.13948 0.914536,-0.517833 0.08628,-0.378265 -0.181904,-0.762251 -0.599596,-0.863056 -0.06076,-0.01381 -0.14692,-0.03728 -0.205922,-0.04845 -0.24658,-0.0467 -0.447259,-0.03518 -0.679846,-0.05451 -0.495402,-0.05191 -0.905741,-0.09413 -1.270356,-0.208951 -0.148664,-0.05767 -0.254424,-0.234568 -0.305857,-0.307368 l -0.286171,-0.08328 c 0.148373,-1.073431 0.108366,-2.190589 -0.148385,-3.308378 -0.259142,-1.128196 -0.717111,-2.160041 -1.327894,-3.069145 0.07341,-0.06673 0.212036,-0.189493 0.251346,-0.225606 0.01149,-0.127147 0.0016,-0.260456 0.133244,-0.401245 0.278665,-0.261675 0.630038,-0.478658 1.053836,-0.74041 0.201157,-0.118346 0.38711,-0.194632 0.588997,-0.343708 0.04565,-0.03371 0.107995,-0.0871 0.155955,-0.125673 0.339911,-0.271155 0.418171,-0.73882 0.174125,-1.044751 -0.244045,-0.3059314 -0.716953,-0.3347484 -1.056864,-0.06359 -0.04838,0.03832 -0.114033,0.08831 -0.157469,0.125673 -0.190248,0.16367 -0.307742,0.325327 -0.467867,0.495121 -0.349461,0.354959 -0.638313,0.65109 -0.955417,0.86457 -0.137411,0.08 -0.338679,0.05232 -0.430016,0.04694 l -0.269516,0.192295 c -1.536846,-1.611549 -3.629297,-2.6418801 -5.882392,-2.8420285 -0.0063,-0.09442 -0.01456,-0.2650904 -0.01666,-0.3164536 -0.09224,-0.088263 -0.203665,-0.1636164 -0.231662,-0.3543069 -0.03082,-0.3810229 0.02064,-0.7909626 0.08025,-1.2854979 0.0329,-0.2310571 0.08757,-0.423 0.0969,-0.6737887 0.0021,-0.05701 -0.0013,-0.1397367 -0.0015,-0.2013796 -4.7e-5,-0.4348141 -0.317267,-0.7873481 -0.708614,-0.7873481 z m -0.887282,5.4962983 -0.210464,3.717194 -0.01514,0.0076 c -0.01412,0.332544 -0.287805,0.598082 -0.623823,0.598082 -0.137643,0 -0.264691,-0.0442 -0.367934,-0.119617 l -0.0061,0.003 -3.047948,-2.160666 c 0.936759,-0.921132 2.134946,-1.601849 3.515814,-1.915377 0.252242,-0.05727 0.504372,-0.09977 0.755552,-0.130215 z m 1.776077,0 c 1.612173,0.198282 3.103123,0.928287 4.245626,2.047106 l -3.028264,2.147039 -0.0106,-0.0045 c -0.268786,0.196314 -0.647488,0.147605 -0.856999,-0.115074 -0.08582,-0.10761 -0.130855,-0.23414 -0.136271,-0.361877 l -0.003,-0.0015 z m -7.152759,3.434051 2.782974,2.489233 -0.003,0.01514 c 0.251194,0.218373 0.288237,0.597316 0.07874,0.860027 -0.08582,0.107615 -0.200693,0.179794 -0.324024,0.213493 l -0.003,0.01211 -3.567295,1.02961 c -0.181564,-1.660224 0.209728,-3.274093 1.035666,-4.619617 z m 12.508243,0.0015 c 0.413497,0.670218 0.726617,1.418785 0.913022,2.230316 0.18417,0.801801 0.23039,1.602168 0.154441,2.375673 l -3.585464,-1.032638 -0.003,-0.01514 c -0.321069,-0.08775 -0.518387,-0.414345 -0.443641,-0.741925 0.03062,-0.134194 0.101857,-0.247719 0.198352,-0.331595 l -0.0015,-0.0076 2.767833,-2.47712 z m -6.815107,2.680013 h 1.140141 l 0.708614,0.885767 -0.254374,1.105317 -1.023553,0.492093 -1.026582,-0.493607 -0.254374,-1.105317 z m 3.655114,3.031292 c 0.04845,-0.0024 0.09669,0.0019 0.143843,0.0106 l 0.0061,-0.0076 3.68994,0.623822 c -0.540025,1.517189 -1.57338,2.831556 -2.954072,3.711137 l -1.432368,-3.459791 0.0045,-0.0061 c -0.131578,-0.305733 9.6e-5,-0.664258 0.302826,-0.81006 0.07751,-0.03733 0.158482,-0.058 0.239233,-0.06208 z m -6.197342,0.01514 c 0.281592,0.0039 0.534168,0.199393 0.599597,0.486036 0.03063,0.134192 0.01572,0.267153 -0.03482,0.38459 l 0.0106,0.01363 -1.417228,3.424966 C 12.733192,23.422133 11.6778,22.14903 11.113236,20.587007 l 3.658142,-0.620794 0.0061,0.0076 c 0.04092,-0.0075 0.08242,-0.01116 0.122644,-0.0106 z m 3.090344,1.500507 c 0.09809,-0.0036 0.197619,0.01652 0.292227,0.06208 0.124014,0.05972 0.219815,0.153748 0.280114,0.266487 h 0.01363 l 1.803331,3.258412 c -0.234038,0.07846 -0.474643,0.145506 -0.720727,0.20138 -1.37917,0.313142 -2.753957,0.218261 -3.998822,-0.205922 l 1.798788,-3.252355 h 0.003 c 0.107935,-0.201775 0.312636,-0.322153 0.528432,-0.330081 z"
       id="path4" />
  </g>
</svg>
