<svg xmlns="http://www.w3.org/2000/svg" height="16" viewBox="0 0 16 16" width="16"><g fill="none" fill-rule="evenodd"><path fill="#326ce5" d="M8.073.832a.94.94 0 00-.366.096L2.703 3.39a.974.974 0 00-.517.663L.95 9.584a.995.995 0 00.185.827l3.463 4.435a.95.95 0 00.748.368l5.553-.001a.95.95 0 00.748-.367l3.462-4.436a.994.994 0 00.185-.827l-1.236-5.531a.974.974 0 00-.518-.663L8.537.928a.94.94 0 00-.464-.096z"/><path fill="#fff" fill-rule="nonzero" d="M8.123 2.714c-.166 0-.3.154-.3.343l.001.009v.079c.003.109.026.192.04.293.025.215.047.394.034.56a.338.338 0 01-.098.16l-.007.13a3.827 3.827 0 00-2.498 1.237 5.024 5.024 0 01-.108-.08c-.053.008-.108.025-.178-.017-.134-.093-.256-.221-.404-.376-.067-.074-.116-.144-.197-.215-.018-.017-.046-.038-.066-.055a.35.35 0 00-.209-.081.285.285 0 00-.239.109c-.103.133-.07.336.074.454l.005.004c.02.016.043.037.062.051.085.065.163.098.248.15.179.114.327.208.445.322.046.05.054.14.06.178l.096.088a4.087 4.087 0 00-.61 2.783l-.126.038c-.033.044-.08.113-.129.133a2.67 2.67 0 01-.537.091c-.098.009-.183.004-.287.024l-.08.02h-.002l-.005.001c-.176.044-.29.211-.253.376.036.164.209.265.386.225h.005l.005-.002.078-.018c.102-.028.176-.07.269-.106.198-.074.362-.135.522-.159.066-.005.137.043.172.063l.13-.023c.3.96.93 1.735 1.727 2.221l-.054.135c.02.052.041.122.027.174a3.12 3.12 0 01-.271.502c-.055.084-.112.15-.161.246-.012.023-.027.059-.038.083-.077.17-.021.365.127.439.149.074.333-.004.413-.174v-.002c.012-.024.028-.055.038-.078.042-.1.057-.186.086-.283.08-.205.123-.42.232-.554.03-.037.079-.05.13-.065l.067-.126a3.763 3.763 0 002.764.007l.064.119c.051.017.107.026.153.095.081.144.137.314.205.519.03.097.045.183.087.283l.037.079c.08.17.265.248.414.174.148-.073.205-.268.128-.438l-.04-.083c-.049-.096-.105-.161-.16-.246a2.908 2.908 0 01-.266-.49c-.024-.08.004-.13.023-.181-.01-.014-.035-.09-.05-.125a3.996 3.996 0 001.727-2.237l.128.023c.045-.03.086-.07.168-.064.16.024.324.085.522.158.092.037.166.079.268.107.022.006.053.012.078.017L13 9.74l.004.001c.178.04.35-.06.387-.225.036-.165-.077-.332-.254-.376-.026-.006-.062-.016-.087-.021-.104-.02-.189-.016-.287-.024-.21-.023-.383-.04-.537-.09-.063-.026-.108-.103-.13-.135l-.12-.036a4.1 4.1 0 00-.624-2.776c.03-.03.09-.083.106-.098.005-.056 0-.114.056-.175.118-.114.267-.208.446-.322.085-.052.163-.085.249-.15l.066-.055c.143-.118.176-.321.073-.454s-.303-.146-.446-.028c-.02.017-.049.038-.067.055-.08.07-.13.141-.198.215-.147.155-.27.284-.403.377-.059.034-.144.022-.182.02l-.114.084A3.881 3.881 0 008.453 4.29a7.691 7.691 0 01-.007-.138c-.04-.039-.086-.071-.098-.154-.013-.166.009-.345.034-.56.014-.1.037-.184.04-.293.002-.025 0-.061 0-.088 0-.19-.134-.343-.3-.343zm-.375 2.393l-.09 1.618-.006.003a.268.268 0 01-.263.26.257.257 0 01-.156-.051h-.002l-1.288-.94a3.06 3.06 0 011.805-.89zm.75 0a3.075 3.075 0 011.795.89l-1.28.936-.005-.002a.26.26 0 01-.362-.05.275.275 0 01-.057-.158h-.002zM5.476 6.602l1.176 1.083-.002.007c.107.095.122.26.034.374a.264.264 0 01-.137.093l-.001.005-1.508.449a3.254 3.254 0 01.438-2.011zm5.286 0a3.305 3.305 0 01.451 2.005l-1.515-.45-.002-.006a.273.273 0 01-.187-.323.271.271 0 01.084-.144l-.001-.003 1.17-1.079zM7.882 7.77h.481l.3.385-.108.482-.432.214-.434-.215-.108-.481zm1.544 1.32a.21.21 0 01.061.004l.003-.003 1.559.271a3.166 3.166 0 01-1.248 1.616L9.195 9.47l.002-.003a.276.276 0 01.128-.353.257.257 0 01.101-.027zm-2.619.006a.266.266 0 01.254.212.277.277 0 01-.015.167l.004.006-.599 1.49a3.178 3.178 0 01-1.244-1.603l1.546-.27.002.003a.26.26 0 01.052-.005zm1.306.653a.266.266 0 01.242.143h.006l.762 1.419a3.01 3.01 0 01-1.995-.002l.76-1.416h.002a.264.264 0 01.223-.144z"/></g></svg>