<svg xmlns="http://www.w3.org/2000/svg" viewBox="-48 -48 608 608" fill="#563f7d" height="16" width="16"><path d="M59.803 373.706v27.984c-13.472-.369-26.653-.983-38.712-8.064-13.427-7.893-17.775-21.573-18.606-37.004-.558-10.379-.597-34.592-.627-56.77-.964-18.539-7.554-26.702-24.187-29.849-.135-.836-.381-1.746-.381-2.68l-.023-23.038 1.189-1.18C-4.038 238.458 1.7 230.64 1.903 210.577c.134-12.86-.202-25.718.112-38.577.201-8.704.538-17.506 1.95-26.037 3.116-18.859 15.624-30.267 35.641-33.217 5.918-.86 11.88-1.402 17.843-1.5 13.898-.221 27.811-.057 42.628-.057l-.015 178.582c0 21.489 2.174 24.66 21.632 30.783l-4.663 29.922c-10.379-2.582-20.376-3.738-29.41-7.647-17.238-7.425-19.95-24.562-20.017-42.166l-.09-161.388c-7.913.664-15.198.59-22.192 2.065-8.047 1.672-12.642 8.925-12.911 19.547-.381 14.801-.135 29.602-.359 44.403-.112 6.786-.381 13.597-1.12 20.31-1.39 12.661-6.613 22.963-16.342 29.872v1.844c14.593 11.187 17.193 27.955 17.462 45.658.202 14.064.124 28.152.067 42.216-.088 22.078 5.833 27.682 27.684 28.516zm96.695-95.302c-2.062 18.661 11.036 35.806 29.238 39.519 17.215 3.516 33.826.27 51.019-5.63l3.855 25.742c.157 1.303-1.883 3.786-3.34 4.278-25.218 8.654-50.66 11.506-75.968.86-15.601-6.564-26.876-18.784-32.884-35.896-9.527-27.218-9.639-54.608 1.592-81.26 16.408-38.97 57.295-49.1 87.893-33.487 18.493 9.441 27.414 26.996 30.598 48.043 1.815 12.047 1.658 24.439 2.465 37.839zm61.136-26.276c.38-22.718-11.365-36.929-29.769-36.806-17.596.123-31.898 16.645-31.45 36.806zm237.885 149.824v-28.094l7.345-.566c13.83-1.23 19.995-7.966 20.354-23.16.336-14.556 0-29.111.246-43.667.113-7.007.494-14.088 1.435-21.021 1.636-11.999 7.218-21.637 17.485-28.94-18.157-12.637-18.763-31.937-18.942-51.361-.134-13.35.135-26.701-.112-40.027-.336-18.12-6.433-24.735-22.999-25.546l-4.573-.344V111.27c14.391.344 28.648.835 41.268 9.785 11.746 8.335 15.422 21.538 15.983 35.75.695 17.21.336 34.445.627 51.656.09 5.065.314 10.277 1.502 15.121 3.026 12.466 10.894 18.907 22.842 19.35V270.2c-11.432.54-19.614 6.515-22.685 19.005-1.21 4.844-1.524 10.032-1.614 15.072-.314 16.99 0 33.98-.56 50.944-.874 26.923-13.808 41.896-38.242 45.018-6.276.812-12.635 1.123-19.36 1.713zM443.362 262.43c-12.863-6.733-29.095-13.04-34.027-16.055-8.16-4.426-11.455-10.99-10.244-18.39 1.098-6.836 6.344-11.114 15.243-12.688 14.122-2.483 27.594.935 41.267 5.901l5.907-28.176c-16.543-5.508-32.738-9.27-49.393-6.663-8.586 1.327-17.418 3.786-25.196 7.867-26.271 13.769-26.496 59.058-2.87 73.687 8.026 4.991 16.723 8.68 25.062 13.056 6.949 3.663 14.122 6.958 20.667 11.334 5.335 3.565 7.129 9.59 5.739 16.523-1.345 6.736-5.94 9.81-11.41 10.4-8.294.91-16.834 1.77-25.039.688-9.93-1.303-19.636-4.622-29.835-7.18l-5.2 28.374c23.693 9.786 47.23 11.384 71.013 5.655 19.95-4.819 31.293-17.53 32.884-34.79 2.287-24.636-4.617-38.626-24.568-49.543zm-166.685 5.508c-23.648-14.875-23.267-59.82 3.385-74.35 11.858-6.467 24.411-8.877 37.3-7.77 12.172 1.057 24.22 3.81 37.043 5.925l-6.176 29.504c-13.696-5.114-26.966-8.335-40.909-5.999-9.325 1.574-14.548 5.901-15.669 13.08-1.12 7.278 2.242 13.67 10.648 18.17 9.06 4.618 21.456 9.354 33.467 15.736 20.667 11.285 27.885 26.504 24.59 51.534-2.264 17.26-15.982 30.512-36.202 34.003-20.533 3.54-40.909 2.95-60.949-4.081-4.909-1.721-6.97-3.811-5.47-9.712l4.282-21.219s19.838 5.852 29.769 7.13c8.204 1.058 16.744.222 25.038-.688 5.829-.614 10.357-4.204 11.59-11.162 1.187-6.712-.942-12.54-5.986-15.76-18.02-10.846-38.543-19.196-45.75-24.341z" stroke-width="1.147"/></svg>