<svg xmlns="http://www.w3.org/2000/svg" width="16" height="16" viewBox="0 0 16 16" fill="none"><path d="M5.844 13.237l1.935 1.94h3.142c.383 0 .69-.312.69-.692V7.21l-5.767 5.786a.167.167 0 000 .24z" fill="#235dc1" stroke-width=".299"/><path d="M.917 5.149v3.15l1.936 1.94a.166.166 0 00.24 0l5.77-5.786H1.609c-.38 0-.69.312-.69.696z" fill="#3b6ec6" stroke-width=".299"/><path d="M8.18 1.622L3.522 8.768a.614.614 0 00.079.767l2.984 2.992a.61.61 0 00.765.079l7.128-4.674c.454-.298.726-.807.726-1.35V1.6a.711.711 0 00-.708-.71H9.529c-.544 0-1.048.276-1.349.732z" fill="#5d8de4" stroke-width=".299"/><path d="M1.965 14.195V11.67H.917v3.522h3.567v-.997z" fill="#9fbbf0" stroke-width=".299"/><path d="M11.629 6.184c.98 0 1.774-.796 1.774-1.779 0-.983-.794-1.78-1.774-1.78s-1.775.797-1.775 1.78.795 1.78 1.775 1.78z" fill="#adc5f2" stroke-width=".299"/><path d="M8.452 6.789l-3.795 3.805.875.877 3.795-3.804z" fill="#6c9aee" stroke-width=".299"/><path d="M4.777 12.228l.754-.756-.876-.877-.754.756z" fill="#88acef" stroke-width=".299"/></svg>