<svg xmlns="http://www.w3.org/2000/svg" width="16" height="16" viewBox="0 0 16 16"><path d="M.136 4.339h15.83v7.337H8.051v1.222H4.533v-1.222H.136zm.88 6.114h1.758V6.785h.88v3.668h.879V5.562H1.015zm4.396-4.891v6.114h1.76v-1.223H8.93V5.562zm1.76 1.223h.879V9.23h-.88zM9.81 5.562v4.89h1.759V6.786h.88v3.668h.879V6.785h.88v3.668h.879V5.562z" fill="#87939a" stroke-width="1.037"/><path fill="#fff" d="M4.533 10.453V5.562H1.015v4.89h1.759V6.786h.88v3.668z"/><path d="M5.412 5.562v6.114h1.76v-1.223H8.93V5.562zM8.051 9.23h-.88V6.785h.88z" fill="#fff" stroke-width="1.037"/><path fill="#fff" d="M12.448 10.453h.88V6.785h.88v3.668h.879V5.562H9.81v4.89h1.759V6.786h.88z"/></svg>