<svg xmlns="http://www.w3.org/2000/svg" width="16" height="16" viewBox="0 0 16 16" fill-rule="evenodd" clip-rule="evenodd" stroke-linejoin="round" stroke-miterlimit="1.414"><path fill="none" stroke-width=".503" d="M0 0h16.068v16.136H0z"/><path d="M8.567 3.025a.504.504 0 01.452-.502c.017 0 .033 0 .05-.002.828 0 1.657-.004 2.486 0 .272.002.541.12.727.32.171.183.27.434.271.686.005 3.531.005 7.063 0 10.595a1.026 1.026 0 01-.437.83 1.014 1.014 0 01-.564.175c-2.346.004-4.69.004-7.036 0a1.012 1.012 0 01-.65-.242 1.025 1.025 0 01-.351-.763 3118.17 3118.17 0 010-10.595 1.01 1.01 0 011.004-1.006h2.478c.044.002.055.001.098.01a.513.513 0 01.404.494z" fill="#f2f2f2" fill-rule="nonzero" stroke-width=".503"/><path d="M8.034 3.025h.533a.504.504 0 01.452-.502c.017 0 .033 0 .05-.002.828 0 1.657-.004 2.486 0 .272.002.541.12.727.32.171.183.27.434.271.686.005 3.531.005 7.063 0 10.595a1.026 1.026 0 01-.437.83 1.014 1.014 0 01-.564.175l-3.518.003z" fill="#d9d9d9" fill-rule="nonzero" stroke-width=".503"/><path fill="#90caf9" stroke-width=".503" d="M4.519 3.53h7.03v7.059h-7.03z"/><path fill="#42a5f5" stroke-width=".503" d="M8.034 3.53h3.515v7.059H8.034z"/><path d="M10.092 12.104l.048.007a.513.513 0 01.395.397.507.507 0 01-.395.593c-.043.008-.054.007-.098.01H6.025c-.043-.003-.054-.002-.097-.01a.51.51 0 01-.367-.302.513.513 0 01.022-.43.509.509 0 01.393-.265l.05-.002h4.016l.05.002z" fill="#4d4d4d" fill-rule="nonzero" stroke-width=".503"/><path d="M8.034 12.102h2.008l.05.002.048.007a.513.513 0 01.395.397.507.507 0 01-.395.593c-.043.008-.054.007-.098.01H8.034z" fill="#262626" fill-rule="nonzero" stroke-width=".503"/><path d="M9.04 5.042H7.028c-.02 0-.024 0-.046-.002a.51.51 0 01-.453-.456c-.002-.02-.002-.025-.002-.044V1.51a.486.486 0 01.074-.258.513.513 0 01.381-.242l.045-.003H9.04l.019.001c.023.001.028.001.05.005a.515.515 0 01.429.453c.002.02.002.025.002.044v3.03c0 .019 0 .024-.002.044a.521.521 0 01-.453.456c-.022.002-.025.002-.046.002z" fill="#4d4d4d" stroke-width=".503"/><path d="M7.028 1.008H9.04l.019.001c.023.001.028.001.05.005a.515.515 0 01.429.453c.002.02.002.025.002.044V4.54c0 .019 0 .024-.002.044a.521.521 0 01-.453.456c-.022.002-.025.002-.046.002H8.034V1.008z" fill="#262626" stroke-width=".503"/><path d="M5.523 10.589l.003-.117a2.54 2.54 0 01.463-1.346 2.55 2.55 0 01.794-.722 1.52 1.52 0 01-.241-.634c-.052-.38.046-.778.27-1.09A1.52 1.52 0 018 6.051h.039c.384.002.767.157 1.044.427.224.219.378.509.434.818.067.38-.017.786-.23 1.108a2.548 2.548 0 011.258 2.18v.005z" fill="#1e88e5" stroke-width=".503"/><path d="M8.034 6.05h.005a1.53 1.53 0 011.044.428c.224.219.378.509.434.818.067.38-.017.786-.23 1.108a2.548 2.548 0 011.258 2.18v.005H8.033z" fill="#1976d2" stroke-width=".503"/></svg>