<?xml version="1.0" encoding="UTF-8" standalone="no"?>
<svg
   xmlns:dc="http://purl.org/dc/elements/1.1/"
   xmlns:cc="http://creativecommons.org/ns#"
   xmlns:rdf="http://www.w3.org/1999/02/22-rdf-syntax-ns#"
   xmlns:svg="http://www.w3.org/2000/svg"
   xmlns="http://www.w3.org/2000/svg"
   xmlns:sodipodi="http://sodipodi.sourceforge.net/DTD/sodipodi-0.dtd"
   xmlns:inkscape="http://www.inkscape.org/namespaces/inkscape"
   style="fill-rule:evenodd;clip-rule:evenodd;stroke-linejoin:round;stroke-miterlimit:1.41421;"
   version="1.1"
   width="16"
   height="16"
   viewBox="0 0 16 16"
   xml:space="preserve"
   id="svg23"
   sodipodi:docname="pid.svg"
   inkscape:version="0.92.4 (5da689c313, 2019-01-14)"><metadata
     id="metadata29"><rdf:RDF><cc:Work
         rdf:about=""><dc:format>image/svg+xml</dc:format><dc:type
           rdf:resource="http://purl.org/dc/dcmitype/StillImage" /></cc:Work></rdf:RDF></metadata><defs
     id="defs27" /><sodipodi:namedview
     pagecolor="#ffffff"
     bordercolor="#666666"
     borderopacity="1"
     objecttolerance="10"
     gridtolerance="10"
     guidetolerance="10"
     inkscape:pageopacity="0"
     inkscape:pageshadow="2"
     inkscape:window-width="1920"
     inkscape:window-height="1001"
     id="namedview25"
     showgrid="false"
     inkscape:zoom="14.75"
     inkscape:cx="8"
     inkscape:cy="8"
     inkscape:window-x="-9"
     inkscape:window-y="-9"
     inkscape:window-maximized="1"
     inkscape:current-layer="svg23" /><rect
     height="16.135593"
     id="ID-Card"
     style="fill:none;stroke-width:0.50317687"
     width="16.067797"
     x="0"
     y="0" /><path
     d="m 8.5666462,3.0254237 c 0.001,-0.1316059 0.053727,-0.2632118 0.1466186,-0.3564957 0.081343,-0.081686 0.1913072,-0.1341272 0.3057903,-0.1452204 0.01657,-0.00151 0.03314,-0.00151 0.049208,-0.00252 0.8289979,0 1.6579949,-0.00403 2.4869929,0 0.271647,0.00202 0.540782,0.1200085 0.726566,0.3191822 0.171222,0.1835424 0.27014,0.4341483 0.271144,0.686267 0.0055,3.531678 0.0055,7.0633562 0,10.5950332 -0.0015,0.324225 -0.166703,0.643407 -0.437345,0.829471 -0.165197,0.113453 -0.365543,0.17497 -0.563879,0.175979 -2.3453963,0.0035 -4.6902903,0.0035 -7.0356865,0 C 4.2795576,15.12612 4.0450682,15.03888 3.866314,14.885086 3.6473902,14.697005 3.5163373,14.412111 3.5148309,14.12167 c -0.00552,-3.531677 -0.00552,-7.0633552 0,-10.5950332 0.00151,-0.3131326 0.1551543,-0.62223 0.4102305,-0.8103105 C 4.0962839,2.5902669 4.3071737,2.5216907 4.5185657,2.5211864 h 2.4784576 c 0.043684,0.00202 0.054731,0.00101 0.097913,0.00958 0.1923115,0.038826 0.3555,0.1986695 0.3941632,0.3963306 0.00653,0.032271 0.00954,0.065551 0.00954,0.098326 z"
     style="fill:#f2f2f2;fill-rule:nonzero;stroke-width:0.50317687"
     id="path3"
     inkscape:connector-curvature="0" /><path
     d="m 8.0338983,3.0254237 h 0.5327479 c 0.001,-0.1316059 0.053727,-0.2632118 0.1466186,-0.3564957 0.081343,-0.081686 0.1913072,-0.1341272 0.3057903,-0.1452204 0.01657,-0.00151 0.03314,-0.00151 0.049208,-0.00252 0.8289979,0 1.6579949,-0.00403 2.4869929,0 0.271647,0.00202 0.540782,0.1200085 0.726566,0.3191822 0.171222,0.1835424 0.27014,0.4341483 0.271144,0.686267 0.0055,3.531678 0.0055,7.0633562 0,10.5950332 -0.0015,0.324225 -0.166703,0.643407 -0.437345,0.829471 -0.165197,0.113453 -0.365543,0.17497 -0.563879,0.175979 -1.172448,0.002 -2.3453963,0.0025 -3.5178433,0.0025 z"
     style="fill:#d9d9d9;fill-rule:nonzero;stroke-width:0.50317687"
     id="path5"
     inkscape:connector-curvature="0" /><rect
     height="7.0593219"
     style="fill:#90caf9;stroke-width:0.50317687"
     width="7.0296612"
     x="4.5190678"
     y="3.5296609"
     id="rect7" /><rect
     height="7.0593219"
     style="fill:#42a5f5;stroke-width:0.50317687"
     width="3.5148306"
     x="8.0338984"
     y="3.5296609"
     id="rect9" /><path
     d="m 10.091581,12.104216 c 0.01607,0.0025 0.03264,0.004 0.0487,0.0071 0.193316,0.03883 0.3555,0.19867 0.394665,0.396331 0.03214,0.16186 -0.02109,0.338343 -0.13758,0.454822 -0.06979,0.07009 -0.160176,0.118496 -0.257085,0.138161 -0.04318,0.0086 -0.05423,0.0076 -0.09791,0.0096 H 6.0254237 c -0.043684,-0.002 -0.054731,-10e-4 -0.097913,-0.0096 -0.1611801,-0.03227 -0.3027775,-0.148246 -0.3660445,-0.301534 -0.056237,-0.137152 -0.049208,-0.299013 0.021089,-0.430619 0.077326,-0.145724 0.2289661,-0.248084 0.393661,-0.26422 0.01657,-0.0015 0.032638,-0.0015 0.049208,-0.0025 h 4.0169498 c 0.01657,0.001 0.03264,0.0015 0.04921,0.0025 z"
     style="fill:#4d4d4d;fill-rule:nonzero;stroke-width:0.50317687"
     id="path11"
     inkscape:connector-curvature="0" /><path
     d="m 8.0338983,12.101695 h 2.0084747 c 0.01657,0.001 0.03264,0.0015 0.04921,0.0025 0.01607,0.0025 0.03264,0.004 0.0487,0.0071 0.193316,0.03883 0.3555,0.19867 0.394665,0.396331 0.03214,0.16186 -0.02109,0.338343 -0.13758,0.454822 -0.06979,0.07009 -0.160176,0.118496 -0.257085,0.138161 -0.04318,0.0086 -0.05423,0.0076 -0.09791,0.0096 H 8.0338983 Z"
     style="fill:#262626;fill-rule:nonzero;stroke-width:0.50317687"
     id="path13"
     inkscape:connector-curvature="0" /><path
     d="m 9.0391398,5.0423729 h -2.010483 c -0.020587,-5.043e-4 -0.0236,0 -0.045191,-0.00252 C 6.7695636,5.0181695 6.5832775,4.8583263 6.5375847,4.6354534 c -0.00351,-0.017648 -0.00603,-0.03328 -0.00753,-0.051432 -0.00201,-0.020169 -0.00201,-0.025212 -0.00251,-0.044373 V 1.5111992 c 5.021e-4,-0.019161 5.021e-4,-0.024203 0.00251,-0.044373 0.00854,-0.084208 0.032136,-0.1492543 0.071301,-0.2137966 C 6.6816947,1.1199109 6.826807,1.026627 6.983468,1.0109957 c 0.021089,-0.00202 0.025106,-0.00202 0.044689,-0.00252 h 2.0114872 c 0.00653,0 0.012553,5.042e-4 0.019081,5.042e-4 0.023097,0.00151 0.028119,0.00151 0.051216,0.00504 0.2013495,0.031263 0.3770911,0.1900974 0.4202733,0.4013729 0.00351,0.017648 0.00603,0.03328 0.00753,0.051432 0.00201,0.02017 0.00201,0.025212 0.00251,0.044373 v 3.0284491 c -5.021e-4,0.019161 -5.021e-4,0.024203 -0.00251,0.044373 -0.00552,0.056475 -0.018076,0.1018559 -0.037659,0.1477415 -0.058246,0.138161 -0.1812648,0.2455636 -0.3158326,0.2879195 -0.032638,0.010085 -0.065777,0.01664 -0.099922,0.020169 -0.021591,0.00252 -0.024604,0.00202 -0.045191,0.00252 z"
     style="fill:#4d4d4d;stroke-width:0.50317687"
     id="path15"
     inkscape:connector-curvature="0" /><path
     d="m 7.0281547,1.0084746 h 2.0114872 c 0.00653,0 0.012553,5.042e-4 0.019081,5.042e-4 0.023097,0.00151 0.028119,0.00151 0.051216,0.00504 0.2013495,0.031263 0.3770911,0.1900974 0.4202733,0.4013729 0.00351,0.017648 0.00603,0.03328 0.00753,0.051432 0.00201,0.02017 0.00201,0.025212 0.00251,0.044373 v 3.0284491 c -5.021e-4,0.019161 -5.021e-4,0.024203 -0.00251,0.044373 -0.00552,0.056475 -0.018076,0.1018559 -0.037659,0.1477415 -0.058246,0.138161 -0.1812648,0.2455636 -0.3158326,0.2879195 -0.032638,0.010085 -0.065777,0.01664 -0.099922,0.020169 -0.021591,0.00252 -0.024604,0.00202 -0.045191,0.00252 H 8.0338983 V 1.0084746 Z"
     style="fill:#262626;stroke-width:0.50317687"
     id="path17"
     inkscape:connector-curvature="0" /><path
     d="M 5.522803,10.588983 C 5.5223008,10.550153 5.524313,10.510823 5.525813,10.472 5.5479089,9.9909576 5.7105953,9.5179831 5.9887691,9.1261907 6.1981525,8.8317161 6.4718072,8.5841356 6.7831208,8.4036186 6.657089,8.2140254 6.5727331,7.9972034 6.5416017,7.7697924 6.4898835,7.3901017 6.5877966,6.9917542 6.8112394,6.6801356 7.0823835,6.3024619 7.5282648,6.0619407 8.0002564,6.0513517 c 0.012553,-5.042e-4 0.025608,-5.042e-4 0.038663,-5.042e-4 0.3836186,0.00202 0.7667352,0.157322 1.0439047,0.4275932 0.224447,0.2183347 0.3785974,0.5082712 0.4338305,0.8178729 0.067786,0.3801949 -0.01657,0.7856017 -0.2304725,1.1078093 0.08536,0.048911 0.1682097,0.1033686 0.2470424,0.1623644 0.5352585,0.4008686 0.9028095,1.0210805 0.9901785,1.6942377 0.01406,0.107402 0.02059,0.216317 0.02109,0.324224 v 0.0035 5.04e-4 z"
     style="fill:#1e88e5;stroke-width:0.50317687"
     id="path19"
     inkscape:connector-curvature="0" /><path
     d="m 8.0338983,6.0508475 h 0.00502 c 0.3836186,0.00202 0.7667352,0.157322 1.0439047,0.4275932 0.224447,0.2183347 0.3785974,0.5082712 0.4338305,0.8178729 0.067786,0.3801949 -0.01657,0.7856017 -0.2304725,1.1078093 0.08536,0.048911 0.1682097,0.1033686 0.2470424,0.1623644 0.5352586,0.4008686 0.9028096,1.0210805 0.9901786,1.6942377 0.01406,0.107402 0.02059,0.216317 0.02109,0.324224 v 0.0035 5.04e-4 H 8.0338983 Z"
     style="fill:#1976d2;stroke-width:0.50317687"
     id="path21"
     inkscape:connector-curvature="0" /></svg>