<svg xmlns="http://www.w3.org/2000/svg" width="16" height="16" viewBox="0 0 16 16"><style/><path d="M8.943.965c-3.872-.513-7.412 2.289-7.91 6.25-.496 3.96 2.238 7.587 6.11 8.095 3.872.508 7.412-2.29 7.913-6.25.497-3.96-2.237-7.587-6.113-8.095.005 0 .005 0 0 0zm1.456 4.508a.508.508 0 00-.348.152L7.427 8.309l-.56-.573c2.581-2.637 3.052-2.663 3.532-2.263zM7.534 8.404l2.615-2.658a.366.366 0 01.624.274.383.383 0 01-.123.27L7.886 8.781zm.195.404l-.65.17a.03.03 0 01-.038 0 .038.038 0 010-.044l.395-.404zM6.073 8.53l.692-.708.522.548-1.184.26a.047.047 0 01-.055-.039c-.005-.017 0-.03.012-.043zM3.93 12.21c-.017-.005-.034-.018-.038-.03a.078.078 0 010-.049l.556-.573.722.734zm1.427-.76a.141.141 0 00-.073.152l.12.52a.084.084 0 01-.035.088c-.025.022-.063.022-.085 0l-.721-.76 2.216-2.272 1.074-.234.514.525A14.285 14.285 0 015.36 11.44v.01zm3.116-2.067l-.493-.504 2.764-2.489a.417.417 0 00.072-.078c-.089.808-1.201 1.954-2.343 3.07zm2.156-3.896a1.117 1.117 0 01.034-1.555 1.05 1.05 0 011.414-.06l-.95.968a.08.08 0 000 .104l.738.751a1.055 1.055 0 01-1.24-.217zm1.516 0c-.05.048-.102.096-.161.135l-.71-.726.905-.925c.39.43.378 1.099-.034 1.516z" fill="#ff6c37" stroke-width=".043"/><path d="M4.937 11.831c-.19-.204-.343-.38-.339-.392.004-.011.495-.521 1.092-1.133l1.085-1.112.516-.117c.284-.065.53-.118.545-.119.015 0 .136.116.268.258l.241.26-.294.236c-.754.607-1.655 1.194-2.415 1.573-.273.136-.365.205-.365.272 0 .024.029.165.064.313.107.452.057.448-.398-.039zm-.477.405c-.29-.02-.536-.045-.548-.057-.02-.019.495-.599.533-.599.015 0 .426.415.6.606l.086.094-.073-.004-.599-.04zm3.264-3.642a.973.973 0 01-.154-.19c0-.039 2.6-2.67 2.679-2.71.243-.127.552.096.507.365a.43.43 0 01-.079.174c-.062.074-2.747 2.505-2.781 2.518-.01.004-.088-.066-.172-.157zm-.679.366c0-.01.09-.106.2-.216l.2-.198.124.123c.069.067.12.126.116.132-.022.021-.64.175-.64.16zm-.975-.385c0-.017.16-.189.353-.38l.352-.35.235.25c.13.137.235.255.235.262 0 .015-1.064.25-1.13.25-.024 0-.044-.014-.044-.032zm1.077-.571l-.261-.278.548-.541c1.117-1.102 1.768-1.637 2.214-1.817.24-.098.49-.08.658.048.05.038.049.04-.025.066-.04.015-.1.04-.132.057-.032.016-.655.64-1.384 1.386a80.39 80.39 0 01-1.341 1.357 3.34 3.34 0 01-.277-.278zm1.079 1.113l-.223-.24.14-.13c.397-.373 2.65-2.387 2.65-2.37 0 .012-.017.083-.04.158-.097.331-.408.817-.873 1.366-.25.295-1.376 1.455-1.412 1.455-.01 0-.12-.107-.242-.239zm3.004-3.339c-.47-.06-.849-.48-.88-.977-.02-.33.074-.595.296-.83a1.11 1.11 0 01.76-.337c.154 0 .384.068.53.157l.132.079-.487.49c-.268.269-.488.503-.488.521 0 .018.168.208.374.423l.373.39-.08.034a1.25 1.25 0 01-.53.05z" fill="#f9f9f9" stroke-width=".025"/><path d="M11.635 5.25l-.339-.358.44-.456.44-.457.046.059c.026.032.083.131.127.22.078.155.081.175.081.45 0 .27-.004.298-.077.45-.077.161-.249.38-.335.425-.037.02-.1-.035-.383-.334z" fill="#f9f9f9" stroke-width=".025"/></svg>