<?xml version="1.0" encoding="UTF-8" standalone="no"?>
<!-- Generator: Adobe Illustrator 23.0.3, SVG Export Plug-In . SVG Version: 6.00 Build 0)  -->

<svg
   xmlns:dc="http://purl.org/dc/elements/1.1/"
   xmlns:cc="http://creativecommons.org/ns#"
   xmlns:rdf="http://www.w3.org/1999/02/22-rdf-syntax-ns#"
   xmlns:svg="http://www.w3.org/2000/svg"
   xmlns="http://www.w3.org/2000/svg"
   xmlns:sodipodi="http://sodipodi.sourceforge.net/DTD/sodipodi-0.dtd"
   xmlns:inkscape="http://www.inkscape.org/namespaces/inkscape"
   version="1.1"
   id="Layer_1"
   x="0px"
   y="0px"
   width="16"
   height="16"
   viewBox="0 0 16 16"
   style="enable-background:new 0 0 1097.7 333.1;"
   xml:space="preserve"
   sodipodi:docname="postman.svg"
   inkscape:version="0.92.4 (5da689c313, 2019-01-14)"><metadata
   id="metadata34"><rdf:RDF><cc:Work
       rdf:about=""><dc:format>image/svg+xml</dc:format><dc:type
         rdf:resource="http://purl.org/dc/dcmitype/StillImage" /></cc:Work></rdf:RDF></metadata><defs
   id="defs32" /><sodipodi:namedview
   pagecolor="#ffffff"
   bordercolor="#666666"
   borderopacity="1"
   objecttolerance="10"
   gridtolerance="10"
   guidetolerance="10"
   inkscape:pageopacity="0"
   inkscape:pageshadow="2"
   inkscape:window-width="1920"
   inkscape:window-height="1001"
   id="namedview30"
   showgrid="false"
   inkscape:zoom="40.020021"
   inkscape:cx="15.491228"
   inkscape:cy="6.6585528"
   inkscape:window-x="-9"
   inkscape:window-y="-9"
   inkscape:window-maximized="1"
   inkscape:current-layer="g27" />
<style
   type="text/css"
   id="style2">
	.st0{fill:#FFFFFF;}
	.st1{fill:#FF6C37;}
</style>
<title
   id="title4">hor-white-logo</title>
<g
   id="g27"
   transform="translate(-316.05602,-557.34611)">

<path
   class="st1"
   d="m 324.99905,558.31103 c -3.87183,-0.51247 -7.41252,2.28873 -7.90924,6.24948 -0.49672,3.96075 2.23735,7.58711 6.10917,8.09523 3.87185,0.50813 7.41253,-2.28872 7.91349,-6.24948 0.49673,-3.96075 -2.23734,-7.58711 -6.11342,-8.09523 0.005,0 0.005,0 0,0 z m 1.45618,4.50796 c -0.1316,0.005 -0.25472,0.0564 -0.34813,0.152 l -2.62367,2.68393 -0.5604,-0.57325 c 2.58124,-2.63616 3.05246,-2.66222 3.5322,-2.26268 z m -2.86567,2.93148 2.6152,-2.65787 c 0.14433,-0.14332 0.37359,-0.14332 0.51795,0 0.0722,0.0739 0.11036,0.17372 0.10612,0.27361 -0.005,0.10423 -0.0467,0.19977 -0.12311,0.26925 l -2.76379,2.49284 z m 0.1953,0.40389 -0.64956,0.16938 c -0.0127,0.009 -0.0255,0.009 -0.0382,0 -0.009,-0.013 -0.009,-0.0305 0,-0.0435 l 0.39483,-0.4039 z m -1.65572,-0.27794 0.692,-0.7079 0.5222,0.54721 -1.18448,0.26058 c -0.0255,0.005 -0.051,-0.013 -0.0551,-0.0392 -0.005,-0.0174 0,-0.0305 0.0127,-0.0434 z m -2.14394,3.67847 c -0.017,-0.005 -0.0339,-0.0174 -0.0382,-0.0305 -0.005,-0.0174 -0.005,-0.0347 0,-0.0478 l 0.55616,-0.57326 0.72172,0.73396 z m 1.42647,-0.76002 v 0 c -0.0551,0.0305 -0.0849,0.0912 -0.0723,0.152 l 0.11888,0.52115 c 0.009,0.0347 -0.009,0.0695 -0.0339,0.0869 -0.0255,0.0217 -0.0637,0.0217 -0.0849,0 l -0.72171,-0.76002 2.2161,-2.27136 1.07411,-0.23451 0.51368,0.5255 c -0.91699,0.78172 -1.92742,1.44619 -3.00575,1.97168 v 0.009 z m 3.11614,-2.06724 -0.49247,-0.50378 2.76376,-2.48849 c 0.0256,-0.0217 0.051,-0.0478 0.0722,-0.0781 -0.0892,0.80778 -1.20145,1.95431 -2.34347,3.07045 z m 2.15668,-3.89561 c -0.4118,-0.43863 -0.39481,-1.1335 0.0339,-1.55478 0.39058,-0.38216 0.99342,-0.40822 1.41372,-0.0608 l -0.95097,0.96847 c -0.0255,0.0305 -0.0255,0.0739 0,0.10424 l 0.73871,0.75132 c -0.41606,0.20847 -0.91702,0.12161 -1.23967,-0.21715 z m 1.51561,0 c -0.051,0.0477 -0.10188,0.0956 -0.16132,0.13463 l -0.70899,-0.72526 0.90428,-0.92505 c 0.39059,0.42995 0.37784,1.09876 -0.0339,1.51568 z"
   id="path24"
   inkscape:connector-curvature="0"
   style="fill:#ff6c37;fill-opacity:1;stroke-width:0.04293907" /><path
   style="fill:#f9f9f9;fill-opacity:1;stroke-width:0.02498749"
   d="M 4.9374137,11.831192 C 4.7468808,11.627456 4.5941624,11.451121 4.5980395,11.439336 4.6019167,11.42755 5.0932554,10.917533 5.6899034,10.305964 L 6.774718,9.194021 7.2911459,9.0766791 C 7.5751813,9.0121411 7.8202426,8.9587303 7.8357264,8.9579885 7.8512101,8.9572467 7.9721391,9.0735494 8.1044576,9.216439 L 8.3450367,9.4762383 8.0513177,9.7124424 C 7.2972159,10.318879 6.3955839,10.905876 5.6364881,11.284589 c -0.2732109,0.136305 -0.3651447,0.205012 -0.3651447,0.27289 0,0.02387 0.028583,0.164372 0.063518,0.312222 0.1069763,0.452742 0.057483,0.447947 -0.3974473,-0.03851 z"
   id="path10"
   inkscape:connector-curvature="0"
   transform="translate(316.05602,557.34611)" /><path
   style="fill:#f9f9f9;fill-opacity:1;stroke-width:0.02498749"
   d="m 4.4592499,12.23644 c -0.2886056,-0.01987 -0.5347578,-0.04565 -0.547005,-0.05729 -0.020192,-0.01919 0.4952143,-0.598821 0.5324754,-0.598821 0.014897,0 0.4259384,0.414511 0.6008745,0.605946 l 0.085627,0.0937 -0.073617,-0.0037 c -0.04049,-0.002 -0.3097492,-0.01996 -0.5983547,-0.03983 z"
   id="path12"
   inkscape:connector-curvature="0"
   transform="translate(316.05602,557.34611)" /><path
   style="fill:#f9f9f9;fill-opacity:1;stroke-width:0.02498749"
   d="M 7.7237866,8.5942662 C 7.63931,8.5039606 7.5701928,8.418231 7.5701928,8.403756 c 0,-0.038782 2.5994602,-2.6688735 2.6786682,-2.7102326 0.242983,-0.1268765 0.55255,0.09636 0.507054,0.3656484 -0.0093,0.055332 -0.04476,0.1336022 -0.0787,0.1739346 -0.06212,0.073826 -2.7475049,2.5049938 -2.7815679,2.5182459 -0.010046,0.00391 -0.087383,-0.06678 -0.1718605,-0.1570861 z"
   id="path14"
   inkscape:connector-curvature="0"
   transform="translate(316.05602,557.34611)" /><path
   style="fill:#f9f9f9;fill-opacity:1;stroke-width:0.02498749"
   d="m 7.0454554,8.9604347 c 0,-0.0096 0.089875,-0.1068087 0.1997215,-0.2160112 l 0.1997216,-0.1985502 0.12454,0.1226674 c 0.068497,0.067467 0.1202932,0.1269143 0.1151026,0.132105 -0.02141,0.02141 -0.6390857,0.175846 -0.6390857,0.159789 z"
   id="path16"
   inkscape:connector-curvature="0"
   transform="translate(316.05602,557.34611)" /><path
   style="fill:#f9f9f9;fill-opacity:1;stroke-width:0.02498749"
   d="m 6.0709432,8.5752458 c 0,-0.017363 0.1583178,-0.1888397 0.3518173,-0.3810593 l 0.3518173,-0.3494902 0.2352346,0.249875 c 0.129379,0.1374312 0.235304,0.2556198 0.2353888,0.2626414 1.77e-4,0.014658 -1.0643209,0.2497282 -1.1305299,0.2496523 -0.024051,-2.76e-5 -0.043728,-0.014256 -0.043728,-0.031619 z"
   id="path18"
   inkscape:connector-curvature="0"
   transform="translate(316.05602,557.34611)" /><path
   style="fill:#f9f9f9;fill-opacity:1;stroke-width:0.02498749"
   d="M 7.1468353,8.0038619 6.8858966,7.7257697 7.4341915,7.1849296 C 8.5509586,6.0833465 9.2023779,5.5484923 9.6476152,5.3675762 c 0.2410711,-0.097956 0.4913288,-0.079416 0.6587078,0.048799 0.04883,0.037402 0.04825,0.038911 -0.02499,0.065652 -0.04123,0.015053 -0.100996,0.040675 -0.132815,0.056936 C 10.116703,5.5552254 9.4942537,6.179056 8.7653014,6.9252539 8.0363492,7.6714519 7.4326977,8.2819722 7.4238539,8.281966 7.41501,8.2819597 7.2903516,8.1568129 7.1468353,8.0038619 Z"
   id="path20"
   inkscape:connector-curvature="0"
   transform="translate(316.05602,557.34611)" /><path
   style="fill:#f9f9f9;fill-opacity:1;stroke-width:0.02498749"
   d="M 8.2257324,9.1171717 8.0026462,8.8779039 8.1424912,8.7465925 c 0.39715,-0.3729151 2.6510878,-2.3868335 2.6510878,-2.3687763 0,0.011566 -0.01798,0.082103 -0.03995,0.1567484 -0.09761,0.3316433 -0.408499,0.8178377 -0.8734199,1.3659469 -0.2509065,0.2958012 -1.37601,1.4559282 -1.4119747,1.4559282 -0.01068,0 -0.1198075,-0.1076706 -0.242505,-0.239268 z"
   id="path22"
   inkscape:connector-curvature="0"
   transform="translate(316.05602,557.34611)" /><path
   style="fill:#f9f9f9;fill-opacity:1;stroke-width:0.02498749"
   d="m 11.230861,5.7777729 c -0.471325,-0.059991 -0.849524,-0.4794395 -0.88054,-0.9765751 -0.02059,-0.3300905 0.07392,-0.5952312 0.295822,-0.8298579 0.19169,-0.202684 0.4945,-0.3370361 0.75963,-0.3370361 0.154172,0 0.38435,0.067753 0.531089,0.1563262 l 0.13129,0.079248 -0.487361,0.4895838 c -0.268049,0.2692711 -0.487362,0.503984 -0.487362,0.5215842 0,0.0176 0.168014,0.2077167 0.373364,0.4224811 l 0.373364,0.3904808 -0.07976,0.033697 c -0.116343,0.049153 -0.357548,0.071959 -0.529535,0.050068 z"
   id="path25"
   inkscape:connector-curvature="0"
   transform="translate(316.05602,557.34611)" /><path
   style="fill:#f9f9f9;fill-opacity:1;stroke-width:0.02498749"
   d="m 11.63512,5.2493529 -0.338767,-0.3575652 0.440126,-0.4561926 0.440126,-0.4561925 0.04583,0.058585 c 0.02521,0.032222 0.08228,0.1314202 0.126828,0.2204412 0.07729,0.1544425 0.081,0.1750445 0.081,0.4497749 0,0.2707088 -0.0046,0.2976268 -0.07772,0.4503372 -0.07698,0.1608709 -0.248408,0.3786733 -0.334177,0.4245752 -0.03713,0.019874 -0.100386,-0.035212 -0.383243,-0.3337631 z"
   id="path27"
   inkscape:connector-curvature="0"
   transform="translate(316.05602,557.34611)" /></g>
</svg>