<svg xmlns="http://www.w3.org/2000/svg" width="16" height="16" viewBox="0 0 16 16"><g fill="none" fill-rule="evenodd"><g transform="matrix(.06177 0 0 .06308 1.591 14.168)"><rect x="150" width="60" height="10" rx="5" opacity=".5" fill="#cfd4d7"/><rect x="70" width="70" height="10" rx="5" opacity=".5" fill="#cfd4d7"/><rect width="60" height="10" rx="5" fill="#ea5e5e"/></g><g transform="matrix(.06177 0 0 .06308 1.591 12.906)"><rect x="160" width="50" height="10" rx="5" opacity=".5" fill="#cfd4d7"/><rect x="130" width="20" height="10" rx="5" opacity=".5" fill="#cfd4d7"/><rect x="70" width="50" height="10" rx="5" opacity=".5" fill="#cfd4d7"/><rect x="40" width="20" height="10" rx="5" fill="#f7b93e"/><rect width="30" height="10" rx="5" fill="#56b3b4"/></g><g transform="matrix(.06177 0 0 .06308 1.591 11.645)"><rect x="110" width="100" height="10" rx="5" opacity=".5" fill="#cfd4d7"/><rect x="70" width="30" height="10" rx="5" opacity=".5" fill="#cfd4d7"/><rect width="60" height="10" rx="5" fill="#bf85bf"/></g><g transform="matrix(.06177 0 0 .06308 1.591 10.383)"><rect x="180" width="30" height="10" rx="5" opacity=".5" fill="#cfd4d7"/><rect x="140" width="30" height="10" rx="5" opacity=".5" fill="#cfd4d7"/><rect x="30" width="100" height="10" rx="5" fill="#f7b93e"/><rect width="20" height="10" rx="5" fill="#bf85bf"/></g><g transform="matrix(.06177 0 0 .06308 1.591 9.122)"><rect x="170" width="40" height="10" rx="5" opacity=".5" fill="#cfd4d7"/><rect x="120" width="40" height="10" rx="5" fill="#bf85bf"/><rect x="60" width="50" height="10" rx="5" fill="#ea5e5e"/><rect width="50" height="10" rx="5" fill="#56b3b4"/></g><g transform="matrix(.06177 0 0 .06308 1.591 7.86)"><rect x="180" width="30" height="10" rx="5" opacity=".5" fill="#cfd4d7"/><rect x="80" width="90" height="10" rx="5" fill="#56b3b4"/><rect x="30" width="40" height="10" rx="5" fill="#f7b93e"/><rect width="20" height="10" rx="5" fill="#ea5e5e"/></g><g transform="matrix(.06177 0 0 .06308 1.591 6.598)"><rect x="190" width="20" height="10" rx="5" opacity=".5" fill="#cfd4d7"/><rect x="120" width="60" height="10" rx="5" fill="#f7b93e"/><rect x="70" width="40" height="10" rx="5" opacity=".5" fill="#cfd4d7"/><rect width="60" height="10" rx="5" fill="#bf85bf"/></g><g transform="matrix(.06177 0 0 .06308 1.591 5.337)"><rect x="190" width="20" height="10" rx="5" opacity=".5" fill="#cfd4d7"/><rect x="120" width="60" height="10" rx="5" fill="#ea5e5e"/><rect x="70" width="40" height="10" rx="5" opacity=".5" fill="#cfd4d7"/><rect x="40" width="20" height="10" rx="5" fill="#56b3b4"/><rect width="30" height="10" rx="5" fill="#f7b93e"/></g><g transform="matrix(.06177 0 0 .06308 1.591 4.075)"><rect x="180" width="30" height="10" rx="5" opacity=".5" fill="#cfd4d7"/><rect x="150" width="20" height="10" rx="5" fill="#56b3b4"/><rect x="90" width="50" height="10" rx="5" fill="#bf85bf"/><rect width="80" height="10" rx="5" fill="#56b3b4"/></g><g transform="matrix(.06177 0 0 .06308 1.591 2.814)"><rect x="170" width="40" height="10" rx="5" opacity=".5" fill="#cfd4d7"/><rect x="50" width="110" height="10" rx="5" fill="#f7b93e"/><rect width="40" height="10" rx="5" fill="#ea5e5e"/></g><g transform="matrix(.06177 0 0 .06308 1.591 1.552)"><rect x="140" width="70" height="10" rx="5" opacity=".5" fill="#cfd4d7"/><rect width="130" height="10" rx="5" fill="#56b3b4"/></g></g></svg>