<svg xmlns="http://www.w3.org/2000/svg" width="16" height="16" viewBox="0 0 16 16"><path d="M8.042.99C4.096.99.896 4.16.896 8.072c0 3.913 3.2 7.085 7.146 7.085 3.947 0 7.147-3.172 7.147-7.085 0-3.912-3.2-7.084-7.147-7.084zm0 13.258c-1.123 0-2.033-.744-2.033-1.66h4.067c0 .916-.91 1.66-2.034 1.66zm3.359-2.21H4.684V10.83H11.4v1.207zm-.024-1.83H4.703l-.067-.076c-.687-.827-.85-1.26-1.006-1.7-.003-.014.833.17 1.426.302 0 0 .306.07.752.15a2.75 2.75 0 01-.683-1.777c0-1.42 1.099-2.66.702-3.664.386.032.799.807.827 2.02.41-.561.582-1.587.582-2.216 0-.651.433-1.408.866-1.434-.386.63.1 1.171.532 2.513.162.504.141 1.351.266 1.89.042-1.118.235-2.747.95-3.31-.315.709.047 1.595.294 2.021.4.688.642 1.209.642 2.194 0 .66-.246 1.283-.661 1.769.472-.088.798-.167.798-.167l1.532-.296s-.222.907-1.078 1.782z" fill="#e6522c" stroke-width=".126"/></svg>