<svg xmlns="http://www.w3.org/2000/svg" preserveAspectRatio="xMinYMin meet" width="16" viewBox="0 0 16 16" height="16"><path fill="#912626" d="M14.393 11.446c-.746.385-4.614 1.958-5.437 2.382-.824.425-1.281.42-1.932.113-.65-.307-4.766-1.952-5.507-2.302-.37-.176-.566-.324-.566-.463V9.777s5.359-1.154 6.224-1.46c.865-.308 1.165-.319 1.9-.052.737.267 5.139 1.052 5.866 1.316v1.379c0 .138-.168.29-.548.486" stroke-width=".054"/><path fill="#c6302b" d="M14.393 10.055c-.747.385-4.614 1.958-5.437 2.383-.824.424-1.281.42-1.932.113-.65-.308-4.766-1.953-5.507-2.303-.741-.35-.757-.592-.029-.874.729-.282 4.822-1.87 5.687-2.178.865-.307 1.165-.318 1.9-.05.737.266 4.581 1.78 5.309 2.043.728.264.755.481.009.866" stroke-width=".054"/><path fill="#912626" d="M14.393 9.182c-.746.385-4.614 1.958-5.437 2.383-.824.425-1.281.42-1.932.113-.65-.308-4.766-1.952-5.507-2.303C1.147 9.2.95 9.052.95 8.913v-1.4S6.31 6.36 7.175 6.054c.865-.307 1.165-.318 1.9-.052.737.267 5.139 1.053 5.866 1.316v1.38c0 .138-.168.29-.548.485" stroke-width=".054"/><path fill="#c6302b" d="M14.393 7.792c-.747.385-4.614 1.958-5.437 2.382-.824.425-1.281.42-1.932.113-.65-.307-4.766-1.952-5.507-2.302-.741-.35-.757-.592-.029-.874.729-.282 4.822-1.871 5.687-2.178.865-.307 1.165-.318 1.9-.051.737.266 4.581 1.78 5.309 2.044.728.263.755.48.009.866" stroke-width=".054"/><path fill="#912626" d="M14.393 6.835c-.746.385-4.614 1.958-5.437 2.383-.824.424-1.281.42-1.932.113-.65-.308-4.766-1.953-5.507-2.303-.37-.175-.566-.323-.566-.463V5.166s5.359-1.154 6.224-1.46c.865-.308 1.165-.319 1.9-.052.737.267 5.139 1.052 5.866 1.316v1.38c0 .137-.168.289-.548.485" stroke-width=".054"/><path fill="#c6302b" d="M14.393 5.444c-.747.385-4.614 1.958-5.437 2.383-.824.425-1.281.42-1.932.113-.65-.308-4.766-1.952-5.507-2.303-.741-.35-.757-.592-.029-.874.729-.282 4.822-1.87 5.687-2.177.865-.307 1.165-.318 1.9-.052.737.267 4.581 1.78 5.309 2.045.728.263.755.48.009.865" stroke-width=".054"/><path fill="#fff" d="M9.656 4.084l-1.203.123-.27.641-.434-.715-1.389-.124 1.036-.37-.31-.567.97.375.914-.296-.247.587.933.346M8.112 7.193l-2.245-.921 3.217-.489-.972 1.41M5 4.44c.95 0 1.72.295 1.72.659 0 .364-.77.66-1.72.66s-1.72-.296-1.72-.66c0-.364.77-.66 1.72-.66" stroke-width=".054"/><path fill="#621b1c" d="M11.077 4.259l1.904.744-1.902.743-.002-1.487" stroke-width=".054"/><path fill="#9a2928" d="M8.971 5.083l2.106-.824.002 1.487-.206.08-1.902-.743" stroke-width=".054"/></svg>