<?xml version="1.0" encoding="UTF-8"?>
<svg xmlns="http://www.w3.org/2000/svg" xmlns:xlink="http://www.w3.org/1999/xlink" width="16pt" height="16pt" viewBox="0 0 16 16" version="1.1">
<g id="surface1">
<path style="fill-rule:nonzero;fill:rgb(92.54902%,25.098039%,47.843137%);fill-opacity:1;stroke-width:12.423;stroke-linecap:butt;stroke-linejoin:miter;stroke:rgb(92.54902%,25.098039%,47.843137%);stroke-opacity:1;stroke-miterlimit:4;" d="M 434.315319 278.902674 C 425.004082 242.402627 364.481044 230.484244 307.216938 250.78274 C 273.137812 262.887347 236.265315 281.88227 209.728291 306.743272 C 178.256311 336.16678 173.135131 361.865793 175.276715 372.573715 C 182.53948 410.470448 234.403068 435.238338 255.7258 453.581474 L 255.7258 453.674586 C 249.487271 456.747295 203.489762 480.025386 192.688728 503.862152 C 181.329019 529.002491 194.457863 546.973178 203.210425 549.394099 C 230.213011 556.936201 257.960497 543.434908 272.858475 521.181052 C 287.290892 499.765208 286.080431 472.017723 279.841903 458.237092 C 288.40824 456.002396 298.464376 454.97816 311.22077 456.467957 C 347.255256 460.658014 354.331796 483.191207 353.028223 492.595556 C 351.631537 501.999905 344.089436 507.214197 341.575402 508.797107 C 339.061368 510.286905 338.223356 510.845579 338.502694 512.05604 C 338.782031 513.732063 339.992491 513.63895 342.134076 513.266501 C 345.113672 512.800939 361.035886 505.631287 361.687673 488.219274 C 362.618796 466.151644 341.389177 441.476866 303.958006 442.128653 C 288.594465 442.40799 278.817667 443.897788 271.834239 446.504934 C 271.368677 445.94626 270.810003 445.294473 270.251329 444.735799 C 247.06635 420.061022 204.327773 402.555897 206.096908 369.314782 C 206.748695 357.303287 210.938751 325.458858 288.315128 286.910338 C 351.72465 255.345246 402.470889 264.004696 411.223452 283.278956 C 423.793621 310.840216 384.127753 361.958905 318.29731 369.314782 C 293.250083 372.201266 280.028127 362.424467 276.769195 358.793085 C 273.324037 354.975478 272.765363 354.882366 271.46179 355.534152 C 269.413318 356.744613 270.716891 360.096658 271.46179 362.052018 C 273.417149 367.173198 281.517925 376.29821 295.298555 380.767603 C 307.403163 384.771435 336.826671 386.91302 372.395595 373.132389 C 412.3408 357.675737 443.440331 314.844048 434.315319 278.902674 Z M 264.571475 464.84807 C 267.644183 475.928442 267.271733 486.263915 264.199025 495.575151 C 263.826576 496.599387 263.454126 497.623623 263.081677 498.647859 C 262.616115 499.672095 262.243665 500.696332 261.684991 501.627455 C 259.357182 506.562411 256.098249 511.218029 252.18753 515.501198 C 240.269147 528.536929 223.602033 533.471885 216.432381 529.281828 C 208.704055 524.812434 212.614774 506.469298 226.488517 491.850657 C 241.386495 476.114667 262.80234 465.965419 262.80234 465.965419 L 262.709227 465.872306 C 263.361014 465.592969 264.0128 465.22052 264.571475 464.84807 Z M 264.571475 464.84807 " transform="matrix(0.041952,0,0,0.041952,-4.81024,-8.6224)"/>
</g>
</svg>
