<?xml version="1.0" encoding="UTF-8" standalone="no"?>
<svg
xmlns:dc="http://purl.org/dc/elements/1.1/"
xmlns:cc="http://creativecommons.org/ns#"
xmlns:rdf="http://www.w3.org/1999/02/22-rdf-syntax-ns#"
xmlns:svg="http://www.w3.org/2000/svg"
xmlns="http://www.w3.org/2000/svg"
xmlns:sodipodi="http://sodipodi.sourceforge.net/DTD/sodipodi-0.dtd"
xmlns:inkscape="http://www.inkscape.org/namespaces/inkscape"
inkscape:version="1.0 (4035a4fb49, 2020-05-01)"
sodipodi:docname="privacy.svg"
id="svg6"
version="1.1"
width="16"
viewBox="0 0 16 16"
height="16">
<metadata
    id="metadata12">
    <rdf:RDF>
        <cc:Work
            rdf:about="">
            <dc:format>image/svg+xml</dc:format>
            <dc:type
                rdf:resource="http://purl.org/dc/dcmitype/StillImage" />
        </cc:Work>
    </rdf:RDF>
</metadata>
<defs
    id="defs10" />
<sodipodi:namedview
    inkscape:current-layer="svg6"
    inkscape:cy="11.728769"
    inkscape:cx="22.000672"
    inkscape:zoom="16.931205"
    showgrid="false"
    id="namedview8"
    inkscape:window-height="480"
    inkscape:window-width="640"
    inkscape:pageshadow="2"
    inkscape:pageopacity="0"
    guidetolerance="10"
    gridtolerance="10"
    objecttolerance="10"
    borderopacity="1"
    bordercolor="#666666"
    pagecolor="#ffffff" />
<path
    style="stroke-width:0.331989"
    id="path2"
    d="M 14.269323,4.4358141 V 2.4504748 c 0,-0.3202161 -0.240935,-0.5763889 -0.585129,-0.6404322 L 8.1770872,0.9134378 H 7.9361514 L 2.4634647,1.8100426 c -0.3441941,0.064043 -0.58513,0.3202161 -0.58513,0.6404322 0,0.7364968 0,1.4089505 -0.034419,1.9853393 0,1.0567128 -0.034418,1.8252313 0.034419,2.3055554 0.3097746,3.0420524 0.9981629,4.4189815 2.168423,5.9239965 0.9293241,1.184799 2.3061007,2.017361 3.8549743,2.305556 0.034419,0 0.1032578,0.03202 0.1376775,0.03202 h 0.1376777 c 1.5488726,-0.320216 2.9256508,-1.120756 3.8549748,-2.305555 1.17026,-1.537037 1.858647,-2.9139661 2.168422,-5.9560186 0.06885,-0.4803241 0.06885,-1.2488425 0.06885,-2.3055554 z"
    fill="#2197f3" />
<path
    style="stroke-width:0.331989"
    id="path4"
    d="M 13.27116,4.8520949 V 3.1869716 c 0,-0.2561728 -0.206516,-0.480324 -0.481871,-0.5123457 L 8.1770872,1.9061074 c -0.034419,0 -0.068839,-0.032021 -0.1032577,-0.032021 V 13.690057 h 0.1032577 c 1.3079372,-0.256172 2.4437788,-0.960648 3.2354248,-1.953317 0.998163,-1.248842 1.548874,-2.4336418 1.824229,-4.99537 0.03442,-0.3842593 0.03442,-1.0246913 0.03442,-1.8892747 z"
    fill="#52ABF0" />
<path d="M7.391 10.644h-.005a.431.431 0 01-.345-.182L5.175 7.858a.454.454 0 01.093-.624.427.427 0 01.608.095L7.4 9.455l3-3.994a.428.428 0 01.61-.08c.19.15.226.43.08.625L7.735 10.47a.431.431 0 01-.345.174z" fill="#fff"/>
</svg>
