<?xml version="1.0" encoding="UTF-8" standalone="no"?>
<svg
   xmlns:dc="http://purl.org/dc/elements/1.1/"
   xmlns:cc="http://creativecommons.org/ns#"
   xmlns:rdf="http://www.w3.org/1999/02/22-rdf-syntax-ns#"
   xmlns:svg="http://www.w3.org/2000/svg"
   xmlns="http://www.w3.org/2000/svg"
   xmlns:sodipodi="http://sodipodi.sourceforge.net/DTD/sodipodi-0.dtd"
   xmlns:inkscape="http://www.inkscape.org/namespaces/inkscape"
   enable-background="new 0 0 32 32"
   version="1.1"
   width="16"
   height="16"
   viewBox="0 0 16 16"
   xml:space="preserve"
   id="svg30"
   sodipodi:docname="security.svg"
   inkscape:version="0.92.5 (2060ec1f9f, 2020-04-08)"><metadata
     id="metadata36"><rdf:RDF><cc:Work
         rdf:about=""><dc:format>image/svg+xml</dc:format><dc:type
           rdf:resource="http://purl.org/dc/dcmitype/StillImage" /></cc:Work></rdf:RDF></metadata><defs
     id="defs34" /><sodipodi:namedview
     pagecolor="#ffffff"
     bordercolor="#666666"
     borderopacity="1"
     objecttolerance="10"
     gridtolerance="10"
     guidetolerance="10"
     inkscape:pageopacity="0"
     inkscape:pageshadow="2"
     inkscape:window-width="1920"
     inkscape:window-height="1001"
     id="namedview32"
     showgrid="false"
     inkscape:zoom="14.75"
     inkscape:cx="8"
     inkscape:cy="8"
     inkscape:window-x="-9"
     inkscape:window-y="-9"
     inkscape:window-maximized="1"
     inkscape:current-layer="svg30" /><g
     id="Security02"
     transform="matrix(0.43502825,0,0,0.44637383,1.1751412,0.82342856)" /><g
     id="Security03"
     transform="matrix(0.43502825,0,0,0.44637383,1.1751412,0.82342856)" /><g
     id="Security04"
     transform="matrix(0.43502825,0,0,0.44637383,1.1751412,0.82342856)" /><g
     id="Security05"
     transform="matrix(0.43502825,0,0,0.44637383,1.1751412,0.82342856)" /><g
     id="Security06"
     transform="matrix(0.43502825,0,0,0.44637383,1.1751412,0.82342856)" /><g
     id="Security07"
     transform="matrix(0.43502825,0,0,0.44637383,1.1751412,0.82342856)" /><g
     id="Security08"
     transform="matrix(0.43502825,0,0,0.44637383,1.1751412,0.82342856)" /><g
     id="Security09"
     transform="matrix(0.43502825,0,0,0.44637383,1.1751412,0.82342856)" /><g
     id="Security10"
     transform="matrix(0.43502825,0,0,0.44637383,1.1751412,0.82342856)" /><g
     id="Security11"
     transform="matrix(0.43502825,0,0,0.44637383,1.1751412,0.82342856)" /><g
     id="Security12"
     transform="matrix(0.43502825,0,0,0.44637383,1.1751412,0.82342856)" /><g
     id="Security13"
     transform="matrix(0.43502825,0,0,0.44637383,1.1751412,0.82342856)" /><g
     id="Security14"
     transform="matrix(0.43502825,0,0,0.44637383,1.1751412,0.82342856)" /><g
     id="Security15"
     transform="matrix(0.43502825,0,0,0.44637383,1.1751412,0.82342856)" /><g
     id="Security16"
     transform="matrix(0.43502825,0,0,0.44637383,1.1751412,0.82342856)" /><g
     id="Security17"
     transform="matrix(0.43502825,0,0,0.44637383,1.1751412,0.82342856)" /><g
     id="Security18"
     transform="matrix(0.43502825,0,0,0.44637383,1.1751412,0.82342856)" /><g
     id="Security19"
     transform="matrix(0.43502825,0,0,0.44637383,1.1751412,0.82342856)" /><g
     id="Security20"
     transform="matrix(0.43502825,0,0,0.44637383,1.1751412,0.82342856)"><g
       id="g22"><path
         d="M 31,8 C 31,8.23 30.83,31 16,31 1.17,31 1,8.23 1,8 1,7.6 1.24,7.24 1.61,7.08 l 14,-6 c 0.25,-0.11 0.53,-0.11 0.78,0 l 14,6 C 30.76,7.24 31,7.6 31,8 Z"
         id="path20"
         inkscape:connector-curvature="0"
         style="fill:#2197f3" /></g><g
       id="g26"><path
         d="m 14.2891,22 c -0.0039,0 -0.0078,0 -0.0112,0 -0.3145,-0.0034 -0.6084,-0.1548 -0.7944,-0.4077 L 9.1944,15.7588 C 8.8673,15.314 8.963,14.688 9.4078,14.3609 c 0.4448,-0.3286 1.0713,-0.231 1.3979,0.2134 l 3.5024,4.7637 6.8999,-8.9487 c 0.3369,-0.4375 0.9653,-0.519 1.4028,-0.1812 0.437,0.3374 0.5186,0.9653 0.1812,1.4028 l -7.7109,10 C 14.8916,21.8564 14.5991,22 14.2891,22 Z"
         id="path24"
         inkscape:connector-curvature="0"
         style="fill:#ffffff" /></g></g><g
     id="Security21"
     transform="matrix(0.43502825,0,0,0.44637383,1.1751412,0.82342856)" /></svg>