<?xml version="1.0" encoding="UTF-8" standalone="no"?>
<!--! https://github.com/svg/svgo-->

<!--! SVGO project logo by Yegor Bolshakov (http://xizzzy.ru/)-->

<svg
   xmlns:dc="http://purl.org/dc/elements/1.1/"
   xmlns:cc="http://creativecommons.org/ns#"
   xmlns:rdf="http://www.w3.org/1999/02/22-rdf-syntax-ns#"
   xmlns:svg="http://www.w3.org/2000/svg"
   xmlns="http://www.w3.org/2000/svg"
   xmlns:xlink="http://www.w3.org/1999/xlink"
   xmlns:sodipodi="http://sodipodi.sourceforge.net/DTD/sodipodi-0.dtd"
   xmlns:inkscape="http://www.inkscape.org/namespaces/inkscape"
   width="16"
   height="16"
   viewBox="0 0 16 16"
   version="1.1"
   id="svg602"
   sodipodi:docname="svgo.svg"
   inkscape:version="0.92.5 (2060ec1f9f, 2020-04-08)">
  <metadata
     id="metadata606">
    <rdf:RDF>
      <cc:Work
         rdf:about="">
        <dc:format>image/svg+xml</dc:format>
        <dc:type
           rdf:resource="http://purl.org/dc/dcmitype/StillImage" />
      </cc:Work>
    </rdf:RDF>
  </metadata>
  <sodipodi:namedview
     pagecolor="#ffffff"
     bordercolor="#666666"
     borderopacity="1"
     objecttolerance="10"
     gridtolerance="10"
     guidetolerance="10"
     inkscape:pageopacity="0"
     inkscape:pageshadow="2"
     inkscape:window-width="1920"
     inkscape:window-height="1001"
     id="namedview604"
     showgrid="false"
     inkscape:zoom="41.7193"
     inkscape:cx="1.0167452"
     inkscape:cy="8.7634328"
     inkscape:window-x="-9"
     inkscape:window-y="-9"
     inkscape:window-maximized="1"
     inkscape:current-layer="svg602" />
  <defs
     id="defs3">
    <path
       id="a"
       d="M512 274.094v-36.191l-31.59-5.743c-1.443-13.75-4.13-27.128-7.93-40.031l26.958-17.377-13.852-33.438-31.354 6.776c-6.551-12.005-14.164-23.341-22.705-33.898l18.286-26.415-25.594-25.591-26.409 18.285c-10.559-8.541-21.896-16.157-33.898-22.706l6.773-31.354-33.437-13.851-17.376 26.958c-12.902-3.801-26.281-6.485-40.032-7.931l-5.742-31.587h-36.193l-5.744 31.59c-13.751 1.444-27.13 4.129-40.033 7.931l-17.376-26.959-33.438 13.851 6.776 31.354c-12.004 6.549-23.341 14.165-33.899 22.706l-26.415-18.288-25.591 25.59 18.287 26.415c-8.541 10.558-16.156 21.895-22.705 33.898l-31.355-6.776-13.85 33.438 26.959 17.377c-3.801 12.902-6.486 26.28-7.93 40.03l-31.591 5.745v36.191l31.59 5.744c1.444 13.75 4.129 27.131 7.931 40.032l-26.959 17.378 13.85 33.435 31.355-6.773c6.549 12.005 14.165 23.341 22.705 33.898l-18.287 26.414 25.591 25.593 26.415-18.287c10.558 8.542 21.895 16.157 33.899 22.706l-6.776 31.354 33.438 13.852 17.377-26.958c12.902 3.8 26.281 6.483 40.031 7.93l5.744 31.59h36.192l5.744-31.59c13.751-1.444 27.129-4.13 40.03-7.93l17.378 26.957 33.436-13.852-6.772-31.354c12.004-6.551 23.34-14.164 33.897-22.706l26.414 18.286 25.593-25.593-18.286-26.412c8.541-10.561 16.154-21.896 22.706-33.899l31.354 6.772 13.853-33.435-26.958-17.377c3.8-12.902 6.483-26.282 7.93-40.032l31.585-5.742z" />
  </defs>
  <clipPath
     id="b">
    <use
       xlink:href="#a"
       overflow="visible"
       id="use5" />
  </clipPath>
  <linearGradient
     id="c"
     gradientUnits="userSpaceOnUse"
     x1="480.818"
     y1="380.617"
     x2="31.183"
     y2="131.38">
    <stop
       offset="0"
       stop-color="#BDC6C9"
       id="stop8" />
    <stop
       offset=".092"
       stop-color="#ABB4B7"
       id="stop10" />
    <stop
       offset=".277"
       stop-color="#7D8588"
       id="stop12" />
    <stop
       offset=".483"
       stop-color="#444A4D"
       id="stop14" />
    <stop
       offset=".584"
       stop-color="#5E6669"
       id="stop16" />
    <stop
       offset=".772"
       stop-color="#899396"
       id="stop18" />
    <stop
       offset=".916"
       stop-color="#A3AFB2"
       id="stop20" />
    <stop
       offset="1"
       stop-color="#ADBABD"
       id="stop22" />
  </linearGradient>
  <circle
     clip-path="url(#b)"
     cx="256"
     cy="255.998"
     r="257"
     id="circle25"
     style="fill:url(#c)"
     transform="matrix(0.02809843,0,0,0.02766977,0.79100081,1.0067283)" />
  <radialGradient
     id="d"
     cx="256"
     cy="255.998"
     r="257"
     gradientTransform="translate(0,0.001)"
     gradientUnits="userSpaceOnUse">
    <stop
       offset=".73"
       stop-color="#004ED4"
       stop-opacity=".4"
       id="stop27" />
    <stop
       offset=".784"
       stop-color="#437CDE"
       stop-opacity=".319"
       id="stop29" />
    <stop
       offset=".842"
       stop-color="#83A8E7"
       stop-opacity=".234"
       id="stop31" />
    <stop
       offset=".894"
       stop-color="#B5CAEE"
       stop-opacity=".157"
       id="stop33" />
    <stop
       offset=".94"
       stop-color="#DAE3F4"
       stop-opacity=".089"
       id="stop35" />
    <stop
       offset=".977"
       stop-color="#F0F2F7"
       stop-opacity=".035"
       id="stop37" />
    <stop
       offset="1"
       stop-color="#F8F8F8"
       stop-opacity="0"
       id="stop39" />
  </radialGradient>
  <circle
     clip-path="url(#b)"
     cx="256"
     cy="255.998"
     r="257"
     id="circle42"
     style="fill:url(#d)"
     transform="matrix(0.02809843,0,0,0.02766977,0.79100081,1.0067283)" />
  <linearGradient
     id="e"
     gradientUnits="userSpaceOnUse"
     x1="352.299"
     y1="494.346"
     x2="159.701"
     y2="17.65">
    <stop
       offset="0"
       stop-color="#fff"
       stop-opacity="0"
       id="stop44" />
    <stop
       offset=".5"
       stop-color="#4D5057"
       stop-opacity=".75"
       id="stop46" />
    <stop
       offset="1"
       stop-color="#fff"
       stop-opacity="0"
       id="stop48" />
  </linearGradient>
  <circle
     clip-path="url(#b)"
     cx="256"
     cy="255.998"
     r="257"
     id="circle51"
     style="fill:url(#e)"
     transform="matrix(0.02809843,0,0,0.02766977,0.79100081,1.0067283)" />
  <radialGradient
     id="f"
     cx="256"
     cy="255.998"
     r="257"
     gradientTransform="translate(0,0.001)"
     gradientUnits="userSpaceOnUse">
    <stop
       offset=".8"
       stop-color="#6B6B6B"
       stop-opacity="0"
       id="stop53" />
    <stop
       offset=".826"
       stop-color="#848484"
       stop-opacity=".02"
       id="stop55" />
    <stop
       offset=".883"
       stop-color="#B5B5B5"
       stop-opacity=".066"
       id="stop57" />
    <stop
       offset=".933"
       stop-color="#DADADA"
       stop-opacity=".107"
       id="stop59" />
    <stop
       offset=".974"
       stop-color="#F0F0F0"
       stop-opacity=".139"
       id="stop61" />
    <stop
       offset="1"
       stop-color="#F8F8F8"
       stop-opacity=".16"
       id="stop63" />
  </radialGradient>
  <circle
     clip-path="url(#b)"
     cx="256"
     cy="255.998"
     r="257"
     id="circle66"
     style="fill:url(#f)"
     transform="matrix(0.02809843,0,0,0.02766977,0.79100081,1.0067283)" />
  <linearGradient
     id="g"
     gradientUnits="userSpaceOnUse"
     x1="74.274"
     y1="437.724"
     x2="437.726"
     y2="74.272">
    <stop
       offset="0"
       stop-color="#fff"
       stop-opacity="0"
       id="stop68" />
    <stop
       offset=".5"
       stop-color="#828282"
       stop-opacity=".6"
       id="stop70" />
    <stop
       offset="1"
       stop-color="#fff"
       stop-opacity="0"
       id="stop72" />
  </linearGradient>
  <circle
     clip-path="url(#b)"
     cx="256"
     cy="255.998"
     r="257"
     id="circle75"
     style="fill:url(#g)"
     transform="matrix(0.02809843,0,0,0.02766977,0.79100081,1.0067283)" />
  <linearGradient
     id="h"
     gradientUnits="userSpaceOnUse"
     x1="45.46"
     y1="403.419"
     x2="466.539"
     y2="108.576">
    <stop
       offset=".2"
       stop-color="#fff"
       stop-opacity="0"
       id="stop77" />
    <stop
       offset=".5"
       stop-color="#fff"
       stop-opacity=".36"
       id="stop79" />
    <stop
       offset=".8"
       stop-color="#fff"
       stop-opacity="0"
       id="stop81" />
  </linearGradient>
  <circle
     clip-path="url(#b)"
     cx="256"
     cy="255.998"
     r="257"
     id="circle84"
     style="fill:url(#h)"
     transform="matrix(0.02809843,0,0,0.02766977,0.79100081,1.0067283)" />
  <defs
     id="defs87">
    <path
       id="i"
       d="M256.001 50.999c-113.224 0-205.001 91.775-205.001 204.999s91.777 204.999 205.001 204.999c113.225 0 204.999-91.775 204.999-204.999s-91.774-204.999-204.999-204.999z" />
  </defs>
  <clipPath
     id="j">
    <use
       xlink:href="#i"
       overflow="visible"
       id="use89" />
  </clipPath>
  <linearGradient
     id="k"
     gradientUnits="userSpaceOnUse"
     x1="441.158"
     y1="358.64"
     x2="70.835"
     y2="153.366"
     gradientTransform="rotate(-90,256,256)">
    <stop
       offset="0"
       stop-color="#BDC6C9"
       id="stop92" />
    <stop
       offset=".092"
       stop-color="#ABB4B7"
       id="stop94" />
    <stop
       offset=".277"
       stop-color="#7D8588"
       id="stop96" />
    <stop
       offset=".483"
       stop-color="#444A4D"
       id="stop98" />
    <stop
       offset=".584"
       stop-color="#5E6669"
       id="stop100" />
    <stop
       offset=".772"
       stop-color="#899396"
       id="stop102" />
    <stop
       offset=".916"
       stop-color="#A3AFB2"
       id="stop104" />
    <stop
       offset="1"
       stop-color="#ADBABD"
       id="stop106" />
  </linearGradient>
  <path
     clip-path="url(#j)"
     d="m 256,44.334 c 116.894,0 211.676,94.771 211.676,211.664 0,116.893 -94.782,211.675 -211.676,211.675 C 139.107,467.673 44.335,372.891 44.335,255.998 44.335,139.105 139.107,44.334 256,44.334 Z"
     id="path109"
     style="fill:url(#k)"
     inkscape:connector-curvature="0"
     transform="matrix(0.02809843,0,0,0.02766977,0.79100081,1.0067283)" />
  <radialGradient
     id="l"
     cx="255.997"
     cy="256.006"
     r="217.969"
     gradientTransform="matrix(0,-0.971,0.971,0,7.396,504.601)"
     gradientUnits="userSpaceOnUse">
    <stop
       offset=".86"
       stop-color="#0058D4"
       stop-opacity=".6"
       id="stop111" />
    <stop
       offset="1"
       stop-color="#F8F8F8"
       stop-opacity="0"
       id="stop113" />
  </radialGradient>
  <path
     clip-path="url(#j)"
     d="m 256,44.334 c 116.894,0 211.676,94.771 211.676,211.664 0,116.893 -94.782,211.675 -211.676,211.675 C 139.107,467.673 44.335,372.891 44.335,255.998 44.335,139.105 139.107,44.334 256,44.334 Z"
     id="path116"
     style="fill:url(#l)"
     inkscape:connector-curvature="0"
     transform="matrix(0.02809843,0,0,0.02766977,0.79100081,1.0067283)" />
  <linearGradient
     id="m"
     gradientUnits="userSpaceOnUse"
     x1="335.313"
     y1="452.313"
     x2="176.686"
     y2="59.7"
     gradientTransform="rotate(-90,256,256)">
    <stop
       offset="0"
       stop-color="#fff"
       stop-opacity="0"
       id="stop118" />
    <stop
       offset=".5"
       stop-color="#4D5057"
       stop-opacity=".75"
       id="stop120" />
    <stop
       offset="1"
       stop-color="#fff"
       stop-opacity="0"
       id="stop122" />
  </linearGradient>
  <path
     clip-path="url(#j)"
     d="m 256,44.334 c 116.894,0 211.676,94.771 211.676,211.664 0,116.893 -94.782,211.675 -211.676,211.675 C 139.107,467.673 44.335,372.891 44.335,255.998 44.335,139.105 139.107,44.334 256,44.334 Z"
     id="path125"
     style="fill:url(#m)"
     inkscape:connector-curvature="0"
     transform="matrix(0.02809843,0,0,0.02766977,0.79100081,1.0067283)" />
  <linearGradient
     id="n"
     gradientUnits="userSpaceOnUse"
     x1="106.329"
     y1="405.673"
     x2="405.669"
     y2="106.333"
     gradientTransform="rotate(-90,256,256)">
    <stop
       offset="0"
       stop-color="#fff"
       stop-opacity="0"
       id="stop127" />
    <stop
       offset=".5"
       stop-color="#828282"
       stop-opacity=".6"
       id="stop129" />
    <stop
       offset="1"
       stop-color="#fff"
       stop-opacity="0"
       id="stop131" />
  </linearGradient>
  <path
     clip-path="url(#j)"
     d="m 256,44.334 c 116.894,0 211.676,94.771 211.676,211.664 0,116.893 -94.782,211.675 -211.676,211.675 C 139.107,467.673 44.335,372.891 44.335,255.998 44.335,139.105 139.107,44.334 256,44.334 Z"
     id="path134"
     style="fill:url(#n)"
     inkscape:connector-curvature="0"
     transform="matrix(0.02809843,0,0,0.02766977,0.79100081,1.0067283)" />
  <linearGradient
     id="o"
     gradientUnits="userSpaceOnUse"
     x1="82.599"
     y1="377.421"
     x2="429.401"
     y2="134.588"
     gradientTransform="rotate(-90,256,256)">
    <stop
       offset=".2"
       stop-color="#fff"
       stop-opacity="0"
       id="stop136" />
    <stop
       offset=".5"
       stop-color="#fff"
       stop-opacity=".36"
       id="stop138" />
    <stop
       offset=".8"
       stop-color="#fff"
       stop-opacity="0"
       id="stop140" />
  </linearGradient>
  <path
     clip-path="url(#j)"
     d="m 256,44.334 c 116.894,0 211.676,94.771 211.676,211.664 0,116.893 -94.782,211.675 -211.676,211.675 C 139.107,467.673 44.335,372.891 44.335,255.998 44.335,139.105 139.107,44.334 256,44.334 Z"
     id="path143"
     style="fill:url(#o)"
     inkscape:connector-curvature="0"
     transform="matrix(0.02809843,0,0,0.02766977,0.79100081,1.0067283)" />
  <defs
     id="defs146">
    <path
       id="p"
       d="M446 255.999c0-104.932-85.066-190-190-190s-190 85.068-190 190c0 104.934 85.066 189.998 190 189.998s190-85.064 190-189.998z" />
  </defs>
  <clipPath
     id="q">
    <use
       xlink:href="#p"
       overflow="visible"
       id="use148" />
  </clipPath>
  <linearGradient
     id="r"
     gradientUnits="userSpaceOnUse"
     x1="427.61"
     y1="351.133"
     x2="84.388"
     y2="160.881">
    <stop
       offset="0"
       stop-color="#BDC6C9"
       id="stop151" />
    <stop
       offset=".092"
       stop-color="#ABB4B7"
       id="stop153" />
    <stop
       offset=".277"
       stop-color="#7D8588"
       id="stop155" />
    <stop
       offset=".483"
       stop-color="#444A4D"
       id="stop157" />
    <stop
       offset=".584"
       stop-color="#5E6669"
       id="stop159" />
    <stop
       offset=".772"
       stop-color="#899396"
       id="stop161" />
    <stop
       offset=".916"
       stop-color="#A3AFB2"
       id="stop163" />
    <stop
       offset="1"
       stop-color="#ADBABD"
       id="stop165" />
  </linearGradient>
  <path
     clip-path="url(#q)"
     d="m 452.182,255.998 c 0,108.338 -87.844,196.19 -196.182,196.19 -108.339,0 -196.179,-87.853 -196.179,-196.19 0,-108.337 87.84,-196.166 196.179,-196.166 108.338,0 196.182,87.829 196.182,196.166 z"
     id="path168"
     style="fill:url(#r)"
     inkscape:connector-curvature="0"
     transform="matrix(0.02809843,0,0,0.02766977,0.79100081,1.0067283)" />
  <radialGradient
     id="s"
     cx="260.891"
     cy="260.9"
     r="191.461"
     gradientTransform="matrix(0.971,0,0,0.971,7.397,7.398)"
     gradientUnits="userSpaceOnUse">
    <stop
       offset=".88"
       stop-color="#0037D4"
       id="stop170" />
    <stop
       offset="1"
       stop-color="#F8F8F8"
       stop-opacity="0"
       id="stop172" />
  </radialGradient>
  <path
     clip-path="url(#q)"
     d="m 446.679,260.746 c 0,102.678 -83.253,185.939 -185.931,185.939 -102.677,0 -185.928,-83.262 -185.928,-185.939 0,-102.676 83.25,-185.915 185.928,-185.915 102.678,0 185.931,83.239 185.931,185.915 z"
     id="path175"
     style="fill:url(#s)"
     inkscape:connector-curvature="0"
     transform="matrix(0.02809843,0,0,0.02766977,0.79100081,1.0067283)" />
  <radialGradient
     id="t"
     cx="256"
     cy="256"
     r="197.367"
     gradientTransform="matrix(0.973,0,0,0.973,6.961,6.96)"
     gradientUnits="userSpaceOnUse">
    <stop
       offset=".88"
       stop-color="#0066D4"
       id="stop177" />
    <stop
       offset="1"
       stop-color="#F8F8F8"
       stop-opacity="0"
       id="stop179" />
  </radialGradient>
  <path
     clip-path="url(#q)"
     d="M 448,255.987 C 448,362.019 362.032,448 255.999,448 149.967,448 64,362.019 64,255.987 64,149.957 149.967,64 255.999,64 362.032,64 448,149.957 448,255.987 Z"
     id="path182"
     style="fill:url(#t)"
     inkscape:connector-curvature="0"
     transform="matrix(0.02809843,0,0,0.02766977,0.79100081,1.0067283)" />
  <linearGradient
     id="u"
     gradientUnits="userSpaceOnUse"
     x1="329.512"
     y1="437.945"
     x2="182.495"
     y2="74.067">
    <stop
       offset="0"
       stop-color="#fff"
       stop-opacity="0"
       id="stop184" />
    <stop
       offset=".5"
       stop-color="#4D5057"
       stop-opacity=".75"
       id="stop186" />
    <stop
       offset="1"
       stop-color="#fff"
       stop-opacity="0"
       id="stop188" />
  </linearGradient>
  <path
     clip-path="url(#q)"
     d="m 452.182,255.998 c 0,108.338 -87.844,196.19 -196.182,196.19 -108.339,0 -196.179,-87.853 -196.179,-196.19 0,-108.337 87.84,-196.166 196.179,-196.166 108.338,0 196.182,87.829 196.182,196.166 z"
     id="path191"
     style="fill:url(#u)"
     inkscape:connector-curvature="0"
     transform="matrix(0.02809843,0,0,0.02766977,0.79100081,1.0067283)" />
  <linearGradient
     id="v"
     gradientUnits="userSpaceOnUse"
     x1="117.285"
     y1="394.722"
     x2="394.718"
     y2="117.289">
    <stop
       offset="0"
       stop-color="#fff"
       stop-opacity="0"
       id="stop193" />
    <stop
       offset=".5"
       stop-color="#828282"
       stop-opacity=".6"
       id="stop195" />
    <stop
       offset="1"
       stop-color="#fff"
       stop-opacity="0"
       id="stop197" />
  </linearGradient>
  <path
     clip-path="url(#q)"
     d="m 452.182,255.998 c 0,108.338 -87.844,196.19 -196.182,196.19 -108.339,0 -196.179,-87.853 -196.179,-196.19 0,-108.337 87.84,-196.166 196.179,-196.166 108.338,0 196.182,87.829 196.182,196.166 z"
     id="path200"
     style="fill:url(#v)"
     inkscape:connector-curvature="0"
     transform="matrix(0.02809843,0,0,0.02766977,0.79100081,1.0067283)" />
  <linearGradient
     id="w"
     gradientUnits="userSpaceOnUse"
     x1="95.291"
     y1="368.536"
     x2="416.713"
     y2="143.474">
    <stop
       offset=".2"
       stop-color="#fff"
       stop-opacity="0"
       id="stop202" />
    <stop
       offset=".5"
       stop-color="#fff"
       stop-opacity=".36"
       id="stop204" />
    <stop
       offset=".8"
       stop-color="#fff"
       stop-opacity="0"
       id="stop206" />
  </linearGradient>
  <path
     clip-path="url(#q)"
     d="m 452.182,255.998 c 0,108.338 -87.844,196.19 -196.182,196.19 -108.339,0 -196.179,-87.853 -196.179,-196.19 0,-108.337 87.84,-196.166 196.179,-196.166 108.338,0 196.182,87.829 196.182,196.166 z"
     id="path209"
     style="fill:url(#w)"
     inkscape:connector-curvature="0"
     transform="matrix(0.02809843,0,0,0.02766977,0.79100081,1.0067283)" />
  <defs
     id="defs212">
    <path
       id="x"
       d="M256.001 80.999c-96.646 0-175.001 78.355-175.001 174.999 0 96.644 78.355 174.999 175.001 174.999 96.645 0 174.999-78.355 174.999-174.999 0-96.644-78.354-174.999-174.999-174.999z" />
  </defs>
  <clipPath
     id="y">
    <use
       xlink:href="#x"
       overflow="visible"
       id="use214" />
  </clipPath>
  <linearGradient
     id="z"
     gradientUnits="userSpaceOnUse"
     x1="131.906"
     y1="131.904"
     x2="380.096"
     y2="380.094">
    <stop
       offset="0"
       stop-color="#14B9FF"
       id="stop217" />
    <stop
       offset="1"
       stop-color="#48007F"
       id="stop219" />
  </linearGradient>
  <path
     clip-path="url(#y)"
     d="m 256.001,80.499 c -96.922,0 -175.501,78.578 -175.501,175.499 0,96.92 78.579,175.499 175.501,175.499 96.921,0 175.499,-78.579 175.499,-175.499 0,-96.921 -78.578,-175.499 -175.499,-175.499 z"
     id="path222"
     style="fill:url(#z)"
     inkscape:connector-curvature="0"
     transform="matrix(0.02809843,0,0,0.02766977,0.79100081,1.0067283)" />
  <radialGradient
     id="A"
     cx="256"
     cy="255.998"
     r="175.5"
     gradientTransform="translate(0,0.001)"
     gradientUnits="userSpaceOnUse">
    <stop
       offset=".33"
       stop-color="#006CC2"
       stop-opacity="0"
       id="stop224" />
    <stop
       offset=".628"
       stop-color="#016EC3"
       stop-opacity=".232"
       id="stop226" />
    <stop
       offset=".736"
       stop-color="#0575C7"
       stop-opacity=".315"
       id="stop228" />
    <stop
       offset=".813"
       stop-color="#0D80CE"
       stop-opacity=".374"
       id="stop230" />
    <stop
       offset=".874"
       stop-color="#1791D8"
       stop-opacity=".422"
       id="stop232" />
    <stop
       offset=".927"
       stop-color="#25A7E4"
       stop-opacity=".464"
       id="stop234" />
    <stop
       offset=".974"
       stop-color="#36C2F4"
       stop-opacity=".499"
       id="stop236" />
    <stop
       offset="1"
       stop-color="#42D5FF"
       stop-opacity=".52"
       id="stop238" />
  </radialGradient>
  <path
     clip-path="url(#y)"
     d="m 256.001,80.499 c -96.922,0 -175.501,78.578 -175.501,175.499 0,96.92 78.579,175.499 175.501,175.499 96.921,0 175.499,-78.579 175.499,-175.499 0,-96.921 -78.578,-175.499 -175.499,-175.499 z"
     id="path241"
     style="fill:url(#A)"
     inkscape:connector-curvature="0"
     transform="matrix(0.02809843,0,0,0.02766977,0.79100081,1.0067283)" />
  <radialGradient
     id="B"
     cx="202"
     cy="192.998"
     r="127"
     gradientTransform="translate(0,0.001)"
     gradientUnits="userSpaceOnUse">
    <stop
       offset="0"
       stop-color="#E1FFFF"
       stop-opacity=".5"
       id="stop243" />
    <stop
       offset=".093"
       stop-color="#D9F9FD"
       stop-opacity=".453"
       id="stop245" />
    <stop
       offset=".239"
       stop-color="#C3E7F6"
       stop-opacity=".38"
       id="stop247" />
    <stop
       offset=".42"
       stop-color="#9ECAEC"
       stop-opacity=".29"
       id="stop249" />
    <stop
       offset=".628"
       stop-color="#6CA2DE"
       stop-opacity=".186"
       id="stop251" />
    <stop
       offset=".855"
       stop-color="#2C6FCC"
       stop-opacity=".072"
       id="stop253" />
    <stop
       offset="1"
       stop-color="#004CBF"
       stop-opacity="0"
       id="stop255" />
  </radialGradient>
  <path
     clip-path="url(#y)"
     d="m 202.001,65.999 c -70.134,0 -127.001,56.867 -127.001,127 0,70.128 56.867,126.999 127.001,126.999 70.129,0 126.999,-56.871 126.999,-126.999 0,-70.133 -56.87,-127 -126.999,-127 z"
     id="path258"
     style="fill:url(#B)"
     inkscape:connector-curvature="0"
     transform="matrix(0.02809843,0,0,0.02766977,0.79100081,1.0067283)" />
  <path
     clip-path="url(#y)"
     d="M 256.001,67 C 151.62,67 67,151.619 67,256 67,360.381 151.62,445 256.001,445 360.382,445 445,360.381 445,256 445,151.619 360.382,67 256.001,67 Z m 0,361.481 C 160.742,428.481 83.516,351.257 83.516,256 c 0,-95.257 77.226,-172.484 172.485,-172.484 95.259,0 172.48,77.226 172.48,172.484 0,95.258 -77.221,172.481 -172.48,172.481 z"
     id="path260"
     inkscape:connector-curvature="0"
     transform="matrix(0.02809843,0,0,0.02766977,0.79100081,1.0067283)"
     style="opacity:0.31000001;fill:#191919" />
  <line
     stroke-miterlimit="10"
     x1="7.2892389"
     y1="7.7074041"
     x2="9.1250486"
     y2="6.1994019"
     id="line262"
     style="fill:none;stroke:#e4eaf4;stroke-width:0.0836498;stroke-miterlimit:10" />
  <line
     stroke-miterlimit="10"
     x1="9.1250486"
     y1="6.1994019"
     x2="7.6994762"
     y2="4.7836509"
     id="line264"
     style="fill:none;stroke:#e4eaf4;stroke-width:0.0836498;stroke-miterlimit:10" />
  <line
     stroke-miterlimit="10"
     x1="9.1250486"
     y1="6.1994019"
     x2="9.6729689"
     y2="4.837275"
     id="line266"
     style="fill:none;stroke:#e4eaf4;stroke-width:0.0836498;stroke-miterlimit:10" />
  <line
     stroke-miterlimit="10"
     x1="7.2892389"
     y1="7.7074041"
     x2="4.8943543"
     y2="7.0433578"
     id="line268"
     style="fill:none;stroke:#e4eaf4;stroke-width:0.0836498;stroke-miterlimit:10" />
  <line
     stroke-miterlimit="10"
     x1="7.2892389"
     y1="7.7074041"
     x2="5.8646483"
     y2="9.6535292"
     id="line270"
     style="fill:none;stroke:#e4eaf4;stroke-width:0.0836498;stroke-miterlimit:10" />
  <line
     stroke-miterlimit="10"
     x1="7.2892389"
     y1="7.7074041"
     x2="8.8796091"
     y2="9.461668"
     id="line272"
     style="fill:none;stroke:#e4eaf4;stroke-width:0.0836498;stroke-miterlimit:10" />
  <line
     stroke-miterlimit="10"
     x1="8.8796091"
     y1="9.461668"
     x2="10.912081"
     y2="10.13407"
     id="line274"
     style="fill:none;stroke:#e4eaf4;stroke-width:0.0836498;stroke-miterlimit:10" />
  <line
     stroke-miterlimit="10"
     x1="8.8796091"
     y1="9.461668"
     x2="7.9084153"
     y2="11.231619"
     id="line276"
     style="fill:none;stroke:#e4eaf4;stroke-width:0.0836498;stroke-miterlimit:10" />
  <radialGradient
     cx="231.268"
     cy="242.166"
     r="39"
     gradientUnits="userSpaceOnUse"
     id="radialGradient282">
    <stop
       offset="0"
       stop-color="#fff"
       id="stop278" />
    <stop
       offset="1"
       stop-color="#fff"
       stop-opacity="0"
       id="stop280" />
  </radialGradient>
  <defs
     id="defs285">
    <circle
       id="C"
       cx="231.267"
       cy="242.166"
       r="34.333" />
  </defs>
  <clipPath
     id="D">
    <use
       xlink:href="#C"
       overflow="visible"
       id="use287" />
  </clipPath>
  <radialGradient
     id="E"
     cx="219.436"
     cy="230.335"
     r="51.497"
     gradientUnits="userSpaceOnUse">
    <stop
       offset="0"
       stop-color="#fff"
       id="stop290" />
    <stop
       offset="1"
       stop-color="#B8C4D1"
       id="stop292" />
  </radialGradient>
  <circle
     clip-path="url(#D)"
     cx="219.436"
     cy="230.33501"
     r="51.498001"
     id="circle295"
     style="fill:url(#E)"
     transform="matrix(0.02809843,0,0,0.02766977,0.79100081,1.0067283)" />
  <radialGradient
     id="F"
     cx="228.484"
     cy="237.666"
     r="34.647"
     gradientTransform="matrix(1.063,0,0,1.063,-12.968,-11.834)"
     gradientUnits="userSpaceOnUse">
    <stop
       offset="0"
       stop-color="#fff"
       stop-opacity="0"
       id="stop297" />
    <stop
       offset=".265"
       stop-color="#FCFDFE"
       stop-opacity=".212"
       id="stop299" />
    <stop
       offset=".449"
       stop-color="#F3F6FD"
       stop-opacity=".359"
       id="stop301" />
    <stop
       offset=".609"
       stop-color="#E4EBF9"
       stop-opacity=".487"
       id="stop303" />
    <stop
       offset=".755"
       stop-color="#CEDBF5"
       stop-opacity=".604"
       id="stop305" />
    <stop
       offset=".89"
       stop-color="#B2C7EF"
       stop-opacity=".712"
       id="stop307" />
    <stop
       offset="1"
       stop-color="#95B2E9"
       stop-opacity=".8"
       id="stop309" />
  </radialGradient>
  <circle
     clip-path="url(#D)"
     cx="229.93401"
     cy="240.83299"
     r="36.833"
     id="circle312"
     style="fill:url(#F)"
     transform="matrix(0.02809843,0,0,0.02766977,0.79100081,1.0067283)" />
  <radialGradient
     cx="180.567"
     cy="312.5"
     r="27.3"
     gradientUnits="userSpaceOnUse"
     id="radialGradient318">
    <stop
       offset="0"
       stop-color="#fff"
       id="stop314" />
    <stop
       offset="1"
       stop-color="#fff"
       stop-opacity="0"
       id="stop316" />
  </radialGradient>
  <defs
     id="defs321">
    <circle
       id="G"
       cx="180.568"
       cy="312.5"
       r="24.033" />
  </defs>
  <clipPath
     id="H">
    <use
       xlink:href="#G"
       overflow="visible"
       id="use323" />
  </clipPath>
  <radialGradient
     id="I"
     cx="172.285"
     cy="304.218"
     r="36.048"
     gradientUnits="userSpaceOnUse">
    <stop
       offset="0"
       stop-color="#fff"
       id="stop326" />
    <stop
       offset="1"
       stop-color="#B8C4D1"
       id="stop328" />
  </radialGradient>
  <circle
     clip-path="url(#H)"
     cx="172.285"
     cy="304.21899"
     r="36.048"
     id="circle331"
     style="fill:url(#I)"
     transform="matrix(0.02809843,0,0,0.02766977,0.79100081,1.0067283)" />
  <radialGradient
     id="J"
     cx="181.17"
     cy="304.201"
     r="24.252"
     gradientTransform="matrix(1.063,0,0,1.063,-12.968,-11.834)"
     gradientUnits="userSpaceOnUse">
    <stop
       offset="0"
       stop-color="#fff"
       stop-opacity="0"
       id="stop333" />
    <stop
       offset=".265"
       stop-color="#FCFDFE"
       stop-opacity=".212"
       id="stop335" />
    <stop
       offset=".449"
       stop-color="#F3F6FD"
       stop-opacity=".359"
       id="stop337" />
    <stop
       offset=".609"
       stop-color="#E4EAF9"
       stop-opacity=".487"
       id="stop339" />
    <stop
       offset=".755"
       stop-color="#CED9F5"
       stop-opacity=".604"
       id="stop341" />
    <stop
       offset=".89"
       stop-color="#B2C4EF"
       stop-opacity=".712"
       id="stop343" />
    <stop
       offset="1"
       stop-color="#95AEE9"
       stop-opacity=".8"
       id="stop345" />
  </radialGradient>
  <circle
     clip-path="url(#H)"
     cx="179.634"
     cy="311.56601"
     r="25.783001"
     id="circle348"
     style="fill:url(#J)"
     transform="matrix(0.02809843,0,0,0.02766977,0.79100081,1.0067283)" />
  <radialGradient
     cx="288.801"
     cy="306.5"
     r="27.3"
     gradientUnits="userSpaceOnUse"
     id="radialGradient354">
    <stop
       offset="0"
       stop-color="#fff"
       id="stop350" />
    <stop
       offset="1"
       stop-color="#fff"
       stop-opacity="0"
       id="stop352" />
  </radialGradient>
  <defs
     id="defs357">
    <circle
       id="K"
       cx="288.801"
       cy="306.5"
       r="24.033" />
  </defs>
  <clipPath
     id="L">
    <use
       xlink:href="#K"
       overflow="visible"
       id="use359" />
  </clipPath>
  <radialGradient
     id="M"
     cx="280.519"
     cy="298.218"
     r="36.048"
     gradientUnits="userSpaceOnUse">
    <stop
       offset="0"
       stop-color="#fff"
       id="stop362" />
    <stop
       offset="1"
       stop-color="#B8C4D1"
       id="stop364" />
  </radialGradient>
  <circle
     clip-path="url(#L)"
     cx="280.51901"
     cy="298.21899"
     r="36.048"
     id="circle367"
     style="fill:url(#M)"
     transform="matrix(0.02809843,0,0,0.02766977,0.79100081,1.0067283)" />
  <radialGradient
     id="N"
     cx="282.978"
     cy="298.557"
     r="24.253"
     gradientTransform="matrix(1.063,0,0,1.063,-12.968,-11.834)"
     gradientUnits="userSpaceOnUse">
    <stop
       offset="0"
       stop-color="#fff"
       stop-opacity="0"
       id="stop369" />
    <stop
       offset=".265"
       stop-color="#FCFDFE"
       stop-opacity=".212"
       id="stop371" />
    <stop
       offset=".449"
       stop-color="#F3F5FD"
       stop-opacity=".359"
       id="stop373" />
    <stop
       offset=".609"
       stop-color="#E4E7F9"
       stop-opacity=".487"
       id="stop375" />
    <stop
       offset=".755"
       stop-color="#CED4F5"
       stop-opacity=".604"
       id="stop377" />
    <stop
       offset=".89"
       stop-color="#B2BBEF"
       stop-opacity=".712"
       id="stop379" />
    <stop
       offset="1"
       stop-color="#95A2E9"
       stop-opacity=".8"
       id="stop381" />
  </radialGradient>
  <circle
     clip-path="url(#L)"
     cx="287.867"
     cy="305.56601"
     r="25.783001"
     id="circle384"
     style="fill:url(#N)"
     transform="matrix(0.02809843,0,0,0.02766977,0.79100081,1.0067283)" />
  <radialGradient
     cx="146.034"
     cy="218.167"
     r="19.5"
     gradientUnits="userSpaceOnUse"
     id="radialGradient390">
    <stop
       offset="0"
       stop-color="#fff"
       id="stop386" />
    <stop
       offset="1"
       stop-color="#fff"
       stop-opacity="0"
       id="stop388" />
  </radialGradient>
  <defs
     id="defs393">
    <circle
       id="O"
       cx="146.035"
       cy="218.167"
       r="17.167" />
  </defs>
  <clipPath
     id="P">
    <use
       xlink:href="#O"
       overflow="visible"
       id="use395" />
  </clipPath>
  <radialGradient
     id="Q"
     cx="140.119"
     cy="212.251"
     r="25.749"
     gradientUnits="userSpaceOnUse">
    <stop
       offset="0"
       stop-color="#fff"
       id="stop398" />
    <stop
       offset="1"
       stop-color="#B8C4D1"
       id="stop400" />
  </radialGradient>
  <circle
     clip-path="url(#P)"
     cx="140.119"
     cy="212.252"
     r="25.749001"
     id="circle403"
     style="fill:url(#Q)"
     transform="matrix(0.02809843,0,0,0.02766977,0.79100081,1.0067283)" />
  <radialGradient
     id="R"
     cx="148.938"
     cy="215.719"
     r="17.323"
     gradientTransform="matrix(1.063,0,0,1.063,-12.968,-11.834)"
     gradientUnits="userSpaceOnUse">
    <stop
       offset="0"
       stop-color="#fff"
       stop-opacity="0"
       id="stop405" />
    <stop
       offset=".265"
       stop-color="#FCFEFE"
       stop-opacity=".212"
       id="stop407" />
    <stop
       offset=".449"
       stop-color="#F3F9FD"
       stop-opacity=".359"
       id="stop409" />
    <stop
       offset=".609"
       stop-color="#E4F1F9"
       stop-opacity=".487"
       id="stop411" />
    <stop
       offset=".755"
       stop-color="#CEE5F5"
       stop-opacity=".604"
       id="stop413" />
    <stop
       offset=".89"
       stop-color="#B2D6EF"
       stop-opacity=".712"
       id="stop415" />
    <stop
       offset="1"
       stop-color="#95C7E9"
       stop-opacity=".8"
       id="stop417" />
  </radialGradient>
  <circle
     clip-path="url(#P)"
     cx="145.368"
     cy="217.5"
     r="18.416"
     id="circle420"
     style="fill:url(#R)"
     transform="matrix(0.02809843,0,0,0.02766977,0.79100081,1.0067283)" />
  <radialGradient
     cx="296.602"
     cy="187.667"
     r="19.5"
     gradientUnits="userSpaceOnUse"
     id="radialGradient426">
    <stop
       offset="0"
       stop-color="#fff"
       id="stop422" />
    <stop
       offset="1"
       stop-color="#fff"
       stop-opacity="0"
       id="stop424" />
  </radialGradient>
  <defs
     id="defs429">
    <circle
       id="S"
       cx="296.603"
       cy="187.667"
       r="17.167" />
  </defs>
  <clipPath
     id="T">
    <use
       xlink:href="#S"
       overflow="visible"
       id="use431" />
  </clipPath>
  <radialGradient
     id="U"
     cx="290.687"
     cy="181.751"
     r="25.749"
     gradientUnits="userSpaceOnUse">
    <stop
       offset="0"
       stop-color="#fff"
       id="stop434" />
    <stop
       offset="1"
       stop-color="#B8C4D1"
       id="stop436" />
  </radialGradient>
  <circle
     clip-path="url(#T)"
     cx="290.68701"
     cy="181.75101"
     r="25.749001"
     id="circle439"
     style="fill:url(#U)"
     transform="matrix(0.02809843,0,0,0.02766977,0.79100081,1.0067283)" />
  <radialGradient
     id="V"
     cx="290.568"
     cy="187.029"
     r="17.323"
     gradientTransform="matrix(1.063,0,0,1.063,-12.968,-11.834)"
     gradientUnits="userSpaceOnUse">
    <stop
       offset="0"
       stop-color="#fff"
       stop-opacity="0"
       id="stop441" />
    <stop
       offset=".265"
       stop-color="#FCFDFE"
       stop-opacity=".212"
       id="stop443" />
    <stop
       offset=".449"
       stop-color="#F3F7FD"
       stop-opacity=".359"
       id="stop445" />
    <stop
       offset=".609"
       stop-color="#E4ECF9"
       stop-opacity=".487"
       id="stop447" />
    <stop
       offset=".755"
       stop-color="#CEDEF5"
       stop-opacity=".604"
       id="stop449" />
    <stop
       offset=".89"
       stop-color="#B2CBEF"
       stop-opacity=".712"
       id="stop451" />
    <stop
       offset="1"
       stop-color="#95B7E9"
       stop-opacity=".8"
       id="stop453" />
  </radialGradient>
  <circle
     clip-path="url(#T)"
     cx="295.936"
     cy="187"
     r="18.416"
     id="circle456"
     style="fill:url(#V)"
     transform="matrix(0.02809843,0,0,0.02766977,0.79100081,1.0067283)" />
  <radialGradient
     cx="253.303"
     cy="369.533"
     r="19.5"
     gradientUnits="userSpaceOnUse"
     id="radialGradient462">
    <stop
       offset="0"
       stop-color="#fff"
       id="stop458" />
    <stop
       offset="1"
       stop-color="#fff"
       stop-opacity="0"
       id="stop460" />
  </radialGradient>
  <defs
     id="defs465">
    <circle
       id="W"
       cx="253.304"
       cy="369.533"
       r="17.167" />
  </defs>
  <clipPath
     id="X">
    <use
       xlink:href="#W"
       overflow="visible"
       id="use467" />
  </clipPath>
  <radialGradient
     id="Y"
     cx="247.388"
     cy="363.618"
     r="25.749"
     gradientUnits="userSpaceOnUse">
    <stop
       offset="0"
       stop-color="#fff"
       id="stop470" />
    <stop
       offset="1"
       stop-color="#B8C4D1"
       id="stop472" />
  </radialGradient>
  <circle
     clip-path="url(#X)"
     cx="247.388"
     cy="363.61899"
     r="25.749001"
     id="circle475"
     style="fill:url(#Y)"
     transform="matrix(0.02809843,0,0,0.02766977,0.79100081,1.0067283)" />
  <radialGradient
     id="Z"
     cx="249.839"
     cy="358.1"
     r="17.323"
     gradientTransform="matrix(1.063,0,0,1.063,-12.968,-11.834)"
     gradientUnits="userSpaceOnUse">
    <stop
       offset="0"
       stop-color="#fff"
       stop-opacity="0"
       id="stop477" />
    <stop
       offset=".265"
       stop-color="#FCFCFE"
       stop-opacity=".212"
       id="stop479" />
    <stop
       offset=".449"
       stop-color="#F3F3FD"
       stop-opacity=".359"
       id="stop481" />
    <stop
       offset=".609"
       stop-color="#E4E4F9"
       stop-opacity=".487"
       id="stop483" />
    <stop
       offset=".755"
       stop-color="#CECFF5"
       stop-opacity=".604"
       id="stop485" />
    <stop
       offset=".89"
       stop-color="#B2B4EF"
       stop-opacity=".712"
       id="stop487" />
    <stop
       offset="1"
       stop-color="#9598E9"
       stop-opacity=".8"
       id="stop489" />
  </radialGradient>
  <circle
     clip-path="url(#X)"
     cx="252.63699"
     cy="368.867"
     r="18.416"
     id="circle492"
     style="fill:url(#Z)"
     transform="matrix(0.02809843,0,0,0.02766977,0.79100081,1.0067283)" />
  <radialGradient
     cx="360.867"
     cy="330.533"
     r="19.5"
     gradientUnits="userSpaceOnUse"
     id="radialGradient498">
    <stop
       offset="0"
       stop-color="#fff"
       id="stop494" />
    <stop
       offset="1"
       stop-color="#fff"
       stop-opacity="0"
       id="stop496" />
  </radialGradient>
  <defs
     id="defs501">
    <circle
       id="aa"
       cx="360.868"
       cy="330.533"
       r="17.167" />
  </defs>
  <clipPath
     id="ab">
    <use
       xlink:href="#aa"
       overflow="visible"
       id="use503" />
  </clipPath>
  <radialGradient
     id="ac"
     cx="354.952"
     cy="324.618"
     r="25.749"
     gradientUnits="userSpaceOnUse">
    <stop
       offset="0"
       stop-color="#fff"
       id="stop506" />
    <stop
       offset="1"
       stop-color="#B8C4D1"
       id="stop508" />
  </radialGradient>
  <circle
     clip-path="url(#ab)"
     cx="354.952"
     cy="324.61899"
     r="25.749001"
     id="circle511"
     style="fill:url(#ac)"
     transform="matrix(0.02809843,0,0,0.02766977,0.79100081,1.0067283)" />
  <radialGradient
     id="ad"
     cx="351.019"
     cy="321.415"
     r="17.322"
     gradientTransform="matrix(1.063,0,0,1.063,-12.968,-11.834)"
     gradientUnits="userSpaceOnUse">
    <stop
       offset="0"
       stop-color="#fff"
       stop-opacity="0"
       id="stop513" />
    <stop
       offset=".265"
       stop-color="#FDFCFE"
       stop-opacity=".212"
       id="stop515" />
    <stop
       offset=".449"
       stop-color="#F5F3FD"
       stop-opacity=".359"
       id="stop517" />
    <stop
       offset=".609"
       stop-color="#E9E4F9"
       stop-opacity=".487"
       id="stop519" />
    <stop
       offset=".755"
       stop-color="#D7CEF5"
       stop-opacity=".604"
       id="stop521" />
    <stop
       offset=".89"
       stop-color="#C0B2EF"
       stop-opacity=".712"
       id="stop523" />
    <stop
       offset="1"
       stop-color="#A995E9"
       stop-opacity=".8"
       id="stop525" />
  </radialGradient>
  <circle
     clip-path="url(#ab)"
     cx="360.20099"
     cy="329.867"
     r="18.416"
     id="circle528"
     style="fill:url(#ad)"
     transform="matrix(0.02809843,0,0,0.02766977,0.79100081,1.0067283)" />
  <radialGradient
     cx="245.867"
     cy="136.5"
     r="15.6"
     gradientUnits="userSpaceOnUse"
     id="radialGradient534">
    <stop
       offset="0"
       stop-color="#fff"
       id="stop530" />
    <stop
       offset="1"
       stop-color="#fff"
       stop-opacity="0"
       id="stop532" />
  </radialGradient>
  <defs
     id="defs537">
    <circle
       id="ae"
       cx="245.867"
       cy="136.5"
       r="13.733" />
  </defs>
  <clipPath
     id="af">
    <use
       xlink:href="#ae"
       overflow="visible"
       id="use539" />
  </clipPath>
  <radialGradient
     id="ag"
     cx="241.135"
     cy="131.768"
     r="20.599"
     gradientUnits="userSpaceOnUse">
    <stop
       offset="0"
       stop-color="#fff"
       id="stop542" />
    <stop
       offset="1"
       stop-color="#B8C4D1"
       id="stop544" />
  </radialGradient>
  <circle
     clip-path="url(#af)"
     cx="241.13499"
     cy="131.76801"
     r="20.599001"
     id="circle547"
     style="fill:url(#ag)"
     transform="matrix(0.02809843,0,0,0.02766977,0.79100081,1.0067283)" />
  <radialGradient
     id="ah"
     cx="242.97"
     cy="139.026"
     r="13.859"
     gradientTransform="matrix(1.063,0,0,1.063,-12.968,-11.834)"
     gradientUnits="userSpaceOnUse">
    <stop
       offset="0"
       stop-color="#fff"
       stop-opacity="0"
       id="stop549" />
    <stop
       offset=".265"
       stop-color="#FCFEFE"
       stop-opacity=".212"
       id="stop551" />
    <stop
       offset=".449"
       stop-color="#F3F9FD"
       stop-opacity=".359"
       id="stop553" />
    <stop
       offset=".609"
       stop-color="#E4F1F9"
       stop-opacity=".487"
       id="stop555" />
    <stop
       offset=".755"
       stop-color="#CEE5F5"
       stop-opacity=".604"
       id="stop557" />
    <stop
       offset=".89"
       stop-color="#B2D6EF"
       stop-opacity=".712"
       id="stop559" />
    <stop
       offset="1"
       stop-color="#95C7E9"
       stop-opacity=".8"
       id="stop561" />
  </radialGradient>
  <circle
     clip-path="url(#af)"
     cx="245.334"
     cy="135.967"
     r="14.733"
     id="circle564"
     style="fill:url(#ah)"
     transform="matrix(0.02809843,0,0,0.02766977,0.79100081,1.0067283)" />
  <radialGradient
     cx="316.102"
     cy="138.439"
     r="15.6"
     gradientUnits="userSpaceOnUse"
     id="radialGradient570">
    <stop
       offset="0"
       stop-color="#fff"
       id="stop566" />
    <stop
       offset="1"
       stop-color="#fff"
       stop-opacity="0"
       id="stop568" />
  </radialGradient>
  <defs
     id="defs573">
    <circle
       id="ai"
       cx="316.102"
       cy="138.438"
       r="13.733" />
  </defs>
  <clipPath
     id="aj">
    <use
       xlink:href="#ai"
       overflow="visible"
       id="use575" />
  </clipPath>
  <radialGradient
     id="ak"
     cx="311.369"
     cy="133.706"
     r="20.599"
     gradientUnits="userSpaceOnUse">
    <stop
       offset="0"
       stop-color="#fff"
       id="stop578" />
    <stop
       offset="1"
       stop-color="#B8C4D1"
       id="stop580" />
  </radialGradient>
  <circle
     clip-path="url(#aj)"
     cx="311.36899"
     cy="133.707"
     r="20.599001"
     id="circle583"
     style="fill:url(#ak)"
     transform="matrix(0.02809843,0,0,0.02766977,0.79100081,1.0067283)" />
  <radialGradient
     id="al"
     cx="309.035"
     cy="140.85"
     r="13.859"
     gradientTransform="matrix(1.063,0,0,1.063,-12.968,-11.834)"
     gradientUnits="userSpaceOnUse">
    <stop
       offset="0"
       stop-color="#fff"
       stop-opacity="0"
       id="stop585" />
    <stop
       offset=".265"
       stop-color="#FCFDFE"
       stop-opacity=".212"
       id="stop587" />
    <stop
       offset=".449"
       stop-color="#F3F7FD"
       stop-opacity=".359"
       id="stop589" />
    <stop
       offset=".609"
       stop-color="#E4ECF9"
       stop-opacity=".487"
       id="stop591" />
    <stop
       offset=".755"
       stop-color="#CEDDF5"
       stop-opacity=".604"
       id="stop593" />
    <stop
       offset=".89"
       stop-color="#B2C9EF"
       stop-opacity=".712"
       id="stop595" />
    <stop
       offset="1"
       stop-color="#95B5E9"
       stop-opacity=".8"
       id="stop597" />
  </radialGradient>
  <circle
     clip-path="url(#aj)"
     cx="315.56799"
     cy="137.905"
     r="14.733"
     id="circle600"
     style="fill:url(#al)"
     transform="matrix(0.02809843,0,0,0.02766977,0.79100081,1.0067283)" />
</svg>
