<svg xmlns="http://www.w3.org/2000/svg" width="16" height="16" viewBox="0 0 16 16" preserveAspectRatio="xMidYMid"><g fill-opacity="0"><path d="M7.958 16.035C3.686 16.005-.029 12.459 0 7.955.028 3.62 3.63-.03 8.087 0c4.332.029 7.986 3.625 7.947 8.03.036 4.365-3.636 8.035-8.076 8.005zm0 0C3.686 16.005-.029 12.459 0 7.955.028 3.62 3.63-.03 8.087 0c4.332.029 7.986 3.625 7.947 8.03.036 4.365-3.636 8.035-8.076 8.005z"/><path d="M7.966 14.97c-3.705-.026-6.926-3.1-6.901-7.007.024-3.759 3.148-6.924 7.013-6.898 3.756.025 6.925 3.143 6.892 6.963.03 3.785-3.154 6.969-7.004 6.942zm0 0c-3.705-.026-6.926-3.1-6.901-7.007.024-3.759 3.148-6.924 7.013-6.898 3.756.025 6.925 3.143 6.892 6.963.03 3.785-3.154 6.969-7.004 6.942z"/><path d="M10.606 8.015c-.018.331-.307.606-.593.558h-.004a.572.572 0 01-.573-.571.581.581 0 01.59-.562c.317.002.597.269.58.575zm-5.081 3.21c.119.004.238.002.375.002v.863c-.854.144-1.557-.098-1.73-.82a4.792 4.792 0 01-.109-.807c-.018-.288.014-.579-.008-.866-.06-.79-.163-1.06-.921-1.097v-.983a1.42 1.42 0 01.165-.028c.415-.02.59-.148.683-.557a4.67 4.67 0 00.075-.697c.033-.452.021-.911.097-1.356.109-.643.508-.956 1.167-.99.188-.01.376-.002.589-.002v.882c-.088.007-.168.02-.247.017-.538-.017-.566.167-.605.611-.024.28.01.563-.01.843a6.71 6.71 0 01-.111.83c-.078.397-.322.692-.66.943.657.427.731 1.09.774 1.765.023.362.012.727.05 1.088.028.28.137.351.426.36zm.553-3.785h.01a.569.569 0 01.558.61.556.556 0 01-.587.523h-.037a.567.567 0 01.056-1.133zm1.957 0c.343-.002.571.22.573.56.002.348-.215.571-.556.573-.347.001-.575-.218-.577-.555a.543.543 0 01.56-.577zm4.096-.43c.091.342.27.461.628.478.06.003.118.013.198.022v.982a.838.838 0 01-.134.033c-.48.03-.7.227-.749.71-.03.308-.028.619-.05.928a7.88 7.88 0 01-.092 1.014c-.123.607-.502.91-1.13.948-.201.012-.404.002-.622.002v-.879c.117-.007.22-.017.324-.02.375-.009.507-.13.526-.501.02-.41.029-.818.047-1.227.026-.591.188-1.119.739-1.487-.315-.225-.568-.497-.634-.864-.079-.444-.104-.899-.147-1.35-.021-.225-.02-.452-.042-.677-.024-.243-.19-.327-.412-.333-.127-.003-.254 0-.416 0V3.93c1.034-.172 1.748.172 1.815 1.161.027.416.023.833.05 1.249.012.226.045.45.1.67z"/></g><path d="M7.162 14.89c-2.8-.38-5.125-2.453-5.86-5.222-.176-.664-.237-1.97-.125-2.67.449-2.8 2.491-5.017 5.262-5.712.844-.211 2.342-.21 3.188.001a7.064 7.064 0 015.14 5.16c.192.776.204 2.267.024 3.042a6.812 6.812 0 01-1.672 3.152c-.642.688-1.138 1.075-1.872 1.466a6.948 6.948 0 01-2.105.732c-.517.09-1.502.116-1.98.05zm-1.237-3.228v-.468l-.284-.001c-.467-.002-.47-.01-.56-1.155-.088-1.139-.224-1.593-.564-1.879l-.187-.157.205-.192c.364-.343.46-.666.522-1.773.033-.598.088-1.04.136-1.097.044-.053.18-.096.3-.096.405 0 .432-.036.432-.552v-.47l-.493.037c-.529.04-.787.14-1.03.4-.22.235-.278.501-.352 1.587-.092 1.354-.16 1.52-.652 1.6l-.247.04-.02.509-.019.51.237.044c.4.075.568.278.64.773.034.24.062.681.063.983.003 1.357.365 1.82 1.422 1.823l.451.002zm5.523.296c.45-.336.537-.602.598-1.834.066-1.304.14-1.465.717-1.567l.253-.044-.02-.515-.019-.514-.293-.04c-.493-.065-.568-.267-.66-1.774-.07-1.148-.164-1.397-.61-1.624-.3-.154-.794-.234-1.07-.173l-.208.045v.926h.326c.206 0 .357.036.408.098.045.054.108.438.14.852.115 1.48.142 1.59.492 1.977l.236.26-.172.161c-.385.359-.559 1.06-.56 2.25 0 .604-.112.752-.569.752h-.3v.949l.563-.023c.44-.019.604-.054.748-.162zM6.496 8.423c.351-.351.11-.978-.38-.992-.446-.012-.733.315-.632.72.11.434.693.591 1.012.272zm1.948.013c.31-.341.209-.846-.196-.98-.258-.085-.415-.048-.635.15-.213.192-.207.597.014.817.22.22.624.227.817.013zm1.996-.013c.326-.326.163-.881-.291-.992-.36-.087-.748.236-.748.623 0 .078.088.23.195.338.256.255.607.268.844.03z" fill="#87939a" stroke-width=".067"/><path d="M6.713 14.79a7.084 7.084 0 01-5.367-5.063c-.168-.623-.248-1.71-.176-2.412.305-3 2.643-5.531 5.61-6.073.58-.106 1.923-.106 2.51 0 1.327.24 2.562.908 3.592 1.945.805.81 1.314 1.613 1.671 2.634.235.673.294 1.035.321 1.978.03 1.013-.033 1.553-.265 2.27-.786 2.429-3.049 4.378-5.515 4.75-.681.103-1.816.088-2.381-.03zm-.767-3.126l-.013-.485-.237-.012c-.396-.02-.44-.042-.491-.237a8.086 8.086 0 01-.1-.814c-.1-1.17-.243-1.664-.567-1.957l-.179-.161.188-.182c.368-.356.427-.558.534-1.836.09-1.06.11-1.112.442-1.112.361 0 .402-.055.425-.585l.02-.455h-.28c-.61 0-1.111.171-1.335.456-.16.204-.233.544-.311 1.451C3.91 7.28 3.88 7.347 3.3 7.443l-.174.028-.015.507c-.008.279.004.52.027.537a.868.868 0 00.231.06c.236.039.477.268.552.526.03.103.074.57.099 1.038.05.938.119 1.275.316 1.555.228.323.548.442 1.208.45l.416.004zm5.13.441c.444-.073.78-.425.882-.926.027-.13.078-.64.115-1.134.092-1.238.146-1.354.69-1.464.295-.06.267.026.246-.754l-.01-.35-.2-.031c-.579-.088-.644-.23-.743-1.609-.095-1.31-.182-1.563-.617-1.783a1.91 1.91 0 00-1.06-.204l-.263.032v.986h.28c.346 0 .425.03.48.176.024.063.087.533.139 1.045.115 1.135.168 1.329.447 1.656.118.138.214.263.214.277 0 .014-.076.11-.168.213-.329.363-.431.743-.513 1.908-.07 1-.077 1.013-.577 1.013h-.302v.992l.367-.003a4.86 4.86 0 00.593-.04zM6.383 8.531c.171-.088.283-.293.283-.519 0-.351-.24-.59-.591-.59a.634.634 0 00-.546.297c-.312.512.303 1.097.854.812zm2.055-.07a.691.691 0 00.193-.588c-.088-.47-.727-.631-1.037-.263a.592.592 0 00.111.889c.213.144.558.127.733-.038zm1.906.046c.33-.201.368-.641.08-.929-.137-.138-.187-.157-.403-.157-.224 0-.264.017-.43.184-.15.15-.184.216-.184.367 0 .473.536.78.937.535z" fill="#87939a" stroke-width=".047"/></svg>
