<svg xmlns="http://www.w3.org/2000/svg" width="16" height="16" viewBox="0 0 16 16" preserveAspectRatio="xMidYMid"><g fill-opacity="0"><path d="M7.958 16.035C3.686 16.005-.029 12.459 0 7.955.028 3.62 3.63-.03 8.087 0c4.332.029 7.986 3.625 7.947 8.03.036 4.365-3.636 8.035-8.076 8.005zm0 0C3.686 16.005-.029 12.459 0 7.955.028 3.62 3.63-.03 8.087 0c4.332.029 7.986 3.625 7.947 8.03.036 4.365-3.636 8.035-8.076 8.005z"/><path d="M7.966 14.97c-3.705-.026-6.926-3.1-6.901-7.007.024-3.759 3.148-6.924 7.013-6.898 3.756.025 6.925 3.143 6.892 6.963.03 3.785-3.154 6.969-7.004 6.942zm0 0c-3.705-.026-6.926-3.1-6.901-7.007.024-3.759 3.148-6.924 7.013-6.898 3.756.025 6.925 3.143 6.892 6.963.03 3.785-3.154 6.969-7.004 6.942z"/><path d="M10.606 8.015c-.018.331-.307.606-.593.558h-.004a.572.572 0 01-.573-.571.581.581 0 01.59-.562c.317.002.597.269.58.575zm-5.081 3.21c.119.004.238.002.375.002v.863c-.854.144-1.557-.098-1.73-.82a4.792 4.792 0 01-.109-.807c-.018-.288.014-.579-.008-.866-.06-.79-.163-1.06-.921-1.097v-.983a1.42 1.42 0 01.165-.028c.415-.02.59-.148.683-.557a4.67 4.67 0 00.075-.697c.033-.452.021-.911.097-1.356.109-.643.508-.956 1.167-.99.188-.01.376-.002.589-.002v.882c-.088.007-.168.02-.247.017-.538-.017-.566.167-.605.611-.024.28.01.563-.01.843a6.71 6.71 0 01-.111.83c-.078.397-.322.692-.66.943.657.427.731 1.09.774 1.765.023.362.012.727.05 1.088.028.28.137.351.426.36zm.553-3.785h.01a.569.569 0 01.558.61.556.556 0 01-.587.523h-.037a.567.567 0 01.056-1.133zm1.957 0c.343-.002.571.22.573.56.002.348-.215.571-.556.573-.347.001-.575-.218-.577-.555a.543.543 0 01.56-.577zm4.096-.43c.091.342.27.461.628.478.06.003.118.013.198.022v.982a.838.838 0 01-.134.033c-.48.03-.7.227-.749.71-.03.308-.028.619-.05.928a7.88 7.88 0 01-.092 1.014c-.123.607-.502.91-1.13.948-.201.012-.404.002-.622.002v-.879c.117-.007.22-.017.324-.02.375-.009.507-.13.526-.501.02-.41.029-.818.047-1.227.026-.591.188-1.119.739-1.487-.315-.225-.568-.497-.634-.864-.079-.444-.104-.899-.147-1.35-.021-.225-.02-.452-.042-.677-.024-.243-.19-.327-.412-.333-.127-.003-.254 0-.416 0V3.93c1.034-.172 1.748.172 1.815 1.161.027.416.023.833.05 1.249.012.226.045.45.1.67z"/></g><path d="M7.162 14.89c-2.8-.38-5.125-2.453-5.86-5.222-.176-.664-.237-1.97-.125-2.67.449-2.8 2.491-5.017 5.262-5.712.844-.211 2.342-.21 3.188.001a7.064 7.064 0 015.14 5.16c.192.776.204 2.267.024 3.042a6.812 6.812 0 01-1.672 3.152c-.642.688-1.138 1.075-1.872 1.466a6.948 6.948 0 01-2.105.732c-.517.09-1.502.116-1.98.05zm-1.237-3.228v-.468l-.284-.001c-.467-.002-.47-.01-.56-1.155-.088-1.139-.224-1.593-.564-1.879l-.187-.157.205-.192c.364-.343.46-.666.522-1.773.033-.598.088-1.04.136-1.097.044-.053.18-.096.3-.096.405 0 .432-.036.432-.552v-.47l-.493.037c-.529.04-.787.14-1.03.4-.22.235-.278.501-.352 1.587-.092 1.354-.16 1.52-.652 1.6l-.247.04-.02.509-.019.51.237.044c.4.075.568.278.64.773.034.24.062.681.063.983.003 1.357.365 1.82 1.422 1.823l.451.002zm5.523.296c.45-.336.537-.602.598-1.834.066-1.304.14-1.465.717-1.567l.253-.044-.02-.515-.019-.514-.293-.04c-.493-.065-.568-.267-.66-1.774-.07-1.148-.164-1.397-.61-1.624-.3-.154-.794-.234-1.07-.173l-.208.045v.926h.326c.206 0 .357.036.408.098.045.054.108.438.14.852.115 1.48.142 1.59.492 1.977l.236.26-.172.161c-.385.359-.559 1.06-.56 2.25 0 .604-.112.752-.569.752h-.3v.949l.563-.023c.44-.019.604-.054.748-.162zM6.496 8.423c.351-.351.11-.978-.38-.992-.446-.012-.733.315-.632.72.11.434.693.591 1.012.272zm1.948.013c.31-.341.209-.846-.196-.98-.258-.085-.415-.048-.635.15-.213.192-.207.597.014.817.22.22.624.227.817.013zm1.996-.013c.326-.326.163-.881-.291-.992-.36-.087-.748.236-.748.623 0 .078.088.23.195.338.256.255.607.268.844.03z" fill="#87939a" stroke-width=".067"/><path d="M6.713 14.79a7.084 7.084 0 01-5.367-5.063c-.168-.623-.248-1.71-.176-2.412.305-3 2.643-5.531 5.61-6.073.58-.106 1.923-.106 2.51 0 1.327.24 2.562.908 3.592 1.945.805.81 1.314 1.613 1.671 2.634.235.673.294 1.035.321 1.978.03 1.013-.033 1.553-.265 2.27-.786 2.429-3.049 4.378-5.515 4.75-.681.103-1.816.088-2.381-.03zm-.767-3.126l-.013-.485-.237-.012c-.396-.02-.44-.042-.491-.237a8.086 8.086 0 01-.1-.814c-.1-1.17-.243-1.664-.567-1.957l-.179-.161.188-.182c.368-.356.427-.558.534-1.836.09-1.06.11-1.112.442-1.112.361 0 .402-.055.425-.585l.02-.455h-.28c-.61 0-1.111.171-1.335.456-.16.204-.233.544-.311 1.451C3.91 7.28 3.88 7.347 3.3 7.443l-.174.028-.015.507c-.008.279.004.52.027.537a.868.868 0 00.231.06c.236.039.477.268.552.526.03.103.074.57.099 1.038.05.938.119 1.275.316 1.555.228.323.548.442 1.208.45l.416.004zm5.13.441c.444-.073.78-.425.882-.926.027-.13.078-.64.115-1.134.092-1.238.146-1.354.69-1.464.295-.06.267.026.246-.754l-.01-.35-.2-.031c-.579-.088-.644-.23-.743-1.609-.095-1.31-.182-1.563-.617-1.783a1.91 1.91 0 00-1.06-.204l-.263.032v.986h.28c.346 0 .425.03.48.176.024.063.087.533.139 1.045.115 1.135.168 1.329.447 1.656.118.138.214.263.214.277 0 .014-.076.11-.168.213-.329.363-.431.743-.513 1.908-.07 1-.077 1.013-.577 1.013h-.302v.992l.367-.003a4.86 4.86 0 00.593-.04zM6.383 8.531c.171-.088.283-.293.283-.519 0-.351-.24-.59-.591-.59a.634.634 0 00-.546.297c-.312.512.303 1.097.854.812zm2.055-.07a.691.691 0 00.193-.588c-.088-.47-.727-.631-1.037-.263a.592.592 0 00.111.889c.213.144.558.127.733-.038zm1.906.046c.33-.201.368-.641.08-.929-.137-.138-.187-.157-.403-.157-.224 0-.264.017-.43.184-.15.15-.184.216-.184.367 0 .473.536.78.937.535z" fill="#b6b6b6" stroke-width=".047"/><path d="M7.539 14.892c.024-.039-.045-.054-.243-.052a3.163 3.163 0 01-.418-.022 40.632 40.632 0 00-.26-.043.987.987 0 01-.142-.03 1.491 1.491 0 01-.252-.084c-.073-.03-.153-.043-.177-.029-.024.015-.043.002-.043-.028s-.032-.043-.071-.028c-.04.015-.071.008-.071-.015 0-.04-.27-.124-.343-.105-.02.005-.035-.01-.035-.034 0-.04-.225-.122-.296-.107-.02.004-.035-.015-.035-.042 0-.028-.021-.037-.047-.021-.026.016-.048.005-.048-.024s-.021-.04-.047-.023c-.026.016-.047.005-.047-.024 0-.03-.022-.04-.048-.024-.026.016-.047.006-.047-.023 0-.03-.021-.04-.047-.024s-.047.011-.047-.01c0-.052-.284-.22-.285-.17-.001.021-.024 0-.05-.046-.027-.046-.067-.072-.089-.059-.021.013-.052-.009-.067-.05-.016-.04-.048-.061-.071-.046-.024.014-.056-.009-.073-.052-.016-.042-.042-.064-.058-.049-.015.016-.067-.018-.115-.075-.048-.058-.088-.086-.089-.063 0 .023-.045-.014-.099-.082-.053-.068-.112-.12-.13-.116-.044.009-.907-.858-.907-.912 0-.023-.043-.068-.095-.101-.052-.032-.094-.085-.094-.116 0-.032-.027-.074-.06-.095a.533.533 0 01-.125-.167 1.196 1.196 0 00-.154-.223c-.047-.051-.087-.115-.087-.142a.05.05 0 00-.05-.05c-.027 0-.038-.02-.023-.043.015-.024.01-.05-.009-.059-.045-.02-.364-.665-.352-.713.005-.02-.008-.035-.028-.035s-.04-.046-.045-.103c-.004-.056-.035-.12-.07-.14-.033-.022-.042-.04-.02-.04.023 0 .015-.033-.017-.072-.032-.039-.043-.07-.024-.07.02 0 .009-.033-.023-.072-.033-.039-.043-.07-.024-.07.02 0 .009-.033-.024-.072-.032-.039-.043-.07-.023-.07.02 0 .011-.03-.018-.064-.029-.035-.04-.076-.024-.091.015-.016.01-.056-.01-.09a.486.486 0 01-.052-.157l-.035-.237c-.06-.383-.076-.627-.087-1.34-.006-.425.007-.783.028-.796.021-.013.034-.08.029-.15a.518.518 0 01.022-.2.246.246 0 00.023-.118.24.24 0 01.02-.114c.063-.159.122-.443.1-.48-.014-.022 0-.04.03-.04s.043-.031.028-.07c-.015-.037-.006-.081.02-.097a.053.053 0 00.018-.072c-.015-.025-.002-.044.028-.044s.044-.031.03-.068c-.015-.038-.009-.075.014-.083.022-.008.047-.057.056-.11a.294.294 0 01.04-.118c.036-.033.383-.749.379-.78-.002-.014.04-.07.09-.126.052-.055.085-.116.073-.136-.012-.02.011-.048.052-.063.04-.016.062-.048.047-.071-.014-.024.009-.056.051-.072.043-.017.065-.043.05-.059-.016-.015.018-.067.075-.115.058-.048.086-.088.063-.089-.023 0 .014-.046.083-.1.069-.054.12-.112.112-.13-.014-.037.903-.945.929-.919.01.01.063-.039.118-.109.055-.07.1-.108.101-.085 0 .023.04-.005.089-.063.048-.057.1-.091.115-.076.016.016.042-.006.058-.049.017-.042.05-.065.073-.05.023.014.055-.007.07-.048.016-.04.045-.064.064-.052.02.012.08-.02.136-.072a.423.423 0 01.126-.092c.013 0 .178-.078.367-.174.188-.097.358-.171.378-.166.02.005.035-.008.035-.028s.046-.04.102-.045c.056-.004.117-.032.136-.061.018-.03.046-.052.063-.05.017.002.04.001.054-.002l.07-.018a.223.223 0 00.06-.021.826.826 0 01.143-.032c.073-.011.19-.045.26-.074a.447.447 0 01.171-.043.248.248 0 00.118-.022c.366-.155 2.55-.158 2.936-.004.039.015.135.038.213.05a1.244 1.244 0 01.236.054l.083.022.07.021c.02.006.1.037.178.07.078.033.163.064.189.07a.738.738 0 01.147.064c.055.03.114.041.13.025.017-.016.03-.004.03.028s.021.045.047.029c.026-.016.048-.006.048.023 0 .03.021.04.047.024s.047-.005.047.024.021.04.047.023c.026-.016.048-.005.048.024 0 .03.021.04.047.024s.047-.006.047.023c0 .03.022.04.048.024.026-.016.047-.003.047.029s.012.045.027.03c.016-.015.07.008.12.051.05.044.105.072.12.063.017-.009.043.003.058.026.016.023.231.192.478.377.53.397 1.688 1.574 1.617 1.644-.012.013.012.036.055.053.042.016.065.049.05.072-.014.024.007.056.048.071.04.016.064.044.052.063-.012.02.016.076.062.126.046.049.09.11.099.137.026.08.309.66.334.685a.308.308 0 01.04.118c.009.052.041.11.07.13.03.019.04.035.022.035-.03 0 .048.268.136.473a.553.553 0 01.035.103.136.136 0 00.036.064c.018.017.022.06.009.093-.013.034-.003.075.022.09.026.016.036.069.023.118-.013.049 0 .103.028.12.029.019.039.084.023.148a.384.384 0 00.004.198c.041.102.041 1.902 0 2.163a89.65 89.65 0 00-.04.26.424.424 0 01-.049.134c-.02.033-.025.074-.01.09.016.014.004.056-.025.092-.03.035-.04.078-.024.094.016.017.006.059-.023.094-.029.034-.037.063-.017.063.02 0 .008.032-.024.07-.032.04-.043.072-.024.072.02 0 .01.032-.023.07-.033.04-.04.072-.018.072.023 0 .014.019-.02.04-.034.022-.065.085-.07.141-.003.056-.021.102-.039.102-.034 0-.11.234-.097.296.004.02-.015.035-.043.035-.027 0-.037.021-.02.047.016.026.005.048-.024.048-.03 0-.04.021-.024.047s.006.047-.023.047c-.03 0-.04.022-.024.048.016.026.011.047-.01.047-.023 0-.078.064-.124.142-.046.078-.068.141-.049.141.02 0-.006.032-.056.07-.05.038-.077.07-.059.07.019.002-.019.059-.083.128s-.106.135-.094.148c.012.012-.025.06-.082.109-.058.048-.086.088-.063.088.023.001-.015.047-.085.102-.07.055-.118.109-.107.12.04.04-1.036 1.039-1.362 1.267a3.348 3.348 0 00-.39.303c-.033.04-.06.056-.06.036 0-.02-.063.003-.141.049-.078.046-.142.101-.142.123 0 .022-.021.027-.047.011s-.048-.005-.048.024-.021.04-.047.023c-.026-.016-.047-.005-.047.024s-.022.04-.048.024c-.026-.017-.047-.006-.047.023 0 .03-.021.04-.047.024s-.047-.003-.047.029c0 .031-.014.044-.03.028-.017-.017-.075-.005-.13.025-.055.031-.116.052-.136.046-.02-.005-.035.011-.035.037s-.016.045-.036.042a.181.181 0 00-.07.006 8.93 8.93 0 00-.555.176c-.214.081-.587.16-.75.157a.375.375 0 00-.163.03c-.029.017-.17.037-.315.044a43.83 43.83 0 00-.705.044c-.33.023-.435.017-.41-.024zM5.918 11.68c-.014-.452-.02-.47-.13-.497a.57.57 0 00-.233 0c-.067.017-.119.01-.119-.017 0-.026-.053-.06-.117-.077-.065-.016-.116-.045-.113-.064a.181.181 0 00-.006-.07 1.327 1.327 0 01-.025-.166 635.07 635.07 0 00-.09-.863c-.094-.928-.257-1.444-.557-1.761l-.168-.178.196-.2c.322-.33.361-.45.494-1.5.025-.195.047-.408.05-.473.009-.275.045-.575.071-.602.016-.016.03-.067.03-.114 0-.113.17-.22.386-.242.293-.03.322-.084.322-.588V3.82l-.366.024c-.715.047-1.157.281-1.306.692-.073.2-.149.682-.202 1.277-.022.245-.054.579-.083.854a.535.535 0 01-.048.18.162.162 0 00-.01.126c.015.038.006.069-.019.069s-.046.028-.046.063c0 .079-.212.28-.32.304a1.63 1.63 0 01-.19.027c-.165.012-.197.11-.198.605 0 .43.005.457.106.491.145.05.237.07.296.07.038-.002.285.293.356.425.036.065.059.147.051.182a.289.289 0 00.02.142c.018.043.04.195.048.338.09 1.575.148 1.822.513 2.172.137.132.231.175.488.22.176.032.458.06.627.062l.307.004-.015-.468zm5.356.353c.315-.131.604-.479.666-.8.033-.172.132-1.08.148-1.354.025-.442.046-.615.078-.647.016-.017.03-.072.03-.122 0-.122.193-.463.244-.432.022.014.04.003.04-.024 0-.026.03-.037.066-.023.036.014.08.003.098-.026.017-.028.05-.04.072-.026.022.014.093.001.157-.028.082-.037.124-.104.144-.225.036-.216-.016-.804-.074-.84-.04-.025-.103-.038-.345-.074a.434.434 0 01-.186-.097c-.05-.046-.11-.083-.133-.083-.023 0-.028-.021-.012-.047s.006-.048-.023-.048c-.03 0-.041-.02-.026-.044.015-.024.005-.057-.022-.074a.056.056 0 01-.02-.076c.016-.026.013-.083-.006-.127a1.03 1.03 0 01-.049-.246l-.043-.496a28.408 28.408 0 01-.042-.52c-.027-.428-.138-.966-.235-1.138-.126-.225-.345-.378-.687-.477-.301-.088-.842-.124-.882-.059a.052.052 0 01-.072.017c-.026-.016-.044.166-.044.446 0 .26.016.482.036.494.02.012.163.03.319.038.268.016.461.108.414.197-.012.02-.005.073.014.118.019.044.03.138.024.21a.39.39 0 00.027.188c.02.033.04.145.045.25.017.43.156 1.336.233 1.521.035.083.148.266.252.406l.188.256-.175.232c-.156.205-.235.341-.268.456a.413.413 0 01-.021.06c-.016.03-.021.052-.084.354-.091.435-.163 1.191-.132 1.384.017.106.01.172-.015.156-.036-.023-.063.072-.108.382-.011.074-.252.126-.524.113l-.225-.011v1.006l.485-.02c.303-.013.555-.05.673-.1zM6.392 8.518c.14-.058.274-.315.273-.524 0-.33-.342-.603-.69-.551-.436.065-.655.534-.407.87.199.268.494.342.824.205zm1.842.043c.227-.088.328-.226.365-.496.031-.23.023-.276-.073-.398a.751.751 0 00-.253-.198c-.167-.07-.49-.04-.578.054-.147.155-.194.243-.226.42-.043.235.082.451.332.577.185.093.275.102.433.04zm2.043-.03a.566.566 0 00.31-.526c-.003-.348-.246-.583-.603-.584-.176 0-.227.025-.39.197-.13.138-.187.238-.187.336 0 .217.18.493.374.573.219.091.31.092.496.004z" fill="#aeb9c0" stroke-width=".047"/></svg>