<?xml version="1.0" encoding="UTF-8" standalone="no"?>
<svg
   xmlns:dc="http://purl.org/dc/elements/1.1/"
   xmlns:cc="http://creativecommons.org/ns#"
   xmlns:rdf="http://www.w3.org/1999/02/22-rdf-syntax-ns#"
   xmlns:svg="http://www.w3.org/2000/svg"
   xmlns="http://www.w3.org/2000/svg"
   xmlns:sodipodi="http://sodipodi.sourceforge.net/DTD/sodipodi-0.dtd"
   xmlns:inkscape="http://www.inkscape.org/namespaces/inkscape"
   width="16"
   height="16"
   viewBox="0 0 16 16"
   version="1.1"
   preserveAspectRatio="xMidYMid"
   id="svg10"
   sodipodi:docname="swaggerignore.svg"
   inkscape:version="0.92.4 (5da689c313, 2019-01-14)">
  <metadata
     id="metadata16">
    <rdf:RDF>
      <cc:Work
         rdf:about="">
        <dc:format>image/svg+xml</dc:format>
        <dc:type
           rdf:resource="http://purl.org/dc/dcmitype/StillImage" />
      </cc:Work>
    </rdf:RDF>
  </metadata>
  <defs
     id="defs14" />
  <sodipodi:namedview
     pagecolor="#ffffff"
     bordercolor="#666666"
     borderopacity="1"
     objecttolerance="10"
     gridtolerance="10"
     guidetolerance="10"
     inkscape:pageopacity="0"
     inkscape:pageshadow="2"
     inkscape:window-width="1920"
     inkscape:window-height="1001"
     id="namedview12"
     showgrid="false"
     inkscape:zoom="21.154379"
     inkscape:cx="3.9237714"
     inkscape:cy="7.5200569"
     inkscape:window-x="-9"
     inkscape:window-y="-9"
     inkscape:window-maximized="1"
     inkscape:current-layer="svg10" />
  <g
     id="g8"
     transform="scale(0.06263578)"
     style="fill:#000000;fill-opacity:0">
    <path
       d="M 127.05966,255.99692 C 58.850654,255.52647 -0.45707362,198.91844 0.00265506,126.9983 0.4446494,57.795863 57.95166,-0.46896758 129.11002,0.00284555 198.26713,0.46238608 256.61311,57.866771 255.99514,128.1942 c 0.57295,69.68925 -58.06087,128.29499 -128.93548,127.80272 z m 0,0 C 58.850654,255.52647 -0.45707362,198.91844 0.00265506,126.9983 0.4446494,57.795863 57.95166,-0.46896758 129.11002,0.00284555 198.26713,0.46238608 256.61311,57.866771 255.99514,128.1942 c 0.57295,69.68925 -58.06087,128.29499 -128.93548,127.80272 z"
       id="path2"
       inkscape:connector-curvature="0"
       style="fill:#000000;fill-opacity:0" />
    <path
       d="M 127.18464,238.99733 C 68.032376,238.58927 16.603609,189.49874 17.002303,127.13143 17.386028,67.118595 67.2554,16.591711 128.96312,17.002487 c 59.97142,0.398535 110.56878,50.180037 110.03266,111.166763 0.49666,60.43313 -50.34835,111.25518 -111.81114,110.82808 z m 0,0 C 68.032376,238.58927 16.603609,189.49874 17.002303,127.13143 17.386028,67.118595 67.2554,16.591711 128.96312,17.002487 c 59.97142,0.398535 110.56878,50.180037 110.03266,111.166763 0.49666,60.43313 -50.34835,111.25518 -111.81114,110.82808 z"
       id="path4"
       inkscape:connector-curvature="0"
       style="fill:#000000;fill-opacity:0" />
    <path
       d="m 169.32732,127.95616 c -0.2846,5.29021 -4.90621,9.68306 -9.46111,8.91643 -0.0218,0 -0.0449,0 -0.0681,0 -5.04511,0.007 -9.13975,-4.0783 -9.14519,-9.12341 0.17157,-5.05872 4.36697,-9.04578 9.42706,-8.96 5.04511,0.0245 9.51966,4.288 9.24732,9.16698 z m -81.126129,51.264 c 1.902298,0.0558 3.805958,0.015 5.99966,0.015 v 13.78587 c -13.634723,2.30536 -24.866043,-1.56596 -27.622128,-13.0914 -0.943659,-4.23762 -1.523744,-8.54877 -1.73617,-12.88579 -0.292766,-4.59166 0.213787,-9.23506 -0.13617,-13.81855 C 63.736851,140.61318 62.102809,136.30748 50,135.71105 v -15.69634 c 0.867404,-0.20289 1.747064,-0.35268 2.63217,-0.45208 6.635575,-0.32681 9.432511,-2.36119 10.916766,-8.89736 0.675404,-3.67251 1.075745,-7.38996 1.194213,-11.122386 0.525617,-7.217021 0.339064,-14.551149 1.541447,-21.651064 1.737532,-10.267234 8.111659,-15.255149 18.64034,-15.813447 2.995745,-0.160681 6.001021,-0.02451 9.395745,-0.02451 v 14.090893 c -1.397107,0.09941 -2.677107,0.302298 -3.948936,0.264171 -8.580085,-0.262809 -9.024,2.659404 -9.650383,9.762042 -0.390809,4.454128 0.148425,8.984511 -0.155234,13.453617 -0.317277,4.447324 -0.912341,8.871494 -1.781107,13.245274 -1.237787,6.33873 -5.134978,11.05294 -10.535489,15.05362 10.483745,6.82213 11.676596,17.42298 12.357447,28.18723 0.366298,5.78451 0.198808,11.60988 0.785702,17.36579 0.457532,4.46775 2.195064,5.60749 6.80851,5.74366 z m 8.836086,-60.43098 c 0.05447,0 0.107574,0 0.162042,0 5.012421,0.0831 9.010381,4.21311 8.927321,9.22689 0,0.16477 -0.005,0.32818 -0.015,0.49158 -0.28187,4.8994 -4.48136,8.64136 -9.380766,8.35949 -0.197447,0.004 -0.393532,0 -0.590979,-0.01 -4.989277,-0.24783 -8.833362,-4.49362 -8.585532,-9.4829 0.24783,-4.98927 4.493617,-8.83336 9.482894,-8.58553 z m 31.236083,0 c 5.48221,-0.0422 9.12341,3.51047 9.152,8.93004 0.03,5.56528 -3.42196,9.12613 -8.86876,9.14928 -5.53941,0.0245 -9.18605,-3.47915 -9.216,-8.86604 -0.0163,-0.27506 -0.0204,-0.55013 -0.0123,-0.82519 0.15387,-4.78639 4.15864,-8.54196 8.94502,-8.38809 z m 65.39983,-6.8657 c 1.45838,5.44681 4.29753,7.36136 10.03166,7.62281 0.93958,0.0436 1.87506,0.20289 3.16323,0.34587 v 15.69226 c -0.69719,0.22876 -1.41208,0.40034 -2.13787,0.512 -7.68408,0.47795 -11.18638,3.63029 -11.96255,11.3348 -0.49566,4.91847 -0.45481,9.89141 -0.79523,14.82758 -0.14298,5.41957 -0.63592,10.82417 -1.47609,16.17974 -1.96085,9.70349 -8.01906,14.54434 -18.02894,15.13532 -3.22178,0.19064 -6.46672,0.03 -9.94042,0.03 v -14.02553 c 1.86962,-0.11575 3.52,-0.27507 5.17447,-0.31456 5.98059,-0.14297 8.09532,-2.07114 8.38808,-8.01089 0.32409,-6.52528 0.4657,-13.05872 0.75711,-19.58536 0.42349,-9.43387 3.00664,-17.86145 11.79506,-23.74536 -5.02876,-3.58536 -9.06621,-7.92783 -10.112,-13.78315 -1.26502,-7.09719 -1.67353,-14.35098 -2.35438,-21.547575 -0.33634,-3.597617 -0.32,-7.226554 -0.67132,-10.821447 -0.37855,-3.880851 -3.04477,-5.22349 -6.57702,-5.310638 -2.02349,-0.04902 -4.05515,-0.0095 -6.64238,-0.0095 v -13.696 c 16.50927,-2.741107 27.91353,2.752 28.97293,18.547744 0.44392,6.632851 0.37855,13.297022 0.80341,19.929876 0.18655,3.60851 0.72578,7.18978 1.61225,10.69208 z"
       id="path6"
       inkscape:connector-curvature="0"
       style="fill:#000000;fill-opacity:0" />
  </g>
  <path
     style="fill:#87939a;fill-opacity:1;stroke-width:0.06684492"
     d="M 7.1617647,14.889914 C 4.3629289,14.510055 2.0366259,12.436869 1.302459,9.6681403 1.1263891,9.0041363 1.0650368,7.6979012 1.1770738,6.9985953 1.6257336,4.1981765 3.6682349,1.9809722 6.439373,1.2861912 c 0.8434642,-0.2114738 2.3411959,-0.2109698 3.1872667,0.00107 2.5356293,0.6354791 4.5063213,2.6141718 5.1397243,5.160594 0.192716,0.7747585 0.204599,2.2662947 0.02423,3.0414438 -0.280484,1.205412 -0.842381,2.265021 -1.671397,3.151869 -0.642696,0.68753 -1.137803,1.075143 -1.872602,1.466034 -0.688723,0.366379 -1.369347,0.603018 -2.1049519,0.731845 -0.5169165,0.09053 -1.5013031,0.115819 -1.9798804,0.05086 z m -1.236631,-3.228153 v -0.467914 l -0.2840909,-10e-4 C 5.1743555,11.19114 5.1700873,11.182334 5.0813834,10.037888 4.9931418,8.899407 4.8565646,8.4446918 4.5170467,8.1590066 L 4.3299588,8.0015822 4.5346318,7.8096136 C 4.8994066,7.4674802 4.9946471,7.1441626 5.0566756,6.0374061 5.090232,5.4386695 5.1449521,4.9979336 5.1929066,4.9401519 c 0.044081,-0.053115 0.1792849,-0.096572 0.3004528,-0.096572 0.4041657,0 0.4317743,-0.035268 0.4317743,-0.5515593 V 3.8216091 L 5.4315844,3.8589362 C 4.903002,3.8989128 4.6448993,3.9991179 4.4028154,4.2583427 4.1829012,4.4938281 4.1236739,4.7602183 4.0497703,5.8462533 3.9576792,7.1995574 3.8897471,7.3663396 3.398235,7.4458574 l -0.2471655,0.039987 -0.01938,0.509163 -0.01938,0.5091631 0.2363624,0.044342 c 0.4004041,0.075116 0.5686229,0.2785595 0.6397225,0.7736771 0.034316,0.2389706 0.062998,0.6811734 0.063738,0.9826734 0.00333,1.356704 0.3645192,1.819906 1.4217986,1.823346 l 0.4512032,0.0015 z m 5.5224353,0.296672 c 0.450295,-0.336285 0.537309,-0.602787 0.598849,-1.834105 0.06518,-1.3042104 0.138955,-1.4655741 0.716357,-1.5668969 l 0.253416,-0.04447 -0.01946,-0.514504 -0.01946,-0.5145034 -0.293699,-0.039193 C 12.191095,7.3790416 12.11598,7.1770592 12.023611,5.6701299 11.953235,4.5220126 11.859816,4.2727475 11.414824,4.045729 11.113087,3.8917946 10.619564,3.8122445 10.343064,3.8729741 l -0.2067,0.045399 v 0.4626032 0.4626033 h 0.32604 c 0.205461,0 0.35623,0.036378 0.407674,0.098364 0.0449,0.0541 0.107936,0.4376228 0.140082,0.8522727 0.114676,1.4791944 0.142122,1.589457 0.492055,1.97679 l 0.235453,0.2606189 -0.172131,0.1606565 c -0.384141,0.3585334 -0.558436,1.0590889 -0.559682,2.2495603 -6.02e-4,0.604349 -0.112295,0.752005 -0.568689,0.752005 h -0.300802 v 0.474774 0.474773 l 0.56333,-0.02357 c 0.439651,-0.0184 0.603846,-0.05383 0.747875,-0.161391 z M 6.4963539,8.4228208 C 6.8474586,8.0717165 6.6066394,7.4452483 6.1152126,7.4313184 5.6701209,7.4187018 5.3827355,7.7462687 5.4842043,8.1505527 5.5932314,8.5849511 6.1771498,8.7420253 6.4963539,8.4228208 Z m 1.9480077,0.013673 C 8.7537727,8.0946082 8.6526049,7.58958 8.2479545,7.4560333 7.9895381,7.3707483 7.8331477,7.4076427 7.6129679,7.6058339 7.3996259,7.7978703 7.4063989,8.2025795 7.6266407,8.4228208 7.8468389,8.6430193 8.2513329,8.6497827 8.4443616,8.4364938 Z M 10.440204,8.4228208 C 10.765989,8.0970367 10.60255,7.5415215 10.148517,7.4314019 9.7891083,7.344232 9.4010695,7.6674329 9.4010695,8.0539578 c 0,0.078183 0.087927,0.2300782 0.1953931,0.3375441 0.2553663,0.255367 0.6066544,0.2684065 0.8437414,0.031319 z"
     id="path29"
     inkscape:connector-curvature="0" />
  <path
     style="fill:#b6b6b6;fill-opacity:1;stroke-width:0.04727154"
     d="M 6.7127922,14.789145 C 4.124247,14.246709 2.0343963,12.275412 1.3460818,9.7268788 1.1778654,9.1040456 1.0983891,8.0166357 1.1697798,7.3146808 1.4749142,4.3144236 3.8133018,1.7835818 6.7809384,1.241712 7.3593539,1.1360973 8.7033082,1.1363959 9.2898251,1.2422693 c 1.3269899,0.2395378 2.5623139,0.9081559 3.5921859,1.9442671 0.805067,0.8099442 1.314465,1.613107 1.671092,2.6347921 0.234954,0.6731079 0.293655,1.0345442 0.321237,1.9779045 0.02962,1.0131184 -0.03342,1.5526478 -0.26514,2.269034 -0.785917,2.42978 -3.048882,4.379054 -5.5153523,4.750817 -0.6811942,0.102673 -1.8163299,0.0884 -2.3810555,-0.02994 z M 5.9462833,11.663681 5.9328118,11.179148 5.6964542,11.166795 C 5.3000914,11.14608 5.2552293,11.124514 5.2049141,10.930497 5.1796975,10.833261 5.1346248,10.466529 5.1047525,10.115538 5.005154,8.9452794 4.8622041,8.4520198 4.5376881,8.1588389 L 4.3592909,7.997668 4.5473448,7.8157251 C 4.9153423,7.4596867 4.9740678,7.2577829 5.0813112,5.9798966 5.1703082,4.9194311 5.1905906,4.8683977 5.5230585,4.8683977 c 0.3613747,0 0.4016056,-0.055435 0.4247805,-0.5853074 L 5.9677247,3.8284238 H 5.6871388 c -0.6100809,0 -1.1106305,0.1708602 -1.3345656,0.4555475 C 4.1924689,4.487511 4.1197101,4.8275035 4.0420023,5.7352294 3.9098677,7.2787303 3.8802588,7.3469049 3.3004338,7.4426978 l -0.174258,0.028789 -0.014828,0.5065921 c -0.00816,0.2786255 0.00406,0.520296 0.027144,0.5370458 0.023085,0.01675 0.126959,0.044044 0.2308317,0.060654 0.2359054,0.037723 0.4768867,0.2674916 0.5512909,0.5256396 0.029623,0.1027778 0.074301,0.5697676 0.099284,1.0377557 0.05007,0.937908 0.1186524,1.27527 0.3160304,1.554586 0.228068,0.322747 0.5484097,0.441924 1.2085462,0.449616 l 0.4152798,0.0048 z m 5.1299607,0.441536 c 0.444244,-0.07306 0.779862,-0.425412 0.882079,-0.926069 0.02654,-0.129997 0.07816,-0.640529 0.114711,-1.134517 0.09158,-1.2378005 0.14636,-1.3539344 0.690515,-1.4639811 0.294855,-0.05963 0.266854,0.026218 0.245812,-0.753626 l -0.0095,-0.3503814 -0.200904,-0.030674 C 12.220222,7.3576 12.154972,7.2164132 12.055635,5.8374642 11.96127,4.5275471 11.873627,4.2740186 11.43904,4.0538122 11.102894,3.883486 10.711811,3.8080995 10.379649,3.8496004 l -0.263306,0.032898 V 4.375448 4.8683977 h 0.279763 c 0.345511,0 0.424649,0.028859 0.480264,0.1751373 0.02404,0.063234 0.08631,0.5336395 0.138382,1.0453447 0.115486,1.1349499 0.167777,1.3286881 0.446868,1.6556506 0.118076,0.1383298 0.214684,0.2631475 0.214684,0.2773729 0,0.014225 -0.07594,0.1099224 -0.168758,0.2126595 -0.32856,0.3636765 -0.430535,0.7434437 -0.512393,1.9082173 -0.07027,0.999857 -0.0776,1.012732 -0.576782,1.012732 h -0.302028 v 0.496351 0.496351 l 0.366354,-0.0028 c 0.201495,-0.0016 0.468591,-0.01963 0.593547,-0.04018 z M 6.3834386,8.5311415 C 6.553958,8.4429626 6.6655207,8.2376259 6.6655207,8.0119549 c 0,-0.3509392 -0.2399551,-0.5908942 -0.5908942,-0.5908942 -0.2264009,0 -0.4326174,0.1125488 -0.5455365,0.2977421 C 5.2169339,8.2307559 5.8324931,8.816047 6.3834386,8.5311415 Z M 8.438374,8.4608742 C 8.586461,8.3217536 8.6682611,8.0719136 8.6309105,7.8728158 8.5428913,7.4036345 7.9043606,7.241981 7.5943586,7.6103974 7.3549165,7.8949583 7.4049468,8.2949719 7.7054945,8.4989727 7.9183719,8.6434662 8.2630883,8.6255465 8.438374,8.4608742 Z m 1.905353,0.04622 C 10.673745,8.3058876 10.712081,7.86553 10.424607,7.5780553 10.286913,7.4403618 10.237288,7.4210604 10.020965,7.4210604 c -0.223479,0 -0.2638834,0.017238 -0.4301705,0.1835246 -0.1503637,0.1503637 -0.1835247,0.2167953 -0.1835247,0.3676544 0,0.4726842 0.536159,0.7789097 0.9364572,0.5348548 z"
     id="path22"
     inkscape:connector-curvature="0" />
  <path
     style="fill:#aeb9c0;fill-opacity:1;stroke-width:0.04727153"
     d="m 7.5386324,14.892247 c 0.024281,-0.03929 -0.044421,-0.05421 -0.2423441,-0.05266 -0.1519274,0.0012 -0.3400478,-0.0086 -0.4180459,-0.02175 -0.077998,-0.01315 -0.1949951,-0.03244 -0.2599934,-0.04287 -0.064998,-0.01042 -0.128815,-0.02396 -0.1418146,-0.03009 -0.013,-0.0061 -0.044908,-0.01522 -0.070907,-0.0202 -0.025999,-0.005 -0.1075551,-0.03381 -0.1812353,-0.06405 -0.07368,-0.03024 -0.1534505,-0.04294 -0.1772683,-0.02822 -0.023817,0.01472 -0.043304,0.002 -0.043304,-0.02835 0,-0.03032 -0.031908,-0.04288 -0.070907,-0.02791 -0.038999,0.01497 -0.070907,0.0083 -0.070907,-0.01482 0,-0.0406 -0.27057,-0.124146 -0.3427186,-0.105821 -0.0195,0.005 -0.035454,-0.01 -0.035454,-0.03314 0,-0.04111 -0.2248422,-0.122865 -0.2954471,-0.107422 -0.019499,0.0043 -0.035454,-0.01477 -0.035454,-0.04231 0,-0.02753 -0.021272,-0.03692 -0.047271,-0.02085 -0.025999,0.01607 -0.047271,0.0054 -0.047271,-0.02364 0,-0.02907 -0.021272,-0.0397 -0.047272,-0.02364 -0.025999,0.01607 -0.047271,0.0054 -0.047271,-0.02364 0,-0.02907 -0.021272,-0.0397 -0.047271,-0.02364 -0.025999,0.01607 -0.047272,0.0054 -0.047272,-0.02364 0,-0.02907 -0.021272,-0.0397 -0.047271,-0.02364 -0.025999,0.01607 -0.047271,0.01127 -0.047271,-0.01065 0,-0.05155 -0.2831659,-0.219704 -0.2850667,-0.169287 -7.904e-4,0.02097 -0.02337,4.73e-4 -0.050177,-0.04559 -0.026807,-0.04605 -0.066475,-0.07276 -0.088152,-0.05936 -0.021677,0.0134 -0.052128,-0.0088 -0.067668,-0.04927 -0.01554,-0.0405 -0.047449,-0.06177 -0.070907,-0.04727 -0.023459,0.0145 -0.056018,-0.0085 -0.072354,-0.05104 -0.016336,-0.04257 -0.042478,-0.06463 -0.058093,-0.04901 -0.015615,0.01562 -0.067587,-0.01857 -0.1154935,-0.07596 -0.047906,-0.05739 -0.08781,-0.08553 -0.088675,-0.06252 -8.65e-4,0.02301 -0.04534,-0.01381 -0.098834,-0.08182 -0.053494,-0.06801 -0.1119922,-0.120488 -0.1299967,-0.116626 -0.044023,0.0094 -0.9072588,-0.857533 -0.9072588,-0.911189 0,-0.02325 -0.042544,-0.06884 -0.094543,-0.101317 -0.051999,-0.03247 -0.094543,-0.08478 -0.094543,-0.116231 0,-0.03145 -0.026625,-0.0742 -0.059166,-0.09499 -0.032542,-0.02079 -0.089125,-0.09594 -0.1257397,-0.167001 -0.036615,-0.07106 -0.1057152,-0.171213 -0.1535554,-0.222564 -0.04784,-0.05135 -0.086982,-0.115526 -0.086982,-0.142612 0,-0.02709 -0.022528,-0.04925 -0.050061,-0.04925 -0.027534,0 -0.038037,-0.01946 -0.023341,-0.04323 0.014696,-0.02378 0.010633,-0.05037 -0.00903,-0.05909 -0.045241,-0.02006 -0.3636099,-0.665418 -0.3517957,-0.71311 0.00483,-0.0195 -0.00796,-0.03545 -0.02843,-0.03545 -0.020466,0 -0.040673,-0.04595 -0.044903,-0.102107 -0.00423,-0.05616 -0.035347,-0.11965 -0.069149,-0.141091 -0.033802,-0.02144 -0.042899,-0.03931 -0.020216,-0.03971 0.022683,-3.98e-4 0.01476,-0.03263 -0.017606,-0.07163 -0.032366,-0.039 -0.043002,-0.07091 -0.023636,-0.07091 0.019367,0 0.00873,-0.03191 -0.023636,-0.07091 -0.032366,-0.039 -0.043002,-0.07091 -0.023636,-0.07091 0.019367,0 0.00873,-0.03191 -0.023636,-0.070908 -0.032366,-0.038999 -0.043002,-0.070907 -0.023636,-0.070907 0.019367,0 0.01152,-0.028547 -0.017437,-0.063439 C 1.3483516,9.828094 1.3372406,9.786964 1.3526186,9.771587 1.3679966,9.75621 1.3635006,9.715996 1.3426286,9.682224 1.321754,9.6484808 1.2986888,9.5779309 1.2913702,9.5254751 1.2840516,9.4730193 1.2680282,9.3662844 1.2557627,9.2882864 1.195465,8.9048461 1.1797354,8.6605265 1.1694959,7.9483477 c -0.00611,-0.4249739 0.00623,-0.7833929 0.027415,-0.7964861 0.021189,-0.013093 0.03409,-0.080195 0.02867,-0.1491148 -0.00542,-0.06892 0.00489,-0.1593613 0.022916,-0.2009811 0.018024,-0.04162 0.028336,-0.0948 0.022915,-0.1181788 -0.00542,-0.023379 0.003,-0.074415 0.018708,-0.1134139 0.063963,-0.1587855 0.1231468,-0.4427466 0.1000629,-0.4800968 -0.013559,-0.02194 1.502e-4,-0.03989 0.030466,-0.03989 0.030315,0 0.043136,-0.031227 0.02849,-0.069393 -0.014646,-0.038166 -0.00594,-0.082181 0.019349,-0.09781 0.025288,-0.015629 0.03374,-0.048218 0.018781,-0.072421 -0.014958,-0.024203 -0.00239,-0.044005 0.027922,-0.044005 0.030315,0 0.043402,-0.030534 0.029081,-0.067853 -0.014321,-0.037319 -0.00791,-0.074546 0.014248,-0.082725 0.022157,-0.00818 0.047552,-0.057416 0.056434,-0.109415 0.00888,-0.051999 0.027219,-0.1051792 0.040751,-0.1181789 0.034951,-0.033576 0.3819876,-0.7490107 0.3782943,-0.7798731 -0.00168,-0.014069 0.039191,-0.070932 0.090833,-0.1263635 0.051642,-0.055431 0.084116,-0.1166053 0.072165,-0.1359428 -0.011951,-0.019338 0.011405,-0.047874 0.051902,-0.063415 0.040498,-0.01554 0.06177,-0.047449 0.047272,-0.070907 -0.014498,-0.023459 0.00847,-0.056018 0.051041,-0.072354 0.042571,-0.016336 0.064626,-0.042478 0.04901,-0.058093 -0.015615,-0.015615 0.018566,-0.067587 0.075959,-0.1154935 0.057393,-0.047906 0.085528,-0.08781 0.062522,-0.088675 -0.023006,-8.651e-4 0.014423,-0.04582 0.083176,-0.099901 C 2.6866319,3.7232865 2.7372883,3.664788 2.7304493,3.6473704 2.7157752,3.609998 3.632755,2.702277 3.6588358,2.7283578 c 0.00979,0.00979 0.062769,-0.03937 0.1177318,-0.1092436 0.054963,-0.069874 0.10064,-0.1082204 0.1015049,-0.085215 8.651e-4,0.023006 0.040769,-0.00513 0.088675,-0.062522 0.047906,-0.057393 0.099878,-0.091575 0.1154935,-0.075959 0.015615,0.015615 0.041757,-0.00644 0.058093,-0.04901 0.016336,-0.042571 0.048895,-0.065539 0.072354,-0.051041 0.023459,0.014498 0.055367,-0.00677 0.070907,-0.047272 0.01554,-0.040498 0.044077,-0.063854 0.063414,-0.051902 0.019337,0.011951 0.080512,-0.020523 0.1359428,-0.072165 0.055431,-0.051642 0.1119405,-0.093237 0.1255766,-0.092434 0.013636,8.031e-4 0.1789089,-0.077409 0.3672728,-0.1738052 0.188364,-0.096396 0.3584341,-0.1710618 0.3779336,-0.1659245 0.0195,0.00514 0.035454,-0.0074 0.035454,-0.027871 0,-0.020466 0.045948,-0.040673 0.1021076,-0.044903 0.056159,-0.00423 0.117036,-0.031846 0.1352819,-0.061369 0.018246,-0.029522 0.04675,-0.05186 0.063343,-0.04964 0.016593,0.00222 0.040805,0.00138 0.053804,-0.00187 l 0.070907,-0.017727 c 0.025999,-0.0065 0.052589,-0.016226 0.059089,-0.021614 0.0065,-0.00539 0.071133,-0.01952 0.1436303,-0.031405 0.072497,-0.011885 0.1894941,-0.045479 0.2599934,-0.074654 0.070499,-0.029175 0.147309,-0.048552 0.1706876,-0.04306 0.023379,0.00549 0.076559,-0.00445 0.1181789,-0.022081 0.3652979,-0.154793 2.5497151,-0.1576212 2.9356002,-0.0038 0.038999,0.015546 0.1347239,0.037804 0.2127219,0.049463 0.077998,0.011659 0.1524507,0.026188 0.1654504,0.032286 0.013,0.0061 0.044908,0.016029 0.070907,0.02207 0.025999,0.00604 0.063226,0.016096 0.082725,0.022345 0.0195,0.00625 0.05141,0.015803 0.07091,0.021232 0.0195,0.00543 0.09927,0.03679 0.177268,0.069692 0.078,0.032902 0.163087,0.064051 0.189086,0.06922 0.026,0.00517 0.09234,0.034216 0.147417,0.06455 0.05508,0.030334 0.113579,0.04172 0.129997,0.025302 0.01642,-0.016418 0.02985,-0.00378 0.02985,0.028089 0,0.031867 0.02127,0.044793 0.04727,0.028725 0.026,-0.016069 0.04727,-0.00543 0.04727,0.023636 0,0.029068 0.02127,0.039704 0.04727,0.023636 0.026,-0.016068 0.04727,-0.00543 0.04727,0.023636 0,0.029068 0.02127,0.039704 0.04727,0.023636 0.026,-0.016069 0.04727,-0.00543 0.04727,0.023636 0,0.029068 0.02127,0.039704 0.04727,0.023636 0.026,-0.016069 0.04727,-0.00543 0.04727,0.023636 0,0.029068 0.02127,0.039704 0.04727,0.023636 0.026,-0.016069 0.04727,-0.00314 0.04727,0.028725 0,0.031867 0.01243,0.045506 0.02763,0.030309 0.0152,-0.015197 0.06907,0.00785 0.119711,0.051211 0.05064,0.043363 0.104967,0.071707 0.120716,0.062986 0.01575,-0.00872 0.04165,0.00279 0.05756,0.025574 0.01591,0.022786 0.231007,0.1927116 0.478001,0.3776117 0.529361,0.3962815 1.687279,1.5731771 1.616976,1.6434793 -0.0128,0.012802 0.01155,0.036642 0.05413,0.052978 0.04257,0.016336 0.06554,0.048895 0.05104,0.072354 -0.0145,0.023459 0.0068,0.055367 0.04727,0.070907 0.0405,0.01554 0.06385,0.044077 0.0519,0.063414 -0.01195,0.019337 0.01595,0.075607 0.06201,0.1250433 0.04606,0.049436 0.09069,0.1111564 0.09918,0.1371557 0.02618,0.080162 0.308734,0.660371 0.3338,0.6854373 0.013,0.013 0.03108,0.06618 0.04018,0.1181789 0.0091,0.051999 0.04101,0.1101714 0.07091,0.1292728 0.0299,0.019101 0.03935,0.035056 0.02101,0.035454 -0.0292,6.339e-4 0.04788,0.2681569 0.136422,0.4734393 0.01682,0.038999 0.03242,0.085089 0.03467,0.1024218 0.0022,0.017333 0.01857,0.046003 0.03628,0.063711 0.01771,0.017708 0.02158,0.059874 0.0086,0.093701 -0.01298,0.033827 -0.0029,0.074313 0.02246,0.089969 0.02533,0.015655 0.03556,0.068587 0.02274,0.1176253 -0.01282,0.049039 -9.5e-5,0.1035015 0.02825,0.1210289 0.02855,0.017647 0.03866,0.083265 0.02266,0.1470438 -0.0159,0.063347 -0.01396,0.1524497 0.0043,0.1980067 0.04085,0.1018848 0.04101,1.9015727 1.89e-4,2.1627787 -0.01625,0.1039974 -0.03445,0.2213684 -0.04044,0.2608245 -0.006,0.039456 -0.02797,0.09937 -0.04884,0.1331417 -0.02087,0.033772 -0.02537,0.073985 -0.01,0.089363 0.01538,0.015377 0.0038,0.057021 -0.02564,0.092541 -0.02948,0.035519 -0.04012,0.078064 -0.02364,0.094543 0.01648,0.016479 0.0063,0.058509 -0.02269,0.0934 -0.02895,0.034892 -0.03679,0.063439 -0.01743,0.063439 0.01937,0 0.0087,0.03191 -0.02364,0.07091 -0.03237,0.039 -0.043,0.07091 -0.02364,0.07091 0.01937,0 0.0087,0.03191 -0.02364,0.07091 -0.03237,0.039 -0.04029,0.07123 -0.01761,0.07163 0.02268,3.78e-4 0.01359,0.01827 -0.02022,0.03971 -0.0338,0.02144 -0.06492,0.08493 -0.06915,0.141091 -0.0042,0.05616 -0.02213,0.102108 -0.03978,0.102108 -0.03361,0 -0.110769,0.23415 -0.09736,0.295447 0.0043,0.0195 -0.01477,0.03545 -0.04231,0.03545 -0.02753,0 -0.03691,0.02127 -0.02085,0.04727 0.01607,0.026 0.0054,0.04727 -0.02364,0.04727 -0.02907,0 -0.0397,0.02127 -0.02364,0.04727 0.01607,0.026 0.0054,0.04727 -0.02364,0.04727 -0.02907,0 -0.0397,0.02127 -0.02364,0.04727 0.01607,0.026 0.01127,0.04727 -0.01065,0.04727 -0.02193,0 -0.07757,0.06382 -0.123641,0.141814 -0.04608,0.078 -0.06787,0.141815 -0.04843,0.141815 0.01944,0 -0.0059,0.03123 -0.05642,0.0694 -0.05047,0.03817 -0.07682,0.07008 -0.05856,0.07091 0.01826,8.27e-4 -0.01918,0.05802 -0.08319,0.127092 -0.06401,0.06907 -0.106448,0.13553 -0.0943,0.147683 0.01215,0.01215 -0.02486,0.06129 -0.08225,0.109196 -0.05739,0.04791 -0.08553,0.08781 -0.06252,0.08868 0.02301,8.65e-4 -0.01534,0.04654 -0.08521,0.101505 -0.06987,0.05496 -0.117962,0.109014 -0.106862,0.120114 0.03919,0.03919 -1.036008,1.038799 -1.362442,1.266653 -0.181995,0.127034 -0.357491,0.263369 -0.38999,0.302966 -0.0325,0.0396 -0.05909,0.05609 -0.05909,0.03665 0,-0.01944 -0.06382,0.0024 -0.141815,0.04843 -0.078,0.04608 -0.141814,0.101713 -0.141814,0.123641 0,0.02193 -0.02127,0.02672 -0.04727,0.01065 -0.026,-0.01607 -0.04727,-0.0054 -0.04727,0.02364 0,0.02907 -0.02127,0.0397 -0.04727,0.02364 -0.026,-0.01607 -0.04727,-0.0054 -0.04727,0.02364 0,0.02907 -0.02127,0.0397 -0.04727,0.02364 -0.026,-0.01607 -0.04727,-0.0054 -0.04727,0.02364 0,0.02907 -0.02127,0.0397 -0.04727,0.02364 -0.026,-0.01607 -0.04727,-0.0031 -0.04727,0.02872 0,0.03187 -0.01343,0.04451 -0.02985,0.02809 -0.01642,-0.01642 -0.07492,-0.0048 -0.129996,0.0258 -0.05508,0.03061 -0.1161,0.05113 -0.1356,0.04561 -0.0195,-0.0055 -0.03545,0.01123 -0.03545,0.03723 0,0.026 -0.01595,0.04475 -0.03545,0.04167 -0.0195,-0.0031 -0.05141,-4.26e-4 -0.07091,0.0059 -0.0195,0.0063 -0.05141,0.01507 -0.07091,0.01943 -0.05102,0.0114 -0.4008052,0.124337 -0.484533,0.156438 -0.2126553,0.08153 -0.5863051,0.159794 -0.7492633,0.15694 -0.061104,-0.0011 -0.1344587,0.01249 -0.1630112,0.03014 -0.028552,0.01765 -0.1700083,0.0376 -0.3143462,0.04435 -0.144338,0.0067 -0.4618245,0.02637 -0.7055258,0.04361 -0.3307235,0.02339 -0.4344992,0.01744 -0.4092061,-0.02349 z M 5.9179481,11.679962 c -0.014326,-0.451513 -0.019028,-0.469503 -0.1299967,-0.497355 -0.063323,-0.01589 -0.1683136,-0.01555 -0.233312,7.66e-4 -0.067045,0.01683 -0.1181788,0.0092 -0.1181788,-0.01761 0,-0.026 -0.053056,-0.06059 -0.1179019,-0.07686 -0.064846,-0.01628 -0.1155073,-0.04517 -0.1125809,-0.06421 0.00293,-0.01904 1.419e-4,-0.05058 -0.00619,-0.07008 -0.00633,-0.0195 -0.017625,-0.09395 -0.025102,-0.16545 -0.00748,-0.0715 -0.024802,-0.236358 -0.0385,-0.366355 C 5.1224918,10.292807 5.099409,10.069449 5.0848947,9.9264521 4.9906654,8.9980973 4.8276632,8.4822996 4.5281856,8.1648235 L 4.3602464,7.9867908 4.5556349,7.7866512 C 4.8781207,7.4563229 4.9172892,7.337529 5.0502479,6.2865438 5.0749165,6.0915487 5.096916,5.8788268 5.0991357,5.8138284 5.1085046,5.539488 5.1445533,5.2390909 5.171318,5.2123261 5.18715,5.1964941 5.200103,5.1450331 5.200103,5.0979665 5.200103,4.9847413 5.3712134,4.8775269 5.5870698,4.8555008 5.8796507,4.8256458 5.909176,4.7717798 5.909176,4.2678501 V 3.8206934 l -0.3663544,0.02418 C 4.8282094,3.8920392 4.3861979,4.1264923 4.237027,4.537497 4.1644801,4.7373828 4.0882975,5.2194196 4.0353116,5.8138284 c -0.02182,0.2447768 -0.054296,0.5787058 -0.083107,0.8545101 -0.007,0.06699 -0.028779,0.1477798 -0.048403,0.1795316 -0.019624,0.031752 -0.023826,0.088621 -0.00934,0.1263748 0.014488,0.037754 0.00574,0.068643 -0.019447,0.068643 -0.025183,0 -0.045788,0.0282 -0.045788,0.062667 0,0.079065 -0.2117565,0.2806993 -0.3200996,0.3047984 -0.04494,0.01 -0.1303513,0.021812 -0.1898036,0.026258 -0.1653178,0.012363 -0.1976603,0.1110116 -0.198446,0.6052828 -6.84e-4,0.430396 0.00511,0.4573563 0.1056371,0.4913257 0.1452513,0.049083 0.2378516,0.070623 0.2962627,0.068912 0.037915,-0.00111 0.2851253,0.2942332 0.3567064,0.42616 0.035267,0.064998 0.058223,0.1469592 0.051014,0.1821354 -0.00721,0.035176 0.00166,0.098993 0.019714,0.1418146 0.018052,0.042822 0.039521,0.1948551 0.04771,0.3378515 0.090201,1.5751297 0.1484633,1.8218347 0.5129939,2.1722227 0.1368952,0.131583 0.2314993,0.174185 0.4885664,0.220007 0.1753388,0.03125 0.4570672,0.05891 0.6260629,0.06146 l 0.307265,0.0046 -0.014864,-0.468458 z m 5.3565469,0.353211 c 0.314547,-0.131518 0.60317,-0.478849 0.665157,-0.800457 0.03301,-0.171285 0.132225,-1.079313 0.147887,-1.3535354 0.02523,-0.441762 0.04613,-0.6149346 0.07805,-0.6468609 0.01688,-0.016884 0.0307,-0.072118 0.0307,-0.1227438 0,-0.1212312 0.193152,-0.4625227 0.243982,-0.4311075 0.02181,0.013477 0.03965,0.00264 0.03965,-0.024074 0,-0.026718 0.02976,-0.037159 0.06612,-0.023203 0.03637,0.013956 0.08038,0.00231 0.09781,-0.025891 0.01743,-0.028196 0.04989,-0.040012 0.07215,-0.026258 0.02225,0.013754 0.09283,0.00115 0.156835,-0.028015 0.08206,-0.037389 0.12465,-0.1037729 0.144447,-0.2251406 0.03526,-0.2162011 -0.01675,-0.8043134 -0.07428,-0.8398692 -0.04004,-0.024744 -0.103169,-0.038376 -0.344909,-0.074475 -0.052,-0.00776 -0.13578,-0.051344 -0.186181,-0.096843 -0.0504,-0.045499 -0.110156,-0.082725 -0.132787,-0.082725 -0.02263,0 -0.028,-0.021272 -0.01193,-0.047271 0.01607,-0.025999 0.0054,-0.047271 -0.02364,-0.047271 -0.02907,0 -0.04061,-0.019803 -0.02566,-0.044005 0.01496,-0.024203 0.0052,-0.057581 -0.02162,-0.074174 -0.02685,-0.016593 -0.03594,-0.050989 -0.02022,-0.076438 0.01573,-0.025448 0.01305,-0.082476 -0.006,-0.1267302 -0.01901,-0.044254 -0.04095,-0.1549141 -0.04875,-0.2459118 -0.0078,-0.090998 -0.0274,-0.3143557 -0.04354,-0.4963511 C 12.061685,5.8918265 12.043,5.6578324 12.036301,5.553835 12.008743,5.1260327 11.89753,4.5878473 11.801197,4.4161099 11.674655,4.1905188 11.455635,4.0384542 11.114361,3.9392433 10.812522,3.8514963 10.271846,3.8153026 10.231762,3.8801606 c -0.01507,0.024392 -0.04721,0.03211 -0.07141,0.017152 -0.02604,-0.016093 -0.04401,0.1658048 -0.04401,0.4455187 0,0.2599934 0.01595,0.4824135 0.03545,0.4942668 0.0195,0.011853 0.163002,0.029063 0.318894,0.038244 0.267964,0.015781 0.461697,0.1076161 0.413946,0.1962239 -0.01118,0.020745 -0.0048,0.073925 0.01428,0.1181789 0.01904,0.044254 0.03,0.1384789 0.02437,0.2093891 -0.0056,0.07091 0.0064,0.1559021 0.02681,0.1888709 0.02037,0.032969 0.04049,0.1451288 0.04471,0.2492448 0.0174,0.4298893 0.156476,1.3363905 0.233492,1.5218523 0.03443,0.08292 0.147555,0.265754 0.251381,0.4062984 l 0.188776,0.2555357 -0.175652,0.2320763 c -0.155406,0.2053268 -0.234955,0.3410363 -0.26741,0.4561983 -0.0055,0.0195 -0.01531,0.04609 -0.02181,0.059089 -0.0158,0.031602 -0.0208,0.052757 -0.08379,0.3545365 -0.09088,0.4354072 -0.163087,1.1915968 -0.132221,1.3846208 0.01694,0.105903 0.01102,0.171093 -0.01411,0.155562 -0.03669,-0.02268 -0.06372,0.07233 -0.108602,0.381799 -0.01081,0.07453 -0.252137,0.126645 -0.523989,0.11315 l -0.224539,-0.01115 v 0.503266 0.503266 l 0.484533,-0.02056 c 0.303011,-0.01286 0.555371,-0.05018 0.673619,-0.09962 z M 6.3923738,8.5178383 C 6.5315412,8.4600252 6.6656406,8.2028638 6.6653437,7.9943642 6.664871,7.6633817 6.3233639,7.3907473 5.9747274,7.4430287 5.5390231,7.5083665 5.3197558,7.976773 5.567833,8.3122506 5.766652,8.5811151 6.0624903,8.6548785 6.3923738,8.5178383 Z m 1.8418479,0.042736 C 8.4610797,8.4729412 8.5623335,8.3354581 8.5989977,8.0652753 8.6301998,7.8353475 8.6217207,7.7890521 8.5260058,7.6667512 8.4664436,7.590645 8.3527854,7.5014828 8.2734321,7.4686135 8.1062511,7.3993649 7.7829936,7.4297213 7.6949717,7.5229351 7.548142,7.6784268 7.5011976,7.7657203 7.4686294,7.9438215 c -0.042784,0.2339648 0.082109,0.4505034 0.3323501,0.5762291 0.1854463,0.093171 0.2752149,0.1015677 0.4332422,0.040524 z M 10.276726,8.5311779 C 10.469464,8.4397179 10.589517,8.236246 10.587383,8.0046614 10.584178,7.6567443 10.341446,7.4219206 9.9844523,7.4213722 9.8078401,7.4210886 9.7574846,7.4464691 9.5944621,7.6178412 9.4631285,7.755902 9.4072696,7.8562491 9.4072696,7.9541234 c 0,0.2172009 0.179613,0.4926119 0.3739117,0.5733408 0.2186446,0.090845 0.3104797,0.091533 0.4955447,0.00372 z"
     id="path23"
     inkscape:connector-curvature="0" />
</svg>
