<?xml version="1.0" encoding="UTF-8" standalone="no"?>
<svg
   xmlns:dc="http://purl.org/dc/elements/1.1/"
   xmlns:cc="http://creativecommons.org/ns#"
   xmlns:rdf="http://www.w3.org/1999/02/22-rdf-syntax-ns#"
   xmlns:svg="http://www.w3.org/2000/svg"
   xmlns="http://www.w3.org/2000/svg"
   xmlns:sodipodi="http://sodipodi.sourceforge.net/DTD/sodipodi-0.dtd"
   xmlns:inkscape="http://www.inkscape.org/namespaces/inkscape"
   width="16"
   height="16"
   viewBox="0 0 16 16"
   version="1.1"
   preserveAspectRatio="xMidYMid"
   id="svg10"
   sodipodi:docname="swaggerignore_dark.svg"
   inkscape:version="0.92.4 (5da689c313, 2019-01-14)">
  <metadata
     id="metadata16">
    <rdf:RDF>
      <cc:Work
         rdf:about="">
        <dc:format>image/svg+xml</dc:format>
        <dc:type
           rdf:resource="http://purl.org/dc/dcmitype/StillImage" />
      </cc:Work>
    </rdf:RDF>
  </metadata>
  <defs
     id="defs14" />
  <sodipodi:namedview
     pagecolor="#ffffff"
     bordercolor="#666666"
     borderopacity="1"
     objecttolerance="10"
     gridtolerance="10"
     guidetolerance="10"
     inkscape:pageopacity="0"
     inkscape:pageshadow="2"
     inkscape:window-width="1920"
     inkscape:window-height="1001"
     id="namedview12"
     showgrid="false"
     inkscape:zoom="21.154379"
     inkscape:cx="11.818118"
     inkscape:cy="7.5200569"
     inkscape:window-x="-9"
     inkscape:window-y="-9"
     inkscape:window-maximized="1"
     inkscape:current-layer="svg10" />
  <g
     id="g8"
     transform="scale(0.06263578)"
     style="fill:#000000;fill-opacity:0">
    <path
       d="M 127.05966,255.99692 C 58.850654,255.52647 -0.45707362,198.91844 0.00265506,126.9983 0.4446494,57.795863 57.95166,-0.46896758 129.11002,0.00284555 198.26713,0.46238608 256.61311,57.866771 255.99514,128.1942 c 0.57295,69.68925 -58.06087,128.29499 -128.93548,127.80272 z m 0,0 C 58.850654,255.52647 -0.45707362,198.91844 0.00265506,126.9983 0.4446494,57.795863 57.95166,-0.46896758 129.11002,0.00284555 198.26713,0.46238608 256.61311,57.866771 255.99514,128.1942 c 0.57295,69.68925 -58.06087,128.29499 -128.93548,127.80272 z"
       id="path2"
       inkscape:connector-curvature="0"
       style="fill:#000000;fill-opacity:0" />
    <path
       d="M 127.18464,238.99733 C 68.032376,238.58927 16.603609,189.49874 17.002303,127.13143 17.386028,67.118595 67.2554,16.591711 128.96312,17.002487 c 59.97142,0.398535 110.56878,50.180037 110.03266,111.166763 0.49666,60.43313 -50.34835,111.25518 -111.81114,110.82808 z m 0,0 C 68.032376,238.58927 16.603609,189.49874 17.002303,127.13143 17.386028,67.118595 67.2554,16.591711 128.96312,17.002487 c 59.97142,0.398535 110.56878,50.180037 110.03266,111.166763 0.49666,60.43313 -50.34835,111.25518 -111.81114,110.82808 z"
       id="path4"
       inkscape:connector-curvature="0"
       style="fill:#000000;fill-opacity:0" />
    <path
       d="m 169.32732,127.95616 c -0.2846,5.29021 -4.90621,9.68306 -9.46111,8.91643 -0.0218,0 -0.0449,0 -0.0681,0 -5.04511,0.007 -9.13975,-4.0783 -9.14519,-9.12341 0.17157,-5.05872 4.36697,-9.04578 9.42706,-8.96 5.04511,0.0245 9.51966,4.288 9.24732,9.16698 z m -81.126129,51.264 c 1.902298,0.0558 3.805958,0.015 5.99966,0.015 v 13.78587 c -13.634723,2.30536 -24.866043,-1.56596 -27.622128,-13.0914 -0.943659,-4.23762 -1.523744,-8.54877 -1.73617,-12.88579 -0.292766,-4.59166 0.213787,-9.23506 -0.13617,-13.81855 C 63.736851,140.61318 62.102809,136.30748 50,135.71105 v -15.69634 c 0.867404,-0.20289 1.747064,-0.35268 2.63217,-0.45208 6.635575,-0.32681 9.432511,-2.36119 10.916766,-8.89736 0.675404,-3.67251 1.075745,-7.38996 1.194213,-11.122386 0.525617,-7.217021 0.339064,-14.551149 1.541447,-21.651064 1.737532,-10.267234 8.111659,-15.255149 18.64034,-15.813447 2.995745,-0.160681 6.001021,-0.02451 9.395745,-0.02451 v 14.090893 c -1.397107,0.09941 -2.677107,0.302298 -3.948936,0.264171 -8.580085,-0.262809 -9.024,2.659404 -9.650383,9.762042 -0.390809,4.454128 0.148425,8.984511 -0.155234,13.453617 -0.317277,4.447324 -0.912341,8.871494 -1.781107,13.245274 -1.237787,6.33873 -5.134978,11.05294 -10.535489,15.05362 10.483745,6.82213 11.676596,17.42298 12.357447,28.18723 0.366298,5.78451 0.198808,11.60988 0.785702,17.36579 0.457532,4.46775 2.195064,5.60749 6.80851,5.74366 z m 8.836086,-60.43098 c 0.05447,0 0.107574,0 0.162042,0 5.012421,0.0831 9.010381,4.21311 8.927321,9.22689 0,0.16477 -0.005,0.32818 -0.015,0.49158 -0.28187,4.8994 -4.48136,8.64136 -9.380766,8.35949 -0.197447,0.004 -0.393532,0 -0.590979,-0.01 -4.989277,-0.24783 -8.833362,-4.49362 -8.585532,-9.4829 0.24783,-4.98927 4.493617,-8.83336 9.482894,-8.58553 z m 31.236083,0 c 5.48221,-0.0422 9.12341,3.51047 9.152,8.93004 0.03,5.56528 -3.42196,9.12613 -8.86876,9.14928 -5.53941,0.0245 -9.18605,-3.47915 -9.216,-8.86604 -0.0163,-0.27506 -0.0204,-0.55013 -0.0123,-0.82519 0.15387,-4.78639 4.15864,-8.54196 8.94502,-8.38809 z m 65.39983,-6.8657 c 1.45838,5.44681 4.29753,7.36136 10.03166,7.62281 0.93958,0.0436 1.87506,0.20289 3.16323,0.34587 v 15.69226 c -0.69719,0.22876 -1.41208,0.40034 -2.13787,0.512 -7.68408,0.47795 -11.18638,3.63029 -11.96255,11.3348 -0.49566,4.91847 -0.45481,9.89141 -0.79523,14.82758 -0.14298,5.41957 -0.63592,10.82417 -1.47609,16.17974 -1.96085,9.70349 -8.01906,14.54434 -18.02894,15.13532 -3.22178,0.19064 -6.46672,0.03 -9.94042,0.03 v -14.02553 c 1.86962,-0.11575 3.52,-0.27507 5.17447,-0.31456 5.98059,-0.14297 8.09532,-2.07114 8.38808,-8.01089 0.32409,-6.52528 0.4657,-13.05872 0.75711,-19.58536 0.42349,-9.43387 3.00664,-17.86145 11.79506,-23.74536 -5.02876,-3.58536 -9.06621,-7.92783 -10.112,-13.78315 -1.26502,-7.09719 -1.67353,-14.35098 -2.35438,-21.547575 -0.33634,-3.597617 -0.32,-7.226554 -0.67132,-10.821447 -0.37855,-3.880851 -3.04477,-5.22349 -6.57702,-5.310638 -2.02349,-0.04902 -4.05515,-0.0095 -6.64238,-0.0095 v -13.696 c 16.50927,-2.741107 27.91353,2.752 28.97293,18.547744 0.44392,6.632851 0.37855,13.297022 0.80341,19.929876 0.18655,3.60851 0.72578,7.18978 1.61225,10.69208 z"
       id="path6"
       inkscape:connector-curvature="0"
       style="fill:#000000;fill-opacity:0" />
  </g>
  <path
     style="fill:#87939a;fill-opacity:1;stroke-width:0.06684492"
     d="M 7.1617647,14.889914 C 4.3629289,14.510055 2.0366259,12.436869 1.302459,9.6681403 1.1263891,9.0041363 1.0650368,7.6979012 1.1770738,6.9985953 1.6257336,4.1981765 3.6682349,1.9809722 6.439373,1.2861912 c 0.8434642,-0.2114738 2.3411959,-0.2109698 3.1872667,0.00107 2.5356293,0.6354791 4.5063213,2.6141718 5.1397243,5.160594 0.192716,0.7747585 0.204599,2.2662947 0.02423,3.0414438 -0.280484,1.205412 -0.842381,2.265021 -1.671397,3.151869 -0.642696,0.68753 -1.137803,1.075143 -1.872602,1.466034 -0.688723,0.366379 -1.369347,0.603018 -2.1049519,0.731845 -0.5169165,0.09053 -1.5013031,0.115819 -1.9798804,0.05086 z m -1.236631,-3.228153 v -0.467914 l -0.2840909,-10e-4 C 5.1743555,11.19114 5.1700873,11.182334 5.0813834,10.037888 4.9931418,8.899407 4.8565646,8.4446918 4.5170467,8.1590066 L 4.3299588,8.0015822 4.5346318,7.8096136 C 4.8994066,7.4674802 4.9946471,7.1441626 5.0566756,6.0374061 5.090232,5.4386695 5.1449521,4.9979336 5.1929066,4.9401519 c 0.044081,-0.053115 0.1792849,-0.096572 0.3004528,-0.096572 0.4041657,0 0.4317743,-0.035268 0.4317743,-0.5515593 V 3.8216091 L 5.4315844,3.8589362 C 4.903002,3.8989128 4.6448993,3.9991179 4.4028154,4.2583427 4.1829012,4.4938281 4.1236739,4.7602183 4.0497703,5.8462533 3.9576792,7.1995574 3.8897471,7.3663396 3.398235,7.4458574 l -0.2471655,0.039987 -0.01938,0.509163 -0.01938,0.5091631 0.2363624,0.044342 c 0.4004041,0.075116 0.5686229,0.2785595 0.6397225,0.7736771 0.034316,0.2389706 0.062998,0.6811734 0.063738,0.9826734 0.00333,1.356704 0.3645192,1.819906 1.4217986,1.823346 l 0.4512032,0.0015 z m 5.5224353,0.296672 c 0.450295,-0.336285 0.537309,-0.602787 0.598849,-1.834105 0.06518,-1.3042104 0.138955,-1.4655741 0.716357,-1.5668969 l 0.253416,-0.04447 -0.01946,-0.514504 -0.01946,-0.5145034 -0.293699,-0.039193 C 12.191095,7.3790416 12.11598,7.1770592 12.023611,5.6701299 11.953235,4.5220126 11.859816,4.2727475 11.414824,4.045729 11.113087,3.8917946 10.619564,3.8122445 10.343064,3.8729741 l -0.2067,0.045399 v 0.4626032 0.4626033 h 0.32604 c 0.205461,0 0.35623,0.036378 0.407674,0.098364 0.0449,0.0541 0.107936,0.4376228 0.140082,0.8522727 0.114676,1.4791944 0.142122,1.589457 0.492055,1.97679 l 0.235453,0.2606189 -0.172131,0.1606565 c -0.384141,0.3585334 -0.558436,1.0590889 -0.559682,2.2495603 -6.02e-4,0.604349 -0.112295,0.752005 -0.568689,0.752005 h -0.300802 v 0.474774 0.474773 l 0.56333,-0.02357 c 0.439651,-0.0184 0.603846,-0.05383 0.747875,-0.161391 z M 6.4963539,8.4228208 C 6.8474586,8.0717165 6.6066394,7.4452483 6.1152126,7.4313184 5.6701209,7.4187018 5.3827355,7.7462687 5.4842043,8.1505527 5.5932314,8.5849511 6.1771498,8.7420253 6.4963539,8.4228208 Z m 1.9480077,0.013673 C 8.7537727,8.0946082 8.6526049,7.58958 8.2479545,7.4560333 7.9895381,7.3707483 7.8331477,7.4076427 7.6129679,7.6058339 7.3996259,7.7978703 7.4063989,8.2025795 7.6266407,8.4228208 7.8468389,8.6430193 8.2513329,8.6497827 8.4443616,8.4364938 Z M 10.440204,8.4228208 C 10.765989,8.0970367 10.60255,7.5415215 10.148517,7.4314019 9.7891083,7.344232 9.4010695,7.6674329 9.4010695,8.0539578 c 0,0.078183 0.087927,0.2300782 0.1953931,0.3375441 0.2553663,0.255367 0.6066544,0.2684065 0.8437414,0.031319 z"
     id="path29"
     inkscape:connector-curvature="0" />
  <path
     style="fill:#b6b6b6;fill-opacity:1;stroke-width:0.04727154"
     d="M 6.7127922,14.789145 C 4.124247,14.246709 2.0343963,12.275412 1.3460818,9.7268788 1.1778654,9.1040456 1.0983891,8.0166357 1.1697798,7.3146808 1.4749142,4.3144236 3.8133018,1.7835818 6.7809384,1.241712 7.3593539,1.1360973 8.7033082,1.1363959 9.2898251,1.2422693 c 1.3269899,0.2395378 2.5623139,0.9081559 3.5921859,1.9442671 0.805067,0.8099442 1.314465,1.613107 1.671092,2.6347921 0.234954,0.6731079 0.293655,1.0345442 0.321237,1.9779045 0.02962,1.0131184 -0.03342,1.5526478 -0.26514,2.269034 -0.785917,2.42978 -3.048882,4.379054 -5.5153523,4.750817 -0.6811942,0.102673 -1.8163299,0.0884 -2.3810555,-0.02994 z M 5.9462833,11.663681 5.9328118,11.179148 5.6964542,11.166795 C 5.3000914,11.14608 5.2552293,11.124514 5.2049141,10.930497 5.1796975,10.833261 5.1346248,10.466529 5.1047525,10.115538 5.005154,8.9452794 4.8622041,8.4520198 4.5376881,8.1588389 L 4.3592909,7.997668 4.5473448,7.8157251 C 4.9153423,7.4596867 4.9740678,7.2577829 5.0813112,5.9798966 5.1703082,4.9194311 5.1905906,4.8683977 5.5230585,4.8683977 c 0.3613747,0 0.4016056,-0.055435 0.4247805,-0.5853074 L 5.9677247,3.8284238 H 5.6871388 c -0.6100809,0 -1.1106305,0.1708602 -1.3345656,0.4555475 C 4.1924689,4.487511 4.1197101,4.8275035 4.0420023,5.7352294 3.9098677,7.2787303 3.8802588,7.3469049 3.3004338,7.4426978 l -0.174258,0.028789 -0.014828,0.5065921 c -0.00816,0.2786255 0.00406,0.520296 0.027144,0.5370458 0.023085,0.01675 0.126959,0.044044 0.2308317,0.060654 0.2359054,0.037723 0.4768867,0.2674916 0.5512909,0.5256396 0.029623,0.1027778 0.074301,0.5697676 0.099284,1.0377557 0.05007,0.937908 0.1186524,1.27527 0.3160304,1.554586 0.228068,0.322747 0.5484097,0.441924 1.2085462,0.449616 l 0.4152798,0.0048 z m 5.1299607,0.441536 c 0.444244,-0.07306 0.779862,-0.425412 0.882079,-0.926069 0.02654,-0.129997 0.07816,-0.640529 0.114711,-1.134517 0.09158,-1.2378005 0.14636,-1.3539344 0.690515,-1.4639811 0.294855,-0.05963 0.266854,0.026218 0.245812,-0.753626 l -0.0095,-0.3503814 -0.200904,-0.030674 C 12.220222,7.3576 12.154972,7.2164132 12.055635,5.8374642 11.96127,4.5275471 11.873627,4.2740186 11.43904,4.0538122 11.102894,3.883486 10.711811,3.8080995 10.379649,3.8496004 l -0.263306,0.032898 V 4.375448 4.8683977 h 0.279763 c 0.345511,0 0.424649,0.028859 0.480264,0.1751373 0.02404,0.063234 0.08631,0.5336395 0.138382,1.0453447 0.115486,1.1349499 0.167777,1.3286881 0.446868,1.6556506 0.118076,0.1383298 0.214684,0.2631475 0.214684,0.2773729 0,0.014225 -0.07594,0.1099224 -0.168758,0.2126595 -0.32856,0.3636765 -0.430535,0.7434437 -0.512393,1.9082173 -0.07027,0.999857 -0.0776,1.012732 -0.576782,1.012732 h -0.302028 v 0.496351 0.496351 l 0.366354,-0.0028 c 0.201495,-0.0016 0.468591,-0.01963 0.593547,-0.04018 z M 6.3834386,8.5311415 C 6.553958,8.4429626 6.6655207,8.2376259 6.6655207,8.0119549 c 0,-0.3509392 -0.2399551,-0.5908942 -0.5908942,-0.5908942 -0.2264009,0 -0.4326174,0.1125488 -0.5455365,0.2977421 C 5.2169339,8.2307559 5.8324931,8.816047 6.3834386,8.5311415 Z M 8.438374,8.4608742 C 8.586461,8.3217536 8.6682611,8.0719136 8.6309105,7.8728158 8.5428913,7.4036345 7.9043606,7.241981 7.5943586,7.6103974 7.3549165,7.8949583 7.4049468,8.2949719 7.7054945,8.4989727 7.9183719,8.6434662 8.2630883,8.6255465 8.438374,8.4608742 Z m 1.905353,0.04622 C 10.673745,8.3058876 10.712081,7.86553 10.424607,7.5780553 10.286913,7.4403618 10.237288,7.4210604 10.020965,7.4210604 c -0.223479,0 -0.2638834,0.017238 -0.4301705,0.1835246 -0.1503637,0.1503637 -0.1835247,0.2167953 -0.1835247,0.3676544 0,0.4726842 0.536159,0.7789097 0.9364572,0.5348548 z"
     id="path22"
     inkscape:connector-curvature="0" />
</svg>
