<?xml version="1.0" encoding="UTF-8" standalone="no"?>
<!-- Generator: Adobe Illustrator 19.2.1, SVG Export Plug-In . SVG Version: 6.00 Build 0)  -->

<svg
   xmlns:dc="http://purl.org/dc/elements/1.1/"
   xmlns:cc="http://creativecommons.org/ns#"
   xmlns:rdf="http://www.w3.org/1999/02/22-rdf-syntax-ns#"
   xmlns:svg="http://www.w3.org/2000/svg"
   xmlns="http://www.w3.org/2000/svg"
   xmlns:sodipodi="http://sodipodi.sourceforge.net/DTD/sodipodi-0.dtd"
   xmlns:inkscape="http://www.inkscape.org/namespaces/inkscape"
   version="1.1"
   id="Tessa"
   x="0px"
   y="0px"
   width="16px"
   height="16px"
   viewBox="0 0 16 16"
   style="enable-background:new 0 0 720 720;"
   xml:space="preserve"
   sodipodi:docname="travis.svg"
   inkscape:version="0.92.4 (5da689c313, 2019-01-14)"><metadata
   id="metadata323"><rdf:RDF><cc:Work
       rdf:about=""><dc:format>image/svg+xml</dc:format><dc:type
         rdf:resource="http://purl.org/dc/dcmitype/StillImage" /></cc:Work></rdf:RDF></metadata><defs
   id="defs321" /><sodipodi:namedview
   pagecolor="#ffffff"
   bordercolor="#666666"
   borderopacity="1"
   objecttolerance="10"
   gridtolerance="10"
   guidetolerance="10"
   inkscape:pageopacity="0"
   inkscape:pageshadow="2"
   inkscape:window-width="1920"
   inkscape:window-height="1001"
   id="namedview319"
   showgrid="false"
   inkscape:zoom="28.123336"
   inkscape:cx="-9.260163"
   inkscape:cy="4.3703882"
   inkscape:window-x="-9"
   inkscape:window-y="-9"
   inkscape:window-maximized="1"
   inkscape:current-layer="Tessa" />
<style
   type="text/css"
   id="style2">
	.st0{fill:#DEC65F;}
	.st1{fill:#2D3136;}
	.st2{fill:#CB3349;}
	.st3{fill:#C8AD8E;}
	.st4{fill:#B59A7F;}
	.st5{fill:#9A9C9E;}
	.st6{fill:#F4EDAE;}
	.st7{opacity:0.75;}
	.st8{fill:#EBD599;}
	.st9{fill:#656D68;}
	.st10{fill:#FFFFFF;}
	.st11{fill:#414042;}
	.st12{fill:#B28C7F;}
</style>
<g
   id="g316"
   transform="matrix(0.02110579,0,0,0.02111996,0.46041571,0.44500505)">
	<g
   id="g12">
		<g
   id="g6">
			<path
   class="st0"
   d="m 95.1,333.8 c 6.1,-1.6 -14.5,-3.5 -7.4,-5.8 0,6.5 64.6,-61.6 65,-55.7 -0.9,0.5 -1.7,0.9 -2.3,1.3 -8.2,5.2 -10,14.9 -10.6,33.4 -0.3,9.5 0.5,28.1 2.7,45.4 3.8,29.7 7.3,33.6 12.3,35.6 2.5,1 6.4,2.2 10.3,2.7 7.9,1 -45.8,77 -38.4,76.1 0.1,0.6 0.2,1.2 0.3,1.9 -3.4,6 -6.8,9.1 -6.8,9.1 11.7,35.3 -9.7,54.9 -9.7,54.9 8,36.6 -25.2,45.3 -25.2,45.3 l -2.4,10.5 c 6.5,10.4 17.6,7.4 11.8,52.9 -5.8,45.5 -36,53.1 -36,53.1 C 61,687.5 48,670.7 48,670.7 4.7,585.3 70.2,586.9 70.2,586.9 L 70.7,576 c 0,0 -18.9,-22.9 -17,-38.2 1.9,-15.3 10.3,-28.5 10.3,-28.5 0,0 -11.9,-22.1 -10,-36.9 1.9,-14.9 8,-23.7 8,-23.7 0,0 -8.5,-19.4 -6.3,-36.9 2.2,-17.6 12.4,-29.1 12.4,-29.1 0,0 18.6,-14.8 20.7,-31.5 1,-7.5 3.6,-13.3 6.3,-17.4 z"
   id="path4"
   inkscape:connector-curvature="0"
   style="fill:#dec65f" />
		</g>
		<g
   id="g10">
			<path
   class="st1"
   d="m 152.5,272 c 0.1,0 0.2,0.1 0.2,0.4 -0.6,0.3 -1.2,0.6 -1.7,0.9 0.7,-0.8 1.2,-1.3 1.5,-1.3 m -1.5,1.3 c -1.9,2.3 -5.3,7.6 -9.2,13.9 1.5,-6.4 4.1,-10.7 8.6,-13.6 0.2,-0.1 0.4,-0.2 0.6,-0.3 m -9.2,13.9 c -1.2,5.1 -1.7,11.6 -2,19.8 -0.3,9.5 0.5,28.1 2.7,45.4 3.8,29.7 7.3,33.6 12.3,35.6 2.5,1 6.4,2.2 10.3,2.7 7.8,1 -45.3,76.1 -38.5,76.1 0,0 0.1,0 0.1,0 0.1,0.6 0.2,1.2 0.3,1.9 -3.4,6 -6.8,9.1 -6.8,9.1 11.7,35.3 -9.7,54.9 -9.7,54.9 8,36.6 -25.2,45.3 -25.2,45.3 l -2.4,10.5 c -6.3,12.2 17.6,7.4 11.8,52.9 -5.7,45.5 -36,53.1 -36,53.1 0.6,-26.5 -21.9,-49.7 -21.3,-68.9 1.1,-35.5 22.1,-38.8 29.9,-38.8 1.8,0 2.9,0.2 2.9,0.2 l 0.5,-10.9 c 0,0 -18.9,-22.9 -17,-38.2 1.9,-15.3 10.3,-28.5 10.3,-28.5 0,0 -11.9,-22.1 -10,-36.9 1.9,-14.9 8,-23.7 8,-23.7 0,0 -8.5,-19.4 -6.3,-36.9 2.2,-17.6 12.4,-29.1 12.4,-29.1 0,0 18.6,-14.8 20.7,-31.5 0.9,-7.5 3.6,-13.3 6.3,-17.4 6.1,-1.6 12.8,-3.5 19.9,-5.8 0,0.3 0.1,0.4 0.2,0.4 2,0 16.2,-24.6 26.6,-41.3 m 25.9,-62.7 -26,42 c -3.4,2.8 -6.1,6.3 -8.1,10.6 l -30.1,36.3 14.6,-8.5 c -3.2,5.3 -6.5,10.4 -8.5,13.4 -5.7,1.8 -11.6,3.5 -17.5,5 l -4.1,1.1 -2.3,3.5 c -4.3,6.6 -6.9,14 -7.9,21.9 -1.3,10 -12.8,21.2 -16.7,24.3 l -0.8,0.6 -0.6,0.7 c -0.5,0.6 -12.4,14.3 -15,34.9 -1.8,14.5 2.4,29.6 5.1,37.4 -2.4,4.9 -5.5,12.8 -6.8,23.2 -1.7,13.3 4.6,29.5 8.5,38 -3,6 -7.4,16.1 -8.8,27.4 -1.8,14.5 8.3,31.4 14.9,40.6 -15.8,3.9 -30.2,17.9 -31.2,48.2 -0.4,11.6 4.9,22.6 10.5,34.2 5.4,11.4 11,23.2 10.8,34.8 l -0.3,14.3 13.9,-3.5 c 1.5,-0.4 37.5,-10 44.1,-62.3 4.2,-33.2 -6.3,-44.9 -11.9,-51.3 -0.1,-0.1 -0.1,-0.1 -0.2,-0.2 l 0.1,-0.3 1.1,-4.7 c 14,-6.2 31.4,-21.8 27.6,-50.3 6.5,-8.4 17.2,-27.5 10.2,-55.5 1.3,-1.7 2.7,-3.9 4.2,-6.4 l 1.9,-3.3 -0.6,-3.8 c -0.1,-0.4 -0.1,-0.9 -0.2,-1.3 2.7,-5.7 10.3,-18.2 16.1,-27.8 21.8,-35.9 25.7,-43.7 21.9,-51.5 -1.7,-3.6 -5.1,-6 -9.1,-6.5 -2.8,-0.4 -5.7,-1.2 -7.5,-1.9 -0.9,-1.4 -3.1,-6.9 -5.6,-26.9 -2.1,-16.7 -2.9,-34.5 -2.6,-43.6 0.3,-7.4 0.7,-12.4 1.4,-16.1 3.1,-5 5,-7.9 6.2,-9.5 l 5.9,-3 -0.3,-3.9 34.6,-41.7 -37.9,21.9 z"
   id="path8"
   inkscape:connector-curvature="0"
   style="fill:#2d3136" />
		</g>
	</g>
	<g
   id="g18">
		<g
   id="g16">
			<path
   class="st1"
   d="m 80.1,583.4 c -1.9,0 -3.7,-1 -4.7,-2.8 -1.5,-2.6 -1.6,-3.7 2,-7.4 0.1,-0.1 17.5,-15.4 17.5,-15.4 0,0 -8.1,20.7 -8.5,21 -0.9,0.5 -5.4,4.6 -6.3,4.6 z"
   id="path14"
   inkscape:connector-curvature="0"
   style="fill:#2d3136" />
		</g>
	</g>
	<g
   id="g24">
		<g
   id="g22">
			<path
   class="st1"
   d="m 54.5,618 c -3.6,-16 -2.7,-19.1 -1.1,-23.2 3.6,-9.2 7.7,-11 8.1,-11.2 2.4,-1.8 5.8,-1.3 7.6,1.2 1.8,2.4 1.3,5.8 -1.1,7.6 -0.3,0.2 -3.9,2.5 -7.9,8 -1.8,2.5 -3.1,5.9 -5.6,17.6 z"
   id="path20"
   inkscape:connector-curvature="0"
   style="fill:#2d3136" />
		</g>
	</g>
	<g
   id="g34">
		<g
   id="g28">
			<polygon
   class="st2"
   points="92.6,594.3 56.6,585.3 57.7,576.8 95.1,585.3 "
   id="polygon26"
   style="fill:#cb3349" />
		</g>
		<g
   id="g32">
			<path
   class="st1"
   d="m 57.7,576.8 37.4,8.5 -2.5,9 -36,-9 1.1,-8.5 m 0,-5.5 c -1.1,0 -2.2,0.3 -3.1,1 -1.3,0.9 -2.1,2.3 -2.3,3.8 l -1.1,8.5 c -0.3,2.7 1.4,5.3 4.1,6 l 36,9 c 0.4,0.1 0.9,0.2 1.3,0.2 2.4,0 4.6,-1.6 5.3,-4 l 2.5,-9 c 0.4,-1.4 0.2,-3 -0.6,-4.3 -0.8,-1.3 -2,-2.2 -3.5,-2.5 l -37.4,-8.5 c -0.4,-0.1 -0.8,-0.2 -1.2,-0.2 z"
   id="path30"
   inkscape:connector-curvature="0"
   style="fill:#2d3136" />
		</g>
	</g>
	<g
   id="g44">
		<g
   id="g38">
			<path
   class="st0"
   d="m 655.1,333.8 c -6.1,-1.6 -12.8,-3.5 -19.9,-5.8 0,6.5 -64.6,-61.6 -65,-55.7 0.9,0.5 1.7,0.9 2.3,1.3 8.2,5.2 10,14.9 10.6,33.4 0.3,9.5 -0.5,28.1 -2.7,45.4 -3.8,29.7 -7.3,33.6 -12.3,35.6 -2.5,1 -6.4,2.2 -10.3,2.7 -7.9,1 45.8,77 38.4,76.1 -0.1,0.6 -0.2,1.2 -0.3,1.9 3.4,6 6.8,9.1 6.8,9.1 -11.7,35.3 9.7,54.9 9.7,54.9 -8,36.6 25.2,45.3 25.2,45.3 l 2.4,10.5 c -6.5,10.4 -17.6,7.4 -11.8,52.9 5.8,45.5 36,53.1 36,53.1 -2.3,-7 10.7,-23.8 10.7,-23.8 43.3,-85.4 -22.2,-83.8 -22.2,-83.8 L 652.2,576 c 0,0 18.9,-22.9 17,-38.2 -1.9,-15.3 -9.7,-28.3 -9.7,-28.3 0,0 11.3,-22.2 9.4,-37.1 -1.9,-14.9 -8,-23.7 -8,-23.7 0,0 8.5,-19.4 6.3,-36.9 -2.2,-17.6 -12.4,-29.1 -12.4,-29.1 0,0 8.7,-14.8 6.5,-31.5 -0.9,-7.5 -3.6,-13.3 -6.2,-17.4 z"
   id="path36"
   inkscape:connector-curvature="0"
   style="fill:#dec65f" />
		</g>
		<g
   id="g42">
			<path
   class="st1"
   d="m 570.6,272 c 5.1,0 59.1,56.5 64.2,56.5 0.3,0 0.4,-0.1 0.4,-0.4 7.1,2.2 13.8,4.2 19.9,5.8 2.7,4.1 5.3,9.9 6.3,17.4 2.1,16.7 -6.5,31.5 -6.5,31.5 0,0 10.1,11.5 12.4,29.1 2.2,17.6 -6.3,36.9 -6.3,36.9 0,0 6.1,8.8 8,23.7 1.9,14.9 -9.4,37.1 -9.4,37.1 0,0 7.8,13 9.7,28.3 1.9,15.3 -17,38.2 -17,38.2 l 0.5,10.9 c 0,0 1.1,-0.2 2.9,-0.2 7.8,0 28.8,3.3 29.9,38.8 0.6,19.3 -21.8,42.4 -21.3,68.9 0,0 -30.2,-7.6 -36,-53.1 -5.7,-45.5 18.1,-40.6 11.8,-52.9 L 637.7,578 c 0,0 -33.2,-8.7 -25.2,-45.3 0,0 -21.4,-19.6 -9.7,-54.9 0,0 -3.4,-3.1 -6.8,-9.1 0.1,-0.7 0.2,-1.4 0.3,-1.9 0,0 0.1,0 0.1,0 6.7,0 -46.3,-75.1 -38.5,-76.1 3.9,-0.5 7.8,-1.7 10.3,-2.7 5,-1.9 8.5,-5.8 12.3,-35.6 2.2,-17.3 3,-35.9 2.7,-45.4 -0.7,-18.4 -2.4,-28.1 -10.6,-33.4 -0.6,-0.4 -1.4,-0.8 -2.3,-1.3 -0.1,-0.2 0,-0.3 0.3,-0.3 m 0,-10.9 v 0 0 c -6,0 -10.9,4.5 -11.3,10.6 l -0.5,7.2 6.4,3.3 c 0.9,0.5 1.3,0.7 1.4,0.8 3.1,2 4.9,6.5 5.6,24.5 0.3,9.1 -0.5,27 -2.6,43.6 -2.6,20 -4.7,25.4 -5.6,26.9 -1.8,0.7 -4.7,1.6 -7.5,1.9 -4,0.5 -7.4,2.9 -9.1,6.5 -3.8,7.9 0.1,15.6 21.9,51.5 5.8,9.5 13.4,22.1 16.1,27.8 -0.1,0.4 -0.1,0.8 -0.2,1.3 l -0.6,3.8 1.9,3.3 c 1.4,2.5 2.9,4.7 4.2,6.4 -7.1,28 3.7,47.1 10.2,55.5 -3.8,28.5 13.6,44.1 27.6,50.3 l 1.1,4.7 0.1,0.3 c -0.1,0.1 -0.1,0.1 -0.2,0.2 -5.6,6.3 -16.1,18.1 -11.9,51.3 6.6,52.3 42.6,61.9 44.1,62.3 l 13.9,3.5 -0.3,-14.3 c -0.2,-11.7 5.4,-23.4 10.8,-34.8 5.6,-11.7 10.8,-22.7 10.5,-34.2 -0.9,-30.3 -15.4,-44.3 -31.2,-48.2 6.5,-9.2 16.7,-26 14.9,-40.6 -1.4,-11.3 -5.6,-21.4 -8.4,-27.3 3.6,-8.4 9.7,-24.8 8,-38.2 -1.3,-10.4 -4.4,-18.4 -6.8,-23.2 2.7,-7.8 7,-22.9 5.1,-37.4 -1.6,-12.8 -6.8,-22.9 -10.6,-28.9 2.9,-7 6.4,-18.8 4.8,-31.7 -1,-8 -3.7,-15.3 -7.9,-21.9 l -2.3,-3.5 -4.1,-1.1 c -6.6,-1.8 -13.1,-3.7 -19.5,-5.6 l -1.3,-0.4 c -5.4,-4.3 -18.2,-16.5 -27.1,-25 -29.7,-28.3 -33.4,-31.2 -39.6,-31.2 z"
   id="path40"
   inkscape:connector-curvature="0"
   style="fill:#2d3136" />
		</g>
	</g>
	<g
   id="g50">
		<g
   id="g48">
			<path
   class="st1"
   d="m 606.3,541.6 c -1.3,0 -2.6,-0.5 -3.7,-1.4 -2.2,-2 -2.4,-5.5 -0.4,-7.7 l 13.4,-9.8 -4.3,17.2 c -1,1.2 -3.5,1.7 -5,1.7 z"
   id="path46"
   inkscape:connector-curvature="0"
   style="fill:#2d3136" />
		</g>
	</g>
	<g
   id="g56">
		<g
   id="g54">
			<path
   class="st1"
   d="m 666,516.4 c -1.7,0 -5.5,-5.5 -6.5,-6.9 l -9,-19.6 19.9,17.9 c 1.8,2.4 1.3,5.8 -1.2,7.6 -0.9,0.6 -2.1,1 -3.2,1 z"
   id="path52"
   inkscape:connector-curvature="0"
   style="fill:#2d3136" />
		</g>
	</g>
	<g
   id="g62">
		<g
   id="g60">
			<path
   class="st1"
   d="m 57.8,516.4 c -1.1,0 -2.3,-0.3 -3.2,-1.1 -2.4,-1.8 -3,-5.2 -1.2,-7.6 L 73.3,489.8 64,509.3 c -1.1,1.5 -4.5,7.1 -6.2,7.1 z"
   id="path58"
   inkscape:connector-curvature="0"
   style="fill:#2d3136" />
		</g>
	</g>
	<g
   id="g66">
		<polygon
   class="st3"
   points="361.4,296 93.3,320.6 93.3,456.4 104.2,497.3 141.1,517.1 163.6,571.7 182,598.3 563.3,573 592.7,502.7 609.1,454.3 632.9,325.4 "
   id="polygon64"
   style="fill:#c8ad8e" />
	</g>
	<g
   id="g70">
		<polygon
   class="st3"
   points="303.4,691.3 242.9,662.2 197.5,622.1 175.2,589.8 189.3,579.4 296.6,523.9 363,508.4 430.3,518.9 439,519.3 457.6,525.7 558.6,560.7 565.8,566.6 527.6,621.7 473.5,671.3 408.9,696.3 352.1,699.4 "
   id="polygon68"
   style="fill:#c8ad8e" />
	</g>
	<g
   id="g74">
		<path
   class="st4"
   d="m 534.9,603 c 0,0 -87.8,79.1 -168.3,79.1 -80.5,0 -167.3,-69.1 -167.3,-69.1 0,0 47.7,86.4 173.7,86.4 126,0 161.9,-96.4 161.9,-96.4 z"
   id="path72"
   inkscape:connector-curvature="0"
   style="fill:#b59a7f" />
	</g>
	<g
   id="g84">
		<g
   id="g78">
			<path
   class="st3"
   d="m 128.5,504.8 -0.2,-0.2 -18.1,-12.6 -0.3,-0.5 c -0.7,-0.7 -1.2,-1.5 -1.5,-2.4 l -0.3,-0.5 -8.7,-71.6 c 0,0 0,0 0,0 v 0 c -6.5,3.5 -13.9,7.7 -15.9,9.4 -1.7,1.4 -3.1,5.1 -1.2,22.2 1.4,12.8 5.9,32.5 10.5,47.3 0,0.1 0.1,0.2 0.1,0.3 9.1,6.9 22.5,14.2 36.3,11.6 0.4,1.4 0.8,2.8 1.2,4.2 0.1,0 0.1,0 0.2,0 -0.4,-1.4 -0.8,-2.8 -1.3,-4.3 -0.2,-1.1 -0.5,-2 -0.8,-2.9 z"
   id="path76"
   inkscape:connector-curvature="0"
   style="fill:#c8ad8e" />
		</g>
		<g
   id="g82">
			<path
   class="st3"
   d="m 641.3,415.6 c -1.7,-1.4 -12.5,-7.4 -13.8,-8.1 l -9.7,68.1 c -0.2,1.3 -0.9,2.5 -2,3.3 l -0.1,0.1 v 0 l -5.2,3.6 -8.6,6 c -0.3,1.7 -0.6,3.1 -0.9,4.4 13.6,3.3 26.8,-6.5 34.3,-13.6 -3.1,12 -6.5,21.9 -9.1,24.9 0,0 0,0 0.1,0 5.6,-6.1 14.7,-44.1 16.7,-65.8 1.5,-17.7 0.1,-21.5 -1.7,-22.9 z"
   id="path80"
   inkscape:connector-curvature="0"
   style="fill:#c8ad8e" />
		</g>
	</g>
	<g
   id="g88">
		<path
   class="st4"
   d="m 132.9,495.2 8.2,25.2 c 0,0 66.2,28 124.2,10.9 58,-17.1 78.5,-62.1 85.3,-87.3 6.8,-25.2 -13.7,11 -13.7,11 0,0 -73.7,45.7 -117.3,45.7 -43.6,0 -86.7,-5.5 -86.7,-5.5 z"
   id="path86"
   inkscape:connector-curvature="0"
   style="fill:#b59a7f" />
	</g>
	<g
   id="g92">
		<path
   class="st4"
   d="m 594.8,495.2 -8.2,25.2 c 0,0 -66.2,28 -124.2,10.9 -58,-17.1 -78.5,-62.1 -85.3,-87.3 -6.8,-25.2 13.6,10.9 13.6,10.9 0,0 73.7,45.7 117.3,45.7 43.6,0 86.8,-5.4 86.8,-5.4 z"
   id="path90"
   inkscape:connector-curvature="0"
   style="fill:#b59a7f" />
	</g>
	<g
   id="g102">
		<g
   id="g96">
			<path
   class="st3"
   d="m 600.9,493 c -0.6,3.1 -1.1,5.5 -2.1,9.3 8,1.9 21,3.3 27.2,2.1 2.7,-2.9 6.1,-13 9.2,-25 -7.4,7.1 -20.6,17 -34.3,13.6 z"
   id="path94"
   inkscape:connector-curvature="0"
   style="fill:#c8ad8e" />
		</g>
		<g
   id="g100">
			<path
   class="st3"
   d="m 130.5,511.9 c -0.4,-1.4 -0.8,-2.8 -1.3,-4.3 -13.9,2.6 -27.4,-4.8 -36.5,-11.8 3,9.5 5.9,16.9 8.2,19.2 6.8,1.3 22.1,-0.9 29.6,-3.1 z"
   id="path98"
   inkscape:connector-curvature="0"
   style="fill:#c8ad8e" />
		</g>
	</g>
	<path
   class="st4"
   d="m 584.2,523 c 0,0 48,-25.5 58,-52 10,-26.5 2.5,-46 2.5,-46 0,0 -8,48 -51.5,70 z"
   id="path104"
   inkscape:connector-curvature="0"
   style="fill:#b59a7f" />
	<path
   class="st4"
   d="m 141.4,520 c 0,0 -48,-25.5 -58,-52 -10,-26.5 -2.5,-46 -2.5,-46 0,0 8,48 51.5,70 z"
   id="path106"
   inkscape:connector-curvature="0"
   style="fill:#b59a7f" />
	<g
   id="g116">
		<g
   id="g110">
			<path
   class="st1"
   d="m 594.7,518 c 7.3,1.8 18.1,1.5 26,1.5 3.9,0 7.9,-0.7 10.5,-1.3 5.2,-1.3 9.1,-4.7 16.6,-33.8 4.4,-16.9 7.5,-35.2 8.3,-44.7 1.7,-18.4 1.1,-28.2 -6.4,-34.4 -3.7,-3.1 -14.5,-8.9 -20.1,-11.8 h -0.3 l -2,13.9 c 0,0 12.1,6.7 13.9,8.2 1.8,1.5 3.2,5.3 1.6,22.9 -1.9,21.7 -11,59.7 -16.7,65.8 -6.2,1.2 -19.3,-0.2 -27.2,-2.1 1.3,-5.5 1.8,-8.1 2.8,-13.7 l -13.6,9.5 c -0.8,3.4 -1.7,6.8 -2.6,10.2 -1.4,4.4 -2.8,8.7 -4.3,12.8 -5.8,16.7 -12.4,31.8 -19.6,45.5 0,0 -0.1,0 -0.1,0 v 0.1 c 0,0 5.8,1.1 15.1,-3.2 l 0.2,-0.1 c 10.7,-21.5 16.1,-38.7 17.9,-45.3 z"
   id="path108"
   inkscape:connector-curvature="0"
   style="fill:#2d3136" />
		</g>
		<g
   id="g114">
			<path
   class="st1"
   d="m 172.2,600.1 12.8,-3.7 c 0.1,0 0.2,-0.1 0.2,-0.1 v -0.1 c 0,0 -27.6,-45.9 -33.9,-60.8 -3.7,-8.7 -5.7,-14.6 -6.2,-16 v 0 c -0.5,-1.4 -1,-2.8 -1.4,-4.2 L 138,501.4 123.2,491 c 0.3,0.9 6,15.5 6.3,16.5 0.4,1.4 0.8,2.9 1.3,4.3 -7.5,2.2 -22.7,4.3 -29.6,3.1 C 99,512.6 96,505.2 93,495.7 88.4,480.9 83.9,461.2 82.5,448.4 c -1.9,-17.1 -0.6,-20.7 1.2,-22.2 2,-1.7 9.4,-5.9 15.9,-9.4 l -1.7,-14 c -3.4,1.8 -18.2,9.5 -22.6,13.3 -7.4,6.2 -7.8,15.8 -5.8,33.7 1,9.2 4.5,27 9.1,43.4 8,28.1 13.9,33.1 19,34.3 2.3,0.6 5.3,0.8 8.7,0.8 9.2,0 21,-1.8 28.7,-4.1 9,28 21.8,53.4 37.3,75.6 -0.2,0.1 -0.1,0.3 -0.1,0.3 z"
   id="path112"
   inkscape:connector-curvature="0"
   style="fill:#2d3136" />
		</g>
	</g>
	<g
   id="g122">
		<g
   id="g120">
			<path
   class="st5"
   d="m 92.4,337.3 2.9,10.9 c 8.1,-6.5 15.5,-11.8 21.8,-16.1 -10.2,2.1 -18.5,3.9 -24.7,5.2 z"
   id="path118"
   inkscape:connector-curvature="0"
   style="fill:#9a9c9e" />
		</g>
	</g>
	<g
   id="g126">
		<path
   class="st4"
   d="m 399.6,363.7 -6.5,-3.5 c -0.7,-0.3 -12,-5.9 -27.9,-5.2 h -0.7 -0.7 c -16.3,-0.7 -27.8,5.2 -28,5.2 l -6.6,3.6 -6.9,-2.8 c -62,-23.9 -110.4,-26.7 -146,-28.2 l -63.5,11.3 c -1.6,0.4 -3.2,0.9 -4.5,1.3 1.3,55.7 12.6,92.9 34.4,113.4 19,17.9 47.3,25.5 94.6,25.5 73.1,0 83.3,-69.3 83.7,-72.3 l 1.2,-8.7 7.9,-3.8 c 0.2,-0.1 19,-8.1 34.5,-8.1 15.6,0 34.4,8 34.5,8.1 l 7.9,3.8 1.2,8.7 c 0.4,2.9 11.2,72.3 83.7,72.3 47.3,0 75.6,-7.6 94.6,-25.5 21.3,-20 32.5,-56 34.2,-109.5 l -88.4,-20.5 c -33,3.4 -74.7,12.5 -125.5,32.1 z"
   id="path124"
   inkscape:connector-curvature="0"
   style="fill:#b59a7f" />
	</g>
	<g
   id="g146">
		<g
   id="g130">
			<path
   class="st0"
   d="m 699.1,404.3 c 0,0 -131,-40.9 -155.5,-108.2 l 114.3,13.6 c 0,0 -8.8,47.3 41.2,94.6 z"
   id="path128"
   inkscape:connector-curvature="0"
   style="fill:#dec65f" />
		</g>
		<g
   id="g134">
			<path
   class="st0"
   d="m 225.9,266.7 -72.5,29.5 c 0,0 5,10.3 5.9,27.7 l -86.6,10.3 c 0,0 -2.1,47.3 -52.1,94.6 0,0 106.9,-25.7 160.7,-91.7 -4.7,28.4 -19.8,42.8 -37.3,61.1 0,0 83.7,-25.2 136.2,-102.9 -3.1,11.9 -13.2,50 -21.8,64.1 0,0 286.7,-71.6 292.7,-143 l -327.7,43.3 c 0,0.1 1.2,2.6 2.5,7 z"
   id="path132"
   inkscape:connector-curvature="0"
   style="fill:#dec65f" />
		</g>
		<g
   id="g144">
			<g
   id="g138">
				<path
   class="st1"
   d="m 720,416.5 -22.5,-7 C 692,407.8 563.7,367 538.5,297.9 l -3,-8.3 128.8,15.4 -1.1,5.7 c -0.1,0.7 -7.3,45.3 39.6,89.6 z M 552.4,302.6 c 22.7,43.7 92.3,75.3 127.5,89 -27.1,-33.6 -28.7,-64.6 -28,-77.1 z"
   id="path136"
   inkscape:connector-curvature="0"
   style="fill:#2d3136" />
			</g>
			<g
   id="g142">
				<path
   class="st1"
   d="m 0,440.8 16.8,-15.9 c 47.6,-45 50.4,-90.4 50.4,-90.9 l 0.2,-4.6 4.6,-0.6 81.4,-9.7 c -1.4,-12.9 -5,-20.5 -5,-20.6 l -2.5,-5.2 5.3,-2.2 67.8,-27.5 c -0.4,-0.9 -0.6,-1.4 -0.6,-1.5 l -3.1,-6.7 7.3,-1.1 307.2,-44.3 -0.6,6.8 c -2.6,31.8 -49.2,66.4 -138.3,102.9 -65.2,26.6 -130.4,44.7 -131.1,44.9 l -13.3,3.7 7.1,-11.8 c 2.8,-4.6 7.2,-14.4 13.5,-35.3 -51.9,60.6 -118.5,81.3 -121.7,82.2 l -19.8,6 14.3,-14.9 C 147.8,386.3 163,369 173.5,349.2 119.4,404 26.4,432.6 22,434 Z M 77.7,339.2 c -1.6,11.6 -8.5,42.9 -37.6,77.1 12.1,-4.6 28.2,-11.2 45.6,-19.8 32.7,-16.2 76.4,-42.9 99.3,-78.1 l 14.3,-21.9 -4.3,25.8 c -3.9,23.3 -19.1,46.5 -32.1,62.9 27.7,-12.5 77.7,-40.7 112.8,-92.7 l 17.9,-26.5 -8.1,31 c -6.3,24 -11.9,42.1 -16.8,54.1 21.6,-6.4 70,-21.4 118.3,-41.2 93.7,-38.3 123.3,-67.4 130,-86.7 l -286,41.2 c 0.1,0.3 0.2,0.6 0.3,0.9 l 1.4,4.7 -72.2,29.3 c 1.7,5 3.8,13.4 4.4,24.4 l 0.3,5.1 z"
   id="path140"
   inkscape:connector-curvature="0"
   style="fill:#2d3136" />
			</g>
		</g>
	</g>
	<g
   id="g150">
		<path
   class="st6"
   d="m 670.4,256.7 c -0.2,-2.4 -0.4,-4.7 -0.7,-7 -0.2,-1.7 -0.5,-3.4 -0.8,-5 -6.3,-5.3 -13.4,-10 -20.8,-14.2 -8,-4.7 -16.5,-8.9 -25.1,-12.8 -8.5,-4 -17.3,-7.7 -26.1,-11.2 -4.4,-1.8 -8.8,-3.5 -13.3,-5.2 -4.4,-1.7 -8.9,-3.4 -13.4,-5 9.4,1.6 18.8,3.7 28.1,6.1 6,1.5 12,3.3 18,5.2 -42.4,-110.9 -143.8,-183 -254.4,-183 -110.7,0 -212,72.2 -254.4,182.9 5.9,-1.9 12,-3.6 18,-5.2 9.3,-2.4 18.6,-4.5 28.1,-6.1 -4.5,1.6 -9,3.3 -13.5,5 -4.4,1.6 -8.9,3.4 -13.3,5.2 -8.8,3.6 -17.6,7.2 -26.1,11.2 -8.6,3.9 -17,8.1 -25,12.8 -7.4,4.3 -14.6,9 -20.8,14.2 -0.3,1.6 -0.5,3.3 -0.7,5 -0.3,2.3 -0.5,4.7 -0.7,7 -0.4,4.7 -0.6,9.5 -0.6,14.2 -0.1,9.5 0.5,19 1.7,28.4 1.3,9.4 3,18.8 5.6,27.8 1.3,4.5 2.7,9 4.3,13.3 0.8,2.2 1.7,4.3 2.7,6.4 0.5,1 0.9,2.1 1.4,3 l 0.6,1.2 c 0.7,0.3 1.4,0.7 2.1,1 l 4.2,2 c 2.4,1.1 5.6,2.6 8.3,3.8 0.2,-0.1 0.3,-0.3 0.4,-0.4 l -7.8,-29.8 c 1.7,-0.4 16.5,-4.3 42.1,-9.2 -2.1,-0.4 -4.1,-0.8 -6.2,-1.3 -5.8,-1.5 53.9,-9.8 105.5,-15.1 47.2,-4.9 94.6,-8 142.2,-8.1 47.6,0.1 95,3.3 142.2,8.1 51.7,5.3 125.5,8.5 122.7,9.7 -5.6,2.2 -11.3,4 -17.1,5.5 -0.9,0.2 -1.7,0.4 -2.6,0.6 28.1,5.2 44.4,9.4 46.2,9.9 l -7.5,28.4 c 1.5,-0.7 3,-1.3 4.5,-2 l 4.2,-2 c 0.7,-0.3 1.4,-0.7 2.1,-1 l 0.6,-1.2 c 0.5,-1 1,-2 1.5,-3 0.9,-2.1 1.8,-4.2 2.7,-6.4 1.6,-4.3 3.1,-8.8 4.3,-13.3 2.6,-9.1 4.3,-18.4 5.6,-27.8 1.2,-9.4 1.9,-18.9 1.8,-28.4 -0.2,-4.7 -0.4,-9.5 -0.8,-14.2 z"
   id="path148"
   inkscape:connector-curvature="0"
   style="fill:#f4edae" />
	</g>
	<g
   class="st7"
   id="g154"
   style="opacity:0.75">
		<path
   class="st8"
   d="m 478.3,201.6 c 0.4,12.7 0.1,35.7 -5.8,57.2 -0.2,0.8 -0.2,1.7 0,2.5 -7.5,-0.8 -15,-1.5 -22.6,-2.1 8.4,-17.7 10.3,-36.5 10.7,-43.2 6.5,-4.6 12.9,-10.1 17.7,-14.4 z"
   id="path152"
   inkscape:connector-curvature="0"
   style="fill:#ebd599" />
	</g>
	<g
   class="st7"
   id="g158"
   style="opacity:0.75">
		<path
   class="st8"
   d="m 263.1,216 c 0.4,6.6 2.2,25.4 10.7,43.1 -7.5,0.6 -15,1.3 -22.6,2.1 0.2,-0.8 0.2,-1.6 0,-2.4 -5.9,-21.5 -6.2,-44.5 -5.8,-57.2 4.8,4.3 11.2,9.8 17.7,14.4 z"
   id="path156"
   inkscape:connector-curvature="0"
   style="fill:#ebd599" />
	</g>
	<g
   id="g162">
		<path
   class="st1"
   d="m 502.2,302.1 c -23.8,-2.5 -47.7,-4.5 -71.6,-5.9 -23.5,-1.4 -47,-2.2 -70.5,-2.2 -23.4,0.1 -46.8,0.8 -70.1,2.2 -24.1,1.4 -48.1,3.4 -72.1,5.9 -51.7,5.3 -111.4,13.7 -105.5,15.1 1.1,0.3 2.1,0.5 3.2,0.7 1,0.2 2,0.5 3,0.6 0,0 22.8,-0.4 64.1,-0.8 0.4,0 0.8,-0.1 1.2,-0.1 4.8,-0.4 9.6,-0.7 14.4,-1 5.7,-0.4 11.5,-0.8 17.2,-1.1 1.2,-0.1 2.4,-0.2 3.6,-0.2 3,-0.2 6.1,-0.3 9.1,-0.5 7.1,-0.4 14.3,-0.8 21.4,-1.1 10.1,-0.5 20.3,-0.9 30.4,-1.3 l 44.5,-1.2 c 11.9,-0.2 23.8,-0.4 35.6,-0.4 v 0 0 c 8.1,0 16.2,0.1 24.3,0.2 0,0 0,0 -0.1,0 0,0 0,0 0.1,0 l 69,1.9 c 15.9,0.7 31.9,1.4 47.8,2.3 4.4,0.2 8.7,0.5 13,0.8 0.3,0 0.6,0 0.9,0.1 5.1,0.3 10.2,0.7 15.3,1.1 24.2,0.1 49.1,0.3 74.8,0.6 v 0 0 c 0.9,-0.2 1.7,-0.4 2.6,-0.6 5.7,-1.4 -54,-9.8 -105.6,-15.1 z"
   id="path160"
   inkscape:connector-curvature="0"
   style="fill:#2d3136" />
	</g>
	<g
   id="g168">
		<g
   id="g166">
			<path
   class="st1"
   d="m 650.3,583.4 c -0.9,0 -1.8,-0.2 -2.7,-0.7 -0.5,-0.3 -12.1,-24.9 -12.1,-24.9 0,0 17.4,15.4 17.5,15.4 2.6,1.5 3.5,4.8 2,7.4 -1,1.8 -2.8,2.8 -4.7,2.8 z"
   id="path164"
   inkscape:connector-curvature="0"
   style="fill:#2d3136" />
		</g>
	</g>
	<g
   class="st7"
   id="g172"
   style="opacity:0.75">
		<path
   class="st8"
   d="M 236.2,197.6 164.4,218 c -4.3,27.9 -3,49.2 -2.3,56.7 l 0.4,-0.2 c 0,0 2.3,-30.4 7.1,-42.1 2.5,-6 17.5,-9.8 28.9,-12.6 11.5,-2.7 29.8,-8.2 33.3,7.9 2.2,10 5.2,18.2 8.1,24.4 -4.6,-22.1 -4.3,-43.8 -3.7,-54.5 z"
   id="path170"
   inkscape:connector-curvature="0"
   style="fill:#ebd599" />
	</g>
	<g
   class="st7"
   id="g176"
   style="opacity:0.75">
		<path
   class="st8"
   d="m 487.5,197.6 c 0.6,11.1 0.9,34 -4.3,57.1 3.3,-6.3 6.9,-15.5 9.4,-26.9 3.6,-16.1 21.9,-10.7 33.3,-7.9 11.5,2.7 26.5,6.6 29,12.6 4,9.9 6.3,33.2 6.9,40.1 0.7,-8.9 1.4,-28.9 -2.5,-54.5 z"
   id="path174"
   inkscape:connector-curvature="0"
   style="fill:#ebd599" />
	</g>
	<g
   class="st7"
   id="g180"
   style="opacity:0.75">
		<path
   class="st8"
   d="m 262.5,203.8 c 2.5,2 5.2,4 7.8,5.8 1.3,0.9 2,2.3 2.1,3.8 0,0.2 0.6,23.9 11,44 0.2,0.3 0.3,0.6 0.4,0.9 26,-1.8 52.1,-2.5 78.1,-2.5 26,0 52.1,0.8 78.1,2.6 0.1,-0.3 0.2,-0.7 0.4,-1 10.4,-20.1 11,-43.8 11,-44 0,-1.5 0.8,-3 2.1,-3.8 2.5,-1.7 5,-3.6 7.5,-5.6 l 0.3,-0.9 C 466.7,150.2 456.8,101.4 450.4,77.3 450,93.8 446.1,235 411.1,235 c -37.2,0 -44.6,0 -44.6,0 H 359 c 0,0 -7.4,0 -44.6,0 -37.2,0 -40.2,-159.2 -40.2,-159.2 l -1.9,5.7 c -6.3,25.4 -15.1,72 -9.8,122.3 z"
   id="path178"
   inkscape:connector-curvature="0"
   style="fill:#ebd599" />
	</g>
	<g
   class="st7"
   id="g184"
   style="opacity:0.75">
		<path
   class="st8"
   d="m 153.2,279.5 c 0,-0.2 -0.1,-0.4 -0.1,-0.6 -0.1,-0.8 -1.9,-14 -0.8,-34.8 -3.9,15.9 -11,36.8 -22.1,44 6.7,-3.1 13.6,-5.5 20.6,-7.8 0.8,-0.3 1.6,-0.6 2.4,-0.8 z"
   id="path182"
   inkscape:connector-curvature="0"
   style="fill:#ebd599" />
	</g>
	<g
   id="g188">
		<path
   class="st1"
   d="M 443.4,678.1 C 417,688.8 392.1,693 373,694.2 c -19.1,1.3 -38.5,-1 -57.5,-6.1 -0.1,0 -0.2,0 -0.3,0.1 l -25.4,3.7 c 48.7,17.8 102.4,18.9 153.3,-0.4 13.9,-5.3 26.5,-11.7 38.1,-18.8 -0.6,0.1 -22.2,5.1 -37.7,5.5 0,0 0,-0.1 -0.1,-0.1 z"
   id="path186"
   inkscape:connector-curvature="0"
   style="fill:#2d3136" />
	</g>
	<g
   id="g192">
		<path
   class="st1"
   d="m 185.2,596.2 c 0,0 52.7,74.4 130,91.9 l -9.7,4.2 -15.7,-0.5 c 0,0 -60.8,-17.4 -117.7,-92 l 0.7,-10.2 z"
   id="path190"
   inkscape:connector-curvature="0"
   style="fill:#2d3136" />
	</g>
	<g
   id="g206">
		<g
   id="g196">
			<path
   class="st1"
   d="m 595.5,289.1 c 0,0 -0.1,0 -0.1,-0.1 -0.6,-0.3 -1.3,-0.7 -1.9,-1.1 -6.6,-3.1 -13.6,-5.4 -20.6,-7.7 -0.8,-0.3 -1.6,-0.5 -2.5,-0.7 0.1,-0.2 0.1,-0.4 0.2,-0.6 0.1,-0.8 1.9,-14 0.8,-34.8 -0.5,-8.9 -1.4,-19.2 -3.3,-30.5 -0.3,-1.8 -1.6,-3.3 -3.4,-3.8 l -10.2,-2.9 C 552.3,127.7 519.7,90.5 518.7,89.3 c 29.1,46.9 28.9,102.5 28.4,115.5 l -63.5,-18 c 0,0 -0.1,0 -0.1,0 -0.3,-0.1 -0.5,-0.1 -0.8,-0.1 -0.1,0 -0.1,0 -0.2,0 -0.3,0 -0.7,0 -1,0.1 0,0 -0.1,0 -0.2,0 -0.3,0.1 -0.5,0.1 -0.8,0.3 -0.1,0 -0.2,0.1 -0.3,0.1 -0.2,0.1 -0.4,0.3 -0.6,0.4 0,0 -0.1,0.1 -0.1,0.1 -0.1,0 -0.1,0.1 -0.1,0.1 -0.1,0.1 -0.1,0.1 -0.2,0.1 -0.1,0.1 -1.8,1.7 -4.4,4.2 0.2,-5.9 0.2,-15 -0.4,-26.1 -0.1,-1 -0.1,-2.1 -0.2,-3.2 -2,-27.9 -8.6,-67 -28.3,-101.3 0.2,0.5 2.1,6.2 4.6,15.8 6.3,24.1 16.3,72.9 10.9,125.8 0,0.2 0,0.5 -0.1,0.7 -0.1,0.1 -0.2,0.1 -0.3,0.2 -2.5,2 -5,3.9 -7.5,5.6 -1.3,0.9 -2,2.3 -2.1,3.8 0,0.2 -0.6,23.9 -11,44 -0.2,0.3 -0.3,0.7 -0.4,1 -26,-1.8 -52,-2.5 -78.1,-2.6 -26,0 -52.1,0.7 -78.1,2.5 -0.1,-0.3 -0.2,-0.6 -0.4,-0.9 -10.5,-20.1 -11,-43.8 -11,-44 0,-1.5 -0.8,-3 -2.1,-3.8 -2.6,-1.8 -5.3,-3.7 -7.8,-5.8 -5.3,-50.3 3.4,-97 9.8,-122.4 3,-12.1 5.5,-19.3 5.7,-19.9 -28.6,49.7 -29.5,109.7 -28.9,130.6 -2.7,-2.5 -4.4,-4.2 -4.4,-4.2 0,0 -0.1,-0.1 -0.2,-0.1 0,0 -0.1,-0.1 -0.1,-0.1 0,0 -0.1,-0.1 -0.2,-0.1 -0.2,-0.1 -0.4,-0.3 -0.6,-0.4 -0.1,-0.1 -0.2,-0.1 -0.3,-0.2 -0.3,-0.1 -0.5,-0.2 -0.8,-0.3 -0.1,0 -0.1,-0.1 -0.2,-0.1 -0.4,-0.1 -0.7,-0.1 -1,-0.1 -0.1,0 -0.2,0 -0.3,0 -0.3,0 -0.5,0.1 -0.8,0.1 -0.1,0 -0.1,0 -0.2,0 l -63.4,18 c -0.5,-13 -0.8,-68.6 28.4,-115.5 -1,1.2 -33.6,38.4 -35.8,117.6 l -10.2,2.9 c -1.8,0.5 -3.1,2 -3.4,3.8 -1.9,11.3 -2.8,21.5 -3.3,30.4 -1.1,20.8 0.7,34.1 0.8,34.8 0,0.2 0.1,0.4 0.1,0.6 -0.8,0.3 -1.6,0.5 -2.5,0.7 -7,2.3 -14,4.7 -20.6,7.8 -0.6,0.4 -1.2,0.8 -1.9,1.1 0,0 -0.1,0 -0.1,0.1 -0.3,0.2 -1.6,0.8 -3,1.5 -0.6,0.3 -1.1,0.5 -1.6,0.8 0,0 0,0 0,0 -0.3,0.2 -0.7,0.4 -1,0.5 4.7,-1.8 9.6,-3.2 14.4,-4.4 4.9,-1.2 9.8,-2.3 14.7,-3.2 9.9,-1.8 19.8,-3.4 29.7,-4.6 9.9,-1.3 19.9,-2.4 29.9,-3.2 10,-0.9 20,-1.7 30,-2.3 40.1,-2.4 80.2,-3.1 120.4,-3.1 40.2,0 80.4,0.7 120.4,3.1 10,0.6 20,1.4 30,2.3 10,0.9 20,1.9 29.9,3.3 10,1.2 19.9,2.8 29.7,4.6 4.9,0.9 9.8,2 14.7,3.2 4.9,1.2 9.7,2.5 14.5,4.4 -0.3,-0.2 -0.5,-0.3 -0.8,-0.4 -0.6,-0.3 -1.2,-0.6 -1.8,-0.9 -1.1,-0.7 -2.3,-1.3 -2.7,-1.4 z M 240.4,262.4 c -10.1,1.2 -20.2,2.5 -30.2,4.2 -10,1.7 -20,3.5 -29.9,5.7 -6,1.4 -12,2.9 -18,4.5 -0.1,-0.5 -0.1,-1.2 -0.2,-2.1 -0.7,-7.4 -2,-28.7 2.3,-56.7 l 71.8,-20.4 c -0.5,10.7 -0.8,32.3 3.8,54.5 0.6,3.1 1.4,6.1 2.2,9.2 0.1,0.3 0.2,0.6 0.3,0.9 -0.7,0.1 -1.4,0.1 -2.1,0.2 z m 10.8,-1.2 c 0.2,-0.8 0.2,-1.6 0,-2.4 -5.9,-21.5 -6.2,-44.5 -5.8,-57.2 4.8,4.3 11.2,9.8 17.7,14.4 0.4,6.6 2.2,25.4 10.7,43.1 -7.6,0.7 -15.1,1.3 -22.6,2.1 z m 221.3,-2.4 c -0.2,0.8 -0.2,1.7 0,2.5 -7.5,-0.8 -15,-1.5 -22.6,-2.1 8.4,-17.7 10.3,-36.5 10.7,-43.2 6.5,-4.6 12.9,-10.1 17.7,-14.4 0.4,12.7 0.1,35.7 -5.8,57.2 z m 89.3,13.7 c -0.2,2.1 -0.3,3.6 -0.4,4.3 -5.9,-1.6 -11.9,-3.1 -18,-4.5 -19.9,-4.4 -39.9,-7.6 -60.1,-9.9 -0.7,-0.1 -1.4,-0.1 -2.1,-0.2 0.1,-0.3 0.3,-0.6 0.3,-0.9 0.6,-2.2 1.1,-4.4 1.6,-6.6 5.2,-23 4.9,-46 4.3,-57.1 l 71.8,20.4 c 4.1,25.6 3.3,45.6 2.6,54.5 z"
   id="path194"
   inkscape:connector-curvature="0"
   style="fill:#2d3136" />
		</g>
		<g
   id="g200">
			<path
   class="st1"
   d="m 366.5,245.9 c 0,0 6,0 33.7,0 V 200.5 H 385.8 V 120 h 9.5 v 17.4 h 42.2 V 77.8 H 288.9 v 59.6 h 42.2 V 120 h 9.5 v 80.4 h -14.3 v 45.4 c 27,0 32.8,0 32.8,0 h 7.4 z m -27.6,-32.7 h 14.4 V 107.4 h -34.9 v 17.4 H 301.5 V 90.5 h 71.6 33.3 18.4 v 34.3 H 408 v -17.4 h -34.9 v 105.8 h 14.4 v 19.6 H 339 v -19.6 z"
   id="path198"
   inkscape:connector-curvature="0"
   style="fill:#2d3136" />
		</g>
		<g
   id="g204">
			<path
   class="st1"
   d="m 80.5,356.4 c -1.8,-0.8 -3.6,-1.7 -5.1,-2.4 l -4.2,-2 c -0.7,-0.3 -1.4,-0.7 -2.1,-1 v 0 c 0,0 0,0 0,0 l -0.6,-1.1 c -0.5,-1 -1,-2 -1.4,-3 -0.8,-1.8 -1.6,-3.6 -2.3,-5.5 -0.1,-0.3 -0.2,-0.5 -0.3,-0.8 -1.6,-4.3 -3.1,-8.8 -4.3,-13.3 -2.5,-9 -4.3,-18.4 -5.6,-27.8 -0.4,-3 -0.7,-6 -1,-9 -0.6,-6.4 -0.9,-12.9 -0.8,-19.3 0,-2.1 0.1,-4.2 0.2,-6.4 0.1,-2.6 0.2,-5.2 0.5,-7.9 0.2,-2.4 0.5,-4.7 0.7,-7 0.2,-1.6 0.5,-3.4 0.7,-5 6.3,-5.3 13.4,-10 20.8,-14.3 8,-4.7 16.5,-8.9 25,-12.8 8.6,-4 17.3,-7.7 26.1,-11.2 4.4,-1.8 8.9,-3.5 13.3,-5.2 0.6,-0.2 1.2,-0.4 1.8,-0.7 3.9,-1.5 7.7,-2.9 11.6,-4.3 -9.4,1.6 -18.8,3.7 -28.1,6.1 -6,1.5 -12,3.3 -18,5.2 42.4,-111 143.8,-183.1 254.5,-183.1 17.3,0 34.4,1.8 51,5.2 89.9,18.3 167.6,84.3 203.4,177.8 0,0 0,0 0,0 0,0 0,0 0,0 -5.9,-1.9 -12,-3.6 -18,-5.2 -9.3,-2.4 -18.6,-4.5 -28,-6.1 3.9,1.4 7.8,2.8 11.7,4.3 0.6,0.2 1.2,0.4 1.7,0.6 4.5,1.7 8.9,3.4 13.3,5.2 8.8,3.6 17.6,7.2 26.1,11.2 8.6,3.9 17,8.1 25.1,12.8 7.4,4.3 14.6,9 20.8,14.3 0.3,1.6 0.6,3.3 0.8,5 0.3,2.3 0.5,4.7 0.7,7 0.4,4.7 0.6,9.5 0.6,14.2 0.1,9.5 -0.6,19 -1.8,28.4 -1.3,9.4 -3,18.8 -5.6,27.8 -1.3,4.5 -2.7,9 -4.3,13.3 -0.8,2.2 -1.7,4.3 -2.7,6.4 -0.5,1 -1,2.1 -1.5,3 l -0.6,1.2 c -0.7,0.3 -1.4,0.7 -2.1,1 l -4.2,2 c -1.5,0.7 -3,1.3 -4.5,2 l -9.6,36.5 5.1,-19.2 c 1.8,-0.8 3.7,-1.5 5.8,-2.4 3.1,-1.2 6.1,-2.4 9.2,-3.7 l 4.5,-2 c 1.6,-0.7 3,-1.4 4.7,-2.3 l 1.6,-0.8 1,-1.6 c 0.6,-0.9 0.9,-1.3 1.2,-2 l 1,-1.8 c 0.7,-1.2 1.3,-2.4 1.8,-3.6 1.1,-2.4 2.2,-4.8 3.1,-7.3 1.9,-4.9 3.5,-9.7 4.9,-14.7 2.7,-9.9 4.6,-20 5.7,-30.1 1.2,-10.1 1.4,-20.4 0.9,-30.6 -0.2,-5.1 -0.8,-10.2 -1.5,-15.2 -0.3,-2.5 -0.7,-5.1 -1.2,-7.6 -0.5,-2.6 -1,-5 -1.8,-7.8 l -0.5,-2 -1.4,-1.1 c -8,-6.3 -16.7,-11.1 -25.5,-15.3 C 645.5,218 638.2,215 630.7,212.2 609.9,154.5 574.1,103.3 527.1,67.6 478.5,30.7 421.4,11.2 361.8,11.2 c -59.5,0 -116.7,19.5 -165.3,56.4 -47,35.7 -82.8,86.8 -103.6,144.6 -7.4,2.7 -14.8,5.7 -22.1,9.2 -8.8,4.2 -17.5,9 -25.5,15.3 l -1.4,1.1 -0.5,2 c -0.8,2.8 -1.3,5.2 -1.8,7.8 -0.5,2.5 -0.9,5 -1.2,7.6 -0.7,5 -1.2,10.1 -1.5,15.2 -0.5,10.2 -0.2,20.4 0.9,30.6 1.1,10.1 3,20.2 5.7,30.1 1.4,4.9 3,9.8 4.9,14.7 0.9,2.4 2,4.8 3.1,7.3 0.6,1.2 1.2,2.4 1.8,3.6 l 1,1.8 c 0.4,0.7 0.6,1.1 1.2,2 l 1,1.6 1.6,0.8 c 1.7,0.9 3.1,1.6 4.7,2.3 l 4.5,2 c 0.8,0.3 1.6,0.7 2.5,1 l 11.7,-10.4 c -0.8,-0.4 -1.9,-0.9 -3,-1.4 z"
   id="path202"
   inkscape:connector-curvature="0"
   style="fill:#2d3136" />
		</g>
	</g>
	<g
   id="g210">
		<polygon
   class="st2"
   points="424.8,124.8 408,124.8 408,107.4 373.1,107.4 373.1,213.2 387.4,213.2 387.4,232.8 338.9,232.8 338.9,213.2 353.3,213.2 353.3,107.4 318.4,107.4 318.4,124.8 301.5,124.8 301.5,90.5 373.1,90.5 406.4,90.5 424.8,90.5 "
   id="polygon208"
   style="fill:#cb3349" />
	</g>
	<g
   id="g214">
		<path
   class="st1"
   d="m 481.2,672.7 c 0,0 67.8,-43 95.6,-109.2 l -8.4,-3.1 -6.6,6.1 c 0,0 -48.9,82 -118.3,111.6 l -0.9,4.7 z"
   id="path212"
   inkscape:connector-curvature="0"
   style="fill:#2d3136" />
	</g>
	<g
   id="g218">
		<path
   class="st1"
   d="m 409.4,510.2 c 0,0 -16,14.9 -41.9,18.2 -25.8,3.3 -46.1,-12.5 -46.1,-12.5 0.9,2.7 2.1,8.9 7.8,14.2 h -0.1 c 0,0 0,0 0.1,0 0,0 0,0 0,0 h 0.1 c 1.1,1.4 12.6,10.9 35.6,10.9 17.4,0 30.5,-10.1 32.7,-11.6 l 0.5,-0.1 H 398 c 11.3,-8.3 11.4,-19.1 11.4,-19.1 z"
   id="path216"
   inkscape:connector-curvature="0"
   style="fill:#2d3136" />
	</g>
	<g
   id="g222">
		<path
   class="st9"
   d="m 491.8,517.1 c -73.7,0 -105.5,-54.4 -114.2,-90.4 -4.4,-1.3 -9.5,-2.4 -13.1,-2.4 -3.6,0 -8.6,1.1 -13.1,2.4 -8.7,36 -40.5,90.4 -114.2,90.4 C 140.1,517.1 75.4,486 75.4,334.3 v -8.6 l 7,-4.9 c 3.3,-2.3 80.8,-54.2 245.4,7.2 7.6,-2.8 20.6,-6.4 36.7,-5.8 16.1,-0.6 29.1,3 36.7,5.8 164.5,-61.4 242.1,-9.5 245.4,-7.2 l 7,4.9 v 8.6 c 0,151.7 -64.7,182.8 -161.8,182.8 z M 364.5,391.5 c 15.5,0 34.3,8 34.5,8 l 7.9,3.8 1.2,8.7 c 0.4,2.9 11.2,72.3 83.7,72.3 47.3,0 75.6,-7.6 94.6,-25.5 22,-20.7 33.2,-58.3 34.4,-114.8 -8.1,-3.7 -23.2,-9.1 -45.6,-11.7 -33.1,-3.8 -89.3,-1.9 -168.5,28.6 l -7,2.7 -6.5,-3.5 c -0.7,-0.3 -12,-5.9 -27.9,-5.2 h -0.7 -0.7 c -16.3,-0.7 -27.8,5.2 -28,5.2 l -6.6,3.6 -6.9,-2.8 c -79.2,-30.5 -135.3,-32.4 -168.5,-28.6 -22.3,2.6 -37.4,8 -45.6,11.7 1.1,56.5 12.4,94.1 34.4,114.8 19,17.9 47.3,25.5 94.6,25.5 73.1,0 83.3,-69.3 83.7,-72.3 l 1.2,-8.7 7.9,-3.8 c 0,-0.1 18.9,-8 34.4,-8 z"
   id="path220"
   inkscape:connector-curvature="0"
   style="fill:#656d68" />
	</g>
	<g
   id="g228">
		<g
   id="g226">
			<path
   class="st1"
   d="m 665.3,618 c 3.6,-16 2.7,-19.1 1.1,-23.2 -3.6,-9.2 -7.7,-11 -8.1,-11.2 -2.4,-1.8 -5.8,-1.3 -7.6,1.2 -1.8,2.4 -1.3,5.8 1.1,7.6 0.3,0.2 3.9,2.5 7.9,8 1.8,2.5 3.1,5.9 5.6,17.6 z"
   id="path224"
   inkscape:connector-curvature="0"
   style="fill:#2d3136" />
		</g>
	</g>
	<g
   id="g232">
		<circle
   class="st10"
   cx="248.89999"
   cy="397"
   r="10.9"
   id="circle230"
   style="fill:#ffffff" />
	</g>
	<g
   id="g236">
		<circle
   class="st10"
   cx="481.70001"
   cy="397"
   r="10.9"
   id="circle234"
   style="fill:#ffffff" />
	</g>
	<g
   id="g242">
		<g
   id="g240">
			<path
   class="st1"
   d="m 491.8,522.5 c -69.6,0 -106.7,-46.7 -118.7,-91.5 -3.6,-0.9 -6.6,-1.4 -8.6,-1.4 -2,0 -5,0.5 -8.6,1.4 -12,44.8 -49.1,91.5 -118.7,91.5 -57.4,0 -94.7,-11.1 -121.1,-36 C 85.1,457.2 70,407.4 70,334.2 v -12.9 l 11.7,-6.4 c 9.7,-5.8 31.4,-16.3 67.3,-20.5 52.3,-6.2 112.5,3.2 178.9,27.8 8.4,-2.9 21.1,-6 36.6,-5.5 15.5,-0.5 28.2,2.5 36.6,5.5 66.4,-24.6 126.6,-34 178.9,-27.8 35.9,4.2 57.6,14.7 67.3,20.5 l 0.4,0.2 11.3,6.2 v 12.9 c 0,73.1 -15.1,122.9 -46.2,152.3 -26.3,24.9 -63.7,36 -121,36 z M 364.5,418.8 c 4.5,0 10.4,1.4 14.6,2.7 l 3,0.9 0.7,3.1 c 3.5,14.4 25.1,86.3 108.9,86.3 54.4,0 89.4,-10.2 113.6,-33 28.8,-27.2 42.8,-74.4 42.8,-144.3 V 328 l -5.7,-3.1 c -0.1,-0.1 -0.4,-0.2 -0.7,-0.4 -13.8,-8.3 -90.2,-46.7 -238.6,8.9 l -1.9,0.7 -1.9,-0.7 c -7.5,-2.8 -19.6,-6 -34.6,-5.5 h -0.2 -0.2 c -15.1,-0.5 -27.1,2.7 -34.6,5.5 l -1.9,0.7 -1.9,-0.7 c -65.5,-24.5 -124.6,-33.9 -175.6,-27.9 -35.1,4.2 -55.8,14.7 -63,19 -0.3,0.2 -0.6,0.3 -0.7,0.4 l -5.7,3.1 v 6.5 c 0,69.9 14,117.2 42.8,144.3 24.2,22.8 59.2,33 113.6,33 83.8,0 105.4,-71.9 108.9,-86.3 l 0.7,-3.1 3,-0.9 c 4.2,-1.3 10.1,-2.7 14.6,-2.7 z m 127.3,71 c -77.1,0 -88.7,-73.8 -89.1,-77 l -0.8,-5.8 -5.2,-2.6 v 0 c 0,0 -17.8,-7.5 -32.1,-7.5 -14.4,0 -32.2,7.5 -32.3,7.6 l -5,2.5 -0.8,5.8 c -0.4,3.1 -11.3,77 -89.1,77 -48.8,0 -78.2,-8.1 -98.3,-27 -22.9,-21.6 -34.7,-60 -36.1,-117.3 l -0.1,-4.1 3.9,-1.2 c 1.1,-0.3 2.2,-0.7 3.5,-1.1 26.4,-8.5 88.3,-28.5 205.9,16.8 l 5,2 c 6.1,-2.3 23.9,-8.4 42.8,-8.4 19,0 37.9,6.2 44,8.4 l 5.1,-2 c 117.7,-45.4 179.5,-25.4 205.9,-16.8 1.3,0.4 2.4,0.8 3.5,1.1 l 3.9,1.2 -0.1,4.1 c -1.3,57.3 -13.1,95.7 -36.1,117.3 -20.2,18.9 -49.6,27 -98.4,27 z M 364.5,386 c 17.1,0 36.7,8.5 36.9,8.6 l 10.5,5.1 1.6,11.6 c 0.4,2.7 10.5,67.6 78.3,67.6 45.8,0 72.9,-7.2 90.8,-24 20.2,-19 30.8,-53.6 32.5,-105.5 -25.5,-8.2 -84.7,-27 -198.3,16.7 l -9,3.5 -2,-0.8 c -0.2,-0.1 -21.5,-8.4 -42,-8.4 -20.5,0 -40.5,8.3 -40.7,8.4 l -2.1,0.9 -9,-3.6 C 198.6,322.4 139.3,341.2 113.8,349.4 c 1.7,51.9 12.4,86.5 32.5,105.5 17.9,16.9 45.1,24 90.8,24 68.4,0 77.9,-64.8 78.3,-67.6 l 1.6,-11.6 10.5,-5.1 c 0.3,-0.1 19.9,-8.6 37,-8.6 z"
   id="path238"
   inkscape:connector-curvature="0"
   style="fill:#2d3136" />
		</g>
	</g>
	<g
   id="g260">
		<g
   id="g246">
			<path
   class="st1"
   d="m 515,376.4 c -0.1,0.5 -2.6,9 -15.7,8.4 0.7,1.3 1.1,-2.7 -6,-6.9 9.1,0.7 15.7,1.6 21.7,-1.5 z"
   id="path244"
   inkscape:connector-curvature="0"
   style="fill:#2d3136" />
		</g>
		<g
   id="g250">
			<path
   class="st1"
   d="m 518.8,381.5 c -0.1,0.5 -2.6,9 -15.7,8.4 0.7,1.3 1.1,-2.7 -6,-6.9 9.1,0.7 15.7,1.7 21.7,-1.5 z"
   id="path248"
   inkscape:connector-curvature="0"
   style="fill:#2d3136" />
		</g>
		<g
   id="g254">
			<path
   class="st1"
   d="m 521.7,387.8 c -0.1,0.5 -2.6,9 -15.7,8.4 0.7,1.3 1.1,-2.7 -6,-6.9 9.1,0.8 15.7,1.7 21.7,-1.5 z"
   id="path252"
   inkscape:connector-curvature="0"
   style="fill:#2d3136" />
		</g>
		<g
   id="g258">
			<path
   class="st1"
   d="m 480.3,441.3 c 1.2,0.2 2.3,0.3 3.4,0.4 15.6,1.4 22,-6.5 22,-6.5 2.2,-3.2 3.6,-7.8 4.2,-14.3 2,-23.5 -8.5,-44.2 -23.4,-46.1 -14.9,-1.9 -27.6,15.8 -30.6,39.3 -2.9,23.4 9.5,25.3 24.4,27.2 z M 474,395.9 c 0.6,-4.2 4.5,-7.1 8.7,-6.5 4.2,0.6 7.1,4.5 6.5,8.7 -0.6,4.2 -4.5,7.1 -8.7,6.5 -4.2,-0.6 -7.1,-4.6 -6.5,-8.7 z"
   id="path256"
   inkscape:connector-curvature="0"
   style="fill:#2d3136" />
		</g>
	</g>
	<g
   id="g278">
		<g
   id="g264">
			<path
   class="st1"
   d="m 215.5,375.9 c 0.1,0.5 2.4,9.1 15.6,8.6 -0.7,1.3 -1,-2.7 6.1,-6.8 -9.1,0.7 -15.8,1.5 -21.7,-1.8 z"
   id="path262"
   inkscape:connector-curvature="0"
   style="fill:#2d3136" />
		</g>
		<g
   id="g268">
			<path
   class="st1"
   d="m 211.6,381 c 0.1,0.5 2.4,9.1 15.6,8.6 -0.7,1.3 -1,-2.7 6.1,-6.8 -9.1,0.6 -15.8,1.5 -21.7,-1.8 z"
   id="path266"
   inkscape:connector-curvature="0"
   style="fill:#2d3136" />
		</g>
		<g
   id="g272">
			<path
   class="st1"
   d="m 208.6,387.3 c 0.1,0.5 2.4,9.1 15.6,8.6 -0.7,1.3 -1,-2.7 6.1,-6.8 -9.2,0.6 -15.8,1.5 -21.7,-1.8 z"
   id="path270"
   inkscape:connector-curvature="0"
   style="fill:#2d3136" />
		</g>
		<g
   id="g276">
			<path
   class="st1"
   d="m 273.9,414.6 c -2.6,-23.5 -15,-41.4 -29.9,-39.7 -14.9,1.7 -25.8,22.2 -24.1,45.8 0.4,6.5 1.9,11.1 4,14.3 0,0 6.3,8 21.9,6.8 1.1,-0.1 2.2,-0.2 3.4,-0.4 14.9,-1.7 27.4,-3.3 24.7,-26.8 z m -24.3,-9.9 c -4.2,0.5 -8.1,-2.4 -8.6,-6.6 -0.6,-4.2 2.4,-8.1 6.6,-8.6 4.2,-0.5 8.1,2.4 8.6,6.6 0.5,4.2 -2.4,8 -6.6,8.6 z"
   id="path274"
   inkscape:connector-curvature="0"
   style="fill:#2d3136" />
		</g>
	</g>
	<g
   id="g282">
		<path
   class="st11"
   d="m 420.1,600.7 c 0,0 -18.7,-4.9 -24.5,-4.9 -5.8,0 -31.8,7.2 -31.8,7.2 l -31.8,-12.7 -24.5,10.3 30.7,10.8 h 20.2 l 5.6,2.7 c 0,0 17.4,-1.3 25.7,-2.7 8.3,-1.4 30.7,-10.8 30.7,-10.8 l 19.4,-10.9"
   id="path280"
   inkscape:connector-curvature="0"
   style="fill:#414042" />
	</g>
	<g
   id="g286">
		<path
   class="st10"
   d="m 361,603 c 0,0 0,3.7 2.7,3.7 2.7,0 33.4,-0.2 53.8,-6 l -16.3,-9.7 -39.6,1.1 z"
   id="path284"
   inkscape:connector-curvature="0"
   style="fill:#ffffff" />
	</g>
	<g
   id="g290">
		<path
   class="st10"
   d="m 365.6,603 c 0,0 0,3.7 -2.7,3.7 -2.7,0 -33.4,-0.2 -53.8,-6 l 16.3,-9.7 39.6,1.1 z"
   id="path288"
   inkscape:connector-curvature="0"
   style="fill:#ffffff" />
	</g>
	<g
   id="g294">
		<path
   class="st12"
   d="m 445,587 c -0.1,-0.1 -0.2,0 -0.2,0 0,0 -15.7,7.3 -24,-1 -8.3,-8.3 -21.4,-16.4 -31.8,-16.4 -8.8,0 -21.1,7.4 -24.5,9.6 -4,-2.2 -18.3,-9.6 -27.1,-9.6 -10.3,0 -23.5,8.2 -31.8,16.4 -8.3,8.3 -24,1 -24,1 0,0 -0.1,0 -0.2,0 -0.1,0.1 0,0.1 0,0.1 l 27.7,29.5 c 0,0 13.8,15.5 21.8,19.8 8,4.3 26.4,7.5 31.7,7.5 0.1,0 0.7,0 0.7,0 v 0 c 0.1,0 0.3,0 0.3,0 5.3,0 23.7,-3.2 31.7,-7.5 8,-4.3 21.8,-19.8 21.8,-19.8 l 27.7,-29.5 c 0.2,0.1 0.3,0 0.2,-0.1 z m -24.8,13.7 c 0,0 -22.4,9.4 -30.7,10.8 -8.3,1.4 -26,2.7 -26,2.7 0,0 -18.1,-1.3 -26.4,-2.7 -8.3,-1.4 -30.7,-10.8 -30.7,-10.8 h -0.1 0.2 c 0,0 18.7,-4.9 24.5,-4.9 5.8,0 31.8,7.2 31.8,7.2 0,0 0.2,0 0.4,0 0.1,0 0.3,0 0.3,0 0.1,0 26,-7.2 31.8,-7.2 5.8,0 24.5,4.9 24.5,4.9 z"
   id="path292"
   inkscape:connector-curvature="0"
   style="fill:#b28c7f" />
	</g>
	<g
   id="g298">
		<path
   class="st1"
   d="m 363.5,616.9 h -0.2 c -0.7,-0.1 -18.3,-1.3 -26.7,-2.8 -8.5,-1.5 -30.4,-10.6 -31.3,-11 l -0.3,-0.1 -13.4,-7.3 14.7,2.2 c 3.5,-0.9 19.1,-4.8 24.7,-4.8 5.3,0 28.7,3.8 32.2,4.5 3.4,-0.7 26.8,-4.5 32.2,-4.5 5.6,0 21.1,3.9 24.7,4.8 l 14.5,-2.2 -13.4,7.5 c -0.9,0.4 -22.8,9.5 -31.3,11 -8.3,1.4 -25.5,2.7 -26.2,2.8 z m -48.1,-15.6 c 7.1,2.8 17.4,6.6 22.2,7.5 7.6,1.3 23.9,2.5 25.9,2.7 2,-0.1 17.9,-1.4 25.5,-2.7 4.9,-0.8 15.1,-4.6 22.2,-7.5 -5.9,-1.4 -12.9,-2.8 -15.7,-2.8 -5.2,0 -29.4,4.1 -31.3,4.4 0,0 -0.5,0.1 -0.9,0.1 -0.3,0 -0.8,-0.1 -0.8,-0.1 h -0.3 c -2.8,-0.5 -26.1,-4.4 -31.2,-4.4 -2.8,0 -9.7,1.4 -15.6,2.8 z"
   id="path296"
   inkscape:connector-curvature="0"
   style="fill:#2d3136" />
	</g>
	<g
   id="g308">
		<g
   id="g302">
			<polygon
   class="st2"
   points="630.3,594.3 666.3,585.3 665.2,576.8 627.8,585.3 "
   id="polygon300"
   style="fill:#cb3349" />
		</g>
		<g
   id="g306">
			<path
   class="st1"
   d="m 665.2,576.8 1.1,8.5 -36,9 -2.5,-9 37.4,-8.5 m 0,-5.5 c -0.4,0 -0.8,0 -1.2,0.1 l -37.4,8.5 c -1.5,0.3 -2.7,1.2 -3.5,2.5 -0.8,1.3 -1,2.8 -0.6,4.3 l 2.5,9 c 0.7,2.4 2.9,4 5.3,4 0.4,0 0.9,-0.1 1.3,-0.2 l 36,-9 c 2.7,-0.7 4.4,-3.2 4.1,-6 l -1.1,-8.5 c -0.2,-1.5 -1,-2.9 -2.3,-3.8 -0.9,-0.5 -2,-0.9 -3.1,-0.9 z"
   id="path304"
   inkscape:connector-curvature="0"
   style="fill:#2d3136" />
		</g>
	</g>
	<g
   class="st7"
   id="g312"
   style="opacity:0.75">
		<path
   class="st8"
   d="m 570.8,279.5 c 0,-0.2 0.1,-0.4 0.1,-0.6 0.1,-0.8 1.9,-14 0.8,-34.8 3.9,15.9 11,36.8 22.1,44 -6.7,-3.1 -13.6,-5.5 -20.6,-7.8 -0.7,-0.3 -1.6,-0.6 -2.4,-0.8 z"
   id="path310"
   inkscape:connector-curvature="0"
   style="fill:#ebd599" />
	</g>
	<path
   class="st1"
   d="m 443.1,583.3 c -0.1,0.1 -13.2,5.9 -19.3,-0.2 -8.8,-8.8 -22.9,-17.6 -34.7,-17.6 -8.5,0 -19,5.5 -24.7,9 -6.5,-3.4 -18.5,-9 -26.9,-9 -11.8,0 -25.9,8.9 -34.7,17.6 -6.1,6 -19.2,0.2 -19.4,0.1 0,0 -8.3,-3 -8.3,-1.9 0,1.1 31.1,38 31.1,38 0.6,0.7 14.4,16.1 22.9,20.7 8.9,4.8 28.2,8 33.6,8 0.3,0 0.5,0 0.7,0 h 0.3 c 5.4,0 24.8,-3.2 33.7,-8 8.5,-4.6 22.3,-20 22.8,-20.6 0,0 31,-37.2 31,-38.1 0.2,-1 -8.1,2 -8.1,2 z m -28.8,30.6 c -3.7,4.2 -14.7,15.7 -20.7,18.9 -7.2,3.9 -25,7 -29.7,7 h -0.6 -0.4 c -4.7,0 -22.5,-3.1 -29.7,-7 -6,-3.3 -17,-14.8 -20.8,-19 L 293.8,594 c 5.1,0.2 10.7,-0.9 14.9,-5.1 7.6,-7.6 19.9,-15.2 28.9,-15.2 6.2,0 17.1,4.7 25.1,9.1 l 2.1,1.2 2,-1.3 c 6.8,-4.3 16.2,-9 22.3,-9 8.9,0 21.3,7.7 28.9,15.2 4.3,4.3 9.8,5.3 14.9,5.1 z"
   id="path314"
   inkscape:connector-curvature="0"
   style="fill:#2d3136" />
</g>
<path
   style="fill:#c73249;fill-opacity:1;stroke-width:0.03723813"
   d="M 1.6868832,14.870007 C 1.663092,14.756978 1.5660189,14.493515 1.4711653,14.284532 1.3763117,14.07555 1.2894739,13.826954 1.2781926,13.732096 c -0.030222,-0.254121 0.047196,-0.522408 0.1988694,-0.689167 0.1116925,-0.122803 0.1252816,-0.129452 0.1003565,-0.0491 -0.035409,0.114147 -0.021391,0.414307 0.021338,0.456886 0.017215,0.01716 0.049704,-0.04165 0.0722,-0.130673 0.022496,-0.08903 0.079568,-0.198062 0.126827,-0.242305 0.077374,-0.07244 0.1025795,-0.07652 0.253239,-0.04096 0.3153167,0.0744 0.4333394,0.321242 0.3979237,0.832232 -0.024055,0.347071 -0.1307354,0.660097 -0.3005962,0.88202 -0.1072929,0.140179 -0.3311544,0.324488 -0.394123,0.324488 -0.013247,0 -0.043552,-0.09248 -0.067343,-0.205507 z"
   id="path175"
   inkscape:connector-curvature="0" /><path
   style="fill:#c73249;fill-opacity:1;stroke-width:0.03723813"
   d="m 1.9735829,12.5585 c -0.064976,-0.01505 -0.270629,-0.334917 -0.3362953,-0.523049 -0.0641,-0.183644 -0.014585,-0.399402 0.1897178,-0.826674 0.1013269,-0.211912 0.1760973,-0.393402 0.1661552,-0.403309 -0.00995,-0.0099 -0.069056,0.03066 -0.1313632,0.09015 -0.1342641,0.128183 -0.1598197,0.105516 -0.2235409,-0.19827 -0.044741,-0.2133 -0.00752,-0.479542 0.094545,-0.676217 0.04728,-0.091109 0.048073,-0.1274387 0.00543,-0.2490596 -0.027455,-0.078315 -0.06107,-0.2027303 -0.074702,-0.2764775 -0.024445,-0.1322494 -0.022351,-0.1350494 0.1529219,-0.2044513 0.097739,-0.038701 0.1935179,-0.076985 0.2128427,-0.085077 0.019324,-0.00809 -0.00158,0.031803 -0.046455,0.088652 -0.067353,0.085327 -0.08159,0.1517401 -0.08159,0.3806014 0,0.540945 0.2862809,1.619669 0.4865342,1.833292 0.083696,0.08928 0.1334742,0.109822 0.2661693,0.109822 H 2.817176 l -0.022595,0.269504 c -0.012428,0.148229 -0.050042,0.321878 -0.083588,0.385889 -0.085881,0.163876 -0.3620995,0.386105 -0.3620995,0.291325 0,-0.01088 0.025179,-0.07983 0.055955,-0.153231 0.084032,-0.200414 0.068589,-0.224791 -0.065281,-0.103059 -0.2325763,0.211497 -0.3081511,0.263047 -0.3659875,0.249642 z"
   id="path177"
   inkscape:connector-curvature="0" /><path
   style="fill:#c73249;fill-opacity:1;stroke-width:0.03723813"
   d="m 14.304633,15.005739 c -0.362482,-0.225104 -0.579309,-0.712607 -0.577383,-1.298162 8.31e-4,-0.252961 0.08229,-0.505448 0.189112,-0.58618 0.02889,-0.02184 0.115355,-0.05787 0.192128,-0.08007 0.130563,-0.03775 0.145335,-0.03355 0.228494,0.06493 0.0489,0.05791 0.100241,0.165498 0.114095,0.239085 0.01386,0.07359 0.03886,0.125375 0.05557,0.115083 0.04966,-0.03059 0.07484,-0.320715 0.03654,-0.421087 -0.04736,-0.124127 -0.01867,-0.143156 0.0995,-0.066 0.145787,0.09519 0.252262,0.366789 0.255769,0.652428 0.0026,0.214563 -0.01912,0.291054 -0.194188,0.682987 -0.108435,0.24275 -0.207226,0.514577 -0.219534,0.604061 -0.0123,0.08948 -0.03269,0.162635 -0.04529,0.162559 -0.0126,-7.6e-5 -0.07327,-0.03142 -0.134817,-0.06964 z"
   id="path179"
   inkscape:connector-curvature="0" /><path
   style="fill:#c73249;fill-opacity:1;stroke-width:0.03723813"
   d="m 13.743493,12.552847 c -0.166177,-0.100989 -0.309002,-0.285978 -0.337448,-0.43708 -0.02463,-0.130864 -0.0035,-0.396165 0.04511,-0.566612 0.02304,-0.08074 0.01852,-0.08437 -0.05577,-0.04474 -0.08212,0.0438 -0.1539,0.02661 -0.1539,-0.03686 0,-0.01924 0.09822,-0.03498 0.218254,-0.03498 0.33385,0 0.432929,-0.04865 0.522746,-0.256711 0.252381,-0.584626 0.432447,-1.8079054 0.301903,-2.0509781 -0.05661,-0.1054059 -0.0055,-0.3383933 0.07109,-0.3237059 0.16415,0.031502 0.222864,0.5607975 0.103903,0.9366468 -0.03888,0.1228194 -0.04628,0.2038673 -0.02264,0.2478767 0.09775,0.1820165 0.143444,0.4831935 0.105697,0.6967395 -0.05583,0.315878 -0.08141,0.342627 -0.2101,0.219764 -0.05852,-0.05587 -0.117513,-0.101573 -0.131105,-0.101573 -0.0136,0 0.04728,0.154732 0.135285,0.343849 0.229077,0.492304 0.264905,0.657577 0.194239,0.896027 -0.03118,0.105206 -0.104102,0.26185 -0.16204,0.348096 l -0.105352,0.156815 -0.19861,-0.173132 c -0.169931,-0.148132 -0.194548,-0.16004 -0.170481,-0.08246 0.01547,0.04987 0.05119,0.135834 0.07935,0.191043 0.02818,0.05521 0.05123,0.109574 0.05123,0.120812 0,0.046 -0.175414,0.01557 -0.281366,-0.04882 z"
   id="path181"
   inkscape:connector-curvature="0" /><path
   style="fill:#c73249;fill-opacity:1;stroke-width:0.03723813"
   d="m 1.4163114,9.1570895 c 0,-0.00873 0.091714,-0.1547904 0.2038086,-0.324576 C 1.7322147,8.662728 1.8434554,8.464853 1.8673212,8.3927913 1.9254261,8.2173473 1.9612322,8.2892381 1.9946236,8.6483867 l 0.026274,0.2825954 -0.2556638,0.1025795 c -0.1406151,0.056419 -0.276647,0.1108646 -0.3022931,0.1209911 -0.025646,0.01013 -0.046629,0.011269 -0.046629,0.00254 z"
   id="path183"
   inkscape:connector-curvature="0" /><path
   style="fill:#c73249;fill-opacity:1;stroke-width:0.03723813"
   d="m 2.908447,8.2966336 c 0,-0.068704 -0.010176,-0.1989117 -0.022617,-0.2893496 L 2.863213,7.8428515 3.063021,7.7814602 C 3.2577381,7.7216331 3.5578142,7.6630826 3.8596835,7.6260166 L 4.008897,7.6076948 3.82238,7.7746043 C 3.6087536,7.9657734 2.9870754,8.4215508 2.9399481,8.4215508 c -0.017326,0 -0.031501,-0.056213 -0.031501,-0.1249172 z"
   id="path185"
   inkscape:connector-curvature="0" /><path
   style="fill:#c73249;fill-opacity:1;stroke-width:0.03723813"
   d="M 4.1728336,8.2194765 C 4.2724288,8.0674455 4.385399,7.8655515 4.4238784,7.7708233 l 0.069963,-0.172233 0.186517,0.020003 c 0.1025847,0.011002 0.2829308,0.030804 0.4007702,0.044004 l 0.2142527,0.024 -0.1396463,0.112494 C 4.8720783,8.0275942 4.1026616,8.4958967 4.0108903,8.4958967 c -0.010527,0 0.062348,-0.124389 0.1619433,-0.2764202 z"
   id="path187"
   inkscape:connector-curvature="0" /><path
   style="fill:#c73249;fill-opacity:1;stroke-width:0.03723813"
   d="m 14.491151,8.5693731 c -0.08207,-0.038059 -0.147536,-0.086889 -0.145484,-0.1085099 0.0021,-0.021622 0.0063,-0.097859 0.0093,-0.1694178 0.003,-0.071559 0.0193,-0.1301054 0.03605,-0.1301054 0.01675,0 0.100021,0.1087309 0.185038,0.2416243 0.163822,0.2560666 0.153216,0.2768481 -0.08493,0.1664088 z"
   id="path193"
   inkscape:connector-curvature="0" /><path
   style="fill:#c73249;fill-opacity:1;stroke-width:0.03723813"
   d="M 13.175671,7.8745442 C 13.067663,7.8011567 12.986122,7.7343066 12.99447,7.7259884 c 0.0084,-0.00832 0.109307,0.012145 0.224355,0.045473 0.179936,0.052126 0.209178,0.073221 0.209178,0.1508919 0,0.1156777 -0.01625,0.1125981 -0.252332,-0.047809 z"
   id="path197"
   inkscape:connector-curvature="0" /><path
   style="fill:#c73249;fill-opacity:1;stroke-width:0.03723813"
   d="m 7.1050785,7.1383527 -0.2238204,-0.087783 0.2611238,-0.00234 c 0.143618,-0.00129 0.5045283,-0.011624 0.8020228,-0.022965 0.4952411,-0.018879 0.5330271,-0.015841 0.4476408,0.035992 -0.054092,0.032836 -0.1872571,0.057845 -0.3170789,0.059548 -0.1231011,0.00161 -0.2909664,0.017217 -0.3730338,0.034671 -0.3350249,0.071253 -0.3744169,0.070124 -0.5968543,-0.017117 z"
   id="path199"
   inkscape:connector-curvature="0" /></svg>