<svg xmlns="http://www.w3.org/2000/svg" viewBox="0 0 32 32" version="1.0" height="16" width="16"><path fill="#D13C3C" d="M29.743 9.75s-.275-2.166-1.12-3.12c-1.07-1.25-2.271-1.257-2.821-1.328-3.943-.32-9.855-.32-9.855-.32h-.014s-5.912 0-9.854.32c-.55.07-1.75.078-2.822 1.328-.843.954-1.119 3.12-1.119 3.12s-.282 2.54-.282 5.082v2.382c0 2.543.282 5.083.282 5.083s.275 2.165 1.12 3.116c1.072 1.25 2.478 1.213 3.105 1.343 2.253.241 9.577.316 9.577.316s5.92-.011 9.862-.327c.55-.073 1.75-.08 2.822-1.33.843-.952 1.119-3.117 1.119-3.117s.282-2.541.282-5.083v-2.382c0-2.542-.282-5.084-.282-5.084z"/><path fill="#fff" d="M12.423 10.505V21.55l8.805-5.523z"/></svg>