<?xml version="1.0" encoding="UTF-8" standalone="no"?>
<svg
   xmlns:dc="http://purl.org/dc/elements/1.1/"
   xmlns:cc="http://creativecommons.org/ns#"
   xmlns:rdf="http://www.w3.org/1999/02/22-rdf-syntax-ns#"
   xmlns:svg="http://www.w3.org/2000/svg"
   xmlns="http://www.w3.org/2000/svg"
   xmlns:sodipodi="http://sodipodi.sourceforge.net/DTD/sodipodi-0.dtd"
   xmlns:inkscape="http://www.inkscape.org/namespaces/inkscape"
   width="16"
   height="16"
   viewBox="0 0 16 16"
   version="1.1"
   id="svg10"
   sodipodi:docname="vscode.svg"
   inkscape:version="0.92.4 (5da689c313, 2019-01-14)">
  <metadata
     id="metadata16">
    <rdf:RDF>
      <cc:Work
         rdf:about="">
        <dc:format>image/svg+xml</dc:format>
        <dc:type
           rdf:resource="http://purl.org/dc/dcmitype/StillImage" />
      </cc:Work>
    </rdf:RDF>
  </metadata>
  <defs
     id="defs14" />
  <sodipodi:namedview
     pagecolor="#ffffff"
     bordercolor="#666666"
     borderopacity="1"
     objecttolerance="10"
     gridtolerance="10"
     guidetolerance="10"
     inkscape:pageopacity="0"
     inkscape:pageshadow="2"
     inkscape:window-width="1920"
     inkscape:window-height="1001"
     id="namedview12"
     showgrid="false"
     inkscape:zoom="18"
     inkscape:cx="-1.2467051"
     inkscape:cy="-0.98217494"
     inkscape:window-x="-9"
     inkscape:window-y="-9"
     inkscape:window-maximized="1"
     inkscape:current-layer="svg10" />
  <path
     d="m 1.0268195,6.0548306 c 0,0 -0.3459913,-0.2507218 0.069198,-0.5854996 L 2.0633519,4.5997764 c 0,0 0.276793,-0.2927498 0.569444,-0.037681 l 8.9265761,6.7941156 v 3.25793 c 0,0 -0.0043,0.511588 -0.657384,0.455067 z"
     id="path2"
     inkscape:connector-curvature="0"
     style="fill:#2489ca;stroke-width:0.01445439" />
  <path
     d="M 3.3276619,8.1548036 1.0268195,10.257675 c 0,0 -0.23642736,0.176809 0,0.492748 l 1.0682484,0.976798 c 0,0 0.2537268,0.27391 0.6285508,-0.03769 L 5.1628576,9.8301438 Z"
     id="path4"
     inkscape:connector-curvature="0"
     style="fill:#1070b3;stroke-width:0.01445439" />
  <path
     d="M 7.3671105,8.1721949 11.586764,4.9331057 11.559375,1.6925676 c 0,0 -0.180204,-0.70723757 -0.781364,-0.3391264 L 5.162859,6.491057 Z"
     id="path6"
     inkscape:connector-curvature="0"
     style="fill:#0877b9;stroke-width:0.01445439" />
  <path
     d="m 10.901988,15.073556 c 0.245078,0.252171 0.542053,0.169563 0.542053,0.169563 l 3.28836,-1.628965 c 0.420957,-0.288402 0.36185,-0.646368 0.36185,-0.646368 V 3.2403738 c 0,-0.427531 -0.435373,-0.5753551 -0.435373,-0.5753551 L 11.808775,1.2838769 c -0.622785,-0.38695156 -1.030767,0.069564 -1.030767,0.069564 0,0 0.524754,-0.37970543 0.781364,0.3391263 V 14.554721 c 0,0.0884 -0.01874,0.17536 -0.05622,0.25362 -0.07497,0.152173 -0.237869,0.294199 -0.62855,0.23478 z"
     id="path8"
     inkscape:connector-curvature="0"
     style="fill:#3c99d4;stroke-width:0.01445439" />
</svg>
