<?xml version="1.0" encoding="UTF-8" standalone="no"?>
<svg
   xmlns:dc="http://purl.org/dc/elements/1.1/"
   xmlns:cc="http://creativecommons.org/ns#"
   xmlns:rdf="http://www.w3.org/1999/02/22-rdf-syntax-ns#"
   xmlns:svg="http://www.w3.org/2000/svg"
   xmlns="http://www.w3.org/2000/svg"
   xmlns:sodipodi="http://sodipodi.sourceforge.net/DTD/sodipodi-0.dtd"
   xmlns:inkscape="http://www.inkscape.org/namespaces/inkscape"
   width="16"
   height="16"
   viewBox="0 0 16 16"
   preserveAspectRatio="xMidYMid"
   version="1.1"
   id="svg12"
   sodipodi:docname="war.svg"
   inkscape:version="0.92.4 (5da689c313, 2019-01-14)">
  <metadata
     id="metadata18">
    <rdf:RDF>
      <cc:Work
         rdf:about="">
        <dc:format>image/svg+xml</dc:format>
        <dc:type
           rdf:resource="http://purl.org/dc/dcmitype/StillImage" />
      </cc:Work>
    </rdf:RDF>
  </metadata>
  <defs
     id="defs16" />
  <sodipodi:namedview
     pagecolor="#ffffff"
     bordercolor="#666666"
     borderopacity="1"
     objecttolerance="10"
     gridtolerance="10"
     guidetolerance="10"
     inkscape:pageopacity="0"
     inkscape:pageshadow="2"
     inkscape:window-width="1920"
     inkscape:window-height="1001"
     id="namedview14"
     showgrid="false"
     inkscape:zoom="33.915749"
     inkscape:cx="8"
     inkscape:cy="8"
     inkscape:window-x="-9"
     inkscape:window-y="-9"
     inkscape:window-maximized="1"
     inkscape:current-layer="svg12" />
  <path
     d="m 3.2674529,10.008998 a 9.3083315,9.887947 0 0 0 0.5612204,0.668601 C 3.2293139,10.86918 2.8364249,11.224903 2.5912955,11.539008 2.2035495,12.036161 1.9982926,12.692731 2.0455039,13.256241 H 1.0133831 C 1.2203736,12.779098 2.0466019,11.400647 3.2674529,10.008998 M 15.223205,13.555245 H 13.96826 C 11.089347,11.959431 8.5618327,10.834129 5.8767927,10.588284 5.8825135,10.191371 5.9490256,9.7420363 6.0769644,9.2412612 L 5.8296391,9.1706075 C 5.6982909,9.6851943 5.6294674,10.150919 5.6214929,10.56772 a 12.612088,13.397425 0 0 0 -0.845529,-0.02959 c -0.2405643,0 -0.4600366,0.02357 -0.6601506,0.06464 C 3.8547927,10.32611 3.6324888,10.061543 3.443701,9.8109098 4.682119,8.4409293 6.7218017,7.2014523 8.4969965,6.7351752 8.9968478,8.500104 10.069824,9.7093797 11.371923,10.523032 a 5.5242537,5.8682408 0 0 0 0.281476,-0.182374 l 2.271637,2.597856 0.09951,-0.0091 c 0.620336,-0.05672 0.97289,0.300845 1.066215,0.411951 0.06877,0.08097 0.109678,0.155304 0.132446,0.213865"
     id="path2"
     inkscape:connector-curvature="0"
     style="fill:#d1a41a;stroke-width:0.05955825" />
  <path
     d="M 14.11498,4.8657086 C 14.161037,7.2630824 13.009586,9.1712214 11.397522,10.149753 8.6613406,8.7019364 8.1461759,5.0330429 8.6124535,3.0651153 8.7420681,3.8177514 8.9780673,4.2894918 9.487569,4.5208501 10.598626,4.1831737 12.127652,4.1565328 13.25408,4.4864134 13.723188,4.123999 13.905158,3.5701261 14.004666,3.086293 c 0.123951,0.5628964 0.109736,1.7794156 0.110314,1.7794156"
     id="path4"
     inkscape:connector-curvature="0"
     style="fill:#ffdc76;stroke-width:0.05955825" />
  <path
     d="m 10.428446,5.186136 c 0.0946,0 0.160934,0.040821 0.208896,0.1281096 0.112395,0.2053926 0.09396,0.6105307 7.53e-4,1.0343911 H 9.8813248 V 6.524749 h 0.7141802 c -0.07662,0.2891826 -0.18428,0.575296 -0.305457,0.8019892 l -0.03918,0.073293 0.946886,0.6331203 -0.533079,0.3731567 0.09124,0.1471387 0.595835,-0.4172922 0.643219,0.4458975 0.08836,-0.1490418 -0.596413,-0.3919403 c 0,0 0.891701,-0.6152574 0.936023,-0.6453359 l -6.94e-4,-0.00111 10e-4,-1.842e-4 C 12.226755,7.0866632 12.164461,6.8238759 12.246287,6.524749 h 0.06691 l 0.719093,-8.583e-4 0.0016,-0.1752528 H 12.309389 C 12.442876,6.0149502 12.629756,5.7145342 13.296841,5.7145342 V 5.5384219 c -0.615481,0 -0.983869,0.2595953 -1.16029,0.8102148 h -1.327988 c 0.09286,-0.4401887 0.108985,-0.8728884 -0.02808,-1.1230305 -0.07714,-0.1409389 -0.198958,-0.2156439 -0.352033,-0.2156439 -0.5485658,0 -0.7651489,0.5954916 -0.774048,0.6208434 l 0.155214,0.061876 C 9.8173554,5.6711353 9.9962042,5.186136 10.428446,5.186136 Z m 0.921344,2.7405749 -0.70037,-0.4684256 1.368727,3.683e-4 z M 12.077608,6.524749 c -0.05888,0.199377 -0.03525,0.4997316 0.109679,0.7574854 h -1.68736 C 10.602556,7.0637668 10.69773,6.7974806 10.767304,6.524749 Z"
     id="path6"
     inkscape:connector-curvature="0"
     style="stroke-width:0.05955825" />
  <path
     d="m 9.8096698,5.6926813 h -5.78e-5 l -5.77e-5,1.228e-4 1.155e-4,-1.228e-4"
     id="path8"
     inkscape:connector-curvature="0"
     style="stroke-width:0.05955825" />
  <path
     d="M 15.281627,13.155447 C 15.000613,12.821515 14.45014,12.66345 13.99045,12.675174 13.697416,12.304658 12.142618,10.561029 11.828723,10.209418 a 5.9329183,6.3023524 0 0 0 1.644771,-1.8589696 h 0.857953 V 8.1548158 h -0.749373 a 6.0625908,6.4400993 0 0 0 0.137532,-0.274082 h 0.611841 V 7.6850399 h -0.522735 c 0.388324,-0.8908741 0.603231,-1.9136636 0.582371,-3.0330723 l 0.0022,0.00129 C 14.392181,4.3470091 14.302439,3.0525929 14.137401,2.6961942 13.689904,2.8768489 12.875637,3.4620893 12.691356,4.0605887 11.808151,3.9205092 10.812493,3.937083 9.9403245,4.0974195 9.7945876,3.4534954 9.0632443,2.9607002 8.5115008,2.6831193 8.2787954,3.1002887 8.1757047,4.0675252 8.2018819,4.7536817 l -0.00306,0.00215 C 8.2208357,5.3757529 8.3000608,5.9450332 8.4275951,6.468091 6.5194918,6.9703395 4.4421325,8.2981488 3.280108,9.5813929 2.7362235,8.8016249 2.5204495,8.161691 2.4563645,7.6767529 2.3754059,7.0643193 2.5130528,6.5024664 2.8543386,6.0519652 3.3886885,5.3468408 4.1478847,5.2971806 4.9285197,5.4366463 4.9132644,5.5675796 4.9294449,5.6927427 4.9788512,5.77021 5.1852642,6.0940749 6.2948187,6.2078819 6.9571074,5.8940227 6.468351,5.1664929 5.4783563,4.8112605 5.2040447,4.9536112 5.1132047,5.0006932 5.0446124,5.0873069 4.9976322,5.1882844 4.727828,5.1370283 4.4598729,5.0988471 4.2639774,5.1003817 3.5755116,5.1057836 3.049194,5.3613275 2.6550337,5.8815616 2.2682701,6.3919742 2.1119582,7.0258311 2.2029716,7.7145659 2.2891888,8.3668995 2.5932024,9.0607292 3.1028197,9.7802789 A 17.486767,18.575642 0 0 0 2.8575747,10.065533 C 1.6155162,11.541832 0.70763585,13.124939 0.70763585,13.387235 V 13.52314 H 2.346166 l -0.02872,-0.161134 c -0.092516,-0.519497 0.092285,-1.168823 0.470785,-1.654129 0.2376172,-0.304652 0.6311419,-0.652395 1.2491085,-0.812854 0.5494898,0.569648 1.2495129,1.174654 2.028761,1.758299 h 1.217615 v -0.135905 c 0,-0.15334 -0.071539,-0.287587 -0.2015586,-0.377945 C 6.8897864,12.005899 6.5928804,11.987483 6.3201291,12.086312 6.0600908,11.778653 5.914296,11.367684 5.8828025,10.857271 c 2.6426248,0.248607 5.1702545,1.382196 8.0223555,2.964873 h 1.569244 l 0.02057,-0.109264 c 0.02929,-0.155548 -0.05051,-0.363949 -0.213347,-0.557433 z M 8.6123957,3.0606343 C 8.7422414,3.8129634 8.9777206,4.2847652 9.4877424,4.5162463 9.9392848,4.3789905 10.460228,4.2940342 10.994867,4.2626667 l 0.443451,1.0331635 0.284309,-1.0421256 c 0.540244,0.018599 1.069625,0.092936 1.531106,0.2281663 0.469398,-0.3625371 0.651425,-0.9162873 0.750817,-1.4001203 0.124183,0.5630191 0.109852,1.77917 0.110199,1.7794155 0.0087,0.454123 -0.02566,0.8905672 -0.09789,1.3065703 l -0.506497,0.2286575 0.446341,0.07182 a 5.6372836,5.988309 0 0 1 -0.12268,0.4684254 l -0.431895,0.1332045 0.344117,0.1316084 A 5.5020638,5.8446691 0 0 1 13.55139,7.6850399 h -0.712216 v 0.1956939 h 0.618545 a 5.4375165,5.7761026 0 0 1 -0.146777,0.274082 h -0.471768 v 0.1956326 h 0.355905 C 12.726837,9.1036984 12.10679,9.7145361 11.397349,10.14521 10.577419,9.7112213 9.9571407,9.0777327 9.502709,8.3504484 H 9.7745935 V 8.1548158 H 9.3855762 A 5.6597625,6.0121876 0 0 1 9.2380478,7.8807338 H 9.7745935 V 7.6850399 H 9.1429894 A 6.2327136,6.6208155 0 0 1 8.8588542,6.9684366 L 9.180666,6.872738 8.7748907,6.7003702 A 6.9213528,7.3523352 0 0 1 8.6644033,6.2773078 L 9.2888998,6.2320674 8.5747768,5.8295689 C 8.3997421,4.8043854 8.4348762,3.8094032 8.6123957,3.0606343 Z M 2.5912377,11.534466 C 2.2036651,12.031373 1.9982348,12.687758 2.0452728,13.25133 H 1.0130942 c 0.207395,-0.476774 1.0335077,-1.855041 2.2541853,-3.247243 0.1682159,0.220861 0.355559,0.443933 0.561336,0.668846 -0.5993016,0.191397 -0.9922484,0.547243 -1.2373778,0.861533 z M 13.967913,13.550334 C 11.08929,11.954765 8.5616015,10.829586 5.8766193,10.583803 5.8824558,10.18689 5.9490256,9.7376167 6.0766177,9.2369028 L 5.8296969,9.1658195 C 5.6984642,9.680529 5.6293519,10.146561 5.6215507,10.563116 a 12.771694,13.566969 0 0 0 -0.8454134,-0.02989 c -0.240911,0 -0.4603256,0.02375 -0.6604395,0.06506 C 3.8547349,10.321199 3.6323733,10.057123 3.4434699,9.8064901 3.7794972,9.4346225 4.1748709,9.0726378 4.6075169,8.7329357 L 5.2066451,9.1723876 5.0110385,8.4302484 A 12.141478,12.897509 0 0 1 5.5712766,8.0524264 L 6.459163,8.531717 6.0422349,7.7681546 A 12.282765,13.047594 0 0 1 6.4094089,7.565831 L 7.6497917,8.4496459 7.2424561,7.1674453 C 7.6658562,6.9861767 8.0881585,6.837933 8.4965919,6.7306328 A 6.1415269,6.5239506 0 0 0 8.8456211,7.6850399 H 8.2822626 v 0.1956939 h 0.6562211 c 0.046171,0.093243 0.093903,0.1847676 0.1437723,0.274082 H 8.2822626 V 8.3504484 H 9.1963262 C 9.7569109,9.2747771 10.514374,9.982541 11.371691,10.518244 a 5.7782244,6.138026 0 0 0 0.281362,-0.183049 l 0.224673,0.256956 -0.377576,0.617038 0.644029,-0.312325 0.372837,0.426377 -0.630276,0.510167 0.867893,-0.238417 1.170576,1.338674 0.0991,-0.009 c 0.620509,-0.05641 0.973179,0.301029 1.066561,0.411951 0.06848,0.08133 0.109795,0.155548 0.132273,0.213741 z"
     id="path10"
     inkscape:connector-curvature="0"
     style="stroke-width:0.05955825" />
</svg>
