<svg xmlns="http://www.w3.org/2000/svg" width="16" height="16" viewBox="0 0 16 16" preserveAspectRatio="xMidYMid"><path d="M3.267 10.009a9.308 9.888 0 00.562.669 2.53 2.53 0 00-1.238.861c-.387.497-.593 1.154-.545 1.717H1.013c.207-.477 1.034-1.855 2.254-3.247m11.956 3.546h-1.255c-2.879-1.596-5.406-2.72-8.091-2.967.006-.397.072-.846.2-1.347l-.247-.07c-.132.514-.2.98-.209 1.397a12.612 13.397 0 00-.845-.03c-.24 0-.46.024-.66.065a9.392 9.392 0 01-.672-.792C4.682 8.44 6.722 7.2 8.497 6.735c.5 1.765 1.573 2.974 2.875 3.788a5.524 5.868 0 00.281-.182l2.272 2.598.1-.01c.62-.056.972.301 1.066.412.069.081.11.156.132.214" fill="#d1a41a" stroke-width=".06"/><path d="M14.115 4.866c.046 2.397-1.105 4.305-2.717 5.284C8.66 8.702 8.146 5.033 8.612 3.065c.13.753.366 1.224.876 1.456 1.11-.338 2.64-.364 3.766-.035.47-.362.651-.916.75-1.4.125.563.11 1.78.111 1.78" fill="#ffdc76" stroke-width=".06"/><path d="M10.428 5.186c.095 0 .161.041.21.128.112.206.093.61 0 1.035h-.757v.176h.715a3.85 3.85 0 01-.306.802l-.04.073.948.633-.533.373.09.147.597-.417.643.446.088-.149-.596-.392.936-.645v-.001c-.196-.308-.259-.571-.177-.87h.067l.72-.001v-.175h-.724c.134-.334.32-.634.988-.634v-.177c-.616 0-.984.26-1.16.81h-1.328c.092-.44.109-.872-.029-1.122a.385.385 0 00-.352-.216c-.548 0-.765.595-.774.62l.156.063c.007-.022.186-.507.618-.507zm.922 2.74l-.7-.468h1.368zm.728-1.401c-.06.2-.036.5.11.757H10.5c.103-.218.198-.485.267-.757zM9.81 5.693" stroke-width=".06"/><path d="M15.282 13.155c-.281-.333-.832-.492-1.292-.48-.293-.37-1.847-2.114-2.161-2.466a5.933 6.302 0 001.644-1.859h.858v-.195h-.749a6.063 6.44 0 00.138-.274h.611v-.196h-.522a7.22 7.22 0 00.582-3.033l.002.001c0-.306-.09-1.6-.256-1.957-.447.18-1.261.766-1.446 1.365a8.452 8.452 0 00-2.75.036c-.146-.644-.878-1.136-1.43-1.414-.232.417-.335 1.385-.31 2.07l-.002.003c.022.62.101 1.189.229 1.712-1.909.502-3.986 1.83-5.148 3.113-.544-.78-.76-1.42-.824-1.904-.08-.613.057-1.175.398-1.625.535-.705 1.294-.755 2.075-.615-.016.13 0 .256.05.333.206.324 1.316.438 1.978.124-.489-.728-1.479-1.083-1.753-.94a.488.488 0 00-.206.234 4.153 4.153 0 00-.734-.088c-.688.006-1.215.261-1.609.782-.387.51-.543 1.144-.452 1.833.086.652.39 1.346.9 2.065a17.487 18.576 0 00-.245.286c-1.242 1.476-2.15 3.059-2.15 3.321v.136h1.638l-.029-.161c-.092-.52.093-1.169.471-1.654a2.285 2.285 0 011.25-.813c.549.57 1.249 1.175 2.028 1.758h1.218v-.136a.45.45 0 00-.202-.378c-.192-.133-.49-.152-.762-.053-.26-.307-.406-.718-.437-1.229 2.642.249 5.17 1.382 8.022 2.965h1.57l.02-.11c.03-.155-.05-.363-.213-.557zM8.612 3.061c.13.752.366 1.224.876 1.455a6.602 6.602 0 011.507-.253l.443 1.033.285-1.042a6.31 6.31 0 011.53.228c.47-.363.652-.916.752-1.4.124.563.11 1.779.11 1.78a6.94 6.94 0 01-.098 1.306l-.507.228.447.072a5.637 5.988 0 01-.123.469l-.432.133.344.131a5.502 5.845 0 01-.195.484h-.712v.196h.619a5.438 5.776 0 01-.147.274h-.472v.195h.356a5.468 5.468 0 01-1.798 1.795c-.82-.434-1.44-1.067-1.894-1.795h.272v-.195h-.39a5.66 6.012 0 01-.147-.274h.537v-.196h-.632a6.233 6.62 0 01-.284-.717l.322-.095-.406-.173a6.921 7.352 0 01-.11-.423l.624-.045-.714-.402c-.175-1.026-.14-2.02.037-2.77zm-6.02 8.473c-.388.497-.594 1.154-.547 1.717H1.013c.207-.476 1.034-1.855 2.254-3.247.168.22.356.444.562.669-.6.191-.993.547-1.238.861zm11.376 2.016c-2.879-1.595-5.406-2.72-8.091-2.966a5.87 5.87 0 01.2-1.347l-.247-.071c-.132.515-.2.98-.208 1.397a12.772 13.567 0 00-.846-.03c-.24 0-.46.024-.66.065a9.496 9.496 0 01-.673-.792 9.388 9.388 0 011.165-1.073l.599.44-.196-.743a12.141 12.898 0 01.56-.378l.888.48-.417-.764a12.283 13.048 0 01.367-.202l1.24.884-.407-1.283c.424-.18.846-.33 1.255-.436a6.142 6.524 0 00.349.954h-.564v.196h.656c.047.093.094.185.144.274h-.8v.195h.914c.56.925 1.318 1.633 2.176 2.168a5.778 6.138 0 00.281-.183l.225.257-.378.617.644-.312.373.426-.63.51.868-.238 1.17 1.339.1-.01c.62-.056.972.302 1.066.413.068.08.11.155.132.213z" stroke-width=".06"/></svg>