<svg xmlns="http://www.w3.org/2000/svg" viewBox="0 0 512 512" height="16" width="16"><path class="st0" d="M364.564 256.625l19.119 11.882-2.833 4.52-20.62-13.52-19.1 12.652-2.927-4.46 17.09-11.314-30.356-19.198c4.631-7.838 8.195-16.81 11.049-26.534h-22.901v-5.34h24.261c12.167-52.242-21.796-35.569-26.56-19.889l-4.975-1.875c7.5-22.761 49.568-34.743 37 21.763h42.572c5.656-16.693 17.465-24.564 37.197-24.564v5.338c-21.387 0-27.377 9.109-31.657 19.226h23.203v5.34H388.9c-2.623 9.068-.64 17.05 5.658 26.38zm17.022-17.66l-43.879-.01 22.453 14.201zm-40.094-28.312c-2.23 8.267-5.28 16.34-8.571 22.963h54.087c-4.645-7.813-5.402-16.919-3.516-22.963zm-75.014-1.722c-61.171 15.228-127.765 55.488-165.015 94.395-56.691-70.534-17.942-140.949 52.844-125.665-5.408 22.095 45.305 23.956 65.035 13.868-10.93-16.899-55.39-42.257-62.815-21.397-83.118-18.534-120.632 63.59-60.744 139.229-33.952 37.428-80.689 100.195-76.792 113.469h52.527c-8.375-27.961 12.62-70.148 54.217-79.683 17.615 17.27 40.057 35.613 65.037 53.31h39.035c1.924-15.117-12.241-22.576-30.892-17.192-8.336-9.327-13.01-21.787-14.02-37.263 84.719 7.542 165.748 41.914 257.182 89.898h50.308l.659-3.312c.948-4.717-1.622-11.035-6.843-16.905l.007.006c-9.006-10.125-26.653-14.913-41.392-14.56-9.384-11.224-59.17-64.03-69.293-74.755 20.806-14.67 38.872-33.735 52.725-56.371h27.504v-5.932h-24.02a194.93 194.93 0 004.43-8.307h19.59v-5.935h-16.734c12.447-27.008 19.312-58.028 18.646-91.963.022.014.045.025.065.037-.034-9.29-2.913-48.53-8.203-59.335-14.344 5.477-40.448 23.222-46.357 41.368-28.313-4.248-60.233-3.745-88.19 1.116-4.671-19.523-28.116-34.464-45.804-42.88-13.463 30.87-13.248 73.38-2.697 114.76zm178.797-102.675c-3.186 14.669-9.021 31.459-24.07 42.45-14.796-4.099-31.761-6.38-49.082-6.943l-9.124 31.626-14.23-31.357c-17.136.952-33.824 3.556-48.296 7.718-16.35-7.018-23.9-21.324-28.06-44.134-5.692 22.704-6.818 52.874-1.206 83.959l22.889 12.201-20.016 1.372a221.383 221.383 0 003.543 12.83l13.001 5.223-10.311 2.9a201.374 201.374 0 009.109 21.728h20.243v5.935H292.47a182.855 182.855 0 004.73 8.307h12.466v5.932h-8.712c14.567 22.05 34.452 41.256 60.736 54.414 22.744-13.058 42.626-31.576 57.636-54.414H407.91v-5.932h15.143a174.937 174.937 0 004.692-8.307H407.91v-5.935h22.836a177.7 177.7 0 006.26-14.658l-11.046-3.995 13.85-4.041a182.972 182.972 0 003.952-14.193l-14.335-2.182 16.242-6.935c4.962-25.195 3.513-72.951-.393-93.57zM119.049 336.425c-6.597-6.82-12.603-13.584-17.995-20.28-39.133 42.21-65.617 83.999-72.266 98.455h33.09c-1.796-32.935 21.131-68.094 57.171-78.175zm323.674 68.541l-37.526-40.59-27.82 7.229 20.204-15.466-11.953-12.93-20.647 9.47 12.105-18.71-7.191-7.778-9.03 5.537c-27.486-16.242-51.781-37.694-69.753-65.725h-29.288v-5.932h25.637a188.331 188.331 0 01-4.62-8.307h-21.017v-5.935h18.039c-4.344-9.05-8.095-18.682-11.169-28.934-13.094 3.252-26.631 7.746-40.204 13.242l13.06 38.877-39.767-26.798a395.075 395.075 0 00-11.771 6.133l13.366 23.152-28.464-14.532c-6.12 3.674-12.12 7.5-17.961 11.456l6.27 22.501-19.205-13.324c-13.871 10.3-26.546 21.277-37.32 32.551 6.058 7.6 13.185 15.607 21.552 24.007 8.54-1.754 21.231-2.889 48.273-1.066.25-12.63 2.467-26.76 6.673-42.365l7.917 2.155c-4.091 15.18-6.224 28.804-6.413 40.838 86.075 7.447 167.11 41.566 259.392 89.94h40.24c-6.305-12.588-21.63-21.37-41.61-18.696z" fill="#35c1f1" stroke-width=".929"/></svg>