<!--Created with Inkscape (http://www.inkscape.org/)--><svg height="16" width="16" viewBox="0 0 24 24" xml:space="preserve" xmlns="http://www.w3.org/2000/svg"><defs><linearGradient id="a" x1="3" x2="21" y1="23" y2="1" gradientUnits="userSpaceOnUse"><stop stop-color="#cb6d30" offset="0"/><stop stop-color="#fffb57" offset="1"/></linearGradient></defs><g fill-rule="evenodd" transform="translate(.815 .815) scale(.93207)"><path d="M5 0C3.338 0 2 1.338 2 3v18c0 1.662 1.338 3 3 3h14c1.662 0 3-1.338 3-3V9l-9-9Zm10 0 7 7V0Z" fill="url(#a)" style="fill:url(#a)"/><path d="M2 20v1c0 1.662 1.338 3 3 3h14c1.662 0 3-1.338 3-3v-1c0 1.662-1.338 3-3 3H5c-1.662 0-3-1.338-3-3ZM15 0h1.4L22 5.6V7Z" fill-opacity=".2"/><circle cx="9" cy="12" r="3" fill="#fafafa"/><path d="M13 11v5h5v-5zm1 1h3v3h-3z" fill="#fafafa"/><path d="m11.5 11 4.042 7H7.46Z" fill="#f9e186"/></g></svg>