<!--Created with Inkscape (http://www.inkscape.org/)--><svg height="16" width="16" viewBox="0 0 24 24" xml:space="preserve" xmlns="http://www.w3.org/2000/svg"><defs><linearGradient id="a" x1="3" x2="21" y1="23" y2="1" gradientUnits="userSpaceOnUse"><stop stop-color="#4b4b4b" offset="0"/><stop stop-color="#969696" offset="1"/></linearGradient><linearGradient id="b" x1="18" x2="6" y1="19" y2="4" gradientUnits="userSpaceOnUse"><stop stop-color="#fafafa" stop-opacity=".803" offset="0"/><stop stop-color="#fafafa" offset="1"/></linearGradient></defs><g fill-rule="evenodd" stroke-linecap="square"><path d="M5 0C3.338 0 2 1.338 2 3v18c0 1.662 1.338 3 3 3h14c1.662 0 3-1.338 3-3V9l-9-9Zm10 0 7 7V0Z" fill="url(#a)" style="fill:url(#a)" transform="translate(.815 .815) scale(.93207)"/><path d="M2.68 19.457v.932a2.79 2.79 0 0 0 2.796 2.796h13.048a2.79 2.79 0 0 0 2.797-2.796v-.932a2.79 2.79 0 0 1-2.797 2.796H5.476a2.79 2.79 0 0 1-2.797-2.796ZM14.795.815H16.1l5.22 5.22V7.34Z" fill-opacity=".2"/><g stroke-linecap="round" stroke-width="2"><path d="M5 3v17h14V10l-7-7Z" fill="url(#b)" style="fill:url(#b)" transform="translate(.815 .815) scale(.93207)"/><path d="m12 3.611 6.524 6.525H12z" fill="#fafafa"/><path d="M11.068 3.611V12h7.456v-1.864H12V3.61Z" fill-opacity=".047"/></g></g></svg>