<!--Created with Inkscape (http://www.inkscape.org/)--><svg height="16" width="16" viewBox="0 0 24 24" xml:space="preserve" xmlns="http://www.w3.org/2000/svg"><defs><linearGradient id="a" x1="3" x2="21" y1="23" y2="1" gradientUnits="userSpaceOnUse" gradientTransform="translate(.815 .815) scale(.93207)"><stop stop-color="#c10018" offset="0"/><stop stop-color="#ff5a96" offset="1"/></linearGradient></defs><path d="M5.476.815a2.79 2.79 0 0 0-2.797 2.796V20.39a2.79 2.79 0 0 0 2.797 2.796h13.048a2.79 2.79 0 0 0 2.797-2.796V9.204L12.932.815Zm9.32 0 6.525 6.525V.815Z" fill="url(#a)" fill-rule="evenodd" style="fill:url(#a);stroke-width:.932065"/><path d="M2.68 19.457v.932a2.79 2.79 0 0 0 2.796 2.796h13.048a2.79 2.79 0 0 0 2.797-2.796v-.932a2.79 2.79 0 0 1-2.797 2.796H5.476a2.79 2.79 0 0 1-2.797-2.796zM14.795.815H16.1l5.22 5.22V7.34z" fill-rule="evenodd" fill-opacity=".2" style="stroke-width:.932065"/><g fill-rule="evenodd" stroke-linecap="square"><path d="M6.874 12.466h.466l.932 2.33 2.05-5.126h6.804" fill="none" stroke="#fafafa" stroke-width=".932"/><path d="M12.829 11.074a.932.932 0 0 0-.556.267.932.932 0 0 0 0 1.318l.74.74-.74.738a.932.932 0 0 0 0 1.318.932.932 0 0 0 1.318 0l.74-.739.738.74a.932.932 0 0 0 1.318 0 .932.932 0 0 0 0-1.319l-.739-.739.74-.739a.932.932 0 0 0 0-1.318.932.932 0 0 0-1.319 0l-.739.74-.739-.74a.932.932 0 0 0-.762-.267z" color="#000" fill="#fda8b3"/><path d="M6.408 16.66h1.864v.932H6.408Zm9.32 0h1.864v.932h-1.864zm-4.66 0h1.864v.932h-1.864z" fill="#fafafa"/></g></svg>