<!--Created with Inkscape (http://www.inkscape.org/)--><svg height="16" width="16" viewBox="0 0 24 24" xml:space="preserve" xmlns="http://www.w3.org/2000/svg"><defs><linearGradient id="a" x1="3" x2="21" y1="23" y2="1" gradientUnits="userSpaceOnUse"><stop stop-color="#007c3c" offset="0"/><stop stop-color="#78fc4e" offset="1"/></linearGradient></defs><g fill-rule="evenodd" stroke-linecap="square"><path d="M5 0C3.338 0 2 1.338 2 3v18c0 1.662 1.338 3 3 3h14c1.662 0 3-1.338 3-3V9l-9-9Zm10 0 7 7V0Z" fill="url(#a)" style="fill:url(#a)" transform="translate(.815 .815) scale(.93207)"/><path d="M2.68 19.457v.932a2.79 2.79 0 0 0 2.796 2.796h13.048a2.79 2.79 0 0 0 2.797-2.796v-.932a2.79 2.79 0 0 1-2.797 2.796H5.476a2.79 2.79 0 0 1-2.797-2.796ZM14.795.815H16.1l5.22 5.22V7.34Z" fill-opacity=".2"/><path d="M11.068 12.932v4.66h6.524v-4.66zm2.796.932h.932v2.796h-.932zM12 14.796h.932v1.864H12zm3.728.932h.932v.932h-.932z" fill="#b4f48b"/><path d="M6.408 9.204v6.524h4.66v-.932h-.932v-.932h.932v-.932h-.932V12H12v.932h.932V12h1.864v.932h.932V9.204Zm.932.932h1.864v.932H7.34Zm2.796 0H12v.932h-1.864zm2.796 0h1.864v.932h-1.864zM7.34 12h1.864v.932H7.34Zm0 1.864h1.864v.932H7.34Z" fill="#fafafa"/></g></svg>