<!--Created with Inkscape (http://www.inkscape.org/)--><svg height="16" width="16" viewBox="0 0 24 24" xml:space="preserve" xmlns="http://www.w3.org/2000/svg"><defs><linearGradient id="a" x1="3" x2="21" y1="23" y2="1" gradientUnits="userSpaceOnUse"><stop stop-color="#d0120d" offset="0"/><stop stop-color="#fe9c45" offset="1"/></linearGradient></defs><g fill-rule="evenodd" stroke-linecap="square"><path d="M5 0C3.338 0 2 1.338 2 3v18c0 1.662 1.338 3 3 3h14c1.662 0 3-1.338 3-3V9l-9-9Zm10 0 7 7V0Z" fill="url(#a)" style="fill:url(#a)" transform="translate(.815 .815) scale(.93207)"/><path d="M2.68 19.457v.932a2.79 2.79 0 0 0 2.796 2.796h13.048a2.79 2.79 0 0 0 2.797-2.796v-.932a2.79 2.79 0 0 1-2.797 2.796H5.476a2.79 2.79 0 0 1-2.797-2.796ZM14.795.815H16.1l5.22 5.22V7.34Z" fill-opacity=".2"/><path d="M6.408 9.204h11.184v.932H6.408Zm1.864 3.728h1.864v.932H8.272Zm0 1.864h1.864v.932H8.272Zm0 1.864h1.864v.932H8.272Z" fill="#fafafa"/><path d="M11.068 12.932v4.66h6.524v-4.66zm5.126.74.66.658-2.058 2.057-.932-.932-1.398 1.398-.659-.659 2.057-2.057.932.932z" fill="#fecfb5"/><path d="M8.272 11.068h7.456V12H8.272Zm-1.864 1.864h.932v.932h-.932Zm0 1.864h.932v.932h-.932Zm0 1.864h.932v.932h-.932Z" fill="#fafafa"/></g></svg>