<svg viewBox="0 0 128 128" height="16" width="16" xmlns:xlink="http://www.w3.org/1999/xlink" xmlns="http://www.w3.org/2000/svg"><linearGradient id="a"><stop offset="0" stop-color="#18a303"/><stop offset="1" stop-color="#43c330"/></linearGradient><linearGradient id="d" gradientUnits="userSpaceOnUse" x1="546" x2="458" xlink:href="#a" y1="122" y2="6"/><linearGradient id="e" gradientUnits="userSpaceOnUse" x1="508.062" x2="508.062" y1="109.999" y2="83.998"><stop offset="0" stop-color="#727272"/><stop offset="1" stop-color="#9a9a9a"/></linearGradient><linearGradient id="f" gradientTransform="matrix(.94872 0 0 1.3 -288.386 1491.727)" gradientUnits="userSpaceOnUse" x1="829.361" x2="829.361" y1="-1064.799" y2="-1082.341"><stop offset="0" stop-color="#e4e4e4"/><stop offset="1" stop-color="#f9f9f9"/></linearGradient><linearGradient id="g" gradientTransform="matrix(.71429 0 0 -1.55555 125.07 -1571.104)" gradientUnits="userSpaceOnUse" x1="525.639" x2="525.639" y1="-1078.644" y2="-1068.787"><stop offset="0" stop-color="#63bbee"/><stop offset="1" stop-color="#aadcf7"/></linearGradient><linearGradient id="h" gradientUnits="userSpaceOnUse" x1="512.656" x2="512.656" y1="95.03" y2="85.999"><stop offset="0" stop-color="#a33e03"/><stop offset="1" stop-color="#c15414"/></linearGradient><linearGradient id="i" gradientTransform="matrix(.71429 0 0 -2.11111 133.07 -2170.064)" gradientUnits="userSpaceOnUse" x1="525.639" x2="525.639" y1="-1078.644" y2="-1068.787"><stop offset="0" stop-color="#f09e6f"/><stop offset="1" stop-color="#f9cfb5"/></linearGradient><linearGradient id="j" gradientTransform="matrix(.71429 0 0 -.88888 141.07 -852.344)" gradientUnits="userSpaceOnUse" x1="525.639" x2="525.639" y1="-1078.644" y2="-1068.787"><stop offset="0" stop-color="#f5ce53"/><stop offset="1" stop-color="#fde9a9"/></linearGradient><linearGradient id="k" gradientTransform="matrix(.71429 0 0 -1.33333 149.07 -1331.514)" gradientUnits="userSpaceOnUse" x1="525.639" x2="525.639" y1="-1078.644" y2="-1068.787"><stop offset="0" stop-color="#8ee780"/><stop offset="1" stop-color="#ccf4c6"/></linearGradient><linearGradient id="c" gradientUnits="userSpaceOnUse" x1="108.001" x2="20.001" y1="122" y2="6" gradientTransform="translate(4.968 4.968) scale(.92237)"><stop offset="0" stop-color="#e6e6e6"/><stop offset="1" stop-color="#fff"/></linearGradient><linearGradient id="b" gradientTransform="matrix(7.3787 0 0 7.3769 -801.151 -7197.59)" gradientUnits="userSpaceOnUse" x1="122.75" x2="111.75" xlink:href="#a" y1="991.621" y2="977.117"/><path d="M20.882 4.968c-.23 0-.461.01-.691.033-3.383.645-4.212 2.09-4.151 5.532V117.5c0 3.863 1.67 5.532 5.534 5.533h84.856c3.864 0 5.532-1.67 5.533-5.533V51.256a7.469 7.469 0 0 0-2.076-5.302L71 7.076a7.472 7.472 0 0 0-5.303-2.075H21.574a7.217 7.217 0 0 0-.692-.033zm64.575.013a3.86 3.86 0 0 0-.578.045c-2.456.787-3.282 4.524-1.39 6.282l22.226 22.34c2.053 1.957 6.141.283 6.25-2.56V8.748c0-1.95-1.765-3.722-3.704-3.722H86.037a3.818 3.818 0 0 0-.58-.045z" fill="url(#b)" style="fill:url(#b);stroke-width:.922368"/><path d="M21.572 10.503v106.994h84.858v-66.41L65.846 10.503Z" fill="url(#c)" style="fill:url(#c);stroke-width:.922368"/><path d="M469 53.998v52h60v-52h-58z" fill="url(#d)" style="fill:url(#d)" transform="translate(-399.028 6.813) scale(.92237)"/><path d="M35.407 58.464h15.68v7.38h-15.68zm17.523 0h16.603v7.38H52.931zm18.45 0h15.68v7.38H71.38z" fill="#92e285"/><path d="M35.407 67.688h15.68v7.38h-15.68zm35.973 0h15.68v7.38H71.38zm-18.45 9.224h16.603v7.379H52.931zm18.45 0h15.68v7.379H71.38zm-35.973 0h15.68v7.379h-15.68zm17.523 9.223h16.603v7.38H52.931zm-17.523 0h15.68v7.38h-15.68zM52.93 95.36h16.603v7.378H52.931zm-17.523 0h15.68v7.378h-15.68z" fill="#ccf4c6"/><path d="M494 81.999h39v28h-39z" fill="url(#e)" style="fill:url(#e)" transform="translate(-399.028 6.813) scale(.92237)"/><path d="M496 83.999h35v24h-35z" fill="url(#f)" style="fill:url(#f)" transform="translate(-399.028 6.813) scale(.92237)"/><path d="M60.311 90.747h6.457v14.758H60.31z" fill="#18a303"/><path d="M499 105.999h5v-14h-5z" fill="url(#g)" style="fill:url(#g)" transform="translate(-399.028 6.813) scale(.92237)"/><path d="M506 85.999h7v21h-7z" fill="url(#h)" style="fill:url(#h)" transform="translate(-399.028 6.813) scale(.92237)"/><path d="M507 105.999h5v-19h-5z" fill="url(#i)" style="fill:url(#i)" transform="translate(-399.028 6.813) scale(.92237)"/><path d="M75.069 96.282h6.457v9.223h-6.457z" fill="#c99c00"/><path d="M515 105.999h5v-8h-5z" fill="url(#j)" style="fill:url(#j)" transform="translate(-399.028 6.813) scale(.92237)"/><path d="M82.448 92.592h6.457v12.913h-6.457z" fill="#43c330"/><path d="M523 105.999h5v-12h-5z" fill="url(#k)" style="fill:url(#k)" transform="translate(-399.028 6.813) scale(.92237)"/><path d="M52.93 67.688h16.603v7.38H52.931z" fill="#ccf4c6"/></svg>