<svg viewBox="0 0 128 128" height="16" width="16" xmlns="http://www.w3.org/2000/svg"><linearGradient id="b" gradientUnits="userSpaceOnUse" x1="108.001" x2="20.001" y1="122" y2="6" gradientTransform="translate(4.968 4.968) scale(.92237)"><stop offset="0" stop-color="#e6e6e6"/><stop offset="1" stop-color="#fff"/></linearGradient><linearGradient id="a" gradientTransform="matrix(7.3787 0 0 7.3769 -801.151 -7197.59)" gradientUnits="userSpaceOnUse" x1="122.75" x2="111.75" y1="991.621" y2="977.117"><stop offset="0" stop-color="#c99c00"/><stop offset="1" stop-color="#e9b913"/></linearGradient><path d="M20.882 4.968c-.23 0-.461.01-.691.033-3.383.645-4.212 2.09-4.151 5.532V117.5c0 3.863 1.67 5.532 5.534 5.533h84.856c3.864 0 5.532-1.67 5.533-5.533V51.256a7.469 7.469 0 0 0-2.076-5.302L71 7.076a7.472 7.472 0 0 0-5.303-2.075H21.574a7.217 7.217 0 0 0-.692-.033zm64.575.013a3.86 3.86 0 0 0-.578.045c-2.456.787-3.282 4.524-1.39 6.282l22.226 22.34c2.053 1.957 6.141.283 6.25-2.56V8.748c0-1.95-1.765-3.722-3.704-3.722H86.037a3.818 3.818 0 0 0-.58-.045z" fill="url(#a)" style="fill:url(#a);stroke-width:.922368"/><path d="M21.572 10.503v106.994h84.858v-66.41L65.846 10.503Z" fill="url(#b)" style="fill:url(#b);stroke-width:.922368"/><circle cx="52.006" cy="73.218" fill="#f09e6f" opacity=".6" r="15.68" style="stroke-width:.922368"/><circle cx="52.015" cy="73.222" fill="#f9cfb5" r="17.525" stroke="#d36118" stroke-width="1.845"/><path d="M62.156 97.204a.922.922 0 0 1-.923-.922V66.766c0-.51.413-.922.923-.923h29.516c.51 0 .922.413.922.923v29.516a.922.922 0 0 1-.922.922zm.922-1.845H90.75V67.69H63.08Z" fill="#1c99e0" style="stroke-width:.922368"/><path d="M63.078 95.36H90.75V67.687H63.08Z" fill="#aadcf7" style="stroke-width:.922368"/><path d="M56.253 73.295a.944.944 0 0 0-.488.391l-9.067 14.796-9.278 14.496c-.377.543-.149 1.65.988 1.604H74.48c1.095 0 1.32-1.186.735-2.204l-8.71-13.896-9.067-14.796c-.223-.374-.761-.551-1.186-.39zm.349 2.673 8.3 13.362 8.3 13.427h-33.2l8.3-13.427z" fill="#e9b913" style="stroke-width:.922368"/><path d="M73.217 102.742H40.012l8.3-13.374 8.302-13.375 8.301 13.375z" fill="#fde9a9" style="stroke-width:.922368"/><path d="M72.764 101.356h4.612v4.612h-4.612zm-36.894 0h4.61v4.612h-4.61zM54.316 71.84h4.612v4.612h-4.612z" stroke-width=".922" fill="#ccf4c6" stroke="#43c330" stroke-linecap="square"/></svg>