<svg viewBox="0 0 128 128" height="16" width="16" xmlns:xlink="http://www.w3.org/1999/xlink" xmlns="http://www.w3.org/2000/svg"><linearGradient id="g" gradientUnits="userSpaceOnUse" x1="108.001" x2="20.001" y1="122" y2="6" gradientTransform="translate(4.968 4.968) scale(.92237)"><stop offset="0" stop-color="#18a303"/><stop offset="1" stop-color="#106802"/></linearGradient><linearGradient id="f" gradientUnits="userSpaceOnUse" x1="108.005" x2="19.323" y1="120.777" y2="6.715" gradientTransform="translate(4.968 4.968) scale(.92237)"><stop offset="0" stop-color="#6e6e6e"/><stop offset="1" stop-color="#b0b0b0"/></linearGradient><linearGradient id="e" gradientTransform="matrix(.12959 0 0 .92235 66.84 1189.859)" gradientUnits="userSpaceOnUse" x1="-17" x2="144" y1="-1194.638" y2="-1194.638"><stop offset="0" stop-color="#fff" stop-opacity="0"/><stop offset=".493" stop-color="#fff"/><stop offset="1" stop-color="#fff" stop-opacity="0"/></linearGradient><linearGradient id="d" gradientUnits="userSpaceOnUse" x1="107.001" x2="19.581" xlink:href="#a" y1="120.916" y2="8" gradientTransform="translate(4.968 4.968) scale(.92237)"/><linearGradient id="a"><stop offset="0" stop-color="#a33e03"/><stop offset="1" stop-color="#d36118"/></linearGradient><linearGradient id="c" gradientUnits="userSpaceOnUse" x1="108.001" x2="20.001" y1="122" y2="6" gradientTransform="translate(4.968 4.968) scale(.92237)"><stop offset="0" stop-color="#e6e6e6"/><stop offset="1" stop-color="#fff"/></linearGradient><linearGradient id="b" gradientTransform="matrix(7.3787 0 0 7.3769 -801.151 -7197.59)" gradientUnits="userSpaceOnUse" x1="122.75" x2="111.75" xlink:href="#a" y1="991.621" y2="977.117"/><path d="M20.882 4.968c-.23 0-.461.01-.691.033-3.383.645-4.212 2.09-4.151 5.532V117.5c0 3.863 1.67 5.532 5.534 5.533h84.856c3.864 0 5.532-1.67 5.533-5.533V51.256a7.469 7.469 0 0 0-2.076-5.302L71 7.076a7.472 7.472 0 0 0-5.303-2.075H21.574a7.217 7.217 0 0 0-.692-.033zm64.575.013a3.86 3.86 0 0 0-.578.045c-2.456.787-3.282 4.524-1.39 6.282l22.226 22.34c2.053 1.957 6.141.283 6.25-2.56V8.748c0-1.95-1.765-3.722-3.704-3.722H86.037a3.818 3.818 0 0 0-.58-.045z" fill="url(#b)" style="fill:url(#b);stroke-width:.922368"/><path d="M21.572 10.503v106.994h84.858v-66.41L65.846 10.503Z" fill="url(#c)" style="fill:url(#c);stroke-width:.922368"/><path d="M60.312 96.281V98.2l-11.069 7.305h5.423l8.168-6.457h.476l8.07 6.457h5.534l-11.068-7.38v-1.844z" fill="#646464" style="stroke-width:.922368"/><path d="M34.486 55.699v40.584h57.186V55.699Zm2.767 1.844h51.652a.92.92 0 0 1 .923.923v35.05a.92.92 0 0 1-.923.922H37.253a.92.92 0 0 1-.923-.922v-35.05a.92.92 0 0 1 .923-.923zm1.844 2.766v3.69h47.964v-3.69zm9.224 6.456v3.69h29.516v-3.69zm-2.767 7.38v3.689h13.835v-3.69zm-4.612.003a1.845 1.845 0 1 0 0 3.69 1.845 1.845 0 0 0 0-3.69zm4.612 6.453v3.69h13.835V80.6zm-4.612.003a1.845 1.845 0 1 0 0 3.69 1.845 1.845 0 0 0 0-3.69zm4.612 6.453v3.69h13.835v-3.69zm-4.612.004a1.845 1.845 0 1 0 0 3.69 1.845 1.845 0 0 0 0-3.69z" fill="url(#d)" style="fill:url(#d);stroke-width:.922368"/><path d="M64.637 87.98h20.864v.923H64.637Z" fill="url(#e)" style="fill:url(#e);stroke-width:.922368"/><path d="M63.079 74.144v16.603H87.06V74.144Zm1.845 1.845h20.292v12.913H64.924Zm.922 1.845v.922h18.447v-.922zm0 2.767v.922h18.447v-.922zm0 2.767v.922h18.447v-.922Zm0 2.767v.922h18.447v-.922z" fill="url(#f)" style="fill:url(#f);stroke-width:.922368"/><path d="M82.883 76.899a1.384 1.384 0 0 0-.951.418l-5.94 5.94-2.711-2.712a1.384 1.384 0 0 0-1.957 0l-5.073 5.073a1.384 1.384 0 1 0 1.957 1.956l4.095-4.094 2.71 2.71a1.384 1.384 0 0 0 1.957 0l6.918-6.917a1.384 1.384 0 0 0-1.005-2.374z" fill="url(#g)" style="fill:url(#g);stroke-width:.922368"/></svg>