<svg viewBox="0 0 128 128" height="16" width="16" xmlns:xlink="http://www.w3.org/1999/xlink" xmlns="http://www.w3.org/2000/svg"><linearGradient id="e" gradientUnits="userSpaceOnUse" x1="117.001" x2="12.001" xlink:href="#a" y1="128" y2="-.082" gradientTransform="translate(4.968 4.968) scale(.92237)"/><linearGradient id="a"><stop offset="0" stop-color="#535353"/><stop offset="1" stop-color="#7e7e7e"/></linearGradient><linearGradient id="d" gradientUnits="userSpaceOnUse" x1="117.001" x2="12.001" xlink:href="#a" y1="128" y2="-.004" gradientTransform="translate(4.968 4.968) scale(.92237)"/><linearGradient id="c" gradientUnits="userSpaceOnUse" x1="108.001" x2="20.001" y1="122" y2="6" gradientTransform="translate(4.968 4.968) scale(.92237)"><stop offset="0" stop-color="#e6e6e6"/><stop offset="1" stop-color="#fff"/></linearGradient><linearGradient id="b" gradientTransform="matrix(7.3787 0 0 7.3769 -801.151 -7197.59)" gradientUnits="userSpaceOnUse" x1="122.75" x2="111.75" xlink:href="#a" y1="991.621" y2="977.117"/><path d="M20.882 4.968c-.23 0-.461.01-.691.033-3.383.645-4.212 2.09-4.151 5.532V117.5c0 3.863 1.67 5.532 5.534 5.533h84.856c3.864 0 5.532-1.67 5.533-5.533V51.256a7.469 7.469 0 0 0-2.076-5.302L71 7.076a7.472 7.472 0 0 0-5.303-2.075H21.574a7.217 7.217 0 0 0-.692-.033zm64.575.013a3.86 3.86 0 0 0-.578.045c-2.456.787-3.282 4.524-1.39 6.282l22.226 22.34c2.053 1.957 6.141.283 6.25-2.56V8.748c0-1.95-1.765-3.722-3.704-3.722H86.037a3.818 3.818 0 0 0-.58-.045z" fill="url(#b)" style="fill:url(#b);stroke-width:.922368"/><path d="M21.572 10.503v106.994h84.858v-66.41L65.846 10.503Z" fill="url(#c)" style="fill:url(#c);stroke-width:.922368"/><rect fill="#fcede4" height="36.895" rx=".469" width="57.187" x="34.486" y="54.776" style="stroke-width:.922368"/><path d="M33.563 53.854v50.73h59.032v-50.73Zm2.765 1.845h53.498a.92.92 0 0 1 .922.922v33.205a.92.92 0 0 1-.922.923H36.328a.92.92 0 0 1-.922-.923V56.621a.92.92 0 0 1 .922-.922zm-.922 37.817h55.342v9.223H35.406z" fill="url(#d)" opacity=".6" style="fill:url(#d);stroke-width:.922368"/><path d="M38.175 56.621v.922h-.922v.923h.922v.922h1.014v-.922h.83v-.923h-.83v-.922zm23.982 0v.922h-2.768v.923h2.768v.922h1.014v-.922h2.675v-.923h-2.675v-.922zm23.981 0v.922h-.922v.923h.922v.922h1.014v-.922h.83v-.923h-.83v-.922zm-45.196.922v.923h2.767v-.923zm3.69 0v.923h2.767v-.923zm3.689 0v.923h2.767v-.923zm3.69 0v.923h2.767v-.923zm3.689 0v.923h2.767v-.923zm11.068 0v.923h2.768v-.923zm3.69 0v.923h2.767v-.923zm3.69 0v.923h2.766v-.923zm3.689 0v.923h2.767v-.923zm3.69 0v.923h2.766v-.923zm-43.352 2.768v2.767h1.014V60.31zm23.982 0v2.767h1.014V60.31zm23.981 0v2.767h1.014V60.31ZM38.175 64v2.767h1.014V64Zm23.982 0v2.767h1.014V64Zm23.981 0v2.767h1.014V64Zm-48.885 3.69v.922h.922v1.845h1.014v-1.845h.83v-.923h-1.843Zm3.69 0v.922h2.766v-.923zm3.689 0v.922h2.767v-.923zm3.689 0v.922h2.767v-.923zm3.69 0v.922h2.767v-.923zm3.689 0v.922h2.767v-.923zm3.69 0v.922h2.767v1.845h1.014v-1.845h2.675v-.923h-6.457zm7.378 0v.922h2.768v-.923zm3.69 0v.922h2.767v-.923zm3.69 0v.922h2.766v-.923zm3.689 0v.922h2.767v-.923zm3.69 0v.922h2.766v-.923zm3.689 0v.922h.922v1.845h1.014v-1.845h.83v-.923h-1.843zm-47.041 3.689v2.767h1.014V71.38zm23.982 0v2.767h1.014V71.38zm23.981 0v2.767h1.014V71.38zm-47.963 3.69v2.767h1.014v-2.768zm23.982 0v2.767h1.014v-2.768zm23.981 0v2.767h1.014v-2.768zm-47.963 3.689v2.767h1.014v-2.767zm23.982 0v2.767h1.014v-2.767zm23.981 0v2.767h1.014v-2.767zm-47.963 3.69v2.766h1.014v-2.767zm23.982 0v2.766h1.014v-2.767zm23.981 0v2.766h1.014v-2.767zm-47.963 3.689v.922h-.922v.923h.922v.922h1.014v-.922h.83v-.923h-.83v-.922zm23.982 0v.922h-2.768v.923h2.768v.922h1.014v-.922h2.675v-.923h-2.675v-.922zm23.981 0v.922h-.922v.923h.922v.922h1.014v-.922h.83v-.923h-.83v-.922zm-45.196.922v.923h2.767v-.923zm3.69 0v.923h2.767v-.923zm3.689 0v.923h2.767v-.923zm3.69 0v.923h2.767v-.923zm3.689 0v.923h2.767v-.923zm11.068 0v.923h2.768v-.923zm3.69 0v.923h2.767v-.923zm3.69 0v.923h2.766v-.923zm3.689 0v.923h2.767v-.923zm3.69 0v.923h2.766v-.923z" fill="#f09e6f" style="stroke-width:.922368"/><path d="M59.386 57.536 49.58 80.628l-5.808-10.993-5.583 2.06.993 3.352 2.69-1.368 6.908 14.295h1.638l11.281-26.748h22.607v1.844h2.769v-5.534H59.388zm3.201 10.153 8.92 9.894v.126L62.3 87.982h4.575l7.142-7.644h.142l7.85 7.644h4.957l-10.105-10.44v-.126l9.438-9.727h-4.576l-7.469 7.057h-.142l-6.568-7.057zm7.775 26.657c-.655 0-1.093.097-1.316.292-.222.192-.334.579-.334 1.16v.948c0 .395-.07.668-.209.818-.14.15-.394.225-.765.225h-.245v.564h.245c.368 0 .622.076.762.229.142.152.212.427.212.825v.944c0 .581.112.969.334 1.163.223.195.661.292 1.316.292h.254v-.567h-.277c-.369 0-.61-.056-.722-.17-.11-.113-.166-.358-.166-.735v-.978c0-.41-.058-.71-.177-.897-.118-.187-.324-.316-.616-.387.29-.066.492-.192.61-.379.122-.186.183-.487.183-.9v-.979c0-.373.055-.616.166-.73.113-.115.353-.174.722-.174h.277v-.564zm6.426 0v.564h.269c.37 0 .613.059.726.175.113.116.17.358.17.73v.978c0 .413.06.714.177.9.121.187.327.313.617.379-.293.07-.498.2-.617.387-.118.187-.178.487-.178.897v.978c0 .372-.056.614-.17.73-.112.116-.354.175-.725.175h-.269v.567h.245c.656 0 1.093-.097 1.314-.292.22-.194.331-.582.331-1.163v-.944c0-.398.071-.673.21-.825.143-.153.4-.23.77-.23h.252v-.563h-.252c-.37 0-.627-.075-.77-.225-.138-.15-.21-.423-.21-.818v-.948c0-.581-.11-.968-.331-1.16-.221-.195-.658-.292-1.314-.292zm-13.62.81v1.257h-1.183v.565h1.182v2.4c0 .534.112.911.335 1.13.224.218.608.327 1.153.327h.888v-.582h-.817c-.308 0-.524-.064-.647-.192-.124-.13-.186-.357-.186-.683v-2.4h1.65v-.565h-1.65v-1.256zM49.075 96.19c-.532 0-.94.116-1.227.348-.287.229-.43.554-.43.978 0 .334.096.6.288.795.192.192.496.328.915.41l.272.054.032.011c.645.13.968.36.968.697a.647.647 0 0 1-.265.55c-.176.129-.425.193-.746.193a2.66 2.66 0 0 1-.704-.103 4.31 4.31 0 0 1-.777-.315v.75c.28.093.537.16.777.204.24.047.47.072.688.072.553 0 .985-.122 1.295-.367.31-.247.465-.59.465-1.027 0-.329-.092-.596-.28-.802-.184-.205-.457-.34-.817-.408l-.292-.056c-.482-.093-.783-.188-.904-.285-.121-.097-.182-.244-.182-.441 0-.219.08-.382.241-.487.163-.107.41-.162.739-.162.218 0 .432.031.643.092.21.06.419.15.627.272v-.712a3.364 3.364 0 0 0-.643-.194 3.362 3.362 0 0 0-.683-.067zm4.632.018c-.532 0-.95.207-1.256.62-.305.413-.458.985-.458 1.717 0 .718.153 1.283.458 1.693.308.408.727.613 1.256.613.265 0 .499-.06.699-.175.202-.118.362-.286.48-.504v2.246h.732v-6.103h-.731v.563a1.242 1.242 0 0 0-.485-.497 1.365 1.365 0 0 0-.695-.173zm6.164.07a1.58 1.58 0 0 0-.897.253c-.25.165-.436.405-.557.719v-.865h-.73v4.42h.73v-2.197c0-.537.121-.948.36-1.232.24-.285.586-.426 1.038-.426.193 0 .37.028.53.083.16.056.319.142.474.263v-.74a1.62 1.62 0 0 0-.948-.278zm11.72.02 1.584 2.117-1.738 2.306h.841l1.292-1.773 1.293 1.773h.842l-1.737-2.306 1.584-2.117h-.818l-1.164 1.6-1.173-1.6Zm-17.77.526c.35 0 .615.145.793.434.182.287.273.71.273 1.27 0 .561-.09.986-.273 1.276-.178.287-.442.43-.792.43-.35 0-.616-.143-.795-.43-.176-.287-.264-.712-.264-1.275 0-.564.088-.987.264-1.274.18-.287.445-.43.795-.43z" fill="url(#e)" style="fill:url(#e);stroke-width:.922368"/></svg>