<svg viewBox="0 0 128 128" height="16" width="16" xmlns="http://www.w3.org/2000/svg"><linearGradient id="b" gradientUnits="userSpaceOnUse" x1="108.001" x2="20.001" y1="122" y2="6" gradientTransform="translate(4.968 4.968) scale(.92237)"><stop offset="0" stop-color="#e6e6e6"/><stop offset="1" stop-color="#fff"/></linearGradient><linearGradient id="a" gradientTransform="matrix(7.3787 0 0 7.3769 -801.151 -7197.59)" gradientUnits="userSpaceOnUse" x1="122.75" x2="111.75" y1="991.621" y2="977.117"><stop offset="0" stop-color="#535353"/><stop offset="1" stop-color="#7e7e7e"/></linearGradient><path d="M20.882 4.968c-.23 0-.461.01-.691.033-3.383.645-4.212 2.09-4.151 5.532V117.5c0 3.863 1.67 5.532 5.534 5.533h84.856c3.864 0 5.532-1.67 5.533-5.533V51.256a7.469 7.469 0 0 0-2.076-5.302L71 7.076a7.472 7.472 0 0 0-5.303-2.075H21.574a7.217 7.217 0 0 0-.692-.033zm64.575.013a3.86 3.86 0 0 0-.578.045c-2.456.787-3.282 4.524-1.39 6.282l22.226 22.34c2.053 1.957 6.141.283 6.25-2.56V8.748c0-1.95-1.765-3.722-3.704-3.722H86.037a3.818 3.818 0 0 0-.58-.045z" fill="url(#a)" style="fill:url(#a);stroke-width:.922368"/><path d="M21.572 10.503v106.994h84.858v-66.41L65.846 10.503Z" fill="url(#b)" style="fill:url(#b);stroke-width:.922368"/></svg>