<svg viewBox="0 0 128 128" height="16" width="16" xmlns:xlink="http://www.w3.org/1999/xlink" xmlns="http://www.w3.org/2000/svg"><linearGradient id="a"><stop offset="0" stop-color="#666"/><stop offset="1" stop-color="#333"/></linearGradient><linearGradient id="b"><stop offset="0" stop-color="#0369a3"/><stop offset="1" stop-color="#1c99e0"/></linearGradient><linearGradient id="k" gradientTransform="matrix(0 .72967 -1.18063 0 1388.152 -255.152)" gradientUnits="userSpaceOnUse" x1="445.695" x2="441.388" y1="1103.578" y2="1099.82"><stop offset="0" stop-color="#e9b913"/><stop offset="1" stop-color="#ff0"/></linearGradient><linearGradient id="j" gradientTransform="matrix(3.87379 0 0 3.60747 -1279.834 -4161.418)" gradientUnits="userSpaceOnUse" x2="0" y1="1173" y2="1178"><stop offset="0" stop-color="#0369a3"/><stop offset="1" stop-color="#023f62"/></linearGradient><linearGradient id="i" gradientTransform="matrix(1.10681 0 0 1.12734 -254.394 796.87)" gradientUnits="userSpaceOnUse" x2="0" y1="-629.669" y2="-635.549"><stop offset="0" stop-color="#18a303"/><stop offset="1" stop-color="#106802"/></linearGradient><linearGradient id="h" gradientTransform="matrix(3.87379 0 0 3.60747 -1279.834 -4165.928)" gradientUnits="userSpaceOnUse" x2="0" xlink:href="#a" y1="1173" y2="1178"/><linearGradient id="g" gradientTransform="matrix(-3.87379 0 0 3.60747 1426.283 -4167.054)" gradientUnits="userSpaceOnUse" x2="0" xlink:href="#a" y1="1173" y2="1178"/><linearGradient id="f" gradientTransform="matrix(4.15056 0 0 3.382 -864.804 2033.861)" gradientUnits="userSpaceOnUse" x2="0" y1="-581.638" y2="-578.638"><stop offset="0" stop-color="#63bbee"/><stop offset="1" stop-color="#aadcf7"/></linearGradient><linearGradient id="e" gradientUnits="userSpaceOnUse" x1="108.001" x2="20.001" xlink:href="#b" y1="130" y2="14" gradientTransform="translate(4.968 4.968) scale(.92237)"/><linearGradient id="d" gradientUnits="userSpaceOnUse" x1="108.001" x2="20.001" y1="122" y2="6" gradientTransform="translate(4.968 4.968) scale(.92237)"><stop offset="0" stop-color="#e6e6e6"/><stop offset="1" stop-color="#fff"/></linearGradient><linearGradient id="c" gradientTransform="matrix(7.3787 0 0 7.3769 -801.151 -7197.59)" gradientUnits="userSpaceOnUse" x1="122.75" x2="111.75" xlink:href="#b" y1="991.621" y2="977.117"/><path d="M20.882 4.968c-.23 0-.461.01-.691.033-3.383.645-4.212 2.09-4.151 5.532V117.5c0 3.863 1.67 5.532 5.534 5.533h84.856c3.864 0 5.532-1.67 5.533-5.533V51.256a7.469 7.469 0 0 0-2.076-5.302L71 7.076a7.472 7.472 0 0 0-5.303-2.075H21.574a7.217 7.217 0 0 0-.692-.033zm64.575.013a3.86 3.86 0 0 0-.578.045c-2.456.787-3.282 4.524-1.39 6.282l22.226 22.34c2.053 1.957 6.141.283 6.25-2.56V8.748c0-1.95-1.765-3.722-3.704-3.722H86.037a3.818 3.818 0 0 0-.58-.045z" fill="url(#c)" style="fill:url(#c);stroke-width:.922368"/><path d="M21.572 10.503v106.994h84.858v-66.41L65.846 10.503Z" fill="url(#d)" style="fill:url(#d);stroke-width:.922368"/><path d="M33.563 56.617v3.69h16.603v-3.69zm20.29.002v25.827h38.74V56.619Zm2.77 2.77h33.205V79.68H56.622Zm-23.06 4.607v3.69h16.603v-3.69zm0 7.38v3.689h16.603v-3.69zm0 7.378v3.69h16.603v-3.69zm0 7.38v3.689h59.032v-3.69zm0 7.378v3.69h59.032v-3.69zm0 7.38v3.689h38.74v-3.69z" fill="url(#e)" style="fill:url(#e);stroke-width:.922368"/><path d="M56.622 59.387h33.205v20.292H56.622Z" fill="url(#f)" style="fill:url(#f);stroke-width:.922368"/><path d="M80.972 65.024c2.214 1.127 6.061 5.053 8.854 7.891v3.382H64.369c4.428-5.637 11.07-9.019 16.603-11.273z" fill="url(#g)" style="fill:url(#g);stroke-width:.922368"/><path d="m72.844 71.576.194-1.592 2.906-1.266 1.635-1.556 2.874-1.187-.75 1.923-1.12 2-.667 2.172-.462 1.252z" fill="#333" style="stroke-width:.922368"/><path d="M73.778 70.097c-3.313-2.8-4.98-5.073-7.194-8.455-.648.199-.623.123-1.107 0 0 0-2.962 4.48-4.427 6.764-1.466 2.283-4.428 5.636-4.428 5.636v2.255h25.456s-6.082-4.474-8.3-6.2z" fill="url(#h)" style="fill:url(#h);stroke-width:.922368"/><path d="M89.827 74.042H88.4l-6.32 1.128s-6.247-1.691-7.187-1.691c-.923 0-3.882.563-4.436.563-.388 0-2.767-1.127-3.329-1.127-.928 0-1.998 1.198-4.765 1.69 0 0-.795-1.796-1.313-1.69-3.32 1.303-4.428 1.127-4.428 1.127v5.637h33.204v-5.637z" fill="url(#i)" style="fill:url(#i);stroke-width:.922368"/><path d="M56.622 75.17v4.509H85.4l1.106-1.127-1.106-1.128-2.214-1.127-5.534-1.127-5.534-.564-4.98.564H56.621z" fill="url(#j)" style="fill:url(#j);stroke-width:.922368"/><path d="m58.836 72.915 1.577-2.578 1.869-2.253 1.427-2.648 1.768-2.667-1.2 3.368-.878 2.774-.425 1.75-.793 1.865c-.32-.237-.723-.246-1.087-.366l-1.039.414z" fill="#333" style="stroke-width:.922368"/><path d="m74.331 72.915-1.611-2.487-2.858-3.175-2.364-3.166-.914-1.318.99 3.422 1.086 2.052.964 3.134.28 1.538.995.34 1.52-.36c.64-.064 1.278.013 1.912.02z" fill="gray" style="stroke-width:.922368"/><path d="m62.896 72.965 1.19-3.061.58-3.16.84-1.95.524-2.025.728 2.083.206 1.989.88 1.772.873 2.036.163 1.438-1.466.419-1.391-.553-1.54 1.017h-1.587v-.01z" fill="#666" style="stroke-width:.922368"/><path d="m77.162 73.48-1.939-1.423-1.238-1.006 1.203 1.91z" fill="gray" style="stroke-width:.922368"/><path d="m78.786 72.123.684-2.244.84-1.95.524-2.025.727 2.083.933 1.778.673 1.772-.096 1.895.924.945-1.902-.105-3.84-.81.533-1.339z" fill="#666" style="stroke-width:.922368"/><path d="m89.377 73.373-1.3-.797-1.82-2.54-2.676-2.356-2.09-1.776.403 1.484 1.847 2.968.203 2.677 1.11.868 2.49-.493 1.833-.035z" fill="gray" style="stroke-width:.922368"/><path d="m57.73 76.297-1.108 3.382h27.67v-1.127l-1.106-1.128-5.534-1.127-5.534-.564-5.534.564-5.99.168z" fill="#0369a3" style="stroke-width:.922368"/><path d="m68.797 78.552 1.107-1.128h4.427l3.32 1.128 1.108 1.127h-2.214Z" fill="#1c99e0" opacity=".5" style="stroke-width:.922368"/><path d="M89.827 64.925a5.534 5.534 0 0 1-5.534-5.534h5.534z" fill="url(#k)" opacity=".74" style="fill:url(#k);stroke-width:.922368"/></svg>