<svg viewBox="0 0 16 16" height="16" width="16" xmlns="http://www.w3.org/2000/svg"><path d="M9.824.704H4.352a.912.912 0 0 0-.912.912v2.736L9.824 8l2.736 1.795L15.296 8V4.352z" fill="#21a366" style="stroke-width:.912"/><path fill="#107c41" d="M3.44 8v3.648l6.384 1.277 5.472-1.277V8z" style="stroke-width:.96"/><path d="M3.44 11.648v2.736a.912.912 0 0 0 .912.912h10.032a.912.912 0 0 0 .912-.912v-2.736z" fill="#185c37" style="stroke-width:.912"/><path d="M9.824 4.352H3.44v9.12h5.472a1.824 1.824 0 0 0 1.824-1.824V5.264a.912.912 0 0 0-.912-.912z" opacity=".5" style="stroke-width:.912"/><rect y="3.44" width="9.12" height="9.12" rx=".912" fill="#107c41" x=".704" style="stroke-width:.912"/><path d="m2.794 10.736 1.771-2.744-1.622-2.728h1.305l.885 1.743c.082.166.139.29.168.37h.011q.091-.197.182-.385l.947-1.728H7.64L5.977 7.977l1.705 2.759H6.406L5.385 8.821a1.647 1.647 0 0 1-.121-.257h-.015a1.222 1.222 0 0 1-.12.248l-1.05 1.924z" fill="#fff" style="stroke-width:.912"/><path d="M15.296 1.616v2.736H9.824V.704h4.56a.912.912 0 0 1 .912.912z" fill="#33c481" style="stroke-width:.912"/></svg>