<svg viewBox="0 0 16 16" height="16" width="16" xmlns="http://www.w3.org/2000/svg"><path d="M14.384.704H4.352a.912.912 0 0 0-.912.912v12.768a.915.915 0 0 0 .912.912h9.607a1.337 1.337 0 0 0 1.337-1.337V1.616a.915.915 0 0 0-.912-.912z" fill="#ca64ea" style="stroke-width:.912"/><path fill="#ae4bd5" d="M11.648 4.352h3.648V8h-3.648z" style="stroke-width:.912"/><path d="M9.824 4.352H3.44v9.12h5.673a1.622 1.622 0 0 0 1.623-1.622V5.264a.912.912 0 0 0-.912-.912z" opacity=".75" style="stroke-width:.912"/><rect y="3.44" width="9.12" height="9.12" rx=".912" fill="#7719aa" x=".704" style="stroke-width:.912"/><path d="M2.673 5.264h1.195l2.84 3.629q.16.245.24.393h.016a5.326 5.326 0 0 1-.034-.745V5.264h1.017v5.472H6.831L3.903 7.007a2.88 2.88 0 0 1-.218-.385h-.02a7.643 7.643 0 0 1 .031.816v3.298H2.674z" fill="#fff" style="stroke-width:.912"/><path fill="#9332bf" d="M11.648 8h3.648v3.648h-3.648z" style="stroke-width:.912"/><path d="M11.648 11.648v3.648h2.736a.912.912 0 0 0 .912-.912v-2.736z" fill="#7719aa" style="stroke-width:.912"/></svg>