<svg viewBox="0 0 16 16" height="16" width="16" xmlns="http://www.w3.org/2000/svg"><path d="M8 .704A7.318 7.318 0 0 0 .704 8l9.12 2.155z" fill="#ed6c47" style="stroke-width:.912"/><path d="M8 .704V8l3.648 2.362L15.296 8A7.318 7.318 0 0 0 8 .704z" fill="#ff8f6b" style="stroke-width:.912"/><path d="M15.296 8A7.296 7.296 0 0 1 .704 8z" fill="#d35230" style="stroke-width:.912"/><path d="M9.824 4.352h-8.13a7.233 7.233 0 0 0 1.504 9.12h5.714a1.824 1.824 0 0 0 1.824-1.824V5.264a.912.912 0 0 0-.912-.912z" opacity=".5" style="stroke-width:.912"/><path d="M9.824 4.352h-8.13a7.233 7.233 0 0 0 1.504 9.12h5.714a1.824 1.824 0 0 0 1.824-1.824V5.264a.912.912 0 0 0-.912-.912z" opacity=".1" style="stroke-width:.912"/><rect y="3.44" width="9.12" height="9.12" rx=".912" fill="#c43e1c" x=".704" style="stroke-width:.912"/><path d="M5.571 5.264a2.075 2.075 0 0 1 1.426.439 1.61 1.61 0 0 1 .493 1.27 1.845 1.845 0 0 1-.244.95 1.674 1.674 0 0 1-.695.648 2.266 2.266 0 0 1-1.042.23h-.99v1.935H3.504V5.264zM4.517 7.965h.872a1.094 1.094 0 0 0 .77-.239.923.923 0 0 0 .26-.708q0-.904-.998-.904h-.904z" fill="#fff" style="stroke-width:.912"/></svg>