<!--Generator: Adobe Illustrator 23.0.1, SVG Export Plug-In . SVG Version: 6.00 Build 0)--><svg version="1.1" id="Layer_1" x="0" y="0" viewBox="0 0 62.8 54.8" height="16" width="16" style="enable-background:new 0 0 62.8 54.8" xml:space="preserve" xmlns="http://www.w3.org/2000/svg"><style type="text/css" id="style2">.st3,.st4{opacity:.1;enable-background:new}.st4{opacity:.2}</style><path d="M58.665 53.43H24.75a2.554 2.554 0 0 1-2.565-2.565v-14.82l13.015-6.46 16.245 6.46h7.22a2.554 2.554 0 0 1 2.565 2.565v12.255a2.554 2.554 0 0 1-2.565 2.565z" id="path6" style="stroke-width:.95;fill:#185c37"/><path d="m41.66 18.755-15.2 5.415-17.29-5.415V3.935a2.554 2.554 0 0 1 2.565-2.565H39.19a2.554 2.554 0 0 1 2.565 2.565z" id="path8" style="stroke-width:.95;fill:#33c481"/><path d="M9.17 18.755h39.71a2.554 2.554 0 0 1 2.565 2.565v14.82h-39.71a2.554 2.554 0 0 1-2.565-2.565z" id="path10" style="stroke-width:.95;fill:#21a366"/><path class="st3" d="M22.185 45.83h8.265c1.235 0 2.28-.855 2.47-2.09V14.765c0-1.425-1.14-2.565-2.47-2.565H9.17v21.28a2.554 2.554 0 0 0 2.565 2.565h10.45z" id="path12" style="stroke-width:.95"/><path class="st4" d="M30.45 44.785a3.608 3.608 0 0 0 3.61-3.61v-26.41a3.608 3.608 0 0 0-3.61-3.61H9.17v22.42a2.554 2.554 0 0 0 2.565 2.565h10.45v8.645h8.265z" id="path14" style="stroke-width:.95"/><path class="st4" d="M30.45 43.645c1.425 0 2.565-1.14 2.565-2.47v-26.41c0-1.425-1.14-2.565-2.47-2.565H9.17v21.28a2.554 2.554 0 0 0 2.565 2.565h10.45v7.6h8.265z" id="path16" style="stroke-width:.95"/><path class="st3" d="M29.405 43.645c1.425 0 2.565-1.14 2.565-2.47v-26.41c0-1.425-1.14-2.565-2.47-2.565H9.17v21.28a2.554 2.554 0 0 0 2.565 2.565h10.45v7.6h7.22z" id="path18" style="stroke-width:.95"/><linearGradient id="SVGID_1_" gradientUnits="userSpaceOnUse" x1="5.564" y1="2105.324" x2="26.403" y2="2141.42" gradientTransform="matrix(.95 0 0 .95 1.57 -1989.83)"><stop offset="0" style="stop-color:#18884f" id="stop20"/><stop offset=".5" style="stop-color:#117e43" id="stop22"/><stop offset="1" style="stop-color:#0b6631" id="stop24"/></linearGradient><path d="M4.135 12.2h25.27a2.554 2.554 0 0 1 2.565 2.565v25.27a2.554 2.554 0 0 1-2.565 2.565H4.135a2.554 2.554 0 0 1-2.565-2.565v-25.27A2.554 2.554 0 0 1 4.135 12.2z" id="path27" style="fill:url(#SVGID_1_);stroke-width:.95"/><path d="M17.245 18.945c1.615-.095 3.23.38 4.465 1.33 1.045 1.045 1.615 2.47 1.52 3.895 0 1.045-.285 1.995-.76 2.945a6.26 6.26 0 0 1-2.185 1.995c-1.045.475-2.185.76-3.325.665h-3.135v5.985h-3.23V18.945zM13.92 27.21h2.755c.855.095 1.71-.19 2.47-.76.57-.57.855-1.33.855-2.185 0-1.9-1.045-2.755-3.135-2.755h-2.85l-.095 5.7z" id="path29" style="stroke-width:.95;fill:#fff"/></svg>