<!--Generator: Adobe Illustrator 23.0.1, SVG Export Plug-In . SVG Version: 6.00 Build 0)--><svg viewBox="0 0 2112.25 2011.641" height="16" width="16" xml:space="preserve" xmlns="http://www.w3.org/2000/svg"><path fill="#2b7cd3" d="M1143.557 528.058h828.454c48.288 0 87.433 39.145 87.433 87.433v780.677c0 48.288-39.145 87.433-87.432 87.433h-828.455c-48.287 0-87.432-39.145-87.432-87.433V615.491c0-48.288 39.145-87.433 87.432-87.433z" style="stroke-width:.95"/><path fill="#41a5ee" d="M1581.673 528.058a85.66 85.66 0 0 1-25.8 61.633l-356.417 356.417-33.921 33.921a165.579 165.579 0 0 1-13.856 11.945 89.681 89.681 0 0 1-47.777 13.855 85.66 85.66 0 0 1-61.633-25.8L651.93 589.691c-29.462-29.05-34.265-74.882-11.466-109.41a103.762 103.762 0 0 1 11.466-13.856l390.34-390.338c33.538-34.038 88.32-34.443 122.36-.904.304.3.605.6.905.904l390.338 390.34a85.663 85.663 0 0 1 25.8 61.631z" style="stroke-width:.95"/><path fill="#103f91" d="M1581.673 1483.6c-.011 263.865-213.927 477.761-477.792 477.75-170.676-.01-328.384-91.06-413.73-238.864a342.989 342.989 0 0 1-23.888-47.778 409.969 409.969 0 0 1-18.155-47.777c-79.16-251.712 60.72-519.936 312.433-599.096a477.783 477.783 0 0 1 143.36-22.006c16.245 0 32.01.955 47.778 2.389a383.143 383.143 0 0 1 47.777 7.167c222.309 45.7 381.949 241.258 382.217 468.215z" style="stroke-width:.95"/><path opacity=".1" d="M1199.456 567.713v1019.563c-.237 35.427-21.706 67.254-54.466 80.743a84.648 84.648 0 0 1-32.966 6.69h-445.76a409.969 409.969 0 0 1-18.155-47.778c-79.16-251.712 60.72-519.936 312.433-599.096a477.781 477.781 0 0 1 143.36-22.006 85.66 85.66 0 0 1-61.633-25.8L651.93 589.69c-29.462-29.05-34.265-74.882-11.466-109.41h471.56c32.705.196 62.566 18.629 77.4 47.777a80.22 80.22 0 0 1 10.032 39.655z" style="stroke-width:.95"/><path opacity=".2" d="M1151.679 615.49v1019.563a84.606 84.606 0 0 1-6.69 32.966c-13.488 32.76-45.315 54.23-80.742 54.467H690.153a342.989 342.989 0 0 1-23.889-47.778 409.969 409.969 0 0 1-18.155-47.777c-79.16-251.712 60.72-519.936 312.433-599.096a477.783 477.783 0 0 1 143.36-22.006 85.66 85.66 0 0 1-61.632-25.8L651.93 589.69a85.663 85.663 0 0 1-25.799-61.633h438.116a85.043 85.043 0 0 1 63.544 28.189 85.999 85.999 0 0 1 23.888 59.244z" style="stroke-width:.95"/><path opacity=".2" d="M1151.679 615.49v924.01c-.364 48.135-39.297 87.068-87.432 87.432H648.109c-79.16-251.712 60.72-519.936 312.433-599.096a477.786 477.786 0 0 1 143.36-22.007 85.66 85.66 0 0 1-61.632-25.8L651.93 589.691a85.663 85.663 0 0 1-25.799-61.633h438.116a85.043 85.043 0 0 1 63.544 28.189 85.999 85.999 0 0 1 23.888 59.244z" style="stroke-width:.95"/><path opacity=".2" d="M1103.902 615.49v390.34a85.66 85.66 0 0 1-61.632-25.8L651.93 589.69a85.663 85.663 0 0 1-25.799-61.632h390.34c48.21.184 87.248 39.221 87.431 87.433z" style="stroke-width:.95"/><path opacity=".2" d="M1103.902 1005.83v533.67c-.363 48.135-39.295 87.068-87.432 87.432H648.11c-79.16-251.712 60.72-519.936 312.433-599.096a477.754 477.754 0 0 1 143.36-22.007z" style="stroke-width:.95"/><linearGradient id="a" gradientUnits="userSpaceOnUse" x1="192.207" y1="1683.361" x2="914.21" y2="432.882" gradientTransform="matrix(.95 0 0 -.95 52.806 2058.822)"><stop offset="0" style="stop-color:#2368c4"/><stop offset=".5" style="stop-color:#1a5dbe"/><stop offset="1" style="stop-color:#1146ac"/></linearGradient><path fill="url(#a)" d="M140.382 528.058h875.945c48.366 0 87.575 39.209 87.575 87.576v875.945c0 48.366-39.208 87.576-87.575 87.576H140.382c-48.367 0-87.576-39.21-87.576-87.576V615.634c0-48.366 39.209-87.576 87.576-87.576z" style="fill:url(#a);stroke-width:.95"/><path fill="#fff" d="M549.688 1145.72c16.085 47.395 25.64 77.304 28.666 89.726h1.959c2.898-12.422 13.234-44.448 31.007-96.079l127.42-370.464h117.15l-216.192 569.36H514.237l-212.99-569.36h120.495z" style="stroke-width:.95"/></svg>