<svg xmlns="http://www.w3.org/2000/svg" width="16" height="16" viewBox="0 0 64 64"><rect width="33" height="44" x="27" y="11" rx="4.125" ry="4.125" style="opacity:.2"/><path d="M34.25 5.002a3.643 3.819 0 0 0-.7.092L6.837 11.457A3.643 3.819 0 0 0 4 15.181v35.637a3.643 3.819 0 0 0 2.836 3.724l26.715 6.363A3.643 3.819 0 0 0 38 57.182V8.817a3.643 3.819 0 0 0-3.75-3.815Z" style="opacity:.2"/><rect style="fill:#e4e4e4" width="33" height="44" x="27" y="10" rx="4.125" ry="4.125"/><path d="M30 16v3h25v-3H30zm0 6v3h25v-3H30zm0 6v3h25v-3H30zm0 6v3h25v-3H30zm0 6v3h25v-3H30zm0 6v3h25v-3H30z" style="opacity:.2"/><path style="fill:#4f4f4f" d="M30 15v3h25v-3H30zm0 6v3h25v-3H30zm0 6v3h25v-3H30zm0 6v3h25v-3H30zm0 6v3h25v-3H30zm0 6v3h25v-3H30z"/><path style="opacity:.1;fill:#fff" d="M31.125 10A4.116 4.116 0 0 0 27 14.125v1A4.116 4.116 0 0 1 31.125 11h24.75A4.116 4.116 0 0 1 60 15.125v-1A4.116 4.116 0 0 0 55.875 10h-24.75z"/><path style="fill:#3072d6" d="M34.25 4.002a3.643 3.819 0 0 0-.7.092L6.837 10.457A3.643 3.819 0 0 0 4 14.181v35.637a3.643 3.819 0 0 0 2.836 3.724l26.715 6.363A3.643 3.819 0 0 0 38 56.182V7.817a3.643 3.819 0 0 0-3.75-3.815Z"/><path style="opacity:.1;fill:#fff" d="M34.25 4.002a3.643 3.819 0 0 0-.7.092L6.837 10.457A3.643 3.819 0 0 0 4 14.182v1a3.643 3.819 0 0 1 2.836-3.725L33.55 5.094a3.643 3.819 0 0 1 .699-.092A3.643 3.819 0 0 1 38 8.816v-1a3.643 3.819 0 0 0-3.75-3.814z"/><path d="m11 26 4 14 5-14 5 14 4-14" style="opacity:.2;fill:none;stroke:#000;stroke-width:6;stroke-linecap:round;stroke-linejoin:round"/><path style="fill:none;stroke:#fff;stroke-width:6;stroke-linecap:round;stroke-linejoin:round" d="m11 25 4 14 5-14 5 14 4-14"/></svg>