<!--Copyright 2000-2022 JetBrains s.r.o. and contributors. Use of this source code is governed by the Apache 2.0 license.--><svg width="16" height="16" viewBox="0 0 16 16" fill="none" xmlns="http://www.w3.org/2000/svg"><path d="M12.95 3.05a7 7 0 1 1-9.9 9.9 7 7 0 0 1 9.9-9.9Z" fill="#4D2536"/><path fill-rule="evenodd" clip-rule="evenodd" d="m14.914 6.905-.988.155a5.968 5.968 0 0 0-1.683-3.303A5.968 5.968 0 0 0 8.94 2.074l.155-.988A6.968 6.968 0 0 1 12.95 3.05a6.969 6.969 0 0 1 1.964 3.855Zm-8.01-5.82.156.989c-1.209.19-2.37.75-3.303 1.683A5.968 5.968 0 0 0 2.073 7.06l-.987-.155A6.968 6.968 0 0 1 3.05 3.05a6.968 6.968 0 0 1 3.855-1.964Zm-5.818 8.01A6.968 6.968 0 0 0 3.05 12.95a6.968 6.968 0 0 0 3.855 1.964l.155-.987a5.968 5.968 0 0 1-3.303-1.684A5.968 5.968 0 0 1 2.073 8.94l-.987.155Zm8.01 5.82-.156-.988a5.969 5.969 0 0 0 3.303-1.684 5.968 5.968 0 0 0 1.683-3.303l.988.155a6.968 6.968 0 0 1-1.964 3.855 6.968 6.968 0 0 1-3.855 1.964Z" fill="#F75494"/><path d="M9 4.5 6 8h4l-3 3.5" stroke="#F75494" stroke-linecap="round"/></svg>