<!--Copyright 2000-2022 JetBrains s.r.o. and contributors. Use of this source code is governed by the Apache 2.0 license.--><svg width="16" height="16" viewBox="0 0 16 16" fill="none" xmlns="http://www.w3.org/2000/svg"><path d="M15 8a7 7 0 1 0-7 7v-5a2 2 0 0 1 2-2h5Z" fill="#E7FDEB"/><path d="M15.248 9.5H10a.5.5 0 0 0-.5.5v5a.5.5 0 0 0 .5.5h5.248a.25.25 0 0 0 .177-.427l-2.397-2.396a.25.25 0 0 1 0-.354l2.397-2.396a.25.25 0 0 0-.177-.427Z" fill="#EEE0FF"/><path fill-rule="evenodd" clip-rule="evenodd" d="M9 10a1 1 0 0 1 1-1h5.248a.75.75 0 0 1 .53 1.28l-2.22 2.22 2.22 2.22a.75.75 0 0 1-.53 1.28H10a1 1 0 0 1-1-1v-5Zm5.645 0H10v5h4.645l-1.97-1.97a.75.75 0 0 1 0-1.06l1.97-1.97Z" fill="#955AE0"/><path d="M8 11.5H5.49v-7h4.92v.915H6.48v2.1h3.59v.92H6.48v2.15H8v.915Z" fill="#62B543"/><path d="M8 14a6 6 0 1 1 6-6h1a7 7 0 1 0-7 7v-1Z" fill="#62B543"/></svg>