<svg width="16" height="16" version="1.0" viewBox="0 0 283 162" id="svg69" xmlns="http://www.w3.org/2000/svg"><defs id="defs29"><clipPath id="cvfh"><path d="M49.91 52.76h168.6v51.02c-43.95 52.89-71.73 113.9-74.31 187.4H86.52c2.27-63.39 8.836-125.7 57.68-177.5H49.92v-61z" style="fill-rule:evenodd;fill:#fff" id="path5"/></clipPath><clipPath id="cvfg"><path d="M415.9 112.7v175.2h36.59V112.7H415.9zM285 113.794v39.94h56.56l-58.78 96.5v38.81h107.6v-38.81H321.6l71-100.9v-35.5H285zm200.7.063v176.2h39.94v-62.06h26.59c42.59-.146 43.72-115.5-2.25-114.2H485.7zm37.72 37.72h15.59c17.35-.595 17.71 38.94 0 36.5l-14.41 1.219-1.188-37.72z" style="fill-rule:evenodd" id="path11"/></clipPath><clipPath id="cvfe"><path d="M0-.063v345.6h603.39v-268.8h-334.5V-.042H.09z" id="path17"/></clipPath><clipPath id="cvff"><path transform="rotate(90)" d="M80.59-598.4h261.1v335.7H80.59v-335.7z" style="fill:#fff" id="path23"/></clipPath><filter id="cvfd" x="-.155" y="-.061" width="1.38" height="1.122"><feGaussianBlur stdDeviation="4" id="feGaussianBlur8"/></filter><filter id="cvfa" x="-.054" y="-.082" width="1.108" height="1.165"><feGaussianBlur stdDeviation="4" id="feGaussianBlur14"/></filter><filter id="cvfc" x="-.024" y="-.042" width="1.048" height="1.084"><feGaussianBlur stdDeviation="4" id="feGaussianBlur20"/></filter><filter id="cvfb" x="-.056" y="-.043" width="1.112" height="1.087"><feGaussianBlur stdDeviation="4" id="feGaussianBlur26"/></filter></defs><style type="text/css" id="style31">path{stroke-width:1px;fill:#000;stroke:#000}.PF{fill:#fff;stroke:#fff}</style><g transform="matrix(.44208 0 0 .44066 8.357 4.975)" id="g67"><path d="M0-.063v345.6h603.39v-268.8h-334.5V-.042H.09Z" id="path33"/><path d="M49.91 52.76h168.6v51.02c-43.95 52.89-71.73 113.9-74.31 187.4H86.52c2.27-63.39 8.836-125.7 57.68-177.5H49.92v-61z" style="fill:#fff;fill-rule:evenodd" id="path35"/><g clip-path="url(#cvfh)" id="g41"><path d="M49.91 52.76h168.6v51.02c-43.95 52.89-71.73 113.9-74.31 187.4" style="fill:none;stroke:#fff;stroke-width:10;filter:url(#cvfd)" id="path37"/><path d="M144.2 291.2H86.52c2.27-63.39 8.836-125.7 57.68-177.5H49.92v-61" style="fill:none;stroke:#000;stroke-width:10;filter:url(#cvfd)" id="path39"/></g><g clip-path="url(#cvfe)" id="g47"><path d="M603.4 345.6V76.8H268.9V.02H.1" style="fill:none;stroke:#fff;stroke-width:10;filter:url(#cvfc)" id="path43"/><path d="M0-.063v345.6h603.39" style="fill:none;stroke:#000;stroke-width:10;filter:url(#cvfc)" id="path45"/></g><g transform="matrix(.9942 0 0 .9852 1.514 5.062)" id="g65"><path transform="rotate(90)" d="M80.59-598.4h261.1v335.7H80.59Z" style="fill:#fff" id="path49"/><path d="M415.9 112.7v175.2h36.59V112.7ZM285 113.794v39.94h56.56l-58.78 96.5v38.81h107.6v-38.81H321.6l71-100.9v-35.5H285Zm200.7.063v176.2h39.94v-62.06h26.59c42.59-.146 43.72-115.5-2.25-114.2H485.7Zm37.72 37.72h15.59c17.35-.595 17.71 38.94 0 36.5l-14.41 1.219-1.188-37.72z" style="fill-rule:evenodd" id="path51"/><g clip-path="url(#cvfg)" id="g57"><path d="M452.5 287.9V112.7h-36.59M390.41 289v-38.81h-68.78l71-100.9v-35.5h-107.6m240.7 176.3v-62.06m26.59 0c42.59-.145 43.72-115.5-2.25-114.2h-64.28m53.31 74.22-14.41 1.219-1.188-37.72" style="fill:none;stroke:#fff;stroke-width:10;filter:url(#cvfa)" id="path53"/><path d="M415.9 112.7v175.2h36.59m-167.5-174.2v39.94h56.56l-58.78 96.5v38.81h107.6m95.34-175.2v176.2h39.94m0-62.06h26.59m-28.81-76.44h15.59c17.35-.595 17.71 38.94 0 36.5" style="fill:none;stroke:#000;stroke-width:10;filter:url(#cvfa)" id="path55"/></g><g clip-path="url(#cvff)" id="g63"><path transform="rotate(90)" d="M80.59-598.4h261.1M80.59-262.7v-335.7" style="fill:none;stroke:#fff;stroke-width:10;filter:url(#cvfb)" id="path59"/><path transform="rotate(90)" d="M341.7-598.4v335.7H80.6" style="fill:none;stroke:#000;stroke-width:10;filter:url(#cvfb)" id="path61"/></g></g></g></svg>