<svg width="16" height="16" viewBox="0 0 16 16" fill="none" xmlns="http://www.w3.org/2000/svg"><path d="M14.5 5.16v5.68a1.5 1.5 0 0 1-.756 1.302l-5 2.857a1.5 1.5 0 0 1-1.488 0l-5-2.857a1.5 1.5 0 0 1-.756-1.303V5.161a1.5 1.5 0 0 1 .756-1.303l5-2.857a1.5 1.5 0 0 1 1.488 0l5 2.857a1.5 1.5 0 0 1 .756 1.303Z" fill="#EEE0FF" stroke="#955AE0"/><path d="M8.135 11.5c1.49 0 2.765-.9 3.08-2.175H10.2c-.315.73-1.093 1.252-2.065 1.252C6.796 10.577 5.83 9.503 5.83 8s.967-2.577 2.306-2.577c.972 0 1.75.522 2.065 1.252h1.015C10.9 5.4 9.625 4.5 8.135 4.5 6.216 4.5 4.79 5.994 4.79 8c0 2.006 1.426 3.5 3.345 3.5Z" fill="#955AE0"/></svg>