<svg width="16" height="16" viewBox="0 0 16 16" fill="none" xmlns="http://www.w3.org/2000/svg"><path d="M11.998 13a1 1 0 1 0 0-2 1 1 0 0 0 0 2Z" fill="#3574F0"/><path fill-rule="evenodd" clip-rule="evenodd" d="M13.12 15.676a.5.5 0 0 1-.469.324h-1.307a.5.5 0 0 1-.468-.324l-.25-.666a.5.5 0 0 0-.55-.317l-.7.116a.5.5 0 0 1-.516-.243l-.653-1.132a.5.5 0 0 1 .047-.568l.451-.548a.5.5 0 0 0 0-.636l-.451-.548a.5.5 0 0 1-.047-.568l.653-1.132a.5.5 0 0 1 .515-.243l.701.116a.5.5 0 0 0 .55-.317l.25-.666A.5.5 0 0 1 11.344 8h1.307a.5.5 0 0 1 .468.324l.25.666a.5.5 0 0 0 .55.317l.7-.116a.5.5 0 0 1 .516.243l.653 1.132a.5.5 0 0 1-.046.568l-.452.548a.5.5 0 0 0 0 .636l.452.548a.5.5 0 0 1 .046.568l-.653 1.132a.5.5 0 0 1-.515.243l-.701-.116a.5.5 0 0 0-.55.317l-.25.666ZM11.69 15h.615l.127-.34a1.5 1.5 0 0 1 1.65-.954l.36.06.307-.532-.231-.281a1.5 1.5 0 0 1 0-1.906l.231-.281-.307-.532-.36.06a1.5 1.5 0 0 1-1.65-.953L12.305 9h-.614l-.128.34a1.5 1.5 0 0 1-1.651.954l-.36-.06-.306.532.231.281a1.5 1.5 0 0 1 0 1.906l-.231.281.307.532.359-.06a1.5 1.5 0 0 1 1.65.953l.129.341Z" fill="#3574F0"/><path fill-rule="evenodd" clip-rule="evenodd" d="M12.309 15h-.614l-.128-.34a1.5 1.5 0 0 0-1.65-.954l-.36.06-.307-.532.231-.281a1.5 1.5 0 0 0 0-1.906l-.231-.281.307-.532.36.06a1.5 1.5 0 0 0 1.65-.953L11.695 9h.614l.127.34a1.5 1.5 0 0 0 1.651.954l.36-.06.306.532-.231.281a1.5 1.5 0 0 0 0 1.906l.231.281-.307.532-.359-.06a1.5 1.5 0 0 0-1.65.953l-.128.341Zm.693-3a1 1 0 1 1-2 0 1 1 0 0 1 2 0Z" fill="#EDF3FF"/><path d="M3 13V5.828a2 2 0 0 1 .586-1.414l2.828-2.828A2 2 0 0 1 7.828 1H11a2 2 0 0 1 2 2v4.1A5 5 0 0 0 8 15H5a2 2 0 0 1-2-2Z" fill="#EBECF0"/><path fill-rule="evenodd" clip-rule="evenodd" d="M3 13V5.828a2 2 0 0 1 .586-1.414l2.828-2.828A2 2 0 0 1 7.828 1H11a2 2 0 0 1 2 2v4.1a5.022 5.022 0 0 0-1-.1V3a1 1 0 0 0-1-1H8v2a2 2 0 0 1-2 2H4v7a1 1 0 0 0 1 1h2.416c.156.357.352.692.584 1H5a2 2 0 0 1-2-2Zm1.414-8L7 2.414V4a1 1 0 0 1-1 1H4.414Z" fill="#6C707E"/></svg>