<svg width="16" height="16" viewBox="0 0 16 16" fill="none" xmlns="http://www.w3.org/2000/svg"><path d="M12 2.5c0-.07.005-.139.014-.206L8.992.567a2 2 0 0 0-1.984 0l-5 2.857A2 2 0 0 0 1 5.161v5.678a2 2 0 0 0 1.008 1.737l5 2.857a2 2 0 0 0 1.984 0l3.022-1.727A1.508 1.508 0 0 1 12 13.5V13h-.5a1.5 1.5 0 0 1 0-3h.5V6h-.5a1.5 1.5 0 0 1 0-3h.5v-.5Z" fill="#EEE0FF"/><path d="M14 2.5a.5.5 0 0 0-1 0V4h-1.5a.5.5 0 0 0 0 1H13v1.5a.5.5 0 0 0 1 0V5h1.5a.5.5 0 0 0 0-1H14V2.5Zm0 7a.5.5 0 0 0-1 0V11h-1.5a.5.5 0 0 0 0 1H13v1.5a.5.5 0 0 0 1 0V12h1.5a.5.5 0 0 0 0-1H14V9.5Z" fill="#955AE0"/><path d="M1 5.16a2 2 0 0 1 1.008-1.736l5-2.857a2 2 0 0 1 1.984 0l3.022 1.727c-.01.067-.014.136-.014.206V3h-.5c-.08 0-.158.006-.234.018l-2.77-1.583a1 1 0 0 0-.992 0l-5 2.857A1 1 0 0 0 2 5.161v5.678a1 1 0 0 0 .504.869l5 2.857a1 1 0 0 0 .992 0l2.77-1.583c.076.012.154.018.234.018h.5v.5c0 .07.005.139.014.206l-3.022 1.727a2 2 0 0 1-1.984 0l-5-2.857A2 2 0 0 1 1 10.839V5.161Z" fill="#955AE0"/><path d="M8.132 11.5c1.49 0 2.766-.9 3.08-2.175h-1.015c-.315.73-1.093 1.252-2.065 1.252-1.339 0-2.306-1.074-2.306-2.577s.967-2.577 2.306-2.577c.972 0 1.75.522 2.065 1.252h1.015C10.898 5.4 9.622 4.5 8.132 4.5 6.213 4.5 4.787 5.994 4.787 8c0 2.006 1.426 3.5 3.345 3.5Z" fill="#955AE0"/></svg>