<svg xmlns="http://www.w3.org/2000/svg" width="16" height="16" viewBox="0 0 16 16"><path d="m8.106 4.346.147.154H13A1.5 1.5 0 0 1 14.5 6v6.133c0 .82-.568 1.367-1.133 1.367H2.633c-.565 0-1.133-.547-1.133-1.367V3.867c0-.82.568-1.367 1.133-1.367h3.489a.5.5 0 0 1 .36.154l1.624 1.692Z" fill="#43454A" stroke="#CED0D6"/><g fill="none" fill-rule="evenodd"><path fill="#1f58ff" d="M4.504 6.99h11.409v8.923H4.504z"/><g fill="#fff"><path d="M15.1 14.186v.846h-2.667l1.455-3.158c.143-.314.215-.559.215-.734a.56.56 0 0 0-.065-.302c-.043-.067-.11-.1-.198-.1a.214.214 0 0 0-.198.11c-.043.074-.065.22-.065.439v.472h-1.045v-.181c0-.278.013-.497.04-.657a1.19 1.19 0 0 1 .2-.474c.106-.155.243-.273.413-.352.17-.08.372-.12.61-.12.463 0 .814.122 1.052.366.238.245.356.554.356.927 0 .284-.066.585-.2.901-.134.317-.528.99-1.183 2.017z"/><path fill-rule="nonzero" d="M9.564 12.173h1.297v-1.956h.978v4.819h-.978v-1.792H9.564v1.792h-.978v-4.819h.978z"/></g></g></svg>