<svg xmlns="http://www.w3.org/2000/svg" width="16" height="16" viewBox="0 0 16 16"><path d="m8.106 4.346.147.154H13A1.5 1.5 0 0 1 14.5 6v6.133c0 .82-.568 1.367-1.133 1.367H2.633c-.565 0-1.133-.547-1.133-1.367V3.867c0-.82.568-1.367 1.133-1.367h3.489a.5.5 0 0 1 .36.154l1.624 1.692Z" fill="#EBECF0" stroke="#6C707E"/><path d="M8.313 15.981c-1.939 0-3.512-1.752-3.512-3.917s1.573-3.923 3.512-3.923h4.082c1.939 0 3.511 1.758 3.511 3.923s-1.572 3.917-3.511 3.917zm3.991-1.383c1.256 0 2.273-1.132 2.273-2.534 0-1.401-1.017-2.54-2.273-2.54h-3.9c-1.256 0-2.274 1.139-2.274 2.54 0 1.402 1.018 2.534 2.273 2.534z" fill="#ea1b22"/></svg>