<svg viewBox="0 0 16 16" height="16" width="16" xmlns="http://www.w3.org/2000/svg"><defs><radialGradient id="g" cx="0" cy="0" r="1" gradientTransform="matrix(.47168 3.90825 -5.933 .70984 9.675 10.688)" gradientUnits="userSpaceOnUse"><stop stop-color="#00B2FF"/><stop offset=".571" stop-color="#74C5FF"/><stop offset=".979" stop-color="#9FD7FF"/></radialGradient><radialGradient id="e" cx="0" cy="0" r="1" gradientTransform="matrix(2.25383 8.49213 -8.52919 2.24404 9.44 9.578)" gradientUnits="userSpaceOnUse"><stop offset=".42" stop-color="#FF00E5" stop-opacity="0"/><stop offset=".774" stop-color="#FF00F5" stop-opacity=".64"/><stop offset=".899" stop-color="#BE46FF" stop-opacity=".87"/></radialGradient><radialGradient id="d" cx="0" cy="0" r="1" gradientTransform="matrix(-4.15498 3.82588 -3.84257 -4.13692 10.122 10.442)" gradientUnits="userSpaceOnUse"><stop offset=".267" stop-color="#0500FF" stop-opacity="0"/><stop offset="1" stop-color="#0500FF" stop-opacity=".15"/></radialGradient><radialGradient id="c" cx="0" cy="0" r="1" gradientTransform="matrix(5.37647 6.24227 -6.2695 5.3531 8.88 9.725)" gradientUnits="userSpaceOnUse"><stop offset=".026" stop-color="#8DFDFD"/><stop offset=".271" stop-color="#87FBFB"/><stop offset=".484" stop-color="#74D6F4"/><stop offset=".932" stop-color="#0038FF"/></radialGradient><radialGradient id="b" cx="0" cy="0" r="1" gradientTransform="matrix(2.49215 -1.46412 1.94137 3.27583 12.644 9.931)" gradientUnits="userSpaceOnUse"><stop offset=".719" stop-color="#FA00FF" stop-opacity="0"/><stop offset="1" stop-color="#FF00D6" stop-opacity=".44"/></radialGradient><radialGradient id="a" cx="0" cy="0" r="1" gradientTransform="matrix(3.85562 -3.53437 4.68643 5.06805 11.26 11.934)" gradientUnits="userSpaceOnUse"><stop offset=".771" stop-color="#001AFF"/><stop offset="1" stop-color="#8ACEFF"/></radialGradient><linearGradient id="h" x1="58.933" x2="66.139" y1="47.115" y2="90.984" gradientUnits="userSpaceOnUse" gradientTransform="matrix(.10282 0 0 .10237 4.047 3.82)"><stop offset=".042" stop-color="#0038FF"/><stop offset=".724" stop-color="#48BFF1" stop-opacity=".59"/><stop offset="1" stop-color="#74C5FF" stop-opacity="0"/></linearGradient><linearGradient id="f" x1="25.001" x2="143.626" y1="66.095" y2="67.72" gradientUnits="userSpaceOnUse" gradientTransform="matrix(.10282 0 0 .10237 4.047 3.82)"><stop offset=".432" stop-color="#FE62EE" stop-opacity="0"/><stop offset=".818" stop-color="#FD3AF5" stop-opacity=".47"/></linearGradient></defs><path d="m8.106 4.346.147.154H13A1.5 1.5 0 0 1 14.5 6v6.133c0 .82-.568 1.367-1.133 1.367H2.633c-.565 0-1.133-.547-1.133-1.367V3.867c0-.82.568-1.367 1.133-1.367h3.489a.5.5 0 0 1 .36.154l1.624 1.692Z" fill="#43454A" stroke="#CED0D6"/><path fill="url(#a)" d="M11.914 12.881c2.163 0 3.915-1.322 3.915-2.953 0-1.63-1.753-2.952-3.915-2.952C9.751 6.976 8 8.297 8 9.928c0 1.63 1.752 2.953 3.915 2.953z" style="fill:url(#a);stroke-width:.102602"/><path fill="url(#b)" d="M11.914 12.881c2.163 0 3.915-1.322 3.915-2.953 0-1.63-1.753-2.952-3.915-2.952C9.751 6.976 8 8.297 8 9.928c0 1.63 1.752 2.953 3.915 2.953z" style="fill:url(#b);stroke-width:.102602"/><path fill="url(#c)" d="M15.975 10.64a5.346 5.323 0 1 1-5.347-5.323c1.389.626 2.84 2.954 3.448 3.681.607.727 2.182 1.643 1.41-.28.329.52.489 1.382.489 1.923z" style="fill:url(#c);stroke-width:.102602"/><path fill="url(#d)" d="M15.975 10.64a5.346 5.323 0 1 1-5.347-5.323c1.389.626 2.84 2.954 3.448 3.681.607.727 2.182 1.643 1.41-.28.329.52.489 1.382.489 1.923z" style="fill:url(#d);stroke-width:.102602"/><path fill="url(#e)" d="M15.975 10.64a5.346 5.323 0 1 1-5.347-5.323c1.389.626 2.84 2.954 3.448 3.681.607.727 2.182 1.643 1.41-.28.329.52.489 1.382.489 1.923z" style="fill:url(#e);stroke-width:.102602"/><path fill="url(#f)" d="M15.975 10.64a5.346 5.323 0 1 1-5.347-5.323c1.389.626 2.84 2.954 3.448 3.681.607.727 2.182 1.643 1.41-.28.329.52.489 1.382.489 1.923z" style="fill:url(#f);stroke-width:.102602"/><path fill="url(#g)" d="M11.215 14.638c2.025-.43 3.433-1.86 3.148-3.192-.286-1.334-2.159-2.066-4.183-1.636-2.024.43-3.433 1.86-3.146 3.194.285 1.333 2.158 2.065 4.181 1.634z" style="fill:url(#g);stroke-width:.102602"/><path fill="url(#h)" d="M11.215 14.638c2.025-.43 3.433-1.86 3.148-3.192-.286-1.334-2.159-2.066-4.183-1.636-2.024.43-3.433 1.86-3.146 3.194.285 1.333 2.158 2.065 4.181 1.634z" style="fill:url(#h);stroke-width:.102602"/><path fill="#d6f8f8" fill-opacity=".19" fill-rule="evenodd" d="M13.468 13.196c.53-.537.756-1.142.638-1.697-.12-.553-.574-1.013-1.279-1.289-.703-.274-1.623-.35-2.592-.144-.97.206-1.779.65-2.306 1.185-.531.539-.757 1.144-.639 1.697.119.553.575 1.015 1.279 1.29.703.275 1.623.35 2.592.144.969-.206 1.778-.649 2.307-1.185zm-2.253 1.442c2.025-.43 3.433-1.86 3.148-3.192-.286-1.334-2.159-2.066-4.182-1.636-2.024.43-3.434 1.86-3.147 3.194.285 1.333 2.158 2.063 4.181 1.634z" clip-rule="evenodd" style="stroke-width:.102602"/></svg>