<svg xmlns="http://www.w3.org/2000/svg" viewBox="0 0 16 16" height="16" width="16"><path d="m8.106 4.346.147.154H13A1.5 1.5 0 0 1 14.5 6v6.133c0 .82-.568 1.367-1.133 1.367H2.633c-.565 0-1.133-.547-1.133-1.367V3.867c0-.82.568-1.367 1.133-1.367h3.489a.5.5 0 0 1 .36.154l1.624 1.692Z" fill="#43454A" stroke="#CED0D6"/><g fill="none" fill-rule="evenodd"><path fill="#020303" fill-rule="nonzero" d="M6.512 6.195h9.484v4.883H6.512z"/><path fill="#59a869" d="M6.512 11.078h9.484v4.883H6.512z"/><path d="M8.643 9.667V7.614h.563v-.722H7.19v.722h.579v2.053h-.564v.713h2.017v-.713zm5.151.713h.012l.554-1.99v1.99h.959v-.715h-.382V7.607h.372v-.715h-1.07l-.442 1.595-.447-1.595h-1.08v.715h.383v2.058h-.372v.715h.948V8.39zm-4.234 0v-.722h.426V8.512h1.637v.22s.137.123.18.24l.088.229s.04.127.04.241l-.017.228s-.027.186-.075.24l-.17.23s-.215.24-.5.24zm0-3.488h1.609c.285 0 .5.237.5.237l.17.224c.048.055.075.237.075.237l.018.224c0 .112-.04.237-.04.237l-.088.224a.705.705 0 0 1-.181.234H9.986v-.907h-.425zm1.067.715v.663h.623v-.663zm0 1.387v.663h.623v-.663zm-3.423 6.269v-3.488h.793c.838 0 1.24.554 1.24 1.646 0 1.185-.358 1.842-1.301 1.842zm.67-.693v-2.093h.264c.28 0 .413.333.413.988 0 .711-.119 1.105-.433 1.105zm2.36.668V11.75h.972c.563 0 .975.263.975.796 0 .534-.216.684-.363.728.31.087.448.4.448.943 0 .615-.41 1.02-1.095 1.02zm.672-2.281h.274c.287 0 .404-.12.404-.35 0-.208-.123-.348-.365-.348h-.313zm0 .534v1.256h.287c.254 0 .391-.235.391-.637 0-.418-.155-.62-.432-.62zm4.413 1.772-2.03.005c-.025-.591.136-1.085.481-1.48.434-.496.872-.7.872-1.111a.332.332 0 0 0-.346-.263c-.298 0-.33.315-.33.315h-.694c.005-.49.455-.954 1.017-.954.573 0 1.03.422 1.03.902 0 .495-.334.735-.772 1.225.009-.01-.455.425-.51.665h1.282z" fill="#fff"/></g></svg>