<svg xmlns="http://www.w3.org/2000/svg" width="16" height="16" viewBox="0 0 16 16"><path d="m8.106 4.346.147.154H13A1.5 1.5 0 0 1 14.5 6v6.133c0 .82-.568 1.367-1.133 1.367H2.633c-.565 0-1.133-.547-1.133-1.367V3.867c0-.82.568-1.367 1.133-1.367h3.489a.5.5 0 0 1 .36.154l1.624 1.692Z" fill="#43454A" stroke="#CED0D6"/><path d="M15.669 15.932c.107-.044.04-.222-.246-.652l-.174-.26.099-.063c.054-.035.217-.165.362-.29.146-.124.281-.226.301-.226.053 0-.158-.215-.27-.274-.143-.076-.52-.063-1.117.041-.533.092-.76.094-.872.005-.084-.065-.372-.433-.508-.648-.3-.474-.838-.988-1.246-1.19-.215-.106-1.017-.418-1.79-.695-1.422-.51-1.96-.796-2.427-1.287-.27-.285-.44-.55-.885-1.382-.444-.83-.62-1.1-.91-1.39a1.96 1.96 0 0 0-1.357-.576 1.657 1.657 0 0 1-.726-.167c-.25-.132-.37-.163-.454-.117-.064.035-.07.068-.056.37.023.551.143.726.955 1.403.294.245.447.448.517.686.03.103.144.624.252 1.157.306 1.5.562 2.304.927 2.9.187.305.536.685.718.78l.115.06-.023-.33c-.03-.421.02-.419.184.008.242.635.523 1.084.907 1.451.371.355.871.608 1.272.646l.185.017-.146-.172c-.192-.225-.5-.772-.638-1.134-.18-.473-.314-1.28-.211-1.28.018 0 .06.076.095.17.214.594.28.74.374.843l.106.115.489-.02c.269-.012.721-.056 1.005-.1.666-.1 1.352-.11 1.675-.02.301.082.665.282 1.17.642.387.277 1.09.678 1.486.849.26.112.73.183.862.13z" fill="#b7e0ef"/></svg>