<svg viewBox="0 0 32 32" width="16" height="16" xmlns="http://www.w3.org/2000/svg"><path fill="#9AA7B0" fill-opacity=".8" fill-rule="evenodd" style="stroke-width:.5" class="cls-1" d="M8.668.979a.12.12 0 0 0-.107.066 6.35 6.35 0 0 0-.211 1.244 2.605 2.605 0 0 0 0 .397l-.245.103A5.775 5.775 0 0 1 6.435 1.5a.115.115 0 0 0-.2.074V1.9a5.855 5.855 0 0 0 .6 2.59v.13A2.165 2.165 0 0 0 7.5 6.345l.025.023a2.5 2.5 0 0 0 1.696.666h1.709A2.45 2.45 0 0 0 12.6 6.4a3.62 3.62 0 0 0 .705-.9 3.815 3.815 0 0 0 .39-1.03 1 1 0 0 0 .04-.214v-.08h.005c0-.545-.455-.86-1-1a25.215 25.215 0 0 0-2.445-.647c-.1 0-.256.001-.436-.029a17.5 17.5 0 0 1-.007-.01 3.94 3.94 0 0 1 .003 0 10.575 10.575 0 0 1-.062-.074 17.5 17.5 0 0 1-.965-1.295 10.575 10.575 0 0 1-.039-.06.115.115 0 0 0-.096-.067.12.12 0 0 0-.025-.015zm4.512 2.777a.16.16 0 0 1 .166.158 1.395 1.395 0 0 1-.002.008.16.16 0 0 0-.164-.147 1.415 1.415 0 0 0-.914.43 1.415 1.415 0 0 0-.112.13.19.19 0 0 0-.008.017.19.19 0 0 1 .008-.038 1.415 1.415 0 0 1 .112-.109 1.415 1.415 0 0 1 .914-.45zm.095.557a1.395 1.395 0 0 1-.007.023 1.395 1.395 0 0 0 .007-.024zm-10.13.011a.26.26 0 0 0-.254.125 2.945 2.945 0 0 0 .947 3.776c-.182.421-.296.994-.313 1.634-.03 1.17 0 .277 0 .282.026.998.3 1.836.68 2.183l-.644 2.432A.195.195 0 0 0 3.75 15h.775a.45.45 0 0 0 .424-.32c.205-.685.436-1.73.951-2.18h.446a.255.255 0 0 0 .013.006h-.42C5.43 12.95 5.195 14 5 14.68a.445.445 0 0 1-.41.32h.96a.45.45 0 0 0 .354-.314c.21-.685.441-1.73.951-2.18h-.464V12.5h1.834c.5.45.69 1.5.894 2.18a.445.445 0 0 0 .426.32h.5a.195.195 0 0 0 .133-.059l.008.059h.5a.195.195 0 0 0 .189-.244l-.256-2.256h-.058a.42.42 0 0 1-.028-.004.945 2.51 0 0 0 .928-2.506.945 2.51 0 0 0-.945-2.51.945 2.51 0 0 0-.112.026H8.58V7.5a.255.255 0 0 0-.08 0l-.012.006H6.391V7.5a.3.3 0 0 0-.016.006H4.527A1.035 1.035 0 0 1 4.54 7.5a2.885 2.885 0 0 1-1.394-3.13.07.07 0 0 0 0-.046zm6.709 7.442a.945 2.51 0 0 0 .04.109 1.54 1.54 0 0 1-.04-.11z" transform="scale(2)"/></svg>