<svg xmlns="http://www.w3.org/2000/svg" width="16" height="16" viewBox="0 0 16 16"><path d="m8.106 4.346.147.154H13A1.5 1.5 0 0 1 14.5 6v6.133c0 .82-.568 1.367-1.133 1.367H2.633c-.565 0-1.133-.547-1.133-1.367V3.867c0-.82.568-1.367 1.133-1.367h3.489a.5.5 0 0 1 .36.154l1.624 1.692Z" fill="#EBECF0" stroke="#6C707E"/><path d="M7.36 7.26h4.103v4.133H7.36z" fill="#f25022"/><path d="M11.89 7.26h4.104v4.133H11.89z" fill="#7fba00"/><path d="M7.36 11.824h4.103v4.133H7.36z" fill="#00a4ef"/><path d="M11.89 11.824h4.104v4.133H11.89z" fill="#ffb900"/></svg>