<svg width="16" height="16" viewBox="0 0 16 16" fill="none" xmlns="http://www.w3.org/2000/svg"><path fill-rule="evenodd" clip-rule="evenodd" d="M7.5 0a.5.5 0 0 1 .5.5v2.025c1.006.1 1.924.497 2.664 1.104l1.432-1.432a.5.5 0 1 1 .707.707l-1.432 1.432A4.977 4.977 0 0 1 12.476 7H14.5a.5.5 0 0 1 0 1h-2.025a4.977 4.977 0 0 1-1.104 2.664l1.432 1.432a.5.5 0 1 1-.707.707l-1.432-1.432A4.976 4.976 0 0 1 8 12.476V14.5a.5.5 0 1 1-1 0v-2.025a4.977 4.977 0 0 1-2.664-1.104l-1.432 1.432a.5.5 0 1 1-.707-.707l1.432-1.432A4.977 4.977 0 0 1 2.525 8H.5a.5.5 0 0 1 0-1h2.025a4.977 4.977 0 0 1 1.104-2.664L2.197 2.904a.5.5 0 0 1 .707-.707l1.432 1.432A4.977 4.977 0 0 1 7 2.525V.5a.5.5 0 0 1 .5-.5Zm0 3.5a4 4 0 1 0 0 8 4 4 0 0 0 0-8Z" fill="#039BA1"/></svg>