<svg width="16" height="16" viewBox="0 0 16 16" fill="none" xmlns="http://www.w3.org/2000/svg"><path fill-rule="evenodd" clip-rule="evenodd" d="M12 7.5a.5.5 0 0 0-1 0v.535a3.482 3.482 0 0 0-1.596.662l-.379-.379a.5.5 0 0 0-.707.707l.379.379A3.482 3.482 0 0 0 8.035 11H7.5a.5.5 0 0 0 0 1h.535c.085.593.319 1.138.662 1.596l-.379.379a.5.5 0 1 0 .707.707l.379-.379a3.483 3.483 0 0 0 1.596.662v.535a.5.5 0 0 0 1 0v-.535a3.483 3.483 0 0 0 1.596-.662l.379.379a.5.5 0 0 0 .707-.707l-.379-.379A3.483 3.483 0 0 0 14.965 12h.535a.5.5 0 0 0 0-1h-.535a3.483 3.483 0 0 0-.662-1.596l.379-.379a.5.5 0 0 0-.707-.707l-.379.379A3.482 3.482 0 0 0 12 8.035V7.5Zm2 4a2.488 2.488 0 0 0-1.121-2.086A2.5 2.5 0 1 0 14 11.5Z" fill="#24A394"/><path d="M3 5.414V13a2 2 0 0 0 2 2h2.257A5.5 5.5 0 0 1 13 6.207V3a2 2 0 0 0-2-2H7.414a1 1 0 0 0-.707.293L3.293 4.707A1 1 0 0 0 3 5.414Z" fill="#43454A"/><path fill-rule="evenodd" clip-rule="evenodd" d="M3 5.414V13a2 2 0 0 0 2 2h2.257a5.507 5.507 0 0 1-.657-1H5a1 1 0 0 1-1-1V6h2a2 2 0 0 0 2-2V2h3a1 1 0 0 1 1 1v3.022a5.5 5.5 0 0 1 1 .185V3a2 2 0 0 0-2-2H7.414a1 1 0 0 0-.707.293L3.293 4.707A1 1 0 0 0 3 5.414Zm4-3L4.414 5H6a1 1 0 0 0 1-1V2.414Z" fill="#CED0D6"/></svg>