<svg width="16" height="16" viewBox="0 0 16 16" fill="none" xmlns="http://www.w3.org/2000/svg"><path fill-rule="evenodd" clip-rule="evenodd" d="M12 7.5a.5.5 0 0 0-1 0v.535a3.482 3.482 0 0 0-1.596.662l-.379-.379a.5.5 0 0 0-.707.707l.379.379A3.482 3.482 0 0 0 8.035 11H7.5a.5.5 0 0 0 0 1h.535c.085.593.319 1.138.662 1.596l-.379.379a.5.5 0 1 0 .707.707l.379-.379a3.483 3.483 0 0 0 1.596.662v.535a.5.5 0 0 0 1 0v-.535a3.483 3.483 0 0 0 1.596-.662l.379.379a.5.5 0 0 0 .707-.707l-.379-.379A3.483 3.483 0 0 0 14.965 12h.535a.5.5 0 0 0 0-1h-.535a3.483 3.483 0 0 0-.662-1.596l.379-.379a.5.5 0 0 0-.707-.707l-.379.379A3.482 3.482 0 0 0 12 8.035V7.5Zm2 4a2.488 2.488 0 0 0-1.121-2.086A2.5 2.5 0 1 0 14 11.5Z" fill="#039BA1"/><path d="M1 3.867C1 2.836 1.731 2 2.633 2h3.489a1 1 0 0 1 .721.308L8.467 4H13a2 2 0 0 1 2 2v1.257A5.5 5.5 0 0 0 6.6 14H2.633C1.731 14 1 13.164 1 12.133V3.867Z" fill="#87CFE9"/><path d="M2.633 3h3.489L8.04 5H13a1 1 0 0 1 1 1v.6c.358.183.693.404 1 .657V6a2 2 0 0 0-2-2H8.467L6.843 2.308A1 1 0 0 0 6.122 2H2.633C1.731 2 1 2.836 1 3.867v8.266C1 13.164 1.731 14 2.633 14H6.6a5.465 5.465 0 0 1-.393-1H2.633C2.405 13 2 12.742 2 12.133V3.867C2 3.258 2.405 3 2.633 3Z" fill="#6C707E"/></svg>