<svg width="16" height="16" viewBox="0 0 16 16" fill="none" xmlns="http://www.w3.org/2000/svg"><path fill-rule="evenodd" clip-rule="evenodd" d="M12 7.5a.5.5 0 0 0-1 0v.535a3.482 3.482 0 0 0-1.596.662l-.379-.379a.5.5 0 0 0-.707.707l.379.379A3.482 3.482 0 0 0 8.035 11H7.5a.5.5 0 0 0 0 1h.535c.085.593.319 1.138.662 1.596l-.379.379a.5.5 0 1 0 .707.707l.379-.379a3.483 3.483 0 0 0 1.596.662v.535a.5.5 0 0 0 1 0v-.535a3.483 3.483 0 0 0 1.596-.662l.379.379a.5.5 0 0 0 .707-.707l-.379-.379A3.483 3.483 0 0 0 14.965 12h.535a.5.5 0 0 0 0-1h-.535a3.483 3.483 0 0 0-.662-1.596l.379-.379a.5.5 0 0 0-.707-.707l-.379.379A3.482 3.482 0 0 0 12 8.035V7.5Zm2 4a2.488 2.488 0 0 0-1.121-2.086A2.5 2.5 0 1 0 14 11.5Z" fill="#039BA1"/><path d="M14 6.6V3a2 2 0 0 0-2-2H4a2 2 0 0 0-2 2v10a2 2 0 0 0 2 2h3.257a5.507 5.507 0 0 1-.657-1H4a1 1 0 0 1-1-1V3a1 1 0 0 1 1-1h8a1 1 0 0 1 1 1v3.207c.349.099.683.23 1 .393Z" fill="#6C707E"/><path d="M7.725 7.5H5.5a.5.5 0 0 0 0 1h1.39c.238-.366.519-.701.835-1ZM6.207 10H5.5a.5.5 0 0 0 0 1h.522a5.48 5.48 0 0 1 .185-1ZM10.5 6a.5.5 0 0 0 0-1h-5a.5.5 0 0 0 0 1h5Z" fill="#6C707E"/></svg>