<!--Copyright 2000-2023 JetBrains s.r.o. and contributors. Use of this source code is governed by the Apache 2.0 license.--><svg width="16" height="16" viewBox="0 0 16 16" fill="none" xmlns="http://www.w3.org/2000/svg"><path d="M3.988 9.778c.01-.385-.118-.693-.383-.923-.265-.23-.622-.345-1.072-.345H2V7.43h.533c.45 0 .807-.115 1.072-.345.265-.23.393-.537.383-.922l-.03-1.583c-.01-.52.097-.975.322-1.365.23-.39.558-.69.983-.9.425-.21.925-.315 1.5-.315H7.5v1.005h-.73c-.52 0-.932.145-1.237.435-.3.285-.448.672-.443 1.163l.03 1.567c.01.51-.127.928-.412 1.253-.285.32-.67.497-1.155.532.485.09.87.3 1.155.63.285.325.422.72.412 1.185l-.03 1.777c-.01.44.123.79.398 1.05.28.266.657.398 1.132.398h.88V14h-.887c-.535 0-1.005-.1-1.41-.3-.4-.195-.71-.477-.93-.848-.215-.364-.32-.792-.315-1.282l.03-1.792Zm8.026 0c-.01-.385.118-.693.383-.923.265-.23.623-.345 1.072-.345H14V7.43h-.53c-.45 0-.808-.115-1.073-.345-.265-.23-.393-.537-.383-.922l.03-1.583c.01-.52-.1-.975-.33-1.365a2.24 2.24 0 0 0-.975-.9C10.314 2.105 9.816 2 9.24 2H8.5v1.005h.732c.52 0 .93.145 1.23.435.305.285.455.672.45 1.163l-.03 1.567c-.01.51.127.928.412 1.253.285.32.67.497 1.155.532-.485.09-.87.3-1.155.63-.285.325-.422.72-.412 1.185l.03 1.777c.01.44-.125.79-.405 1.05-.275.266-.65.398-1.125.398H8.5V14h.89c.535 0 1.002-.1 1.402-.3.405-.195.715-.477.93-.848.22-.364.328-.792.322-1.282l-.03-1.792Z" fill="#C0A940"/></svg>