<!--Copyright 2000-2023 JetBrains s.r.o. and contributors. Use of this source code is governed by the Apache 2.0 license.--><svg width="16" height="16" viewBox="0 0 16 16" fill="none" xmlns="http://www.w3.org/2000/svg"><path fill-rule="evenodd" clip-rule="evenodd" d="M10.078 2.44a.6.6 0 0 0-1.157-.319L5.765 13.56a.6.6 0 0 0 1.157.319L10.078 2.44ZM5.413 4.667a.6.6 0 0 1-.094.843L1.96 8.197l3.36 2.687a.6.6 0 0 1-.75.937L.624 8.666.04 8.197l.585-.468L4.57 4.573a.6.6 0 0 1 .844.094Zm5.174 7.06a.6.6 0 0 1 .094-.843l3.359-2.687-3.36-2.687a.6.6 0 0 1 .75-.937l3.945 3.156.585.468-.585.469-3.944 3.155a.6.6 0 0 1-.844-.094Z" fill="#b88ece"/></svg>