<svg xmlns="http://www.w3.org/2000/svg" width="16" height="16" viewBox="0 0 16 16"><path fill="#9AA7B0" fill-opacity=".8" fill-rule="evenodd" d="M1 13h14V4H7.985L6.696 2.711A2.8 2.8 0 004.98 2H1.05a.051.051 0 00-.05.051V13z"/><path d="M1.017 7.498V2.007h1.997c1.22 0 2.136.03 2.356.076.642.137 1.054.405 1.85 1.207l.744.75h7.02v8.95H1.016z" fill="#87939a" stroke-width=".068"/><path d="M8.313 15.981c-1.939 0-3.512-1.752-3.512-3.917s1.573-3.923 3.512-3.923h4.082c1.939 0 3.511 1.758 3.511 3.923s-1.572 3.917-3.511 3.917zm3.991-1.383c1.256 0 2.273-1.132 2.273-2.534 0-1.401-1.017-2.54-2.273-2.54h-3.9c-1.256 0-2.274 1.139-2.274 2.54 0 1.402 1.018 2.534 2.273 2.534z" fill="#ea1b22" stroke-width="1.526"/></svg>