<svg xmlns="http://www.w3.org/2000/svg" width="16" height="16" viewBox="0 0 16 16"><g fill="#C0A940" fill-rule="evenodd"><path fill-opacity=".7" d="M8.416 13.896c0-.157.021-.578.021-.757 0-.82-.31-1.155-1.168-1.155H7v-.969h.269c.858 0 1.168-.347 1.168-1.167 0-.179-.021-.598-.021-.757 0-1.071.466-1.744 2.349-2.09l.216.84c-1.241.347-1.406.673-1.406 1.44 0 .211.021.557.021.778 0 .82-.393 1.22-1.076 1.442.693.23 1.076.62 1.076 1.44 0 .22-.021.566-.021.777 0 .768.165 1.094 1.406 1.44l-.216.842c-1.883-.348-2.349-1.02-2.349-2.104m3.603 1.262c1.24-.347 1.406-.673 1.406-1.439 0-.21-.02-.558-.02-.779 0-.82.392-1.22 1.075-1.44-.692-.232-1.075-.62-1.075-1.44 0-.22.02-.568.02-.779 0-.768-.165-1.093-1.406-1.44l.217-.84c1.883.345 2.348 1.018 2.348 2.091 0 .158-.021.578-.021.756 0 .821.31 1.167 1.169 1.167H16v.968h-.268c-.86 0-1.17.336-1.17 1.156 0 .18.022.6.022.757 0 1.083-.465 1.756-2.348 2.104l-.217-.842z"/><path fill-opacity=".8" d="M7 1L3 5h4zm3.596 11.94c0 .122-.011 1.01-.005 1.035l.002-.002c.03 0 .907.292.907.292s.872-.289.925-.325c-.007-.013-.02-.878-.02-1 0-.449.089-.975.404-1.437-.27-.39-.404-.873-.404-1.444 0-.122.01-1.01.004-1.035l-.001.001c-.031 0-.908-.29-.908-.29s-.872.288-.925.323c.007.014.02.88.02 1.001 0 .45-.09.974-.403 1.437.268.39.404.872.404 1.444"/><path fill-opacity=".8" d="M7.416 13.896c0-.084.019-.868.016-.905-.04-.005-1.432-.008-1.432-.008v-2.968s1.391-.003 1.431-.008c.004-.038-.015-.83-.015-.915 0-2.21 1.692-2.804 3.168-3.076l.916-.168.916.168c.192.035.389.077.584.127V1H8v5H3v9h4.609a3.214 3.214 0 01-.193-1.104"/></g></svg>