<svg xmlns="http://www.w3.org/2000/svg" width="16" height="16" viewBox="0 0 16 16"><g fill="#b6b6b6" fill-rule="evenodd"><rect width="60" height="10" rx="5" transform="matrix(.06177 0 0 .06308 1.591 14.168)"/><g transform="matrix(.06177 0 0 .06308 1.591 12.906)"><rect x="40" width="20" height="10" rx="5"/><rect width="30" height="10" rx="5"/></g><rect width="60" height="10" rx="5" transform="matrix(.06177 0 0 .06308 1.591 11.645)"/><g transform="matrix(.06177 0 0 .06308 1.591 10.383)"><rect x="30" width="100" height="10" rx="5"/><rect width="20" height="10" rx="5"/></g><g transform="matrix(.06177 0 0 .06308 1.591 9.122)"><rect x="120" width="40" height="10" rx="5"/><rect x="60" width="50" height="10" rx="5"/><rect width="50" height="10" rx="5"/></g><g transform="matrix(.06177 0 0 .06308 1.591 7.86)"><rect x="80" width="90" height="10" rx="5"/><rect x="30" width="40" height="10" rx="5"/><rect width="20" height="10" rx="5"/></g><g transform="matrix(.06177 0 0 .06308 1.591 6.598)"><rect x="120" width="60" height="10" rx="5"/><rect width="60" height="10" rx="5"/></g><g transform="matrix(.06177 0 0 .06308 1.591 5.337)"><rect x="120" width="60" height="10" rx="5"/><rect x="40" width="20" height="10" rx="5"/><rect width="30" height="10" rx="5"/></g><g transform="matrix(.06177 0 0 .06308 1.591 4.075)"><rect x="150" width="20" height="10" rx="5"/><rect x="90" width="50" height="10" rx="5"/><rect width="80" height="10" rx="5"/></g><g transform="matrix(.06177 0 0 .06308 1.591 2.814)"><rect x="50" width="110" height="10" rx="5"/><rect width="40" height="10" rx="5"/></g><rect width="130" height="10" rx="5" transform="matrix(.06177 0 0 .06308 1.591 1.552)"/></g></svg>