<svg xmlns="http://www.w3.org/2000/svg" version="1.0" width="16" height="16" viewBox="0 0 300 300"><path d="M136.838 106.692c-7.165 1.697-9.667 2.829-12.055 5.43l-3.07 3.395-3.185-2.602c-5.345-4.186-14.556-6.562-23.2-5.77-14.442 1.357-21.493 5.09-24.108 12.898-2.161 6.562-.683 34.168 2.274 43.446 4.89 15.16 13.306 21.723 25.019 19.46l5.572-1.131 2.275 4.752c3.184 6.562 9.78 9.73 22.176 10.409 7.96.566 9.666.34 11.031-1.358 1.137-1.358 1.25-2.376.341-3.734-.91-1.47-3.525-2.036-10.917-2.602-13.078-.905-17.968-4.412-16.49-11.88.455-2.376 5.686-5.544 10.576-6.562 2.957-.566 3.64-.226 5.345 2.716 4.435 7.806 13.874 9.843 27.294 5.657 16.717-5.092 24.791-19.008 24.791-42.428 0-14.143-5.345-22.742-17.627-28.286-8.074-3.733-15.352-4.186-26.042-1.81zm23.654 7.467c6.937 2.942 11.713 7.015 14.215 12.333 1.365 2.602 2.389 5.43 2.389 6.11 0 1.47-29.341 1.923-44.694.678-9.893-.905-10.462-1.697-6.596-9.277 2.616-5.092 6.255-8.6 11.487-10.975 4.89-2.15 16.717-1.584 23.199 1.131zm-57.771-.452c3.639.679 9.098 2.489 12.168 4.073l5.345 2.942v14.369h-18.992c-10.576 0-21.038-.34-23.427-.792-3.98-.566-4.321-.906-3.639-3.621.91-3.847 6.028-11.201 9.78-14.03 2.502-1.697 6.369-3.168 11.373-4.073.34-.113 3.639.453 7.392 1.132zm29.454 28.172c1.933 0 2.73.792 3.298 3.394 1.25 6.45 10.576 6.562 12.85.227.456-1.019 1.252-2.263 1.934-2.716 1.478-1.018 16.717-1.131 22.63-.226 4.209.792 4.209.792 3.526 4.865-2.843 17.084-9.894 24.891-25.474 28.398-5.345 1.132-6.937 1.132-10.349-.339-7.733-3.168-12.964-13.464-14.329-27.833-.682-6.562-.568-7.24 1.251-6.562 1.138.453 3.185.792 4.663.792zm-46.74 5.091c2.047 4.752 6.255 6.223 10.349 3.508 1.592-1.019 2.843-2.829 2.843-4.073 0-2.15.796-2.263 10.576-2.263h10.576l1.706 9.164c1.82 9.617 1.592 10.296-3.525 11.54-5.004 1.245-10.463 5.318-11.714 8.713-1.023 2.715-2.16 3.507-6.14 4.073-12.283 1.81-19.22-5.205-22.632-22.968-2.274-11.767-2.274-11.654 2.388-11.654 3.412 0 4.208.566 5.573 3.96z"/><path d="M54.802 277.032c-17.33-8.752-23.018-43.501-13.528-82.663 1.335-5.508 1.317-5.726-1.642-20.131-4.13-20.11-5.199-29.679-4.631-41.451 2.417-50.115 35.005-91.324 84.145-106.405 8.546-2.623 9.934-2.794 25.366-3.141 19.868-.446 29.728.642 41.753 4.609 34.55 11.396 61.938 38.747 73.697 73.596 7.458 22.103 7.667 43.133.74 74.42-2.586 11.683-2.575 13.12.166 23.405 4.14 15.529 3.809 46.318-.643 59.774-7.155 21.628-27.464 26.746-38.31 9.655-3.55-5.596-7.107-17.91-9.347-32.361-1.183-7.635-2.151-14.007-2.151-14.159 0-1.125-3.129-2.969-5.037-2.969-3.436 0-6.01 2.204-6.672 5.714-1.266 6.714 3.765 33.624 8.117 43.411l1.743 3.92-2.94 2.568c-5.87 5.128-14.31 5.468-21.304.86-9.316-6.14-14.924-19.376-18.22-43.004-1.653-11.855-2.067-12.612-6.901-12.612-4.716 0-6.484 2.103-6.46 7.686.044 9.766 4.355 29.383 8.683 39.5 1.408 3.291 2.325 6.362 2.038 6.824-1.093 1.759-7.7 4.407-12.132 4.862-8.387.862-16.193-4.11-20.917-13.323-3.141-6.126-6.001-17.8-7.428-30.323-1.462-12.825-2.494-15.714-5.924-16.57-5.552-1.386-7.873 3.786-7.114 15.854.698 11.124 2.683 21.035 6.336 31.637 3.368 9.778 3.396 9.65-2.394 11.247-10.467 2.887-16.344 1.617-22.308-4.82-6.618-7.143-10.252-18.174-12.383-37.583-1.696-15.445-2.966-17.731-8.79-15.82-2.517.827-2.904 1.38-3.435 4.903-.848 5.625.223 23.592 1.8 30.192.731 3.062 2.483 8.768 3.894 12.68 1.41 3.912 2.564 7.277 2.564 7.478 0 1.089-7.718 4.032-11.519 4.393-3.603.343-5.235.002-8.912-1.853zm83.956-80.57c2.16-1.505 2.495-3.973.738-5.425-.647-.534-4.425-1.353-8.395-1.82-13.655-1.608-18.27-3.971-18.27-9.358 0-3.213 1.549-5.061 5.884-7.023 5.37-2.43 7.39-2.048 10.15 1.919 4.404 6.331 13.171 8.325 24.126 5.486 18.87-4.89 27.37-17.815 27.607-41.982.11-11.18-1.486-16.578-6.615-22.375-4.24-4.792-14.177-9.767-20.997-10.512-10.548-1.152-23.437 1.766-28.41 6.432l-2.99 2.805-3.368-2.428c-5.325-3.837-12.977-5.501-22.926-4.984-10.008.52-16.706 2.75-20.764 6.915-3.76 3.86-4.462 6.917-4.462 19.452 0 20.12 2.65 32.94 8.54 41.33 5.183 7.382 11.64 9.786 21.71 8.082 3.715-.629 4.02-.54 4.488 1.313.87 3.447 6.376 9 10.465 10.553 7.332 2.786 20.512 3.695 23.49 1.62zm-62.845-90.223c1.757-.885 9.394-3.597 16.971-6.027 16.218-5.2 17.02-5.6 14.737-7.336-3.871-2.942-17.325-2.708-24.446.425-4.904 2.157-8.395 5.313-10.604 9.587-2.783 5.383-2.084 6.084 3.342 3.351zm109.106-7.668c-1.183-6.273-4.75-11.213-10.053-13.919-1.739-.887-8.713-2.575-15.499-3.751-6.785-1.176-14.645-3.084-17.466-4.241-5.008-2.053-6.495-2.146-6.495-.406 0 1.517 8.632 9.993 11.608 11.398 1.585.748 7.684 2.081 13.554 2.962 12.287 1.843 14.393 2.734 19.397 8.204 4.127 4.512 5.836 4.427 4.954-.247z" fill="#8069F3" stroke="#e6e6e6" stroke-width=".086"/><path d="M76.74 133.79c-2.916-.439-2.969-1.69-.296-6.94 3.258-6.395 8.015-10.711 13.8-12.522 4.68-1.464 5.453-1.48 11.734-.25 3.699.725 9.268 2.564 12.377 4.086l5.652 2.769v13.471l-20.45-.128c-11.247-.071-21.515-.29-22.818-.486zm54.828-1.072c-5.92-.674-7.256-1.262-7.256-3.197 0-2.73 3.959-9.128 7.647-12.358 4.776-4.183 9.061-5.352 17.538-4.784 11.68.782 21.07 6.572 25.303 15.6l2.007 4.283-3.214.593c-4.08.753-35.093.652-42.025-.137z" fill="#f2ff49" stroke="#e6e6e6" stroke-width=".086"/><path d="M89.37 175.704c-4.661-2.286-8.465-8.809-10.727-18.393-1.089-4.613-1.98-9.514-1.98-10.89 0-2.21.38-2.502 3.258-2.502 2.709 0 3.591.563 5.24 3.342 2.654 4.477 5.753 5.849 9.342 4.137 1.503-.717 3.3-2.479 3.992-3.915 1.251-2.598 1.309-2.611 11.175-2.611h9.917l1.116 6.583c1.74 10.268 1.36 11.425-4.475 13.582-3.18 1.177-6.016 3.106-7.884 5.366-5.807 7.025-5.552 6.865-10.85 6.842-2.766-.012-6.422-.705-8.125-1.54zm50.209-1.338c-6.647-3.58-11.577-13.895-12.776-26.725l-.59-6.321 3.716.6c3.1.502 3.995 1.19 5.392 4.14 2.804 5.925 9.562 6.109 12.975.353 1.815-3.06 2.274-3.265 8.479-3.792 3.607-.306 9.36-.247 12.784.132l6.225.69-.101 3.49c-.247 8.43-5.637 18.993-11.707 22.937-8.885 5.773-18.677 7.578-24.397 4.496z" fill="#fff" stroke="#e6e6e6" stroke-width=".096"/><path d="M72.744 103.536C76.529 96.08 83.281 92.289 94.176 91.5c6.786-.492 13.767.772 13.767 2.492 0 .654-28.955 11.193-34.928 12.712l-2.158.549zm107.149-5.421c-4.548-4.754-6.75-5.665-19.011-7.86-13.268-2.374-15.597-3.413-21.236-9.47-4.799-5.156-4.346-6.395 1.48-4.052 1.97.792 9.56 2.689 16.864 4.216 15.174 3.17 17.86 4.053 20.92 6.872 3.749 3.452 7.41 13.62 4.906 13.62-.408 0-2.174-1.497-3.923-3.326z" stroke="#e6e6e6" stroke-width=".093"/></svg>