<svg xmlns="http://www.w3.org/2000/svg" width="16" height="16" viewBox="0 0 252.667 254.399"><path d="M29.319 118.142c2.226-.596-5.313-1.299-2.702-2.117-.001 2.389 23.674-22.587 23.82-20.398-.333.169-.625.328-.85.471-3.015 1.917-3.662 5.471-3.901 12.232-.122 3.472.174 10.295.985 16.629 1.392 10.898 2.684 12.328 4.499 13.038.917.365 2.346.794 3.763.973 2.887.364-16.799 28.202-14.07 27.898.03.204.068.443.109.7-1.233 2.201-2.477 3.342-2.477 3.342 4.29 12.945-3.543 20.115-3.543 20.115 2.927 13.428-9.251 16.601-9.251 16.601l-.88 3.856c2.365 3.82 6.442 2.714 4.34 19.379s-13.183 19.457-13.183 19.457c.828-2.577-3.93-8.709-3.93-8.709-15.862-31.307 8.153-30.709 8.153-30.709l.17-4.002s-6.94-8.397-6.232-14.007c.708-5.61 3.784-10.439 3.784-10.439s-4.343-8.091-3.656-13.536c.687-5.445 2.939-8.681 2.939-8.681s-3.127-7.099-2.315-13.534c.812-6.435 4.53-10.659 4.53-10.659s6.83-5.429 7.6-11.534a15.137 15.137 0 012.298-6.366zm205.216 0a181.353 181.353 0 01-7.298-2.117c.001 2.389-23.674-22.587-23.82-20.398.333.169.625.328.85.471 3.015 1.917 3.662 5.471 3.901 12.232.122 3.472-.174 10.295-.985 16.629-1.392 10.898-2.684 12.328-4.499 13.038-.917.365-2.346.794-3.763.973-2.887.364 16.799 28.202 14.07 27.898-.03.204-.068.443-.109.7 1.234 2.201 2.477 3.342 2.477 3.342-4.29 12.945 3.543 20.115 3.543 20.115-2.927 13.428 9.251 16.601 9.251 16.601l.88 3.856c-2.365 3.82-6.442 2.714-4.34 19.379 2.102 16.665 13.183 19.457 13.183 19.457-.828-2.577 3.93-8.709 3.93-8.709 15.862-31.307-8.153-30.709-8.153-30.709l-.17-4.002s6.94-8.397 6.232-14.007c-.708-5.61-3.568-10.38-3.568-10.38s4.127-8.15 3.44-13.595c-.687-5.445-2.939-8.681-2.939-8.681s3.127-7.099 2.315-13.534c-.812-6.435-4.53-10.659-4.53-10.659s3.17-5.429 2.4-11.534a15.137 15.137 0 00-2.298-6.366z" fill="#cb3349"/><path d="M202.684 137.999c-.917.365-2.346.794-3.763.973-2.887.364 16.799 28.202 14.07 27.898-.03.204-.068.443-.109.7 1.234 2.201 2.477 3.342 2.477 3.342-.818 2.469-1.193 4.727-1.268 6.766l21.157-.023 2.911 2.997c.932-2.701 1.767-9.046 1.428-11.735-.687-5.445-2.939-8.681-2.939-8.681s3.127-7.099 2.315-13.534c-.812-6.435-4.53-10.659-4.53-10.659s.452-.776.974-2.069l-29.877.033c-.85 2.859-1.753 3.564-2.846 3.992zM40.972 167.57a58.142 58.142 0 01-.109-.7c-2.729.303 16.957-27.534 14.07-27.898a16.437 16.437 0 01-3.763-.973c-1.07-.419-1.958-1.105-2.793-3.819l-26.962.03c-1.136 1.145-1.994 1.832-1.994 1.832s-3.718 4.224-4.53 10.659c-.812 6.435 2.315 13.534 2.315 13.534s-2.252 3.236-2.939 8.681c-.351 2.782.611 9.249 1.636 11.98l4.051-3.002 2.75-5.006 17.061 4.982c-.057-2.09-.427-4.411-1.271-6.959.002 0 1.245-1.141 2.478-3.341z" fill="#32994f"/><path d="M17.924 182.452s-3.077 4.829-3.784 10.439c-.708 5.61 6.232 14.007 6.232 14.007l-.17 4.002S8.19 210.604 6.77 221.509l22.938-.025c-.341-7.036-3.101-7.117-4.886-10.001l.88-3.856s12.178-3.173 9.251-16.601c0 0 5.048-4.628 4.815-13.156l-16.677-6.131-5.167 10.713z" fill="#1e72b7"/><path d="M12.049 241.61s4.758 6.132 3.93 8.709c0 0 11.08-2.793 13.182-19.457.515-4.083.658-7.095.547-9.378l-22.938.025c-.587 4.512.637 10.938 5.279 20.101z" fill="#6f5ba7"/><path d="M233.652 210.9l-.17-4.002s6.94-8.397 6.232-14.007c-.708-5.61-3.568-10.38-3.568-10.38s-4.565-9.312-4.988-11.86l-17.068 7.027c-.316 8.651 4.811 13.348 4.811 13.348-2.927 13.428 9.251 16.601 9.251 16.601l.88 3.856c-1.767 2.854-4.49 2.961-4.876 9.785l22.892-.025c-1.577-10.635-13.396-10.343-13.396-10.343z" fill="#1e72b7"/><path d="M224.692 230.862c2.102 16.665 13.183 19.457 13.183 19.457-.828-2.577 3.93-8.709 3.93-8.709 4.734-9.343 5.915-15.843 5.244-20.367l-22.892.025c-.132 2.309.004 5.382.535 9.594zm-194.984-9.378c-.271-5.586-2.066-6.79-3.688-8.492l-7.809-1.955c-3.475.449-10.385 2.364-11.441 10.472-.587 4.512.636 10.938 5.279 20.101 0 0 4.758 6.132 3.93 8.709 0 0 11.08-2.793 13.182-19.457.516-4.083.658-7.095.547-9.378z" fill="#6f5ba7"/><path d="M50.348 95.492c.052 0 .082.044.088.136-.233.118-.446.231-.63.338.255-.306.441-.474.542-.474m-.541.474c-.707.851-1.943 2.768-3.386 5.099.55-2.337 1.494-3.903 3.165-4.966.068-.043.142-.087.221-.133m-3.386 5.099c-.442 1.878-.63 4.254-.736 7.266-.122 3.472.174 10.295.985 16.629 1.392 10.898 2.684 12.328 4.499 13.038.917.365 2.346.794 3.763.973 2.871.362-16.585 27.901-14.112 27.901l.042-.002c.03.204.068.443.109.699-1.234 2.201-2.477 3.342-2.477 3.342 4.29 12.945-3.543 20.115-3.543 20.115 2.927 13.428-9.251 16.601-9.251 16.601l-.88 3.856c-2.302 4.487 6.442 2.714 4.34 19.379-2.102 16.665-13.183 19.457-13.183 19.457.204-9.718-8.013-18.2-7.792-25.266.406-12.998 8.082-14.218 10.948-14.218a7.44 7.44 0 011.067.065l.17-4.002s-6.94-8.397-6.232-14.007c.708-5.61 3.784-10.439 3.784-10.439s-4.343-8.091-3.656-13.536c.687-5.445 2.939-8.681 2.939-8.681s-3.127-7.099-2.315-13.534c.812-6.435 4.53-10.659 4.53-10.659s6.83-5.429 7.6-11.534a15.147 15.147 0 012.298-6.367 181.353 181.353 0 007.298-2.117c0 .109.029.161.083.161.718.002 5.93-8.99 9.722-15.12m3.927-9.573c-1.484 0-2.525.775-3.13 1.377-2.215 1.485-3.699 3.654-4.52 6.612a743.565 743.565 0 00-2.695 4.425c-1.688 2.786-4.094 6.757-5.318 8.531a178.993 178.993 0 01-6.401 1.841 3.997 3.997 0 00-2.325 1.693c-1.561 2.415-2.539 5.119-2.907 8.037-.462 3.664-4.679 7.758-6.12 8.903a4.025 4.025 0 00-.514.489c-.185.21-4.541 5.234-5.495 12.801-.672 5.326.884 10.866 1.878 13.712-.879 1.778-2.02 4.686-2.502 8.503-.615 4.874 1.695 10.829 3.114 13.923-1.116 2.19-2.72 5.915-3.242 10.052-.672 5.323 3.048 11.512 5.442 14.866-5.775 1.419-11.078 6.574-11.425 17.672-.133 4.241 1.793 8.277 3.832 12.55 1.991 4.172 4.049 8.486 3.959 12.757a3.997 3.997 0 004 4.084c.326 0 .654-.04.977-.121.561-.141 13.757-3.681 16.173-22.835 1.533-12.155-2.307-16.472-4.371-18.792l-.068-.076c.011-.04.021-.081.03-.122l.394-1.725c5.131-2.269 11.501-7.979 10.104-18.437 2.372-3.079 6.312-10.076 3.721-20.339a21.41 21.41 0 001.521-2.347 4.005 4.005 0 00.46-2.592 45.064 45.064 0 01-.074-.467c.986-2.074 3.781-6.685 5.899-10.179 7.981-13.167 9.423-15.999 8.027-18.889a4.29 4.29 0 00-3.34-2.395 12.524 12.524 0 01-2.739-.703c-.318-.53-1.122-2.531-2.056-9.847-.782-6.102-1.072-12.659-.955-15.982.096-2.716.251-4.536.506-5.892 1.156-1.854 1.856-2.91 2.281-3.507a4.001 4.001 0 001.959-3.713c-.148-2.205-1.902-3.868-4.08-3.868z" fill="#2d3136"/><path d="M23.814 209.616a1.999 1.999 0 01-1.738-1.008c-.547-.957-.596-1.367.738-2.725.045-.046 6.421-5.65 6.421-5.65s-2.961 7.599-3.13 7.696c-.314.178-1.955 1.687-2.291 1.687zm-9.377 12.687c-1.333-5.875-.977-7.003-.395-8.5 1.305-3.357 2.833-4.018 2.962-4.113a2 2 0 012.38 3.214c-.103.08-1.427.899-2.885 2.92-.661.917-1.145 2.167-2.062 6.479z" fill="#2d3136"/><path fill="#fff" d="M15.612 207.188l13.718 3.117-.919 3.286-13.19-3.302z"/><path d="M15.612 207.188l13.718 3.117-.919 3.286-13.19-3.302.391-3.101m0-2a2.003 2.003 0 00-1.984 1.75l-.391 3.1a1.999 1.999 0 001.499 2.19l13.19 3.302a2 2 0 002.412-1.402l.919-3.286a2.002 2.002 0 00-1.483-2.488l-13.718-3.116a2.035 2.035 0 00-.444-.05z" fill="#2d3136"/><path d="M247.048 221.243c-1.17-7.886-7.967-9.763-11.405-10.206l-7.81 1.955c-1.601 1.679-3.371 2.873-3.677 8.276-.131 2.308.005 5.382.536 9.593 2.102 16.665 13.183 19.457 13.183 19.457-.828-2.577 3.93-8.709 3.93-8.709 4.733-9.342 5.914-15.842 5.243-20.366z" fill="#6f5ba7"/><path d="M203.557 95.492c1.865.002 21.652 20.695 23.536 20.695.094 0 .144-.052.144-.161 2.611.818 5.072 1.521 7.298 2.117.973 1.505 1.952 3.622 2.298 6.367.77 6.105-2.4 11.534-2.4 11.534s3.718 4.224 4.53 10.659c.812 6.435-2.315 13.534-2.315 13.534s2.252 3.236 2.939 8.681c.687 5.445-3.44 13.595-3.44 13.595s2.86 4.77 3.568 10.38c.708 5.61-6.232 14.007-6.232 14.007l.17 4.002s.405-.065 1.067-.065c2.866 0 10.542 1.22 10.948 14.218.221 7.066-7.996 15.548-7.792 25.266 0 0-11.08-2.793-13.183-19.457s6.641-14.892 4.34-19.379l-.88-3.856s-12.178-3.173-9.251-16.601c0 0-7.833-7.169-3.543-20.115 0 0-1.243-1.141-2.477-3.342.041-.256.079-.496.109-.699.015.002.029.002.042.002 2.473 0-16.984-27.538-14.112-27.901a16.437 16.437 0 003.763-.973c1.815-.71 3.107-2.141 4.499-13.038.811-6.335 1.107-13.157.985-16.629-.239-6.761-.886-10.316-3.901-12.232a10.43 10.43 0 00-.85-.471c.006-.094.054-.138.14-.138m.003-4h-.004c-2.207 0-3.983 1.663-4.131 3.869a4 4 0 002.182 3.835c.339.172.48.258.515.28 1.147.729 1.814 2.379 2.048 8.997.117 3.323-.174 9.879-.955 15.98-.935 7.316-1.738 9.317-2.056 9.848-.657.254-1.724.575-2.739.703a4.29 4.29 0 00-3.339 2.395c-1.397 2.89.046 5.722 8.027 18.889 2.118 3.494 4.912 8.104 5.899 10.179l-.074.467a3.993 3.993 0 00.46 2.592 21.41 21.41 0 001.521 2.347c-2.591 10.263 1.349 17.26 3.721 20.339-1.396 10.458 4.973 16.168 10.104 18.437l.394 1.725c.009.041.019.081.03.122l-.068.076c-2.063 2.32-5.904 6.637-4.371 18.792 2.417 19.155 15.613 22.694 16.173 22.835a4 4 0 004.977-3.963c-.09-4.271 1.969-8.585 3.959-12.757 2.039-4.273 3.964-8.309 3.832-12.55-.347-11.097-5.649-16.252-11.425-17.672 2.395-3.353 6.114-9.543 5.442-14.866-.522-4.135-2.039-7.837-3.077-9.986 1.336-3.07 3.565-9.102 2.949-13.989-.482-3.818-1.622-6.726-2.502-8.503.995-2.846 2.55-8.386 1.878-13.712-.59-4.678-2.48-8.384-3.881-10.582 1.051-2.574 2.346-6.898 1.752-11.611-.368-2.918-1.346-5.623-2.907-8.037a4.002 4.002 0 00-2.325-1.693 176.619 176.619 0 01-7.136-2.069 3.974 3.974 0 00-.423-.108c-1.962-1.543-6.707-6.076-9.974-9.196-10.828-10.345-12.181-11.411-14.476-11.413z" fill="#2d3136"/><path d="M226.417 115.053l-99.5-10.75-98.25 9v36.534c-1.64.92-3.106 1.796-3.611 2.219-.637.527-1.126 1.873-.434 8.122.522 4.695 2.174 11.913 3.86 17.32l.034.105c2.965 2.253 7.143 4.583 11.575 4.437l2.118 1.138c.023.074.043.15.066.223l.061-.017-.049-.164 3.879 2.083 8.25 20 4.491 6.488-.241.179 8.167 11.833L83.5 238.47l22.167 10.667 17.833 3 20.833-1.167L168 241.803l19.833-18.167 12.346-17.785.737-.049 10.75-25.75 6-17.75 8.751-47.249zm3.077 33.055c-.62-.522-4.583-2.716-5.048-2.973l-3.562 24.949a1.806 1.806 0 01-.747 1.209l-.053.037-.001.002-1.889 1.321-3.157 2.209c-.123.624-.221 1.142-.313 1.625 4.994 1.203 9.839-2.395 12.561-4.992-1.124 4.383-2.372 8.034-3.346 9.136l.026-.004c2.065-2.24 5.404-16.172 6.112-24.112.587-6.48.071-7.875-.583-8.407z" fill="#856a5b"/><path d="M216.666 194.303a2.001 2.001 0 01-1.482-3.343l4.92-3.594-1.594 6.312c-.395.436-1.299.625-1.844.625zm21.878-9.25c-.615 0-2.006-2.008-2.398-2.542l-3.289-7.195 7.296 6.553a2 2 0 01-1.609 3.184zm-222.879 0a2 2 0 01-1.611-3.184l7.296-6.553-3.427 7.136c-.391.534-1.643 2.601-2.258 2.601z" fill="#2d3136"/><path d="M190.5 216.803s-32.167 29-61.667 29S67.5 220.47 67.5 220.47s17.5 31.667 63.667 31.667 59.333-35.334 59.333-35.334zm-147.333-39.5l3 9.25s24.25 10.25 45.5 4 28.75-22.75 31.25-32-5 4-5 4-27 16.75-43 16.75-31.75-2-31.75-2zm169.26 0l-3 9.25s-24.25 10.25-45.5 4-28.75-22.75-31.25-32 5 4 5 4 27 16.75 43 16.75 31.75-2 31.75-2zm2.252-.824a55.368 55.368 0 01-.753 3.424c2.921.681 7.7 1.208 9.983.763.978-1.063 2.24-4.746 3.374-9.171-2.73 2.605-7.594 6.219-12.604 4.984zm-172.397 6.944c-.163-.517-.31-1.042-.462-1.564-5.104.945-10.042-1.758-13.392-4.322 1.082 3.472 2.178 6.2 2.998 7.028 2.526.44 8.116-.334 10.856-1.142z" fill="#695348"/><path d="M212.41 185.641c2.67.643 6.623.56 9.533.56 1.428 0 2.9-.247 3.855-.494 1.89-.477 3.35-1.735 6.096-12.372 1.598-6.183 2.745-12.915 3.059-16.375.609-6.738.412-10.345-2.339-12.624-1.354-1.12-5.306-3.251-7.366-4.327l-.118.006-.73 5.095c-.002-.001 4.437 2.444 5.095 2.998.654.532 1.17 1.927.582 8.407-.708 7.941-4.047 21.872-6.112 24.112-2.278.445-7.062-.082-9.972-.757.494-1.999.642-2.966 1.044-5.008l-4.976 3.482a113.88 113.88 0 01-.955 3.723c-.504 1.609-1.03 3.17-1.567 4.705-2.141 6.107-4.551 11.65-7.17 16.656l-.053.003-.002.036s2.127.411 5.546-1.163l.056-.042c3.864-7.891 5.814-14.199 6.494-16.621zM57.574 215.717l4.692-1.371.069-.02-.014-.019s-10.125-16.82-12.44-22.274c-1.348-3.176-2.094-5.334-2.266-5.847v-.01c-.175-.499-.361-1.009-.525-1.524L45 179.587l-5.43-3.796c.099.343 2.204 5.685 2.304 6.029.152.522.3 1.047.462 1.564-2.74.808-8.33 1.581-10.856 1.142-.82-.829-1.916-3.557-2.998-7.028-1.686-5.407-3.338-12.625-3.86-17.32-.692-6.249-.203-7.595.434-8.122.73-.61 3.453-2.165 5.828-3.434l-.632-5.127c-1.246.648-6.666 3.499-8.294 4.859-2.729 2.269-2.861 5.788-2.13 12.356.373 3.366 1.636 9.901 3.338 15.892 2.933 10.307 5.08 12.131 6.969 12.559.851.203 1.949.297 3.185.297 3.377 0 7.704-.659 10.527-1.511 3.305 10.277 7.983 19.557 13.684 27.701l.043.069z" fill="#2d3136"/><path d="M28.345 119.438l1.06 4.009a133.808 133.808 0 017.984-5.892 284.723 284.723 0 00-9.044 1.883z" fill="#9a9c9e"/><path d="M140.921 129.081l-2.395-1.295c-.251-.125-4.407-2.151-10.233-1.906l-.251.011-.251-.011c-5.977-.248-10.203 1.89-10.245 1.912l-2.432 1.315-2.531-1.021c-22.722-8.758-40.45-9.794-53.504-10.32l-23.28 4.133c-.603.163-1.156.325-1.646.478.475 20.423 4.607 34.042 12.592 41.566 6.961 6.56 17.325 9.358 34.656 9.358 26.78 0 30.531-25.413 30.678-26.494l.431-3.176 2.879-1.408c.061-.03 6.951-2.955 12.654-2.955s12.594 2.925 12.654 2.955l2.879 1.408.431 3.176c.152 1.059 4.121 26.494 30.678 26.494 17.331 0 27.695-2.799 34.656-9.358 7.793-7.345 11.906-20.515 12.541-40.132l-32.378-7.498c-12.094 1.26-27.365 4.59-46.001 11.772l-2.582.996z" opacity=".8" fill="#6a5853"/><path d="M250.667 143.97s-48-15-57-39.667l41.894 5c-.001 0-3.228 17.333 15.106 34.667zM77.247 93.567l-26.58 10.795s1.825 3.783 2.176 10.153l-31.737 3.787S20.333 135.636 2 152.969c0 0 39.167-9.417 58.906-33.588-1.739 10.421-7.239 15.671-13.662 22.405 0 0 30.674-9.234 49.897-37.724-1.144 4.377-4.827 18.317-7.973 23.49 0 0 105.084-26.233 107.257-52.4L76.334 91.029s.43.897.913 2.538z" fill="#cb3349"/><g fill="#51b95b"><path d="M2 152.97s22.762-5.474 42.327-18.785l-28.143.031C13.366 139.84 8.945 146.404 2 152.97z"/><path d="M77.247 93.567l-26.58 10.795s1.825 3.783 2.176 10.153l-31.737 3.787s-.302 6.691-4.922 15.913l28.143-.031c6.099-4.149 11.888-9.059 16.579-14.803-1.059 6.35-3.52 10.777-6.73 14.792-2.059 2.575-4.423 4.982-6.933 7.613 0 0 7.182-2.17 16.767-7.624 10.233-5.822 23.204-15.389 33.13-30.1-1.144 4.377-4.827 18.317-7.973 23.49 0 0 66.033-16.487 94.489-36.358l-107.197.12c.162.381.461 1.142.788 2.253zm164.983 40.399c-8.753-13.425-6.669-24.663-6.669-24.663l-41.894-5c4.633 12.697 19.599 22.833 33.034 29.68 12.664 6.454 23.966 9.987 23.966 9.987-3.573-3.378-6.319-6.755-8.437-10.004z"/></g><path d="M235.56 109.303l-41.894-5c9 24.667 57 39.667 57 39.667-18.333-17.334-15.106-34.667-15.106-34.667zM77.247 93.567l-26.58 10.795s1.825 3.783 2.176 10.153l-31.737 3.787S20.333 135.636 2 152.969c0 0 45.167-13.667 61.917-39.417-1.739 10.421-10.25 21.5-16.674 28.234 0 0 30.674-9.234 49.897-37.724-1.144 4.377-4.827 18.317-7.973 23.49 0 0 95.084-26.233 97.257-52.4L76.334 91.029s.43.897.913 2.538z" fill="none" stroke="#2d3136" stroke-width="4" stroke-linecap="round" stroke-linejoin="round" stroke-miterlimit="10"/><path d="M240.153 89.895a67.616 67.616 0 00-.268-2.576 32.627 32.627 0 00-.275-1.828c-2.301-1.933-4.915-3.657-7.633-5.217-2.949-1.73-6.035-3.267-9.186-4.701-3.125-1.477-6.338-2.811-9.566-4.113a151.606 151.606 0 00-4.876-1.894c-1.626-.637-3.268-1.23-4.915-1.829 3.454.571 6.88 1.362 10.28 2.236a125.55 125.55 0 016.594 1.894c-15.54-40.604-52.678-67.045-93.232-67.045-40.559 0-77.693 26.441-93.223 67.045 2.18-.687 4.382-1.329 6.584-1.894 3.399-.873 6.826-1.665 10.285-2.236a208.527 208.527 0 00-4.931 1.829 164.466 164.466 0 00-4.865 1.894c-3.229 1.302-6.436 2.636-9.571 4.113-3.142 1.434-6.227 2.971-9.176 4.701-2.724 1.56-5.332 3.284-7.638 5.217a56.837 56.837 0 00-.269 1.828 82.798 82.798 0 00-.275 2.576 65.896 65.896 0 00-.22 5.205c-.038 3.481.197 6.963.637 10.401.477 3.453 1.11 6.886 2.043 10.203a55.65 55.65 0 001.592 4.881c.308.791.637 1.576.983 2.328.17.379.345.752.527 1.109l.224.423c.253.126.522.263.775.385l1.543.736c.862.395 2.053.961 3.041 1.4.055-.05.11-.099.154-.148l-2.866-10.917c.609-.165 6.051-1.571 15.431-3.361a46.74 46.74 0 01-2.268-.483c-2.136-.532 19.742-3.581 38.676-5.541 17.309-1.785 34.667-2.938 52.113-2.976 17.441.038 34.805 1.191 52.108 2.976 18.94 1.961 45.979 3.108 44.969 3.537-2.043.824-4.146 1.472-6.282 2.004-.319.077-.638.143-.956.215 10.291 1.905 16.277 3.459 16.913 3.629l-2.74 10.4c.555-.241 1.115-.483 1.653-.735l1.548-.736c.252-.122.516-.258.779-.385l.209-.423c.187-.357.368-.73.538-1.109.347-.752.676-1.538.979-2.328a56.332 56.332 0 001.593-4.881c.939-3.317 1.57-6.749 2.042-10.203.445-3.438.682-6.92.649-10.401a64.938 64.938 0 00-.231-5.205z" fill="#f4edae"/><path d="M178.491 106.522c-8.735-.904-17.486-1.644-26.255-2.162-8.6-.507-17.217-.801-25.853-.82-8.588.019-17.155.31-25.705.812-8.815.519-17.615 1.261-26.408 2.17-18.934 1.955-40.812 5.003-38.676 5.535.388.094.78.167 1.172.25.368.078.735.167 1.101.233 0 0 8.359-.14 23.483-.289l.433-.035a771.014 771.014 0 0111.6-.776c.435-.025.87-.056 1.305-.08 1.11-.062 2.22-.111 3.33-.171 2.612-.139 5.225-.281 7.839-.402 3.717-.173 7.434-.326 11.148-.46l16.31-.456c4.36-.082 8.715-.131 13.064-.142h.011c2.96.011 5.925.043 8.891.082l-.026.006h.026l25.271.686c5.843.247 11.686.527 17.529.857 1.596.089 3.188.192 4.78.294l.334.023c1.873.121 3.747.254 5.62.387 8.861.053 18.003.121 27.408.206.318-.072.636-.138.956-.215 2.135-.53-19.748-3.578-38.688-5.533zm54.296 103.094c-.335 0-.675-.085-.987-.264-.169-.097-4.431-9.12-4.431-9.12s6.394 5.634 6.422 5.651a2.002 2.002 0 01-1.004 3.733zm-75.82 34.713c-9.675 3.91-18.789 5.432-25.811 5.902-7.001.472-14.106-.353-21.064-2.251l-.121.022-9.299 1.361c17.84 6.54 37.508 6.933 56.173-.137a82.552 82.552 0 0013.979-6.898c-.209.048-8.128 1.86-13.818 2.005l-.039-.004z" fill="#2d3136"/><path d="M62.32 214.306s19.327 27.27 47.649 33.696l-3.553 1.551-5.747-.19s-22.274-6.37-43.139-33.715l.26-3.72 4.53 2.378z" fill="#2d3136"/><path d="M106.576 74.028h.006-.006zM14.579 91.151l-.254.086.254-.086zm38.002-9.876l-.005.001h-.002c.489-.1.975-.199 1.472-.298-.494.099-.978.198-1.465.297zm-38.277 9.97l-.209.072.209-.072zm99.398-17.61c-.571.026-1.138.055-1.706.084h-.001c.57-.028 1.137-.058 1.71-.084h-.003zm4.764-.184c-.774.025-1.546.053-2.315.083h-.001c.772-.03 1.545-.058 2.322-.083h-.006zm31.969.406l-.019-.001.019.001c.001 0 0 0 0 0zm-25.229-.564h-.002a350.028 350.028 0 01.002 0zm114.791 17.749l-.041-.016.041.016zm-222.261-.919l-.094.03.094-.03zm32.77-8.419h-.002.002zm188.501 8.97l-.042-.015.042.015zm-78.859-16.125zM15.377 90.884l-.227.075.227-.075zm-.428.142l-.221.074.221-.074zm.921-.304l-.181.059.181-.059zm.573-.187zm.63-.202l-.158.05.158-.05zm120.368-16.989c-.397-.009-.795-.015-1.194-.022h-.003l1.199.022h-.002zm82.33 11.419l.029.008-.029-.008zm-3.58-.926l-.011-.003.072.018-.004-.001a.95.95 0 00-.057-.014zm-3.802-.935l.038.009-.032-.008-.006-.001zm1.968.478l.026.006-.026-.006zm-3.924-.94l-.004-.001.034.008-.003-.001-.027-.006zm12.586 3.204l-.006-.002.068.019-.01-.003-.052-.014zm15.207 4.748l.014.005-.009-.003a.008.008 0 00-.005-.002zm-8.172-2.694l.027.008-.018-.006a.03.03 0 01-.009-.002zm-5.45-1.609l.002.001zm4.203 1.23l.03.009-.009-.003-.021-.006zm-214.73 4.004l-.003.001-.17.059.178-.062-.005.002zm192.19-9.825l-.015-.003.064.014-.005-.001-.044-.01z" fill="none"/><path d="M240.233 91.133l-.042-.016-.194-.074-.041-.016-.371-.14-.014-.005a64.918 64.918 0 00-.563-.207l-.042-.015a96.135 96.135 0 00-.724-.262l-.014-.005h-.001a194.43 194.43 0 00-8.132-2.681l-.013-.004-.027-.008-1.218-.371-.03-.009-.015-.005c-.427-.129-.866-.26-1.315-.393l-.014-.004c-.907-.268-1.859-.544-2.856-.827l-.002-.001-.036-.01a260.06 260.06 0 00-1.488-.418l-.068-.019c-.505-.14-1.019-.281-1.544-.424l-.068-.018a399.9 399.9 0 00-1.601-.43l-.029-.008-.051-.014c-.543-.144-1.095-.289-1.657-.434l-.086-.022c-.565-.146-1.14-.293-1.724-.441l-.072-.018c-.589-.149-1.188-.298-1.797-.448l-.026-.006-.032-.008c-.613-.151-1.234-.302-1.866-.453l-.032-.008-.038-.009a383.88 383.88 0 00-1.925-.455l-.034-.008c-.663-.154-1.336-.309-2.018-.463l-.019-.004a384.87 384.87 0 00-2.076-.463l-.064-.014a270.45 270.45 0 00-2.112-.456l-.019-.004a329.497 329.497 0 00-4.09-.845 92.83 92.83 0 01.52 10.987 72.121 72.121 0 01-.193 4.493c-.079-.902-.237-2.566-.473-4.492-.428-3.497-1.114-7.872-2.07-10.206-.222-.543-.727-1.036-1.422-1.488a357.21 357.21 0 00-19.705-3.151c-.791.63-1.397 1.564-1.701 2.942-.924 4.198-2.253 7.581-3.448 9.874 1.056-4.674 1.495-9.335 1.642-13.258a347.682 347.682 0 00-3.439-.402c-.149 4.451-.68 9.927-2.118 15.169a1.566 1.566 0 00-.048.556c.008.118.018.237.048.35a399.589 399.589 0 00-8.27-.763c3.091-6.48 3.767-13.382 3.916-15.815.065-.046.131-.096.196-.143-1.095-.103-2.204-.2-3.317-.294l-.31-.025c-.102 1.929-.701 9.263-4.01 15.645a1.867 1.867 0 00-.143.368c-9.522-.653-19.072-.933-28.61-.939-9.534.006-19.089.269-28.616.918-.039-.115-.077-.237-.132-.346-3.077-5.925-3.81-12.672-3.983-15.152-1.149.111-2.302.219-3.434.339.187 2.7.935 9.244 3.885 15.428-1.924.153-3.848.329-5.771.516-.832.081-1.663.159-2.494.247.022-.078.023-.162.033-.244a1.665 1.665 0 00-.033-.646c-1.371-5.003-1.916-10.226-2.094-14.567-1.159.142-2.305.289-3.444.438.156 3.514.551 7.569 1.405 11.671-1.061-2.239-2.168-5.274-2.972-8.925-.225-1.02-.62-1.791-1.126-2.385a408.482 408.482 0 00-21.348 3.52 2.34 2.34 0 00-.354.562c-.967 2.37-1.661 6.844-2.088 10.367a129.399 129.399 0 00-.515 5.058l-.135.081a67.56 67.56 0 01-.261-5.138c-.043-2.732.045-6.27.446-10.361-.496.099-.983.199-1.472.298-.697.142-1.386.284-2.068.427h-.002c-15.641 3.271-27.155 6.648-32.768 8.419l-.094.03-.57.181-.158.05-.472.152-.184.06-.39.127-.181.059-.312.103-.227.075-.201.067-.221.074-.15.051-.254.086-.021.007a17.85 17.85 0 00-.209.072l-.013.004-.178.062a70.765 70.765 0 00-.127 3.717c-.038 3.481.198 6.963.637 10.401.477 3.453 1.109 6.886 2.043 10.203a55.65 55.65 0 001.592 4.881c.308.791.637 1.576.983 2.328.17.379.345.752.527 1.109l.224.423c.253.126.522.263.775.385l1.544.736c.862.395 2.053.961 3.041 1.401.055-.05.11-.099.154-.148l-2.867-10.917c.609-.165 6.051-1.571 15.431-3.361a46.74 46.74 0 01-2.268-.483c-2.136-.532 19.742-3.581 38.676-5.541 17.309-1.785 34.667-2.938 52.113-2.976 17.441.038 34.805 1.192 52.108 2.976 18.94 1.961 45.979 3.108 44.969 3.537-2.043.824-4.146 1.472-6.282 2.004-.319.077-.638.143-.956.215 10.291 1.905 16.276 3.459 16.913 3.629l-2.74 10.4c.555-.241 1.115-.483 1.653-.735l1.548-.736c.252-.122.516-.258.779-.385l.209-.423c.187-.357.368-.73.538-1.109.347-.752.676-1.538.979-2.328a56.332 56.332 0 001.593-4.881c.939-3.317 1.57-6.749 2.042-10.203.445-3.438.682-6.92.649-10.401a68.945 68.945 0 00-.149-3.968zM49.712 98.499c-2.551.836-5.113 1.713-7.551 2.84 2.73-1.769 4.789-5.784 6.286-9.994a64.856 64.856 0 001.814-6.115 91.662 91.662 0 00-.116 6.113c.062 4.034.389 6.455.418 6.656.017.077.039.148.05.225-.297.094-.604.182-.901.275zm154.844 0c-.297-.093-.604-.182-.901-.274.011-.077.033-.149.05-.225.03-.204.365-2.693.42-6.827a91.174 91.174 0 00-.117-5.943 65.77 65.77 0 001.751 5.941c1.501 4.274 3.581 8.375 6.349 10.168-2.438-1.127-5-2.004-7.552-2.84z" fill="#e5d667"/><path d="M150.416 73.856l-.026-.001a357.799 357.799 0 00-6.424-.313l-.307-.013c-2.048-.08-4.121-.14-6.215-.185l-1.199-.022a347.728 347.728 0 00-6.331-.063c-1.579 0-3.147.014-4.709.035-.57.008-1.135.021-1.703.031a342.492 342.492 0 00-9.795.311c-.572.026-1.14.056-1.71.084a382.7 382.7 0 00-5.414.309h-.006c-1.458.094-2.898.2-4.335.308 1.931 4.607 4.37 7.584 7.448 7.584h35.432c3.151 0 5.612-3.122 7.538-7.915-.744-.048-1.471-.105-2.222-.149l-.022-.001z" fill="#dacd52"/><path d="M94.26 25.669l.701-2.072s.129 6.784.838 15.723c9.978-1.082 20.595-1.825 30.949-1.825 10.688 0 21.699.777 32.016 1.896.551-7.45.707-13.419.744-15.237.991 3.769 2.22 9.197 3.152 15.68 24.742 2.93 44.557 7.572 44.557 7.572-18.842-26.436-48.448-42.584-80.14-42.584-31.766 0-61.428 16.222-80.259 42.762 0 0 19.842-4.793 44.672-7.771a142.818 142.818 0 012.77-14.144z" fill="#e2453c"/><path d="M163.547 47.454c.618 6.981.77 14.748-.056 22.788l-.119.34a46.03 46.03 0 01-2.757 2.048 1.744 1.744 0 00-.757 1.399c0 .012-.005.192-.021.492.104.009.206.019.31.027a315.2 315.2 0 013.317.294c2.31-1.658 4.59-3.613 6.278-5.146a86.825 86.825 0 01-.002 5.791c1.158.13 2.303.264 3.439.402a86.39 86.39 0 00-.049-7.66l26.32 7.485c.238 1.551.428 3.044.579 4.474 2.15.43 4.221.866 6.221 1.305l.015.003a.696.696 0 01.044.01l.005.001c1.41.31 2.781.62 4.113.93l.004.001.027.006.003.001c.652.152 1.293.303 1.925.455l.006.001.032.008c.654.157 1.297.313 1.931.469l.026.006c.609.15 1.207.299 1.797.448l.011.003.057.014.004.001c1.215.307 2.388.611 3.518.911l.028.007h.001c1.113.295 2.184.586 3.213.872l.006.002.051.014.01.003c.519.144 1.027.287 1.524.428h.003c1.501.426 2.903.837 4.201 1.229l.021.006.009.003c.417.126.823.249 1.218.371l.009.003.018.006a193.655 193.655 0 018.145 2.685l.006.002.009.003c.269.096.509.183.724.262l.042.015c.429.157.745.275.948.352l.041.016.236.091c-.027-.413-.043-.826-.08-1.238a67.616 67.616 0 00-.268-2.576 32.627 32.627 0 00-.275-1.828c-2.301-1.933-4.915-3.657-7.633-5.217-2.949-1.73-6.035-3.267-9.186-4.701-3.125-1.477-6.338-2.811-9.566-4.113a151.606 151.606 0 00-4.876-1.894c-1.626-.637-3.268-1.23-4.915-1.829 3.454.571 6.88 1.362 10.28 2.236a125.55 125.55 0 016.594 1.894c-3.396-8.872-7.823-17.068-13.092-24.46 0 0-19.815-4.642-44.557-7.572.348 2.407.654 4.954.89 7.621zm-61.307 26.88c1.435-.109 2.88-.211 4.336-.305h.006c1.789-.116 3.594-.218 5.414-.309h.001c.568-.029 1.135-.058 1.706-.084h.003c.812-.037 1.627-.07 2.444-.101h.001c.769-.03 1.541-.057 2.315-.083h.005c2.226-.072 4.469-.127 6.733-.158h.001c1.562-.021 3.13-.034 4.708-.034 2.134 0 4.24.026 6.331.063h.003l1.194.022h.002c4.427.094 8.754.268 12.972.512l.019.001c.746.043 1.487.089 2.227.136 2.742-6.835 4.394-17.066 5.385-26.533.292-2.793.527-5.517.715-8.069-10.317-1.119-21.328-1.896-32.016-1.896-10.354 0-20.971.743-30.949 1.825.206 2.593.46 5.365.774 8.208 1.065 9.604 2.812 19.988 5.67 26.805zM14.077 91.323a.01.01 0 00.005-.002l.013-.004.209-.072.021-.007.254-.086.15-.051.221-.074.201-.067.227-.075.312-.103.181-.059.39-.127.184-.06.472-.152.158-.05.57-.181.094-.03c5.609-1.771 17.123-5.147 32.768-8.419h.001c.682-.143 1.371-.285 2.069-.427h.001l.005-.001c.487-.099.971-.198 1.465-.297a96.02 96.02 0 01.658-5.263l26.309-7.485a88.515 88.515 0 00-.02 8.297c1.139-.149 2.285-.296 3.444-.438a88.143 88.143 0 01-.03-6.393c1.741 1.576 4.096 3.602 6.479 5.288l.024.37a372.85 372.85 0 013.433-.342c-.042-.607-.052-.967-.053-.984a1.739 1.739 0 00-.752-1.399 45.418 45.418 0 01-2.861-2.12c-.85-8.101-.711-15.94-.09-22.974.239-2.705.549-5.287.901-7.723-24.829 2.979-44.672 7.771-44.672 7.771a109.583 109.583 0 00-12.964 24.283c2.18-.687 4.382-1.329 6.584-1.894 3.399-.873 6.826-1.665 10.285-2.236a208.527 208.527 0 00-4.931 1.829 164.466 164.466 0 00-4.865 1.894c-3.229 1.302-6.436 2.636-9.571 4.113-3.142 1.434-6.227 2.971-9.176 4.701-2.724 1.56-5.332 3.284-7.638 5.217a54.162 54.162 0 00-.269 1.828 80.163 80.163 0 00-.275 2.576c-.043.495-.063.992-.092 1.489l.17-.059c-.001-.002-.001-.002.001-.002z" fill="#e07e39"/><path d="M90.911 75.355c1.132-.119 2.285-.228 3.434-.339v-.003c-1.151.112-2.301.223-3.434.342zM14.325 91.237l-.021.007a.103.103 0 00.021-.007zm194.067-9.266l.019.004a319.47 319.47 0 01-.019-.004zm-8.361-1.781c1.397.279 2.757.561 4.09.845l.019.004a331.775 331.775 0 00-4.109-.849zm39.539 10.691l.014.005.371.14a71.64 71.64 0 00-.385-.145zm-.605-.223c-.215-.079-.455-.165-.724-.262l.724.262zm-224.236.443zm2.186-.717l-.472.152.472-.152zm35.659-9.107zm-34.932 8.875l-.57.181.57-.181zm222.549.964l.042.016-.236-.091.194.075zM50.504 81.704c-15.645 3.271-27.158 6.648-32.768 8.419 5.613-1.771 17.126-5.148 32.768-8.419zM16.26 90.595l-.39.127.39-.127zm-1.11.364l-.201.067.201-.067zm.539-.178l-.312.103.312-.103zm-1.595.536l-.013.004a.21.21 0 00.013-.004zm88.146-16.983l.001.003c1.437-.108 2.877-.215 4.335-.308-1.457.093-2.901.195-4.336.305zm21.261-1.01c.568-.01 1.133-.023 1.703-.031a361.018 361.018 0 00-4.601.094c.962-.026 1.929-.045 2.898-.063zm-9.796.311zm36.731.222c.751.043 1.478.101 2.222.149l.005-.013c-.74-.047-1.481-.093-2.227-.136zm-43.855.171zm37.385-.486c2.168.086 4.309.191 6.424.313l.026.001a357.515 357.515 0 00-6.757-.327l.307.013zm15.872.982l.31.025c-.104-.009-.206-.019-.31-.027v.002zm-29.924-1.266zm100.14 14.44zm-2.592-.781l.014.004c.45.133.888.264 1.315.393l.015.005a258.794 258.794 0 00-1.344-.402zm2.632.793a194.43 194.43 0 018.132 2.681h.001a194.157 194.157 0 00-8.133-2.681zm-5.526-1.631l.036.01a272.921 272.921 0 00-.036-.01zm-12.109-3.16c.632.151 1.254.302 1.866.453l.032.008a330.31 330.31 0 00-1.931-.469l.033.008zm5.517 1.374l.086.022c.562.146 1.114.29 1.657.434l.051.014a313.666 313.666 0 00-1.794-.47zm3.424.907l.068.018a355.557 355.557 0 01-.068-.018zm-5.22-1.366zm-3.791-.932z" fill="#e07e39"/><path d="M163.465 74.843l-.196.143c-.149 2.432-.825 9.335-3.916 15.815a399.589 399.589 0 018.27.763 1.866 1.866 0 01-.048-.35 1.613 1.613 0 01.048-.556c1.438-5.242 1.969-10.718 2.118-15.169-2.056-.231-4.15-.446-6.276-.646z" fill="#c6b22f"/><path d="M169.743 69.697c-1.688 1.533-3.968 3.488-6.278 5.146 2.126.2 4.219.415 6.276.645.076-2.245.056-4.234.002-5.791z" fill="#a34d24"/><path d="M86.532 90.657c.059.218.059.435.033.646-.01.082-.012.166-.033.244.831-.088 1.663-.166 2.494-.247 1.923-.187 3.847-.363 5.771-.516-2.95-6.184-3.699-12.729-3.885-15.428-2.189.231-4.35.475-6.473.734.177 4.341.722 9.564 2.093 14.567z" fill="#c6b22f"/><path d="M84.407 69.697a88.721 88.721 0 00.03 6.393 392.65 392.65 0 016.473-.734 25.027 25.027 0 01-.024-.37c-2.382-1.687-4.738-3.713-6.479-5.289z" fill="#a34d24"/><path d="M54.046 80.978a92.232 92.232 0 00-.446 10.361 67.56 67.56 0 00.261 5.138l.135-.081s.171-2.22.515-5.058c.427-3.523 1.121-7.998 2.088-10.367.08-.194.207-.38.354-.562-.982.189-1.953.379-2.907.569zm24.255-4.089c.507.594.901 1.365 1.126 2.385.804 3.65 1.911 6.686 2.972 8.925-.855-4.103-1.249-8.157-1.405-11.671-.905.118-1.802.239-2.693.361zm93.238 12.259c1.195-2.293 2.524-5.676 3.448-9.874.303-1.378.909-2.311 1.701-2.942a349.085 349.085 0 00-3.507-.442c-.147 3.923-.586 8.584-1.642 13.258zm24.854-9.665c.695.451 1.2.945 1.422 1.488.956 2.335 1.642 6.709 2.07 10.206.236 1.926.394 3.59.473 4.492.082-1.077.166-2.604.193-4.493a92.606 92.606 0 00-.52-10.987 371.88 371.88 0 00-3.638-.706z" fill="#c6b22f"/><path d="M54.704 75.715a96.02 96.02 0 00-.658 5.263 408.307 408.307 0 0126.948-4.451 88.512 88.512 0 01.02-8.297l-26.31 7.485zm144.748 0l-26.32-7.485c.096 1.816.168 4.499.049 7.66a357.21 357.21 0 0123.212 3.593c1.234.233 2.448.469 3.638.706a98.8 98.8 0 00-.579-4.474z" fill="#a34d24"/><path fill="#8d9294" d="M200.031 80.19zm-43.119-5.899h-.002l.016.001-.012-.001h-.002zm-60.326.512c-.228.021-.46.039-.688.06.228-.021.46-.039.688-.06zm4.913-.414l-.347.026.347-.026z"/><path d="M156.91 74.291c-1.398-.106-2.829-.193-4.252-.285-1.925 4.793-4.387 7.915-7.538 7.915h-35.432c-3.078 0-5.516-2.978-7.448-7.584-.246.019-.497.034-.742.053l-.347.026c-1.536.12-3.055.251-4.565.388-.228.021-.46.039-.688.06-.523.048-1.034.103-1.554.153.173 2.48.906 9.227 3.983 15.152.055.11.093.231.132.346 9.527-.648 19.082-.912 28.616-.918 9.538.006 19.088.286 28.61.939.038-.126.077-.247.143-.368 3.309-6.382 3.908-13.716 4.01-15.645-.966-.08-1.935-.158-2.912-.232h-.016z" fill="#c6b22f"/><path d="M159.507 24.154a301.146 301.146 0 01-.744 15.237c1.311.142 2.61.29 3.896.442-.932-6.481-2.16-11.909-3.152-15.679zm-64.546-.557l-.701 2.072a143.074 143.074 0 00-2.771 14.144c1.421-.17 2.859-.335 4.31-.492-.709-8.94-.838-15.724-.838-15.724z" fill="#a82023"/><path d="M152.662 73.993c1.429.091 2.844.191 4.247.297h.004l.013.001c.975.074 1.95.149 2.912.229.016-.301.021-.48.021-.492a1.75 1.75 0 01.757-1.399 45.92 45.92 0 002.757-2.048l.119-.34c.826-8.04.674-15.807.056-22.788a140.601 140.601 0 00-.888-7.62c-1.286-.152-2.585-.3-3.896-.442a268.83 268.83 0 01-.715 8.069c-.992 9.467-2.644 19.698-5.387 26.533zm-56.076.81c1.509-.137 3.03-.267 4.565-.388l.347-.026.741-.056c-2.857-6.817-4.604-17.201-5.667-26.805a266.267 266.267 0 01-.774-8.208c-1.451.157-2.889.321-4.31.492a140.35 140.35 0 00-.901 7.723c-.62 7.034-.76 14.873.09 22.974a45.418 45.418 0 002.861 2.12c.461.318.742.839.752 1.399.001.017.011.377.053.984.518-.05 1.033-.102 1.554-.15.229-.02.461-.038.689-.059z" fill="#a34d24"/><path d="M101.499 74.389c.245-.019.496-.034.742-.053l-.001-.003-.741.056zm-.348.026zm55.775-.123c.977.074 1.947.152 2.912.232v-.003c-.962-.081-1.937-.155-2.912-.229zm-4.268-.286c1.423.091 2.854.179 4.252.285a339.901 339.901 0 00-4.247-.297.043.043 0 00-.005.012zm-58.314 1.008v.003c.52-.05 1.031-.105 1.554-.153-.521.048-1.036.099-1.554.15z" fill="#8d9294"/><path d="M50.145 91.343a90.99 90.99 0 01.116-6.113 64.944 64.944 0 01-1.814 6.115c-1.497 4.21-3.556 8.225-6.286 9.994 2.438-1.127 5-2.004 7.551-2.84.297-.093.604-.182.901-.274-.011-.077-.033-.149-.05-.225-.029-.202-.356-2.623-.418-6.657zm155.614-.172a65.446 65.446 0 01-1.751-5.941 91.15 91.15 0 01.117 5.943c-.055 4.134-.391 6.622-.42 6.827-.017.077-.039.148-.05.225.297.093.604.181.901.274 2.551.836 5.113 1.713 7.551 2.84-2.767-1.793-4.847-5.894-6.348-10.168z" fill="#c6b22f"/><g fill="#2d3136"><path d="M212.705 101.748a6.423 6.423 0 01-.731-.413c-2.436-1.123-4.988-1.996-7.536-2.831a28.118 28.118 0 00-.901-.275c.023-.077.044-.154.056-.23.038-.289.693-5.127.298-12.757a100.52 100.52 0 00-1.21-11.164 1.732 1.732 0 00-1.23-1.378l-3.751-1.06c-.807-29.028-12.757-42.668-13.13-43.091 10.675 17.183 10.582 37.561 10.396 42.311l-23.257-6.611c-.016 0-.033 0-.054-.011a2.59 2.59 0 00-.297-.045c-.022 0-.049-.005-.088-.005a1.5 1.5 0 00-.379.033c-.017 0-.038.017-.061.017a1.329 1.329 0 00-.301.104c-.038.016-.072.039-.105.05-.077.055-.153.099-.23.154-.017.011-.038.022-.055.038-.022.017-.033.034-.044.044-.022.022-.049.038-.066.055-.022.023-.648.637-1.62 1.555a106.398 106.398 0 00-.241-10.742c-.729-10.212-3.145-24.557-10.358-37.115.062.181.775 2.265 1.697 5.774 2.322 8.83 5.977 26.699 3.984 46.088l-.024.267c-.031.024-.064.048-.094.073a46.014 46.014 0 01-2.756 2.048 1.747 1.747 0 00-.757 1.399c0 .088-.203 8.759-4.031 16.14a1.867 1.867 0 00-.143.368c-9.522-.653-19.072-.933-28.61-.939-9.534.006-19.089.269-28.616.918-.039-.115-.077-.237-.132-.346-3.833-7.381-4.031-16.052-4.037-16.14a1.739 1.739 0 00-.752-1.399 45.418 45.418 0 01-2.861-2.12c-1.936-18.446 1.257-35.54 3.582-44.841 1.104-4.416 2.014-7.083 2.085-7.288-10.467 18.212-10.829 40.188-10.598 47.855a50.676 50.676 0 01-1.62-1.555c-.017-.017-.05-.033-.071-.055-.011-.011-.022-.027-.039-.044a.233.233 0 00-.061-.038 2.515 2.515 0 00-.23-.142c-.038-.022-.066-.045-.11-.061a.84.84 0 00-.286-.093c-.027-.011-.049-.028-.066-.028a1.563 1.563 0 00-.385-.033c-.033 0-.065.005-.098.005a2.524 2.524 0 00-.286.045c-.022.011-.033.011-.055.011l-23.25 6.611c-.186-4.75-.286-25.128 10.39-42.311-.374.423-12.323 14.063-13.136 43.091L52.71 72.7a1.722 1.722 0 00-1.241 1.378 100.966 100.966 0 00-1.209 11.151c-.395 7.638.261 12.481.303 12.771.017.077.039.148.05.225-.297.093-.604.181-.901.274-2.551.836-5.113 1.713-7.551 2.84a6.698 6.698 0 01-.685.389l-.041.02-1.1.538-.572.28-.003.001c-.12.068-.242.13-.36.199 1.724-.676 3.509-1.17 5.293-1.61 1.79-.445 3.592-.84 5.392-1.181a174.687 174.687 0 0110.901-1.702c3.641-.478 7.298-.873 10.961-1.181 3.662-.313 7.32-.62 10.994-.835 14.684-.867 29.406-1.142 44.135-1.147 14.733.011 29.455.241 44.134 1.142 3.674.214 7.331.521 10.999.83 3.668.312 7.315.714 10.956 1.192 3.652.439 7.288 1.021 10.901 1.697 1.806.346 3.602.73 5.387 1.186 1.796.439 3.569.933 5.299 1.61-.096-.055-.194-.105-.289-.159l-.656-.321-1.102-.539zM82.556 91.981c-3.69.45-7.386.917-11.065 1.526-3.668.627-7.337 1.296-10.972 2.103a182.678 182.678 0 00-6.578 1.648 32.96 32.96 0 01-.08-.781c-.253-2.713-.732-10.528.844-20.761l26.309-7.485c-.198 3.916-.305 11.852 1.386 19.968.235 1.125.503 2.254.811 3.376.034.11.078.22.126.319-.265.031-.517.054-.781.087zm3.976-.434c.077-.28.083-.587 0-.889-2.158-7.874-2.273-16.304-2.125-20.961 1.741 1.576 4.097 3.602 6.479 5.288.143 2.432.819 9.319 3.91 15.799a318.2 318.2 0 00-8.264.763zm81.092-.89a1.69 1.69 0 000 .906 355.244 355.244 0 00-8.27-.764c3.091-6.48 3.767-13.382 3.916-15.815 2.377-1.686 4.738-3.712 6.474-5.288.158 4.647.043 13.076-2.12 20.961zm32.734 5.013a41.368 41.368 0 01-.149 1.594 185.387 185.387 0 00-6.579-1.647c-7.276-1.598-14.64-2.784-22.042-3.63-.252-.033-.516-.05-.774-.082.049-.11.094-.22.127-.33.222-.807.416-1.617.598-2.426 1.907-8.441 1.807-16.849 1.592-20.918l26.32 7.485c1.435 9.352 1.157 16.689.907 19.954z"/><path d="M128.766 85.921H141.1V69.274h-5.266V39.802h3.487v6.376h15.48v-21.84h-54.469v21.839h15.469v-6.376h3.476v29.472h-5.25V85.92h14.739zm-10.098-11.996h5.26V35.161H111.15v6.375h-6.178V28.984h45.178v12.553h-6.178v-6.375h-12.778v38.764h5.261v7.194h-17.786v-7.195z"/><path d="M23.965 126.43c-.663-.307-1.327-.618-1.863-.864l-1.543-.736c-.253-.122-.522-.258-.775-.385l-.002-.004-.002-.001-.22-.417c-.182-.357-.358-.73-.527-1.109a34.462 34.462 0 01-.858-2.031c-.04-.101-.086-.196-.125-.297a55.65 55.65 0 01-1.592-4.881c-.934-3.317-1.566-6.744-2.043-10.203a81.332 81.332 0 01-.348-3.313 73.562 73.562 0 01-.294-7.088c.007-.777.028-1.553.058-2.329.035-.961.086-1.92.168-2.877.077-.862.17-1.725.275-2.576.077-.604.17-1.241.269-1.828 2.306-1.939 4.914-3.657 7.638-5.228 2.944-1.719 6.029-3.257 9.176-4.69 3.135-1.477 6.342-2.816 9.566-4.118a236.39 236.39 0 014.871-1.895c.223-.085.449-.164.672-.248 1.413-.54 2.828-1.058 4.259-1.575-3.459.571-6.886 1.362-10.285 2.236a126.884 126.884 0 00-6.584 1.894c15.53-40.604 52.663-67.045 93.223-67.045 6.337 0 12.59.646 18.69 1.89 32.942 6.719 61.43 30.896 74.542 65.155l-.006-.002v.001a127.832 127.832 0 00-6.595-1.894c-3.39-.872-6.813-1.663-10.269-2.234 1.43.52 2.855 1.04 4.27 1.584.212.08.428.156.64.237a205.83 205.83 0 014.876 1.895c3.229 1.302 6.441 2.641 9.566 4.118 3.151 1.434 6.238 2.971 9.186 4.69 2.719 1.57 5.333 3.289 7.633 5.228.104.587.203 1.219.275 1.828a65.432 65.432 0 01.5 7.782c.033 3.481-.203 6.963-.649 10.401-.472 3.453-1.104 6.886-2.042 10.203a54.352 54.352 0 01-1.588 4.876 38.906 38.906 0 01-.983 2.334c-.169.379-.351.752-.538 1.109l-.209.423c-.263.126-.527.263-.779.385l-1.548.736c-.537.252-1.097.493-1.651.735l-3.522 13.378 1.856-7.035c.653-.28 1.345-.56 2.13-.862 1.12-.445 2.241-.889 3.361-1.372l1.658-.747a46.762 46.762 0 001.725-.841l.592-.302.374-.588c.208-.318.319-.494.451-.736l.362-.654c.247-.45.467-.878.67-1.318a43.65 43.65 0 001.142-2.658 59.388 59.388 0 001.802-5.381 70.784 70.784 0 002.076-11.038c.423-3.718.516-7.463.329-11.202a59.482 59.482 0 00-.538-5.58 35.96 35.96 0 00-.456-2.784 30.88 30.88 0 00-.664-2.85l-.198-.725-.516-.407c-2.944-2.311-6.118-4.058-9.341-5.601-2.663-1.257-5.365-2.351-8.1-3.361-7.621-21.153-20.725-39.912-37.951-52.981C169.83 7.15 148.887 0 127.075 0 105.263 0 84.319 7.15 66.51 20.659 49.284 33.728 36.18 52.486 28.559 73.645c-2.729 1.004-5.436 2.103-8.094 3.355-3.229 1.543-6.403 3.29-9.346 5.601l-.516.407-.198.725a39.65 39.65 0 00-.664 2.85 47.35 47.35 0 00-.456 2.784 63.345 63.345 0 00-.538 5.58 69.961 69.961 0 00.329 11.202 70.803 70.803 0 002.075 11.038 58.968 58.968 0 001.801 5.381c.347.89.726 1.774 1.143 2.658.208.44.433.868.664 1.318l.369.654c.142.242.236.418.45.736l.373.588.594.302c.631.325 1.153.572 1.724.841l1.664.747c.307.126.598.252.912.378l4.289-3.824a128.9 128.9 0 01-1.169-.536z"/></g><path fill="#cc4032" d="M118.668 73.925h5.26V35.161H111.15v6.376h-6.178V28.984h45.178v12.553h-6.178v-6.376h-12.779v38.764h5.261v7.194h-17.786z"/><path d="M170.822 242.328s24.856-15.774 35.038-40.025l-3.068-1.126-2.423 2.25s-17.903 30.061-43.365 40.906l-.337 1.72 14.155-3.725zm-26.339-59.54s-5.876 5.458-15.343 6.678c-9.462 1.214-16.892-4.597-16.892-4.597.312 1.006.751 3.277 2.876 5.214h-.031l.037.006.018.018h.05c.409.495 4.607 4.009 13.032 4.009 6.371 0 11.177-3.711 11.994-4.256l.18-.046h-.027c4.07-3.076 4.106-7.026 4.106-7.026z" fill="#2d3136"/><path d="M174.683 185.303c-27.012 0-38.659-19.931-41.855-33.141-1.618-.471-3.472-.892-4.786-.892-1.314 0-3.167.421-4.786.892-3.196 13.21-14.845 33.141-41.856 33.141-35.59 0-59.294-11.394-59.294-67 0-1.965.962-3.805 2.575-4.926 1.195-.832 29.625-19.851 89.916 2.642 2.795-1.044 7.539-2.34 13.444-2.137 5.913-.206 10.649 1.093 13.444 2.137 60.292-22.492 88.72-3.472 89.916-2.642a5.999 5.999 0 012.575 4.926c.001 55.606-23.702 67-59.293 67zm-46.641-46.032c5.682 0 12.585 2.92 12.646 2.949a5.997 5.997 0 013.318 4.589c.153 1.059 4.12 26.494 30.678 26.494 17.331 0 27.695-2.799 34.656-9.358 8.049-7.586 12.184-21.366 12.603-42.066-2.977-1.341-8.516-3.329-16.704-4.27-12.143-1.394-32.711-.708-61.736 10.479a6.003 6.003 0 01-4.969-.297c-.162-.083-4.356-2.16-10.239-1.91a6.05 6.05 0 01-.504 0c-5.975-.25-10.203 1.891-10.245 1.913-1.543.835-3.326.926-4.963.295-29.028-11.188-49.595-11.873-61.737-10.479-8.177.939-13.712 2.923-16.704 4.273.419 20.698 4.554 34.478 12.603 42.063 6.961 6.56 17.325 9.358 34.656 9.358 26.78 0 30.531-25.412 30.678-26.494a6.003 6.003 0 013.319-4.589c.059-.03 6.962-2.95 12.644-2.95z" fill="#a1a0a0"/><path d="M238.271 222.303c1.333-5.875.977-7.003.395-8.5-1.305-3.357-2.833-4.018-2.962-4.113a2 2 0 00-2.38 3.214c.103.08 1.427.899 2.885 2.92.661.917 1.145 2.167 2.062 6.479z" fill="#2d3136"/><circle cx="85.667" cy="141.303" r="4" fill="#fff"/><circle cx="171" cy="141.303" r="4" fill="#fff"/><path d="M174.683 185.303c-27.013 0-38.661-19.931-41.856-33.141-1.618-.471-3.471-.892-4.786-.892s-3.167.421-4.786.892c-3.195 13.209-14.843 33.141-41.856 33.141-35.59 0-59.294-11.394-59.294-67v-3.557l3.12-1.707c1.188-.65 29.449-19.476 89.374 2.978 2.795-1.043 7.538-2.339 13.441-2.136 5.914-.21 10.646 1.092 13.441 2.136 59.928-22.453 88.187-3.628 89.374-2.978l3.12 1.708v3.556c.002 55.606-23.701 67-59.292 67zm-46.641-46.033c5.704 0 12.594 2.925 12.654 2.955l2.879 1.408.431 3.176c.152 1.059 4.121 26.494 30.678 26.494 17.331 0 27.695-2.799 34.656-9.358 7.984-7.525 12.117-21.147 12.592-41.573-8.423-2.644-33.824-11.477-78.43 5.715l-2.58.994-2.395-1.295c-.251-.125-4.407-2.151-10.233-1.906l-.251.011-.251-.011c-5.977-.248-10.203 1.89-10.245 1.912l-2.432 1.315-2.531-1.021c-44.553-17.172-69.951-8.371-78.43-5.709.475 20.423 4.607 34.042 12.592 41.566 6.961 6.56 17.325 9.358 34.656 9.358 26.78 0 30.531-25.413 30.678-26.494l.431-3.176 2.879-1.408c.058-.028 6.948-2.953 12.652-2.953z" fill="none" stroke="#2d3136" stroke-width="4" stroke-linecap="round" stroke-linejoin="round" stroke-miterlimit="10"/><g fill="#2d3136"><path d="M183.191 133.734c-.04.187-.941 3.306-5.75 3.061.267.474.399-.973-2.208-2.537 3.333.298 5.764.641 7.958-.524z"/><path d="M184.593 135.611c-.04.187-.941 3.306-5.75 3.061.267.474.399-.973-2.208-2.537 3.333.298 5.764.64 7.958-.524z"/><path d="M185.668 137.94c-.04.187-.941 3.306-5.75 3.061.267.474.399-.973-2.208-2.537 3.332.299 5.764.641 7.958-.524z"/><path d="M170.497 157.532c.423.061.834.112 1.238.157 5.735.517 8.078-2.368 8.078-2.368.788-1.174 1.329-2.843 1.53-5.225.731-8.628-3.117-16.21-8.577-16.911-5.467-.702-10.104 5.789-11.203 14.384-1.1 8.579 3.467 9.267 8.934 9.963zm-2.327-16.648a2.807 2.807 0 013.184-2.382 2.803 2.803 0 012.382 3.189 2.819 2.819 0 01-3.19 2.382 2.81 2.81 0 01-2.376-3.189z"/></g><g fill="#2d3136"><path d="M73.443 133.578c.037.188.889 3.32 5.701 3.152-.274.47-.384-.979 2.248-2.502-3.337.246-5.773.55-7.949-.65z"/><path d="M72.012 135.433c.037.188.889 3.32 5.701 3.152-.274.47-.384-.979 2.248-2.502-3.338.245-5.774.549-7.949-.65z"/><path d="M70.9 137.745c.037.188.889 3.32 5.701 3.152-.274.47-.384-.979 2.248-2.502-3.337.246-5.773.55-7.949-.65z"/><path d="M94.85 147.752c-.963-8.612-5.498-15.174-10.975-14.559-5.471.615-9.438 8.136-8.842 16.774.164 2.385.679 4.062 1.448 5.249 0 0 2.297 2.922 8.04 2.495.405-.039.816-.083 1.241-.137 5.476-.611 10.053-1.227 9.088-9.822zm-8.926-3.636a2.819 2.819 0 01-3.152-2.432 2.805 2.805 0 012.432-3.152c1.54-.2 2.952.89 3.146 2.432a2.811 2.811 0 01-2.426 3.152z"/></g><path d="M148.404 215.935s-6.863-1.789-8.988-1.789c-2.125 0-11.669 2.644-11.669 2.644l-11.669-4.644-8.988 3.789 11.248 3.965h7.409l2.053 1s6.367-.473 9.409-1 11.248-3.965 11.248-3.965l7.096-4" fill="#414042"/><path d="M126.748 216.791s-.002 1.346 1.002 1.346 12.247-.069 19.707-2.201l-5.957-3.549-14.5.417-.252 3.987z" fill="#fff"/><path d="M128.457 216.791s.002 1.346-1.002 1.346-12.247-.069-19.707-2.201l5.957-3.549 14.5.417.252 3.987z" fill="#fff"/><path d="M157.556 210.937c-.019-.019-.056-.002-.056-.002s-5.74 2.685-8.78-.355c-3.04-3.04-7.859-6.027-11.644-6.027-3.237 0-7.746 2.726-8.988 3.516-1.452-.79-6.694-3.516-9.931-3.516-3.784 0-8.604 2.987-11.644 6.027-3.04 3.04-8.78.355-8.78.355s-.037-.017-.056.002c-.019.019-.005.048-.005.048l10.155 10.816s5.072 5.668 7.989 7.251c2.917 1.583 9.666 2.758 11.616 2.758l.252-.001v-.002l.116.003c1.95 0 8.699-1.175 11.616-2.758s7.989-7.251 7.989-7.251l10.155-10.816c.001 0 .015-.029-.004-.048zm-9.099 4.998s-8.206 3.438-11.248 3.965-9.516 1-9.516 1-6.627-.473-9.669-1-11.248-3.965-11.248-3.965l-.019-.011.072.011s6.863-1.789 8.988-1.789c2.122 0 11.639 2.636 11.666 2.643 0 0 .087.013.142.013.055 0 .126-.013.126-.013.027-.007 9.544-2.643 11.666-2.643 2.125 0 8.988 1.789 8.988 1.789l.072-.011-.02.011z" fill="#6f5ba7"/><path d="M157.556 210.937c-.019-.019-.056-.002-.056-.002s-5.74 2.685-8.78-.355c-3.04-3.04-7.859-6.027-11.644-6.027-3.237 0-7.746 2.726-8.988 3.516-1.452-.79-6.694-3.516-9.931-3.516-3.784 0-8.604 2.987-11.644 6.027-3.04 3.04-8.78.355-8.78.355s-.037-.017-.056.002c-.019.019-.005.048-.005.048l.422.45c2.611 1.677 5.598 3.191 8.996 4.433 1.257-.321 6.844-1.721 8.726-1.721 2.122 0 11.639 2.636 11.666 2.643 0 0 .087.013.142.013.055 0 .126-.013.126-.013.027-.007 9.544-2.643 11.666-2.643 1.768 0 6.801 1.235 8.449 1.651a65.068 65.068 0 009.041-4.114l.655-.698c0-.001.014-.03-.005-.049z" fill="#1e72b7"/><path d="M148.457 215.935s-8.206 3.438-11.248 3.965-9.516 1-9.516 1-6.627-.473-9.669-1-11.248-3.965-11.248-3.965l-.019-.011.072.011s6.863-1.789 8.988-1.789c2.122 0 11.639 1.636 11.666 1.643 0 0 .087.013.142.013.055 0 .126-.013.126-.013.027-.007 9.544-1.643 11.666-1.643 2.125 0 8.988 1.789 8.988 1.789l.072-.011-.02.011z" fill="none" stroke="#2d3136" stroke-width="2" stroke-linecap="round" stroke-linejoin="round" stroke-miterlimit="10"/><path fill="#fff" d="M238.242 207.188l-13.718 3.117.918 3.286 13.191-3.302z"/><path d="M238.242 207.188l.391 3.1-13.19 3.302-.919-3.286 13.718-3.116m0-2a1.96 1.96 0 00-.443.05l-13.718 3.116a1.998 1.998 0 00-1.483 2.488l.918 3.286a2 2 0 002.412 1.402l13.19-3.302a2 2 0 001.499-2.19l-.391-3.1a2.003 2.003 0 00-1.984-1.75z" fill="#2d3136"/><path d="M125.204 73.293c-.429.006-.848.022-1.276.03v.602h-5.26v7.194h17.786v-7.194h-5.261v-.654c-.429-.002-.848-.013-1.28-.013-1.578 0-3.147.014-4.709.035z" fill="#dacd52"/><path d="M111.15 35.161h12.778v2.358c.941-.012 1.882-.025 2.819-.025 1.477 0 2.96.018 4.446.046v-2.38h12.778v2.936c2.07.136 4.132.291 6.178.464v-9.578h-45.177v9.467c2.048-.168 4.107-.322 6.178-.45v-2.838z" fill="#cc4032"/><path d="M125.206 73.293c1.561-.021 3.129-.034 4.707-.034.431 0 .851.011 1.28.013V37.541a227.98 227.98 0 00-4.446-.046c-.937 0-1.878.013-2.819.025v35.796c.425-.008.849-.018 1.276-.023h.002z" fill="#e07e39"/><path d="M111.15 41.537v-3.536c-2.07.128-4.129.282-6.178.45v3.086h6.178zm32.822 0h6.178v-2.975a331.304 331.304 0 00-6.178-.464v3.439z" fill="#dd8142"/><path fill="#d8d8d8" d="M143.407 28.983h-38.435v12.554h6.178v-6.376h12.778v38.764h-5.26v7.194h17.786v-7.194h-5.261V35.161h12.779v6.376h6.178V28.983z"/><path d="M157.556 210.937c-.019-.019-.056-.002-.056-.002s-5.74 2.685-8.78-.355c-3.04-3.04-7.859-6.027-11.644-6.027-3.237 0-7.746 2.726-8.988 3.516-1.452-.79-6.694-3.516-9.931-3.516-3.784 0-8.604 2.987-11.644 6.027-3.04 3.04-8.78.355-8.78.355s-.037-.017-.056.002c-.019.019-.005.048-.005.048l10.155 10.816s5.072 5.668 7.989 7.251c2.917 1.583 9.666 2.758 11.616 2.758l.252-.001v-.002l.116.003c1.95 0 8.699-1.175 11.616-2.758s7.989-7.251 7.989-7.251l10.155-10.816c.001 0 .015-.029-.004-.048z" fill="none" stroke="#2d3136" stroke-width="3" stroke-linecap="round" stroke-linejoin="round" stroke-miterlimit="10"/><path d="M148.539 216.991s1.729-.646 4.062-2.229c2.333-1.583 2.083-2.354 2.083-2.354s-2.438 2.875-9.479 1.729c-4.911-.799 3.334 2.854 3.334 2.854zm-41.804 0s-1.729-.646-4.062-2.229c-2.333-1.583-2.083-2.354-2.083-2.354s2.438 2.875 9.479 1.729c4.911-.799-3.334 2.854-3.334 2.854z" fill="#2d3136"/></svg>