<svg xmlns="http://www.w3.org/2000/svg" width="16" height="16" viewBox="0 0 16 16"><style>.st0{fill:#dec65f}.st1{fill:#2d3136}.st2{fill:#cb3349}.st3{fill:#c8ad8e}.st4{fill:#b59a7f}.st7{opacity:.75}.st8{fill:#ebd599}.st10{fill:#fff}</style><path class="st0" d="M2.468 7.495c.128-.034-.306-.074-.157-.123 0 .138 1.364-1.3 1.372-1.176a.593.593 0 00-.048.027c-.173.11-.211.315-.224.706-.006.2.01.593.057.959.08.627.154.71.26.752a.947.947 0 00.217.057c.167.02-.967 1.626-.81 1.607l.006.04c-.072.127-.144.192-.144.192.247.746-.204 1.16-.204 1.16.168.773-.532.956-.532.956l-.05.222c.136.22.37.156.248 1.117s-.76 1.122-.76 1.122c.049-.148-.226-.503-.226-.503-.913-1.803.469-1.77.469-1.77l.01-.23s-.398-.484-.358-.807c.04-.323.217-.602.217-.602s-.251-.466-.21-.779c.04-.315.168-.5.168-.5s-.18-.41-.133-.78c.046-.372.262-.614.262-.614s.392-.313.437-.666a.876.876 0 01.133-.367z" fill="#dec65f"/><path class="st1" d="M3.679 6.19c.002 0 .004.002.004.008l-.036.02c.015-.018.026-.028.032-.028m-.032.027a3.48 3.48 0 00-.194.294c.032-.136.087-.226.182-.288l.012-.006m-.194.294a2.287 2.287 0 00-.042.418c-.006.2.01.593.057.959.08.627.154.71.26.752a.947.947 0 00.217.057c.165.02-.956 1.607-.813 1.607h.003l.006.04c-.072.127-.144.192-.144.192.247.746-.204 1.16-.204 1.16.168.773-.532.956-.532.956l-.05.222c-.134.258.37.156.248 1.117-.12.961-.76 1.122-.76 1.122.013-.56-.462-1.05-.45-1.455.024-.75.467-.82.632-.82.038 0 .061.004.061.004l.01-.23s-.398-.483-.358-.807c.04-.323.217-.601.217-.601s-.251-.467-.21-.78c.04-.315.168-.5.168-.5s-.18-.41-.133-.78c.046-.371.262-.614.262-.614s.392-.313.437-.666a.849.849 0 01.133-.367 7.69 7.69 0 00.42-.123c0 .007.002.009.004.009.042 0 .342-.52.561-.872M4 5.186l-.549.887a.627.627 0 00-.17.224l-.636.767.308-.18a7.1 7.1 0 01-.18.283 6.06 6.06 0 01-.369.106l-.086.023-.049.074a1.09 1.09 0 00-.167.463c-.027.211-.27.448-.352.513l-.017.013-.013.014c-.01.013-.261.302-.316.738-.038.306.05.625.107.79-.05.103-.116.27-.143.49-.036.28.097.622.18.802-.064.127-.157.34-.186.579-.038.306.175.663.314.857-.333.082-.637.378-.658 1.018-.009.245.103.477.221.722.114.241.232.49.228.735l-.006.302.293-.074c.032-.008.792-.21.931-1.315.089-.701-.133-.949-.251-1.084l-.004-.004.002-.006.023-.1c.295-.13.663-.46.582-1.062.138-.177.363-.58.216-1.172a1.51 1.51 0 00.088-.135l.04-.07-.012-.08-.004-.028c.057-.12.217-.384.34-.587.46-.758.542-.923.462-1.087a.243.243 0 00-.192-.138.78.78 0 01-.159-.04c-.019-.03-.065-.146-.118-.568a6.802 6.802 0 01-.055-.92c.007-.157.015-.263.03-.34a3.17 3.17 0 01.13-.202l.125-.063-.006-.082.73-.88-.8.462z" fill="#2d3136"/><path class="st1" d="M2.151 12.766a.113.113 0 01-.1-.059c-.03-.055-.033-.078.043-.156l.37-.325s-.172.437-.18.443c-.019.01-.114.097-.133.097zm-.541.731c-.075-.338-.056-.403-.023-.49.076-.194.163-.232.171-.236a.113.113 0 01.16.025.115.115 0 01-.022.16c-.007.005-.083.053-.167.17-.038.052-.066.124-.118.371z" fill="#2d3136"/><path class="st2" fill="#cb3349" d="M2.415 12.997l-.76-.19.023-.18.79.18z"/><path class="st1" d="M1.678 12.627l.79.18-.053.19-.76-.19.023-.18m0-.116a.105.105 0 00-.065.021.116.116 0 00-.049.08l-.023.18a.117.117 0 00.087.126l.76.19a.123.123 0 00.027.005c.05 0 .097-.034.112-.085l.052-.19a.115.115 0 00-.086-.143l-.79-.18c-.008-.002-.016-.004-.025-.004z" fill="#2d3136"/><path class="st0" d="M14.287 7.495a7.69 7.69 0 01-.42-.123c0 .138-1.364-1.3-1.372-1.176.019.01.036.019.048.027.174.11.212.315.224.706.007.2-.01.593-.057.959-.08.627-.154.71-.26.752a.947.947 0 01-.217.057c-.167.02.967 1.626.81 1.607l-.006.04a.838.838 0 00.144.192c-.247.746.205 1.16.205 1.16a.766.766 0 00.531.956l.051.222c-.137.22-.371.156-.249 1.117s.76 1.122.76 1.122c-.049-.148.226-.503.226-.503.914-1.803-.469-1.77-.469-1.77l-.01-.23s.399-.484.358-.807c-.04-.323-.204-.597-.204-.597s.238-.47.198-.784c-.04-.315-.169-.5-.169-.5s.18-.41.133-.78c-.046-.372-.262-.614-.262-.614s.184-.313.138-.666a.877.877 0 00-.131-.367z" fill="#dec65f"/><path class="st1" d="M12.503 6.19c.108 0 1.248 1.193 1.355 1.193.007 0 .009-.002.009-.009.15.047.291.09.42.123a.877.877 0 01.133.367c.044.353-.137.666-.137.666s.213.243.261.614c.047.372-.133.78-.133.78s.13.185.17.5c.04.315-.2.784-.2.784s.165.274.206.597c.04.324-.36.807-.36.807l.011.23s.023-.004.061-.004c.165 0 .608.07.632.82.012.407-.46.895-.45 1.455 0 0-.637-.16-.76-1.122-.12-.96.382-.857.25-1.117l-.051-.222s-.701-.183-.532-.956c0 0-.452-.414-.205-1.16 0 0-.072-.065-.144-.192a.83.83 0 01.007-.04h.002c.141 0-.977-1.586-.813-1.607a.947.947 0 00.218-.057c.105-.04.18-.123.26-.752.046-.366.063-.759.056-.96-.014-.388-.05-.593-.223-.705l-.049-.027c-.002-.004 0-.006.006-.006m0-.23a.237.237 0 00-.238.223l-.01.152.134.07a.17.17 0 01.03.017c.065.042.103.137.118.517.006.193-.01.57-.055.921-.055.423-.099.537-.118.568a.662.662 0 01-.158.04.243.243 0 00-.192.138c-.08.167.002.33.462 1.087.122.201.283.467.34.588l-.004.027-.013.08.04.07c.03.053.061.1.089.135-.15.592.078.995.215 1.172-.08.602.287.932.582 1.063l.024.099.002.006-.004.004c-.119.134-.34.383-.252 1.084.14 1.104.9 1.307.931 1.316l.293.074-.006-.302c-.004-.248.114-.495.228-.735.118-.247.228-.48.222-.723-.02-.64-.325-.935-.659-1.018.137-.194.353-.549.315-.857a1.945 1.945 0 00-.178-.577c.076-.177.205-.523.17-.806a1.537 1.537 0 00-.144-.49c.057-.165.147-.484.107-.79a1.504 1.504 0 00-.223-.61 1.36 1.36 0 00.1-.67 1.11 1.11 0 00-.166-.463l-.048-.074-.087-.023c-.14-.038-.276-.078-.411-.118l-.028-.009a13.24 13.24 0 01-.572-.528c-.627-.597-.705-.659-.836-.659z" fill="#2d3136"/><path class="st1" d="M13.257 11.884a.124.124 0 01-.078-.03.116.116 0 01-.009-.163l.283-.207-.09.364c-.022.025-.074.036-.106.036zm1.26-.533c-.036 0-.116-.116-.137-.145l-.19-.414.42.378a.113.113 0 01-.093.181zm-12.837 0a.101.101 0 01-.067-.023.115.115 0 01-.026-.16l.42-.378-.196.411c-.023.032-.095.15-.13.15z" fill="#2d3136"/><path class="st3" fill="#c8ad8e" d="M8.088 6.697l-5.658.52v2.867l.23.864.778.418.475 1.153.389.562 8.047-.534.62-1.485.347-1.022.502-2.723z"/><path class="st3" fill="#c8ad8e" d="M6.864 15.045l-1.277-.614-.958-.847-.47-.682.297-.22L6.72 11.51l1.402-.328 1.42.222.184.009.392.135 2.132.739.152.125-.806 1.163-1.142 1.048-1.363.528-1.2.065z"/><path class="st4" d="M11.75 13.18s-1.853 1.67-3.552 1.67c-1.7 0-3.531-1.458-3.531-1.458s1.007 1.824 3.666 1.824c2.66 0 3.417-2.036 3.417-2.036z" fill="#b59a7f"/><path class="st3" d="M3.173 11.106l-.005-.004-.382-.266-.006-.01a.128.128 0 01-.032-.051l-.006-.01-.184-1.513a3.12 3.12 0 00-.335.199c-.036.03-.066.107-.026.468.03.27.125.687.222 1l.002.006c.192.145.475.3.766.245l.026.088h.004c-.009-.03-.017-.059-.028-.09a.426.426 0 00-.016-.062zm10.823-1.884a4.486 4.486 0 00-.292-.17L13.5 10.49a.106.106 0 01-.043.07l-.002.001-.11.076-.181.127a1.765 1.765 0 01-.019.093c.287.07.566-.137.724-.287-.066.253-.137.462-.192.526h.002c.118-.129.31-.932.352-1.39.032-.374.003-.454-.035-.484z" fill="#c8ad8e"/><path class="st4" d="M3.265 10.904l.173.532s1.398.591 2.622.23 1.657-1.312 1.8-1.844c.144-.532-.289.233-.289.233s-1.556.965-2.476.965c-.92 0-1.83-.116-1.83-.116zm9.749 0l-.173.532s-1.397.591-2.621.23-1.657-1.312-1.8-1.844c-.144-.532.286.23.286.23s1.556.966 2.476.966c.92 0 1.832-.114 1.832-.114z" fill="#b59a7f"/><path class="st3" d="M13.143 10.857a2.704 2.704 0 01-.044.197c.168.04.443.07.574.044.057-.061.128-.275.194-.528-.156.15-.435.359-.724.287zm-9.928.399c-.009-.03-.017-.059-.028-.09-.293.054-.578-.102-.77-.25.063.2.124.357.173.406.144.027.466-.02.625-.066z" fill="#c8ad8e"/><path class="st4" d="M12.79 11.49s1.013-.538 1.225-1.097c.21-.56.052-.972.052-.972s-.169 1.014-1.087 1.478zm-9.345-.063S2.432 10.89 2.22 10.33c-.211-.56-.053-.971-.053-.971s.169 1.013 1.087 1.478z" fill="#b59a7f"/><path class="st1" d="M13.012 11.385c.154.038.382.032.549.032.082 0 .167-.015.221-.028.11-.027.192-.099.35-.713.094-.357.159-.744.176-.945.036-.388.023-.595-.135-.726a3.365 3.365 0 00-.424-.25h-.007l-.042.294s.255.142.293.173c.038.032.068.112.034.484-.04.458-.232 1.261-.352 1.39-.131.025-.408-.004-.574-.045.027-.116.038-.17.059-.289l-.287.2a8.055 8.055 0 01-.055.216c-.03.093-.06.184-.09.27a6.993 6.993 0 01-.415.961h-.002v.003s.123.023.319-.068l.004-.002c.226-.454.34-.817.378-.957zM4.095 13.12l.27-.08.004-.001v-.002s-.582-.97-.715-1.284c-.078-.184-.12-.309-.131-.338l-.03-.089-.12-.291-.312-.22c.006.019.126.327.133.348.008.03.017.062.027.091-.158.047-.479.091-.625.066-.046-.049-.11-.205-.173-.406a6.146 6.146 0 01-.221-.999c-.04-.361-.013-.437.025-.469a3.12 3.12 0 01.336-.198l-.036-.296c-.072.038-.384.2-.477.281-.157.131-.165.334-.123.712.021.194.095.57.192.916.17.594.294.7.401.725a.765.765 0 00.184.017c.194 0 .443-.038.606-.087.19.591.46 1.128.787 1.597-.004.002-.002.006-.002.006z" fill="#2d3136"/><path d="M2.41 7.569l.062.23c.17-.137.327-.25.46-.34-.215.044-.39.082-.521.11z" fill="#9a9c9e"/><path class="st4" d="M8.894 8.126l-.137-.074c-.015-.006-.253-.124-.589-.11H8.14c-.344-.014-.587.11-.591.11l-.14.076-.145-.059c-1.309-.504-2.33-.564-3.082-.595l-1.34.238-.095.028c.028 1.176.266 1.962.726 2.395.401.378.999.538 1.997.538 1.543 0 1.758-1.463 1.766-1.527l.026-.183.166-.08c.005-.003.401-.172.729-.172.329 0 .726.17.728.171l.166.08.026.184c.008.062.236 1.527 1.766 1.527.999 0 1.596-.16 1.997-.538.45-.423.686-1.183.722-2.313l-1.866-.433c-.696.072-1.577.264-2.649.678z" fill="#b59a7f"/><path class="st0" d="M15.215 8.984s-2.764-.864-3.281-2.285l2.412.287s-.186.999.87 1.998zM5.228 6.078l-1.53.623s.106.217.125.585l-1.828.217s-.045 1-1.1 1.998c0 0 2.256-.543 3.392-1.936-.1.6-.418.903-.787 1.29 0 0 1.766-.532 2.874-2.173-.065.251-.278 1.056-.46 1.354 0 0 6.051-1.513 6.178-3.02l-6.917.914c0 .002.026.055.053.148z" fill="#dec65f"/><path class="st1" d="M15.657 9.241l-.475-.147c-.116-.036-2.824-.898-3.356-2.357l-.063-.176 2.718.326-.023.12c-.002.015-.154.957.836 1.892zm-3.538-2.405c.48.923 1.948 1.59 2.691 1.88-.572-.71-.605-1.365-.59-1.629zM.46 9.755l.355-.336c1.005-.95 1.064-1.91 1.064-1.92l.004-.097.097-.013 1.718-.205c-.03-.272-.105-.433-.105-.435l-.053-.11.112-.046 1.43-.58a.206.206 0 01-.012-.032l-.066-.142.155-.023 6.483-.936-.012.144c-.055.671-1.039 1.402-2.92 2.173-1.375.562-2.752.944-2.766.948l-.281.078.15-.249c.059-.097.152-.304.285-.745-1.096 1.28-2.501 1.717-2.569 1.736l-.418.127.302-.315c.167-.173.488-.539.71-.957C2.98 8.977 1.017 9.581.924 9.611zM2.1 7.609c-.033.245-.18.906-.793 1.628.255-.097.595-.236.962-.418.69-.342 1.613-.906 2.096-1.65l.302-.462-.091.545c-.082.492-.403.982-.677 1.328.584-.264 1.64-.86 2.38-1.957l.378-.56-.17.655a10.16 10.16 0 01-.355 1.142 27.611 27.611 0 002.496-.87c1.978-.809 2.603-1.423 2.744-1.831l-6.036.87.006.02.03.098-1.524.62c.036.105.08.282.093.515l.006.107z" fill="#2d3136"/><path d="M14.61 5.866a3.185 3.185 0 00-.032-.253 2.925 2.925 0 00-.439-.3 5.67 5.67 0 00-.53-.27 9.82 9.82 0 00-.55-.237 11.07 11.07 0 00-.281-.11 11.182 11.182 0 00-.283-.105 7.243 7.243 0 01.973.239C12.573 2.487 10.433.965 8.098.965c-2.336 0-4.474 1.524-5.369 3.862a7.813 7.813 0 01.973-.238 15.542 15.542 0 00-.565.215c-.186.076-.372.152-.551.237a5.634 5.634 0 00-.528.27c-.156.09-.308.19-.439.3a1.59 1.59 0 00-.015.106c-.006.048-.01.099-.014.147a4.38 4.38 0 00.141 1.487c.027.095.057.19.09.281.018.047.037.09.058.135.01.021.019.045.03.064l.012.025c.015.006.03.015.044.021l.089.042c.05.024.118.055.175.08.004-.001.006-.006.009-.008l-.165-.63c.036-.008.348-.09.888-.194a2.883 2.883 0 01-.13-.027c-.123-.032 1.137-.207 2.226-.319A29.64 29.64 0 018.06 6.65c1.004.002 2.005.07 3 .171 1.092.112 2.65.18 2.59.205a3.121 3.121 0 01-.36.116l-.055.013c.593.11.937.198.975.209l-.159.6.095-.043.09-.042c.014-.006.029-.015.043-.02l.013-.026.032-.064.057-.135a4.253 4.253 0 00.209-.868c.025-.198.04-.399.038-.6-.005-.099-.009-.2-.017-.3z" fill="#f4edae"/><g class="st7" opacity=".75"><path class="st8" d="M10.555 4.703c.009.268.002.754-.122 1.208a.112.112 0 000 .053 17.381 17.381 0 00-.477-.045c.177-.374.217-.77.226-.912.137-.097.272-.213.373-.304z" fill="#ebd599"/></g><g class="st7" opacity=".75"><path class="st8" d="M6.013 5.007c.009.14.047.536.226.91-.158.013-.316.028-.477.045a.103.103 0 000-.051c-.124-.454-.13-.94-.122-1.208.101.09.236.207.373.304z" fill="#ebd599"/></g><path class="st1" d="M11.06 6.825a32.859 32.859 0 00-1.511-.124c-.496-.03-.992-.047-1.488-.047-.494.002-.988.017-1.48.047-.509.03-1.015.072-1.522.124-1.09.112-2.35.29-2.226.32.023.006.044.01.067.014.021.004.042.01.064.013 0 0 .48-.009 1.352-.017l.026-.002c.101-.009.202-.015.304-.021a20.927 20.927 0 01.439-.028l.192-.01c.15-.009.302-.017.451-.024l.642-.027.94-.025a37.69 37.69 0 011.263-.005h-.002.002l1.457.04c.335.015.673.03 1.009.049.093.004.183.01.274.017a16.586 16.586 0 01.342.025c.51.002 1.036.007 1.579.013l.055-.013c.12-.03-1.14-.207-2.23-.319zm3.126 5.941a.115.115 0 01-.057-.014c-.011-.007-.256-.526-.256-.526s.367.325.37.325a.114.114 0 01.042.156.113.113 0 01-.1.06z" fill="#2d3136"/><g class="st7" opacity=".75"><path class="st8" d="M5.446 4.618L3.93 5.05c-.09.59-.063 1.04-.048 1.198l.008-.005s.049-.642.15-.889c.053-.126.37-.207.61-.266.243-.057.629-.173.703.167.046.211.11.384.17.515a4.655 4.655 0 01-.077-1.15z" fill="#ebd599"/></g><g class="st7" opacity=".75"><path class="st8" d="M10.75 4.618c.012.235.018.718-.091 1.206.07-.133.145-.327.198-.568.076-.34.462-.226.703-.167.243.057.56.14.612.266.084.21.133.702.146.847.014-.188.03-.61-.053-1.15z" fill="#ebd599"/></g><g class="st7" opacity=".75"><path class="st8" d="M6 4.75c.053.041.11.084.165.122a.104.104 0 01.045.08 2.421 2.421 0 00.24.948c.55-.038 1.1-.053 1.65-.053.548 0 1.1.017 1.648.055.002-.006.004-.014.008-.02.22-.425.233-.926.233-.93 0-.032.016-.063.044-.08.053-.036.105-.076.158-.119l.007-.019c.113-1.117-.095-2.147-.23-2.656-.009.348-.091 3.33-.83 3.33H7.097c-.786 0-.85-3.362-.85-3.362l-.04.12c-.132.537-.318 1.52-.206 2.583z" fill="#ebd599"/></g><g class="st7" opacity=".75"><path class="st8" d="M3.694 6.348l-.002-.013c-.002-.017-.04-.295-.017-.735-.082.336-.232.778-.467.93.142-.066.287-.116.435-.165.017-.006.034-.013.05-.017z" fill="#ebd599"/></g><path class="st1" d="M9.819 14.766a4.79 4.79 0 01-1.486.34 3.712 3.712 0 01-1.214-.128c-.002 0-.004 0-.006.002l-.536.078a4.6 4.6 0 004.04-.406 4.982 4.982 0 01-.796.117s0-.003-.002-.003z" fill="#2d3136"/><path class="st1" d="M4.37 13.037s1.111 1.571 2.743 1.94l-.205.09-.331-.011s-1.283-.368-2.484-1.943l.014-.216zm8.659-6.487l-.002-.001a.392.392 0 01-.04-.024 3.828 3.828 0 00-.488-.177l.004-.013c.002-.017.04-.295.017-.735a5.83 5.83 0 00-.07-.644.1.1 0 00-.071-.08l-.215-.061c-.047-1.673-.735-2.459-.756-2.484.614.99.61 2.165.6 2.44l-1.34-.38h-.003c-.006-.003-.01-.003-.017-.003h-.004c-.006 0-.015 0-.021.002h-.004c-.007.002-.01.002-.017.007l-.007.002-.012.008-.002.002c-.002 0-.002.002-.002.002l-.005.002-.093.09a6.518 6.518 0 00-.008-.552l-.004-.068c-.042-.589-.182-1.415-.598-2.14.005.011.045.132.098.335.133.509.344 1.54.23 2.656 0 .005 0 .011-.002.015l-.007.004a2.565 2.565 0 01-.158.119.104.104 0 00-.044.08c0 .004-.013.505-.233.93-.004.006-.006.014-.008.02A25.225 25.225 0 006.45 5.9l-.008-.019a2.378 2.378 0 01-.232-.929.096.096 0 00-.045-.08 2.214 2.214 0 01-.164-.123c-.112-1.062.071-2.048.207-2.585.063-.255.116-.407.12-.42-.604 1.05-.623 2.317-.61 2.758a3.7 3.7 0 01-.093-.089l-.004-.002-.002-.002s-.002-.002-.005-.002L5.602 4.4l-.007-.005-.016-.006c-.003 0-.003-.002-.005-.002-.008-.002-.014-.002-.02-.002h-.007l-.017.002h-.004l-1.338.38c-.01-.274-.017-1.449.6-2.44-.022.026-.71.812-.756 2.485l-.216.06a.1.1 0 00-.072.081c-.04.239-.059.454-.07.642-.022.44.016.72.018.735l.002.013a3.838 3.838 0 00-.488.18.218.218 0 01-.04.022s-.002 0-.002.003l-.063.031c-.013.007-.023.01-.034.017a.099.099 0 01-.021.01c.1-.037.202-.067.304-.092a5.43 5.43 0 01.31-.068 12.522 12.522 0 011.258-.165c.211-.019.422-.035.633-.048.846-.05 1.693-.066 2.541-.066.849 0 1.697.015 2.541.066a21.28 21.28 0 011.265.118c.21.025.42.06.626.097.104.02.207.043.31.068a2.313 2.313 0 01.29.084l-.038-.019a.295.295 0 00-.057-.03zm-7.495-.563a12.843 12.843 0 00-1.268.209c-.127.03-.253.061-.38.095-.002-.01-.002-.025-.004-.044a5.06 5.06 0 01.048-1.198l1.516-.43c-.01.225-.017.681.08 1.15.012.066.03.13.046.195l.007.019-.045.004zm.228-.025a.103.103 0 000-.051c-.124-.454-.13-.94-.122-1.208.101.09.236.207.373.304.009.14.047.536.226.91-.16.015-.319.028-.477.045zm4.67-.051a.112.112 0 000 .053 17.381 17.381 0 00-.476-.045c.177-.374.217-.77.226-.912.137-.097.272-.213.373-.304.009.268.002.754-.122 1.208zm1.886.29l-.009.09a9.98 9.98 0 00-.38-.095c-.42-.093-.842-.16-1.268-.21-.015-.001-.03-.001-.044-.003.002-.007.006-.013.006-.02.013-.046.023-.092.034-.139.11-.486.103-.971.09-1.206l1.516.431c.086.54.07.963.055 1.151z" fill="#2d3136"/><path class="st1" d="M8.196 5.638h.711V4.68h-.304v-1.7h.2v.367h.891V2.088H6.558v1.259h.89v-.368h.201v1.698h-.302v.96h.849zm-.583-.69h.304V2.713H7.18v.368h-.356v-.725h2.602v.725h-.354v-.368h-.737v2.235h.304v.414H7.615v-.414z" fill="#2d3136"/><path class="st1" d="M2.16 7.972l-.108-.05-.089-.043c-.015-.006-.03-.015-.044-.02l-.013-.024-.03-.063c-.016-.038-.033-.077-.048-.117l-.006-.017a3.114 3.114 0 01-.091-.28 4.517 4.517 0 01-.118-.588 3.761 3.761 0 01-.038-.598c0-.044.002-.088.004-.134.002-.055.004-.11.01-.167l.015-.148.015-.106c.133-.112.283-.21.44-.302.168-.099.347-.188.527-.27.181-.085.365-.163.55-.237.093-.038.188-.074.281-.11a11.479 11.479 0 01.283-.106 7.243 7.243 0 00-.973.24C3.622 2.487 5.762.965 8.1.965c.365 0 .726.038 1.076.11 1.897.386 3.537 1.78 4.293 3.755a7.813 7.813 0 00-.971-.24 11.642 11.642 0 01.283.104c.095.036.188.072.28.11.186.076.372.152.551.237.182.082.36.17.53.27.156.09.308.19.44.302.006.034.012.07.016.106.006.048.01.099.015.147a4.38 4.38 0 01-.234 1.768 1.476 1.476 0 01-.057.135l-.032.064-.013.025c-.015.006-.03.015-.044.021l-.089.042-.095.043-.202.77.107-.405c.038-.017.078-.032.123-.05.065-.026.129-.051.194-.079l.095-.042c.034-.015.063-.03.1-.049l.033-.016.021-.034c.013-.02.019-.028.025-.042l.021-.039a.638.638 0 00.038-.076 3.344 3.344 0 00.169-.465 4.114 4.114 0 00.14-1.281 3.24 3.24 0 00-.032-.321 2.112 2.112 0 00-.063-.325l-.011-.043-.03-.023a2.82 2.82 0 00-.538-.323 6.391 6.391 0 00-.466-.194c-.44-1.219-1.195-2.3-2.187-3.054A5.727 5.727 0 008.096.682a5.732 5.732 0 00-3.488 1.19c-.992.755-1.748 1.834-2.187 3.055a5.19 5.19 0 00-.466.194 2.82 2.82 0 00-.538.323l-.03.023-.01.043a1.957 1.957 0 00-.063.325 4.03 4.03 0 00-.033.32 4.134 4.134 0 00.14 1.283 2.85 2.85 0 00.169.464l.038.076.02.039c.01.014.013.023.026.042l.021.034.034.016c.036.02.065.034.1.049l.094.042c.017.007.034.015.053.021l.247-.22a2.116 2.116 0 00-.064-.029z" fill="#2d3136"/><path class="st2" fill="#cb3349" d="M9.426 3.08h-.354v-.367h-.737v2.235h.302v.414H7.613v-.414h.304V2.713H7.18v.368h-.356v-.725h2.602z"/><path class="st1" d="M10.617 14.652s1.43-.908 2.017-2.306l-.177-.065-.14.128s-1.031 1.732-2.496 2.357l-.02.1zM9.101 11.22s-.338.315-.884.385c-.545.07-.973-.264-.973-.264.019.057.044.188.164.3h-.002.005c.023.03.265.23.75.23.368 0 .645-.213.691-.245l.01-.002h-.001a.55.55 0 00.24-.404z" fill="#2d3136"/><path d="M10.84 11.366c-1.555 0-2.226-1.149-2.41-1.91a1.1 1.1 0 00-.277-.05c-.076 0-.181.023-.276.05-.184.761-.855 1.91-2.41 1.91-2.05 0-3.415-.657-3.415-3.86v-.182L2.2 7.22c.07-.048 1.705-1.144 5.179.152.16-.059.435-.135.774-.122.34-.013.615.063.775.122 3.472-1.296 5.11-.2 5.18-.152l.147.104v.181c0 3.204-1.365 3.861-3.415 3.861zM8.153 8.713c.328 0 .724.17.729.17l.166.08.026.183c.008.062.236 1.527 1.766 1.527.999 0 1.596-.16 1.997-.538.464-.437.7-1.231.726-2.425a3.236 3.236 0 00-.963-.247c-.698-.08-1.884-.04-3.556.604l-.148.057-.137-.074c-.015-.006-.253-.124-.589-.11h-.029c-.344-.014-.587.11-.591.11l-.14.076-.145-.059c-1.672-.644-2.856-.684-3.556-.604-.471.055-.79.17-.963.247.023 1.194.262 1.988.726 2.425.401.378.999.538 1.997.538 1.543 0 1.758-1.463 1.766-1.527l.026-.183.166-.08c0-.003.4-.17.726-.17z" fill="#656d68"/><path class="st1" d="M14.502 13.497c.076-.338.057-.403.023-.49-.076-.194-.162-.232-.17-.236a.113.113 0 00-.161.025.115.115 0 00.023.16c.007.005.082.053.167.17.038.052.065.124.118.371z" fill="#2d3136"/><circle class="st10" cx="248.9" cy="397" r="10.9" fill="#fff" transform="matrix(.0211 0 0 .02112 .46 .445)"/><circle class="st10" cx="481.7" cy="397" r="10.9" fill="#fff" transform="matrix(.0211 0 0 .02112 .46 .445)"/><path class="st1" d="M10.84 11.48c-1.469 0-2.252-.986-2.505-1.932a.83.83 0 00-.182-.03.83.83 0 00-.181.03c-.253.946-1.036 1.932-2.505 1.932-1.212 0-1.999-.234-2.556-.76-.654-.619-.973-1.67-.973-3.217v-.272l.247-.135c.204-.123.662-.345 1.42-.433 1.104-.131 2.375.067 3.776.587a2.16 2.16 0 01.772-.116c.328-.01.596.052.773.116 1.401-.52 2.672-.718 3.776-.587.757.088 1.215.31 1.42.433l.009.004.238.13v.273c0 1.544-.319 2.596-.975 3.217-.555.526-1.344.76-2.554.76zM8.153 9.29c.095 0 .22.03.309.057l.063.02.015.065c.074.304.53 1.822 2.298 1.822 1.148 0 1.887-.215 2.398-.697.608-.574.903-1.571.903-3.047v-.138l-.12-.065c-.002-.002-.009-.004-.015-.009-.291-.175-1.904-.986-5.036.188l-.04.015-.04-.015a1.921 1.921 0 00-.73-.116h-.009a1.913 1.913 0 00-.73.116l-.04.015-.04-.015c-1.383-.517-2.63-.716-3.706-.589-.741.089-1.178.31-1.33.401-.006.005-.013.007-.015.009l-.12.065v.138c0 1.476.295 2.475.903 3.047.511.482 1.25.697 2.398.697 1.768 0 2.224-1.518 2.298-1.822l.015-.066.063-.019c.089-.027.214-.057.308-.057zm2.687 1.5c-1.627 0-1.872-1.56-1.88-1.627l-.017-.122-.11-.055s-.376-.158-.677-.158c-.304 0-.68.158-.682.16l-.106.053-.017.122c-.008.066-.238 1.627-1.88 1.627-1.03 0-1.65-.172-2.075-.57-.483-.457-.732-1.268-.762-2.478l-.002-.087.083-.025c.023-.006.046-.015.073-.023.558-.18 1.864-.602 4.346.355l.106.042a2.73 2.73 0 01.903-.178c.4 0 .8.131.929.178l.107-.042c2.484-.96 3.789-.537 4.346-.355.027.008.05.017.074.023l.082.025-.002.087c-.027 1.21-.277 2.021-.762 2.477-.426.4-1.047.57-2.077.57zM8.153 8.597c.361 0 .775.18.78.182l.22.108.035.245c.008.057.221 1.427 1.652 1.427.967 0 1.539-.152 1.917-.507.426-.4.65-1.132.686-2.228-.539-.173-1.788-.57-4.186.353l-.19.074-.042-.017a2.8 2.8 0 00-.886-.177 2.54 2.54 0 00-.86.177l-.044.02-.19-.077c-2.393-.923-3.645-.526-4.183-.353.036 1.096.262 1.827.686 2.228.378.357.952.507 1.917.507 1.443 0 1.644-1.368 1.652-1.427l.034-.245.222-.108c.006-.002.42-.182.78-.182z" fill="#2d3136"/><path class="st1" d="M11.33 8.395c-.002.01-.055.19-.331.177.014.027.023-.057-.127-.146.192.015.331.034.458-.031z" fill="#2d3136"/><path class="st1" d="M11.41 8.502c-.002.01-.055.19-.331.178.015.027.023-.057-.127-.146.192.015.331.036.458-.032z" fill="#2d3136"/><path class="st1" d="M11.471 8.635c-.002.01-.055.19-.331.178.015.027.023-.057-.127-.146.192.017.332.036.458-.032z" fill="#2d3136"/><path class="st1" d="M10.598 9.765l.071.009c.33.03.465-.138.465-.138a.633.633 0 00.088-.302c.042-.496-.18-.933-.494-.973-.314-.04-.582.333-.645.83-.062.494.2.534.515.574zm-.133-.959a.162.162 0 11.32.047.162.162 0 01-.32-.047zm-5.456-.422c.002.01.05.192.329.182-.015.027-.021-.057.129-.144-.192.015-.334.032-.458-.038z" fill="#2d3136"/><path class="st1" d="M4.926 8.492c.003.01.051.192.33.181-.015.028-.021-.057.128-.143-.192.012-.333.031-.458-.038z" fill="#2d3136"/><path class="st1" d="M4.863 8.625c.002.01.05.192.33.181-.015.028-.022-.057.128-.143-.194.012-.333.031-.458-.038z" fill="#2d3136"/><path class="st1" d="M6.241 9.201c-.055-.496-.316-.874-.63-.838-.315.036-.545.469-.51.967a.61.61 0 00.085.302s.133.17.462.144c.023-.002.047-.004.072-.009.314-.036.578-.07.521-.566zm-.513-.209a.162.162 0 11-.042-.32.162.162 0 01.042.32z" fill="#2d3136"/><path d="M9.327 13.132s-.395-.104-.517-.104c-.123 0-.671.152-.671.152l-.671-.268-.518.218.648.228h.427l.118.057s.367-.028.542-.057c.176-.03.648-.228.648-.228l.41-.23" fill="#414042"/><path class="st10" d="M8.08 13.18s0 .078.057.078.705-.004 1.135-.126l-.344-.205-.836.023z" fill="#fff"/><path class="st10" d="M8.177 13.18s0 .078-.057.078-.705-.004-1.136-.126l.344-.205.836.023z" fill="#fff"/><path d="M9.852 12.842c-.002-.002-.004 0-.004 0s-.331.155-.506-.02c-.175-.176-.452-.347-.671-.347-.186 0-.446.156-.518.203-.084-.047-.386-.203-.571-.203-.218 0-.496.173-.672.346-.175.176-.506.021-.506.021H6.4c-.003.003 0 .003 0 .003l.584.623s.291.327.46.418c.17.09.558.158.67.158h.02c.112 0 .5-.067.67-.158.168-.091.46-.418.46-.418l.584-.623c.004.002.007 0 .004-.003zm-.523.29s-.473.198-.648.228c-.175.03-.549.057-.549.057s-.382-.028-.557-.057c-.175-.03-.648-.228-.648-.228h-.002.004s.395-.104.517-.104c.123 0 .672.152.672.152h.014c.002 0 .55-.152.672-.152s.517.104.517.104z" fill="#b28c7f"/><path class="st1" d="M8.132 13.474h-.004c-.015-.002-.386-.028-.563-.06-.18-.03-.642-.223-.661-.232l-.006-.002-.283-.154.31.047c.074-.02.403-.102.521-.102.112 0 .606.08.68.095a7.65 7.65 0 01.68-.095c.118 0 .445.083.521.102l.306-.047-.283.159c-.019.008-.481.2-.66.232-.176.03-.539.057-.553.059zm-1.015-.33c.15.06.367.14.469.159.16.027.504.053.546.057a7.65 7.65 0 00.539-.057c.103-.017.318-.097.468-.159a2.096 2.096 0 00-.331-.059c-.11 0-.62.087-.66.093l-.02.002a.114.114 0 01-.017-.002h-.006a8.53 8.53 0 00-.659-.093c-.059 0-.204.03-.329.06z" fill="#2d3136"/><path class="st2" fill="#cb3349" d="M13.763 12.997l.76-.19-.023-.18-.79.18z"/><path class="st1" d="M14.5 12.627l.023.18-.76.19-.052-.19.789-.18m0-.116c-.008 0-.017 0-.025.002l-.79.18a.111.111 0 00-.074.052.114.114 0 00-.012.091l.053.19c.014.05.06.085.111.085a.123.123 0 00.028-.005l.76-.19a.116.116 0 00.086-.126l-.023-.18a.116.116 0 00-.049-.08.139.139 0 00-.065-.02z" fill="#2d3136"/><g class="st7" opacity=".75"><path class="st8" d="M12.508 6.348l.002-.013c.002-.017.04-.295.017-.735.082.336.232.778.466.93a3.997 3.997 0 00-.485-.182z" fill="#ebd599"/></g><path class="st1" d="M9.812 12.764c-.002.002-.278.125-.407-.004-.186-.186-.483-.372-.732-.372-.18 0-.401.117-.522.19-.137-.071-.39-.19-.567-.19-.25 0-.547.188-.733.372-.128.127-.405.004-.41.002 0 0-.174-.063-.174-.04s.656.803.656.803c.013.014.304.34.483.437.188.101.596.169.71.169h.021c.114 0 .523-.068.71-.17.18-.096.472-.422.482-.434 0 0 .654-.786.654-.805.005-.021-.17.042-.17.042zm-.607.647c-.079.088-.31.331-.437.399-.152.082-.528.148-.627.148H8.12c-.1 0-.475-.066-.627-.148-.127-.07-.359-.313-.44-.402l-.392-.418a.409.409 0 00.315-.107c.16-.161.42-.321.61-.321.13 0 .36.099.53.192l.044.025.042-.027c.144-.091.342-.19.47-.19.189 0 .45.162.61.32a.405.405 0 00.315.108z" fill="#2d3136"/><path d="M1.687 14.87a3.806 3.806 0 00-.216-.585c-.095-.21-.182-.458-.193-.553a.898.898 0 01.2-.69c.11-.122.124-.129.1-.048-.036.114-.022.414.02.457.018.017.05-.042.073-.131a.588.588 0 01.127-.242c.077-.073.102-.077.253-.041.315.074.433.321.398.832-.024.347-.13.66-.3.882-.108.14-.332.325-.395.325-.013 0-.043-.093-.067-.206zm.287-2.311c-.065-.016-.271-.335-.337-.524-.064-.183-.014-.399.19-.826.101-.212.176-.394.166-.404-.01-.01-.069.031-.131.09-.134.129-.16.106-.224-.198a1.08 1.08 0 01.095-.676c.047-.091.048-.127.005-.249a2.25 2.25 0 01-.074-.276c-.025-.133-.023-.135.152-.205l.213-.085c.02-.008-.001.032-.046.089-.068.085-.082.151-.082.38 0 .541.287 1.62.487 1.834.083.089.133.11.266.11h.163l-.022.269c-.013.148-.05.322-.084.386-.086.164-.362.386-.362.291 0-.01.025-.08.056-.153.084-.2.068-.225-.065-.103-.233.211-.309.263-.366.25zm12.331 2.447c-.363-.225-.58-.713-.578-1.298.001-.253.083-.506.19-.587a.782.782 0 01.191-.08c.131-.037.146-.033.229.065.049.058.1.166.114.24.014.073.039.125.056.114.05-.03.074-.32.036-.42-.047-.125-.018-.144.1-.067.145.096.252.367.255.653.003.214-.019.29-.194.683-.108.243-.207.514-.22.604-.012.09-.032.162-.045.162a.613.613 0 01-.134-.07zm-.562-2.453c-.166-.101-.309-.286-.337-.437a1.55 1.55 0 01.045-.567c.023-.08.019-.084-.056-.045-.082.044-.154.027-.154-.036 0-.02.099-.035.219-.035.334 0 .433-.05.522-.257.253-.585.433-1.808.302-2.051-.056-.106-.005-.339.071-.324.165.032.223.561.104.937-.038.123-.046.204-.022.248.097.182.143.483.105.696-.055.316-.081.343-.21.22a.5.5 0 00-.13-.101c-.014 0 .047.154.135.343.229.493.264.658.194.897a1.53 1.53 0 01-.162.348l-.106.156-.198-.173c-.17-.148-.195-.16-.17-.082.015.05.05.136.079.19a.6.6 0 01.05.122c0 .046-.175.015-.28-.05zM1.416 9.157a4.5 4.5 0 01.204-.324c.112-.17.223-.368.247-.44.058-.176.094-.104.128.255l.026.283-.256.103-.302.12c-.026.01-.047.012-.047.003zm1.492-.86c0-.07-.01-.2-.022-.29l-.023-.164.2-.062c.195-.06.495-.118.797-.155l.149-.018-.187.167c-.213.19-.835.647-.882.647-.017 0-.032-.057-.032-.125zm1.265-.077c.1-.153.212-.354.25-.45l.07-.171.187.02c.103.01.283.03.401.044l.214.024-.14.112c-.283.229-1.052.697-1.144.697-.01 0 .062-.124.162-.277zm10.318.35c-.082-.039-.147-.088-.145-.11l.009-.169c.003-.071.02-.13.036-.13.017 0 .1.11.185.242.164.256.153.277-.085.166zm-1.315-.695c-.108-.074-.19-.14-.182-.149a.788.788 0 01.225.045c.18.053.209.074.209.151 0 .116-.016.113-.252-.047zm-6.071-.737l-.224-.087.261-.003a31.8 31.8 0 00.802-.023c.496-.019.533-.016.448.036a.767.767 0 01-.317.06 2.38 2.38 0 00-.373.034c-.335.072-.374.07-.597-.017z" fill="#c73249" stroke-width=".037"/></svg>