<svg xmlns="http://www.w3.org/2000/svg" viewBox="0 0 512 512" height="16" width="16"><path fill="#ff9800" d="M470.688 451.991L413.33 336.958c-2.438-4.864-7.396-7.939-12.814-7.939h-286.79c-5.42 0-10.377 3.075-12.815 7.939L43.547 451.99c-2.236 4.46-1.974 9.752.634 13.98 2.611 4.228 7.228 6.846 12.19 6.846h401.502c4.962 0 9.576-2.59 12.218-6.816 2.605-4.259 2.808-9.52.597-14.01zm0 0" stroke-width=".962"/><path fill="#fcfcfc" d="M371.833 343.4c0 41.985-102.953 43.138-114.711 43.138-11.76 0-114.716-1.153-114.716-43.138 0-1.151.29-2.588.577-3.738l19.787-72.764c14.049 10.933 51.046 18.982 94.352 18.982 43.307 0 80.302-8.049 94.352-18.982l19.786 72.764c.289 1.15.573 2.587.573 3.738zm-41.296-152.999c-18.065 5.746-44.45 9.199-73.415 9.199-28.966 0-55.35-3.454-73.416-9.199l22.08-81.106c14.91 2.587 32.694 4.026 51.336 4.026 18.641 0 36.422-1.438 51.334-4.026zm0 0" stroke-width=".962"/><path fill="#ff9800" d="M257.122 113.321c-18.642 0-36.425-1.438-51.335-4.026l10.037-36.526c5.449-19.262 21.797-31.343 41.297-31.343 19.499 0 35.846 12.08 41.294 31.06l10.04 36.809c-14.91 2.588-32.692 4.026-51.333 4.026zm94.35 153.577c-14.049 10.933-51.045 18.982-94.35 18.982-43.306 0-80.303-8.049-94.352-18.982l20.935-76.497c18.066 5.746 44.45 9.199 73.416 9.199 28.965 0 55.35-3.454 73.415-9.199zm0 0" stroke-width=".962"/></svg>