<!--Copyright 2000-2021 JetBrains s.r.o. and contributors. Use of this source code is governed by the Apache 2.0 license that can be found in the LICENSE file.--><svg xmlns="http://www.w3.org/2000/svg" width="16" height="16" viewBox="0 0 16 16"><g fill="none" fill-rule="evenodd"><path fill="#9AA7B0" fill-opacity=".8" d="M8 15A7 7 0 1 1 8 1a7 7 0 0 1 0 14Zm0-1A6 6 0 1 0 8 2a6 6 0 0 0 0 12Z"/><path fill="#7F8B91" fill-opacity=".9" d="M7.5 12h1.333v-1.333H7.5V12Zm.667-8A2.666 2.666 0 0 0 5.5 6.667h1.333c0-.734.6-1.334 1.334-1.334.733 0 1.333.6 1.333 1.334C9.5 8 7.5 7.833 7.5 10h1.333c0-1.5 2-1.667 2-3.333A2.666 2.666 0 0 0 8.167 4Z"/></g></svg>