<!--Copyright 2000-2021 JetBrains s.r.o. and contributors. Use of this source code is governed by the Apache 2.0 license that can be found in the LICENSE file.--><svg xmlns="http://www.w3.org/2000/svg" width="12" height="12" viewBox="0 0 12 12"><g fill="#6E6E6E" fill-rule="evenodd"><path d="M3 0h6a3 3 0 0 1 3 3v6a3 3 0 0 1-3 3H3a3 3 0 0 1-3-3V3a3 3 0 0 1 3-3Zm0 1a2 2 0 0 0-2 2v6a2 2 0 0 0 2 2h6a2 2 0 0 0 2-2V3a2 2 0 0 0-2-2H3Z"/><rect width="1.714" height="4.571" x="3.479" y="4.907" rx=".7" transform="rotate(-39 4.337 7.193)"/><rect width="1.714" height="7.771" x="6.024" y="1.854" rx=".7" transform="rotate(32.4 6.881 5.74)"/></g></svg>