<?xml version="1.0" ?><svg id="cocktails" style="enable-background:new 0 0 128 128;" version="1.1" viewBox="0 0 128 128" xml:space="preserve" xmlns="http://www.w3.org/2000/svg" xmlns:xlink="http://www.w3.org/1999/xlink"><style type="text/css">
	.st0{fill:#FC8BA4;}
	.st1{fill:#663210;}
	.st2{fill:#FBD000;}
	.st3{fill:#D4D6D6;}
	.st4{fill:#75B600;}
	.st5{fill:#5C8E0D;}
	.st6{fill:#FFFFFF;}
</style><g><circle class="st0" cx="64" cy="64" r="64"/><path class="st1" d="M117.7,105H102c-0.6,0-1-0.4-1-1s0.4-1,1-1h15.7c0.6,0,1,0.4,1,1S118.3,105,117.7,105z"/><path class="st1" d="M93,105H7.8c-0.6,0-1-0.4-1-1s0.4-1,1-1H93c0.6,0,1,0.4,1,1S93.6,105,93,105z"/><circle class="st2" cx="86" cy="41.3" r="13.7"/><path class="st3" d="M79.6,100.3c-0.2,2.2-2.2,4-4.4,4h-24c-2.2,0-4.2-1.8-4.4-4l-5.3-58.4c-0.2-2.2,1.4-4,3.6-4h36   c2.2,0,3.8,1.8,3.6,4L79.6,100.3z"/><path class="st4" d="M43,57l3.9,43.3c0.2,2.2,2.2,4,4.4,4h24c2.2,0,4.2-1.8,4.4-4L83.4,57H43z"/><path class="st5" d="M75.9,97H50.5c-1.9,0-3.6-1.6-4.3-3.3l0.6,6.6c0.2,2.2,2.2,4,4.4,4h24c2.2,0,4.2-1.8,4.4-4l0.6-6.6   C79.5,95.4,77.8,97,75.9,97z"/><path class="st3" d="M64,95.7c0.4,1-0.2,2.2-1.2,2.6l-7.5,2.7c-1,0.4-2.2-0.2-2.6-1.2L50,92.2c-0.4-1,0.2-2.2,1.2-2.6l7.5-2.7   c1-0.4,2.2,0.2,2.6,1.2L64,95.7z"/><path class="st3" d="M71.1,91.8c-0.8,0.7-2.1,0.6-2.8-0.3l-5.1-6.1c-0.7-0.8-0.6-2.1,0.3-2.8l6.1-5.1c0.8-0.7,2.1-0.6,2.8,0.3   l5.1,6.1c0.7,0.8,0.6,2.1-0.3,2.8L71.1,91.8z"/><path class="st1" d="M61.7,101.9c-0.9,0-1.7-0.6-1.9-1.5L38.3,23.1l-23-8.3c-1-0.4-1.6-1.5-1.2-2.6c0.4-1,1.5-1.6,2.6-1.2l24,8.7   c0.6,0.2,1.1,0.7,1.2,1.3l21.7,78.3c0.3,1.1-0.3,2.2-1.4,2.5C62,101.9,61.8,101.9,61.7,101.9z"/><path class="st1" d="M75,105H51c-2.7,0-5.1-2.2-5.3-4.9L40.6,42c-0.1-1.3,0.3-2.6,1.2-3.6c0.9-1,2.1-1.4,3.5-1.4h36   c1.3,0,2.6,0.5,3.5,1.4c0.9,1,1.3,2.2,1.2,3.6l-5.5,58.1C80.1,102.8,77.7,105,75,105z M45.2,38.9c-0.8,0-1.5,0.3-2,0.8   c-0.5,0.5-0.7,1.3-0.7,2.1l5.1,58.1c0.1,1.7,1.7,3.1,3.4,3.1h24c1.7,0,3.2-1.4,3.4-3.1l5.5-58.1c0.1-0.8-0.2-1.5-0.7-2   c-0.5-0.5-1.2-0.8-2-0.8H45.2z"/><path class="st3" d="M54.4,81.7c-1,0.4-2.2,0-2.6-1l-3.2-7.3c-0.4-1,0-2.2,1-2.6l7.3-3.2c1-0.4,2.2,0,2.6,1l3.2,7.3   c0.4,1,0,2.2-1,2.6L54.4,81.7z"/><path class="st1" d="M86.2,56c-2.9,0-5.7-0.8-8.1-2.4c-0.5-0.3-0.6-0.9-0.3-1.4c0.3-0.5,0.9-0.6,1.4-0.3c2.1,1.4,4.5,2.1,7,2.1   C93.2,54,99,48.1,99,41c0-7.1-5.7-13-12.8-13c-7.1,0-12.8,5.8-12.8,13c0,0.6-0.5,1-1,1s-1-0.5-1-1c0-8.3,6.7-15,14.8-15   c8.2,0,14.8,6.7,14.8,15C101,49.3,94.3,56,86.2,56z"/><path class="st6" d="M90.2,50.9c-0.4,0-0.8-0.2-0.9-0.6c-0.2-0.5,0-1.1,0.5-1.3c3.1-1.4,5.2-4.4,5.2-7.7c0-4.6-3.9-8.4-8.8-8.4   c-1.6,0-3.1,0.4-4.5,1.2c-0.5,0.3-1.1,0.1-1.4-0.3c-0.3-0.5-0.1-1.1,0.4-1.4c1.7-1,3.6-1.5,5.5-1.5c6,0,10.8,4.7,10.8,10.4   c0,4.1-2.5,7.8-6.4,9.5C90.5,50.9,90.3,50.9,90.2,50.9z"/><path class="st6" d="M77,77.7C77,77.7,76.9,77.7,77,77.7c-0.6,0-1-0.5-1-1.1l1.3-16c0-0.5,0.5-1,1.1-0.9c0.6,0,1,0.5,0.9,1.1   l-1.3,16C78,77.3,77.5,77.7,77,77.7z"/><path class="st6" d="M68,43H51c-0.6,0-1-0.4-1-1s0.4-1,1-1h17c0.6,0,1,0.4,1,1S68.6,43,68,43z"/><path class="st6" d="M103,73c-2.2,0-4-1.8-4-4c0-2.2,1.8-4,4-4c2.2,0,4,1.8,4,4C107,71.2,105.2,73,103,73z M103,66.9   c-1.2,0-2.1,1-2.1,2.1c0,1.2,1,2.1,2.1,2.1c1.2,0,2.1-1,2.1-2.1C105.1,67.8,104.2,66.9,103,66.9z"/><path class="st6" d="M21,55c-2.2,0-4-1.8-4-4c0-2.2,1.8-4,4-4c2.2,0,4,1.8,4,4C25,53.2,23.2,55,21,55z M21,49c-1.2,0-2,0.8-2,2   c0,1.2,0.8,2,2,2c1.2,0,2-0.8,2-2C23,49.8,22.2,49,21,49z"/><path class="st6" d="M69.3,19.3c0-0.4-0.4-0.8-1-0.9l-1.9-0.3c-0.5-0.1-1.1-0.6-1.1-1.1l-0.3-1.9c-0.1-0.5-0.5-1-0.9-1   c-0.4,0-0.8,0.4-0.9,1L63.1,17c-0.1,0.5-0.6,1.1-1.1,1.1l-1.9,0.3c-0.5,0.1-1,0.5-1,0.9c0,0.4,0.4,0.8,1,0.9l1.9,0.3   c0.5,0.1,1.1,0.6,1.1,1.1l0.3,1.9c0.1,0.5,0.5,1,0.9,1c0.4,0,0.8-0.4,0.8-1l0.3-2.1c0.1-0.5,0.6-1,1.1-1.1l1.8-0.1   C68.9,20,69.3,19.7,69.3,19.3z"/><path class="st6" d="M32.3,75.8c0-0.4-0.4-0.8-1-0.9l-1.9-0.3c-0.5-0.1-1.1-0.6-1.1-1.1l-0.3-1.9c-0.1-0.5-0.5-1-0.9-1   c-0.4,0-0.8,0.4-0.9,1l-0.3,1.9c-0.1,0.5-0.6,1.1-1.1,1.1l-1.9,0.3c-0.5,0.1-1,0.5-1,0.9c0,0.4,0.4,0.8,1,0.9l1.9,0.3   c0.5,0.1,1.1,0.6,1.1,1.1l0.3,1.9c0.1,0.5,0.5,1,0.9,1c0.4,0,0.8-0.4,0.8-1l0.3-2.1c0.1-0.5,0.6-1,1.1-1.1l1.8-0.1   C31.9,76.5,32.3,76.2,32.3,75.8z"/><path class="st6" d="M101.8,90.3c0-0.4-0.4-0.8-1-0.9L99,89.2c-0.5-0.1-1.1-0.6-1.1-1.1l-0.3-1.9c-0.1-0.5-0.5-1-0.9-1   c-0.4,0-0.8,0.4-0.9,1L95.6,88c-0.1,0.5-0.6,1.1-1.1,1.1l-1.9,0.3c-0.5,0.1-1,0.5-1,0.9c0,0.4,0.4,0.8,1,0.9l1.9,0.3   c0.5,0.1,1.1,0.6,1.1,1.1l0.3,1.9c0.1,0.5,0.5,1,0.9,1c0.4,0,0.8-0.4,0.8-1l0.3-2.1c0.1-0.5,0.6-1,1.1-1.1l1.8-0.1   C101.4,91,101.8,90.7,101.8,90.3z"/><path class="st6" d="M117.3,49.8c0-0.4-0.4-0.8-1-0.9l-1.9-0.3c-0.5-0.1-1.1-0.6-1.1-1.1l-0.3-1.9c-0.1-0.5-0.5-1-0.9-1   c-0.4,0-0.8,0.4-0.9,1l-0.3,1.9c-0.1,0.5-0.6,1.1-1.1,1.1l-1.9,0.3c-0.5,0.1-1,0.5-1,0.9c0,0.4,0.4,0.8,1,0.9l1.9,0.3   c0.5,0.1,1.1,0.6,1.1,1.1l0.3,1.9c0.1,0.5,0.5,1,0.9,1c0.4,0,0.8-0.4,0.8-1l0.3-2.1c0.1-0.5,0.6-1,1.1-1.1l1.8-0.1   C116.9,50.5,117.3,50.2,117.3,49.8z"/><path class="st6" d="M51,119c-2.2,0-4-1.8-4-4c0-2.2,1.8-4,4-4c2.2,0,4,1.8,4,4C55,117.2,53.2,119,51,119z M51,112.9   c-1.2,0-2.1,1-2.1,2.1c0,1.2,1,2.1,2.1,2.1c1.2,0,2.1-1,2.1-2.1C53.1,113.8,52.2,112.9,51,112.9z"/></g></svg>