<?xml version="1.0" encoding="UTF-8" standalone="no"?>
<svg
   xmlns:dc="http://purl.org/dc/elements/1.1/"
   xmlns:cc="http://creativecommons.org/ns#"
   xmlns:rdf="http://www.w3.org/1999/02/22-rdf-syntax-ns#"
   xmlns:svg="http://www.w3.org/2000/svg"
   xmlns="http://www.w3.org/2000/svg"
   xmlns:sodipodi="http://sodipodi.sourceforge.net/DTD/sodipodi-0.dtd"
   xmlns:inkscape="http://www.inkscape.org/namespaces/inkscape"
   width="16"
   height="16"
   viewBox="0 0 16 16"
   fill="none"
   version="1.1"
   id="svg16"
   sodipodi:docname="pluginIcon.svg"
   inkscape:version="0.92.4 (5da689c313, 2019-01-14)">
  <metadata
     id="metadata22">
    <rdf:RDF>
      <cc:Work
         rdf:about="">
        <dc:format>image/svg+xml</dc:format>
        <dc:type
           rdf:resource="http://purl.org/dc/dcmitype/StillImage" />
      </cc:Work>
    </rdf:RDF>
  </metadata>
  <defs
     id="defs20">
    <linearGradient
       x1="7.7583556"
       y1="13.697368"
       x2="120.53718"
       y2="109.82117"
       id="a"
       gradientTransform="matrix(0.0865088,0,0,0.07333898,0.25921833,1.413917)"
       gradientUnits="userSpaceOnUse">
      <stop
         stop-color="#aeb9c0"
         offset="0%"
         id="stop2" />
      <stop
         stop-color="#aeb9c0"
         offset="100%"
         id="stop4" />
    </linearGradient>
    <linearGradient
       x1="38.732098"
       y1="281.5174"
       x2="190.55971"
       y2="141.66052"
       id="b"
       gradientTransform="matrix(0.07832316,0,0,0.04881811,0.2661617,1.4148058)"
       gradientUnits="userSpaceOnUse">
      <stop
         stop-color="#aeb9c0"
         offset="0%"
         id="stop7" />
      <stop
         stop-color="#aeb9c0"
         offset="100%"
         id="stop9" />
    </linearGradient>
    <linearGradient
       x1="65.594452"
       y1="177.89853"
       x2="148.76366"
       y2="86.018059"
       id="c"
       gradientTransform="matrix(0.0517933,0,0,0.07382402,0.2661617,1.4148058)"
       gradientUnits="userSpaceOnUse">
      <stop
         stop-color="#aeb9c0"
         offset="0%"
         id="stop12" />
      <stop
         stop-color="#aeb9c0"
         offset="100%"
         id="stop14" />
    </linearGradient>
  </defs>
  <sodipodi:namedview
     pagecolor="#ffffff"
     bordercolor="#666666"
     borderopacity="1"
     objecttolerance="10"
     gridtolerance="10"
     guidetolerance="10"
     inkscape:pageopacity="0"
     inkscape:pageshadow="2"
     inkscape:window-width="1920"
     inkscape:window-height="1001"
     id="namedview18"
     showgrid="false"
     inkscape:zoom="25.679692"
     inkscape:cx="1.4968067"
     inkscape:cy="12.463701"
     inkscape:window-x="-9"
     inkscape:window-y="-9"
     inkscape:window-maximized="1"
     inkscape:current-layer="svg16" />
  <path
     d="M 11.447987,9.9410566 2.8377618,1.8612984 a 1.5113325,1.6308286 0 1 0 -1.7613812,2.618096 l 9.6846434,6.4876526 0.04394,0.02961 A 0.58533796,0.63161868 0 1 0 11.44799,9.9410462 Z"
     id="path19"
     style="fill:url(#a);stroke-width:0.07965215"
     inkscape:connector-curvature="0" />
  <path
     d="M 15.518626,9.0239769 A 1.6624524,1.7877529 0 0 0 12.995014,7.5670993 l -9.4021584,5.7550497 -0.015981,0.0093 a 0.84339051,0.90695759 0 1 0 0.65711,1.670513 l 10.2439394,-4.251108 0.02564,-0.01148 a 1.6624524,1.7877529 0 0 0 1.014939,-1.7153577 z"
     id="path21"
     style="fill:url(#b);stroke-width:0.06183517"
     inkscape:connector-curvature="0" />
  <path
     d="M 7.9467156,8.7562628 A 0.45514703,0.48945188 0 0 0 7.1742837,8.2438548 l -3.9691946,5.4160952 -0.00853,0.0184 a 0.8429731,0.90650872 0 1 0 1.4605494,0.898429 L 7.9189288,8.8045475 c 0.010114,-0.015518 0.019435,-0.031614 0.027787,-0.048285 z"
     id="path23"
     style="fill:url(#c);stroke-width:0.06183517"
     inkscape:connector-curvature="0" />
  <path
     style="fill:#aeb9c0;fill-opacity:1;stroke-width:0.02712575"
     d=""
     id="path24"
     inkscape:connector-curvature="0" />
  <text
     xml:space="preserve"
     style="font-style:normal;font-weight:normal;font-size:12.69506454px;line-height:1.25;font-family:sans-serif;letter-spacing:0px;word-spacing:0px;fill:#000000;fill-opacity:1;stroke:none;stroke-width:1.05792201"
     x="4.3279963"
     y="8.1228876"
     id="text26"
     transform="scale(0.98557095,1.0146403)"><tspan
       sodipodi:role="line"
       id="tspan24"
       x="4.3279963"
       y="19.704979"
       style="stroke-width:1.05792201" /></text>
  <text
     xml:space="preserve"
     style="font-style:normal;font-weight:normal;font-size:12.69506454px;line-height:1.25;font-family:sans-serif;letter-spacing:0px;word-spacing:0px;fill:#000000;fill-opacity:1;stroke:none;stroke-width:1.05792201"
     x="5.007998"
     y="8.1228876"
     id="text34"
     transform="scale(0.98557095,1.0146403)"><tspan
       sodipodi:role="line"
       id="tspan32"
       x="5.007998"
       y="19.704979"
       style="stroke-width:1.05792201" /></text>
  <text
     xml:space="preserve"
     style="font-style:normal;font-weight:normal;font-size:12.69506454px;line-height:1.25;font-family:sans-serif;letter-spacing:0px;word-spacing:0px;fill:#000000;fill-opacity:1;stroke:none;stroke-width:1.05792201"
     x="1.4290417"
     y="12.059738"
     id="text38"
     transform="scale(0.98557095,1.0146403)"><tspan
       sodipodi:role="line"
       id="tspan36"
       x="1.4290417"
       y="23.64183"
       style="stroke-width:1.05792201" /></text>
  <path
     style="fill:none;fill-opacity:1;stroke-width:0.03578957"
     d="m 5.2661183,11.783036 c -0.476003,-0.102695 -0.859599,-0.45475 -1.075527,-0.98709 l -0.054712,-0.134888 0.3615004,-0.279375 c 0.1988252,-0.153657 0.3800276,-0.294014 0.4026721,-0.311906 0.0287,-0.02268 0.081521,0.04652 0.1743691,0.228422 0.1514747,0.296758 0.2882188,0.411132 0.453373,0.379203 0.1392831,-0.02693 0.2934168,-0.184397 0.3363975,-0.343678 0.020974,-0.07773 0.034931,-0.9136802 0.03505,-2.0991712 l 1.966e-4,-1.9700092 h 0.5480273 0.5480273 l -0.010114,2.2060472 -0.010114,2.2060472 -0.081737,0.198186 C 6.660145,11.440703 6.2342405,11.760398 5.6604545,11.8004 5.5299896,11.8095 5.3525365,11.8017 5.2661143,11.78303 Z"
     id="path44"
     inkscape:connector-curvature="0" />
  <path
     style="fill:none;fill-opacity:1;stroke-width:0.03578957"
     d="M 8.1216454,9.0023079 V 6.2550542 l 1.014104,0.025883 c 0.557756,0.014237 1.0836586,0.041436 1.1686706,0.060444 0.39112,0.08745 0.717565,0.3492051 0.893159,0.7161647 0.07027,0.14686 0.08101,0.2246718 0.08101,0.586912 0,0.4778086 -0.0215,0.5398839 -0.303995,0.8777361 -0.09471,0.1132647 -0.172193,0.2151612 -0.172193,0.2264368 0,0.011275 0.0957,0.070239 0.212682,0.1310296 0.297803,0.1547642 0.473423,0.3313988 0.607077,0.6105849 0.105653,0.220696 0.115942,0.273444 0.126847,0.6503407 0.01136,0.392375 0.0073,0.420264 -0.09398,0.643041 -0.134972,0.296935 -0.339599,0.525006 -0.596816,0.665188 -0.41562,0.226511 -0.525391,0.240859 -2.1517367,0.281253 l -0.7848289,0.01949 z m 1.9752976,1.7971701 c 0.366744,-0.08385 0.529097,-0.298 0.529097,-0.697902 0,-0.2766073 -0.03897,-0.4019705 -0.169791,-0.5461583 C 10.282908,9.3643624 10.12512,9.3165637 9.6648459,9.3156781 L 9.2503865,9.3148805 v 0.7797685 0.779767 l 0.3439132,-0.01932 c 0.1891526,-0.01063 0.4153413,-0.03566 0.5026433,-0.05561 z M 9.7866574,8.3469639 C 10.079789,8.2523041 10.276881,7.9234893 10.22177,7.6210547 10.20466,7.5271667 10.151463,7.4377237 10.058719,7.3468927 9.9170732,7.2081732 9.8664259,7.1917897 9.4708438,7.1567241 L 9.2503865,7.137182 v 0.6513759 0.651376 l 0.1851842,-0.019698 c 0.1018468,-0.010834 0.2598407,-0.043806 0.3510867,-0.073272 z"
     id="path30"
     inkscape:connector-curvature="0" />
  <path
     style="fill:none;fill-opacity:1;stroke-width:0.03578957"
     d="m 5.2661183,11.783036 c -0.476003,-0.102695 -0.859599,-0.45475 -1.0755269,-0.98709 l -0.054712,-0.134888 0.3615003,-0.279375 c 0.1988251,-0.153657 0.3800276,-0.294014 0.4026721,-0.311906 0.0287,-0.02268 0.081521,0.04652 0.1743691,0.228422 0.1514747,0.296758 0.2882187,0.411132 0.4533729,0.379203 0.1392831,-0.02693 0.2934168,-0.184397 0.3363976,-0.343678 0.020973,-0.07773 0.034931,-0.9136802 0.03505,-2.0991711 L 5.8994378,6.2645436 H 6.447465 6.9954923 l -0.010114,2.2060472 -0.010114,2.2060472 -0.081737,0.198186 C 6.6601451,11.440703 6.2342407,11.760398 5.6604548,11.8004 5.5299898,11.8095 5.3525366,11.8017 5.2661144,11.78303 Z"
     id="path32"
     inkscape:connector-curvature="0" />
  <path
     style="fill:none;fill-opacity:1;stroke-width:0.03578957"
     d="m 5.2661183,11.783036 c -0.476003,-0.102695 -0.859599,-0.45475 -1.0755269,-0.98709 l -0.054712,-0.134888 0.3615003,-0.279375 c 0.1988251,-0.153657 0.3800276,-0.294014 0.4026721,-0.311906 0.0287,-0.02268 0.081521,0.04652 0.1743691,0.228422 0.1514747,0.296758 0.2882187,0.411132 0.4533729,0.379203 0.1392831,-0.02693 0.2934168,-0.184397 0.3363976,-0.343678 0.020973,-0.07773 0.034931,-0.9136802 0.03505,-2.0991711 L 5.8994378,6.2645436 H 6.447465 6.9954923 l -0.010114,2.2060472 -0.010114,2.2060472 -0.081737,0.198186 C 6.6601451,11.440703 6.2342407,11.760398 5.6604548,11.8004 5.5299898,11.8095 5.3525366,11.8017 5.2661144,11.78303 Z"
     id="path34"
     inkscape:connector-curvature="0" />
  <path
     style="fill:none;fill-opacity:1;stroke-width:0.03578957"
     d="M 8.1216454,9.0023079 V 6.2550542 l 1.014104,0.025883 c 0.557756,0.014237 1.0836586,0.041436 1.1686706,0.060444 0.39112,0.08745 0.717565,0.3492051 0.893159,0.7161647 0.07027,0.14686 0.08101,0.2246718 0.08101,0.586912 0,0.4778086 -0.0215,0.5398839 -0.303995,0.8777361 -0.09471,0.1132647 -0.172193,0.2151612 -0.172193,0.2264368 0,0.011275 0.0957,0.070239 0.212682,0.1310296 0.297803,0.1547642 0.473423,0.3313988 0.607077,0.6105849 0.105653,0.220696 0.115942,0.273444 0.126847,0.6503407 0.01136,0.392375 0.0073,0.420264 -0.09398,0.643041 -0.134972,0.296935 -0.339599,0.525006 -0.596816,0.665188 -0.41562,0.226511 -0.525391,0.240859 -2.1517367,0.281253 l -0.7848289,0.01949 z m 1.9752976,1.7971701 c 0.366744,-0.08385 0.529097,-0.298 0.529097,-0.697902 0,-0.2766073 -0.03897,-0.4019705 -0.169791,-0.5461583 C 10.282908,9.3643624 10.12512,9.3165637 9.6648459,9.3156781 L 9.2503865,9.3148805 v 0.7797685 0.779767 l 0.3439132,-0.01932 c 0.1891526,-0.01063 0.4153413,-0.03566 0.5026433,-0.05561 z M 9.7866574,8.3469639 C 10.079789,8.2523041 10.276881,7.9234893 10.22177,7.6210547 10.20466,7.5271667 10.151463,7.4377237 10.058719,7.3468927 9.9170732,7.2081732 9.8664259,7.1917897 9.4708438,7.1567241 L 9.2503865,7.137182 v 0.6513759 0.651376 l 0.1851842,-0.019698 c 0.1018468,-0.010834 0.2598407,-0.043806 0.3510867,-0.073272 z"
     id="path36"
     inkscape:connector-curvature="0" />
  <path
     style="fill:none;fill-opacity:1;stroke-width:0.03578957"
     d="M 8.1216454,9.0023079 V 6.2550542 l 1.014104,0.025883 c 0.557756,0.014237 1.0836586,0.041436 1.1686706,0.060444 0.39112,0.08745 0.717565,0.3492051 0.893159,0.7161647 0.07027,0.14686 0.08101,0.2246718 0.08101,0.586912 0,0.4778086 -0.0215,0.5398839 -0.303995,0.8777361 -0.09471,0.1132647 -0.172193,0.2151612 -0.172193,0.2264368 0,0.011275 0.0957,0.070239 0.212682,0.1310296 0.297803,0.1547642 0.473423,0.3313988 0.607077,0.6105849 0.105653,0.220696 0.115942,0.273444 0.126847,0.6503407 0.01136,0.392375 0.0073,0.420264 -0.09398,0.643041 -0.134972,0.296935 -0.339599,0.525006 -0.596816,0.665188 -0.41562,0.226511 -0.525391,0.240859 -2.1517367,0.281253 l -0.7848289,0.01949 z m 1.9752976,1.7971701 c 0.366744,-0.08385 0.529097,-0.298 0.529097,-0.697902 0,-0.2766073 -0.03897,-0.4019705 -0.169791,-0.5461583 C 10.282908,9.3643624 10.12512,9.3165637 9.6648459,9.3156781 L 9.2503865,9.3148805 v 0.7797685 0.779767 l 0.3439132,-0.01932 c 0.1891526,-0.01063 0.4153413,-0.03566 0.5026433,-0.05561 z M 9.7866574,8.3469639 C 10.079789,8.2523041 10.276881,7.9234893 10.22177,7.6210547 10.20466,7.5271667 10.151463,7.4377237 10.058719,7.3468927 9.9170732,7.2081732 9.8664259,7.1917897 9.4708438,7.1567241 L 9.2503865,7.137182 v 0.6513759 0.651376 l 0.1851842,-0.019698 c 0.1018468,-0.010834 0.2598407,-0.043806 0.3510867,-0.073272 z"
     id="path38"
     inkscape:connector-curvature="0" />
  <path
     style="fill:none;fill-opacity:1;stroke-width:0.03578957"
     d="m 5.2661183,11.783036 c -0.476003,-0.102695 -0.859599,-0.45475 -1.0755269,-0.98709 l -0.054712,-0.134888 0.3615003,-0.279375 c 0.1988251,-0.153657 0.3800276,-0.294014 0.4026721,-0.311906 0.0287,-0.02268 0.081521,0.04652 0.1743691,0.228422 0.1514747,0.296758 0.2882187,0.411132 0.4533729,0.379203 0.1392831,-0.02693 0.2934168,-0.184397 0.3363976,-0.343678 0.020973,-0.07773 0.034931,-0.9136802 0.03505,-2.0991711 L 5.8994378,6.2645436 H 6.447465 6.9954923 l -0.010114,2.2060472 -0.010114,2.2060472 -0.081737,0.198186 C 6.6601451,11.440703 6.2342407,11.760398 5.6604548,11.8004 5.5299898,11.8095 5.3525366,11.8017 5.2661144,11.78303 Z"
     id="path40"
     inkscape:connector-curvature="0" />
  <path
     d="m 3.4705143,7.3834607 1.049334,1.0424448 h 1.702986 c 0.207539,0 0.374346,-0.167639 0.374346,-0.371889 V 4.1462941 l -3.126666,3.1080653 c -0.03685,0.034683 -0.03685,0.092491 0,0.1291013 z"
     id="path2"
     inkscape:connector-curvature="0"
     style="fill:#235dc1;stroke-width:0.16110346" />
  <path
     d="M 0.79989028,3.0388812 V 4.7306861 L 1.8492223,5.7731305 c 0.03685,0.036612 0.09504,0.036612 0.129954,0 l 3.128603,-3.1080649 h -3.933543 c -0.20560002,0 -0.37434602,0.1676389 -0.37434602,0.3738156 z"
     id="path4"
     inkscape:connector-curvature="0"
     style="fill:#3b6ec6;stroke-width:0.16110346" />
  <path
     d="m 4.7372313,1.1444404 -2.525376,3.8383465 c -0.08534,0.1310281 -0.06789,0.3025208 0.04267,0.4123533 l 1.617634,1.6070217 c 0.110558,0.1098324 0.285124,0.1271746 0.415078,0.042392 L 8.1509593,4.5338227 C 8.3972903,4.3738912 8.5447013,4.1002736 8.5447013,3.809314 V 1.1328791 c 0,-0.21003051 -0.172626,-0.38152331 -0.384045,-0.38152331 h -2.692191 c -0.294822,0 -0.568308,0.1483702 -0.731236,0.39308461 z"
     id="path6"
     inkscape:connector-curvature="0"
     style="fill:#5d8de4;stroke-width:0.16110346" />
  <path
     d="M 1.3681963,7.8982595 V 6.5417329 H 0.79989028 V 8.4339345 H 2.7336853 v -0.535675 z"
     id="path8"
     inkscape:connector-curvature="0"
     style="fill:#9fbbf0;stroke-width:0.16110346" />
  <path
     d="m 6.6065713,3.595221 c 0.531326,0 0.962051,-0.4278968 0.962051,-0.9557348 0,-0.5278395 -0.430725,-0.9557365 -0.962051,-0.9557365 -0.531326,0 -0.962051,0.427897 -0.962051,0.9557365 0,0.527838 0.430725,0.9557348 0.962051,0.9557348 z"
     id="path10"
     inkscape:connector-curvature="0"
     style="fill:#adc5f2;stroke-width:0.16110346" />
  <path
     d="M 4.8845293,3.9199814 2.8272713,5.9637319 3.3018153,6.43516 5.3590563,4.3914098 Z"
     id="path12"
     inkscape:connector-curvature="0"
     style="fill:#6c9aee;stroke-width:0.16110346" />
  <path
     d="m 2.8921033,6.8417492 0.40871,-0.4060268 -0.474544,-0.4714125 -0.40871,0.4060268 z"
     id="path14"
     inkscape:connector-curvature="0"
     style="fill:#88acef;stroke-width:0.16110346" />
  <path
     d="m 7.8857723,9.7977395 3.5603747,-1.966732 3.560345,1.966732 v 3.9302735 l -3.560345,1.966733 -3.5603747,-1.966733 z"
     id="path2-7"
     inkscape:connector-curvature="0"
     style="fill:#cc0000;stroke-width:0.02848554" />
  <path
     d="M 11.54596,11.761281 14.856757,9.9524225 14.989852,13.598579 11.54596,15.57161 Z"
     id="path4-1"
     inkscape:connector-curvature="0"
     style="fill:#ffffff;stroke-width:0.02848554" />
  <path
     d="m 14.906679,9.8419385 -0.01,3.8639895 -3.453864,1.900419 -0.01664,-3.797705 z m -2.904848,2.2823675 0.0099,2.538131 1.147983,-0.634547 -0.0032,-1.913017 0.578993,-0.325181 v 1.91937 l 0.578963,-0.321989 0.0032,-2.569677 -2.315913,1.306938 z"
     id="path6-9"
     inkscape:connector-curvature="0"
     style="fill:#cc0000;stroke-width:0.02848554" />
  <path
     d="m 11.672416,7.8594185 c -0.159736,-0.085235 -0.415952,-0.085235 -0.575659,0 l -3.1543957,1.720489 c -0.159736,0.08523 -0.286162,0.299904 -0.286162,0.4703745 v 3.440976 c 0,0.173606 0.12976,0.385112 0.286162,0.470375 l 3.1543957,1.72046 c 0.159707,0.08524 0.415923,0.08524 0.575659,0 l 3.154366,-1.72046 c 0.159736,-0.08524 0.286192,-0.299932 0.286192,-0.470375 v -3.440976 c 0,-0.1736325 -0.12979,-0.3851395 -0.286164,-0.4703745 z m 2.798366,1.799398 c 0.159707,0.08524 0.159707,0.227294 0,0.312529 l -2.761781,1.5058185 c -0.159707,0.08524 -0.415922,0.08524 -0.57563,0 L 8.3316413,9.9492595 c -0.159736,-0.08524 -0.159736,-0.227294 0,-0.312529 l 2.7617527,-1.505819 c 0.159736,-0.08524 0.415922,-0.08524 0.575658,0 l 2.801672,1.527905 z M 7.9024123,10.299661 c 0,-0.173606 0.12979,-0.243053 0.286163,-0.157846 l 2.8250087,1.540556 c 0.159678,0.08524 0.286133,0.299905 0.286133,0.470375 v 3.055838 c 0,0.173633 -0.12976,0.243054 -0.286133,0.157846 L 8.1885753,13.825873 c -0.159707,-0.08524 -0.286163,-0.299904 -0.286163,-0.470375 z m 3.9363777,5.019407 c -0.159736,0.08524 -0.286162,0.01579 -0.286162,-0.157846 v -3.008476 c 0,-0.173634 0.129761,-0.38514 0.286133,-0.470375 l 2.741806,-1.493194 c 0.159736,-0.08524 0.286163,-0.01579 0.286163,0.157846 v 3.008475 c 0,0.173633 -0.129759,0.38514 -0.286163,0.470375 l -2.741806,1.493195 z"
     id="path8-9"
     inkscape:connector-curvature="0"
     style="fill:#910505;stroke-width:0.02848554" />
  <path
     d="m 0.28334128,10.995467 c 0,0 -0.16768,-0.12771 0.03354,-0.298236 l 0.468804,-0.442922 c 0,0 0.134144,-0.149118 0.27597402,-0.01919 l 4.326143,3.460707 v 1.659488 c 0,0 -0.0021,0.260587 -0.318593,0.231797 z"
     id="path2-5"
     inkscape:connector-curvature="0"
     style="fill:#2489ca;stroke-width:0.00718164" />
  <path
     d="m 1.3984133,12.065127 -1.11507202,1.071137 c 0,0 -0.114581,0.09006 0,0.25099 l 0.517712,0.49755 c 0,0 0.122965,0.139521 0.30461902,-0.0192 l 1.182144,-0.947113 z"
     id="path4-6"
     inkscape:connector-curvature="0"
     style="fill:#1070b3;stroke-width:0.00718164" />
  <path
     d="m 3.3560773,12.073986 2.044997,-1.64989 -0.01327,-1.6506285 c 0,0 -0.08733,-0.360244 -0.378678,-0.17274 l -2.721306,2.6169395 z"
     id="path6-2"
     inkscape:connector-curvature="0"
     style="fill:#0877b9;stroke-width:0.00718164" />
  <path
     d="m 5.0692063,15.589322 c 0.118774,0.128448 0.262699,0.08637 0.262699,0.08637 l 1.593659,-0.829743 c 0.204011,-0.146903 0.175365,-0.32924 0.175365,-0.32924 V 9.5618715 c 0,-0.217771 -0.210997,-0.293068 -0.210997,-0.293068 l -1.381264,-0.70351 c -0.301824,-0.197101 -0.499547,0.03543 -0.499547,0.03543 0,0 0.254315,-0.19341 0.378678,0.17274 V 15.32504 c 0,0.04503 -0.0091,0.08932 -0.02725,0.129186 -0.03633,0.07751 -0.11528,0.149856 -0.304618,0.11959 z"
     id="path8-6"
     inkscape:connector-curvature="0"
     style="fill:#3c99d4;stroke-width:0.00718164" />
  <path
     inkscape:connector-curvature="0"
     style="fill:#6e6e6e;fill-rule:evenodd;stroke-width:0.58437026"
     d="m 15.211107,1.0128421 c -0.510387,-0.53769891 -1.333483,-0.55256521 -1.861069,-0.033614 -0.02571,0.025755 -0.04026,0.061491 -0.04026,0.098864 0,0.037372 0.01455,0.073109 0.04026,0.098864 l 0.161424,0.1739998 c 0.0451,0.047251 0.116343,0.05231 0.167055,0.011864 0.321653,-0.2706491 0.788707,-0.2258667 1.058686,0.1015094 0.26998,0.3273761 0.246774,0.8208035 -0.0526,1.1184664 -1.063332,1.1191352 -2.482363,-2.01879301 -5.7033367,-0.4013858 -0.109907,0.055613 -0.192716,0.1571234 -0.228373,0.2799487 -0.03566,0.1228253 -0.02091,0.2557633 0.04067,0.3666188 l 0.552783,1.005442 c 0.119131,0.2182808 0.383015,0.2946145 0.591264,0.1710339 l 0.01314,-0.00791 -0.01032,0.00791 0.2421357,-0.1423635 c 0.273023,-0.1785668 0.531109,-0.3813111 0.771457,-0.6060333 0.04915,-0.047195 0.123584,-0.049711 0.175502,-0.00593 v 0 c 0.02748,0.024279 0.04382,0.059766 0.04489,0.097534 0.0011,0.037768 -0.01321,0.074222 -0.03926,0.1001932 -0.25297,0.2400376 -0.525572,0.45607 -0.814628,0.6455788 h -0.0084 L 10.067128,4.2377697 C 9.9636763,4.2989657 9.8469713,4.3309767 9.7283243,4.3307017 9.4782113,4.3316493 9.2466673,4.1917864 9.1211073,3.9639181 L 8.5983563,3.0138396 c -0.999516,0.7493855 -1.613302,2.1888382 -1.281069,4.0118816 0.01125,0.063373 0.06362,0.1094147 0.124822,0.1097385 h 0.589385 c 0.06739,0.00186 0.124528,-0.05185 0.130454,-0.122591 0.05728,-0.4567846 0.426976,-0.7981692 0.864369,-0.7981692 0.437393,0 0.807092,0.3413846 0.864371,0.7981692 0.0076,0.067098 0.06161,0.1176231 0.1257597,0.1176477 h 0.576247 c 0.06399,-4.63e-4 0.117763,-0.050771 0.12576,-0.1176477 0.05728,-0.4567846 0.426977,-0.7981692 0.86437,-0.7981692 0.437393,0 0.807092,0.3413846 0.86437,0.7981692 0.008,0.06688 0.06177,0.1171847 0.12576,0.1176477 h 0.572493 c 0.06977,7.8e-6 0.126612,-0.058994 0.127638,-0.132477 0.01314,-0.8502258 0.230873,-1.8269978 0.85123,-2.3163722 2.149192,-1.6935321 1.584208,-3.1448486 1.086797,-3.6688252 z m -2.191425,2.5575992 -0.41013,-0.2165111 v 0 c -1.08e-4,-0.1276326 0.08438,-0.2380297 0.2028,-0.2650064 0.118424,-0.026976 0.238659,0.036786 0.288622,0.1530622 0.04996,0.1162757 0.0161,0.2535165 -0.08129,0.3294439 z"
     id="path2-4" />
</svg>
