<svg version="1.0" width="16" height="16" viewBox="0 0 16 16" preserveAspectRatio="xMidYMid" xmlns="http://www.w3.org/2000/svg"><g style="fill:#000;stroke:none"><path d="M5.94 1.165c-1.641.114-2.782.487-3.657 1.186-.423.338-.688.638-.832.945-.864 1.85.063 4.113 2.502 6.088.457.373.922.71 1.418 1.028l.307.197 1.103-.004h1.1l-.165-.11c-.777-.51-1.277-.862-1.733-1.231-1.468-1.185-2.36-2.396-2.634-3.568-.094-.418-.065-1.159.064-1.552.243-.756.798-1.286 1.734-1.661 1.932-.78 5.181-.556 9.132.63.279.083.521.152.542.152.026 0 .043-.135.043-.307v-.31l-.648-.204c-2.26-.714-4.578-1.159-6.676-1.281a10.761 10.761 0 0 0-1.6.002Z"/><path d="M9.335 3.081c-1.043.042-2.004.277-2.648.646-.35.203-.786.586-.953.844-.385.58-.444 1.421-.158 2.234.14.397.59 1.121.936 1.507.613.69 1.453 1.365 2.468 1.99l.5.307h1.733l-.23-.132c-.875-.486-2.025-1.317-2.562-1.852-.99-.981-1.363-1.906-1.107-2.773.022-.086.133-.304.235-.484.265-.444.718-.816 1.252-1.029.59-.235 1.084-.318 1.974-.339 1.14-.027 2.242.093 3.48.386.286.066.542.121.569.121.025 0 .042-.11.042-.29v-.293l-.222-.065a21.976 21.976 0 0 0-2.993-.645c-.497-.066-1.953-.171-2.038-.148a5.123 5.123 0 0 1-.278.017Z"/><path d="M11.471 4.83c-.756.118-1.244.314-1.713.693-.812.652-.91 1.4-.316 2.369.512.83 1.703 1.848 2.951 2.52l.367.197h2.064V7.867c0-1.507 0-2.752.003-2.769.005-.034-.264-.092-.88-.2-.64-.11-1.981-.148-2.476-.068Zm1.217 6.795c-.953.217-1.444 1.045-1.221 2.055.114.515.422.878.914 1.073.272.11.307.113.776.113.445 0 .517-.01.735-.093.444-.165.77-.479.888-.855.026-.086.056-.183.07-.217.02-.052-.01-.059-.25-.059h-.268l-.072.2c-.158.428-.535.662-1.056.662-.507-.003-.798-.14-1.02-.479-.192-.287-.256-.652-.188-1.059.09-.534.372-.851.858-.969.295-.068.692-.044.936.056.2.083.415.297.456.455.026.097.035.1.304.1h.273l-.03-.114c-.077-.32-.418-.661-.815-.81-.304-.11-.927-.138-1.29-.059zm-7.462.059c-.021.023-.355.72-.739 1.544-.38.824-.705 1.52-.714 1.542-.017.034.051.045.258.045h.272l.209-.467.206-.465h1.54l.197.459.197.455.286.01c.153.008.282-.003.282-.017 0-.013-.317-.727-.7-1.579l-.698-1.551-.277-.01c-.188-.007-.29.002-.32.034Zm.59 1.169.282.652h-.596c-.324 0-.59-.011-.59-.025 0-.059.578-1.313.599-1.3.009.011.146.31.303.673zm3.237-1.117-.743 1.589-.695 1.493.276-.01.281-.01.202-.45.196-.447.773-.01.772-.008.172.387c.09.214.184.424.197.464.03.074.06.08.325.08h.297l-.045-.093c-.027-.054-.321-.71-.659-1.462-.337-.751-.644-1.423-.678-1.493l-.065-.123h-.282c-.265 0-.282.003-.325.093zm.606 1.079c.133.313.257.596.274.627.03.059-.018.062-.573.062a7.99 7.99 0 0 1-.602-.01c0-.01.529-1.19.581-1.3.026-.044.03-.044.052 0z"/></g></svg>