<svg version="1.0" width="16" height="16" viewBox="0 0 16 16" preserveAspectRatio="xMidYMid" xmlns="http://www.w3.org/2000/svg"><g style="fill:#000;stroke:none"><path d="M5.599.037c-1.911.132-3.24.566-4.26 1.381-.493.394-.802.744-.97 1.101-1.006 2.157.074 4.792 2.916 7.094.532.434 1.074.828 1.652 1.197l.358.23 1.284-.005h1.284l-.194-.128c-.906-.595-1.488-1.005-2.02-1.435C3.94 8.091 2.9 6.681 2.582 5.315c-.11-.486-.075-1.35.074-1.808.284-.88.931-1.498 2.021-1.936 2.25-.908 6.037-.647 10.64.735.324.097.607.177.632.177.03 0 .05-.157.05-.358v-.361l-.756-.237C12.61.695 9.909.177 7.464.033A12.538 12.538 0 0 0 5.6.037z"/><path d="M9.555 2.27c-1.214.048-2.334.321-3.085.751-.408.237-.916.683-1.11.984-.448.675-.518 1.655-.184 2.603.164.462.686 1.306 1.09 1.756.716.803 1.692 1.59 2.876 2.318l.582.357h2.02l-.268-.153c-1.02-.566-2.359-1.534-2.986-2.157-1.154-1.144-1.587-2.221-1.289-3.233.025-.1.154-.354.274-.563.308-.518.836-.952 1.458-1.2.687-.274 1.264-.37 2.3-.394 1.328-.033 2.612.108 4.055.45.334.076.632.14.662.14.03 0 .05-.128.05-.337V3.25l-.259-.076a25.604 25.604 0 0 0-3.488-.751c-.578-.077-2.275-.201-2.374-.173a5.97 5.97 0 0 1-.324.02z"/><path d="M12.044 4.307c-.881.136-1.449.365-1.996.807-.946.76-1.06 1.631-.368 2.76.597.968 1.985 2.153 3.438 2.936l.428.23h2.405V7.845c0-1.756 0-3.206.004-3.226.005-.04-.308-.108-1.025-.233-.747-.129-2.31-.173-2.886-.08zm1.418 7.917c-1.11.253-1.682 1.217-1.423 2.394.134.599.492 1.024 1.065 1.25.318.128.358.132.905.132.518 0 .602-.012.856-.108.518-.193.896-.559 1.035-.997.03-.1.065-.213.08-.253.025-.06-.01-.068-.289-.068h-.313l-.085.233c-.184.498-.622.771-1.229.771-.592-.004-.93-.164-1.19-.558-.223-.334-.298-.76-.218-1.233.104-.623.433-.993 1-1.13.343-.08.806-.051 1.09.065.234.097.483.346.532.53.03.113.04.117.354.117h.318l-.035-.133c-.09-.373-.487-.77-.95-.944-.354-.128-1.08-.16-1.503-.068zm-8.694.068c-.025.028-.414.84-.861 1.8-.443.96-.822 1.771-.832 1.796-.02.04.06.052.3.052h.318l.243-.543.24-.542H5.97l.23.534.229.53.333.013c.18.008.329-.004.329-.02s-.369-.848-.816-1.84l-.812-1.808-.323-.012c-.22-.008-.339.004-.373.04zm.686 1.362.329.76H5.09c-.378 0-.687-.013-.687-.029 0-.068.672-1.53.697-1.514.01.012.17.361.353.783zm3.773-1.301-.866 1.851-.811 1.74.323-.012.328-.012.234-.523.23-.522.9-.012.9-.008.2.45c.104.25.214.494.229.542.035.085.07.093.378.093h.348l-.054-.109c-.03-.064-.374-.827-.767-1.703-.393-.876-.751-1.659-.791-1.74l-.075-.144h-.328c-.309 0-.329.004-.378.109zm.706 1.257c.155.365.299.695.319.731.035.068-.02.072-.667.072-.388 0-.702-.004-.702-.012 0-.012.617-1.386.677-1.514.03-.052.035-.052.06 0 .015.032.154.357.313.723z"/></g></svg>