<svg version="1.0" width="16" height="16" viewBox="0 0 16 16" preserveAspectRatio="xMidYMid" xmlns="http://www.w3.org/2000/svg"><g style="fill:#fff;stroke:none"><path d="M4120 4489c-384-33-651-141-856-344-99-98-161-185-195-274-202-537 15-1193 586-1766 107-108 216-206 332-298l72-57 258 1h258l-39 32c-182 148-299 250-406 357-343 344-552 695-616 1035-22 121-15 336 15 450 57 219 187 373 406 482 452 226 1213 161 2138-183 65-24 122-44 127-44 6 0 10 39 10 89v90l-152 59c-529 207-1072 336-1563 372-157 11-237 11-375-1z" style="fill:#fff" transform="matrix(.00428 0 0 -.00345 -11.655 16.641)"/><path d="M4915 3933c-244-12-469-80-620-187-82-59-184-170-223-245-90-168-104-412-37-648 33-115 138-325 219-437 144-200 340-396 578-577l117-89h406l-54 38c-205 141-474 382-600 537-232 285-319 553-259 805 5 25 31 88 55 140 62 129 168 237 293 299 138 68 254 92 462 98 267 8 525-27 815-112 67-19 127-35 133-35s10 32 10 84v85l-52 19c-203 75-482 150-701 187-116 19-457 50-477 43-3-1-32-3-65-5z" style="fill:#fff" transform="matrix(.00428 0 0 -.00345 -11.655 16.641)"/><path d="M5415 3426c-177-34-291-91-401-201-190-189-213-406-74-687 120-241 399-536 691-731l86-57h483v795c0 437 0 798 1 803 1 10-62 27-206 58-150 32-464 43-580 20zm285-1971c-223-63-338-303-286-596 27-149 99-255 214-311 64-32 72-33 182-33 104 0 121 3 172 27 104 48 180 139 208 248 6 25 13 53 16 63 5 15-2 17-58 17h-63l-17-58c-37-124-125-192-247-192-119 1-187 41-239 139-45 83-60 189-44 307 21 155 87 247 201 281 69 20 162 13 219-16 47-24 97-86 107-132 6-28 8-29 71-29h64l-7 33c-18 93-98 192-191 235-71 32-217 40-302 17zm-1747-17c-5-7-83-209-173-448-89-239-165-441-167-447-4-10 12-13 60-13h64l49 135 48 135h361l46-133 46-132 67-3c36-2 66 1 66 5s-74 211-164 458l-163 450-65 3c-44 2-68-1-75-10zm138-339 66-189h-139c-76 0-138 3-138 7 0 17 135 381 140 377 2-3 34-90 71-195zm758 324c-6-16-84-223-174-461l-163-433 65 3 66 3 47 130 46 130 181 3 181 2 40-112c21-62 43-123 46-135 7-21 14-23 76-23h70l-11 27c-6 16-75 206-154 424s-151 413-159 433l-15 36h-66c-62 0-66-1-76-27zm142-313c31-91 60-173 64-182 7-17-4-18-134-18-78 0-141 1-141 3 0 3 124 345 136 377 6 13 7 13 12 0 3-8 31-89 63-180z" style="fill:#fff" transform="matrix(.00428 0 0 -.00345 -11.655 16.641)"/></g></svg>