<?xml version="1.0" encoding="UTF-8" standalone="no"?>
<svg
    version="1.0"
    width="16"
    height="16"
    viewBox="0 0 15.999999 15.999991"
    preserveAspectRatio="xMidYMid"
    id="svg18"
    xmlns="http://www.w3.org/2000/svg"
>
  <defs
     id="defs22" />
  <metadata
     id="metadata2">
Created by potrace 1.15, written by Peter Selinger 2001-2017
</metadata>
  <g
     transform="matrix(0.00497671,0,0,-0.00401694,-14.90537,18.068715)"
     id="g16"
     style="fill:#ffffff;stroke:none">
    <path
       d="m 4120,4489 c -384,-33 -651,-141 -856,-344 -99,-98 -161,-185 -195,-274 -202,-537 15,-1193 586,-1766 107,-108 216,-206 332,-298 l 72,-57 258,1 h 258 l -39,32 c -182,148 -299,250 -406,357 -343,344 -552,695 -616,1035 -22,121 -15,336 15,450 57,219 187,373 406,482 452,226 1213,161 2138,-183 65,-24 122,-44 127,-44 6,0 10,39 10,89 v 90 l -152,59 c -529,207 -1072,336 -1563,372 -157,11 -237,11 -375,-1 z"
       id="path4"
       style="fill:#ffffff" />
    <path
       d="m 4915,3933 c -244,-12 -469,-80 -620,-187 -82,-59 -184,-170 -223,-245 -90,-168 -104,-412 -37,-648 33,-115 138,-325 219,-437 144,-200 340,-396 578,-577 l 117,-89 h 203 203 l -54,38 c -205,141 -474,382 -600,537 -232,285 -319,553 -259,805 5,25 31,88 55,140 62,129 168,237 293,299 138,68 254,92 462,98 267,8 525,-27 815,-112 67,-19 127,-35 133,-35 6,0 10,32 10,84 v 85 l -52,19 c -203,75 -482,150 -701,187 -116,19 -457,50 -477,43 -3,-1 -32,-3 -65,-5 z"
       id="path6"
       style="fill:#ffffff" />
    <path
       d="m 5415,3426 c -177,-34 -291,-91 -401,-201 -190,-189 -213,-406 -74,-687 120,-241 399,-536 691,-731 l 86,-57 h 242 241 v 795 c 0,437 0,798 1,803 1,10 -62,27 -206,58 -150,32 -464,43 -580,20 z"
       id="path8"
       style="fill:#ffffff" />
    <path
       d="m 5700,1455 c -223,-63 -338,-303 -286,-596 27,-149 99,-255 214,-311 64,-32 72,-33 182,-33 104,0 121,3 172,27 104,48 180,139 208,248 6,25 13,53 16,63 5,15 -2,17 -58,17 h -63 l -17,-58 c -37,-124 -125,-192 -247,-192 -119,1 -187,41 -239,139 -45,83 -60,189 -44,307 21,155 87,247 201,281 69,20 162,13 219,-16 47,-24 97,-86 107,-132 6,-28 8,-29 71,-29 h 64 l -7,33 c -18,93 -98,192 -191,235 -71,32 -217,40 -302,17 z"
       id="path10"
       style="fill:#ffffff" />
    <path
       d="m 3953,1438 c -5,-7 -83,-209 -173,-448 -89,-239 -165,-441 -167,-447 -4,-10 12,-13 60,-13 h 64 l 49,135 48,135 h 180 181 l 46,-133 46,-132 67,-3 c 36,-2 66,1 66,5 0,4 -74,211 -164,458 l -163,450 -65,3 c -44,2 -68,-1 -75,-10 z m 138,-339 66,-189 h -139 c -76,0 -138,3 -138,7 0,17 135,381 140,377 2,-3 34,-90 71,-195 z"
       id="path12"
       style="fill:#ffffff" />
    <path
       d="m 4849,1423 c -6,-16 -84,-223 -174,-461 l -163,-433 65,3 66,3 47,130 46,130 181,3 181,2 40,-112 c 21,-62 43,-123 46,-135 7,-21 14,-23 76,-23 h 70 l -11,27 c -6,16 -75,206 -154,424 -79,218 -151,413 -159,433 l -15,36 h -66 c -62,0 -66,-1 -76,-27 z m 142,-313 c 31,-91 60,-173 64,-182 7,-17 -4,-18 -134,-18 -78,0 -141,1 -141,3 0,3 124,345 136,377 6,13 7,13 12,0 3,-8 31,-89 63,-180 z"
       id="path14"
       style="fill:#ffffff" />
  </g>
</svg>
