<svg xmlns="http://www.w3.org/2000/svg" viewBox="0 0 16 16" height="16" width="16"><path fill="#b1abea" d="m7.721 12.372-.475-.069-.325-.045-.143-.042c-.06-.895-.357-1.32-.622-1.575a4.675 4.674 0 0 0-.554-.305 3.475 3.474 0 0 0 .073.95 1.304 1.304 0 0 0 .74.829 6.711 6.709 0 0 1-1.28-.48A2.878 2.877 0 0 0 5.18 10.6a1.37 1.37 0 0 0-.207-.621 4.78 4.78 0 0 0-.415-.43 3.22 3.219 0 0 0-.232.904 1.05 1.049 0 0 0 .093.51 1.244 1.244 0 0 0 .38.512s-.295-.186-.572-.39a2.355 2.354 0 0 1-.365-.306l-.156-.154c.415-.764.547-1.29.299-1.969a.568.568 0 0 0-.106-.134c-.33.36-.935.999-.456 1.836l-.415-.543a3.495 3.494 0 0 1-.22-.415l-.082-.182c.648-.572.912-.974.97-1.328a1.387 1.387 0 0 0-.031-.633c-.456.28-1.221.68-1.087 1.621 0 0-.029-.079-.064-.207a7.818 7.818 0 0 1-.11-.454 6.753 6.75 0 0 1-.093-.67c.83-.319 1.165-.71 1.33-1.036a1.356 1.355 0 0 0 .136-.622c-.517.14-1.346.332-1.487 1.28 0 0-.01-.34.017-.683a5.983 5.982 0 0 1 .085-.675c.893-.09 1.312-.371 1.555-.6a3.261 3.26 0 0 0 .288-.457 2.28 2.28 0 0 0-.919-.021 1.178 1.177 0 0 0-.843.71 1.188 1.188 0 0 1 .045-.14l.087-.299c.081-.223.17-.435.17-.435a1.553 1.552 0 0 0 .635-.414c.207-.224.319-.554.516-1.213v-.01a1.329 1.329 0 0 0-1.362.703 1.074 1.074 0 0 0-.046.845s-.1.228-.176.462l-.104.33a.821.821 0 0 0-.035.151 2.975 2.974 0 0 0-.143-1.266c-.104-.371-.27-.715-.34-1.047a2.612 2.611 0 0 0-.207.27 2.169 2.168 0 0 0-.268.713 1.495 1.494 0 0 0 .892 1.676 6.5 6.498 0 0 0-.094.724c-.027.364-.012.73-.012.73-.162-.973-.792-1.452-1.188-1.98a2.017 2.017 0 0 0-.116 1.005 1.536 1.536 0 0 0 1.32 1.329s.032.366.102.723a6.112 6.11 0 0 0 .195.709c-.431-.896-1.153-1.2-1.692-1.6a2.028 2.027 0 0 0 .154.992 1.48 1.48 0 0 0 1.673.923l.106.207a2.903 2.902 0 0 0 .25.448l.438.588c-.717-.67-1.495-.708-2.17-.947a2.23 2.23 0 0 0 .115.303 2.716 2.715 0 0 0 .415.644c.427.398 1.093.703 1.895.24l.166.164a2.164 2.164 0 0 0 .394.33c.151.108.306.207.414.296a1.23 1.229 0 0 0 .197.114 3.11 3.109 0 0 0-.642-.182 3.854 3.853 0 0 0-.602-.019c-.38 0-.746.081-1.086.092a2.455 2.454 0 0 0 .207.238 1.839 1.838 0 0 0 .593.44 1.73 1.729 0 0 0 .89.146 1.71 1.71 0 0 0 .962-.549c-.017.042 1.09.458 1.32.508a3.628 3.627 0 0 0-.622 0 2.426 2.425 0 0 0-.576.158c-.355.128-.67.3-.98.414a2.743 2.742 0 0 0 .254.166 1.659 1.658 0 0 0 .672.224c.543.09 1.223-.104 1.644-.89l.151.04c.092.025.208.029.336.046l.49.068a.13.13 0 0 0 .13-.129.129.129 0 0 0-.118-.11zm.556 0 .474-.069.328-.045.145-.042c.06-.895.357-1.32.622-1.575a4.426 4.425 0 0 1 .55-.3 3.477 3.476 0 0 1-.071.949 1.306 1.306 0 0 1-.736.829 6.728 6.726 0 0 0 1.273-.483 2.836 2.835 0 0 1-.04-1.036 1.329 1.329 0 0 1 .208-.622 4.513 4.512 0 0 1 .402-.415 3.232 3.231 0 0 1 .23.904 1.068 1.067 0 0 1-.093.51 1.23 1.229 0 0 1-.367.501 6.682 6.68 0 0 0 .574-.39 2.345 2.344 0 0 0 .365-.306l.154-.153c-.415-.765-.548-1.292-.299-1.97a.622.622 0 0 1 .1-.132c.33.36.935.999.456 1.836l.414-.543a3.245 3.244 0 0 0 .22-.414l.098-.191c-.647-.572-.913-.974-.973-1.329a1.426 1.426 0 0 1 .031-.632c.456.28 1.224.68 1.09 1.621l.063-.207c.037-.129.077-.286.114-.454.064-.334.091-.676.091-.676-.829-.319-1.165-.71-1.329-1.036a1.372 1.372 0 0 1-.139-.622c.519.14 1.348.332 1.491 1.279 0 0 0-.34-.019-.682a6.276 6.274 0 0 0-.085-.676c-.901-.076-1.318-.358-1.565-.59a3.369 3.368 0 0 1-.284-.458 2.28 2.28 0 0 1 .919-.021 1.17 1.169 0 0 1 .84.71 1.124 1.123 0 0 0-.036-.146l-.097-.305c-.083-.224-.17-.435-.17-.435a1.53 1.53 0 0 1-.635-.415c-.207-.224-.32-.553-.518-1.212v.002a1.329 1.329 0 0 1 1.358.696 1.074 1.074 0 0 1 .035.846s.102.228.178.462l.104.33a.839.839 0 0 1 .035.15 2.983 2.982 0 0 1 .143-1.265c.114-.371.28-.715.349-1.05a2.652 2.65 0 0 1 .207.27 2.15 2.15 0 0 1 .267.722 1.495 1.494 0 0 1-.887 1.676 7.014 7.012 0 0 1 .091.724c.027.364.013.73.013.73.16-.973.79-1.452 1.188-1.98a2.057 2.056 0 0 1 .12 1.005 1.538 1.538 0 0 1-1.327 1.329 6.676 6.674 0 0 1-.097.723 6.355 6.353 0 0 1-.193.709c.427-.898 1.148-1.196 1.681-1.594a2.011 2.01 0 0 1-.155.993 1.484 1.484 0 0 1-1.678.916l-.101.207a2.753 2.752 0 0 1-.243.448c-.207.294-.435.588-.435.588.72-.67 1.495-.708 2.17-.947a2.09 2.09 0 0 1-.113.303 2.774 2.773 0 0 1-.415.644c-.43.398-1.089.703-1.9.24l-.167.164a2.16 2.16 0 0 1-.394.33l-.415.296a1.205 1.204 0 0 1-.195.114 3.073 3.072 0 0 1 .645-.182 3.85 3.849 0 0 1 .601-.019c.378 0 .745.081 1.085.092a2.509 2.508 0 0 1-.208.238 1.841 1.84 0 0 1-.593.44 1.725 1.724 0 0 1-.887.146 1.715 1.714 0 0 1-.964-.549c.019.042-1.09.458-1.32.508a3.661 3.66 0 0 1 .634 0 2.372 2.371 0 0 1 .574.158c.357.128.674.3.983.414a2.432 2.431 0 0 1-.255.166 1.659 1.658 0 0 1-.67.224c-.543.09-1.225-.104-1.646-.89l-.147.04c-.094 0-.208.029-.338.046l-.49.068a.129.129 0 0 1-.014-.257z"/><path fill="#97BDF1" d="M6.042 5.383c1.103.317 1.354.568 1.67 1.67a.07.07 0 0 0 .136 0c.317-1.102.568-1.353 1.67-1.67a.07.07 0 0 0 0-.135c-1.102-.317-1.353-.568-1.67-1.67a.07.07 0 0 0-.135 0c-.324 1.102-.575 1.353-1.671 1.67a.07.07 0 0 0 0 .135zm-.635 3.123a.07.07 0 0 0 .135 0c.145-.503.25-.61.755-.754a.07.07 0 0 0 0-.135c-.504-.145-.61-.25-.755-.754a.07.07 0 0 0-.135 0c-.145.503-.25.609-.754.754a.07.07 0 0 0 0 .135c.503.153.61.25.754.754zm5.488-.145c-.582-.168-.705-.29-.87-.87a.07.07 0 0 0-.135 0c-.168.582-.29.704-.871.87a.07.07 0 0 0 0 .135c.582.168.705.29.87.87a.07.07 0 0 0 .135 0c.168-.582.29-.704.871-.87a.07.07 0 0 0 0-.135z"/></svg>