<svg version="1.0" height="16" width="16" viewBox="0 0 2000 1250" xmlns="http://www.w3.org/2000/svg"><path fill="#3ddc84" d="M398.206 66.29c-6.175 2.09-9.215 3.99-13.965 8.93-6.46 6.556-9.31 13.3-9.31 21.85 0 9.406.38 10.356 14.725 34.96 3.04 5.226 10.355 17.86 16.15 28.026 5.89 10.165 13.775 23.845 17.575 30.4 3.8 6.555 12.54 21.66 19.475 33.725 6.935 11.97 15.675 27.17 19.475 33.725 3.8 6.555 12.54 21.66 19.475 33.725 6.84 11.97 15.675 27.17 19.475 33.725 3.705 6.555 12.635 21.945 19.665 34.2 7.03 12.255 13.205 22.705 13.68 23.275 2.185 2.28.475 4.18-8.36 9.025-30.97 17.005-76.19 46.55-104.5 68.02-39.425 30.115-63.65 51.3-98.705 86.26-60.99 60.99-107.92 122.455-151.335 198.17-9.785 16.91-30.495 57.38-37.81 73.625-1.615 3.61-4.085 9.025-5.32 11.875-4.18 9.12-16.91 40.185-19.19 46.55-1.235 3.42-3.8 10.45-5.7 15.675C89.74 930.316 72.07 992.636 67.13 1020.756c-.38 2.375-1.615 8.55-2.66 13.775-1.995 9.785-5.795 32.205-7.79 45.6-.57 4.18-1.425 10.165-1.9 13.3-1.805 11.305-3.99 34.675-3.515 36.1.57 1.235 97.66 1.425 949.715 1.425h949.05v-3.135c0-1.615-.38-6.46-.95-10.64-.475-4.18-1.14-9.975-1.425-12.825-3.99-33.915-11.78-77.14-20.045-111.055-4.56-18.62-10.07-39.615-11.59-43.795-.285-.76-.57-1.9-.665-2.47-1.33-5.7-16.91-53.01-20.425-61.655-.38-1.045-3.8-9.785-7.6-19.475-17.195-43.89-33.63-78.375-59.85-124.925-6.46-11.59-23.465-38.95-32.68-52.725-34.865-52.25-70.775-95.855-116.47-141.55-42.94-43.035-79.04-73.435-126.35-106.495-17.29-12.065-60.61-39.805-62.225-39.805-.19 0-3.895-2.09-8.265-4.56-4.275-2.565-9.975-5.795-12.445-7.22l-4.56-2.565 2.09-3.515c1.14-1.9 2.755-4.845 3.705-6.365.855-1.615 7.22-12.445 14.06-24.225 6.745-11.78 13.49-23.56 14.915-26.125 1.52-2.66 3.42-5.89 4.37-7.315 1.045-1.33 1.805-2.66 1.805-2.85 0-.285 5.795-10.45 12.825-22.61 7.03-12.16 12.825-22.23 12.825-22.42 0-.19 1.52-2.66 3.325-5.51 1.805-2.85 3.325-5.415 3.325-5.605 0-.285 3.515-6.365 7.695-13.585 6.935-11.78 26.6-45.79 31.54-54.53 4.275-7.695 23.94-41.705 26.79-46.55 5.32-9.025 17.385-30.02 19.57-34.39 1.71-3.325 2.185-5.7 2.185-12.635.095-7.505-.19-9.215-2.565-13.87-2.945-5.985-9.69-12.92-15.96-16.15-3.515-1.9-5.51-2.185-13.205-2.185-6.46 0-10.07.475-12.73 1.71-5.225 2.375-13.395 10.355-16.91 16.625-1.615 2.945-9.975 17.29-18.43 32.015-8.455 14.63-16.245 28.12-17.29 29.925-1.71 3.135-9.31 16.15-23.275 40.28-3.61 6.27-12.255 21.185-19.19 33.25-6.935 11.97-15.675 27.17-19.475 33.725-3.8 6.555-13.49 23.37-21.565 37.525-8.17 14.06-17.005 29.45-19.76 34.2-7.79 13.3-9.69 16.625-13.87 23.94-2.09 3.8-4.275 7.22-4.75 7.505-.57.285-2.755-.285-4.94-1.33-5.225-2.47-21.755-9.5-31.54-13.49-4.18-1.71-8.835-3.61-10.45-4.275-1.52-.57-4.37-1.71-6.175-2.375-1.805-.57-4.18-1.52-5.225-1.995-5.795-2.66-43.32-15.39-58.425-19.855-36.1-10.83-74.005-20.14-100.225-24.7-2.565-.475-8.36-1.52-12.825-2.375-9.12-1.615-13.775-2.375-33.25-5.13-24.795-3.61-47.025-5.985-66.025-7.22-4.655-.285-10.45-.76-12.825-.95-29.45-2.755-107.54-2.28-139.175.95-2.09.19-8.455.665-14.25 1.045-5.7.38-10.64.76-10.925.855-.285.095-4.275.475-9.025.95-4.655.475-8.74.855-9.025.95-.285.095-3.04.475-6.175.855-11.875 1.425-26.79 3.515-31.35 4.37-2.565.475-9.025 1.52-14.25 2.375-10.26 1.615-40.375 7.695-56.525 11.305-19.95 4.465-63.08 16.34-73.15 20.045-1.805.665-5.7 1.995-8.55 2.85-6.84 2.09-21.185 7.03-37.05 13.015-13.87 5.13-14.82 5.51-20.14 7.79-1.9.855-3.705 1.52-3.99 1.52-.285 0-2.85 1.045-5.7 2.375s-5.415 2.375-5.7 2.375c-.285 0-3.705 1.425-7.41 3.135-3.8 1.71-8.455 3.705-10.26 4.465-1.805.665-3.705 1.615-4.18 2.09-2.565 2.185-1.9 3.135-23.75-34.2-3.42-5.985-6.27-10.925-6.27-11.115 0-.19-1.995-3.705-4.37-7.79-5.795-9.595-17.86-30.59-20.995-36.195-1.33-2.47-3.135-5.51-4.085-6.84-.855-1.33-2.945-4.94-4.75-8.075-3.99-7.315-5.225-9.31-11.875-20.9-3.04-5.225-8.74-15.105-12.635-21.85-3.895-6.84-9.31-16.245-12.065-20.9-2.755-4.75-5.89-10.165-6.935-12.065-3.23-5.795-30.59-53.105-33.915-58.71a760.97 760.97 0 0 1-5.035-8.55c-16.815-30.02-21.375-36.1-30.02-40.565-5.7-2.945-17.005-3.8-22.895-1.9zm189.43 642.39c32.68 10.26 53.485 37.24 55.765 72.676.95 14.44-4.37 33.44-13.205 46.835-8.36 12.73-22.61 23.94-37.24 29.45-11.875 4.37-14.725 4.845-28.5 4.845-15.58-.095-23.845-1.995-36.195-8.265-37.715-19.285-53.105-66.405-34.39-104.88 4.56-9.31 13.87-21.185 20.995-26.695 10.165-7.79 25.08-14.535 36.29-16.435 2.66-.38 10.07-.57 16.625-.38 9.405.285 13.585.95 19.855 2.85zm860.795-2.374c9.215 1.425 13.585 2.85 23.56 7.695 18.335 9.12 32.965 26.03 39.14 45.6 3.23 10.165 4.085 16.625 3.515 28.215-1.045 22.325-9.025 39.52-25.175 54.34-10.26 9.5-22.04 15.77-35.815 19.095-8.17 1.9-27.74 1.71-35.72-.38-32.3-8.455-55.1-33.535-59.66-65.265-4.845-33.915 12.445-66.88 43.13-82.46 4.18-2.09 18.335-6.555 22.8-7.125 5.13-.665 18.905-.57 24.225.285z"/></svg>