<svg height="16" width="16" viewBox="0 0 48 48" xmlns="http://www.w3.org/2000/svg"><path fill="#2ebc70" d="M14.59 8.005a.94.94 0 0 1-.665-.275l-3.763-3.764a.94.94 0 0 1 1.33-1.33l3.764 3.763a.94.94 0 0 1-.665 1.606zm18.819 0a.94.94 0 0 1-.666-1.606l3.764-3.763a.94.94 0 0 1 1.33 1.33L34.074 7.73a.94.94 0 0 1-.665.275z"/><g transform="translate(1.418 1.419) scale(.9409)"><circle fill="#f1f2f2" cx="28" cy="10" r="2"/><circle fill="#f1f2f2" cx="20" cy="10" r="2"/><path fill="#35dc86" d="M38 34v3a2.006 2.006 0 0 1-2 2h-3v6a2.006 2.006 0 0 1-2 2h-2a2.006 2.006 0 0 1-2-2v-6h-6v6a2.006 2.006 0 0 1-2 2h-2a2.006 2.006 0 0 1-2-2v-6h-3a2.006 2.006 0 0 1-2-2v-3H7a.979.979 0 0 1-1-1V23a1.959 1.959 0 0 1 2-2h32a1.959 1.959 0 0 1 2 2v10a.979.979 0 0 1-1 1zm0-18v2H10v-2a14 14 0 0 1 28 0zm-8-6a2 2 0 1 0-2 2 2.006 2.006 0 0 0 2-2zm-8 0a2 2 0 1 0-2 2 2.006 2.006 0 0 0 2-2z"/><path fill="#2ebc70" d="M8 21a1.959 1.959 0 0 0-2 2v10a.979.979 0 0 0 1 1h3V21zm32 0h-2v13h3a.979.979 0 0 0 1-1V23a1.959 1.959 0 0 0-2-2zm-20-8a3 3 0 1 1 3-3 3 3 0 0 1-3 3zm0-4a1 1 0 1 0 1 1 1 1 0 0 0-1-1zm8 4a3 3 0 1 1 3-3 3 3 0 0 1-3 3zm0-4a1 1 0 1 0 1 1 1 1 0 0 0-1-1z"/></g></svg>