<svg width="16" height="16" viewBox="0 0 16 16" xml:space="preserve" style="overflow:visible" xmlns="http://www.w3.org/2000/svg"><path stroke-miterlimit="2.613" d="M54.232 423.01a48.61 48.61 0 0 1 1.088-1.7c59.734-92.355 153.96-146.41 242.568-146.41 90.228 0 146.946 49.669 221.528 49.669 72.366 0 116.444-49.74 220.76-49.74 78.814 0 162.377 43.098 221.897 117.62-16.457 9.05-31.302 19.326-44.571 30.62l-863.27-.06z" style="clip-rule:evenodd;fill:#61bb46;fill-rule:evenodd;stroke:#61bb46;stroke-width:6.28089;stroke-miterlimit:2.6131" transform="translate(1.3 .187) scale(.0134)"/><path stroke-miterlimit="2.613" d="M661.05 191.616c37.864-48.834 66.665-117.786 56.227-188.283-61.908 4.261-134.316 43.84-176.609 95.362-38.376 46.805-70.058 116.221-57.724 183.65 67.587 2.111 137.503-38.414 178.106-90.73z" style="clip-rule:evenodd;fill:#61bb46;fill-rule:evenodd;stroke:#61bb46;stroke-width:6.28089;stroke-miterlimit:2.6131" transform="translate(1.3 .187) scale(.0134)"/><path d="M51.151 421.649c-25.724 40.47-43.523 98.476-48.247 149.355l834.55-.022c9.023-55.662 39.027-108.841 86.582-149.272l-872.885-.061h.05z" style="clip-rule:evenodd;fill:#fdb827;fill-rule:evenodd;stroke:none;stroke-miterlimit:2.6131" transform="translate(1.3 .187) scale(.0134)"/><path stroke-miterlimit="2.613" d="M10.483 719.03c-8.11-51.964-9.422-102.063-4.328-148.024l828.049-.022c-8.1 49.844-1.302 101.714 19.184 148.078l-842.905-.031z" style="clip-rule:evenodd;fill:#f5821f;fill-rule:evenodd;stroke:#f5821f;stroke-width:6.28089;stroke-miterlimit:2.6131" transform="translate(1.3 .187) scale(.0134)"/><path stroke-miterlimit="2.613" d="M50.95 867.046c-19.553-49.73-32.942-99.677-40.467-148.015l842.905.032c26.094 59.079 74.386 109.27 142.385 135.063-2.02 4.51-3.969 8.825-5.844 12.983l-938.979-.063z" style="clip-rule:evenodd;fill:#e03a3e;fill-rule:evenodd;stroke:#e03a3e;stroke-width:6.28089;stroke-miterlimit:2.6131" transform="translate(1.3 .187) scale(.0134)"/><path stroke-miterlimit="2.613" d="M989.927 867.107c-23.346 51.54-36.88 78.29-69.187 127.67-4.347 6.632-8.839 13.416-13.515 20.262l-778.043.072a1795.084 1795.084 0 0 1-7.394-11.15C92.7 959.471 69.15 913.345 50.95 867.044l938.977.063z" style="clip-rule:evenodd;fill:#963d97;fill-rule:evenodd;stroke:#963d97;stroke-width:6.28089;stroke-miterlimit:2.6131" transform="translate(1.3 .187) scale(.0134)"/><path stroke-miterlimit="2.613" d="M907.225 1015.04c-47.595 70.012-111.492 147.057-189.027 147.789-75.656.689-95.065-49.441-197.709-48.876-102.644.575-124.073 49.75-199.73 49.04-80.887-.75-143.697-76.416-191.577-147.882l778.043-.072z" style="clip-rule:evenodd;fill:#009ddc;fill-rule:evenodd;stroke:#009ddc;stroke-width:6.28089;stroke-miterlimit:2.6131" transform="translate(1.3 .187) scale(.0134)"/></svg>
