<svg xmlns="http://www.w3.org/2000/svg" width="16" height="16" viewBox="-48 -48 608 608"><path fill="#00b3e0" d="M253.81-11.462c149.125 0 268.77 120.04 268.77 267.915 0 149.615-119.645 269.655-268.77 269.655-147.39 0-267.036-120.04-267.036-269.655 0-147.876 119.646-267.915 267.036-267.915zm65.892 320.106c-29.478 38.274-83.232 45.232-119.646 15.657-36.414-27.835-41.616-81.766-12.138-120.04 31.212-36.533 84.966-43.492 121.38-15.657 36.415 29.575 41.617 83.506 10.404 120.04zm-142.188 175.71 102.306-99.163c-38.148 8.699-78.03 1.74-109.242-24.356-36.414-27.835-52.02-74.807-46.818-118.3L31.858 343.438S19.72 320.822 16.252 279.07l161.262-127c48.552-34.794 114.444-36.534 161.262 0 52.02 41.753 62.425 118.3 24.277 175.71L245.14 496.534c-17.34 0-52.02-5.22-67.626-12.178z" class="i-color" fill-rule="evenodd" clip-rule="evenodd"/></svg>