<svg viewBox="0 0 105.833 105.833" width="16" height="16" xmlns="http://www.w3.org/2000/svg"><path d="M28.716 5.06C15.66 5.06 5.06 15.66 5.06 28.716v48.402c0 13.056 10.6 23.655 23.656 23.655h48.402c13.057 0 23.655-10.6 23.655-23.656V28.715c0-13.056-10.6-23.655-23.655-23.655z" clip-rule="evenodd" fill="#e40046" fill-rule="evenodd" style="stroke-width:.904382"/><path style="line-height:normal;font-variant-ligatures:normal;font-variant-position:normal;font-variant-caps:normal;font-variant-numeric:normal;font-variant-alternates:normal;font-feature-settings:normal;text-indent:0;text-align:start;text-decoration-line:none;text-decoration-style:solid;text-decoration-color:#000;text-transform:none;text-orientation:mixed;white-space:normal;shape-padding:0;isolation:auto;mix-blend-mode:normal;solid-color:#000;solid-opacity:1;stroke-width:1.10351" d="M56.212 15.93a2.461 2.461 0 0 0-2.223 1.515L39.28 52.819a2.461 2.461 0 1 0 4.544 1.887L56.243 24.84l26.043 63.5a2.461 2.461 0 1 0 4.552-1.868L58.537 17.457a2.461 2.461 0 0 0-2.324-1.527z" color="#000" font-weight="400" font-family="sans-serif" clip-rule="evenodd" overflow="visible" fill="#fff" fill-rule="evenodd"/><path d="M35.365 66.104a2.461 2.461 0 0 0-2.234 1.55L25.314 86.46a2.461 2.461 0 1 0 4.545 1.89l7.818-18.807a2.461 2.461 0 0 0-2.312-3.438z" style="line-height:normal;font-variant-ligatures:normal;font-variant-position:normal;font-variant-caps:normal;font-variant-numeric:normal;font-variant-alternates:normal;font-feature-settings:normal;text-indent:0;text-align:start;text-decoration-line:none;text-decoration-style:solid;text-decoration-color:#000;text-transform:none;text-orientation:mixed;white-space:normal;shape-padding:0;isolation:auto;mix-blend-mode:normal;solid-color:#000;solid-opacity:1;stroke-width:1.10351" color="#000" font-weight="400" font-family="sans-serif" overflow="visible" fill="#fff"/><path style="line-height:normal;font-variant-ligatures:normal;font-variant-position:normal;font-variant-caps:normal;font-variant-numeric:normal;font-variant-alternates:normal;font-feature-settings:normal;text-indent:0;text-align:start;text-decoration-line:none;text-decoration-style:solid;text-decoration-color:#000;text-transform:none;text-orientation:mixed;white-space:normal;shape-padding:0;isolation:auto;mix-blend-mode:normal;solid-color:#000;solid-opacity:1;stroke-width:1.10351" d="M18.516 64.557a2.461 2.461 0 1 0 0 4.922h28.42a2.461 2.461 0 1 0 0-4.923zm5.203-11.684a2.461 2.461 0 1 0 0 4.92h28.417a2.461 2.461 0 1 0 0-4.92z" color="#000" font-weight="400" font-family="sans-serif" clip-rule="evenodd" overflow="visible" fill="#fff" fill-rule="evenodd"/></svg>