<svg xmlns="http://www.w3.org/2000/svg" viewBox="0 0 48 48" height="16" width="16"><path d="M24.353 1.882a14.169 12.58 0 0 1 14.17 12.58v16.41a1.615 1.434 0 0 1-1.004 1.317 35.396 31.43 0 0 1-26.332 0 1.615 1.434 0 0 1-1.003-1.318V14.463a14.169 12.58 0 0 1 14.17-12.581z" fill="#a86c4d"/><path d="M24.353 1.882a14.169 12.58 0 0 0-14.169 12.58v3.47a14.169 12.58 0 0 1 28.338 0v-3.47a14.169 12.58 0 0 0-14.169-12.58z" fill="#de926a"/><path fill="none" stroke="#45413c" d="M24.353 1.882a14.169 12.58 0 0 1 14.17 12.58v16.41a1.615 1.434 0 0 1-1.004 1.317 35.396 31.43 0 0 1-26.332 0 1.615 1.434 0 0 1-1.003-1.318V14.463a14.169 12.58 0 0 1 14.17-12.581z" stroke-width="1.227"/><path d="m34.173 32.56-9.82-3.284-9.819 3.318a8.803 7.817 0 0 0-5.665 7.297v6.73h30.968v-6.765a8.803 7.817 0 0 0-5.664-7.296z" fill="#4acfff"/><path d="m34.173 32.56-9.82-3.284-9.819 3.318a8.803 7.817 0 0 0-5.665 7.297v3.469a8.803 7.817 0 0 1 5.665-7.297l9.82-3.318 9.819 3.318a8.803 7.817 0 0 1 5.664 7.297v-3.47a8.803 7.817 0 0 0-5.664-7.33z" fill="#00b8f0"/><path fill="none" stroke="#45413c" d="m34.173 32.56-9.82-3.284-9.819 3.318a8.803 7.817 0 0 0-5.665 7.297v6.73h30.968v-6.765a8.803 7.817 0 0 0-5.664-7.296z" stroke-width="1.227"/><path fill="#009fd9" stroke="#45413c" d="M20.811 46.62 17.36 31.6l-1.563.532-2.474 5.053 3.165 1.087-1.954 1.515 3.256 6.834z"/><path transform="matrix(1.30228 0 0 1.15633 -6.902 -5.414)" fill="#fff" stroke="#45413c" stroke-linecap="round" stroke-linejoin="round" d="m24 29.97-5.37 2.04L21.28 45h5.44l2.65-12.99z"/><path fill="#009fd9" stroke="#45413c" d="m21.41 46.62-1.745-15.795-3.868 1.307-2.474 5.053 3.165 1.087-1.954 1.515 3.256 6.834zm5.886 0 1.746-15.795 3.867 1.307 2.475 5.053-3.165 1.087 1.954 1.515-3.256 6.834z"/><path d="M24.353 29.276s-6.511 0-6.511 3.26a12.945 11.494 0 0 0 2.813 6.672l3.698-2.81 3.764 2.81a12.945 11.494 0 0 0 2.813-6.672c0-3.26-6.577-3.26-6.577-3.26z" stroke-width="1.227" fill="#f0f0f0" stroke="#45413c" stroke-linecap="round" stroke-linejoin="round"/><path d="M24.353 26.003a3.308 2.937 0 0 0-3.307 2.949v3.295c0 1.62 3.307 4.152 3.307 4.152s3.308-2.533 3.308-4.152v-3.295a3.308 2.937 0 0 0-3.308-2.949z" fill="#ffcebf"/><path fill="#ffb59e" d="M24.353 26.003a3.308 2.937 0 0 0-3.307 2.937v.694a3.308 2.937 0 0 0 6.615 0v-.682a3.308 2.937 0 0 0-3.308-2.949z"/><path fill="none" stroke="#45413c" d="M24.353 26.003a3.308 2.937 0 0 0-3.307 2.949v3.295c0 1.62 3.307 4.152 3.307 4.152s3.308-2.533 3.308-4.152v-3.295a3.308 2.937 0 0 0-3.308-2.949z" stroke-width="1.227"/><path d="M33.07 19.46a8.72 8.72 0 0 1-5.68-5L26.77 13a15.9 15.9 0 0 1-9.95 6.17l-1.89.34a1.82 1.82 0 0 0 0 3.63h.12a9 9 0 0 0 17.9 0h.12a1.82 1.82 0 0 0 0-3.63z" fill="#ffcebf" stroke="#45413c" stroke-linecap="round" stroke-linejoin="round" transform="matrix(1.30228 0 0 1.15633 -6.902 -5.414)"/><path d="M17.282 18.764a1.003.89 0 0 0 2.005 0 1.003.89 0 1 0-2.005 0zm14.143 0a1.003.89 0 0 1-2.006 0 1.003.89 0 1 1 2.006 0z" stroke-width="1.227" fill="#45413c" stroke="#45413c" stroke-linecap="round" stroke-linejoin="round"/><path d="M20.655 24.188a.6.532 0 0 0-.43.173.56.497 0 0 0-.13.416 4.324 3.839 0 0 0 8.517 0 .56.497 0 0 0-.13-.416.586.52 0 0 0-.43-.173z" fill="#ff6242"/><path d="M24.353 25.807a5.352 4.753 0 0 0-3.281.89 4.35 3.862 0 0 0 6.511 0 5.352 4.753 0 0 0-3.23-.89z" fill="#ffa694"/><path fill="none" stroke="#45413c" d="M20.655 24.188a.6.532 0 0 0-.43.173.56.497 0 0 0-.13.416 4.324 3.839 0 0 0 8.517 0 .56.497 0 0 0-.13-.416.586.52 0 0 0-.43-.173z" stroke-width="1.227"/><ellipse fill="#ffb59e" cx="16.618" cy="22.557" rx="1.302" ry=".694"/><ellipse fill="#ffb59e" cx="32.089" cy="22.557" rx="1.302" ry=".694"/></svg>