<svg xmlns="http://www.w3.org/2000/svg" viewBox="0 0 48 48" height="16" width="16"><path d="m33.872 32.131-9.707-3.38-9.707 3.416a8.703 8.043 0 0 0-5.6 7.508V46.6h30.615v-6.96a8.703 8.043 0 0 0-5.6-7.509z" fill="#b8ecff"/><path fill="none" stroke="#45413c" stroke-width="1.238" d="M15.231 46.6v-2.868M33.1 46.6v-2.868"/><path d="m33.872 32.131-9.707-3.38-9.707 3.416a8.703 8.043 0 0 0-5.6 7.508v3.57a8.703 8.043 0 0 1 5.6-7.509l9.707-3.415 9.707 3.415a8.703 8.043 0 0 1 5.6 7.508v-3.57a8.703 8.043 0 0 0-5.6-7.543z" fill="#80ddff"/><path fill="none" stroke="#45413c" d="m33.872 32.131-9.707-3.38-9.707 3.416a8.703 8.043 0 0 0-5.6 7.508V46.6h30.615v-6.96a8.703 8.043 0 0 0-5.6-7.509z" stroke-width="1.238"/><path d="M24.165 28.752s-6.437 0-6.437 3.355a12.797 11.827 0 0 0 2.781 6.866l3.656-2.892 3.72 2.892a12.797 11.827 0 0 0 2.782-6.866c0-3.355-6.502-3.355-6.502-3.355z" stroke-width="1.238" fill="#80ddff" stroke="#45413c" stroke-linecap="round" stroke-linejoin="round"/><path d="M24.165 25.385a3.27 3.022 0 0 0-3.27 3.034v3.39c0 1.667 3.27 4.272 3.27 4.272s3.27-2.605 3.27-4.271v-3.391a3.27 3.022 0 0 0-3.27-3.034z" fill="#ffcebf"/><path fill="#ffb59e" d="M24.165 25.385a3.27 3.022 0 0 0-3.27 3.022v.714a3.27 3.022 0 0 0 6.54 0v-.702a3.27 3.022 0 0 0-3.27-3.034z"/><path fill="none" stroke="#45413c" d="M24.165 25.385a3.27 3.022 0 0 0-3.27 3.034v3.39c0 1.667 3.27 4.272 3.27 4.272s3.27-2.605 3.27-4.271v-3.391a3.27 3.022 0 0 0-3.27-3.034z" stroke-width="1.238"/><path stroke="#45413c" fill="#ff8a14" d="m25.543 40.044.965-2.142-2.343-1.82-2.343 1.82.966 2.142z"/><path transform="matrix(1.28743 0 0 1.18986 -6.733 -6.944)" fill="#ffe500" stroke="#45413c" stroke-linecap="round" stroke-linejoin="round" d="m26.07 45-1-5.51h-2.14l-1 5.51z"/><path stroke="#45413c" fill="#ff8a14" d="m22.131 43.399-.476 2.451 4.622-2.046-.4-2.059z"/><path d="M24.165 1.278a12.655 11.696 0 0 0-3.141.369c-2.395.5-5.51 1.333-8.33.833a5.407 4.997 0 0 0 1.082 3.82 12.63 11.672 0 0 0-2.253 6.663v6.115h25.285v-6.115A12.643 11.684 0 0 0 24.165 1.278z" fill="#a86c4d"/><path d="M24.165 1.278a12.655 11.696 0 0 0-3.141.369c-2.395.5-5.51 1.333-8.33.833a5.755 5.319 0 0 0 .876 3.57 24.976 23.083 0 0 0 7.454-.94 12.63 11.672 0 0 1 15.784 11.315v-3.462A12.643 11.684 0 0 0 24.165 1.278z" fill="#de926a"/><path fill="none" stroke="#45413c" d="M24.165 1.278a12.655 11.696 0 0 0-3.141.369c-2.395.5-5.51 1.333-8.33.833a5.407 4.997 0 0 0 1.082 3.82 12.63 11.672 0 0 0-2.253 6.663v6.115h25.285v-6.115A12.643 11.684 0 0 0 24.165 1.278z" stroke-width="1.238"/><path d="M38.16 18.186a2.356 2.177 0 0 0-1.79-1.832l-.76-.19a2.652 2.451 0 0 1-1.93-2.38v-2.428a2.42 2.237 0 0 0-1.79-2.153 19.75 18.252 0 0 1-7.725 1.297 19.75 18.252 0 0 1-7.724-1.297 2.42 2.237 0 0 0-1.803 2.153v2.451a2.652 2.451 0 0 1-1.93 2.38l-.76.19a2.356 2.177 0 0 0-1.79 1.833 2.33 2.154 0 0 0 2.33 2.38h.142a11.587 10.709 0 0 0 23.045 0h.141a2.33 2.154 0 0 0 2.344-2.404z" stroke-width="1.238" fill="#ffcebf" stroke="#45413c" stroke-linecap="round" stroke-linejoin="round"/><path d="M17.175 17.936a.991.916 0 1 0 .99-.916.978.904 0 0 0-.99.916zm13.981 0a.991.916 0 1 1-.991-.916.978.904 0 0 1 .991.916z" stroke-width="1.238" stroke="#45413c" stroke-linecap="round" stroke-linejoin="round" fill="#45413c"/><path d="M20.509 23.517a.566.524 0 0 0-.425.19.54.5 0 0 0-.129.416 4.274 3.95 0 0 0 8.42 0 .54.5 0 0 0-.129-.416.566.524 0 0 0-.424-.19z" fill="#ff6242"/><path d="M24.165 25.182a5.15 4.76 0 0 0-3.244.917 4.326 3.998 0 0 0 6.437 0 5.15 4.76 0 0 0-3.193-.917z" fill="#ffa694"/><path fill="none" stroke="#45413c" d="M20.509 23.517a.566.524 0 0 0-.425.19.54.5 0 0 0-.129.416 4.274 3.95 0 0 0 8.42 0 .54.5 0 0 0-.129-.416.566.524 0 0 0-.424-.19z"/><ellipse fill="#ffb59e" cx="16.518" cy="21.839" rx="1.287" ry=".714"/><ellipse fill="#ffb59e" cx="31.813" cy="21.839" rx="1.287" ry=".714"/></svg>