<svg xmlns="http://www.w3.org/2000/svg" viewBox="0 0 64 64" height="16" width="16"><g fill="#2196f3"><path d="M2.645 49.985s9.269-.2 12.582-2.223a8.922 8.293 0 0 1-3.29 2.012l15.86.211v.79a1.363 1.267 0 0 1-1.268 1.256l-8.372.522a5.107 4.747 0 0 0-4.784 4.725v4.447h37.075v-4.447a5.107 4.747 0 0 0-4.784-4.725l-8.371-.522a1.363 1.267 0 0 1-1.268-1.257v-.789l16.29-.2a8.898 8.271 0 0 1-3.362-2.023c3.325 2.012 12.582 2.223 12.582 2.223-4.784-2.157-7.774-22.234-7.774-22.234h-.06v-5.136A21.707 20.178 0 0 0 31.983 2.626a21.695 20.167 0 0 0-21.73 20.367l.059 5.447c-.574 3.535-3.444 19.622-7.666 21.545zm37.9-29.571c.527.967 4.57 8.293 8.181 8.237h2.835a.742.69 0 0 1 .155.423v6.459a4.198 3.902 0 0 1-3.91 3.869h-.371l-.144.333a11.398 10.595 0 0 1-5.836 5.859 39.683 36.887 0 0 1-3.851 1.412 17.725 16.476 0 0 1-2.5.567l-.79.11-.837.09h-2.99l-.897-.078-.765-.111a17.94 16.676 0 0 1-2.512-.567 39.683 36.887 0 0 1-3.85-1.412 11.398 10.595 0 0 1-5.837-5.859l-.144-.333h-.37a4.198 3.902 0 0 1-3.863-3.88v-6.448a.742.69 0 0 1 .155-.423h2.835s18.501 2.313 25.115-8.237zm-3.18 32.684 1.698.1c-.36.923-1.83 3.624-7.08 3.702-5.251.078-6.746-2.757-7.08-3.69l1.697-.112a2.571 2.39 0 0 0 2.392-2.368v-1.979a19.28 17.92 0 0 0 5.98 0v1.979a2.571 2.39 0 0 0 2.392 2.368z"/><path d="M24.806 31.086a1.196 1.112 0 0 0-1.196 1.112v3.335a1.196 1.112 0 0 0 2.392 0v-3.335a1.196 1.112 0 0 0-1.196-1.112zm13.156 1.112v3.335a1.196 1.112 0 0 0 2.392 0v-3.335a1.196 1.112 0 0 0-2.392 0z"/></g></svg>