<svg xmlns="http://www.w3.org/2000/svg" width="16" height="16" viewBox="0 0 32 32"><g stroke-width="2" fill="none"><path stroke="#9c8f3b" vector-effect="non-scaling-stroke" d="M25.75 22.97q-1.26-.51-2.48-.48"/><path stroke="#c8a599" vector-effect="non-scaling-stroke" d="M23.27 22.49q-.37-.45-.99-.5"/><path stroke="#cb9260" vector-effect="non-scaling-stroke" d="M22.28 21.99c-5.21-2.38 2.76-7.85 1.64-12.12q-.18-.68-.78-.32l-.24.14q-.59.35-.82-.29l-.99-2.7q-.27-.73-.82-.18-4.67 4.65-10.78 7.12a1 1 0 0 0-.45 1.48l3.01 4.55q.25.38.06.79-.41.89-1.12 1.37"/><path stroke="#c8a599" vector-effect="non-scaling-stroke" d="m10.99 21.83-1.4.73"/><path stroke="#9c8f3b" vector-effect="non-scaling-stroke" d="m9.59 22.56-4.56.96"/><path stroke="#cae099" vector-effect="non-scaling-stroke" d="m23.27 22.49-.24 8.97m-13.45-.01.01-8.89"/><path stroke="#fae3be" vector-effect="non-scaling-stroke" d="M22.28 21.99c-2.52 6.16-8.84 6.85-11.29-.16"/></g><path fill="#99543b" d="M25.75 22.97q-1.26-.51-2.48-.48-.37-.45-.99-.5c-5.21-2.38 2.76-7.85 1.64-12.12q-.18-.68-.78-.32l-.24.14q-.59.35-.82-.29l-.99-2.7q-.27-.73-.82-.18-4.67 4.65-10.78 7.12a1 1 0 0 0-.45 1.48l3.01 4.55q.25.38.06.79-.41.89-1.12 1.37l-1.4.73-4.56.96q1.64-4.76 1.59-9.82-.05-4.69.51-6.33c2.06-6.08 11.96-9.88 15.78-2.78 3.45 6.4 2.32 11.48 2.84 18.38Z"/><path fill="#fdcf85" d="M22.28 21.99c-2.52 6.16-8.84 6.85-11.29-.16q.71-.48 1.12-1.37.19-.41-.06-.79l-3.01-4.55a1 1 0 0 1 .45-1.48q6.11-2.47 10.78-7.12.55-.55.82.18l.99 2.7q.23.64.82.29l.24-.14q.6-.36.78.32c1.12 4.27-6.85 9.74-1.64 12.12Z"/><path fill="#f6f6f6" d="M10.99 21.83c2.45 7.01 8.77 6.32 11.29.16q.62.05.99.5l-.24 8.97-13.45-.01.01-8.89 1.4-.73Z"/><path fill="#9eca3b" d="M23.27 22.49q1.22-.03 2.48.48 4.72 1.45 5.64 6.6.11.58-.49.68l-7.87 1.21.24-8.97Zm-13.68.07-.01 8.89q-4.22.12-7.67-1.27-.53-.21-.43-.77.61-3.68 3.55-5.89l4.56-.96Z"/></svg>