<svg xmlns="http://www.w3.org/2000/svg" viewBox="0 0 48 48" height="16" width="16"><defs><style>.cls-3{fill:none}.cls-3,.cls-8{stroke:#45413c;stroke-linecap:round;stroke-linejoin:round}.cls-7{fill:#ffb59e}.cls-8{fill:#ff8a14}</style></defs><path d="M33.872 32.131l-9.707-3.38-9.707 3.416a8.703 8.043 0 00-5.6 7.508V46.6h30.615v-6.96a8.703 8.043 0 00-5.6-7.509z" stroke-width="1.238" fill="#b8ecff"/><path class="cls-3" stroke-width="1.238" d="M15.231 46.6v-2.868M33.1 46.6v-2.868"/><path d="M33.872 32.131l-9.707-3.38-9.707 3.416a8.703 8.043 0 00-5.6 7.508v3.57a8.703 8.043 0 015.6-7.509l9.707-3.415 9.707 3.415a8.703 8.043 0 015.6 7.508v-3.57a8.703 8.043 0 00-5.6-7.543z" stroke-width="1.238" fill="#80ddff"/><path class="cls-3" d="M33.872 32.131l-9.707-3.38-9.707 3.416a8.703 8.043 0 00-5.6 7.508V46.6h30.615v-6.96a8.703 8.043 0 00-5.6-7.509z" stroke-width="1.238"/><path d="M24.165 28.752s-6.437 0-6.437 3.355a12.797 11.827 0 002.781 6.866l3.656-2.892 3.72 2.892a12.797 11.827 0 002.782-6.866c0-3.355-6.502-3.355-6.502-3.355z" stroke-width="1.238" fill="#80ddff" stroke="#45413c" stroke-linecap="round" stroke-linejoin="round"/><path d="M24.165 25.385a3.27 3.022 0 00-3.27 3.034v3.39c0 1.667 3.27 4.272 3.27 4.272s3.27-2.605 3.27-4.271v-3.391a3.27 3.022 0 00-3.27-3.034z" stroke-width="1.238" fill="#ffcebf"/><path class="cls-7" d="M24.165 25.385a3.27 3.022 0 00-3.27 3.022v.714a3.27 3.022 0 006.54 0v-.702a3.27 3.022 0 00-3.27-3.034z" stroke-width="1.238"/><path class="cls-3" d="M24.165 25.385a3.27 3.022 0 00-3.27 3.034v3.39c0 1.667 3.27 4.272 3.27 4.272s3.27-2.605 3.27-4.271v-3.391a3.27 3.022 0 00-3.27-3.034z" stroke-width="1.238"/><path class="cls-8" d="M25.543 40.044l.965-2.142-2.343-1.82-2.343 1.82.966 2.142z"/><path transform="matrix(1.28743 0 0 1.18986 -6.733 -6.944)" fill="#ffe500" stroke="#45413c" stroke-linecap="round" stroke-linejoin="round" d="M26.07 45l-1-5.51h-2.14l-1 5.51z"/><path class="cls-8" d="M22.131 43.399l-.476 2.451 4.622-2.046-.4-2.059z"/><path d="M24.165 1.278a12.655 11.696 0 00-3.141.369c-2.395.5-5.51 1.333-8.33.833a5.407 4.997 0 001.082 3.82 12.63 11.672 0 00-2.253 6.663v6.115h25.285v-6.115A12.643 11.684 0 0024.165 1.278z" stroke-width="1.238" fill="#a86c4d"/><path d="M24.165 1.278a12.655 11.696 0 00-3.141.369c-2.395.5-5.51 1.333-8.33.833a5.755 5.319 0 00.876 3.57 24.976 23.083 0 007.454-.94 12.63 11.672 0 0115.784 11.315v-3.462A12.643 11.684 0 0024.165 1.278z" fill="#de926a"/><path class="cls-3" d="M24.165 1.278a12.655 11.696 0 00-3.141.369c-2.395.5-5.51 1.333-8.33.833a5.407 4.997 0 001.082 3.82 12.63 11.672 0 00-2.253 6.663v6.115h25.285v-6.115A12.643 11.684 0 0024.165 1.278z" stroke-width="1.238"/><path d="M38.16 18.186a2.356 2.177 0 00-1.79-1.832l-.76-.19a2.652 2.451 0 01-1.93-2.38v-2.428a2.42 2.237 0 00-1.79-2.153 19.75 18.252 0 01-7.725 1.297 19.75 18.252 0 01-7.724-1.297 2.42 2.237 0 00-1.803 2.153v2.451a2.652 2.451 0 01-1.93 2.38l-.76.19a2.356 2.177 0 00-1.79 1.833 2.33 2.154 0 002.33 2.38h.142a11.587 10.709 0 0023.045 0h.141a2.33 2.154 0 002.344-2.404z" stroke-width="1.238" fill="#ffcebf" stroke="#45413c" stroke-linecap="round" stroke-linejoin="round"/><path d="M17.175 17.936a.991.916 0 10.99-.916.978.904 0 00-.99.916zm13.981 0a.991.916 0 11-.991-.916.978.904 0 01.991.916z" stroke-width="1.238" stroke="#45413c" stroke-linecap="round" stroke-linejoin="round" fill="#45413c"/><path d="M20.509 23.517a.566.524 0 00-.425.19.54.5 0 00-.129.416 4.274 3.95 0 008.42 0 .54.5 0 00-.129-.416.566.524 0 00-.424-.19z" fill="#ff6242"/><path d="M24.165 25.182a5.15 4.76 0 00-3.244.917 4.326 3.998 0 006.437 0 5.15 4.76 0 00-3.193-.917z" fill="#ffa694"/><path class="cls-3" d="M20.509 23.517a.566.524 0 00-.425.19.54.5 0 00-.129.416 4.274 3.95 0 008.42 0 .54.5 0 00-.129-.416.566.524 0 00-.424-.19z"/><ellipse class="cls-7" cx="16.518" cy="21.839" rx="1.287" ry=".714" stroke-width="1.238"/><ellipse class="cls-7" cx="31.813" cy="21.839" rx="1.287" ry=".714" stroke-width="1.238"/></svg>