<svg xmlns="http://www.w3.org/2000/svg" width="16" height="16" viewBox="0 0 16 16"><g fill="none" fill-rule="evenodd"><path fill="#231F20" fill-opacity=".7" d="M8.416 13.896c0-.157.021-.578.021-.757 0-.82-.31-1.155-1.168-1.155H7v-.969h.269c.858 0 1.168-.347 1.168-1.167 0-.179-.021-.598-.021-.757 0-1.071.466-1.744 2.349-2.09l.216.84c-1.241.347-1.406.673-1.406 1.44 0 .211.021.557.021.778 0 .82-.393 1.22-1.076 1.442.693.23 1.076.62 1.076 1.44 0 .22-.021.566-.021.777 0 .768.165 1.094 1.406 1.44l-.216.842c-1.883-.348-2.349-1.02-2.349-2.104m3.603 1.262c1.24-.347 1.406-.673 1.406-1.439 0-.21-.02-.558-.02-.779 0-.82.392-1.22 1.075-1.44-.692-.232-1.075-.62-1.075-1.44 0-.22.02-.568.02-.779 0-.768-.165-1.093-1.406-1.44l.217-.84c1.883.345 2.348 1.018 2.348 2.091 0 .158-.021.578-.021.756 0 .821.31 1.167 1.169 1.167H16v.968h-.268c-.86 0-1.17.336-1.17 1.156 0 .18.022.6.022.757 0 1.083-.465 1.756-2.348 2.104l-.217-.842z"/><path fill="#9AA7B0" fill-opacity=".8" d="M7 1L3 5h4zm3.596 11.94c0 .122-.011 1.01-.005 1.035l.002-.002c.03 0 .907.292.907.292s.872-.289.925-.325c-.007-.013-.02-.878-.02-1 0-.449.089-.975.404-1.437-.27-.39-.404-.873-.404-1.444 0-.122.01-1.01.004-1.035l-.001.001c-.031 0-.908-.29-.908-.29s-.872.288-.925.323c.007.014.02.88.02 1.001 0 .45-.09.974-.403 1.437.268.39.404.872.404 1.444"/><path fill="#9AA7B0" fill-opacity=".8" d="M7.416 13.896c0-.084.019-.868.016-.905-.04-.005-1.432-.008-1.432-.008v-2.968s1.391-.003 1.431-.008c.004-.038-.015-.83-.015-.915 0-2.21 1.692-2.804 3.168-3.076l.916-.168.916.168c.192.035.389.077.584.127V1H8v5H3v9h4.609a3.214 3.214 0 01-.193-1.104"/></g><path d="M12.24 15.893a8.605 8.605 0 01-.106-.387c-.079-.307-.031-.41.19-.413.157-.002.723-.323.896-.509.16-.17.172-.236.207-1.142.05-1.267.18-1.539.877-1.832l.211-.089-.388-.232c-.578-.344-.658-.543-.702-1.745l-.035-.972-.246-.225a2.376 2.376 0 00-.661-.377c-.228-.083-.415-.164-.415-.18 0-.092.161-.673.198-.715.057-.064.954.182 1.291.354.4.204.657.452.822.794.132.273.154.436.164 1.205.013.97.071 1.181.39 1.417.129.095.324.147.627.167l.44.028v.918l-.44.027c-.488.031-.75.175-.908.497-.063.128-.1.49-.11 1.079-.009.487-.05.974-.094 1.082-.263.655-.717.943-2.058 1.307-.066.018-.133-.008-.15-.057zm-1.935-.023c-.848-.206-1.4-.544-1.642-1.003-.127-.241-.155-.431-.188-1.267-.031-.803-.062-1.023-.169-1.202-.168-.282-.475-.425-.91-.425h-.345v-.949h.356c.402 0 .718-.157.91-.45.097-.148.129-.383.159-1.173.032-.846.06-1.029.189-1.276.239-.454 1.03-.898 1.884-1.055.204-.038.211-.03.288.302.043.187.078.364.078.394 0 .029-.179.118-.398.198-.827.302-.957.53-.96 1.685 0 .633-.027.856-.127 1.078-.13.283-.459.582-.735.666-.219.067-.19.136.115.273.592.267.75.624.75 1.697 0 1.137.132 1.368.957 1.67.219.08.398.169.398.198 0 .135-.163.741-.198.736a13.971 13.971 0 01-.412-.096z" fill="#59f"/></svg>