<svg xmlns="http://www.w3.org/2000/svg" width="16" height="16" viewBox="0 0 16 16"><g fill="#9AA7B0" fill-rule="evenodd"><path d="M8.416 13.896c0-.157.021-.578.021-.757 0-.82-.31-1.155-1.168-1.155H7v-.969h.269c.858 0 1.168-.347 1.168-1.167 0-.179-.021-.598-.021-.757 0-1.071.466-1.744 2.349-2.09l.216.84c-1.241.347-1.406.673-1.406 1.44 0 .211.021.557.021.778 0 .82-.393 1.22-1.076 1.442.693.23 1.076.62 1.076 1.44 0 .22-.021.566-.021.777 0 .768.165 1.094 1.406 1.44l-.216.842c-1.883-.348-2.349-1.02-2.349-2.104m3.603 1.262c1.24-.347 1.406-.673 1.406-1.439 0-.21-.02-.558-.02-.779 0-.82.392-1.22 1.075-1.44-.692-.232-1.075-.62-1.075-1.44 0-.22.02-.568.02-.779 0-.768-.165-1.093-1.406-1.44l.217-.84c1.883.345 2.348 1.018 2.348 2.091 0 .158-.021.578-.021.756 0 .821.31 1.167 1.169 1.167H16v.968h-.268c-.86 0-1.17.336-1.17 1.156 0 .18.022.6.022.757 0 1.083-.465 1.756-2.348 2.104l-.217-.842z"/><path fill-opacity=".8" d="M7 1 3 5h4zm3.596 11.94c0 .122-.011 1.01-.005 1.035l.002-.002c.03 0 .907.292.907.292s.872-.289.925-.325c-.007-.013-.02-.878-.02-1 0-.449.089-.975.404-1.437-.27-.39-.404-.873-.404-1.444 0-.122.01-1.01.004-1.035l-.001.001c-.031 0-.908-.29-.908-.29s-.872.288-.925.323c.007.014.02.88.02 1.001 0 .45-.09.974-.403 1.437.268.39.404.872.404 1.444"/><path fill-opacity=".8" d="M7.416 13.896c0-.084.019-.868.016-.905-.04-.005-1.432-.008-1.432-.008v-2.968s1.391-.003 1.431-.008c.004-.038-.015-.83-.015-.915 0-2.21 1.692-2.804 3.168-3.076l.916-.168.916.168c.192.035.389.077.584.127V1H8v5H3v9h4.609a3.214 3.214 0 0 1-.193-1.104"/></g><path d="M10.098 15.814c-.825-.244-1.32-.6-1.523-1.095-.031-.075-.074-.585-.097-1.133-.035-.859-.06-1.023-.18-1.186-.193-.264-.546-.427-.925-.427H7.05v-.949h.322c.38 0 .732-.163.926-.427.12-.164.144-.324.176-1.186.05-1.312.184-1.59.963-1.988.24-.122 1.277-.425 1.309-.382.022.03.168.65.168.714 0 .033-.209.143-.465.243-.782.307-.89.507-.892 1.657-.001.632-.028.85-.13 1.076-.127.278-.605.7-.794.7-.148 0-.105.122.06.172.277.084.607.383.736.667.1.22.127.445.128 1.071.002 1.15.11 1.35.892 1.657.256.1.465.206.465.235 0 .192-.172.74-.232.736a6.572 6.572 0 0 1-.585-.155z" fill="#3771c8"/><path d="M12.239 15.888a7.071 7.071 0 0 1-.17-.672c-.001-.025.144-.094.32-.153.458-.152.744-.343.9-.598.113-.186.134-.343.135-1 0-.43.032-.894.07-1.032a1.19 1.19 0 0 1 .671-.763c.152-.069.276-.146.276-.172 0-.026-.124-.103-.276-.171a1.188 1.188 0 0 1-.67-.763c-.039-.139-.07-.603-.071-1.032 0-.658-.022-.814-.135-1-.156-.256-.442-.446-.9-.598-.176-.06-.321-.122-.321-.14 0-.095.16-.676.198-.719.058-.065.955.183 1.298.358.782.399.963.77.981 2.01.012.74.036.933.144 1.119.17.296.513.461.955.462H16v.933l-.44.028c-.488.031-.75.175-.908.496-.062.128-.097.482-.105 1.079-.009.733-.035.94-.15 1.195-.232.512-.708.835-1.592 1.08-.588.163-.531.158-.566.053zm-2.292-.15c-.635-.22-1.095-.536-1.288-.884-.041-.074-.11-.617-.153-1.206-.063-.881-.1-1.103-.211-1.254-.19-.259-.545-.42-.922-.421H7.05v-.933l.408-.03c.69-.05 1.015-.424 1.016-1.173.001-.65.12-1.506.246-1.772.15-.314.583-.59 1.266-.806.743-.235.762-.232.842.171l.067.34-.514.254c-.735.363-.77.431-.834 1.576-.034.609-.089 1.019-.153 1.143-.117.227-.513.589-.713.652-.193.062-.175.161.047.245.23.087.54.374.669.62.06.118.116.54.15 1.136.064 1.143.1 1.212.827 1.576.542.27.571.326.403.768-.079.207-.227.207-.831-.002z" fill="#80b3ff"/></svg>