<svg xmlns="http://www.w3.org/2000/svg" width="16px" height="16px" viewBox="0 0 16 16" version="1.1"><path fill="#f9dc3e" d="M 10.379596,0.156 C 9.3302497,0.245439 7.9630199,0.617722 6.277868,1.2689525 5.8149242,1.6052889 5.2871941,1.9367335 4.6946532,2.2669523 l 0.00523,0.1045026 c 0.040156,-0.0031 0.091946,-0.020439 0.1567552,-0.057475 0.067898,-0.00621 0.1088345,0.02183 0.1149535,0.083602 l 0.1045041,-0.057475 0.05225,-0.00522 v 0.052251 c 0.00309,0.049373 -0.3639505,0.3322882 -1.1077288,0.8569112 l 0.062699,0.094052 -0.05225,0.00522 -0.1149536,-0.041801 c 0.0031,0.030849 -0.048679,0.053476 -0.1567552,0.0627 l 0.00522,0.057475 0.1201778,0.1358526 c -0.040076,0.0031 -0.091053,-0.011932 -0.1619794,-0.036576 -0.2407784,0.021536 -0.4791452,0.1953828 -0.7106172,0.522513 l 0.057486,0.094065 C 3.2702608,3.9523511 3.3910086,3.8585006 3.4249472,3.8553916 l 0.01045,0.1515299 c -0.033958,0.00302 -0.085747,0.025629 -0.1567539,0.0627 L 3.4040459,4.257725 C 3.6430398,3.9994549 3.9128569,3.7741963 4.208716,3.5836831 c 0.1450416,0.037047 0.2268973,0.081245 0.2299071,0.1306282 l 0.1097283,-0.01046 C 5.3446216,3.1143516 6.1292817,2.6912526 6.910109,2.4289313 L 6.92057,2.5334325 C 6.7754487,2.7494604 6.6752095,2.8617233 6.6227364,2.8678409 6.628943,2.9419565 6.6548399,3.0055904 6.7011132,3.0611717 6.7134191,3.1938773 6.3594501,4.087441 5.6404018,5.7416638 4.007742,9.5871263 2.6371544,12.434899 1.523,14.274299 c 0.00311,0.03708 0.022625,0.08459 0.062702,0.146311 0.2747175,-0.06482 0.4483978,-0.133684 0.5225129,-0.198558 l 0.057477,-0.0054 0.01045,0.104498 0.1045025,-0.0054 0.1045025,-0.06271 c 0.00311,0.03085 0.033497,0.04799 0.1045026,0.04182 l 0.01045,0.104494 c 0.00923,0.101848 -0.04895,0.257334 -0.1724292,0.470261 -0.1110822,0.126594 -0.2288016,0.389889 -0.3553087,0.79422 v 0.05225 l 0.1045016,-0.01043 c 0.4444112,-0.496642 0.7769791,-0.98231 1.0084512,-1.457568 1.2962433,-0.379604 2.2879289,-0.756217 2.9730985,-1.123402 0.6881981,-0.05869 1.2094797,-0.23882 1.5675397,-0.538189 l -0.00522,-0.05748 -0.2560319,0.07838 -0.062701,0.0052 -0.00522,-0.05747 c 0.5060931,-0.07712 0.85573,-0.18538 1.050235,-0.339629 0.9844624,-0.759183 1.7280553,-1.296561 2.2311353,-1.614464 1.033941,-0.7592029 1.669532,-1.4389303 1.975099,-2.1579784 l 0.0052,-0.026125 c 0,-0.00175 0,-0.00342 0,-0.00522 -2.02e-4,-0.00503 2.03e-4,-0.010647 0,-0.015675 l 0.0052,-0.00522 0.21424,-1.0816173 C 12.759496,7.1919209 12.412124,6.7688226 11.748577,6.0342704 11.736263,5.892339 11.970398,5.6861447 12.448746,5.417705 l 1.353308,-1.1913291 c 0.302478,-0.3888287 0.484723,-1.0126458 0.543414,-1.8705965 l -0.0209,-0.1985556 C 14.272095,1.5523685 13.831927,1.065456 13.007835,0.688963 12.52024,0.3587444 11.644988,0.1837403 10.379596,0.156 Z m 2.173653,8.2870546 c 0.002,0 0.0032,-1.5e-6 0.0052,0 0,-0.0035 0,-0.00701 0,-0.01046 -0.0026,0.00289 -0.0025,0.0076 -0.0052,0.01046 z M 12.015061,0.8248199 c 1.006181,0.03396 1.524122,0.2098343 1.551864,0.527738 l -0.04703,0.099276 z M 9.820506,1.6712902 9.830966,1.8175925 C 10.315523,1.7434955 10.617622,1.7014948 10.734902,1.692188 11.63,1.615064 12.098169,1.7951928 12.135237,2.2303764 l 0.09928,-0.01046 -0.02089,-0.2560311 0.109728,-0.00522 c 0.26232,0.1450208 0.404701,0.320998 0.423235,0.527738 0.01231,0.1420113 -0.06635,0.3178289 -0.229903,0.5277382 -0.06792,0.00613 -0.103612,-0.047537 -0.109729,-0.1463048 l -0.114954,0.01046 -0.02089,0.3082828 C 11.817394,3.8655461 11.487192,4.213087 11.283541,4.2316009 11.098364,4.4877247 10.979813,4.6151515 10.933458,4.6182604 10.791527,4.7879329 10.403961,5.0782694 9.768255,5.4856317 9.5583252,5.5041719 8.779141,5.8074901 7.4273965,6.4000299 7.3598186,6.3691612 7.2871798,6.3568754 7.2131674,6.3634545 L 7.2027067,6.2694007 C 7.1872922,6.074997 7.2725976,5.8289386 7.4639712,5.5326585 7.5688574,4.977085 7.682324,4.6588284 7.8088313,4.5816845 L 8.9374585,2.0474967 C 8.9251535,1.89006 9.1647336,1.7702847 9.658526,1.6869628 Z m 3.573988,0.2560288 c 0.09875,-0.0092 0.200308,0.150473 0.308283,0.4807114 l 0.01046,0.094052 c -0.05249,0.00621 -0.157125,-0.1566104 -0.308284,-0.480712 z m -6.3224063,1.6041139 0.01046,0.1515298 c -0.049363,0.0031 -0.113016,0.077444 -0.193331,0.2194548 L 6.878756,3.7979136 C 6.9744142,3.6837413 7.026034,3.5983574 7.0198335,3.5366577 Z m -3.2813813,0.083602 0.00522,0.047026 c -0.033959,0.00308 -0.088837,0.022553 -0.156754,0.062703 l -0.052251,0.00522 -0.01045,-0.099277 z m 2.7797691,0.9771012 0.020893,0.1985556 -0.05225,0.00522 L 6.5182245,4.597356 Z M 6.4398475,4.9578957 C 6.4305375,5.1245593 6.3820915,5.2130331 6.29877,5.2191521 l -0.052251,0.00522 C 6.311327,5.1132899 6.341464,5.0269322 6.335347,4.968341 Z m -0.219455,0.5277369 0.00522,0.05225 -0.099277,0.1567551 -0.099277,0.01046 -0.00522,-0.047026 c 0.1018546,-0.0092 0.1503847,-0.065349 0.1410779,-0.1672046 z m -0.2299039,0.4807112 -0.031352,0.2508059 -0.05225,0.00522 -0.020894,-0.2508069 z m 5.5020574,0.1828909 0.229907,0.1306164 c 0.0093,0.070929 -0.02311,0.1087557 -0.09405,0.1149546 -0.09265,-0.061779 -0.169096,-0.091936 -0.224678,-0.088827 L 11.393265,6.1544488 Z M 7.1818159,6.7292178 7.1922769,6.8232688 6.978047,6.8441618 6.967586,6.7448858 Z m 3.4799371,0.3552935 c 0.148128,0.071007 0.223684,0.1325249 0.229902,0.1881045 l 0.0052,0.047024 C 10.75486,7.3319459 10.620071,7.2606507 10.499763,7.100185 Z m 1.68249,0.1567552 c 0.09877,0.040154 0.154869,0.085247 0.167205,0.1254022 l -0.04703,0.01046 v 0.00522 c -0.0092,0 -0.01691,0.00214 -0.02614,0.00522 l -0.07838,0.057475 z m -2.9574235,0.05225 c 0.6635465,-0.05859 1.1620335,0.072839 1.4891625,0.381435 l 0.01568,0.1985538 C 10.64785,8.5803075 10.374934,8.9967891 10.081763,9.1170973 L 8.7232294,10.198698 C 7.7109306,10.862244 7.1680757,11.195726 7.087763,11.201924 5.4768064,12.087635 4.472142,12.5474 4.083313,12.581359 l -0.057475,0.0052 C 4.0752203,12.404495 4.7897986,10.935724 6.17859,8.1765735 6.7896448,8.1241012 7.7564204,7.8433026 9.068088,7.3248776 Z m 3.1455285,0.3030567 0.01046,0.0418 -0.13063,0.031353 -0.01046,-0.041802 z m -4.8907205,0.00522 0.00522,0.047027 -0.2194585,0.02089 -0.00522,-0.052251 z M 4.2557428,10.888416 c -0.067898,0.345643 -0.142252,0.52154 -0.2194547,0.527737 v -0.04703 c -0.018513,-0.169754 0.052791,-0.332582 0.2194547,-0.480712 z m 4.603339,0.21423 0.01046,0.09405 c 0.00308,0.04628 -0.1490287,0.174866 -0.4545958,0.397111 -0.9011355,0.444411 -1.431003,0.746591 -1.5884388,0.903947 -0.9752316,0.339527 -1.461894,0.5489 -1.4525869,0.632243 -0.8672778,0.342611 -1.4391849,0.594961 -1.713842,0.752418 -0.064788,0.0062 -0.1534536,-0.01766 -0.2769319,-0.07314 -0.015426,-0.175898 0.060153,-0.31429 0.2299056,-0.42846 0.151239,-0.01231 0.3000078,0.0094 0.4389108,0.06793 0.1604649,-0.08333 0.4378851,-0.178173 0.8360212,-0.276929 l -0.00522,-0.104504 -0.3239578,0.02614 c 0.040075,-0.05548 0.3498685,-0.199125 0.9300729,-0.433684 l 0.1619793,-0.01568 v 0.04703 c -0.274657,0.02464 -0.4258732,0.105687 -0.4598112,0.250807 0.00613,0.06479 0.047037,0.09502 0.1149536,0.08882 0.206819,-0.129616 0.3060863,-0.208283 0.303058,-0.229903 0.3919079,-0.07405 1.4754088,-0.639616 3.2500205,-1.698188 z m -4.9220716,0.475486 0.00522,0.04703 c 0.00621,0.06792 -0.026164,0.106718 -0.094052,0.109728 v -0.04703 c -0.00621,-0.05859 0.02092,-0.0943 0.088828,-0.109728 z m 2.4244605,0.600891 c 0.074114,-0.0062 0.1119431,0.02402 0.1149534,0.08883 -0.1265088,0.01241 -0.3713426,0.11502 -0.726294,0.318732 l -0.05225,0.0052 -0.00522,-0.104504 c 0.2592115,-0.02162 0.4837192,-0.126194 0.6688169,-0.308283 z m -2.3565338,0.809897 0.01046,0.05747 c -0.040155,0.003 -0.091946,0.02566 -0.1567551,0.0627 l -0.1045032,0.0052 c -0.00613,-0.05249 0.029243,-0.09121 0.094051,-0.109728 z m -1.2331308,0.616564 0.1097276,0.04703 c -0.037068,0.308598 -0.1309179,0.463152 -0.282157,0.475488 -0.1234183,-0.05559 -0.2335458,-0.07715 -0.3291832,-0.06793 l -0.01045,-0.151522 c -0.0062,-0.05859 0.025182,-0.09952 0.099277,-0.114956 0.067837,-0.0062 0.108755,0.04754 0.1149528,0.146311 0.1789796,-0.219131 0.2793185,-0.331301 0.2978322,-0.33441 z"/></svg>
