<svg xmlns="http://www.w3.org/2000/svg" width="16" height="16" viewBox="0 0 16 16" version="1.1"><path fill="#000000" d="M 10.457974,0.3493297 C 9.408628,0.4387692 8.0413975,0.8110519 6.3562447,1.4622827 5.8933007,1.7986191 5.3655704,2.130064 4.7730293,2.4602829 l 0.00523,0.1045027 c 0.040156,-0.0031 0.091946,-0.020439 0.1567552,-0.057476 0.067898,-0.00621 0.1088345,0.02183 0.1149535,0.083602 l 0.1045042,-0.057475 0.05225,-0.00522 v 0.052254 c 0.00309,0.049374 -0.3639507,0.3322884 -1.1077293,0.8569116 l 0.062699,0.094052 -0.05225,0.00522 -0.1149537,-0.041801 c 0.0031,0.030849 -0.048679,0.053476 -0.1567552,0.0627 l 0.00522,0.057475 0.1201778,0.1358526 C 3.9230489,3.753981 3.8720709,3.738946 3.8011446,3.714302 3.5603661,3.735838 3.3219993,3.9096849 3.0905272,4.2368153 l 0.057486,0.094065 C 3.3486363,4.1456824 3.4693841,4.0518317 3.5033227,4.0487228 l 0.01045,0.15153 c -0.033958,0.00302 -0.085747,0.025629 -0.156754,0.0627 L 3.4824214,4.4510564 C 3.7214154,4.1927861 3.9912326,3.9675275 4.2870918,3.7770142 4.4321335,3.8140614 4.5139892,3.8582596 4.516999,3.9076425 L 4.6267274,3.897182 C 5.4229979,3.3076825 6.2076583,2.8845834 6.9884859,2.622262 l 0.010461,0.1045012 c -0.1451213,0.216028 -0.2453606,0.328291 -0.2978337,0.3344085 0.00621,0.074116 0.032104,0.1377496 0.078377,0.193331 0.012306,0.1327055 -0.3416633,1.0262696 -1.0607118,2.680493 -1.6326606,3.8454645 -3.0032487,6.6932373 -4.1174035,8.5326383 0.00311,0.03708 0.022625,0.08459 0.062702,0.146311 0.2747177,-0.06482 0.4483979,-0.133684 0.5225131,-0.198558 l 0.057477,-0.0054 0.01045,0.104496 0.1045026,-0.0054 0.1045025,-0.06271 c 0.00311,0.03085 0.033497,0.04799 0.1045027,0.04182 l 0.01045,0.104495 c 0.00923,0.101848 -0.04895,0.257333 -0.1724292,0.470261 -0.1110823,0.126594 -0.2288017,0.389889 -0.3553089,0.79422 v 0.05225 l 0.1045022,-0.01043 c 0.4444114,-0.496642 0.7769794,-0.98231 1.0084516,-1.457568 1.2962438,-0.379604 2.2879298,-0.756217 2.9730997,-1.123402 0.6881983,-0.05869 1.2094802,-0.238821 1.5675405,-0.53819 l -0.00522,-0.05748 -0.2560327,0.07838 -0.062701,0.0052 -0.00522,-0.05747 c 0.5060986,-0.07702 0.8557355,-0.185278 1.0502406,-0.339527 0.9844585,-0.759284 1.7280514,-1.296662 2.2311324,-1.614565 1.033941,-0.759203 1.669533,-1.4389311 1.9751,-2.1579792 l 0.0052,-0.026125 c 0,-0.00175 0,-0.00342 0,-0.00522 -2.03e-4,-0.00503 2.02e-4,-0.010648 0,-0.015675 l 0.0052,-0.00522 0.214241,-1.0816176 C 12.837876,7.3852532 12.490503,6.9621549 11.826956,6.2276024 11.814643,6.085671 12.048777,5.8794766 12.527126,5.6110368 l 1.353308,-1.1913295 c 0.302478,-0.388829 0.484724,-1.0126462 0.543415,-1.8705974 l -0.0209,-0.1985556 C 14.350475,1.7456988 13.910307,1.2587861 13.086215,0.882293 12.59862,0.5520742 11.723367,0.37707 10.457974,0.3493297 Z m 2.173655,8.2870581 c 0.002,0 0.0032,-1.5e-6 0.0052,0 0,-0.0035 0,-0.00701 0,-0.01046 -0.0026,0.00289 -0.0025,0.0076 -0.0052,0.01046 z M 12.09344,1.0181499 c 1.006182,0.03396 1.524123,0.2098344 1.551864,0.5277382 l -0.04703,0.099276 z m -2.194555,0.8464706 0.01046,0.1463024 c 0.484557,-0.074097 0.786656,-0.1160977 0.903936,-0.1254046 0.8951,-0.077124 1.363268,0.1030049 1.400336,0.5381886 l 0.09928,-0.01046 -0.02089,-0.2560312 0.109729,-0.00522 c 0.26232,0.1450208 0.404701,0.3209981 0.423234,0.5277381 0.01231,0.1420113 -0.06635,0.3178292 -0.229903,0.5277385 -0.06792,0.00613 -0.103611,-0.047537 -0.109728,-0.146305 l -0.114955,0.01046 -0.02089,0.3082828 C 11.895774,4.0588773 11.565571,4.4064183 11.36192,4.4249323 11.176743,4.6810561 11.058192,4.808483 11.011837,4.8115919 10.869906,4.9812645 10.482339,5.2716011 9.846633,5.6789635 9.636704,5.6975037 8.8575185,6.000822 7.5057744,6.5933622 7.4381961,6.5624933 7.3655569,6.5502077 7.2915445,6.5567867 L 7.2810837,6.4627329 C 7.2656692,6.2683291 7.3509747,6.0222707 7.5423487,5.7259903 7.647235,5.1704167 7.7607016,4.85216 7.8872088,4.775016 L 9.0158361,2.2408271 C 9.0035311,2.0833904 9.2431119,1.9636151 9.736905,1.8802931 Z m 3.573988,0.256029 c 0.09875,-0.0092 0.200309,0.150473 0.308285,0.4807115 l 0.01046,0.094052 c -0.05249,0.00621 -0.157126,-0.1566103 -0.308285,-0.480712 z m -6.3224083,1.6041144 0.01046,0.1515299 c -0.049363,0.0031 -0.113016,0.077444 -0.1933311,0.2194549 L 6.9571329,3.9912447 C 7.0527912,3.8770725 7.104411,3.7916886 7.0982105,3.7299887 Z m -3.2813826,0.083602 0.00522,0.047026 C 3.8403431,3.8584719 3.785465,3.877945 3.717548,3.918095 L 3.665297,3.923315 3.654847,3.824039 Z m 2.7797702,0.9771016 0.020893,0.1985555 -0.05225,0.00522 -0.020894,-0.1985558 z M 6.5182243,5.1512272 C 6.5089143,5.317891 6.4604683,5.4063648 6.3771467,5.4124837 l -0.052251,0.00522 c 0.064808,-0.1110822 0.094945,-0.19744 0.088828,-0.2560313 z m -0.2194552,0.5277372 0.00522,0.05225 -0.099277,0.1567553 -0.099277,0.01046 -0.00522,-0.047026 c 0.1018547,-0.0092 0.1503848,-0.065349 0.141078,-0.1672048 z m -0.229904,0.4807113 -0.031352,0.2508061 -0.05225,0.00522 -0.020894,-0.2508071 z m 5.5020599,0.1828911 0.229907,0.1306164 c 0.0093,0.070929 -0.02312,0.1087558 -0.09405,0.1149547 -0.09265,-0.06178 -0.169096,-0.091936 -0.224678,-0.088827 l -0.01046,-0.15153 z M 7.2601929,6.9225502 7.2706537,7.016601 7.0564238,7.037494 7.045963,6.938218 Z m 3.4799391,0.3552936 c 0.148127,0.071007 0.223684,0.1325251 0.229902,0.1881045 l 0.0052,0.047024 C 10.833239,7.5252788 10.69845,7.4539835 10.578141,7.2935174 Z m 1.682491,0.1567552 c 0.09877,0.040154 0.154868,0.085249 0.167205,0.1254022 l -0.04703,0.01046 v 0.00522 c -0.0092,0 -0.01691,0.00214 -0.02614,0.00522 l -0.07838,0.057475 z m -2.9574252,0.05225 c 0.6635462,-0.05859 1.1620332,0.072839 1.4891632,0.3814352 l 0.01568,0.1985538 c -0.24381,0.7068027 -0.516727,1.1232842 -0.809897,1.2435924 L 8.8016069,10.392031 C 7.7893081,11.055577 7.2464527,11.38906 7.16614,11.395258 5.5551828,12.280969 4.5505179,12.740734 4.1616888,12.774693 l -0.057475,0.0052 C 4.1535961,12.597829 4.8681747,11.129058 6.2569667,8.3699067 6.8680217,8.3174343 7.8347979,8.0366357 9.1464663,7.51821 Z m 3.1455302,0.3030569 0.01046,0.0418 -0.13063,0.031353 -0.01046,-0.041802 z m -4.890723,0.00522 0.00522,0.047028 -0.2194558,0.020894 -0.00522,-0.05225 z M 4.3341187,11.08175 c -0.067898,0.345642 -0.1422521,0.52154 -0.2194548,0.527737 v -0.04703 c -0.018513,-0.169755 0.052791,-0.332582 0.2194548,-0.480713 z m 4.6033406,0.214229 0.01046,0.09405 c 0.00308,0.04628 -0.1490288,0.174867 -0.4545959,0.397111 -0.9011355,0.444411 -1.4310035,0.746592 -1.5884394,0.903948 -0.975232,0.339528 -1.4618946,0.548901 -1.4525875,0.632243 -0.8672781,0.342612 -1.4391854,0.594962 -1.7138427,0.752419 -0.064788,0.0062 -0.1534536,-0.01766 -0.276932,-0.07314 -0.015426,-0.175898 0.060153,-0.314291 0.2299057,-0.428461 0.151239,-0.01231 0.3000079,0.0094 0.438911,0.06793 0.160465,-0.08333 0.4378853,-0.178174 0.8360215,-0.276929 l -0.00522,-0.104505 -0.3239579,0.02614 c 0.040075,-0.05548 0.3498686,-0.199125 0.9300732,-0.433684 l 0.1619794,-0.01568 v 0.04703 c -0.2746571,0.02464 -0.4258734,0.105687 -0.4598114,0.250806 0.00613,0.06479 0.047037,0.09503 0.1149537,0.08883 0.2068191,-0.129617 0.3060864,-0.208283 0.3030581,-0.229903 0.3919081,-0.07405 1.4754094,-0.639616 3.2500219,-1.698188 z m -4.9220734,0.475487 0.00522,0.04703 c 0.00621,0.06792 -0.026164,0.106718 -0.094052,0.109728 v -0.04703 c -0.00621,-0.05859 0.02092,-0.0943 0.088828,-0.109728 z m 2.4244615,0.600891 c 0.074114,-0.0062 0.1119432,0.02402 0.1149535,0.08883 -0.1265089,0.01241 -0.3713428,0.11502 -0.7262943,0.318732 l -0.05225,0.0052 -0.00522,-0.104503 c 0.2592115,-0.02162 0.4837193,-0.126194 0.6688171,-0.308283 z m -2.3565348,0.809897 0.01046,0.05747 c -0.040155,0.003 -0.091946,0.02566 -0.1567552,0.0627 l -0.1045032,0.0052 c -0.00613,-0.05249 0.029243,-0.09121 0.094051,-0.109727 z m -1.2331313,0.616564 0.1097277,0.04703 C 2.922841,14.154446 2.8289911,14.309 2.6777519,14.321336 2.5543336,14.265746 2.4442061,14.244186 2.3485686,14.253406 l -0.01045,-0.151522 c -0.0062,-0.05859 0.025182,-0.09952 0.099278,-0.114956 0.067837,-0.0062 0.108755,0.04754 0.1149528,0.14631 0.1789796,-0.219131 0.2793185,-0.3313 0.2978323,-0.334409 z"/><path fill="#f9dc3e" d="M 10.379596,0.156 C 9.3302497,0.245439 7.9630199,0.617722 6.277868,1.2689525 5.8149242,1.6052889 5.2871941,1.9367335 4.6946532,2.2669523 l 0.00523,0.1045026 c 0.040156,-0.0031 0.091946,-0.020439 0.1567552,-0.057475 0.067898,-0.00621 0.1088345,0.02183 0.1149535,0.083602 l 0.1045041,-0.057475 0.05225,-0.00522 v 0.052251 c 0.00309,0.049373 -0.3639505,0.3322882 -1.1077288,0.8569112 l 0.062699,0.094052 -0.05225,0.00522 -0.1149536,-0.041801 c 0.0031,0.030849 -0.048679,0.053476 -0.1567552,0.0627 l 0.00522,0.057475 0.1201778,0.1358526 c -0.040076,0.0031 -0.091053,-0.011932 -0.1619794,-0.036576 -0.2407784,0.021536 -0.4791452,0.1953828 -0.7106172,0.522513 l 0.057486,0.094065 C 3.2702608,3.9523511 3.3910086,3.8585006 3.4249472,3.8553916 l 0.01045,0.1515299 c -0.033958,0.00302 -0.085747,0.025629 -0.1567539,0.0627 L 3.4040459,4.257725 C 3.6430398,3.9994549 3.9128569,3.7741963 4.208716,3.5836831 c 0.1450416,0.037047 0.2268973,0.081245 0.2299071,0.1306282 l 0.1097283,-0.01046 C 5.3446216,3.1143516 6.1292817,2.6912526 6.910109,2.4289313 L 6.92057,2.5334325 C 6.7754487,2.7494604 6.6752095,2.8617233 6.6227364,2.8678409 6.628943,2.9419565 6.6548399,3.0055904 6.7011132,3.0611717 6.7134191,3.1938773 6.3594501,4.087441 5.6404018,5.7416638 4.007742,9.5871263 2.6371544,12.434899 1.523,14.274299 c 0.00311,0.03708 0.022625,0.08459 0.062702,0.146311 0.2747175,-0.06482 0.4483978,-0.133684 0.5225129,-0.198558 l 0.057477,-0.0054 0.01045,0.104498 0.1045025,-0.0054 0.1045025,-0.06271 c 0.00311,0.03085 0.033497,0.04799 0.1045026,0.04182 l 0.01045,0.104494 c 0.00923,0.101848 -0.04895,0.257334 -0.1724292,0.470261 -0.1110822,0.126594 -0.2288016,0.389889 -0.3553087,0.79422 v 0.05225 l 0.1045016,-0.01043 c 0.4444112,-0.496642 0.7769791,-0.98231 1.0084512,-1.457568 1.2962433,-0.379604 2.2879289,-0.756217 2.9730985,-1.123402 0.6881981,-0.05869 1.2094797,-0.23882 1.5675397,-0.538189 l -0.00522,-0.05748 -0.2560319,0.07838 -0.062701,0.0052 -0.00522,-0.05747 c 0.5060931,-0.07712 0.85573,-0.18538 1.050235,-0.339629 0.9844624,-0.759183 1.7280553,-1.296561 2.2311353,-1.614464 1.033941,-0.7592029 1.669532,-1.4389303 1.975099,-2.1579784 l 0.0052,-0.026125 c 0,-0.00175 0,-0.00342 0,-0.00522 -2.02e-4,-0.00503 2.03e-4,-0.010647 0,-0.015675 l 0.0052,-0.00522 0.21424,-1.0816173 C 12.759496,7.1919209 12.412124,6.7688226 11.748577,6.0342704 11.736263,5.892339 11.970398,5.6861447 12.448746,5.417705 l 1.353308,-1.1913291 c 0.302478,-0.3888287 0.484723,-1.0126458 0.543414,-1.8705965 l -0.0209,-0.1985556 C 14.272095,1.5523685 13.831927,1.065456 13.007835,0.688963 12.52024,0.3587444 11.644988,0.1837403 10.379596,0.156 Z m 2.173653,8.2870546 c 0.002,0 0.0032,-1.5e-6 0.0052,0 0,-0.0035 0,-0.00701 0,-0.01046 -0.0026,0.00289 -0.0025,0.0076 -0.0052,0.01046 z M 12.015061,0.8248199 c 1.006181,0.03396 1.524122,0.2098343 1.551864,0.527738 l -0.04703,0.099276 z M 9.820506,1.6712902 9.830966,1.8175925 C 10.315523,1.7434955 10.617622,1.7014948 10.734902,1.692188 11.63,1.615064 12.098169,1.7951928 12.135237,2.2303764 l 0.09928,-0.01046 -0.02089,-0.2560311 0.109728,-0.00522 c 0.26232,0.1450208 0.404701,0.320998 0.423235,0.527738 0.01231,0.1420113 -0.06635,0.3178289 -0.229903,0.5277382 -0.06792,0.00613 -0.103612,-0.047537 -0.109729,-0.1463048 l -0.114954,0.01046 -0.02089,0.3082828 C 11.817394,3.8655461 11.487192,4.213087 11.283541,4.2316009 11.098364,4.4877247 10.979813,4.6151515 10.933458,4.6182604 10.791527,4.7879329 10.403961,5.0782694 9.768255,5.4856317 9.5583252,5.5041719 8.779141,5.8074901 7.4273965,6.4000299 7.3598186,6.3691612 7.2871798,6.3568754 7.2131674,6.3634545 L 7.2027067,6.2694007 C 7.1872922,6.074997 7.2725976,5.8289386 7.4639712,5.5326585 7.5688574,4.977085 7.682324,4.6588284 7.8088313,4.5816845 L 8.9374585,2.0474967 C 8.9251535,1.89006 9.1647336,1.7702847 9.658526,1.6869628 Z m 3.573988,0.2560288 c 0.09875,-0.0092 0.200308,0.150473 0.308283,0.4807114 l 0.01046,0.094052 c -0.05249,0.00621 -0.157125,-0.1566104 -0.308284,-0.480712 z m -6.3224063,1.6041139 0.01046,0.1515298 c -0.049363,0.0031 -0.113016,0.077444 -0.193331,0.2194548 L 6.878756,3.7979136 C 6.9744142,3.6837413 7.026034,3.5983574 7.0198335,3.5366577 Z m -3.2813813,0.083602 0.00522,0.047026 c -0.033959,0.00308 -0.088837,0.022553 -0.156754,0.062703 l -0.052251,0.00522 -0.01045,-0.099277 z m 2.7797691,0.9771012 0.020893,0.1985556 -0.05225,0.00522 L 6.5182245,4.597356 Z M 6.4398475,4.9578957 C 6.4305375,5.1245593 6.3820915,5.2130331 6.29877,5.2191521 l -0.052251,0.00522 C 6.311327,5.1132899 6.341464,5.0269322 6.335347,4.968341 Z m -0.219455,0.5277369 0.00522,0.05225 -0.099277,0.1567551 -0.099277,0.01046 -0.00522,-0.047026 c 0.1018546,-0.0092 0.1503847,-0.065349 0.1410779,-0.1672046 z m -0.2299039,0.4807112 -0.031352,0.2508059 -0.05225,0.00522 -0.020894,-0.2508069 z m 5.5020574,0.1828909 0.229907,0.1306164 c 0.0093,0.070929 -0.02311,0.1087557 -0.09405,0.1149546 -0.09265,-0.061779 -0.169096,-0.091936 -0.224678,-0.088827 L 11.393265,6.1544488 Z M 7.1818159,6.7292178 7.1922769,6.8232688 6.978047,6.8441618 6.967586,6.7448858 Z m 3.4799371,0.3552935 c 0.148128,0.071007 0.223684,0.1325249 0.229902,0.1881045 l 0.0052,0.047024 C 10.75486,7.3319459 10.620071,7.2606507 10.499763,7.100185 Z m 1.68249,0.1567552 c 0.09877,0.040154 0.154869,0.085247 0.167205,0.1254022 l -0.04703,0.01046 v 0.00522 c -0.0092,0 -0.01691,0.00214 -0.02614,0.00522 l -0.07838,0.057475 z m -2.9574235,0.05225 c 0.6635465,-0.05859 1.1620335,0.072839 1.4891625,0.381435 l 0.01568,0.1985538 C 10.64785,8.5803075 10.374934,8.9967891 10.081763,9.1170973 L 8.7232294,10.198698 C 7.7109306,10.862244 7.1680757,11.195726 7.087763,11.201924 5.4768064,12.087635 4.472142,12.5474 4.083313,12.581359 l -0.057475,0.0052 C 4.0752203,12.404495 4.7897986,10.935724 6.17859,8.1765735 6.7896448,8.1241012 7.7564204,7.8433026 9.068088,7.3248776 Z m 3.1455285,0.3030567 0.01046,0.0418 -0.13063,0.031353 -0.01046,-0.041802 z m -4.8907205,0.00522 0.00522,0.047027 -0.2194585,0.02089 -0.00522,-0.052251 z M 4.2557428,10.888416 c -0.067898,0.345643 -0.142252,0.52154 -0.2194547,0.527737 v -0.04703 c -0.018513,-0.169754 0.052791,-0.332582 0.2194547,-0.480712 z m 4.603339,0.21423 0.01046,0.09405 c 0.00308,0.04628 -0.1490287,0.174866 -0.4545958,0.397111 -0.9011355,0.444411 -1.431003,0.746591 -1.5884388,0.903947 -0.9752316,0.339527 -1.461894,0.5489 -1.4525869,0.632243 -0.8672778,0.342611 -1.4391849,0.594961 -1.713842,0.752418 -0.064788,0.0062 -0.1534536,-0.01766 -0.2769319,-0.07314 -0.015426,-0.175898 0.060153,-0.31429 0.2299056,-0.42846 0.151239,-0.01231 0.3000078,0.0094 0.4389108,0.06793 0.1604649,-0.08333 0.4378851,-0.178173 0.8360212,-0.276929 l -0.00522,-0.104504 -0.3239578,0.02614 c 0.040075,-0.05548 0.3498685,-0.199125 0.9300729,-0.433684 l 0.1619793,-0.01568 v 0.04703 c -0.274657,0.02464 -0.4258732,0.105687 -0.4598112,0.250807 0.00613,0.06479 0.047037,0.09502 0.1149536,0.08882 0.206819,-0.129616 0.3060863,-0.208283 0.303058,-0.229903 0.3919079,-0.07405 1.4754088,-0.639616 3.2500205,-1.698188 z m -4.9220716,0.475486 0.00522,0.04703 c 0.00621,0.06792 -0.026164,0.106718 -0.094052,0.109728 v -0.04703 c -0.00621,-0.05859 0.02092,-0.0943 0.088828,-0.109728 z m 2.4244605,0.600891 c 0.074114,-0.0062 0.1119431,0.02402 0.1149534,0.08883 -0.1265088,0.01241 -0.3713426,0.11502 -0.726294,0.318732 l -0.05225,0.0052 -0.00522,-0.104504 c 0.2592115,-0.02162 0.4837192,-0.126194 0.6688169,-0.308283 z m -2.3565338,0.809897 0.01046,0.05747 c -0.040155,0.003 -0.091946,0.02566 -0.1567551,0.0627 l -0.1045032,0.0052 c -0.00613,-0.05249 0.029243,-0.09121 0.094051,-0.109728 z m -1.2331308,0.616564 0.1097276,0.04703 c -0.037068,0.308598 -0.1309179,0.463152 -0.282157,0.475488 -0.1234183,-0.05559 -0.2335458,-0.07715 -0.3291832,-0.06793 l -0.01045,-0.151522 c -0.0062,-0.05859 0.025182,-0.09952 0.099277,-0.114956 0.067837,-0.0062 0.108755,0.04754 0.1149528,0.146311 0.1789796,-0.219131 0.2793185,-0.331301 0.2978322,-0.33441 z"/></svg>
