<svg xmlns="http://www.w3.org/2000/svg" width="16" height="16" viewBox="0 0 16 16"><path fill="#EDBE2F" d="M10.32.672c-1.02.084-2.347.437-3.983 1.052-.45.318-.961.632-1.537.944l.005.099a.388.388 0 0 0 .153-.055c.066-.005.105.021.111.08l.102-.055.05-.005v.05c.003.046-.353.314-1.075.81l.06.089-.05.005-.111-.04c.003.03-.048.05-.153.06l.005.054.117.128a.442.442 0 0 1-.157-.034c-.234.02-.465.185-.69.494l.056.089c.195-.175.312-.264.345-.267l.01.143a.506.506 0 0 0-.152.06l.121.177c.233-.244.494-.457.782-.637.14.035.22.077.223.124l.106-.01c.773-.558 1.535-.958 2.293-1.206l.01.099c-.14.204-.238.31-.289.316.006.07.031.13.076.183.012.125-.331.97-1.03 2.535-1.584 3.636-2.915 6.329-3.997 8.068a.32.32 0 0 0 .061.138c.267-.06.436-.126.508-.187l.055-.006.01.1.102-.006.101-.06c.003.03.033.046.102.04l.01.1c.009.095-.048.242-.167.444-.108.12-.223.368-.345.75v.05l.101-.01c.432-.47.754-.929.98-1.378 1.257-.359 2.22-.715 2.885-1.062.668-.056 1.174-.226 1.522-.51l-.005-.054-.249.075-.06.005-.006-.055c.492-.073.831-.175 1.02-.32.956-.719 1.678-1.227 2.166-1.527 1.004-.718 1.62-1.361 1.917-2.041l.005-.025v-.019l.005-.005.208-1.023c-.018-.111-.355-.511-.999-1.206-.012-.134.215-.329.68-.583l1.314-1.126c.293-.368.47-.958.527-1.769l-.02-.188c-.051-.572-.478-1.032-1.278-1.388-.474-.312-1.323-.478-2.552-.504zm2.11 7.836h.004v-.01c-.002.003-.002.007-.005.01zm-.523-7.204c.977.032 1.48.199 1.506.5l-.045.093zm-2.13.8.01.14c.47-.071.763-.11.877-.12.869-.072 1.323.098 1.36.51l.096-.01-.02-.243.106-.005c.255.138.393.304.41.5.013.134-.063.3-.222.499-.066.005-.1-.045-.107-.139l-.111.01-.02.292c-.441.642-.762.97-.96.988-.18.242-.294.362-.34.365-.137.16-.513.435-1.13.82-.204.018-.96.305-2.273.865a.419.419 0 0 0-.208-.034l-.01-.09c-.015-.183.068-.416.254-.696.102-.525.212-.826.335-.9L8.919 2.46c-.012-.148.22-.262.7-.34zm3.469.243c.096-.009.194.142.3.454l.01.09c-.052.005-.153-.149-.3-.455zM7.108 3.864l.01.143c-.047.003-.11.073-.187.207l-.01-.098c.092-.108.143-.189.137-.247zm-3.185.079.005.044a.417.417 0 0 0-.152.06l-.051.004-.01-.093zm2.698.924.02.187-.05.005-.02-.187zm-.126.346c-.01.157-.057.24-.137.247l-.051.004c.063-.105.092-.186.086-.242zm-.213.499.005.049-.097.148-.096.01-.005-.044c.099-.01.146-.062.137-.158zm-.224.454-.03.237-.05.005-.021-.237zm5.342.173.223.124c.009.067-.023.102-.092.108-.09-.058-.164-.087-.218-.084l-.01-.143zm-4.185.548.01.09-.208.02-.01-.095zm3.378.336c.144.068.217.126.223.178l.005.045c-.138.011-.268-.056-.385-.208zm1.633.149c.096.038.15.08.163.118l-.046.01v.005a.078.078 0 0 0-.025.005l-.076.054zm-2.87.05c.644-.056 1.127.068 1.445.36l.015.187c-.236.669-.501 1.063-.786 1.176l-1.319 1.023c-.983.628-1.51.943-1.587.949-1.564.837-2.54 1.272-2.917 1.304l-.056.005c.048-.172.742-1.56 2.09-4.17.593-.05 1.532-.315 2.805-.805zm3.053.286.01.04-.127.029-.01-.04zm-4.748.005.005.044-.213.02-.005-.05zM4.374 10.82c-.066.327-.138.494-.213.5v-.045c-.018-.16.052-.315.213-.455zm4.47.203.01.089c.002.044-.145.165-.442.375-.875.42-1.39.706-1.542.855-.947.321-1.42.52-1.41.598-.842.324-1.397.563-1.664.711-.063.006-.149-.016-.269-.069-.015-.166.059-.297.223-.405a.923.923 0 0 1 .426.064c.156-.078.426-.168.812-.261l-.005-.1-.315.025c.04-.052.34-.188.903-.41l.158-.015v.045c-.267.023-.414.1-.447.237.006.061.046.09.112.084.2-.122.297-.197.294-.217.38-.07 1.432-.605 3.155-1.606zm-4.78.45.006.044c.006.064-.025.1-.091.104v-.045c-.006-.055.02-.089.086-.103zm2.354.568c.072-.006.11.022.112.084-.123.011-.36.108-.705.301l-.05.005-.006-.099c.252-.02.47-.119.65-.291zm-2.287.766.01.054a.41.41 0 0 0-.152.06l-.102.004c-.006-.05.029-.086.092-.104zm-1.197.583.106.044c-.036.292-.127.438-.274.45a.652.652 0 0 0-.32-.065l-.01-.143c-.005-.055.025-.094.097-.109.066-.005.106.045.112.139.173-.207.27-.313.289-.316z"/></svg>