<svg xmlns="http://www.w3.org/2000/svg" width="16" height="16" viewBox="0 0 16 16"><path d="M10.458.788c-1.026.084-2.362.434-4.009 1.046-.452.316-.968.628-1.547.938l.005.098a.37.37 0 00.153-.054c.067-.005.107.021.113.079l.102-.054.05-.005v.05c.004.046-.355.312-1.082.805l.061.088-.05.005-.113-.04c.003.03-.048.051-.153.06l.005.054.117.127a.45.45 0 01-.158-.034c-.235.02-.468.184-.694.491l.056.089c.196-.175.314-.263.347-.266l.01.143a.513.513 0 00-.153.059l.123.177a4.04 4.04 0 01.786-.634c.142.035.222.076.225.123l.107-.01c.778-.554 1.545-.952 2.308-1.199l.01.099c-.141.203-.24.308-.29.314a.31.31 0 00.076.182c.012.125-.334.964-1.037 2.52-1.595 3.614-2.935 6.29-4.024 8.02.003.035.022.08.061.137.269-.06.439-.125.511-.186l.056-.005.01.098.103-.005.102-.059c.003.03.033.045.102.04l.01.098c.01.095-.048.241-.168.442-.109.119-.224.366-.348.746v.05l.103-.01a6.05 6.05 0 00.985-1.37c1.267-.357 2.236-.712 2.906-1.057.672-.055 1.182-.224 1.532-.506l-.005-.054-.25.074-.062.005-.005-.054c.495-.072.836-.174 1.026-.32.963-.713 1.69-1.218 2.18-1.517 1.011-.713 1.633-1.352 1.931-2.028l.005-.025v-.019l.005-.005.21-1.017c-.018-.11-.358-.508-1.006-1.199-.012-.133.217-.327.684-.58l1.323-1.119c.295-.365.473-.952.53-1.758l-.02-.187c-.05-.568-.481-1.026-1.286-1.38-.477-.31-1.332-.475-2.57-.501zm2.124 7.79h.005v-.01c-.002.003-.002.007-.005.01zm-.526-7.161c.984.032 1.49.197 1.517.496l-.046.093zm-2.145.795l.01.138c.474-.07.77-.11.884-.118.875-.073 1.332.097 1.369.506l.097-.01-.02-.24.107-.006c.256.137.395.302.413.497.012.133-.065.298-.224.496-.067.005-.102-.045-.108-.138l-.112.01-.02.29c-.444.638-.767.965-.966.982-.18.24-.297.36-.342.363-.139.16-.517.433-1.139.816-.205.017-.966.302-2.287.86a.426.426 0 00-.21-.035l-.01-.089c-.015-.182.068-.414.255-.692.103-.522.214-.821.337-.894l1.103-2.382c-.012-.148.223-.26.705-.339zm3.493.241c.097-.009.196.141.302.452l.01.088c-.051.006-.154-.147-.301-.452zM7.225 3.961l.01.142c-.048.003-.11.073-.188.207l-.01-.099c.093-.107.143-.187.137-.245zm-3.207.078l.006.045a.423.423 0 00-.154.059l-.05.004-.01-.093zm2.717.919l.02.186-.05.005-.02-.186zm-.127.344c-.01.156-.057.24-.138.245l-.051.005c.063-.104.092-.185.086-.24zm-.215.496l.005.049-.097.147-.097.01L6.2 5.96c.1-.009.147-.062.138-.157zm-.225.452l-.03.235-.051.005-.02-.236zm5.378.171l.224.123c.01.067-.022.103-.092.108-.09-.058-.165-.086-.22-.083l-.01-.143zm-4.213.546l.01.088-.21.02-.01-.094zm3.4.334c.145.066.22.124.225.176l.005.045c-.138.011-.27-.056-.388-.207zm1.645.147c.097.038.151.08.163.118l-.046.01v.005a.08.08 0 00-.025.005l-.077.054zm-2.89.05c.648-.056 1.135.068 1.455.358l.015.186c-.238.665-.505 1.056-.791 1.17l-1.328 1.016c-.99.624-1.52.937-1.598.943-1.575.832-2.557 1.265-2.937 1.297l-.056.004c.049-.17.747-1.551 2.104-4.145.597-.05 1.542-.313 2.824-.8zm3.074.284l.01.04-.128.029-.01-.04zm-4.78.005l.005.044-.214.02-.005-.05zm-3.309 3.09c-.066.324-.14.49-.215.495v-.044c-.018-.16.052-.313.215-.452zm4.499.2l.01.089c.003.044-.146.164-.444.373-.88.418-1.399.702-1.553.85-.953.32-1.428.516-1.42.594-.847.322-1.406.56-1.674.708a.604.604 0 01-.27-.07c-.016-.165.058-.295.224-.402a.939.939 0 01.429.064c.157-.078.428-.168.817-.26l-.005-.099-.317.025c.04-.052.342-.187.91-.408l.157-.014v.044c-.268.023-.416.1-.449.235.006.061.046.09.112.084.203-.122.3-.196.297-.216.383-.07 1.442-.601 3.176-1.596zm-4.81.448l.005.044c.006.064-.026.1-.092.103v-.044c-.006-.055.02-.089.086-.103zm2.369.564c.072-.005.11.023.112.084-.123.012-.363.108-.71.3l-.05.004-.006-.098a1.05 1.05 0 00.654-.29zm-2.303.762l.01.054a.417.417 0 00-.153.059l-.102.005c-.006-.05.028-.086.092-.104zm-1.205.58l.107.043c-.036.29-.128.436-.276.447a.664.664 0 00-.322-.063l-.01-.143c-.006-.055.025-.093.097-.108.067-.006.107.045.113.138.175-.206.273-.312.29-.315z" stroke-width=".958"/><path fill="#f9dc3e" d="M10.381.606C9.356.69 8.02 1.04 6.373 1.652c-.453.317-.969.628-1.548.939l.005.098c.04-.003.09-.02.154-.054.066-.006.106.02.112.078l.102-.054.051-.005v.05c.003.046-.356.312-1.082.805l.06.088-.05.005-.113-.039c.003.029-.047.05-.153.059l.005.054.118.128a.45.45 0 01-.159-.035c-.235.02-.468.184-.694.491l.056.089c.196-.174.314-.262.347-.265l.01.142a.513.513 0 00-.153.059l.123.177a4.04 4.04 0 01.786-.634c.142.035.222.077.225.123l.107-.01c.779-.554 1.545-.952 2.309-1.198L7 2.84c-.142.203-.24.309-.291.314a.31.31 0 00.076.182c.012.125-.334.965-1.036 2.52-1.596 3.614-2.936 6.291-4.024 8.02.003.035.022.08.06.138.27-.061.44-.126.512-.187l.056-.005.01.098.102-.005.102-.059c.003.03.033.045.102.04l.01.098c.01.096-.047.242-.168.442-.109.119-.224.366-.347.746v.05l.102-.01c.434-.467.76-.924.985-1.37 1.267-.357 2.237-.711 2.906-1.056.673-.056 1.182-.225 1.532-.506l-.005-.054-.25.073-.061.005-.006-.054c.495-.072.837-.174 1.027-.32.962-.713 1.689-1.218 2.18-1.517 1.01-.713 1.632-1.352 1.93-2.028l.006-.025v-.019l.005-.005.21-1.017c-.019-.11-.358-.508-1.007-1.198-.012-.134.217-.328.685-.58l1.322-1.12c.296-.365.474-.952.531-1.758l-.02-.187c-.052-.568-.482-1.026-1.287-1.38-.477-.31-1.332-.475-2.569-.5zm2.125 7.79h.005v-.01c-.003.003-.003.007-.005.01zm-.526-7.161c.983.032 1.49.197 1.516.496l-.046.093zm-2.145.796l.01.137c.474-.07.769-.109.884-.118.874-.072 1.332.097 1.368.506l.097-.01-.02-.24.107-.005c.256.136.395.301.414.496.012.133-.065.299-.225.496-.066.006-.101-.045-.107-.138l-.113.01-.02.29c-.444.638-.766.965-.965.982-.181.241-.297.36-.342.364-.14.16-.518.432-1.14.815-.204.017-.966.303-2.287.86a.426.426 0 00-.21-.035l-.01-.088c-.015-.183.069-.414.256-.693.102-.522.213-.821.337-.894l1.103-2.382c-.012-.148.222-.26.705-.339zm3.493.24c.096-.008.196.142.301.452l.01.089c-.051.005-.153-.148-.301-.452zM7.148 3.78l.011.143c-.048.002-.11.072-.189.206l-.01-.098c.093-.108.144-.188.138-.246zm-3.206.079l.005.044a.423.423 0 00-.153.059l-.051.005-.01-.094zm2.717.918l.02.187-.051.005-.02-.187zm-.128.344c-.01.157-.057.24-.138.246l-.051.004c.063-.104.093-.185.087-.24zm-.215.496l.006.05-.097.146-.098.01-.005-.044c.1-.009.147-.061.138-.157zm-.224.452l-.03.236-.052.005-.02-.236zm5.377.172l.225.123c.009.066-.023.102-.092.108-.09-.058-.165-.087-.22-.084l-.01-.142zm-4.213.545l.01.088-.21.02-.01-.093zm3.401.334c.145.067.219.124.225.177l.005.044c-.139.011-.27-.056-.388-.206zm1.644.147c.097.038.152.08.164.118l-.046.01V7.4a.08.08 0 00-.026.005l-.076.054zm-2.89.05c.649-.056 1.136.068 1.455.358l.016.187c-.239.664-.505 1.055-.792 1.169l-1.327 1.016c-.99.624-1.52.937-1.599.943-1.574.833-2.556 1.265-2.936 1.297l-.056.005c.048-.171.746-1.552 2.104-4.146.597-.049 1.542-.313 2.824-.8zm3.074.284l.01.04-.127.029-.01-.04zm-4.78.005l.006.044-.215.02-.005-.05zm-3.309 3.09c-.066.324-.139.49-.214.496v-.045c-.018-.16.051-.312.214-.451zm4.5.2l.01.09c.003.043-.146.164-.445.373-.88.417-1.398.701-1.552.85-.953.318-1.429.515-1.42.594-.847.322-1.406.559-1.675.707-.063.006-.15-.017-.27-.069-.016-.165.058-.295.224-.403a.94.94 0 01.43.064c.156-.078.427-.167.816-.26l-.005-.098-.316.024c.039-.052.341-.187.909-.407l.158-.015v.044c-.269.023-.416.1-.45.236.006.06.046.09.113.083.202-.122.299-.196.296-.216.383-.07 1.442-.601 3.176-1.596zm-4.811.448l.005.044c.006.064-.026.1-.092.103v-.044c-.006-.055.02-.089.087-.103zm2.37.565c.072-.006.109.022.112.083-.124.012-.363.108-.71.3l-.051.005-.005-.099a1.05 1.05 0 00.653-.29zm-2.304.76l.01.055a.417.417 0 00-.153.059l-.102.005c-.006-.05.029-.086.092-.103zm-1.205.58l.107.045c-.036.29-.128.435-.275.447a.664.664 0 00-.322-.064l-.01-.143c-.006-.055.024-.093.097-.108.066-.005.106.045.112.138.175-.206.273-.312.291-.315z" stroke-width=".958"/></svg>