<svg width="16" height="16" viewBox="0 0 32 32" fill="none" xmlns="http://www.w3.org/2000/svg"><path d="M28.525 18.085h-6.286c-.387 0-.775.301-.818.689-.344 2.497-2.497 4.434-5.08 4.434l1.68 7.749c6.113-.818 10.891-5.812 11.322-12.011.043-.474-.345-.861-.818-.861zm-10.807-.215 9.04-7.75a.816.816 0 0 0 0-1.248l-9.04-7.75c-.517-.473-1.335-.085-1.335.604v15.498c-.043.732.775 1.12 1.335.646z" fill="#2684ff" style="stroke-width:1.25717"/><path d="M3.426 19.764c.818 6.371 6.286 11.322 12.915 11.322v-7.878c-2.84 0-5.166-2.282-5.166-5.123z" fill="url(#a)" style="fill:url(#a);stroke-width:1.25717"/><path d="M3.34 17.956v.129h7.878c0-2.842 2.325-5.123 5.166-5.123l-1.679-7.75c-6.371.819-11.322 6.2-11.365 12.744Z" fill="url(#b)" style="fill:url(#b);stroke-width:1.25717"/><defs><linearGradient id="a" x1="11.217" y1="7.486" x2="11.217" y2="21.607" gradientUnits="userSpaceOnUse" gradientTransform="translate(-4.203 -4.115) scale(1.25716)"><stop stop-color="#0052CC"/><stop offset="1" stop-color="#2684FF"/></linearGradient><linearGradient id="b" x1="11.168" y1="7.486" x2="11.168" y2="21.607" gradientUnits="userSpaceOnUse" gradientTransform="translate(-4.203 -4.115) scale(1.25716)"><stop stop-color="#0052CC"/><stop offset="1" stop-color="#2684FF"/></linearGradient></defs></svg>