<svg xmlns="http://www.w3.org/2000/svg" width="16" height="16" viewBox="0 0 16 16"><path d="M14.325 1.97H1.687A1.04 1.04 0 0 0 .634 2.995v10.272a1.04 1.04 0 0 0 1.053 1.027h12.638a1.04 1.04 0 0 0 1.054-1.027V2.996a1.04 1.04 0 0 0-1.054-1.027zM2.74 9.16l2.107-2.055L2.74 5.05l1.054-1.028 3.16 3.082-3.16 3.081zm8.426 1.026H6.953V9.16h4.213z" fill="#666"/><path d="m3.268 9.65-.502-.487 1.053-1.035 1.053-1.034-.201-.19c-.11-.103-.584-.561-1.052-1.018l-.851-.83.503-.503c.277-.278.513-.501.524-.497.05.02 3.12 3.035 3.113 3.057-.015.042-3.083 3.026-3.112 3.026-.014 0-.252-.22-.528-.488zm3.71.015v-.504h4.166v1.009H6.978z" fill="#eee"/></svg>