<svg width="16" height="16" viewBox="0 0 36 36" xmlns="http://www.w3.org/2000/svg"><g fill="none" fill-rule="evenodd"><path d="M71.993 57.26c-4.008 0-7.177-3.356-7.177-7.457 0-4.1 3.17-7.363 7.177-7.363 3.262 0 5.965 2.237 6.804 5.313h2.796c-.932-4.66-4.846-8.11-9.6-8.11-5.499 0-9.88 4.568-9.88 10.16 0 5.686 4.381 10.253 9.88 10.253 4.754 0 8.668-3.449 9.6-8.109h-2.796c-.839 3.076-3.542 5.313-6.804 5.313" fill="#435363" style="stroke-width:.932065" transform="translate(-51.864 -30.52) scale(.9703)"/><path d="M67.146 54.837c1.212 1.304 2.89 2.143 4.847 2.143v-2.982a4.09 4.09 0 0 1-2.89-1.212l-1.957 2.05" fill="#435363" style="stroke-width:.932065" transform="translate(-51.864 -30.52) scale(.9703)"/><path d="M65.096 49.803c0 1.026.28 2.05.56 2.89l2.702-1.212c-.28-.466-.373-1.025-.373-1.678 0-2.237 1.771-4.1 4.008-4.1V42.72c-3.821 0-6.897 3.169-6.897 7.083" fill="#9e9e9e" style="stroke-width:.932065" transform="translate(-51.864 -30.52) scale(.9703)"/><path d="m74.417 43.186-1.026 2.796a4.751 4.751 0 0 1 2.05 1.77h3.077c-.653-2.05-2.144-3.727-4.101-4.566" fill="#435363" style="stroke-width:.932065" transform="translate(-51.864 -30.52) scale(.9703)"/><path d="m73.391 53.718 1.026 2.703c1.957-.746 3.448-2.423 4.1-4.474h-3.075a4.751 4.751 0 0 1-2.05 1.771" fill="#9e9e9e" style="stroke-width:.932065" transform="translate(-51.864 -30.52) scale(.9703)"/><path d="M59.317 53.811c-.093-.186-.093-.28-.093-.466-.093-.186-.093-.28-.187-.466v-.093c0-.093 0-.28-.093-.373v-.466c-.093-.093-.093-.186-.093-.28-.093-.559-.093-1.211-.093-1.864h-2.703c0 .746 0 1.398.093 2.05 0 .187.093.374.093.56v.093c0 .187.094.373.094.466 0 .094 0 .187.093.28v.28c.093.093.093.186.093.372 0 0 .093.094.093.187 0 .186 0 .28.093.373v.186c.187.653.466 1.212.653 1.864l2.516-1.118c-.186-.56-.372-1.025-.559-1.585" fill="#435363" style="stroke-width:.932065" transform="translate(-51.864 -30.52) scale(.9703)"/><path d="M71.993 63.598c-3.635 0-6.99-1.585-9.414-4.101l-1.864 2.05c2.89 2.983 6.804 4.847 11.278 4.847 8.11 0 14.727-6.338 15.752-14.447h-2.703c-1.025 6.525-6.524 11.651-13.049 11.651m0-27.496c2.89 0 5.686 1.025 7.83 2.703l1.677-2.237c-2.703-2.05-5.965-3.262-9.507-3.262-6.804 0-12.583 4.38-14.82 10.532l2.517 1.025c1.864-5.126 6.71-8.761 12.303-8.761" fill="#9e9e9e" style="stroke-width:.932065" transform="translate(-51.864 -30.52) scale(.9703)"/><path d="M85.042 47.753h2.703c-.28-2.424-1.118-4.66-2.33-6.711l-2.237 1.491a14.585 14.585 0 0 1 1.864 5.22" fill="#435363" style="stroke-width:.932065" transform="translate(-51.864 -30.52) scale(.9703)"/><path d="M81.966 47.753h2.703c-.745-4.754-3.821-8.668-8.015-10.346l-1.026 2.61c3.262 1.211 5.593 4.194 6.338 7.736" fill="#9e9e9e" style="stroke-width:.932065" transform="translate(-51.864 -30.52) scale(.9703)"/><path d="M71.993 39.271v-2.796c-5.499 0-10.16 3.542-12.023 8.482l2.516 1.025c1.491-3.915 5.127-6.71 9.507-6.71" fill="#435363" style="stroke-width:.932065" transform="translate(-51.864 -30.52) scale(.9703)"/><path d="M61.74 49.803h-2.703c0 5.686 3.356 10.44 8.11 12.49l1.025-2.61c-3.729-1.584-6.432-5.406-6.432-9.88" fill="#9e9e9e" style="stroke-width:.932065" transform="translate(-51.864 -30.52) scale(.9703)"/><path d="M71.993 60.429v2.796c6.431 0 11.744-4.94 12.676-11.278h-2.703c-.932 4.847-5.033 8.482-9.973 8.482" fill="#435363" style="stroke-width:.932065" transform="translate(-51.864 -30.52) scale(.9703)"/></g></svg>