<svg width="16" height="16" viewBox="0 0 160 160" xml:space="preserve" style="fill-rule:evenodd;clip-rule:evenodd;stroke-linejoin:round" xmlns="http://www.w3.org/2000/svg"><path d="M80.323 4.902 14.786 42.899v75.985l65.537 37.993 65.538-37.993V42.899Z" style="fill:url(#a);fill-rule:nonzero;stroke-width:4.26789"/><path d="M145.387 43.253v75.392l-65.064 37.638V80.891Z" style="fill:#156ab3;fill-rule:nonzero;stroke:#0078d4;stroke-width:.597504px"/><path d="M145.387 43.257 80.323 80.896 15.26 43.257 80.323 5.504Z" style="fill:#1d4a79;fill-rule:nonzero;stroke:#0078d4;stroke-width:.597504px"/><path d="M80.323 80.891v75.392L15.26 118.645V43.253Z" style="fill:#185a97;fill-rule:nonzero;stroke:#0078d4;stroke-width:.597504px"/><path d="m15.26 118.645 65.063-37.754v75.392z" style="fill:#1d4a79;fill-rule:nonzero;stroke:#0078d4;stroke-width:.597504px"/><path d="M145.387 118.645 80.323 80.891v75.392z" style="fill:#185a97;fill-rule:nonzero;stroke:#0078d4;stroke-width:.597504px"/><path d="M108.222 83.388a8.856 8.856 0 0 0-1.78-.12H69.518l10.806-27.19c.389.115.785.196 1.187.239a1.515 1.515 0 0 0 .712-.12l11.4-3.678a2.83 2.83 0 0 0 1.067-.713l7.481-8.314-.239-3.325-1.78-1.54-8.667 9.615-9.5 3.086-6.885-6.172 2.019-9.735 8.668-9.62-1.784-1.66-3.325.24L73.2 32.69a4.665 4.665 0 0 0-.593 1.067L70.11 45.39a2.667 2.667 0 0 0 .713 2.258s-1.187.358-1.421.713l-29.33 37.873a16.44 16.44 0 0 0-7.122 12.232 16.602 16.602 0 0 0 14.485 17.81l55.802 9.376v-.12c.594.12 1.067.24 1.66.359.598 0 1.191.12 1.785.12a21.34 21.34 0 0 0 21.25-19.59 21.57 21.57 0 0 0-19.71-23.034Z" style="fill:#1d4a79;fill-rule:nonzero;stroke-width:4.26789"/><path d="M49.454 115.086s-14.366-4.038-14.366-16.863c0-10.921 14.84-13.414 14.84-13.414l57.582.828s18.403 2.138 18.403 19c0 16.62-18.403 18.878-18.403 18.878z" style="fill:#fff;fill-opacity:.3;fill-rule:nonzero;stroke-width:4.26789"/><path d="M49.454 114.138a14.246 14.246 0 1 0 0-28.492 14.246 14.246 0 0 0 0 28.492z" style="fill:#fff;fill-opacity:.3;fill-rule:nonzero;stroke-width:4.26789"/><path d="m74.148 46.339 6.649 4.276-14.012 35.5-22.201-.478Z" style="fill:#fff;fill-opacity:.2;fill-rule:nonzero;stroke-width:4.26789"/><path d="M101.692 114.142h9.5a1.276 1.276 0 0 0 1.068-.593l4.75-8.314a1.076 1.076 0 0 0 0-1.186l-4.75-8.31a1.225 1.225 0 0 0-1.067-.593h-9.5a1.225 1.225 0 0 0-1.068.593l-4.75 8.31a1.088 1.088 0 0 0 0 1.186l4.75 8.314a1.242 1.242 0 0 0 1.067.593z" style="fill:#fff;fill-opacity:.3;fill-rule:nonzero;stroke-width:4.26789"/><path d="M49.454 114.147a14.246 14.246 0 1 0 0-28.493 14.246 14.246 0 0 0 0 28.493z" style="fill:none;fill-rule:nonzero;stroke:#fff;stroke-width:4.73734px"/><path d="M47.076 104.642h4.75c.24 0 .359-.12.479-.354l2.372-4.157a.53.53 0 0 0 0-.593l-2.372-4.157c0-.12-.24-.235-.478-.235h-4.75c-.235 0-.355.115-.474.354l-2.373 4.157a.533.533 0 0 0 0 .593l2.373 4.153c0 .12.239.24.473.24zm59.367-21.37v4.747h1.425a16.244 16.244 0 0 1 11.28 5.817 16.662 16.662 0 0 1 2.428 17.784 16.662 16.662 0 0 1-15.133 9.646h-1.426a16.244 16.244 0 0 1-11.28-5.818 16.662 16.662 0 0 1-2.428-17.784 16.662 16.662 0 0 1 15.134-9.645Zm0 0a21.34 21.34 0 0 0-1.66 42.624c.593 0 1.186.115 1.779.115a21.34 21.34 0 0 0 1.66-42.623 8.852 8.852 0 0 0-1.78-.115z" style="fill:#fff;fill-rule:nonzero;stroke-width:4.26789"/><path d="m110.6 97.519 4.152 7.123-4.153 7.123h-8.194l-4.153-7.123 4.153-7.123zm.593-2.373h-9.5a1.225 1.225 0 0 0-1.068.593l-4.75 8.31a1.088 1.088 0 0 0 0 1.186l4.75 8.314a1.242 1.242 0 0 0 1.067.593h9.5a1.276 1.276 0 0 0 1.068-.593l4.75-8.314a1.076 1.076 0 0 0 0-1.186l-4.75-8.31a1.225 1.225 0 0 0-1.067-.593z" style="fill:#fff;fill-rule:nonzero;stroke-width:4.26789"/><path d="m47.674 114.023 55.802 9.38m2.967-37.753h-56.99" style="fill:none;fill-rule:nonzero;stroke:#fff;stroke-width:4.73734px;stroke-linejoin:miter;stroke-miterlimit:10"/><path d="m41.852 87.78 29.564-37.873a3.393 3.393 0 0 1 4.75-.474l1.426 1.306a3.073 3.073 0 0 1 .832 3.56L66.077 85.641" style="fill:none;fill-rule:nonzero;stroke:#fff;stroke-width:4.73734px"/><path d="m102.286 39.937-1.78-1.665-8.668 9.62-9.496 3.086-6.769-6.176 2.019-9.735 8.668-9.615-1.9-1.545-3.324.239-7.482 8.31a4.865 4.865 0 0 0-.593 1.07l-2.492 11.635a2.595 2.595 0 0 0 .712 2.253l8.903 7.955a2.51 2.51 0 0 0 1.545.594 1.464 1.464 0 0 0 .713-.12l11.395-3.679a2.795 2.795 0 0 0 1.071-.712l7.478-8.31z" style="fill:#fff;fill-rule:nonzero;stroke:#fff;stroke-width:1.19498px;stroke-linejoin:miter;stroke-miterlimit:10"/><defs><linearGradient id="a" x1="0" y1="0" x2="1" y2="0" gradientUnits="userSpaceOnUse" gradientTransform="rotate(-90 118.6 38.277) scale(151.97268)"><stop offset="0" style="stop-color:#1d4a79;stop-opacity:1"/><stop offset="1" style="stop-color:#45caf2;stop-opacity:1"/></linearGradient></defs></svg>