<svg width="16" height="16" viewBox="0 0 160 160" xml:space="preserve" style="fill-rule:evenodd;clip-rule:evenodd;stroke-linejoin:round" xmlns="http://www.w3.org/2000/svg"><path d="M79.963 156.444a13.6 13.6 0 0 0 7.067-1.997l50.174-30.488a15.644 15.644 0 0 0 7.263-13.389V50.084a15.657 15.657 0 0 0-7.263-13.389L87.03 6.207a13.693 13.693 0 0 0-14.123 0l-50.173 30.5a15.65 15.65 0 0 0-7.276 13.389v60.474a15.862 15.862 0 0 0 5.304 11.944v.021l52.145 31.925a13.59 13.59 0 0 0 7.056 1.984zm.524-146.57c1.58 0 3.586.981 4.97 1.826l49.187 30.111c3.037 1.85 4.75 7.19 4.75 11.036l-.511 57.723c0 3.847-2.59 7.302-5.628 9.152L84.36 149.175c-2.78 1.69-5.04 1.69-7.82 0l-49.55-29.527c-3.039-1.849-5.482-5.244-5.482-9.078V50.947A11.774 11.774 0 0 1 26.77 41.3l49.04-29.6c1.385-.845 3.098-1.827 4.678-1.827z" style="fill:#f2f1f0;fill-rule:nonzero;stroke-width:.809566"/><path d="M86.357 12.773a12.111 12.111 0 0 0-12.788 0L28.124 40.566a14.236 14.236 0 0 0-6.578 12.2V107.9a14.26 14.26 0 0 0 1.706 6.955 14.257 14.257 0 0 0 4.872 5.246l45.445 27.793a12.111 12.111 0 0 0 12.788 0l45.444-27.793a14.244 14.244 0 0 0 6.579-12.2V52.766a14.267 14.267 0 0 0-6.579-12.2z" style="fill:url(#a);stroke-width:.809566"/><path d="M79.963 12.142c1.363 0 2.886.7 4.56 1.72l47.332 28.773a10.668 10.668 0 0 1 4.906 9.163v57.057a10.67 10.67 0 0 1-4.906 9.163L84.524 146.79h-.001a9.163 9.163 0 0 1-4.56 1.574 9.163 9.163 0 0 1-4.56-1.573l-47.33-28.773h-.002a10.08 10.08 0 0 1-3.597-3.271c-.79-1.298-1.31-3.091-1.31-5.893V51.798a10.67 10.67 0 0 1 4.907-9.163l47.324-28.77.004-.002c1.687-1.014 3.193-1.722 4.564-1.722zm6.244-1.047 47.33 28.773A13.902 13.902 0 0 1 140 51.798v57.057a13.907 13.907 0 0 1-6.462 11.93l-47.331 28.773a12.311 12.311 0 0 1-6.243 2.045 12.309 12.309 0 0 1-6.243-2.045L26.39 120.785l-.002-.001a13.234 13.234 0 0 1-4.677-4.35 14.154 14.154 0 0 1-1.784-7.58V51.799a13.902 13.902 0 0 1 6.462-11.93L73.72 11.094l.006-.005c1.692-1.017 3.884-2.186 6.236-2.186 2.337 0 4.536 1.152 6.244 2.191z" style="fill:#0078d4;stroke-width:.809566"/><path d="M79.545 50.614 55.987 64.273v27.313l23.558 13.657 23.558-13.657V64.273Z" style="fill:url(#b);fill-rule:nonzero;stroke-width:1.53413"/><path d="M102.932 64.4v27.1l-23.387 13.53v-27.1Z" style="fill:#156ab3;fill-rule:nonzero;stroke:#0078d4;stroke-width:.214778px"/><path d="m102.932 64.401-23.387 13.53L56.157 64.4l23.388-13.57Z" style="fill:#1d4a79;fill-rule:nonzero;stroke:#0078d4;stroke-width:.214778px"/><path d="M79.545 77.93v27.1L56.157 91.5V64.4Z" style="fill:#185a97;fill-rule:nonzero;stroke:#0078d4;stroke-width:.214778px"/><path d="m56.157 91.5 23.388-13.57v27.1z" style="fill:#1d4a79;fill-rule:nonzero;stroke:#0078d4;stroke-width:.214778px"/><path d="M102.932 91.5 79.545 77.93v27.1z" style="fill:#185a97;fill-rule:nonzero;stroke:#0078d4;stroke-width:.214778px"/><path d="M89.573 78.827a3.183 3.183 0 0 0-.64-.043H75.66l3.885-9.774c.14.041.282.07.426.086a.545.545 0 0 0 .256-.043l4.098-1.322a1.017 1.017 0 0 0 .383-.257l2.69-2.988-.086-1.195-.64-.554-3.116 3.456-3.415 1.11-2.474-2.219.725-3.5 3.116-3.457-.641-.597-1.195.086-2.688 2.987a1.677 1.677 0 0 0-.213.383l-.898 4.182a.959.959 0 0 0 .257.812s-.427.129-.511.256L65.076 79.85a5.91 5.91 0 0 0-2.56 4.397 5.968 5.968 0 0 0 5.207 6.402l20.058 3.37v-.043c.214.043.384.086.597.13.215 0 .428.042.641.042a7.67 7.67 0 0 0 7.639-7.042 7.753 7.753 0 0 0-7.085-8.28z" style="fill:#1d4a79;fill-rule:nonzero;stroke-width:1.53413"/><path d="M68.448 90.22s-5.164-1.45-5.164-6.06c0-3.926 5.335-4.822 5.335-4.822l20.698.297s6.615.769 6.615 6.83c0 5.974-6.615 6.786-6.615 6.786z" style="fill:#fff;fill-opacity:.3;fill-rule:nonzero;stroke-width:1.53413"/><path d="M68.448 89.88a5.12 5.12 0 1 0 0-10.242 5.12 5.12 0 0 0 0 10.242z" style="fill:#fff;fill-opacity:.3;fill-rule:nonzero;stroke-width:1.53413"/><path d="m77.325 65.51 2.39 1.536-5.037 12.761-7.98-.172z" style="fill:#fff;fill-opacity:.2;fill-rule:nonzero;stroke-width:1.53413"/><path d="M87.226 89.882h3.415a.459.459 0 0 0 .383-.213l1.708-2.989a.387.387 0 0 0 0-.426l-1.708-2.987a.44.44 0 0 0-.383-.214h-3.415a.44.44 0 0 0-.384.214l-1.707 2.987a.391.391 0 0 0 0 .426l1.707 2.989a.446.446 0 0 0 .384.213z" style="fill:#fff;fill-opacity:.3;fill-rule:nonzero;stroke-width:1.53413"/><path d="M68.448 89.883a5.12 5.12 0 1 0 0-10.242 5.12 5.12 0 0 0 0 10.242z" style="fill:none;fill-rule:nonzero;stroke:#fff;stroke-width:1.7029px"/><path d="M67.594 86.467H69.3c.086 0 .13-.043.172-.128l.853-1.494a.19.19 0 0 0 0-.213l-.853-1.494c0-.043-.086-.085-.172-.085h-1.707c-.085 0-.128.042-.17.128l-.853 1.494a.192.192 0 0 0 0 .213l.852 1.493c0 .043.086.086.17.086zm21.34-7.682v1.706h.512a5.839 5.839 0 0 1 4.055 2.091 5.99 5.99 0 0 1 .872 6.393 5.99 5.99 0 0 1-5.44 3.467h-.512a5.839 5.839 0 0 1-4.055-2.09 5.99 5.99 0 0 1-.873-6.394 5.99 5.99 0 0 1 5.44-3.467zm0 0a7.67 7.67 0 0 0-.597 15.322c.213 0 .426.041.64.041a7.67 7.67 0 0 0 .596-15.321 3.182 3.182 0 0 0-.64-.042z" style="fill:#fff;fill-rule:nonzero;stroke-width:1.53413"/><path d="m90.428 83.906 1.492 2.56-1.492 2.561h-2.946l-1.493-2.56 1.493-2.56zm.213-.853h-3.415a.44.44 0 0 0-.384.214l-1.707 2.987a.391.391 0 0 0 0 .426l1.707 2.989a.446.446 0 0 0 .384.213h3.415a.459.459 0 0 0 .383-.213l1.708-2.989a.387.387 0 0 0 0-.426l-1.708-2.987a.44.44 0 0 0-.383-.214z" style="fill:#fff;fill-rule:nonzero;stroke-width:1.53413"/><path d="m67.809 89.839 20.058 3.372m1.066-13.571H68.448" style="fill:none;fill-rule:nonzero;stroke:#fff;stroke-width:1.7029px;stroke-linejoin:miter;stroke-miterlimit:10"/><path d="m65.716 80.405 10.627-13.613a1.22 1.22 0 0 1 1.707-.17l.513.469a1.105 1.105 0 0 1 .299 1.28l-4.438 11.266" style="fill:none;fill-rule:nonzero;stroke:#fff;stroke-width:1.7029px"/><path d="m87.44 63.208-.64-.598-3.116 3.457-3.414 1.11-2.433-2.22.726-3.5 3.116-3.456-.683-.555-1.195.086-2.69 2.987a1.749 1.749 0 0 0-.213.385l-.896 4.182a.933.933 0 0 0 .257.81l3.2 2.86a.902.902 0 0 0 .555.213.526.526 0 0 0 .256-.043l4.096-1.323a1.005 1.005 0 0 0 .385-.256l2.688-2.987z" style="fill:#fff;fill-rule:nonzero;stroke:#fff;stroke-width:.429556px;stroke-linejoin:miter;stroke-miterlimit:10"/><defs><linearGradient id="a" x1="0" y1="0" x2="1" y2="0" gradientUnits="userSpaceOnUse" gradientTransform="rotate(90 34.508 45.455) scale(138.77173)"><stop offset="0" style="stop-color:#00abde;stop-opacity:1"/><stop offset="1" style="stop-color:#007ed8;stop-opacity:1"/></linearGradient><linearGradient id="b" x1="0" y1="0" x2="1" y2="0" gradientUnits="userSpaceOnUse" gradientTransform="rotate(-90 92.394 12.849) scale(54.62798)"><stop offset="0" style="stop-color:#1d4a79;stop-opacity:1"/><stop offset="1" style="stop-color:#45caf2;stop-opacity:1"/></linearGradient></defs></svg>