<svg width="16" height="16" viewBox="0 0 16 16" fill="none" xmlns="http://www.w3.org/2000/svg"><path fill-rule="evenodd" clip-rule="evenodd" d="M4.98 14.792c-1.496 0-2.48-1.256-2.48-2.88v-.016C2.5 10.272 3.508 9 4.996 9c1.48 0 2.48 1.256 2.48 2.88v.016c0 1.624-1 2.896-2.496 2.896zm.022-1.112c.744 0 1.216-.752 1.216-1.768v-.016c0-1.016-.496-1.784-1.232-1.784s-1.216.744-1.216 1.768v.016c0 1.024.488 1.784 1.232 1.784zm5.978-6.688c-1.496 0-2.48-1.256-2.48-2.88v-.016C8.5 2.472 9.508 1.2 10.996 1.2c1.48 0 2.48 1.256 2.48 2.88v.016c0 1.624-1 2.896-2.496 2.896zm.022-1.112c.744 0 1.216-.752 1.216-1.768v-.016c0-1.016-.496-1.784-1.232-1.784S9.77 3.056 9.77 4.08v.016c0 1.024.488 1.784 1.232 1.784zm-6.36 1.111V2.6l-.976.24-.256-1.008 1.608-.48h.84v5.64H4.642z" fill="#AFB1B3"/><path d="M3.41 6.092h3.5v.9h-3.5v-.9z" fill="#AFB1B3"/><path fill-rule="evenodd" clip-rule="evenodd" d="M10.642 14.64v-4.392l-.976.24L9.41 9.48 11.018 9h.84v5.64h-1.216z" fill="#AFB1B3"/><path d="M9.41 13.74h3.5v.9h-3.5v-.9z" fill="#AFB1B3"/></svg>