<svg xmlns="http://www.w3.org/2000/svg" width="16" height="16" viewBox="0 0 16 16"><defs><linearGradient id="a" x1="64.01" y1="30.27" x2="32.99" y2="54.48" gradientUnits="userSpaceOnUse" gradientTransform="matrix(.20997 0 0 .23466 1.464 .12)"><stop offset=".18" stop-color="#0052cc"/><stop offset="1" stop-color="#2684ff"/></linearGradient></defs><path fill="none" d="m5.922 6.015.728 4.315h2.74l.662-4.315z"/><path d="M1.884 1.589a.42.47 0 0 0-.42.544l1.783 12.095a.571.638 0 0 0 .558.533h8.552a.42.47 0 0 0 .42-.395l1.783-12.23a.42.47 0 0 0-.42-.545zM9.39 10.33H6.66l-.738-4.315h4.13z" fill="#2684ff"/><path d="M13.993 6.015h-3.941L9.39 10.33H6.66l-3.222 4.276a.569.636 0 0 0 .367.155h8.554a.42.47 0 0 0 .42-.395z" fill="url(#a)"/></svg>