<svg width="16" height="16" viewBox="0 0 977 401" xmlns="http://www.w3.org/2000/svg"><g fill-rule="evenodd" fill="#5b83ff"><path d="M585.869 258.745v-113.04L487.99 89.198l-97.876 56.507v113.04l97.875 56.53 97.88-56.53"/><path d="M878.523-21.46c-7.585-13.777-18.908-25.188-33.796-33.78-103.847-59.96-207.7-119.912-311.546-179.872-28.878-16.667-62.763-15.951-90.284-.062-17.639 10.185-35.284 20.376-52.935 30.565V-9.952l98.026-56.595L721.194 68.088v269.3L487.988 472.026 254.765 337.389v-465.615L130.514-56.479c-28.894 16.682-44.32 33.194-44.32 65.902v372.33c0 17.01 4.535 32.324 11.868 45.275 8.21 14.498 19.933 26.03 32.91 33.522C234.39 520.255 337.8 579.972 441.227 639.675c30.352 17.53 63.015 17.61 93.198.186 103.667-59.857 207.345-119.713 311.004-179.564 29.033-16.757 44.343-43.355 44.343-77.177V25.295c0-17.608-3.846-33.308-11.248-46.754"/></g></svg>