<svg xmlns="http://www.w3.org/2000/svg" width="16" height="16" viewBox="0 0 16 16" preserveAspectRatio="xMinYMin meet"><path d="M15.14 8.073c-.737-.816-4.424-1.326-5.587-1.474a3.414 3.932 0 0 0 .144-.475 4.655 5.362 0 0 1 .507-.217c.021.074.123.354.18.488 2.34.074 2.46-2.003 2.555-2.572.093-.556.089-1.093.89-2.076-1.194-.401-2.914.622-3.49 2.145a3.223 3.223 0 0 0-.647-.205C9.538 2.973 8.738.983 6.638.983 3.978.983 1.08 3.51 1.08 7.788c0 3.596 2.131 6.747 3.335 6.747.526 0 .979-.454 1.085-.86.089.278.362 1.145.452 1.366.132.326.746.608 1.014.27.345.22.978.354 1.324-.235.664.162 1.252-.295 1.265-.84.326-.02.486-.547.414-.967-.052-.31-.613-1.419-.832-1.802.433.406 1.53.52 1.663 0 .699.631 1.787.3 1.873-.213.848.254 1.821-.304 1.661-.98 1.363-.108 1.189-1.778.806-2.201z" fill="#543729"/><path d="M11.346 4.51c.293-.67.662-1.402 1.128-1.856-.513.238-1.019.95-1.318 1.71a4.617 5.319 0 0 0-.464-.298c.418-1.027 1.388-1.884 2.457-1.95-.716.747-.462 2.302-1.05 3.126a8.102 8.102 0 0 0-.753-.731zm-.463 1.093c0-.026.009-.224.024-.314a2.17 2.17 0 0 0-.43-.065c-.009.192.071.52.15.717.544-.013.937-.2 1.168-.373-.197-.106-.533-.2-.788-.256-.029.068-.099.24-.124.291z" fill="#00acee"/><path d="M8.861 10.91v.003a9.787 9.787 0 0 1-.229-.65c.34.571 1.408.277 1.352-.235.522.453 1.598-.075 1.353-.71.524.28 1.12-.285.987-.53.892.197 1.747.395 2.015.474-.178.335-.584.571-1.196.407.33.519-.311 1.142-1.206.799.197.51-.6.968-1.504.437.011.51-1.123.568-1.572.005zm1.77-2.576c1.036.091 2.748.27 3.808.44-.067-.397-.25-.51-.825-.689-.62.076-2.19.254-2.983.249z" fill="#2baf2b"/><path d="M9.984 10.028c.522.453 1.598-.075 1.353-.71.524.28 1.12-.285.987-.53a84.013 84.013 0 0 0-2.413-.511c.153.01.405.03.72.057.793.005 2.364-.173 2.983-.249-1.003-.292-3.049-.72-4.462-.825a2.26 2.26 0 0 1-.395.496c-.618 1.507-1.738 2.508-2.978 2.508-.361 0-.765-.07-1.218-.237-.282.349-1.487.613-2.464.06.775 2.091 2.573 3.486 4.562 3.486 1.676 0 2.42-1.97 2.256-2.492-.039-.127-.195-.546-.283-.818.34.571 1.408.277 1.352-.235z" fill="#ffcc2f"/><path d="M8.969 6.061c.147-.092.659-.45 1.146-.584a2.161 2.49 0 0 1-.017-.187c-.32.088-.922.385-1.268-.025.729.253 1.093-.225 1.628-.225.32 0 .775.102 1.133.265-.288-.308-1.235-1.235-2.407-1.238a2.179 2.179 0 0 0-.215 1.994z" fill="#cecece"/><path d="M4.561 10.027c.453.167.857.237 1.218.237 1.24 0 2.36-1.001 2.978-2.508-.457.44-1.252.816-2.493.816 1.105-.289 2.057-.923 2.541-1.85-.34-.625-.71-2.005.225-3.096-.144-.532-.843-1.936-2.392-1.936-2.704 0-4.945 2.605-4.945 6.098 0 .826.145 1.602.404 2.3.977.552 2.182.288 2.464-.06z" fill="#ef5734"/><path d="M5.372 4.71c0 .794.56 1.438 1.249 1.438.69 0 1.249-.644 1.249-1.438 0-.794-.56-1.438-1.25-1.438-.689 0-1.248.644-1.248 1.438z" fill="#ffcc2f"/><path d="M5.873 4.71c0 .476.335.861.748.861s.747-.385.747-.861-.334-.861-.747-.861-.748.385-.748.861z" fill="#543729"/><ellipse cx="6.621" cy="4.328" rx=".436" ry=".312" fill="#fff"/></svg>