<svg xmlns="http://www.w3.org/2000/svg" width="16" height="16" viewBox="0 0 256 256" preserveAspectRatio="xMidYMid"><path d="M127.688 8.1c65.703 0 118.966 53.402 118.966 119.277 0 65.874-53.263 119.277-118.966 119.277-65.702 0-118.965-53.403-118.965-119.277C8.723 61.502 61.986 8.1 127.688 8.1" fill="#ffd539"/><path d="M171.345 62.52c.972 3.386-1.594 33.973 47.16 52.397-3.47 7.049-18.96 13.725-46.735 20.02-3.291-40.801-10.94-61.129-.425-72.417" fill="#fff"/><path d="M179.622 131.859c-2.133.48-4.29.91-6.473 1.29-.529-9.854-1.682-18.472-2.819-26.182a6.789 6.789 0 0 0 7.89-5.256c.787-3.68-1.55-7.302-5.22-8.093a6.777 6.777 0 0 0-2.852 0 4.263 4.263 0 0 1 2.978 5.235 4.253 4.253 0 0 1-3.54 3.1c-2.231-14.957-3.717-26.486 1.113-37.485-.07 12.25 5.228 23.282 14.737 32.592 8.7 8.521 20.81 15.131 30.426 17.6.534.639.56 1.417-.134 2.481a24.228 24.228 0 0 1-2.557 1.745c-9.173 5.391-20.395 10.008-33.549 12.973m44.638-23.055c0-5.647-4.566-10.224-10.197-10.224-4.786 0-8.79 3.31-9.889 7.767-15.758-8.223-33.78-24.903-29.374-48.994 3.277-4.558 7.842-9.135 14.17-13.946-11.835-1.39-24.414.76-36.396 5.374-.188-6.244.56-12.93 2.509-20.77-11.488 2.937-22.412 9.415-31.914 17.964-2.422-5.777-4.111-12.315-5.096-20.362-9.726 6.907-17.642 16.95-23.467 28.422-4.363-4.543-8.308-10.068-12.133-17.28-6.598 9.922-10.395 22.113-11.741 34.887-5.573-2.66-11.12-6.353-17.137-11.596-2.61 11.623-1.804 24.354 1.5 36.753-6.284-.447-12.907-1.897-20.573-4.694 1.718 11.8 7.03 23.405 14.556 33.8-5.917 1.761-12.49 2.751-20.458 2.892 5.842 10.433 14.992 19.385 25.78 26.396-4.974 3.898-10.888 7.27-18.477 10.345h.002c9.144 7.608 20.825 12.667 33.341 15.346-3.22 5.27-7.459 10.406-13.279 15.848 11.234 3.81 23.919 4.342 36.537 2.359-1.108 6.168-3.229 12.57-6.775 19.859h.002c11.883-.481 23.951-4.564 35.048-10.98 1.188 6.186 1.504 12.963.794 21.093 23.958-10.349 42.569-37.163 49.131-63.707 1.781-4.799 2.728-11.741 2.728-21.324 0-2.57-.061-5.042-.15-7.46 19.379-3.299 33.482-9.981 41.586-14.746 2.973-1.748 5.986-4.314 6.952-6.418a10.194 10.194 0 0 0 2.42-6.604"/><path d="M122.075 221.612c.003-3.82-.224-8.55-.504-10.512l-.51-3.567-5.599 2.812c-3.079 1.546-8.047 3.632-11.04 4.635-5.143 1.723-16.38 4.045-17.521 3.621-.29-.107.414-2.438 1.563-5.18 2.03-4.842 4.518-13.753 3.978-14.247-.147-.134-3.346.051-7.108.415-7.638.736-17.433.01-24.81-1.839l-4.234-1.062 4.021-4.094c3.705-3.773 9.387-11.202 8.924-11.666-.11-.109-3.124-1.065-6.699-2.124-3.575-1.06-8.83-3.017-11.678-4.349-5.172-2.419-13.826-7.797-13.823-8.59.001-.23 2.174-1.454 4.829-2.719 5.002-2.384 12.62-7.141 12.607-7.874-.004-.23-1.476-1.438-3.27-2.684-4.366-3.031-10.471-8.529-14.3-12.877-3.09-3.507-7.345-9.392-7.345-10.158 0-.217 2.314-.59 5.14-.83 4.544-.384 13.157-1.955 14.27-2.604.225-.13-.845-2.13-2.376-4.443-5.099-7.706-10.084-19.427-11.182-26.292-.424-2.653-.398-2.709 1.063-2.282 4.935 1.445 13.143 3.385 15.742 3.722l3.03.392-.303-1.71c-.167-.942-.789-4.376-1.382-7.631-1.241-6.81-1.16-24.96.118-26.238.529-.529 1.47-.07 3.715 1.813 3.375 2.83 11.912 8.225 13.014 8.225.416 0 .877-1.509 1.095-3.582.519-4.946 3.086-14.497 5.394-20.076 2.118-5.115 4.804-9.994 5.493-9.975.243.007 1.924 2.375 3.736 5.262 1.811 2.887 4.493 6.574 5.96 8.193l2.664 2.944 2.321-4.223c4.455-8.103 13.195-18.595 18.816-22.586l1.904-1.352 1.054 5.577c1.041 5.508 3.234 12.907 4.09 13.797.241.252 1.831-.703 3.533-2.121 7.277-6.068 20.085-13.143 26.232-14.489l1.954-.428-.85 3.928c-.468 2.16-1.04 6.802-1.27 10.314l-.42 6.385 3.676-1.28c9.203-3.203 22.406-5.272 28.859-4.522l3.374.392-1.505 1.183c-3.232 2.541-10.695 10.242-11.6 11.972-.755 1.442-.893 3.332-.66 9.034.328 8.002 1.675 12.66 5.536 19.147 3.14 5.276 11.234 13.226 17.904 17.586 6.173 4.035 6.941 4.356 6.941 2.899 0-1.375 3.48-5.06 5.612-5.943 2.482-1.028 7.492-.505 9.516.992 2.294 1.696 4.187 5.334 4.187 8.045 0 3.206-2.829 8.135-6.104 10.636-8.307 6.343-25.073 12.831-43.247 16.738l-1.688.362-.012 8.792c-.013 9.572-.54 13.49-2.968 22.04-7.458 26.273-25.016 49.685-44.741 59.661l-3.121 1.578.005-6.944zm60.97-90.399c11.907-3.051 23.263-7.652 31.099-12.599 3.625-2.288 3.07-3.796-2.03-5.516-16.03-5.405-31.094-18.127-37.387-31.575-1.998-4.27-3.673-10.99-3.775-15.144l-.061-2.492-1.163 2.492c-1.875 4.018-2.678 10.486-2.283 18.38.448 8.97 1.67 17.446 2.513 17.446.353 0 1.29-.61 2.084-1.354 1.54-1.447 1.847-3.58.797-5.54-1.031-1.928 1.043-1.526 3.185.616 1.428 1.428 1.821 2.38 1.821 4.41 0 3.294-2.62 6.23-5.56 6.23-2.293 0-2.284-.09-1.025 9.995.49 3.926 1.075 9.312 1.3 11.968.293 3.477.646 4.828 1.262 4.828.47 0 4.62-.965 9.224-2.145z" fill="#4d4d4d"/></svg>