<svg width="16" height="16" viewBox="0 0 16 16" xmlns="http://www.w3.org/2000/svg"><path stroke="#af954c" stroke-width="1.069" fill="none" vector-effect="non-scaling-stroke" d="M9.313 8.545 7.165 6.182"/><path fill="#708991" d="M9.313 8.545 7.165 6.182c2.1-1.587-1.397-3.917-2.645-4.435a.277.284 24.913 0 1 .053-.54Q6.71.781 8.72 1.64c1.148.49 1.978 1.672 2.878 2.59.487.496.513.76.571 1.435q.027.318.328.383 1.503.307 2.344 1.7.132.226-.047.41l-2.265 2.362q-.217.227-.434-.005l-1.2-1.295q-.149-.167-.175-.389l-.127-1.052a.265.27 0 0 0-.46-.15z" style="stroke-width:.534266"/><path fill="#eda007" d="m7.165 6.182 2.148 2.363-6 6.387q-.116.124-.227 0l-2.027-2.115q-.095-.097 0-.194z" style="stroke-width:.534266"/></svg>