<svg width="16" height="16" viewBox="0 0 114 114" xml:space="preserve" fill-rule="evenodd" clip-rule="evenodd" xmlns="http://www.w3.org/2000/svg"><path d="M103.56 44.286c1.315 6.386 1.19 12.687.106 18.733a50.316 50.316 0 0 1-6.509 17.183 55.461 55.461 0 0 1-4.197 6.016 54.43 54.43 0 0 1-4.968 5.392c-5.25 4.965-11.61 8.918-18.99 11.164-5.841 1.833-11.754 2.52-17.519 2.135a48.733 48.733 0 0 1-17.36-4.486l-.529 1.014a50.675 50.675 0 0 0 17.601 6.1c6.122.927 12.495.738 18.9-.685 8.309-1.941 15.709-5.745 21.763-10.958a46.936 46.936 0 0 0 5.75-5.92 46.42 46.42 0 0 0 4.62-6.844c3.29-5.966 5.388-12.61 5.982-19.508.565-6.553-.243-13.3-2.443-19.927zM19.617 88.485c-2.417-2.65-4.579-5.578-6.372-8.789-1.746-3.131-3.138-6.51-4.175-10.09a45.628 45.628 0 0 1-.881-5.344c-.73-7.29.45-14.368 2.769-20.964 1.243-3.538 2.897-6.884 4.793-10.094 2.516-4.265 5.505-8.255 9.124-11.708 5.323-5.076 11.78-9.122 19.285-11.435 6.108-1.88 12.296-2.573 18.3-2.017 4.169.385 8.259 1.294 12.094 2.817 4.341 1.723 8.34 4.226 11.94 7.197 3.539 2.92 6.622 6.398 9.219 10.266.34.513.568 1.098.992 1.547.327.34.704.474 1.088.749l1.552-.987c-.094-.486-.087-.9-.29-1.348-.268-.592-.773-1.035-1.175-1.54-4.24-5.333-9.477-9.66-15.323-12.918-2.491-1.389-5.095-2.562-7.762-3.576-2.945-1.124-5.975-2.049-9.09-2.7-7.116-1.482-14.63-1.6-22.183.13-8.188 1.875-15.488 5.577-21.47 10.686-4.159 3.557-7.744 7.748-10.411 12.465-2.002 3.54-3.466 7.38-4.44 11.35-1.751 7.148-1.765 14.712-.188 22.26.374 1.788.809 3.568 1.37 5.347.91 3.692 2.228 7.173 3.84 10.441a51.172 51.172 0 0 0 5.996 9.452z" fill="#1f88c0"/><path d="M22 12c0-1.097-.903-2-2-2-.579 0-1.103.251-1.47.649-.328.357-.53.832-.53 1.351 0 1.097.903 2 2 2s2-.903 2-2z" fill="none" stroke="#1f88c0" stroke-width="1.05" transform="matrix(-3.6869 -.56277 .56277 -3.68692 169.26 91.377)"/><path d="M86.228 51.193s1.304-1.215 2.93-2.811c2.857-2.807 6.687-6.73 6.687-6.73l-1.256-1.471s-4.472 3.176-7.693 5.555c-1.825 1.36-3.23 2.46-3.23 2.46z" fill="#1f88c0"/><g fill="none" stroke="#22b638" stroke-width="1.89"><path d="M9.876 21h8.286a.838.838 0 0 0 .838-.838v-8.324a.838.838 0 0 0-.838-.838H5.838a.838.838 0 0 0-.838.838v4.92" stroke-linecap="butt" stroke-linejoin="miter" transform="matrix(3.40601 0 0 3.40603 16.406 15.224)"/><path d="M8 11V7c0-2.194 1.806-4 4-4s4 1.806 4 4v4" transform="matrix(3.40601 0 0 3.40603 16.406 15.224)"/></g><path d="M22 12a2.009 2.009 0 0 0-2-2c-1.097 0-2 .903-2 2s.903 2 2 2 2-.903 2-2z" fill="none" stroke="#1f88c0" stroke-width=".98" transform="matrix(5.8072 .76275 -.76275 5.80724 -77.202 5.074)"/><path d="M54.152 68.35s-7.19 4.287-12.353 7.622a142.145 142.145 0 0 0-5.135 3.471l4.584 5.859s2.062-1.773 4.6-4.155c4.477-4.21 10.376-10.155 10.376-10.155Z" fill="#1f88c0"/></svg>
