<svg width="16" height="16" viewBox="0 0 16 16" fill="none" xmlns="http://www.w3.org/2000/svg"><path d="M7.684.704a.685.681 0 0 1 .627 0l6.703 3.51a.463.461 0 0 1 .258.397L7.998 8.823.717 4.664v-.053c0-.16.098-.313.257-.391z" fill="#f3c07b" style="stroke-width:.569656"/><path d="m7.995 8.16 6.974-3.648a.226.224 0 0 1 .201-.002.198.197 0 0 1 .076.064.156.155 0 0 1 .027.087v6.524a.826.822 0 0 1-.136.447.997.992 0 0 1-.373.335l-6.532 3.414a.183.182 0 0 1-.053.016.191.19 0 0 1-.05.006.632.628 0 0 1-.42-.044h.003l-1.47-5.744Z" fill="#ffce7c" style="stroke-width:.569656"/><path d="M7.997 15.231v-7.07L1.03 4.514c-.141-.073-.312.01-.312.148v6.524c0 .322.195.618.508.781l6.488 3.394c.124.07.283-.01.283-.131z" fill="#e19747" style="stroke-width:.569656"/><path d="M5.48 8.322V5.91l-2.013-.117v1.67c0 .054.03.107.086.138l1.646.862c.122.058.282-.016.282-.142z" fill="#8c5543" style="stroke-width:.569656"/><path d="M10.748 1.983 3.467 5.794l2.015 1.058 7.28-3.806Z" fill="#a56953" style="stroke-width:.569656"/><path d="m15.776 11.538-.348-.22a5.002 4.949 0 0 0-.01-.103l.299-.284a.125.123 0 0 0-.04-.204l-.382-.146a4.682 4.632 0 0 0-.03-.1l.239-.338a.126.125 0 0 0 .013-.118.12.12 0 0 0-.091-.073l-.403-.067a3.534 3.497 0 0 0-.048-.092l.169-.379a.126.125 0 0 0-.009-.118.118.117 0 0 0-.104-.055l-.41.015a3.31 3.276 0 0 0-.063-.08l.093-.406a.126.124 0 0 0-.032-.114.118.117 0 0 0-.112-.034l-.398.096a3.462 3.425 0 0 0-.078-.065l.014-.417a.124.123 0 0 0-.053-.106.116.115 0 0 0-.117-.009l-.371.173a4.272 4.226 0 0 0-.09-.05l-.066-.41a.123.122 0 0 0-.073-.094.116.115 0 0 0-.115.014l-.332.243a3.556 3.518 0 0 0-.098-.03l-.144-.39a.118.117 0 0 0-.2-.04l-.278.304a3.495 3.457 0 0 0-.1-.01l-.217-.355a.119.118 0 0 0-.1-.058.118.117 0 0 0-.103.058l-.216.355-.1.01-.28-.305a.118.117 0 0 0-.2.041l-.143.39-.098.03-.331-.243a.116.115 0 0 0-.116-.014.123.122 0 0 0-.072.093l-.066.41-.091.05-.37-.172a.116.115 0 0 0-.117.01.124.123 0 0 0-.053.105l.014.417a3.847 3.806 0 0 0-.078.065l-.4-.095a.118.117 0 0 0-.111.033.126.124 0 0 0-.032.114l.094.406a3.944 3.902 0 0 0-.065.08l-.409-.015a.12.118 0 0 0-.104.055.126.125 0 0 0-.009.118l.169.379-.048.092-.403.066a.12.12 0 0 0-.091.074.126.125 0 0 0 .013.118l.239.338-.03.1-.382.146a.126.125 0 0 0-.04.203l.298.284a4.153 4.109 0 0 0-.009.104l-.348.22a.124.123 0 0 0-.057.103c0 .042.021.082.057.104l.348.219.01.103-.3.285a.126.124 0 0 0 .04.203l.382.146.03.1-.238.338a.126.125 0 0 0-.013.118.12.12 0 0 0 .09.074l.404.067.049.092-.17.378a.126.125 0 0 0 .01.119.118.117 0 0 0 .103.054l.41-.014c.02.026.041.053.064.08l-.094.405a.126.125 0 0 0 .032.114c.03.03.071.042.112.034l.399-.096c.025.022.05.044.078.065l-.014.417a.124.123 0 0 0 .053.106.118.118 0 0 0 .116.01l.371-.174.091.05.066.41a.12.12 0 0 0 .072.094.115.115 0 0 0 .116-.014l.331-.243c.032.01.065.021.099.03l.143.39a.12.12 0 0 0 .089.077.117.116 0 0 0 .11-.036l.278-.305.102.01.216.355a.118.117 0 0 0 .203 0l.215-.355.102-.01.279.305a.117.116 0 0 0 .11.036.12.12 0 0 0 .09-.077l.143-.39.098-.03.332.243c.033.025.076.03.115.014a.122.12 0 0 0 .073-.093l.065-.41.09-.05.372.172a.116.115 0 0 0 .116-.009.125.123 0 0 0 .053-.106l-.013-.417.078-.065.398.095a.116.115 0 0 0 .112-.033.126.124 0 0 0 .032-.114l-.093-.405a3.313 3.278 0 0 0 .064-.08l.408.014a.118.117 0 0 0 .104-.054.126.125 0 0 0 .01-.119l-.17-.378.049-.092.403-.067a.12.118 0 0 0 .091-.074.126.125 0 0 0-.014-.118l-.237-.338.03-.1.381-.146a.125.123 0 0 0 .04-.203l-.299-.284.01-.104.348-.22a.124.123 0 0 0 .056-.103.124.123 0 0 0-.056-.103zm-2.328 2.94a.254.251 0 0 1-.189-.298.246.244 0 0 1 .292-.192.254.251 0 0 1 .189.297.246.244 0 0 1-.292.193zm-.118-.814a.224.222 0 0 0-.267.175l-.123.588a2.946 2.914 0 0 1-2.527-.012l-.123-.588a.224.222 0 0 0-.267-.176l-.509.111a3.088 3.055 0 0 1-.263-.315h2.476c.028 0 .047-.006.047-.032v-.892c0-.025-.019-.031-.047-.031h-.724v-.566h.783c.072 0 .382.021.482.426.03.125.1.53.146.659.047.145.236.436.439.436h1.233a.246.244 0 0 0 .045-.005 3.11 3.076 0 0 1-.28.335zm-3.425.802a.246.244 0 0 1-.292-.192.254.251 0 0 1 .189-.299.246.244 0 0 1 .292.193.254.251 0 0 1-.189.298Zm-.94-3.88a.257.254 0 0 1-.125.33.243.24 0 0 1-.325-.127.257.254 0 0 1 .126-.331.243.24 0 0 1 .324.127zm-.289.696.53-.24a.234.232 0 0 0 .114-.302l-.11-.252h.43v1.973h-.864a3.212 3.178 0 0 1-.099-1.179zm2.327-.191v-.582h1.023c.053 0 .372.063.372.306 0 .203-.244.276-.446.276zm3.715.523c0 .077-.003.153-.009.229h-.31c-.031 0-.044.02-.044.052v.146c0 .342-.19.417-.355.435-.158.018-.334-.067-.356-.166-.092-.534-.247-.649-.494-.846.306-.197.623-.488.623-.877 0-.42-.284-.684-.476-.814a1.321 1.307 0 0 0-.65-.219H9.431a3.005 2.973 0 0 1 1.695-.974l.38.404a.22.217 0 0 0 .316.009l.424-.414a3.038 3.005 0 0 1 2.074 1.505l-.29.668a.234.231 0 0 0 .114.302l.56.254c.009.1.014.202.014.306zm-3.212-3.379a.241.239 0 0 1 .348.009c.093.1.09.258-.009.354a.24.238 0 0 1-.347-.008.26.257 0 0 1 .008-.355zm2.88 2.362a.243.24 0 0 1 .325-.128.257.254 0 0 1 .125.331.243.24 0 0 1-.325.129.257.254 0 0 1-.125-.332z" fill="#000" style="stroke-width:.838593"/></svg>