<svg width="16" height="16" xmlns="http://www.w3.org/2000/svg"><path d="M11.16 8.553H9.344V7.62a1.352 1.352 0 0 0-2.702 0v.933H4.825V7.62a3.171 3.171 0 0 1 3.168-3.167A3.171 3.171 0 0 1 11.16 7.62v.933z" fill="#f9a11d"/><path d="M11.893 8.553h-7.8a.607.607 0 0 0-.606.605v5.77c0 .333.273.606.606.606h7.8a.607.607 0 0 0 .605-.606v-5.77a.607.607 0 0 0-.605-.605zM8.388 12.34v.782a.395.395 0 0 1-.79 0v-.781a.802.802 0 1 1 .79 0z" fill="#2c3c69" style="stroke-width:.225927"/><path d="M3.302 7.692H1.42a.553.553 0 1 1 0-1.105h1.882a.553.553 0 1 1 0 1.105zm1.326-2.96a.55.55 0 0 1-.35-.126l-1.49-1.224a.553.553 0 1 1 .702-.854l1.49 1.224a.553.553 0 0 1-.352.98ZM7.993 3.43a.553.553 0 0 1-.553-.552V.98a.553.553 0 1 1 1.105 0v1.897a.553.553 0 0 1-.552.552z" fill="#f9a11d" style="stroke-width:.225927"/><path d="M11.358 4.732a.553.553 0 0 1-.352-.98l1.489-1.224a.553.553 0 0 1 .702.854l-1.489 1.224a.55.55 0 0 1-.35.126Z" fill="#f9a11d"/><path d="M14.566 7.692h-1.9a.553.553 0 1 1 0-1.105h1.9a.553.553 0 1 1 0 1.105z" fill="#f9a11d" style="stroke-width:.225927"/></svg>