<svg xmlns="http://www.w3.org/2000/svg" width="16" height="16" viewBox="0 0 16 16" preserveAspectRatio="xMinYMin meet"><g transform="matrix(.05097 0 0 .05281 1.56 1.204)" fill="#343434"><circle cx="126.157" cy="129.008" r="30.593"/><path d="M1.204 96.572c0 .368-.369 1.105-.369 1.474 0 3.317 2.58 6.266 6.266 6.266h51.972c2.58 0 4.423-1.474 5.529-3.686 10.69-23.59 34.28-39.44 61.186-39.44 37.228 0 67.453 30.225 67.453 67.453s-30.225 67.453-67.453 67.453c-27.276 0-50.497-16.218-61.186-39.071-1.106-2.58-2.949-4.055-5.53-4.055H7.103c-3.318 0-6.267 2.58-6.267 6.267 0 .368 0 1.105.369 1.474 14.375 56.026 64.872 97.309 124.953 97.309 71.139 0 129.008-57.87 129.008-129.008C255.165 57.869 197.295 0 126.157 0 66.077 0 15.579 41.283 1.204 96.572z"/></g><path d="M7.546 14.802c-1.241-.084-2.463-.558-3.49-1.353a8.81 8.81 0 0 1-1.063-1.041A7.251 7.251 0 0 1 1.7 9.93c-.088-.304-.093-.375-.038-.481.08-.156.052-.153 1.593-.153 1.204 0 1.412.005 1.459.038.03.021.12.162.2.314.538 1.02 1.4 1.668 2.497 1.88.277.053.915.04 1.222-.026 1.419-.302 2.471-1.417 2.738-2.897a4.527 4.527 0 0 0-.003-1.217c-.194-1.133-.909-2.114-1.904-2.611a3.207 3.207 0 0 0-1.605-.339c-.564.02-.938.117-1.424.368-.657.339-1.157.85-1.517 1.55-.109.211-.153.272-.224.308-.08.041-.203.045-1.44.045-1.466 0-1.465 0-1.576-.141-.076-.097-.07-.19.036-.542a6.874 6.874 0 0 1 1.728-2.902 6.55 6.55 0 0 1 3.862-1.872c.41-.046 1.348-.018 1.743.052a6.457 6.457 0 0 1 3.487 1.819c1.08 1.08 1.73 2.4 1.962 3.983.063.428.063 1.39 0 1.819a6.923 6.923 0 0 1-.706 2.262 6.785 6.785 0 0 1-2.32 2.59 6.87 6.87 0 0 1-2.076.883 6.83 6.83 0 0 1-1.848.142z" fill="#999"/><path d="M7.808 9.613a1.758 1.758 0 0 1-.825-.382 1.786 1.786 0 0 1-.459-.71c-.058-.179-.069-.256-.07-.506 0-.255.01-.321.07-.499.14-.404.41-.733.75-.915.603-.322 1.299-.215 1.792.276.63.627.624 1.656-.014 2.29a1.514 1.514 0 0 1-.696.407 2.125 2.125 0 0 1-.548.039z" fill="#999"/><path d="M7.55 14.805c-.02-.02-.605-.08-.628-.065-.013.008-.023 0-.023-.016 0-.018-.025-.025-.064-.018-.036.007-.064.001-.064-.013 0-.013-.03-.02-.064-.012-.036.006-.064.004-.064-.006s-.067-.033-.148-.05c-.426-.094-1.122-.37-1.607-.64-.922-.511-1.811-1.365-2.384-2.286a8.21 8.21 0 0 1-.577-1.148 1.522 1.522 0 0 0-.126-.277c-.012-.004-.015-.025-.008-.045.008-.02.002-.037-.013-.037s-.021-.017-.013-.038c.008-.021.001-.038-.015-.038s-.023-.011-.015-.025c.017-.027-.063-.334-.087-.334-.01 0-.01-.07-.002-.154.023-.24.063-.266.417-.281l.288-.013-.23-.014c-.128-.008.38-.015 1.126-.015.747 0 1.236.007 1.089.016l-.27.016.31.005c.354.005.33-.008.487.267.054.095.108.173.12.173.012 0 .015.011.006.025-.008.013.008.048.037.076.029.03.046.053.038.053-.026 0 .254.39.301.419.026.015.046.04.046.055 0 .014.08.106.18.204.098.098.179.167.179.154 0-.013.017 0 .038.03.047.068.368.299.414.299.019 0 .034.009.034.02 0 .03.144.1.164.081.008-.009.016-.002.016.015 0 .018.011.025.025.016.014-.009.026-.002.026.016 0 .017.007.024.016.015.008-.009.031 0 .05.019.046.046.47.198.5.18.012-.009.023-.002.023.015s.021.024.051.017c.028-.008.051-.002.051.012 0 .015.023.02.05.013.028-.007.054-.002.059.012.031.094 1.41.063 1.469-.033a.026.026 0 0 1 .036-.01c.012.007.054 0 .094-.017a.274.274 0 0 1 .093-.025c.01.002.045-.01.077-.027a.41.41 0 0 1 .106-.04c.028-.004.058-.02.067-.035.01-.014.021-.024.027-.02.024.015.202-.06.202-.085 0-.016.007-.02.016-.012.02.02.214-.085.214-.115 0-.011.009-.018.02-.015.029.01.21-.109.21-.137 0-.014.012-.019.025-.01.013.007.04-.01.06-.038.02-.028.042-.045.05-.037.007.007.043-.022.08-.066.037-.044.068-.071.068-.06 0 .011.074-.053.165-.143.09-.09.16-.174.152-.185-.007-.012-.001-.021.014-.021.034 0 .259-.285.244-.31-.007-.01.006-.025.028-.033.022-.009.033-.027.024-.041-.009-.015-.005-.026.009-.026.029 0 .166-.226.166-.274 0-.019.009-.033.02-.033.02 0 .104-.203.098-.24-.001-.013.01-.031.024-.04.015-.01.033-.046.039-.08a.82.82 0 0 1 .017-.076.075.075 0 0 0 .001-.032c-.001-.01.01-.02.024-.02.015 0 .025-.013.022-.031a.274.274 0 0 1 .024-.105c.017-.04.024-.082.017-.094-.008-.012-.001-.03.014-.039.015-.01.022-.033.015-.052-.008-.02-.002-.042.013-.052.015-.009.021-.037.014-.063-.007-.026-.002-.05.011-.055.013-.004.032-.129.042-.277a3.884 3.884 0 0 0-.001-.717 6.118 6.118 0 0 1-.017-.286c0-.038-.011-.075-.024-.083-.013-.008-.018-.038-.01-.066.007-.028 0-.051-.015-.051s-.022-.015-.015-.034c.008-.019 0-.068-.017-.109a.67.67 0 0 1-.037-.128.763.763 0 0 0-.052-.154c-.05-.114-.054-.125-.059-.175a.157.157 0 0 0-.043-.077c-.022-.022-.034-.04-.025-.04.02 0-.09-.214-.12-.234-.013-.008-.022-.026-.02-.038.006-.03-.11-.215-.134-.215-.01 0-.02-.016-.02-.035 0-.019-.028-.065-.063-.103-.036-.038-.064-.08-.064-.094 0-.013-.024-.038-.052-.056-.028-.017-.05-.045-.05-.06 0-.05-.491-.503-.683-.63-.23-.154-.571-.338-.59-.32-.008.008-.032-.002-.053-.024-.021-.02-.055-.032-.074-.025-.02.008-.035.004-.035-.007 0-.026-.18-.082-.21-.065-.011.007-.02.003-.02-.01 0-.025-.197-.074-.41-.1a7.585 7.585 0 0 0-1 0 4.606 4.606 0 0 0-.339.055c-.052.011-.096.03-.096.044 0 .014-.01.018-.022.01-.023-.013-.261.058-.285.086a.107.107 0 0 1-.051.022c-.068.012-.41.191-.41.214 0 .012-.01.02-.02.016-.034-.01-.287.155-.287.186 0 .016-.011.021-.025.013-.026-.016-.6.523-.579.544.007.007-.016.036-.052.064-.035.028-.06.055-.053.061.006.006-.023.046-.063.09-.04.043-.067.088-.06.101.009.013.004.023-.01.023-.028 0-.139.177-.14.224 0 .018-.01.032-.023.032s-.016.012-.007.026c.009.014.003.025-.013.025s-.021.012-.013.026c.01.014.003.026-.012.026-.016 0-.022.011-.013.025.009.014.004.026-.01.026s-.052.047-.084.105c-.102.18-.089.179-1.195.194a27.85 27.85 0 0 1-1.408-.011c-.408-.024-.418-.026-.493-.097-.094-.09-.1-.218-.023-.477a.611.611 0 0 0 .038-.2c-.008-.012-.005-.026.006-.03.01-.005.07-.142.132-.304a6.949 6.949 0 0 1 1.34-2.206 6.619 6.619 0 0 1 3.478-2.01c.119-.025.222-.052.23-.06a.702.702 0 0 1 .179-.023.835.835 0 0 0 .192-.024c.014-.009.308-.012.653-.007.932.013.933.013.948.033.008.01.08.022.16.026s.146.017.147.03c0 .011.028.016.063.01.035-.007.066-.006.07.003.004.009.142.053.307.098a6.57 6.57 0 0 1 2.351 1.2c.276.22.807.752 1.034 1.035a7.04 7.04 0 0 1 1.39 3.041c.026.145.054.263.062.263.009 0 .01.035.004.077-.006.042 0 .091.014.109.015.02.025.35.025.838 0 .489-.01.82-.025.839-.014.017-.02.066-.014.108.006.042.004.08-.004.084a2.02 2.02 0 0 0-.074.31c-.368 1.91-1.547 3.595-3.194 4.564-.444.262-1.2.577-1.619.676-.074.018-.134.043-.134.057 0 .013-.011.017-.025.009a.775.775 0 0 0-.224.022c-.386.073-.64.098-1.143.115-.28.009-.513.011-.518.006z" fill="#e6e6e6"/><path d="M7.55 9.532a1.558 1.558 0 0 1-.662-.42 1.843 1.843 0 0 1-.385-.716c-.036-.16-.06-.609-.033-.653a.589.589 0 0 0 .032-.112c.03-.144.175-.435.302-.607a1.48 1.48 0 0 1 1.283-.589c.379.028.686.174.978.466.202.202.339.445.41.728.062.249.04.675-.047.92-.157.44-.515.812-.929.966a.826.826 0 0 0-.14.061 1.877 1.877 0 0 1-.308.022c-.27.007-.312.001-.501-.066z" fill="#e6e6e6"/></svg>