<svg xmlns="http://www.w3.org/2000/svg" width="16" height="16" viewBox="0 0 16 16"><path d="M14.325 1.97H1.687A1.04 1.04 0 0 0 .634 2.995v10.272a1.04 1.04 0 0 0 1.053 1.027h12.638a1.04 1.04 0 0 0 1.054-1.027V2.996a1.04 1.04 0 0 0-1.054-1.027zM2.74 9.16l2.107-2.055L2.74 5.05l1.054-1.028 3.16 3.082-3.16 3.081zm8.426 1.026H6.953V9.16h4.213z" fill="#376ec6"/><path d="m3.282 9.665-.516-.502 1.053-1.035 1.053-1.034-.185-.173c-.102-.095-.576-.553-1.053-1.018l-.867-.846.504-.504c.277-.278.513-.501.525-.497.051.02 3.12 3.034 3.112 3.057a98.57 98.57 0 0 1-1.56 1.54l-1.55 1.514zm3.696 0v-.504h4.166v1.009H6.978z" fill="#eee"/></svg>