<svg width="16" height="16" viewBox="0 0 52.7 52.7" xml:space="preserve" xmlns="http://www.w3.org/2000/svg"><path d="M10.49 22.093c1.163-4.209 3.939-7.79 7.7-10.029l-3.582-6.088C9.237 9.02 5.207 14.213 3.596 20.212Zm11.729-11.73a17.66 17.66 0 0 1 4.298-.537V2.753c-2.06 0-4.12.269-6.089.806zm8.595 0c4.208 1.163 7.88 3.94 10.028 7.7l6.177-3.581C43.887 9.109 38.694 5.08 32.606 3.469ZM2.79 26.3c0 2.06.269 4.118.807 6.088l6.894-1.79a17.66 17.66 0 0 1-.538-4.298Zm3.134 11.818a24.975 24.975 0 0 0 3.761 4.835l5.015-5.014a16.288 16.288 0 0 1-2.598-3.402Zm8.685 8.596c3.581 2.06 7.7 3.133 11.818 3.133v-7.073c-2.864 0-5.73-.716-8.237-2.238zm26.234-12.088c-2.238 3.761-5.82 6.536-10.029 7.7l1.881 6.805c6.089-1.611 11.282-5.552 14.415-11.013zm8.864-2.238c1.074-4.028 1.074-8.237.089-12.267L42.9 21.913c.716 2.776.716 5.73-.09 8.595z" style="stroke-width:.895338" fill="#ddd"/></svg>