<svg width="16" height="16" viewBox="0 0 16 16" xmlns="http://www.w3.org/2000/svg"><path d="M6.31 1.195a.358.358 0 0 0-.202.32v1.024a11.188 11.188 0 0 1 3.665 0V1.515a.358.358 0 0 0-.202-.32 3.701 3.701 0 0 0-1.63-.378c-.56 0-1.118.126-1.632.378zm8.222 9.966c-1.19 2.394-3.695 4.044-6.592 4.044-3.09 0-5.734-1.878-6.812-4.535.55-.477 1.195-.86 2.231-.86 1.375 0 2.062.674 2.75 1.348.686.675 1.373 1.35 2.748 1.35 1.145 0 1.946-.338 2.748-.675.802-.338 1.603-.675 2.749-.675.06 0 .12.001.178.003z" fill="#28aed4" style="stroke-width:.334481"/><path fill-rule="evenodd" clip-rule="evenodd" d="M1.4 11.262a5.12 5.12 0 0 1 1.043-.104c1.145 0 1.947.338 2.749.675l.303.126c-.439-1.438-1.11-3.267-2.018-4.67a.22.22 0 0 1 .058-.302C5.362 5.735 7.94 5.313 7.94 5.313s2.579.421 4.406 1.674a.22.22 0 0 1 .057.302c-.758 1.174-1.353 2.645-1.783 3.937l.07-.068c.686-.675 1.373-1.349 2.748-1.349.618 0 1.097.137 1.5.348-.93 2.925-3.711 5.048-6.997 5.048a7.345 7.345 0 0 1-6.54-3.943zm6.54-5.05c-.916 1.35 0 5.396 0 5.396s.917-4.046 0-5.395z" fill="#046" style="stroke-width:.334481"/><path d="M4.406 3.916a.198.198 0 0 0-.13.185v1.431a13.563 13.563 0 0 1 1.879-.711 15.806 15.806 0 0 1 1.155-.3 11.075 11.075 0 0 1 .44-.088l.19-.031.164.026.027.005.097.018a15.794 15.794 0 0 1 1.498.37c.554.166 1.216.398 1.88.711v-1.43a.198.198 0 0 0-.131-.186 10.243 10.243 0 0 0-7.069 0z" fill="#046" style="stroke-width:.334481"/></svg>