<svg width="16" height="16" viewBox="0 0 81 81" fill="none" style="vertical-align:middle" xmlns="http://www.w3.org/2000/svg"><path fill="#42a5f5" d="M36.846 39.564 24.4 30.48l11.735 19.59 43.878-36.2-43.166 25.695Zm-5.341 24.024c-12.924 0-23.401-10.456-23.401-23.355 0-12.898 10.477-23.356 23.401-23.356a23.33 23.33 0 0 1 15.03 5.458l3.28-3.906a28.423 28.423 0 0 0-18.308-6.662c-15.728 0-28.522 12.77-28.522 28.466 0 15.696 12.794 28.466 28.521 28.466 8.157 0 15.518-3.44 20.722-8.936l-3.713-3.5c-4.266 4.509-10.306 7.325-17.009 7.325zm0-6.769c-9.177 0-16.618-7.426-16.618-16.585 0-9.16 7.44-16.587 16.618-16.587a16.56 16.56 0 0 1 10.671 3.879l2.463-2.933a20.386 20.386 0 0 0-13.133-4.779c-11.282 0-20.46 9.16-20.46 20.419 0 11.26 9.178 20.419 20.46 20.419 5.85 0 11.13-2.468 14.862-6.41l-2.792-2.631c-3.03 3.2-7.31 5.208-12.07 5.208z" style="stroke-width:.95099"/></svg>