<svg id="Layer_1" viewBox="0 0 16 16" version="1.1" width="16" height="16" xmlns="http://www.w3.org/2000/svg"><defs id="defs4"><style id="style2">.cls-1{fill:#2eb99b}.cls-2{fill:#4e555d}</style></defs><g id="g910" transform="matrix(.17165 0 0 .21404 -5.998 .383)"><g transform="matrix(1.01007 0 0 1.06657 13.1 44.548)" id="g850"><path class="cls-1" d="M69.35-19.66s8.73 8.83 6.16 23.62c8.73-3.49 12.12-9.34 13.14-15.2 0 0 3-11.09 7.6-15.71-9.14 1.44-10.06-2.16-26.9 7.29" id="path8" style="fill:#7fff8e"/><path class="cls-1" d="M71.1 7.24c.21-1.13 3.57-12.64-3.1-22C56.83-27.15 40-28.9 40-28.9c3.28 6.37 3.39 12.32 7 24.44C51.32 8.09 67.37 8.96 68.56 8.96c1.08 1.71 3.55 4 9.21 5.19l.63-3c-4.88-1-6.67-2.91-7.3-3.95M55.36-8.32c-1.3-4.2-4.91-11.27-9.19-15 0 0 12.69 3.35 20 27.13-6.9-2.09-9.85-8.92-10.85-12.15" id="path10" style="fill:#7fff8e"/><path class="cls-2" d="M41.79-32.56c-7.11 3.35-9.95 11.54-9.95 24 0 12.28 2.84 20.52 9.95 24.1L41 18.66C30.08 14.85 25.13 6.33 25.13-8.45S30.08-31.87 41-35.63z" id="path12" style="fill:#eee"/><path class="cls-2" d="M94.37-35.63c10.91 3.75 15.86 12.28 15.86 27.17 0 14.89-4.94 23.31-15.86 27.12l-.85-3.07c7.11-3.58 9.95-11.83 9.95-24.1 0-12.51-2.84-20.69-9.95-24z" id="path14" style="fill:#eee"/></g></g></svg>