<svg xmlns="http://www.w3.org/2000/svg" width="16" height="16" viewBox="0 0 90 90" fill="none"><g clip-path="url(#a)" transform="matrix(1.58077 0 0 1.60819 -29.112 -.315)"><g filter="url(#b)"><path d="M47 52.312c13.615 0 24.652-10.833 24.652-24.196C71.652 14.753 60.615 3.92 47 3.92S22.348 14.753 22.348 28.116c0 13.363 11.037 24.196 24.652 24.196z" fill="#fff"/></g><path d="M42.124 7.738a1.07 1.07 0 0 0-.602.957v3.062a33.45 33.45 0 0 1 10.956 0V8.695a1.07 1.07 0 0 0-.602-.957A11.066 11.066 0 0 0 47 6.608c-1.67 0-3.341.377-4.876 1.13zm24.582 29.796C63.148 44.692 55.661 49.624 47 49.624c-9.24 0-17.145-5.614-20.367-13.557 1.643-1.428 3.573-2.574 6.671-2.574 4.11 0 6.163 2.016 8.218 4.032 2.054 2.017 4.109 4.033 8.217 4.033 3.424 0 5.82-1.008 8.217-2.016 2.397-1.009 4.794-2.017 8.218-2.017.18 0 .358.003.532.009z" fill="#28aed4"/><path fill-rule="evenodd" clip-rule="evenodd" d="M27.448 37.837c.929-.194 1.95-.312 3.117-.312 3.424 0 5.82 1.009 8.218 2.017.3.126.602.253.905.378-1.31-4.301-3.32-9.767-6.031-13.96a.657.657 0 0 1 .172-.905C39.292 21.312 47 20.05 47 20.05s7.709 1.26 13.17 5.004a.657.657 0 0 1 .173.904c-2.268 3.509-4.046 7.908-5.333 11.77l.208-.204c2.054-2.016 4.108-4.032 8.217-4.032 1.849 0 3.282.408 4.486 1.041-2.782 8.743-11.096 15.09-20.92 15.09-8.539 0-15.936-4.793-19.553-11.787zM47 22.74c-2.74 4.033 0 16.13 0 16.13s2.74-12.097 0-16.13z" fill="#046"/><path d="M36.434 15.874a.591.591 0 0 0-.39.553v4.278c1.984-.937 3.96-1.63 5.618-2.127a47.254 47.254 0 0 1 3.453-.896 33.111 33.111 0 0 1 1.315-.263l.57-.094.488.08.082.014.29.053c.245.046.593.116 1.026.21.863.189 2.067.48 3.452.896 1.657.498 3.635 1.19 5.619 2.127v-4.277a.591.591 0 0 0-.39-.554 30.624 30.624 0 0 0-21.133 0z" fill="#046"/></g><defs><clipPath id="a"><path fill="#fff" d="M20 2h54v53H20z"/></clipPath><filter id="b" x="19.348" y="1.92" width="55.304" height="54.391" filterUnits="userSpaceOnUse" color-interpolation-filters="sRGB"><feFlood flood-opacity="0" result="BackgroundImageFix"/><feColorMatrix in="SourceAlpha" values="0 0 0 0 0 0 0 0 0 0 0 0 0 0 0 0 0 0 127 0"/><feOffset dy="1"/><feGaussianBlur stdDeviation="1.5"/><feColorMatrix values="0 0 0 0 0 0 0 0 0 0 0 0 0 0 0 0 0 0 0.1 0"/><feBlend in2="BackgroundImageFix" result="effect1_dropShadow"/><feBlend in="SourceGraphic" in2="effect1_dropShadow" result="shape"/></filter></defs></svg>