<svg xmlns="http://www.w3.org/2000/svg" viewBox="0 0 16 16" height="16" width="16"><path d="M.03 0v15.992h8.148v-.053c-1.232-.08-2.414-.616-3.68-.63-.42-.006-1.215.158-1.525-.159 1.08-.022 2.187-.256 3.26 0v-.052c-.744-.391-1.843-.648-2.681-.684v.052l.526.421c-.36-.09-1.031-.35-1.21-.684l1.998.21-.263-.262c.126-.443-.259-.613-.578-.848a13.943 13.943 0 0 1-1.458-1.265c-.114-.11-.297-.108-.403-.229-.153-.173-.064-.737-.08-.972-.05-.73-.027-1.482-.034-2.21-.004-.36-.17-.559-.075-.947-.131-.04-.341-.04-.44-.144-.23-.243.046-1.269.071-1.592l.737.158V6.05l-.053-.263h.053v.21h.052c.07-.477-.003-.703-.158-1.157l-.21.105-.105-.421.158-.053c-.236-.724-.49-1.462-.641-2.209-.178-.881.354-.529.655 0 .1.176.206.348.301.526h.053c.194-.323.47-1 .846-1.136.155-.056.31.066.468.06.28-.012.585-.157.841-.26.155-.062.878-.497.972-.276.125.296-.487.644-.622.845-.137.204.027.523.123.714.7-.264 1.363-.805 1.998-1.2.255-.158.538-.445.789-.167l-1.683 1v.052c.61.443-.083.801-.379 1.21-.306.422-.446.953-.758 1.365-.165.217-.436.293-.608.496-.252.298-.308.67-.41 1.032l.946.21c-.017.217-.207 1.453-.525 1.263h-.053l.053.473h.052c.542-1.295 2.069-2.697 3.575-2.376.548.116.843.61 1.32.762.27.086.596-.025.888.07.636.206 1.182.891 1.42 1.492h.052V7.47l-.262.052-.736-1.525.946-.21c-.288-.9-1.207-1.39-2.05-1.766-.256-.114-.855-.176-1.013-.413-.302-.452.945-.572 1.17-.557-.243-.628-1.02-.815-1.332-1.368-.125-.222.119-.413.333-.393.335.032.67.38.947.551C9.525 1.514 8.326.718 9.02.368c.11-.374.495-.309.788-.163.614.307 1.126.722 1.683 1.11a13.06 13.06 0 0 0-.196-.473c-.148-.343-.16-1.104.389-.604.324.297.558.843.747 1.235.598 1.237.314 2.588.952 3.787l1.157-.368c0 .564.093 1.399-.473 1.684.721 1.25.249 2.212-.2 3.471-.223.63-.256 1.302-.406 1.947-.108.46-.33.824-.34 1.315l.63-.105-.788.841.946-.263-.841.58v.052l.946-.158-1.472.491-2.997 1.192v.053h6.467V0z" fill="none"/><path d="m9.107.018.035.017-.035-.017M9.387 0v.053h.316L9.388 0m1.787 0 .053.053L11.175 0m.35.018.036.017-.035-.017M9.02.053c-.333.41-.477.663-.106 1.104-.326.008-.803.228-.539.627.283.426.905.79 1.275 1.162-.308.006-.742.038-.993.237-.431.343-.014.658.363.71V3.84c-.345-.075-.691-.36-.261-.639.255-.165.648-.196.944-.203-.269-.576-.96-.764-1.274-1.267-.146-.233.08-.491.328-.498.225-.006.443.189.63.293-.191-.251-.7-.53-.66-.895.027-.228.276-.345.293-.578z"/><path d="M9.02.368c-.777.236.505 1.242.736 1.473-.248-.21-.608-.537-.947-.564-.228-.019-.483.158-.365.406.26.55 1.046.817 1.364 1.368-.221-.024-1.593.128-1.176.594.2.225.744.27 1.018.4.867.412 1.671.859 2.05 1.742l-.945.21.736 1.525.262-.052c-.267.412-.022.532 0 .947h-.052c-.172-.621-.782-1.336-1.42-1.507-.275-.074-.64.023-.889-.082-.464-.196-.724-.62-1.266-.735-1.469-.313-3.224.977-3.628 2.376h-.052l-.053-.473h.053c.312.256.516-1.05.525-1.263l-.946-.21c.133-.356.175-.738.447-1.032.182-.197.449-.268.606-.496.297-.429.44-.948.762-1.365.267-.345 1.038-.874.34-1.21v-.053l1.683-1c-.194-.347-.548-.014-.789.136-.662.413-1.316.854-1.998 1.232-.069-.186-.227-.476-.116-.668.122-.21.84-.62.628-.93-.141-.206-.86.244-1.037.315-.24.096-.526.238-.789.242-.16.003-.307-.12-.468-.071-.373.111-.709.833-.846 1.165h-.053c-.12-.327-.33-.727-.558-.992-.104-.122-.35-.272-.434-.047-.09.235.036.598.099.829.171.628.314 1.297.578 1.893l-.158.053.105.42.21-.104.158 1.157h-.052v-.21H2.29l.053.263v.052l-.737-.158c-.04.32-.3 1.334-.102 1.592.09.117.337.112.47.144-.123.392.027.576.06.947.062.714.029 1.439.046 2.157.006.24-.079.836.054 1.025.1.144.315.135.433.264.43.473.873.837 1.405 1.23.32.236.722.407.631.848l.263.263c-.625-.212-1.344-.21-1.998-.21.112.346.867.63 1.21.683l-.526-.42v-.053c.897.07 1.844.36 2.681.684v.052c-1.026-.303-2.216-.045-3.26 0 .21.323 1.116.154 1.473.158.959.012 1.904.23 2.839.432.477.103.92.292 1.42.249.584-.051.708-.795 1.366-.628v.052l-.999.526v.053c.575 0 .961-.313 1.472-.533.717-.308 1.46-.541 2.208-.76.344-.1 1.052-.142 1.262-.443l-.946.158v-.053l.841-.579-.946.263.788-.841-.63.105c.02-.468.236-.822.34-1.263.178-.761.241-1.521.523-2.262.394-1.036.875-2.231.083-3.208.592-.21.473-1.15.473-1.684l-1.157.368c-.158-.408-.376-.83-.458-1.262-.173-.909-.066-1.691-.494-2.578-.186-.385-.454-1.068-.84-1.285-.801-.45-.224.948-.1 1.18C11.017.851 10.379.4 9.756.157 9.462.044 9.08-.01 9.02.368z" fill="#1e1209"/><path d="M9.703.053v.052l1.63 1c-.11-.387-.335-.652-.158-1.052-.282.261-.12.532 0 .841L9.703.053m1.893 0v.052c.707.591 1.242 1.88 1.314 2.788h.053c-.036-.834-.599-2.422-1.367-2.84z"/><path d="M9.335.263v.053h.21z" fill="#aea08c"/><path d="m11.368.28.035.018z" fill="#756a5c"/><path d="m9.335.316.63.551 1.105 1.027C10.372 1.574 9.849.719 9.072.579c.119.77 1.247 1.286 1.577 1.999L8.704 1.526c.14.457.767.781 1.095 1.113.118.12.22.32.386.378.208.072.503-.117.727-.124-.581.6-1.367.336-2.103.526.119.359.613.204.894.368.952.555 1.885.784 2.26 1.894.247-.05.96-.14 1.072-.39.165-.366-.34-.884-.385-1.24-.036-.286.065-.6.045-.895-.05-.726-.315-1.428-.678-2.051-.18-.307-.318-.686-.684-.79l.473 1.579-.578-.158c.14-.293-.088-.471-.316-.644C10.483.765 9.888.344 9.335.316z" fill="#f0e0c6"/><path d="m9.598.316.052.052z" fill="#7c7061"/><path d="m11.49.316.053.052z" fill="#6e6658"/><path d="m9.703.368.053.053z" fill="#766a5c"/><path d="m9.335.42.053.053z" fill="#938775"/><path d="m9.808.42.053.053z" fill="#716557"/><path d="m9.913.473.053.053z" fill="#695e50"/><path d="m9.23.579.052.052z" fill="#6f6455"/><path d="m9.037.666.018.035z" fill="#5a4f43"/><path d="m9.335.631.053.053z" fill="#74695a"/><path d="m11.385.631.053.053z" fill="#776b5c"/><path d="m10.281.684.053.052z" fill="#827767"/><path d="m11.753.684.053.052z" fill="#6d6254"/><path d="m9.808.736.053.053z" fill="#6b5f52"/><path d="m10.386.736.053.053z" fill="#6c6153"/><path d="m11.438.736.053.053z" fill="#897d6c"/><path d="m9.545.79.053.052z" fill="#908472"/><path d="m9.125.842.052.052z" fill="#796e5e"/><path d="m9.966.842.052.052z" fill="#948776"/><path d="m11.175.894.053.053z" fill="#fff"/><path d="M4.34 1.42v.053c.31-.074.856-.487 1.15-.427.539.11-.44.913-.571 1.006l.105.473c.048-.159-.018-.322.079-.473.17-.262.714-.503.608-.892-.126-.462-1.098.168-1.37.26z"/><path d="m9.756.947.052.052z" fill="#908372"/><path d="m10.702.947.052.052z" fill="#8b7e6e"/><path d="m11.911.947.053.052z" fill="#655a4d"/><path d="m11.543 1 .053.052z" fill="#6a5f51"/><path d="M5.076 2.578v.105c.718-.272 1.4-.834 2.05-1.24.25-.156.631-.468.737-.023.227-.42-.392-.275-.578-.16-.626.388-1.487 1.184-2.209 1.318z"/><path d="m10.229 1.052.052.053z" fill="#887c6b"/><path d="m10.86 1.052.052.053z" fill="#6d6254"/><path d="m11.964 1.052.052.053z" fill="#726658"/><path d="m9.966 1.105.052.052z" fill="#908372"/><path d="m11.596 1.105.052.052z" fill="#857968"/><path d="m8.914 1.157.053.053z" fill="#fff"/><path d="m11.666 1.245.017.035z" fill="#5a4f42"/><path d="m10.176 1.263.053.052z" fill="#928674"/><path d="m10.492 1.263.052.052z" fill="#857969"/><path d="m5.129 1.315.053.053z" fill="#7a6f60"/><path d="M3.815 1.946c.307.792 1.33-.127 1.472-.63z" fill="#f0e0c6"/><path d="M5.287 1.315v.158h.052z" fill="#786c5e"/><path d="m12.121 1.315.053.053z" fill="#716657"/><path d="m11.228 1.368.052.052z" fill="#726758"/><path d="m11.718 1.403.018.035z" fill="#796d5e"/><path d="m7.758 1.42-1.472.947.223.474-.612.736-.841 1.47-.61.582h.052c.19-.225.472-.338.65-.58.32-.436.474-.98.802-1.42.336-.45.865-.687.44-1.262.335-.158 1.268-.585 1.368-.947z"/><path d="m9.703 1.42.053.053z" fill="#736859"/><path d="m10.386 1.42.053.053z" fill="#928574"/><path d="M1.449 1.473v.053c.496.168.691.74.946 1.157h.053c.207-.314.466-.95.843-1.084.145-.05.276.051.418.06.192.012.394-.09.579-.133v-.053c-.174.026-.351.112-.526.116-.163.004-.308-.118-.472-.071-.376.107-.718.772-.842 1.112h-.053c-.14-.443-.457-1.058-.946-1.157z"/><path d="m5.234 1.473.053.053z" fill="#817565"/><path d="m9.756 1.473.052.053z" fill="#867a69"/><path d="m5.182 1.526.052.052z" fill="#716657"/><path d="m8.862 1.526.052.052z" fill="#62574a"/><path d="m9.808 1.526.053.052z" fill="#958976"/><path d="m11.333 1.526.052.052z" fill="#877b6a"/><path d="m8.967 1.578.053.053z" fill="#6e6254"/><path d="m10.597 1.578.052.053z" fill="#938674"/><path d="m11.77 1.613.018.035z" fill="#7b6f60"/><path d="M1.291 1.63c-.09.845.342 1.724.56 2.526.07.262-.05.48.07.736h.054c-.062-.184-.085-.276.052-.42l-.584-1.947z"/><path d="m11.228 1.63.052.053z" fill="#7a6e5f"/><path d="m4.428 1.7.035.018z" fill="#a09380"/><path d="m9.125 1.683.052.053z" fill="#958977"/><path d="M11.385 1.683v.053h.158z" fill="#6c6052"/><path d="m11.77 1.718.018.035z" fill="#41362b"/><path d="m8.81 1.736.052.053z" fill="#9c8e7c"/><path d="m8.862 1.789.052.052z" fill="#867a6a"/><path d="m9.282 1.789.053.052z" fill="#958876"/><path d="m11.035 1.824.017.035z" fill="#9f927f"/><path d="m11.648 1.789.053.052z" fill="#74695a"/><path d="m4.06 1.859.035.017z" fill="#ad9f8b"/><path d="M2.71 3.577 1.66 2l.42 1.736.277.536.511-.204 1.157-.648v-.105l-.578-.316v.158H3.34l.053-.473c.367.242.63.582 1.104.473-.108-.37-.554-.646-.795-.946-.085-.107-.195-.283-.351-.283-.17 0-.291.268-.367.388-.298.474-.485.714-.274 1.262z" fill="#f0e0c6"/><path d="m3.902 1.911.035.018z" fill="#9e917e"/><path d="m4.761 1.894.053.052z" fill="#7d7162"/><path d="m9.44 1.894.053.052z" fill="#958877"/><path d="M1.606 1.946v.21h.053l.053-.21z" fill="#b9aa94"/><path d="M10.176 1.946 10.23 2z" fill="#6a5e51"/><path d="m1.712 1.999.052.053z" fill="#7c7060"/><path d="m9.598 1.999.052.053z" fill="#928574"/><path d="m10.229 1.999.052.053z" fill="#7e7262"/><path d="m12.454 2.034.018.035z" fill="#b7a994"/><path d="m3.131 2.052.053.052z" fill="#857968"/><path d="m10.281 2.052.053.052z" fill="#918573"/><path d="m3.604 2.104.053.053z" fill="#665b4d"/><path d="m3.867 2.104.053.053z" fill="#887b6b"/><path d="m4.498 2.104.053.053z" fill="#908472"/><path d="m9.23 2.104.052.053z" fill="#8e8170"/><path d="M1.606 2.157v.158h.053z" fill="#5e5346"/><path d="m1.817 2.157.052.052z" fill="#7b6f60"/><path d="m4.446 2.157.052.052z" fill="#6e6254"/><path d="m9.86 2.157.053.052z" fill="#817666"/><path d="m12.507 2.192.018.035z" fill="#978a78"/><path d="m4.638 2.227.035.017z" fill="#52483c"/><path d="m9.966 2.21.052.052z" fill="#655a4c"/><path d="m4.235 2.262.053.053z" fill="#9a8d7b"/><path d="m4.498 2.262.053.053z" fill="#716657"/><path d="M4.235 2.472c.057.125.46.764.595.408.068-.181-.084-.44-.122-.618z" fill="#f0e0c6"/><path d="M1.66 2.315v.157h.052z" fill="#b8aa94"/><path d="m1.922 2.315.053.052z" fill="#74695b"/><path d="m3.762 2.315.053.052z" fill="#857968"/><path d="m4.025 2.315.053.052z" fill="#756a5b"/><path d="m4.13 2.315.053.052z" fill="#998c7a"/><path d="m2.92 2.367.053.053z" fill="#6c6052"/><path d="m4.726 2.402.017.035z" fill="#a89c88"/><path d="m10.229 2.367.052.053z" fill="#847968"/><path d="m10.544 2.367.053.053z" fill="#716557"/><path d="m12.56 2.402.017.035z" fill="#9f927f"/><path d="m10.334 2.42.052.052z" fill="#685c4f"/><path d="m10.597 2.42-.105.105v.053c.118-.025.164-.046.105-.158z" fill="#6f6354"/><path d="m9.703 2.525.053.053z" fill="#8d806f"/><path d="m12.612 2.56.018.035z" fill="#8f8371"/><path d="M1.712 2.578v.157h.052z" fill="#837867"/><path d="M2.448 4.63c.051.287.3.554.308.84.006.213-.22.454-.094.663.103.17.909.385 1.077.281.246-.152.32-.833.466-1.09.124-.218.428-.311.603-.49.245-.248.361-.599.55-.889.215-.332.508-.614.716-.947.056-.09.15-.282.022-.36-.18-.108-.688.301-.862.38-.974.44-1.838 1.106-2.786 1.611z" fill="#f0e0c6"/><path d="m9.756 2.578.052.052z" fill="#7e7262"/><path d="m2.763 2.63.053.053z" fill="#897d6c"/><path d="m4.831 2.665.018.035z" fill="#726759"/><path d="M6.18 2.683v.158h.053z" fill="#918573"/><path d="m9.86 2.683.053.052z" fill="#857968"/><path d="m12.665 2.718.017.035z" fill="#615649"/><path d="m4.393 2.735.053.053z" fill="#74695a"/><path d="m1.782 2.823.017.035z" fill="#675c4f"/><path d="m4.446 2.788.052.053z" fill="#8d806f"/><path d="M12.647 2.788v.21h.053z" fill="#c9baa3"/><path d="m4.288 2.84.052.053z" fill="#877b6a"/><path d="m4.884 2.876.017.035z" fill="#61574a"/><path d="m5.427 2.91.035.018z" fill="#ad9f8b"/><path d="m6.128 2.893.052.053z" fill="#847867"/><path d="M10.544 2.893v.053l.368.052z" fill="#63584b"/><path d="M1.817 2.946v.158h.052z" fill="#7f7464"/><path d="m2.237 2.946.053.052z" fill="#887e6e"/><path d="m3.482 2.963.035.018z" fill="#7f7565"/><path d="m6.075 2.946.053.052z" fill="#8e8270"/><path d="M12.963 2.946v.42h.052z"/><path d="m3.552 2.998.052.053z" fill="#978b78"/><path d="m4.708 2.998.053.053z" fill="#61564a"/><path d="m5.217 3.016.035.018z" fill="#bdae98"/><path d="m6.023 2.998.052.053z" fill="#948875"/><path d="m10.755 2.998.052.053z" fill="#63584b"/><path d="m2.518 3.086.017.035z" fill="#7a6e5f"/><path d="m10.264 3.069.035.017z" fill="#5f5447"/><path d="M12.7 3.051v.684h.052z" fill="#605548"/><path d="m3.71 3.104.052.052z" fill="#786c5d"/><path d="m4.971 3.104.053.052z" fill="#796e5f"/><path d="m1.887 3.191.017.035z" fill="#605549"/><path d="m4.393 3.156.053.053z" fill="#968977"/><path d="m2.395 3.209.053.052z" fill="#6a5f51"/><path d="m2.57 3.244.018.035z" fill="#493f34"/><path d="m3.867 3.209.053.052z" fill="#827767"/><path d="m4.27 3.226.035.018z" fill="#a69a86"/><path d="m4.814 3.209.052.052z" fill="#847868"/><path d="M9.388 3.261v.053h.21z" fill="#827767"/><path d="M9.598 3.261v.053h.578z" fill="#cfc0a8"/><path d="m1.94 3.35.017.034z" fill="#665b4e"/><path d="m2.448 3.314.052.053z" fill="#867b6a"/><path d="m4.042 3.35.018.034z" fill="#928573"/><path d="M9.02 3.314v.053h.157z" fill="#554a3e"/><path d="m2.605 3.367.053.052z" fill="#6b6052"/><path d="M13.015 3.367v.263h.053z" fill="#020101"/><path d="m4.533 3.437.035.017z" fill="#bcae98"/><path d="m5.655 3.42.052.052z" fill="#6e6355"/><path d="m1.992 3.507.018.035z" fill="#6a5f51"/><path d="m2.553 3.472.052.053z" fill="#665a4d"/><path d="m2.676 3.507.017.035z" fill="#63574a"/><path d="m3.762 3.525.053.052z" fill="#685d4f"/><path d="M12.91 3.525v.263h.053z" fill="#aca28e"/><path d="m3.657 3.577.052.053z" fill="#817465"/><path d="m5.55 3.577.052.053z" fill="#766b5c"/><path d="m2.045 3.665.017.035z" fill="#6c6153"/><path d="m3.552 3.63.052.052z" fill="#968977"/><path d="m4.025 3.63.053.052z" fill="#6d6253"/><path d="m9.055 3.647.035.018z" fill="#74695a"/><path d="m12.98 3.665.018.035z" fill="#090909"/><path d="M13.068 3.63v.158h.052z"/><path d="M9.335 3.682v.053h.315z" fill="#938979"/><path d="m3.867 3.735.053.053z" fill="#877a6a"/><path d="m5.444 3.735.053.053z" fill="#7d7162"/><path d="M12.857 3.735v.105h.106z" fill="#685f52"/><path d="m2.097 3.823.018.035z" fill="#6d6254"/><path d="m3.289 3.788.052.052z" fill="#716658"/><path d="m13.015 3.788.053.052z" fill="#010101"/><path d="m3.184 3.84.052.053z" fill="#8b7e6d"/><path d="m9.808 3.84.053.053z" fill="#766a5b"/><path d="M12.963 3.84v.263h.052z"/><path d="m3.604 3.893.053.052z" fill="#726758"/><path d="m5.34 3.893.052.052z" fill="#786d5e"/><path d="m9.107 3.91.035.018z"/><path d="m2.15 3.98.017.035z" fill="#6f6455"/><path d="M9.23 3.945v.053c.683.187 1.78.801 2.208 1.368h.053c-.136-.437-.588-.542-.947-.731-.448-.236-.8-.601-1.314-.69z"/><path d="m9.966 3.945.052.053z" fill="#6f6455"/><path d="M12.595 3.945v.158h.052z" fill="#6f6456"/><path d="m2.92 3.998.053.053z" fill="#64594c"/><path d="m2.816 4.05.052.053z" fill="#7c7061"/><path d="m5.234 4.05.053.053z" fill="#877b6a"/><path d="m2.202 4.138.018.035z" fill="#695e51"/><path d="m2.71 4.103.053.053z" fill="#958876"/><path d="M13.015 4.103v.158h.053z"/><path d="m10.281 4.156.053.052z" fill="#837766"/><path d="m2.448 4.261.052.053z" fill="#74695a"/><path d="m10.44 4.261.052.053z" fill="#928674"/><path d="m13.085 4.296.018.035z"/><path d="m2.325 4.331.035.018z" fill="#958876"/><path d="m5.076 4.366.053.053z" fill="#615649"/><path d="m10.632 4.384.035.017z" fill="#7d7262"/><path d="M13.12 4.366v.158h.053z"/><path d="m2.763 4.419.053.052z" fill="#7c7061"/><path d="m10.842 4.436.035.018z" fill="#796e5f"/><path d="m5.024 4.471.052.053z" fill="#665b4e"/><path d="m11.052 4.489.035.017z" fill="#766b5c"/><path d="m11.28 4.524.053.053z" fill="#736759"/><path d="M13.173 4.524v.158h.053z"/><path d="m2.5 4.577.053.052z" fill="#655b4d"/><path d="m4.971 4.577.053.052z" fill="#6a5f51"/><path d="m11.333 4.577.052.052z" fill="#837867"/><path d="m2.413 4.664.017.035z" fill="#62574a"/><path d="m11.385 4.682.053.052z" fill="#6e6354"/><path d="M13.226 4.682v.158h.052z"/><path d="m2.448 4.787.052.053z" fill="#6b6051"/><path d="m14.487 4.787.053.053-.053-.053m-1.191.088.017.035-.017-.035m.981-.035v.052h.158z"/><path d="m2.5 4.892.053.053z" fill="#7b6f60"/><path d="M14.12 4.892v.053h.157l-.158-.053m-12.144.053v.052h.21l.105.316h.053l-.158-.368h-.21m11.356 0v.158h.052l-.052-.158m.63 0v.052h.158l-.157-.052m.63 0-.105 1.473h.053c.053-.424.22-1.072.052-1.473z"/><path d="m2.553 4.997.052.053z" fill="#897d6c"/><path d="m4.55 4.997.053.053z" fill="#8e8170"/><path d="m11.718 5.033.018.035z" fill="#574c40"/><path d="M13.804 4.997v.053h.158l-.158-.053m-.21.053v.053h.21z"/><path d="m2.605 5.103.053.052z" fill="#968977"/><path d="m13.383 5.208.21-.053z"/><path d="m4.288 5.155.052.053z" fill="#64594c"/><path d="M13.068 5.155v.21h.052z" fill="#b4a793"/><path d="m2.658 5.208.053.052z" fill="#948875"/><path d="M4.183 5.208v.158h.052z" fill="#766a5c"/><path d="m2.71 5.313.053.053z" fill="#7c7060"/><path d="m14.154 5.33.035.018z" fill="#918f8c"/><path d="M14.224 5.313c-.902.389-2.077.75-3.049.894.056.244.27.828.537.906.217.062.577-.136.777-.212.56-.212 1.154-.45 1.735-.588z" fill="#fff"/><path d="m14.295 5.348.017.035z" fill="#76726e"/><path d="M2.343 5.366v.42h.052z"/><path d="m12.998 5.383.035.018z" fill="#564c41"/><path d="m13.997 5.383.035.018z" fill="#aaa7a5"/><path d="m2.763 5.418.053.053z" fill="#615649"/><path d="M4.13 5.418v.158h.053z" fill="#b2a48f"/><path d="m11.49 5.418.053.263-.788.21v.053l.84-.21z"/><path d="m11.876 5.453.018.035z" fill="#706456"/><path d="m12.84 5.436.035.017z" fill="#50463a"/><path d="m13.786 5.436.035.017z" fill="#878380"/><path d="m12.63 5.488.035.018z" fill="#837767"/><path d="m13.629 5.488.035.018z" fill="#a19e9c"/><path d="m12.472 5.541.035.018z" fill="#706455"/><path d="m13.47 5.541.036.018z" fill="#b6b3b1"/><path d="m11.929 5.611.017.035z" fill="#62574a"/><path d="m12.314 5.594.035.017z" fill="#5c5144"/><path d="m13.26 5.594.036.017z" fill="#95928f"/><path d="M13.909 5.576v.053h.21z" fill="#5a5450"/><path d="M14.224 5.576v.263h.053z" fill="#aba9a7"/><path d="m4.078 5.629.052.052z" fill="#6c6052"/><path d="M12.069 5.629v.052h.158z" fill="#867a6a"/><path d="m13.103 5.646.035.018z" fill="#a8a5a3"/><path d="M14.172 5.629c-.612.02-.065.566 0 0z"/><path d="m4.025 5.681.053.053z" fill="#726758"/><path d="m4.393 5.681-.315.842.893.158v-.053l-.788-.158z"/><path d="m12.945 5.699.035.017z" fill="#bbb9b6"/><path d="m13.804 5.681.052.053z" fill="#68635f"/><path d="m3.99 5.769.017.035z" fill="#807464"/><path d="m12.735 5.751.035.018z" fill="#a09d9b"/><path d="m13.769 5.769.017.035z" fill="#c7c5c3"/><path d="m12.577 5.804.035.018z" fill="#b2afad"/><path d="M1.501 6.102h.053c.153-.27.423-.126.683-.105-.26-.14-.63-.243-.736.105z"/><path d="m2.623 5.874.017.035z" fill="#827666"/><path d="m12.367 5.857.035.017z" fill="#94908d"/><path d="m14.12 5.84.052.052z" fill="#84807d"/><path d="M14.224 5.84v.21h.053z" fill="#6d6865"/><path d="m12.21 5.91.034.017z" fill="#a9a6a4"/><path d="m4.919 7.522.157-.736h-.052l-.21.947h.052c.76-1.009 2.005-2.062 3.365-1.653.46.137.752.586 1.165.722.27.09.592-.032.885.069.537.184.796.632 1.21.967l.157-.263-.21-.053v.263c-.25-.5-.757-.914-1.314-1.019-.218-.041-.469.03-.675-.027-.39-.107-.688-.57-1.113-.701-1.39-.43-2.56.504-3.417 1.484z"/><path d="m11.999 5.962.035.017z" fill="#8c8986"/><path d="M13.909 5.944v.053h.158z" fill="#544f4b"/><path d="M3.867 5.997v.21h.053z" fill="#9e9381"/><path d="m11.841 6.014.035.018z" fill="#a19e9b"/><path d="m2.57 6.085.018.035z" fill="#635b50"/><path d="m10.65 6.05.735 1.42h.053z"/><path d="m11.63 6.067.036.018z" fill="#7f7b78"/><path d="m11.473 6.12.035.017z" fill="#989591"/><path d="M1.449 6.155v.526H1.5z"/><path d="m2.605 6.155.053.052z" fill="#726a5e"/><path d="m11.315 6.172.035.018z" fill="#b3b1af"/><path d="M1.817 6.207v.21h.052l.053-.21z" fill="#d9d8d7"/><path d="m1.957 6.225.035.017z" fill="#3f3833"/><path d="m2.693 6.225.035.017z" fill="#6c6457"/><path d="m11.14 6.242.018.035z" fill="#74706d"/><path d="m1.87 6.26-.106 1.105 2.734.368.21-.737z" fill="#fff"/><path d="m2.062 6.277.035.018z" fill="#a09d9b"/><path d="m2.85 6.277.036.018z" fill="#887c6c"/><path d="M4.866 8.575C5.924 7.829 7.08 7.026 8.441 7.6c.313.132.517.415.789.606.232-.976-.536-1.965-1.577-1.94-1.124.028-2.616 1.169-2.787 2.309z" fill="#6b4329"/><path d="m2.272 6.33.035.018z" fill="#979492"/><path d="M3.079 6.313v.052h.21z" fill="#a59986"/><path d="m14.102 6.33.035.018z" fill="#76716e"/><path d="M1.764 6.365v.158h.053z" fill="#4c4743"/><path d="M2.448 6.365v.053h.157z" fill="#8b8885"/><path d="m3.324 6.383.035.017z" fill="#baac96"/><path d="m13.944 6.383.035.017z" fill="#807c79"/><path d="m2.693 6.435.035.018z" fill="#807d7b"/><path d="m3.482 6.435.035.018z" fill="#8d816f"/><path d="m3.762 6.418.053.052z" fill="#817a6a"/><path d="m11.228 6.418.052.052z" fill="#a5a2a0"/><path d="m13.839 6.435.035.018z" fill="#433c38"/><path d="M2.816 6.47v.053h.157z" fill="#a3a09e"/><path d="m13.681 6.488.035.017z" fill="#4d4844"/><path d="M1.764 6.523v.263h.053z" fill="#b0adab"/><path d="M3.026 6.523v.053h.158z" fill="#9d9b98"/><path d="m11.28 6.523.053.053z" fill="#8e8b88"/><path d="m13.523 6.54.035.018z" fill="#534e4a"/><path d="M14.12 6.576c1.028 1.557-.264 3.11-.474 4.734h.053c.227-1.174.94-2.301.846-3.472-.041-.505.032-.802-.32-1.21l.157-.052z"/><path d="M2.132 6.576v.052h.263z" fill="#d0cfce"/><path d="M3.236 6.576v.052h.158z" fill="#928f8c"/><path d="m13.366 6.593.035.018z" fill="#5b5652"/><path d="M2.149 6.683c-.237.148-.031.58.223.416.223-.144.03-.575-.223-.416z"/><path d="M3.447 6.628v.053h.157z" fill="#898582"/><path d="m11.333 6.628.052.053z" fill="#75706d"/><path d="m13.208 6.646.035.017z" fill="#645f5b"/><path d="M2.199 6.743c-.174.091-.057.427.114.301.121-.088.061-.394-.114-.301z" fill="#1e1209"/><path d="M3.657 6.68v.053h.158z" fill="#827e7b"/><path d="m13.05 6.698.035.018z" fill="#6e6966"/><path d="M12.121 9.995c.459.109.76.378 1.052.736l-1.262-.21v.053c.58.417.816.834.946 1.525h-.052c-.144-.424-.363-.767-.789-.947-.122.649-.156 1.3 0 1.947-.304-.329-.367-.669-.368-1.105h-.052l-.053 1.525h-.052l-.368-1.367c-.484.369-.834 1.095-.625 1.683.05.142.093.44.268.48.17.04.417-.122.567-.189.44-.196.894-.453 1.367-.554v-.053l-.105-.894.407-.526.486-1.946.053.105h.053l.683-2.052c-.27-.102-.55-.264-.683-.526l.578.105c-.004-.333.021-.76-.264-.982-.298-.233-1.618.21-1.81.531-.272.454-.05.592-.05 1.03 0 .217-.14.408-.13.631.016.345.2.65.203 1z" fill="#5a4934"/><path d="M1.396 6.733v.895h.053z"/><path d="m2.465 6.768.018.036z" fill="#6a6663"/><path d="M3.867 6.733v.053h.158z" fill="#77726f"/><path d="m12.893 6.75.035.018z" fill="#74706d"/><path d="M1.975 6.786v.21h.052z" fill="#c4c2bf"/><path d="M4.025 6.786v.053h.158z" fill="#a09c9a"/><path d="m12.735 6.804.035.017z" fill="#7a7673"/><path d="M4.235 6.839v.052h.158z" fill="#95928f"/><path d="m12.577 6.856.035.018z" fill="#827e7b"/><path d="m1.73 6.926.017.035z" fill="#595450"/><path d="M4.393 6.891v.053h.158z" fill="#bfbdbb"/><path d="m11.49 6.891.053.053z" fill="#95918f"/><path d="m12.472 6.909.035.017z" fill="#403933"/><path d="m4.638 6.961.035.018z" fill="#b7b5b3"/><path d="m4.726 6.979.017.035z" fill="#807c79"/><path d="m12.314 6.961.035.018z" fill="#49423e"/><path d="M1.712 6.996v.369h.052z" fill="#b7b5b3"/><path d="m11.543 6.996.053.053z" fill="#7d7976"/><path d="m12.157 7.014.035.018z" fill="#524b48"/><path d="m11.999 7.067.035.017z" fill="#5b5651"/><path d="m2.08 7.102.052.052-.052-.052m2.576 0v.157h.052z" fill="#898683"/><path d="M9.493 7.785c.622 0 1.051.106 1.63.316-.215-.451-.569-.807-1.052-.945-.145-.041-.41-.113-.524.03-.11.138-.054.434-.054.6z" fill="#6c432a"/><path d="m11.596 7.102.052.052z" fill="#635e5a"/><path d="m11.841 7.12.035.017z" fill="#66615e"/><path d="M2.132 7.154v.053h.21z" fill="#797572"/><path d="m11.683 7.172.035.017z" fill="#787471"/><path d="m4.62 7.347.018.035z" fill="#625e5a"/><path d="M1.764 7.365v.052h.158z" fill="#6e6a67"/><path d="M2.132 7.417v.053h.21z" fill="#918e8b"/><path d="m2.535 7.487.035.018z" fill="#5c5753"/><path d="M2.605 7.47v.052h.158z" fill="#908d8a"/><path d="m4.568 7.505.018.035z" fill="#726d6a"/><path d="M2.92 7.522v.053h.211z" fill="#9d9a96"/><path d="m3.324 7.593.035.017z" fill="#686460"/><path d="M3.394 7.575v.053h.158z" fill="#9d9a98"/><path d="M3.71 7.628v.052h.21z" fill="#aaa7a5"/><path d="m4.516 7.663.017.035z" fill="#817c7a"/><path d="M7.18 7.628v.052h.84z" fill="#3f2718"/><path d="M1.554 7.68v.053h.263l.157 1.841.053 2.315h.053l-.058-2.473-.1-1.736z"/><path d="m2.237 7.68.158 2.21h.053l-.053-2.21z" fill="#f8f6f4"/><path d="M2.395 7.68c-.151.82.125 1.774.044 2.63-.031.325-.199.95-.065 1.251.122.273.4.084.547-.04l-.046.525.624.58 1.525 1.051.105.842c.276.057.82.327 1.084.23.401-.15.403-1.03.493-1.387l-.736-.474-.578.684c.116-.31.233-.992.036-1.289-.153-.23-.491-.314-.667-.552h-.053l.158.473c-.623-.324-.734-1.038-.736-1.683-.295.18-.485.622-.578.947h-.053c0-.966.91-1.83.758-2.736-.034-.203-.034-.652-.21-.787-.342-.26-1.228-.164-1.652-.265z" fill="#584833"/><path d="m4.165 7.698.035.017z" fill="#8f8c8a"/><path d="M4.235 7.68v.053h.21z" fill="#d0cecc"/><path d="M4.13 10.1c1.33-.757 2.854-.564 4.153-1.42-.056 1.04-2.015 1.194-2.786 1.387-.452.113-.911.3-.946.822 1.243-1.072 3.682-.098 4.511-1.894.557-1.205-1.191-1.333-1.935-1.314-1.193.031-2.669 1.303-2.997 2.42z" fill="#6b4229"/><path d="m5.234 7.733.053.052z" fill="#fff"/><path d="m13.594 7.733.63.473c-.089-.27-.383-.37-.63-.473z" fill="#fcfcfc"/><path d="m2.202 7.82.018.036z" fill="#6c6864"/><path d="m5.182 7.785.052.053z" fill="#fff"/><path d="m13.751 7.785.053.053z" fill="#5f5a56"/><path d="m13.856 7.838.053.053z" fill="#777370"/><path d="M2.185 7.89v.159h.052z" fill="#b4b2af"/><path d="m5.129 7.89.053.053z" fill="#fff"/><path d="m13.962 7.89.052.053z" fill="#5b5653"/><path d="M2.29 7.943v.21h.053z" fill="#bab4ad"/><path d="m5.076 7.943.053.053z" fill="#fff"/><path d="M9.493 7.943c0 1.11 1.156 1.976 2.26 2-.022-.943-.925-1.412-1.735-1.579v-.052l1.473.526c-.26-.76-1.318-.895-1.998-.895z" fill="#6b4229"/><path d="m11.07 7.943.053.053z" fill="#fff"/><path d="m13.804 7.943.052.053z" fill="#aaa39c"/><path d="m5.041 8.031.018.035z" fill="#fff"/><path d="m14.12 7.996.052.053z" fill="#9a9896"/><path d="m2.15 8.084.017.035z" fill="#4d4742"/><path d="m11.123 8.049.052.052z" fill="#fff"/><path d="M14.224 8.049v.157h.053z" fill="#b5b2b0"/><path d="M4.498 8.101v.158h.053l.052-.158z"/><path d="m4.971 8.101.053.053L4.97 8.1m6.204 0 .053.053z" fill="#fff"/><path d="m2.343 8.154.052.052z" fill="#a69e95"/><path d="m4.936 8.189.018.035z" fill="#fff"/><path d="m14.12 8.154.052.052z" fill="#afa9a1"/><path d="m2.237 8.259.053.053z" fill="#827e7b"/><path d="m4.866 8.259-.21.473h.052z" fill="#fff"/><path d="m11.7 8.259.053.053z"/><path d="M2.29 8.364v.421h.053z" fill="#392d21"/><path d="M9.335 8.732c-.198.531.07.927.526 1.213.758.476 1.52.313 2.366.313v-.053l-1.472-.28z" fill="#6b4329"/><path d="M2.343 8.995v.684h.052z" fill="#aeabaa"/><path d="m11.596 9.311.052.053-.052-.053m.052.105.053.053-.053-.053m.053.105.052.053z" fill="#fff"/><path d="m9.16 9.592.035.017z" fill="#9a8f7c"/><path d="m4.498 10.258 2.05-.579c-.453-.19-1.887.056-2.05.579z" fill="#6f452b"/><path d="M9.125 9.627c-.256.533-.68.661-1.21.789v-.053l.368-.316c-.327.06-.616.244-.946.315-.643.139-2.103-.067-2.469.638-.277.534.488.895.753 1.13.243.215.384.473.665.665.556.38.812 1.105 1.367 1.435 1.129.673 2.56-.47 2.786-1.552l-.368.105c.162-.186.396-.259.578-.427.171-.158.265-.396.441-.541.347-.285.61-.286.663-.82l-.473.525c.04-.147.145-.362.02-.494-.14-.149-.513-.165-.703-.262-.525-.266-1.041-.645-1.367-1.137z" fill="#f0e0c6"/><path d="m11.77 9.662.018.035z" fill="#fff"/><path d="M2.343 9.68v.21h.052z" fill="#716d6c"/><path d="m9.072 9.68.053.052z" fill="#655a4c"/><path d="m9.23 9.68.052.052z" fill="#837767"/><path d="m9.02 9.784.052.053z" fill="#857868"/><path d="m11.824 9.872.017.035z" fill="#fff"/><path d="M2.395 9.89v.368h.053z" fill="#c6c2be"/><path d="m8.389 9.89-.158.157z" fill="#aea38f"/><path d="m8.914 9.942.053.053z" fill="#938775"/><path d="m8.23 10.1.053.053z" fill="#726758"/><path d="m9.598 10.1.052.053z" fill="#938775"/><path d="M13.488 10.153v.263h.053z" fill="#7f7973"/><path d="m7.793 10.223.035.017z" fill="#aea08c"/><path d="M2.395 10.258v.21h.053z" fill="#a39e98"/><path d="m7.583 10.275.035.018z" fill="#796a5a"/><path d="m8.476 10.275.035.018z" fill="#a0927f"/><path d="m9.808 10.258.053.053z" fill="#8a7d6c"/><path d="m7.425 10.328.035.018z" fill="#847767"/><path d="m7.968 10.31-.053.106h.106z" fill="#726657"/><path d="M8.23 10.31v.053h.159z" fill="#5b5044"/><path d="M6.864 10.363v.053h.368z" fill="#74695a"/><path d="m9.966 10.363.052.053z" fill="#766b5c"/><path d="m13.436 10.363-.053.42z" fill="#c2bdb7"/><path d="M6.128 10.416v.052h.42z" fill="#4f4439"/><path d="M6.549 10.416v.052h.262z" fill="#ac9e8a"/><path d="M5.76 10.468v.053h.368z" fill="#b7a994"/><path d="M8.494 10.468v.316h.052l.053-.316z" fill="#817566"/><path d="m5.637 10.538.035.018z" fill="#9d907e"/><path d="m8.073 10.52.053.054z" fill="#6e6355"/><path d="M8.126 10.52c-.141.173-.285.38-.526.395-.397.025-1.171-.322-1.42.08h.79v.052h-.106v.053c.44.003 1.154.108 1.033.736-.033.171-.173.316-.244.473.21.06.364.26.577.296.289.048.522-.398.632-.611l-.626.282-.373-1.176c.227-.114.36-.328.263-.58z" fill="#1f130a"/><path d="M8.546 10.52c.003.26.019.451.263.58l.368-.053h1.315v-.053c-.812.035-1.36.144-1.946-.473z"/><path d="m8.599 10.52.053.054z" fill="#695e50"/><path d="m5.48 10.591.035.018z" fill="#a49784"/><path d="M8.178 10.574v.157h.053z" fill="#b6a792"/><path d="M8.652 10.574v.157h.052z" fill="#a79a87"/><path d="M10.702 10.574v.052l1.104.105c-.208-.273-.792-.157-1.104-.157z" fill="#6b4127"/><path d="m7.968 10.679.053.052z" fill="#6a5f51"/><path d="m10.44 10.679.052.052z" fill="#938775"/><path d="m5.129 10.731.053.053z" fill="#7a6e5f"/><path d="m7.915 10.731.053.053z" fill="#8e8170"/><path d="m10.544 10.731.053.053z" fill="#786c5d"/><path d="M13.33 10.731v.21h.053z" fill="#e5e2df"/><path d="M6.443 10.784v.053h.368z" fill="#51473b"/><path d="m10.684 10.801.035.018z" fill="#584e41"/><path d="m6.18 10.837.053.052z" fill="#867a69"/><path d="M7.074 10.837v.052h.263z" fill="#7b6f5f"/><path d="m13.296 10.872.017.035z" fill="#aba49b"/><path d="m6.023 11.1.946-.053v-.053c-.236 0-.78.07-.736-.105z"/><path d="M7.495 10.89v.052h.263z" fill="#887c6b"/><path d="m8.844 10.907.035.017z" fill="#948876"/><path d="M10.912 10.89v.052h.158z" fill="#897c6c"/><path d="M9.02 10.942v.052h.157z" fill="#74685a"/><path d="m10.369 10.96.035.017z" fill="#ab9d89"/><path d="m11.543 11.047.21-.053z" fill="#574c40"/><path d="m13.278 10.942-.105.684h.105z" fill="#dcd9d6"/><path d="m13.348 10.977.018.035z" fill="#82807e"/><path d="M8.757 10.994v.158c.469.149.9.811 1.472.421-.393-.116-.696-.028-1-.368.263.033.613.144.79-.105z" fill="#1d1108"/><path d="M9.388 10.994v.053h.683z" fill="#968977"/><path d="M10.071 10.994v.053h.158z" fill="#5d5245"/><path d="M11.753 10.994v.158h.053z" fill="#827666"/><path d="M4.761 11.047v.158h.053z" fill="#584d41"/><path d="m5.059 11.064.035.018z" fill="#7e7262"/><path d="m5.988 11.082.017.035z" fill="#a19380"/><path d="M6.075 11.047v.053h.21z" fill="#978a77"/><path d="M6.286 11.047v.053h.42z" fill="#d0c1aa"/><path d="M6.706 11.047v.053h.158z" fill="#9a8d7a"/><path d="m10.369 11.064.035.018z" fill="#a49683"/><path d="m13.348 11.082.018.035z" fill="#48423e"/><path d="M4.971 11.1v.263h.053z" fill="#726658"/><path d="M5.024 11.1c.01.294.123.423.368.578l-.263-.578z"/><path d="m5.129 11.1.053.052z" fill="#928574"/><path d="M7.127 11.1v.052h.158z" fill="#786c5d"/><path d="M7.863 11.1v.105l.105-.105z" fill="#867a69"/><path d="m11.403 11.135.017.035z" fill="#8a7d6d"/><path d="m13.243 11.135.018.035z" fill="#9d958c"/><path d="M7.495 11.152v.053h.158z" fill="#6c6153"/><path d="m10.054 11.17.035.017z" fill="#958876"/><path d="m5.2 11.24.017.035z" fill="#6a5f51"/><path d="m9.23 11.31.21-.053z" fill="#5b5043"/><path d="m10.544 11.205.053.052z" fill="#3d3126"/><path d="m11.7 11.205.053.052z" fill="#7f7364"/><path d="m4.814 11.257.052.053z" fill="#786d5e"/><path d="M9.072 11.257v.158h.053z" fill="#837767"/><path d="M9.545 11.257v.053h.21z" fill="#cbbca5"/><path d="M9.913 11.468v.052c.299.02.448-.011.631-.263z"/><path d="m11.333 11.257.052.053z" fill="#64594c"/><path d="M13.278 11.257v.158h.053z" fill="#959390"/><path d="M6.286 11.31v.053h.263z" fill="#51463a"/><path d="M6.549 11.31v.053h.21z" fill="#cabba4"/><path d="M7.18 11.31v.053h.157z" fill="#8f8271"/><path d="M7.074 11.363v.052l.579.053z"/><path d="m7.53 11.328.035.017z" fill="#baac96"/><path d="m7.968 11.31.053.053z" fill="#7c7161"/><path d="m11.648 11.31.053.053z" fill="#918573"/><path d="m4.866 11.363.053.052z" fill="#8a7e6d"/><path d="M6.128 11.468c.348.047.878.335 1.104-.053-.32-.048-.834-.152-1.104.053z" fill="#1e130a"/><path d="M6.811 11.363v.052h.158z" fill="#685c4e"/><path d="m7.6 11.363.053.052z" fill="#6f6456"/><path d="m10.229 11.363.052.052z" fill="#726758"/><path d="m11.28 11.363.105.157z" fill="#64594c"/><path d="m13.594 11.363-.21 1.052h.052c.116-.302.286-.737.158-1.052z"/><path d="m7.828 11.45.017.035z" fill="#998d7a"/><path d="m8.038 11.45.018.035z" fill="#5b5043"/><path d="m10.106 11.433.035.017z" fill="#5a4f43"/><path d="m13.296 11.45.017.035z" fill="#433c38"/><path d="m4.919 11.468.052.052z" fill="#8b7e6d"/><path d="M6.233 11.468v.052h.263z" fill="#9c8f7c"/><path d="M7.232 11.468v.052h.158z" fill="#716557"/><path d="m9.177 11.468.053.052z" fill="#796e5e"/><path d="M9.545 11.468v.052h.368z" fill="#4a4035"/><path d="m5.182 11.52.052.053z" fill="#968977"/><path d="m6.549 11.52.052.053z" fill="#655b4d"/><path d="m11.543 11.52.053.053z" fill="#817565"/><path d="m4.971 11.573.053.053z" fill="#827565"/><path d="M5.392 11.573v.21h.052z" fill="#685d50"/><path d="M7.863 11.573v.42h.052z" fill="#857969"/><path d="M8.073 11.573v.368h.053z" fill="#6d6153"/><path d="M9.44 11.573v.053h.158z" fill="#a89b87"/><path d="M6.706 11.626v.052h.21z" fill="#54493d"/><path d="m10.124 11.626.052.052z" fill="#958877"/><path d="m11.438 11.626.053.052z" fill="#7d7161"/><path d="m13.173 11.626-.526 1.893c.236-.153.174-.484.225-.736.078-.388.472-.749.3-1.157z" fill="#fff"/><path d="M13.226 11.626v.157h.052z" fill="#8e8b88"/><path d="m5.024 11.678.052.053z" fill="#776c5d"/><path d="M9.703 11.678v.053h.263z" fill="#958876"/><path d="m10 11.696.036.017z" fill="#5d5245"/><path d="m11.385 11.678.053.053z" fill="#7e7364"/><path d="M11.07 11.73v.053h.263z" fill="#a39682"/><path d="m11.017 11.783.053.053z" fill="#7b6f5f"/><path d="m5.129 11.836.053.053z" fill="#675c4e"/><path d="m10.965 11.889.052.052z" fill="#716557"/><path d="M2.132 11.941v.053l.263.052v-.052z"/><path d="m8.09 11.976.018.035z" fill="#b3a48f"/><path d="M8.704 11.941v.053h.158z" fill="#594f42"/><path d="m11.385 11.941-.105.579h.053z" fill="#6d4329"/><path d="m8.88 12.029.017.035z" fill="#978977"/><path d="m10.912 11.994.053.052z" fill="#605649"/><path d="M2.448 12.046v.053c.518.643 1.37 1.404 2.155 1.736l-.052.368c-.458-.02-.907-.113-1.367-.105-.144.003-.453.03-.359.257.126.304.717.38.937.637H3.29v.053h2.629v-.053c-.826-.121-1.655.092-2.419-.302-.149-.077-.563-.191-.598-.38-.035-.193.336-.16.44-.16.478.006.946.121 1.42.158v-.052l-.232-.502-1.556-1.162z"/><path d="m5.602 12.046.053.053z" fill="#766a5b"/><path d="m8.546 12.046.053.053z" fill="#776b5c"/><path d="m8.038 12.134.018.035z" fill="#948876"/><path d="m8.494 12.1.052.052z" fill="#837666"/><path d="m8.757 12.1.052.052z" fill="#857969"/><path d="m13.12 12.1.053.052z" fill="#959290"/><path d="m5.655 12.152.052.052z" fill="#6c6153"/><path d="m8.704 12.152.053.052z" fill="#8b7f6f"/><path d="m10.807 12.152.053.052z" fill="#6c6152"/><path d="m8.073 12.204.053.053z" fill="#978a78"/><path d="m10.755 12.204.052.053z" fill="#7d7162"/><path d="m13.068 12.204.052.053z" fill="#9c9997"/><path d="m5.707 12.257.053.052z" fill="#62574a"/><path d="m8.126 12.257.052.052z" fill="#918573"/><path d="m10.702 12.257.052.052z" fill="#887c6b"/><path d="m8.178 12.31.053.052z" fill="#8a7d6c"/><path d="m10.65 12.31.052.052z" fill="#938674"/><path d="m13.015 12.31.053.052z" fill="#acaaa8"/><path d="m7.863 12.362.052.053z" fill="#9b8e7b"/><path d="m10.597 12.362.052.053z" fill="#756a5b"/><path d="m7.915 12.415.053.052z" fill="#968a77"/><path d="m7.968 12.467.053.053z" fill="#918573"/><path d="m12.963 12.467.052.053z" fill="#706b69"/><path d="m13.33 12.467-.157.79.63-.053v.105l-.683.631.789-.21v-.053l-.578.105c.428-.419.642-.69-.105-.63z"/><path d="m10.229 12.573.052.052z" fill="#8d806f"/><path d="m12.91 12.573.053.052z" fill="#837f7d"/><path d="M7.705 12.625v.053h.316z" fill="#afa18c"/><path d="M8.126 12.625v.053h.21z" fill="#a99c88"/><path d="m8.967 12.625.053.053z" fill="#6c6153"/><path d="M7.232 12.836v.105l.63-.064 1.315-.094-.052-.158z" fill="#170900"/><path d="m10.124 12.625.052.053z" fill="#615648"/><path d="M12.595 12.625v.474h.052z" fill="#402900"/><path d="M12.857 12.625v.158h.053z" fill="#aaa7a5"/><path d="M5.655 12.678v.315h.052l.053-.315z" fill="#6a432b"/><path d="m6.128 12.678.052.052z" fill="#8c806f"/><path d="m7.653 12.678.052.052z" fill="#807364"/><path d="M8.441 12.678v.052h.263z" fill="#aa9c88"/><path d="m8.74 12.695.034.018z" fill="#685d4e"/><path d="m9.125 12.678.052.052z" fill="#64594c"/><path d="M12.647 12.678v.526h.053z" fill="#dedcd9"/><path d="M7.337 12.73v.053H7.6z" fill="#b6a892"/><path d="m8.389 12.73.052.053z" fill="#796d5e"/><path d="m10.211 12.748.035.017z" fill="#746859"/><path d="m6.286 12.783.052.053z" fill="#62574a"/><path d="m7.285 12.783.052.053z" fill="#776b5d"/><path d="m8.266 12.8.035.018z" fill="#baac96"/><path d="M8.81 12.783v.053h.157z" fill="#938675"/><path d="m9.125 12.783.052.053z" fill="#857969"/><path d="M10.386 12.783v.158h.053z" fill="#837868"/><path d="M12.857 12.783v.158h.053z" fill="#74706d"/><path d="m6.39 12.836.053.052z" fill="#7b6f60"/><path d="m7.197 12.87.017.036z" fill="#928573"/><path d="M7.758 12.836v.052h.21z" fill="#6b6051"/><path d="m9.002 12.853.035.018z" fill="#aea08c"/><path d="m8.02 12.888.053.053z" fill="#807465"/><path d="m8.529 12.906.035.017z" fill="#bbac96"/><path d="m7.267 12.958.035.018z" fill="#786c5d"/><path d="m7.53 12.958.035.018z" fill="#a29582"/><path d="m10.334 12.993.052.053z" fill="#7c7061"/><path d="M8.389 13.046v.053h.21z" fill="#a69885"/><path d="m8.056 13.116.035.018z" fill="#bfb09b"/><path d="M8.126 13.099v.052h.157z" fill="#807363"/><path d="M8.073 13.151v.053l.894.158c-.249-.306-.538-.256-.894-.21z"/><path d="m8.687 13.116.035.018z" fill="#b6a793"/><path d="m10.281 13.099.053.052z" fill="#817565"/><path d="M12.805 13.099v.368h.052z" fill="#c5c2c0"/><path d="m7.6 13.888.63-.632c-.48-.28-.63.264-.63.632z" fill="#221810"/><path d="m7.81 13.204.053.052z" fill="#7b6f60"/><path d="m8.862 13.204.052.052z" fill="#918573"/><path d="m10.229 13.204.052.052z" fill="#857a69"/><path d="m8.266 13.274.035.017z" fill="#b2a490"/><path d="M8.599 13.256v.053h.158z" fill="#9c8f7c"/><path d="M12.595 13.256v.263h.052z" fill="#80766b"/><path d="m7.653 13.309.052.053z" fill="#695e50"/><path d="m8.108 13.326.035.018z" fill="#9f927f"/><path d="m8.81 13.309.052.053z" fill="#918472"/><path d="m10.176 13.309.053.053z" fill="#8b7f6e"/><path d="m6.917 13.362.052.052z" fill="#827666"/><path d="m8.003 13.38.035.017z" fill="#b8ab95"/><path d="m6.97 13.414.052.053z" fill="#968977"/><path d="m10.124 13.414.052.053z" fill="#685d4f"/><path d="m12.752 13.467.053.052z" fill="#6c6864"/><path d="m7.775 13.607.018.035z" fill="#b7a994"/><path d="m13.068 13.572-2.471 1.157.052.316c.552-.23 1.075-.524 1.63-.747.36-.144.744-.28.789-.726z" fill="#fff"/><path d="m6.864 13.625.053.052z" fill="#8c8784"/><path d="m7.127 13.625.052.052z" fill="#8a7f6d"/><path d="M7.547 13.625v.157H7.6z" fill="#7a6f5f"/><path d="m9.966 13.625.052.052z" fill="#7c7161"/><path d="m6.864 13.677-.21 1.736 1.261-.631v-.053c-.298.003-.613.128-.84-.105l.735-.105v-.053z" fill="#fff"/><path d="m12.91 13.677-1.051.474v.052l.946-.368-.368.263v.053c.242-.06.5-.188.473-.474z"/><path d="m6.829 13.765.017.035z" fill="#c7c5c4"/><path d="m6.97 13.73.052.052z" fill="#817d7a"/><path d="m7.723 13.765.017.035z" fill="#837767"/><path d="m7.232 13.782.053.053z" fill="#8b7f6e"/><path d="m10.124 13.782.052.053z" fill="#7e7a78"/><path d="m10.176 13.782-.736.632v.052c.321.055.688.13.789.474l-1.157-.316c.133.177.99.564 1.193.451.344-.19.1-1.07-.089-1.293m2.629 0 .052.053z" fill="#fff"/><path d="m6.776 13.87.018.035z" fill="#8b8785"/><path d="m7.074 13.888.053.052z" fill="#9e9b98"/><path d="M7.232 13.888c-.07.723 1.16.544 1.577.526v-.053c-.7.006-1.007-.012-1.577-.473z"/><path d="m7.653 13.888.052.052z" fill="#8f8271"/><path d="m10.018 13.94.053.053z" fill="#797471"/><path d="m10.299 13.975.017.035z" fill="#bbb9b7"/><path d="M13.278 14.256v.052l.578-.052v-.053h-.368v-.052l.421-.158z"/><path d="m7.337 13.993.053.052z" fill="#7a6f5f"/><path d="m9.545 13.993.053.052z" fill="#796d5e"/><path d="m6.724 14.08.017.036z" fill="#918f8d"/><path d="m7.18 14.045.052.053z" fill="#938f8d"/><path d="m7.39 14.045.052.053z" fill="#74695a"/><path d="m9.86 14.098.053.053z" fill="#6e6a66"/><path d="m7.547 14.15.053.053z" fill="#8b7f6e"/><path d="m9.23 14.15.052.053z" fill="#6d6153"/><path d="m9.808 14.15.053.053z" fill="#8c8885"/><path d="M10.755 14.887c.184-.325.716-.493 1.051-.631v-.053l-1.157.526.053.21 1.682-.736c-.43-.089-1.257.467-1.63.684z"/><path d="m4.55 14.203.053.053z" fill="#fff"/><path d="m9.756 14.203.052.053z" fill="#a7a5a2"/><path d="m10.404 14.238.018.035z" fill="#bab8b6"/><path d="M6.759 14.256v.158h.052z" fill="#5b5754"/><path d="m7.442 14.256.053.052z" fill="#77736f"/><path d="M8.81 14.256v.052h.157z" fill="#ac9f8b"/><path d="M8.652 14.308v.053h.157z" fill="#5b5044"/><path d="m10.457 14.344.017.035z" fill="#878381"/><path d="m7.6 14.361.053.053z" fill="#86827f"/><path d="M7.915 14.361v.053h.526z" fill="#776b5c"/><path d="m9.335 14.414.315.105v-.053z" fill="#afacaa"/><path d="m13.909 14.414-3.89 1.315v.052l1.682-.656 2.26-.659-.052-.052m-10.2.052.316.263-.105-.158 1.42.316v-.052z"/><path d="m10.386 14.466.053.053z" fill="#928f8d"/><path d="m7.425 14.536.035.018z" fill="#c7c5c3"/><path d="m7.53 14.536.035.018z" fill="#716d6a"/><path d="m9.685 14.536.036.018z" fill="#85817d"/><path d="M7.232 14.571v.053h.158z" fill="#888480"/><path d="M7.127 14.624v.105l.999-.052z"/><path d="M8.389 14.571v.106h.473v-.106z" fill="#e7e7e7"/><path d="m8.88 14.607.017.035z" fill="#504b47"/><path d="M9.86 14.571v.053h.158z" fill="#807d7b"/><path d="m10.351 14.607.018.035z" fill="#8e8a87"/><path d="m7.092 14.66.017.034z" fill="#b2b0ae"/><path d="m9.037 14.66.018.034z" fill="#6e6965"/><path d="M9.177 14.624v.053h.158z" fill="#706c69"/><path d="M9.86 14.624v.053l.264.052-.053.106z"/><path d="M6.496 14.677v.158h.053z" fill="#736f6b"/><path d="M7.547 14.677v.052h.21z" fill="#7b7773"/><path d="M7.758 14.677v.052l.315.053z" fill="#afacaa"/><path d="m8.09 14.712.018.035z" fill="#504a45"/><path d="m9.37 14.694.035.018z" fill="#9e9b99"/><path d="M7.127 14.73v.052h.42z" fill="#a5a2a0"/><path d="m9.16 14.747.035.017z" fill="#a7a4a2"/><path d="m9.58 14.747.035.017z" fill="#9d9a98"/><path d="m10.176 14.73-.052.21z" fill="#8e8a88"/><path d="m7.81 14.782.053.053z" fill="#a7a4a2"/><path d="m9.317 14.8.035.017z" fill="#a19e9c"/><path d="M9.756 14.782v.053h.157z" fill="#9b9895"/><path d="m4.13 14.835.053.052z"/><path d="m7.705 14.835.053.052z" fill="#9a9795"/><path d="m9.475 14.852.035.018z" fill="#a09d9a"/><path d="M10.386 14.835v.21h.053z" fill="#676360"/><path d="m7.6 14.887.053.053z" fill="#8e8a88"/><path d="M7.6 15.203v.052l1.104.414.736-.519c-.574-.434-1.243-.178-1.84.053z" fill="#fff"/><path d="m9.633 14.905.035.017z" fill="#a09d9b"/><path d="M6.601 14.94v.42h.053z" fill="#bbb8b6"/><path d="m7.495 14.94.052.052z" fill="#827e7b"/><path d="M8.81 14.94v.052l.21.053v-.053z"/><path d="m9.79 14.957.036.018z" fill="#9d9a98"/><path d="m7.39 14.992.052.053z" fill="#746f6d"/><path d="M7.81 15.203c.59.446 1.04.495 1.525-.105l-.263-.053v.053c.072.74-.886.233-1.157.105l.474-.158-.579.158m.631-.21v.052h.316l-.316-.053m-5.415.053v.053h.21z"/><path d="m7.285 15.045.052.053z" fill="#65605d"/><path d="m10.281 15.045.053.053z" fill="#9f9c9a"/><path d="m7.18 15.098.052.052z" fill="#7a7573"/><path d="m10.071 15.098.053.052z" fill="#67625e"/><path d="m10.229 15.098.052.052z" fill="#6a6662"/><path d="M2.868 15.15c.155.306.431.263.736.263.634 0 1.26.053 1.893.053v-.053c-.687 0-2.094.178-2.629-.263z"/><path d="m7.022 15.203.052.052z" fill="#827f7c"/><path d="m8.914 15.992 1.157-.579c-.436-.347-.913.233-1.157.579z" fill="#fff"/><path d="m6.864 15.308.053.053z" fill="#a4a19f"/><path d="m9.02 15.94.946-.527c-.36-.21-.736.264-.946.526z"/><path d="M7.232 15.36v.053l.263.053v-.053l-.263-.052m2.156.315.42-.315z" fill="#fff"/><path d="m6.794 15.43.035.018z" fill="#635e5b"/><path d="M5.55 15.466v.052l.788.106-.788-.158m-.158.158v.052l.21.053v-.053l-.21-.052m.999 0v.052h.21l-.21-.052m-2.26.052.052.053-.053-.053m.999 0v.053h.158l-.158-.053m1.525 0v.053h.21l-.21-.053m-2.366.053.052.052-.052-.052m.718.017.035.018-.035-.018m1.963-.017v.052l.368.158h.316v-.052l-.684-.158m3.558.017.035.018-.035-.018m-4.154.053.035.018-.035-.018m1.367.105.035.018-.035-.018m1.227.035.053.053z"/></svg>