<svg xmlns="http://www.w3.org/2000/svg" width="16" height="16" viewBox="0 0 16 16"><g fill="none" fill-rule="evenodd"><path fill="#3D70D6" d="M14.731 6.569c.128-.047.173-.12.181-.247.021-.385.047-.771.086-1.153.015-.164-.047-.144-.164-.106-.09.029-.18.056-.27.082v.002l-.064.018c-.177.05-.354.103-.529.16a.384.384 0 0 1-.12.02l-1.872.526a.214.214 0 0 1-.09.042c-.25.064-.494.14-.74.213-.09.026-.158.05-.088.17.238.4.468.805.7 1.209.041.07.083.138.185.087.055-.026.12-.075.162-.005.036.06-.033.112-.073.152-.19.188-.165.372.001.558.113.126.112.255-.01.415-1.486 3.326-4.302 3.498-6.547 1.625-.034-.03-.775-.776-1.25-1.66-.022-.135-.048-.276-.067-.417-.007-.053-.033-.144.068-.128.273.043.271-.15.31-.312.038-.158.076-.316.12-.474.117-.417.118-.417-.31-.517a2.826 2.826 0 0 1-.428-.122L1.3 6.09c-.054-.003-.078.023-.084.097-.037.462-.076.923-.12 1.384-.01.098.01.143.12.145.08.002.158.037.237.039.137.003.185.042.15.187-.063.256-.14.523.12.737.024.02.027.084.014.119-.058.16-.024.324-.022.484.013.883.097 1.765.045 2.647-.009.157.067.219.2.248.244.055.436.152.432.434 0 .095.086.12.15.164.576.414 1.154.827 1.732 1.239.144.103.351.174.2.41-.014.023-.002.086.017.096.191.092.207.274.263.439.037.102.137.144.247.173.357.095.71.2 1.067.298.058.016.154-.005.154.068 0 .224.227.318.292.502h.374c.407-.222.801-.46 1.263-.587.41-.113.797-.172 1.19.017.283.137.578.24.878.332.25.078.414.01.52-.21.125-.263.42-.598.65-.738l.877-.381c.133-.057.28-.084.395-.177.263-.075.485-.22.701-.376a.263.263 0 0 0 .115-.221c.006-.347.078-.675.238-.99.072-.142.13-.297.144-.464.04-.496.174-.978.278-1.462.123-.57.404-1.092.635-1.627.137-.316.26-.622.113-.985-.088-.22-.076-.512-.039-.714.048-.27-.083-.36-.207-.505-.196-.23-.199-.236.092-.343"/><path fill="#EDBC95" d="M3.917 6.033c-.183.432-.16.623-.266.623 0 0-1.63-.406-1.451-.358.068.017-.195-.044-.155-.116.162-.281.08-1.016-.144-1.26-.034-.036-.187-.51-.222-.613-.248-.731-.497-1.462-.648-2.218-.014-.076-.03-.153-.03-.23 0-.1-.022-.228.106-.261.108-.026.209.045.267.138.206.33.405.663.608.994.018.03.04.056.075.1.275-.303.428-.674.69-.974.254-.29.245-.3.602-.136.092.043.17.004.256-.02a8.217 8.217 0 0 0 1.549-.605c.078-.04.175-.134.262-.038.088.098.049.224-.03.306a7.603 7.603 0 0 1-.595.554c-.116.095-.152.17-.103.324.18.578.27.705.688.27.103-.105.415-.181.62-.107.155.038.267.088.339.195a.301.301 0 0 1-.06.4c-.63.509-.98 1.197-1.32 1.892-.094.194-.225.369-.435.43-.38.106-.484.43-.603.71Zm9.77-.831c.035.102.09.143.164.145l-1.872.524c.033-.03.04-.07.01-.137-.105-.23-.149-.457-.37-.667-.214-.2-.444-.273-.679-.381a3.859 3.859 0 0 1-.788-.473c-.338-.268-.768-.34-1.168-.475-.11-.037-.296 0-.29-.197.006-.193.12-.285.313-.322.27-.052.535-.126.811-.15.065-.004.167.039.184-.047.011-.052-.04-.132-.086-.178a7.53 7.53 0 0 0-.973-.88c-.07-.052-.143-.102-.215-.152-.139-.095-.31-.195-.2-.387.113-.2.333-.183.517-.122.156.05.291.16.435.245.113.066.226.134.338.203l.094.073c.027.014.055.043.08 0 .002-.005-.03-.028-.046-.043-.023-.024-.044-.05-.067-.072L9.124.983c-.285-.27-.24-.37-.036-.678a.553.553 0 0 1 .41-.266c.202-.034.377.055.555.142a8.24 8.24 0 0 1 1.77 1.162c-.085-.313-.217-.563-.333-.818-.079-.171-.164-.368.035-.482.197-.113.387.016.5.178.5.719.963 1.459 1.123 2.329.085.46.186.919.104 1.397-.038.22.12.424.19.634.07.21.17.412.244.62Z"/><path fill="#5F4014" d="M4.426 8.418c-.497.8-1.109 2.537-1.109 2.537s-.124.405.054.28c.179-.126.4-.74.56-.644.162.097-.312.535-.117.618.194.083.4-.33.4-.33s-.236.656-.138.824c.1.168.332-.12.332-.12s.058.256.216.487c.159.232.662.41.715.484.273.387.898.954 1.178 1.127.28.173.39.442.526.566.135.125.064.18.527.502.476.333 1.198.182 1.454.163.255-.018.459-.007.698-.163.239-.155.678-.546.825-.832.15-.287.47-1.096.47-1.096s.337-.487.434-.534c.096-.047.272-.1.45-.217.178-.116.247-.689.356-.735.109-.045.338-.134.41-.204.074-.07-.204-.242-.358-.382-.153-.14.655.05.796-.075.14-.126-.572-.318-.675-.76a6.253 6.253 0 0 0-.678-1.766c-.434-.755-1.13-1.167-1.982-1.059-.11.014-.252.031-.296-.034-.357-.53-.912-.758-1.646-.823-.732-.064-1.512.107-2.042.631-.316.316-.861.755-1.36 1.555"/><path fill="#EDBC95" d="M11.605 11.792c.132-.126.23-.25.266-.413.016-.073.026-.146.126-.123.13.028.073.117.045.182-.125.293-.224.613-.65.618-.106.002-.135.096-.175.174a1.428 1.428 0 0 1-.766.683c-.074.03-.224.027-.186.133.045.127.167.022.255.012.031-.004.063-.018.157-.047-.193.547-.41 1.015-.888 1.318-.468.295-.999.421-1.548.421a1.088 1.088 0 0 1-.996-.578 3.044 3.044 0 0 0-1.075-1.09c-.254-.155-.476-.33-.6-.603-.039-.084-.096-.126-.196-.146-.316-.06-.767-.654-.748-.965.006-.13.102-.195.2-.256.38-.236.79-.39 1.25-.403a10.38 10.38 0 0 0 1.328-.117c.324-.05.608-.212.954-.349-.09.187-.252.236-.334.362.503.041.837-.16 1.287-.78.37.58.954.903 1.545 1.214.156.082.33.13.506.16.302.051.346.13.233.406-.017.045-.052.093.01.187"/><path fill="#E2CCBC" d="M6.856 13.973c.248.387.487.717.984.875-.256.055-.429.089-.599.13-.054.013-.145.012-.13.094.012.076.098.063.154.06.258-.012.514-.031.838-.053-.283.13-.506.24-.735.335a2.286 2.286 0 0 0-.493.302c-.069.053-.108.135-.22.082-.112-.052-.077-.142-.08-.222-.008-.119.01-.236-.068-.346-.08-.117-.004-.211.087-.29.128-.113.184-.228.124-.407-.059-.18.084-.336.138-.56m2.434 1.124c.307-.038.585.086.875.153.082.02.194.124.245-.013.043-.115-.058-.186-.165-.228-.22-.087-.452-.126-.695-.175a1.82 1.82 0 0 0 .854-.735c.078.325.349.562.167.898-.03.057.005.151.02.226.023.115-.02.197-.114.265-.093.065-.166.02-.245-.025-.292-.169-.63-.226-.942-.366"/><path fill="#F4AF3D" d="M4.804 8.267c.037.146-.11.234-.126.365-.103.1-.1.268-.27.379.054-.317.19-.548.396-.744m7.166 2.654c-.302.055-.65.042-.846-.031.527-.123.602-.121.846.031m-7.656-.45c.125-.291.77-.52 1.356-.475-.51.115-.98.167-1.356.475m6.956-2.457c.01.034.02.067.028.1l-.019-.016.013-.02c-.03.113-.12.064-.169.038-.379-.212-.794-.222-1.212-.198-.185.011-.244-.05-.243-.23.001-.458.076-.522.545-.375.086.027.204-.015.26.092.01.03.011.082.028.088.311.1.492.376.77.521m1.175 2.436c-.508-.015-1.007.133-1.496.034-.51-.104-.979-.314-1.34-.696-.182-.19-.259-.405-.172-.662.037-.107.066-.16.17-.045.306.345.685.62 1.04.917.376.317.872.306 1.331.388.154.027.31.042.467.064m-.322-.536c.045.179.081.292-.217.233-.714-.142-1.284-.51-1.839-.934-.305-.233-.437-.491-.403-.859.018-.184.087-.233.263-.233.388 0 .738.048 1.076.286.131.091.224.332.478.271.048-.011.102.102.082.213-.425-.181-.835-.381-1.31-.39.517.218 1.085.351 1.423.841.173.174.244.421.447.572m-7.32-1.647c.177-.131.287-.318.423-.482.657-.801 1.462-1.416 2.561-1.34.89.061 1.487.551 1.61 1.418a.63.63 0 0 1-.082.443c-.162-.144-.308-.309-.486-.428-.549-.369-1.17-.391-1.81-.304-.834.113-1.567.428-2.173.999a.197.197 0 0 1-.169.059c.015-.131.163-.219.126-.365m-.549 1.79c.448-.224.931-.335 1.43-.385.913-.093 1.823-.19 2.554-.816.092-.079.134-.052.147.062.03.284-.152.451-.363.585-.58.374-1.24.54-1.914.679-.38.079-.765.157-1.137.267-.305.089-.543.271-.583.612.213-.28.488-.438.851-.466.583-.046 1.167-.089 1.747-.16.858-.105 1.573-.481 2.088-1.155.34-.444.24-.776-.212-1.116-.619-.464-1.32-.4-1.989-.254C5.576 8.193 4.671 9 4.02 10.116c.115.017.174-.029.235-.059m7.64-.606c-.05-.063-.086-.186-.218-.109.173.174.244.421.447.572-.014-.182-.122-.326-.23-.463m-.624-1.437c-.277-.145-.458-.421-.769-.521-.017-.006-.019-.058-.028-.088.414.023.62.299.797.609"/><path fill="#FDFDFD" d="M9.946 1.78c.016.016.048.039.045.044-.024.044-.052.014-.079 0l.034-.043"/><path fill="#5F4014" d="M7.897 12.689c.172-.042.221-.317.221-.317.004-.014.003-.026.01-.041a.598.598 0 0 0-.015-.502c-.113-.258-.204-.494.07-.71.024-.02.036-.062.037-.094.004-.08.091-.185-.018-.231-.092-.04-.129.076-.164.135-.124.212-.304.257-.542.223-.343-.05-.69-.076-1.036-.11-.268-.026-.417.063-.549.339.474-.126.93-.028 1.387.035.483.065.587.189.622.662.017.213-.127.324-.26.502-.017.088.066.152.237.109m.73-1.938c.072-.013.106.044.112.086.042.31.273.352.536.391.46.066.92.047 1.387.05-.392.18-.785.345-1.243.265.452.366.895.164 1.353-.038-.302.475-.545.548-1.082.384-.22-.067-.461-.073-.517-.36-.014-.069-.122-.057-.186-.083-.318-.13-.433-.35-.36-.695m.437 2.603c-.143-.012-.307.057-.47.125-.156.065-.305.085-.455-.018-.12-.084-.248-.078-.378-.017-.056.025-.113.056-.174.066-.119.02-.292.063-.317-.076-.02-.112.153-.112.26-.151.29-.106.534-.074.832.02.18.058.472-.07.712-.115.077-.015.162-.105.234.01.024.039.046.08.016.119-.058.074-.137.067-.26.037"/><path fill="#5F4014" d="M7.702 11.725c-.291.04-.541.083-.772.2a.327.327 0 0 1-.332-.037c-.127-.091-.26-.142-.422-.107-.051.01-.12.006-.125-.06-.005-.061.06-.075.11-.091.102-.031.203-.062.313-.038.274.062.546.054.82.003a.408.408 0 0 1 .408.13m-2.425.346a1.056 1.056 0 0 0-.31-.302.332.332 0 0 1-.155-.281c-.002-.063.014-.128.078-.147.075-.024.123.045.127.097.021.217.285.327.26.633"/><path fill="#EDBC95" d="M4.963 1.309c-.407.229-.83.422-1.272.576-.05.018-.112.024-.122.084-.02.12.308.37.42.317.44-.205.769-.544 1.12-.855.025-.021.035-.058.052-.088-.045-.157-.136-.069-.198-.034"/><path fill="#5F4014" d="M3.692 3.346 1.478 4.584l.125.42 2.377-1.42a2.567 2.567 0 0 1-.288-.239m1.023-.486c.033.073.044.146-.045.2-.087.056-.163.104-.245-.008-.021-.027-.045-.051-.068-.078l-.277.156c.073.085.143.167.208.239l.02.02 3.593-2.141-.094-.203-3.12 1.745a.426.426 0 0 0 .028.07"/></g></svg>