<svg xmlns="http://www.w3.org/2000/svg" height="16" viewBox="0 0 16 16" width="16"><ellipse transform="matrix(.21872 -.97579 .98028 .1976 0 0)" fill="#55acee" cx="-1.951" cy="10.715" rx="3.181" ry="2.817" stroke-width=".407"/><path fill="#269" d="M4.523 6.673V7.3c-1.01.208-2.25.734-2.438 1.484-.586 2.345-.429 5.979-.429 6.03v.054c0 .26.278.26.55.26H8.94c.273 0 .55 0 .55-.26V8.784c0-.682-.591-1.364-1.937-1.521v-.59z" stroke-width=".407"/><path fill="#55acee" d="M11.447 6.124V7.3c1.01.208 2.25.734 2.438 1.484.586 2.345.429 5.98.429 6.03v.054c0 .26-.278.26-.55.26H7.03c-.273 0-.55 0-.55-.26V8.784c0-.682.591-1.364 1.938-1.521v-.59z" stroke-width=".407"/><ellipse transform="matrix(.98028 -.1976 .21872 .97579 0 0)" fill="#269" cx="4.869" cy="5.107" rx="2.817" ry="3.181" stroke-width=".407"/><path fill="#55acee" d="M8.442 7.229c-.548.151-1.44.217-2.467-.152-1.085-.388-2.083-.77-2.472-.9-.353-.116-1.256-.012-1.458.337-.2.35-.315.986.183 1.452.498.465 3.12 1.384 3.86 1.798.39.216.367 1.516.39 2.578.034 1.603 3.087-5.423 1.964-5.113z" stroke-width=".407"/><path fill="#269" d="M5.573 10.876c.557.119 1.507.322 2.51-.106 1.056-.453 1.97-1.084 2.35-1.235.345-.138 1.075-.271 1.477.25.248.32.38.965-.087 1.459-.466.494-2.3 1.554-3.655 1.865-1.15.263-2.914.238-3.477-.315-.88-.863.117-2.08.882-1.918zm5.336-3.192c0-.774.721-1.196 1.564-1.506.35-.129 1.257-.013 1.458.336.202.35.315.986-.182 1.452-.498.465-2.84.91-2.84-.282z" stroke-width=".407"/></svg>