<svg xmlns="http://www.w3.org/2000/svg" viewBox="0 0 350 300" width="16" height="16"><path fill="#ad1d45" style="stroke-width:.85472" d="M66.632 25.824h43.435v42.049H66.632z"/><path fill="#d9195c" style="stroke-width:.85472" d="M110.067 25.824h43.435v42.049h-43.435zm86.869 0h43.435v42.049h-43.435z"/><path fill="#d62d75" style="stroke-width:.85472" d="M240.371 25.824h43.435v42.049h-43.435z"/><path fill="#d9195c" style="stroke-width:.85472" d="M23.198 67.872h43.435v42.049H23.198z"/><path fill="#ee2178" style="stroke-width:.85472" d="M66.632 67.872h43.435v42.049H66.632z"/><path fill="#ee2178" style="stroke-width:.85472" d="M110.067 67.872h43.435v42.049h-43.435z"/><path fill="#d9195c" style="stroke-width:.85472" d="M153.502 67.872h43.435v42.049h-43.435z"/><path fill="#ee2178" style="stroke-width:.85472" d="M196.936 67.872h43.435v42.049h-43.435z"/><path fill="#f7b0cf" style="stroke-width:.85472" d="M240.371 67.872h43.435v42.049h-43.435z"/><path fill="#ad1d45" style="stroke-width:.85472" d="M283.805 67.872h43.435v42.049h-43.435z"/><path fill="#d62d75" style="stroke-width:.85472" d="M23.198 109.921h43.435v42.049H23.198z"/><path fill="#d9195c" style="stroke-width:.85472" d="M66.632 109.921h43.435v42.049H66.632z"/><path fill="#d9195c" style="stroke-width:.85472" d="M110.067 109.921h43.435v42.049h-43.435z"/><path fill="#ad1d45" style="stroke-width:.85472" d="M153.502 109.921h43.435v42.049h-43.435z"/><path fill="#d9195c" style="stroke-width:.85472" d="M196.936 109.921h43.435v42.049h-43.435z"/><path fill="#d62d75" style="stroke-width:.85472" d="M240.371 109.921h43.435v42.049h-43.435z"/><path fill="#ad1d45" style="stroke-width:.85472" d="M283.805 109.921h43.435v42.049h-43.435zM66.632 151.97h43.435v42.049H66.632z"/><path fill="#ee2178" style="stroke-width:.85472" d="M110.067 151.97h43.435v42.049h-43.435z"/><path fill="#d9195c" style="stroke-width:.85472" d="M153.502 151.97h43.435v42.049h-43.435z"/><path fill="#ee2178" style="stroke-width:.85472" d="M196.936 151.97h43.435v42.049h-43.435z"/><path fill="#d9195c" style="stroke-width:.85472" d="M240.371 151.97h43.435v42.049h-43.435zm-130.304 42.048h43.435v42.049h-43.435z"/><path fill="#d62d75" style="stroke-width:.85472" d="M153.502 194.018h43.435v42.049h-43.435z"/><path fill="#d9195c" style="stroke-width:.85472" d="M196.936 194.018h43.435v42.049h-43.435z"/><path fill="#ee2178" style="stroke-width:.85472" d="M153.502 236.067h43.435v42.049h-43.435z"/></svg>