<svg viewBox="0 0 32 32" width="16" height="16" xmlns="http://www.w3.org/2000/svg"><path fill="#474e55" d="M22.15 18.96q1.187-.583 2.498.27.801.52.708-.436-.073-.77.634-1.322.312-.25.708-.302c3.028-.426 2.07-7.138 2.04-9.292a2.248 2.258.7 0 0-2.165-2.227q-4.964-.198-10.344-.354-4.079-.115-4.12 3.788-.01.53.52.582c7.752.78 8.366-.624 8.595 8.138q.01.468.396.739l.385.28-.437.032q-.604.052-.5.645c.822 4.63-3.174 5.474-6.816 5.411-3.475-.052-5.733.916-8.148 3.205a.479.468 64.9 0 1-.79-.291l-.354-2.81a.718.708 9.2 0 0-.396-.54q-2.799-1.291-2.83-3.06C1.67 18.533.756 11.749 3.836 10.26c1.831-.895 4.755-.385 7.055-.531q.541-.031.354-.552c-1.249-3.298.936-4.963 4.017-5.213 4.568-.375 14.87-1.936 15.016 4.412.052 2.3.582 7.003-.843 8.887-.947 1.259-3.257 1.249-2.415 3.902a.75.75 0 0 1-.998.916q-2.259-.916-3.872-3.122ZM4.668 22.925q1.832.125 2.009 1.842.073.811.78.395 4.204-2.508 9.157-1.8a2.747 2.737 3.7 0 0 3.133-2.747l-.104-7.097a2.227 2.227 0 0 0-2.227-2.196H5.823a2.612 2.602 89.8 0 0-2.601 2.633l.094 7.523a1.457 1.457 0 0 0 1.352 1.447z"/><path fill="#c7d7e2" d="M22.15 18.96q-.072-.073-.145-.135l-.385-.281q-.385-.27-.396-.739c-.229-8.762-.843-7.357-8.595-8.138q-.53-.052-.52-.582.041-3.903 4.12-3.788 5.38.156 10.344.354a2.248 2.258.7 0 1 2.164 2.227c.032 2.154.99 8.866-2.04 9.292q-.395.052-.707.302-.707.552-.634 1.322.093.957-.708.437-1.311-.854-2.498-.271z"/><rect fill="#c7d7e2" x="6.543" y="14.835" transform="rotate(-.5)" width="9.761" height="1.082" rx=".489"/><ellipse fill="#c7d7e2" transform="rotate(3.6)" rx="2.258" ry=".666" cx="9.738" cy="18.124"/></svg>