<svg height="16" viewBox="0 0 512 512" width="16" xmlns="http://www.w3.org/2000/svg"><defs><filter style="color-interpolation-filters:sRGB" id="a" x="0" y="0" width="1" height="1"><feColorMatrix type="hueRotate" values="0"/><feColorMatrix type="saturate" values="1"/><feColorMatrix values="2 -1 0 0 0 0 2 -1 0 0 -1 0 2 0 0 0 0 0 1 0" result="fbSourceGraphic"/><feColorMatrix result="fbSourceGraphicAlpha" in="fbSourceGraphic" values="0 0 0 -1 0 0 0 0 -1 0 0 0 0 -1 0 0 0 0 1 0"/><feColorMatrix values="0.765625 0 0 0 0.234375 0 0.765625 0 0 0.234375 0 0 0.765625 0 0.234375 0 0 0 1 0" in="fbSourceGraphic"/></filter></defs><g fill="none" fill-rule="evenodd" style="filter:url(#a)"><path d="M479.45 272.915c-28.54 0-51.675-23.3-51.675-52.043 0-9.054 2.3-17.572 6.34-24.984a64.313 64.313 0 0 1-19.26 2.941c-35.668 0-64.588-29.127-64.588-65.048 0-1.33.12-2.628.2-3.934-6.867 2.5-14.234 3.934-21.951 3.934-35.667 0-64.587-29.126-64.587-65.056 0-7.396 1.297-14.463 3.564-21.073-3.835.833-7.805 1.306-11.894 1.306-21.147 0-39.55-11.875-48.977-29.36C99.732 42.469 19.52 138.053 19.52 252.524c0 131.538 105.879 238.172 236.484 238.172 124.29 0 226.11-96.602 235.673-219.302-3.93.953-8.011 1.522-12.228 1.522" fill="#b4814a"/><path d="M267.503 300.24c0 30.778-24.768 55.721-55.327 55.721-30.559 0-55.326-24.943-55.326-55.72 0-30.778 24.767-55.721 55.326-55.721 30.56 0 55.327 24.943 55.327 55.72" fill="#513a2b"/><path d="M212.179 256.537c-23.932 0-43.392 19.607-43.392 43.702 0 24.094 19.46 43.702 43.392 43.702 23.931 0 43.392-19.608 43.392-43.702 0-24.095-19.46-43.702-43.392-43.702m0 111.442c-37.083 0-67.26-30.384-67.26-67.74 0-37.356 30.177-67.74 67.26-67.74 37.083 0 67.26 30.384 67.26 67.74 0 37.356-30.177 67.74-67.26 67.74" fill="#2e2e30"/><path d="M19.548 253.503c6.667 5.369 15.005 8.71 24.202 8.71 21.529 0 38.977-17.58 38.977-39.262 0-21.683-17.448-39.255-38.977-39.255-5.323 0-10.39 1.09-15.013 3.037-5.959 20.905-9.213 42.956-9.213 65.793 0 .328.024.649.024.977m196.377-127.917c0 16.875-13.58 30.553-30.336 30.553-16.755 0-30.336-13.678-30.336-30.553 0-16.874 13.58-30.552 30.336-30.552 16.755 0 30.336 13.678 30.336 30.552" fill="#513a2b"/><path d="M185.591 107.053c-10.144 0-18.402 8.317-18.402 18.533 0 10.217 8.258 18.534 18.402 18.534 10.144 0 18.403-8.317 18.403-18.534 0-10.216-8.259-18.533-18.403-18.533m0 61.105c-23.31 0-42.27-19.094-42.27-42.572 0-23.477 18.96-42.572 42.27-42.572 23.312 0 42.263 19.095 42.263 42.572 0 23.478-18.951 42.572-42.263 42.572" fill="#2e2e30"/><path d="M407.438 333.167c0 16.875-13.58 30.553-30.336 30.553-16.755 0-30.336-13.678-30.336-30.553 0-16.874 13.58-30.552 30.336-30.552s30.336 13.678 30.336 30.552" fill="#513a2b"/><path d="M377.103 314.634c-10.144 0-18.402 8.317-18.402 18.533 0 10.217 8.258 18.534 18.402 18.534 10.144 0 18.402-8.317 18.402-18.534 0-10.216-8.258-18.533-18.402-18.533m0 61.105c-23.311 0-42.27-19.094-42.27-42.572 0-23.477 18.959-42.572 42.27-42.572 23.311 0 42.262 19.095 42.262 42.572 0 23.478-18.95 42.572-42.262 42.572" fill="#2e2e30"/><path d="M256.003 490.693c6.866 0 13.652-.345 20.375-.922.382-2.404.645-4.856.645-7.372 0-25.192-20.28-45.609-45.294-45.609-24.282 0-44.044 19.263-45.174 43.446 21.958 6.787 45.278 10.457 69.448 10.457" fill="#513a2b"/><path d="M479.45 272.915c-2.905 0-5.73-.296-8.498-.761-38.626 95.272-131.441 162.451-239.937 162.451-75.36 0-143.193-32.42-190.555-84.134 37.091 82.669 119.62 140.224 215.544 140.224 124.29 0 226.11-96.602 235.673-219.302-3.93.953-8.011 1.522-12.228 1.522" fill="#010202" opacity=".2"/><path d="M288.609 476.221c-3.071-28.878-27.393-51.45-56.878-51.45-25.276 0-46.757 16.499-54.267 39.6C98.269 434.49 40.19 360.805 32.402 272.753c3.707.873 7.478 1.474 11.353 1.474 28.069 0 50.91-22.997 50.91-51.274 0-27.316-21.33-49.64-48.078-51.13C72.388 104.508 129.29 51.407 201.11 33.218c12.03 16.466 30.821 26.715 51.284 27.684a78.01 78.01 0 0 0-.405 7.82c0 42.5 34.338 77.076 76.528 77.076a73.78 73.78 0 0 0 10.63-.77c5.513 37.757 38.268 66.483 77.483 65.802a63.278 63.278 0 0 0-.795 10.04c0 34.895 27.854 63.365 62.343 64.054-14.17 98.878-92.608 176.81-189.568 191.297m-32.612 2.452c-4.352 0-8.688-.16-13.008-.408-1.344-.08-2.665-.209-4.002-.305a226.9 226.9 0 0 1-9.03-.857 202.485 202.485 0 0 1-4.495-.577c-2.92-.4-5.816-.865-8.712-1.386-1.408-.249-2.816-.481-4.216-.754a226.817 226.817 0 0 1-10.582-2.38c-.58-.144-1.177-.256-1.766-.408 4.455-13.317 16.922-22.788 31.545-22.788 17.066 0 31.18 12.98 33.121 29.655-2.943.12-5.887.208-8.855.208M43.755 195.71c14.91 0 27.042 12.22 27.042 27.243 0 15.016-12.133 27.236-27.042 27.236-4.822 0-8.871-1.33-12.07-3.005.112-4.543.207-9.095.581-13.582.04-.457.112-.913.151-1.37a222.16 222.16 0 0 1 2.053-16.01c.175-1.065.35-2.14.533-3.205 1.01-5.665 2.188-11.274 3.612-16.803a26.87 26.87 0 0 1 5.14-.504m459.81 76.618a12.024 12.024 0 0 0-4.161-10.096 11.92 11.92 0 0 0-10.55-2.524c-3.206.785-6.373 1.186-9.404 1.186-21.919 0-39.748-17.949-39.748-40.024a40.237 40.237 0 0 1 4.877-19.199c2.339-4.295 1.861-9.6-1.226-13.39a11.886 11.886 0 0 0-12.785-3.87 52.35 52.35 0 0 1-15.713 2.404c-29.031 0-52.653-23.798-52.653-53.036 0-.721.056-1.435.104-2.14l.063-1.081a12.034 12.034 0 0 0-4.765-10.345 11.885 11.885 0 0 0-11.203-1.675c-5.863 2.14-11.878 3.222-17.885 3.222-29.031 0-52.66-23.79-52.66-53.037 0-5.745.978-11.515 2.92-17.147 1.4-4.103.5-8.662-2.356-11.908a11.898 11.898 0 0 0-11.472-3.766c-19.516 4.303-38.69-5.088-47.832-22.043-2.522-4.671-7.773-7.123-12.968-6.017-90.364 19.335-161.014 88.116-186.37 174.342-.167.409-.381.801-.509 1.226-.342 1.202-.573 2.428-.899 3.638-1.066 3.926-2.068 7.884-2.944 11.875-.35 1.602-.636 3.205-.954 4.815a244.36 244.36 0 0 0-2.005 11.379c-.183 1.226-.398 2.451-.565 3.677a249.506 249.506 0 0 0-1.536 14.712c-.095 1.162-.159 2.324-.23 3.486-.326 5.152-.541 10.32-.541 15.528 0 .096.016.858.024 1.034v.032C8.088 365.445 81.8 460.212 182.866 491.63c.063.024.119.072.183.096.724.225 1.472.369 2.196.585 4.391 1.322 8.839 2.5 13.326 3.574 1.408.336 2.816.68 4.224.985 5.267 1.162 10.582 2.204 15.96 3.021.51.08 1.01.12 1.52.193 4.94.72 9.937 1.266 14.965 1.69 1.408.112 2.8.225 4.209.32 5.474.361 10.987.618 16.548.618 3.549 0 7.137-.096 10.82-.265 2.706-.12 5.379-.328 8.06-.537.851-.064 1.655-.088 2.522-.168.032 0 .064-.016.095-.024 119.166-10.513 216.579-107.467 226.07-229.39" fill="#2e2e30"/></g></svg>