<svg xmlns="http://www.w3.org/2000/svg" width="16" viewBox="0 0 16 16" height="16"><path d="M13.362 4.436V2.45a.641.641 0 0 0-.512-.64L8.035.913h-.21L3.04 1.81a.64.64 0 0 0-.511.64c0 .737 0 1.41-.03 1.986 0 1.057-.03 1.825.03 2.305.271 3.042.873 4.42 1.896 5.924.813 1.185 2.016 2.018 3.37 2.306.03 0 .12.032.12.032l-.12-.032c.016-1.623-.131-5.247.258-7.209.704-.408 1.191-.661 5.249-.635.061-.48.061-1.634.061-2.691z" fill="#87939a"/><path fill="#499C54" d="m14.943 12.097.91.653a3.996 3.996 0 0 1-.835 1.445l-1.02-.46a2.95 2.95 0 0 1-1.006.582l-.111 1.114a4.016 4.016 0 0 1-1.67 0l-.111-1.114a2.95 2.95 0 0 1-1.006-.582l-1.02.46a3.996 3.996 0 0 1-.835-1.445l.91-.653a2.968 2.968 0 0 1 0-1.158l-.91-.653a3.996 3.996 0 0 1 .835-1.445l1.02.46A2.95 2.95 0 0 1 11.1 8.72l.11-1.114a4.016 4.016 0 0 1 1.67 0l.112 1.114a2.95 2.95 0 0 1 1.006.582l1.02-.46c.372.413.66.904.835 1.445l-.91.653a2.968 2.968 0 0 1 0 1.158zm-2.897.837a1.416 1.416 0 1 0 0-2.83 1.415 1.415 0 0 0 0 2.83z"/></svg>