<svg viewBox="0 0 16 16" height="16" width="16" xmlns="http://www.w3.org/2000/svg"><path fill="#589c00" d="M1.91 14.943V1.08a.561.62 0 0 1 .561-.62h10.996a.561.62 0 0 1 .561.62v13.863a.561.62 0 0 1-.56.62H2.47a.561.62 0 0 1-.56-.62ZM13.25 1.326a.005.005 0 0 0-.005-.005H2.694a.005.005 0 0 0-.004.005v9.644a.005.005 0 0 0 .005.005h10.55a.005.005 0 0 0 .004-.005zM5.713 13.565c-.104-.212-.096-.59.024-.783.147-.238.424-.258.652-.168q.094.037.183.085a.006.006 0 0 0 .008-.004l.135-.632q.002-.01-.006-.015c-.287-.199-.742-.204-1.048-.067-.55.246-.76.868-.682 1.492.103.817.743 1.147 1.428.996q.149-.032.277-.118a.013.011 85.945 0 0 .005-.013l-.101-.63a.009.01 0 0 0-.013-.006c-.275.166-.69.212-.862-.137Zm2.152.286c-.135.038-.375-.033-.507-.096-.055-.027-.116-.072-.175-.106q-.007-.004-.008.004l-.093.624q-.002.009.006.014c.197.146.481.208.71.212.48.009.88-.313.855-.883-.02-.465-.302-.635-.655-.807a.444.444 0 0 1-.13-.088c-.043-.058-.015-.147.04-.176q.033-.016.102-.015.254.008.466.163a.01.01 0 0 0 .015-.006l.15-.603a.01.012 0 0 0-.005-.013c-.344-.206-.896-.288-1.22.01-.273.252-.357.743-.125 1.072.138.197.32.283.538.385q.056.027.11.08c.081.08.016.204-.074.229zm2.112-.58q-.004 0-.005-.005l-.303-1.33q-.001-.008-.008-.008H8.94q-.01 0-.007.01l.651 2.558q.002.008.01.008h.682a.014.013 88.9 0 0 .012-.01l.684-2.557q.002-.009-.006-.009H10.3q-.007 0-.01.008-.151.638-.3 1.277-.008.031-.006.054 0 .003-.002.003z" style="stroke-width:.0155955"/><rect fill="#589c00" x="9.668" y="3.177" width="1.984" height="1.461" rx=".005" style="stroke-width:.0155955"/><path fill="#589c00" d="M6.28 6.799H5.111a.005.005 0 0 1-.003-.008l1.256-1.774a.005.005 0 0 0 0-.006L5.159 3.338a.005.005 0 0 1 .004-.008h1.213a.005.005 0 0 1 .003.002l.573.88a.005.005 0 0 0 .007 0l.604-.88a.005.005 0 0 1 .003-.002h1.171a.005.005 0 0 1 .004.008L7.557 4.973a.005.005 0 0 0 0 .006l1.289 1.812a.005.005 0 0 1-.004.008H7.624a.005.005 0 0 1-.004-.002L6.958 5.8a.005.005 0 0 0-.007 0l-.668.996a.005.005 0 0 1-.004.002z" style="stroke-width:.0155955"/><rect fill="#589c00" x="9.668" y="5.418" width="1.984" height="1.46" rx=".006" style="stroke-width:.0155955"/><rect fill="#589c00" x="4.288" y="7.658" width="1.983" height="1.46" rx=".007" style="stroke-width:.0155955"/><rect fill="#589c00" x="6.978" y="7.658" width="1.984" height="1.46" rx=".004" style="stroke-width:.0155955"/><rect fill="#589c00" x="9.668" y="7.658" width="1.984" height="1.46" rx=".005" style="stroke-width:.0155955"/></svg>