<svg width="16" height="16" viewBox="0 0 87.041 108.445" overflow="visible" xml:space="preserve" xmlns="http://www.w3.org/2000/svg"><g fill="#a80030"><path d="M51.56 57.143c-1.706.024.324.88 2.552 1.223a22.813 22.813 0 0 0 1.672-1.44c-1.388.34-2.8.348-4.223.217m9.162-2.283c1.017-1.404 1.758-2.94 2.02-4.528-.229 1.132-.843 2.11-1.422 3.142-3.191 2.009-.3-1.194-.002-2.41-3.431 4.318-.471 2.59-.596 3.796m3.382-8.801c.207-3.074-.605-2.103-.877-.93.318.166.57 2.168.877.93M45.087 4.04c.911.164 1.969.29 1.82.507.997-.219 1.223-.42-1.82-.507m1.82.507-.643.133.599-.054.045-.08"/><path d="M75.316 47.224c.102 2.761-.807 4.1-1.627 6.472l-1.475.737c-1.208 2.345.117 1.489-.748 3.354-1.885 1.675-5.72 5.244-6.947 5.57-.896-.02.607-1.058.803-1.465-2.523 1.733-2.024 2.602-5.883 3.654l-.113-.25c-9.517 4.477-22.737-4.396-22.563-16.503-.102.768-.29.577-.5.887-.491-6.229 2.876-12.486 8.557-15.04 5.555-2.75 12.068-1.622 16.048 2.087-2.186-2.863-6.537-5.899-11.694-5.615-5.05.08-9.776 3.29-11.353 6.775-2.588 1.63-2.888 6.28-4.016 7.132-1.517 11.15 2.854 15.967 10.248 21.634 1.164.785.328.903.485 1.5-2.456-1.15-4.706-2.886-6.556-5.012.982 1.436 2.041 2.833 3.41 3.93-2.316-.785-5.41-5.613-6.314-5.81 3.993 7.15 16.2 12.538 22.591 9.864-2.957.11-6.714.061-10.037-1.167-1.396-.718-3.294-2.206-2.955-2.484 8.723 3.258 17.734 2.468 25.281-3.583 1.92-1.495 4.018-4.04 4.624-4.074-.913 1.372.156.66-.545 1.872 1.913-3.085-.831-1.256 1.978-5.328l1.037 1.428c-.386-2.56 3.18-5.671 2.819-9.722.818-1.239.913 1.333.044 4.183 1.205-3.162.318-3.67.627-6.279.335.877.774 1.81.999 2.734-.785-3.055.805-5.145 1.199-6.92-.388-.172-1.212 1.35-1.4-2.258.028-1.568.436-.822.594-1.208-.308-.177-1.115-1.378-1.606-3.683.356-.542.952 1.404 1.436 1.484-.312-1.833-.848-3.23-.87-4.636-1.416-2.958-.5.394-1.65-1.27-1.506-4.7 1.25-1.09 1.437-3.226 2.284 3.308 3.586 8.436 4.184 10.56-.456-2.589-1.193-5.098-2.093-7.525.694.291-1.117-5.329.902-1.607-2.157-7.934-9.23-15.348-15.736-18.827.796.729 1.801 1.644 1.44 1.787-3.236-1.926-2.667-2.077-3.13-2.89-2.637-1.073-2.81.086-4.556.001-4.968-2.635-5.926-2.355-10.498-4.006l.208.972c-3.292-1.096-3.835.416-7.393.004-.216-.17 1.14-.612 2.256-.775-3.182.42-3.033-.627-6.147.116.768-.538 1.579-.895 2.398-1.352-2.596.157-6.196 1.51-5.085.28-4.233 1.888-11.751 4.54-15.97 8.496l-.133-.887c-1.933 2.321-8.43 6.932-8.948 9.937l-.517.121c-1.006 1.703-1.657 3.634-2.455 5.386-1.315 2.242-1.928.863-1.741 1.215-2.588 5.246-3.873 9.655-4.984 13.271.792 1.183.02 7.12.318 11.872-1.3 23.469 16.472 46.256 35.896 51.517 2.847 1.018 7.082.98 10.683 1.084-4.25-1.215-4.798-.644-8.938-2.087-2.985-1.406-3.64-3.012-5.755-4.847l.837 1.479c-4.147-1.468-2.412-1.817-5.786-2.885l.894-1.168c-1.345-.101-3.56-2.266-4.167-3.464l-1.47.058c-1.768-2.18-2.709-3.751-2.64-4.968l-.476.846c-.538-.924-6.5-8.176-3.407-6.488-.575-.525-1.339-.855-2.167-2.36l.63-.72c-1.489-1.915-2.74-4.37-2.645-5.188.794 1.073 1.345 1.273 1.89 1.456-3.759-9.327-3.97-.514-6.817-9.494l.602-.048c-.461-.696-.742-1.451-1.113-2.192l.262-2.613c-2.706-3.129-.757-13.305-.366-18.886.27-2.27 2.259-4.686 3.771-8.474l-.921-.16c1.76-3.071 10.056-12.338 13.898-11.86 1.861-2.339-.37-.01-.733-.598 4.087-4.23 5.373-2.99 8.132-3.75 2.975-1.766-2.554.689-1.143-.674 5.143-1.313 3.645-2.986 10.355-3.653.708.403-1.643.622-2.233 1.144 4.286-2.096 13.562-1.62 19.586 1.164 6.991 3.267 14.846 12.925 15.156 22.012l.352.095c-.178 3.612.553 7.789-.714 11.626l.862-1.817"/><path d="m32.927 59.487-.239 1.197c1.122 1.524 2.012 3.175 3.445 4.366-1.031-2.012-1.797-2.843-3.206-5.563m2.653-.104c-.594-.657-.945-1.447-1.339-2.235.376 1.384 1.147 2.574 1.864 3.783l-.525-1.548M82.514 49.18l-.251.63a30.361 30.361 0 0 1-2.975 9.494 29.83 29.83 0 0 0 3.226-10.124M45.424 3.22c1.155-.422 2.838-.231 4.063-.51-1.596.134-3.185.214-4.753.416l.69.094M4.903 24.77c.266 2.463-1.852 3.418.47 1.795 1.244-2.804-.487-.774-.47-1.795M2.174 36.165c.535-1.641.632-2.627.836-3.577-1.478 1.89-.68 2.292-.836 3.577"/></g></svg>