<svg width="16" height="16" viewBox="0 0 512 512" xmlns="http://www.w3.org/2000/svg"><path fill-opacity=".95" d="M256.45 21.973a236.104 236.104 0 1 1 0 472.208 236.104 236.104 0 0 1 0-472.208z" style="stroke-width:.0922282"/><path fill="#fff" d="M247.227 155.612c-68.617 0-122.11 43.254-122.11 97.023 0 50.726 49.158 83.098 125.338 81.53l2.306-.092 8.393-.277-2.122 5.534.277.553a61.608 61.608 0 0 1 1.66 4.335l.185.553.276.923.37 1.29.276.83.369.923.277 1.015.368 1.475.462 1.568.276 1.015.461 1.66.461 1.752.37 1.752.46 1.845.37 1.291.46 2.03.462 2.028.645 2.767.277 1.476.461 2.213.461 2.306.554 2.398.645 3.412.554 2.767.737 3.874.37 1.936.645 3.044.553 3.136.738 4.242.83 4.427.738 4.612.83 4.703.83 4.796.83 4.98.83 5.165.646 3.966 1.014 6.733.462 2.766 1.106 7.102.83 5.81.738 4.427.83 6.087.461 3.044c50.633-6.733 95.64-31.265 128.474-67.142l1.015-1.107-4.704-17.523-12.45-46.575-7.748-28.96-6.825-25.455-4.242-15.494-2.675-9.776-1.568-5.903-1.475-5.165-.554-2.213-.369-1.2-.184-.645-.185-.553c-7.194-23.15-21.12-43.624-40.119-58.473-22.32-17.43-50.633-26.561-83.65-26.561zM186.91 401.768c-5.995-1.66-12.266 1.845-14.019 7.84l-.092.276-10.33 38.367a210.926 210.926 0 0 0 19.83 8.577l1.567.646 11.16-41.595.092-.277c1.476-6.087-2.12-12.266-8.208-13.834zm64.283-28.13c-6.087-1.66-12.359 1.845-14.111 7.84l-.092.277-15.679 58.103v.277a11.529 11.529 0 0 0 22.227 5.995l.092-.277 15.679-58.104v-.276l.277-1.291.092-.461-.369-1.937-.553-2.675-.369-1.66a11.529 11.529 0 0 0-7.194-5.81zm-109.29-59.855-.738 1.752-.092.369-15.68 58.103-.092.277a11.529 11.529 0 0 0 22.228 6.087l.092-.276 14.203-52.755c-7.378-3.873-14.11-8.485-19.921-13.557zm-37.353-66.866c-6.087-1.568-12.358 1.937-14.11 7.84l-.093.276-15.679 58.104v.277a11.529 11.529 0 0 0 22.227 6.087l.092-.277 15.68-58.104v-.276c1.475-6.087-2.122-12.267-8.117-13.927zm351.482-13.188c-5.995-1.568-12.267 1.936-14.02 7.839l-.091.277-15.68 58.103-.091.277a11.567 11.567 0 0 0 22.319 6.087v-.276l15.77-58.104v-.37c1.477-5.994-2.12-12.173-8.207-13.833zM70.334 156.165a210.649 210.649 0 0 0-24.625 77.287 11.436 11.436 0 0 0 5.718 3.505c5.995 1.568 12.266-1.937 14.019-7.84l.092-.276 15.679-58.104.092-.277c1.475-6.087-2.121-12.266-8.209-13.926a11.713 11.713 0 0 0-2.766-.37zm346.04.369c-6.088-1.568-12.267 1.937-14.111 7.84v.276l-15.68 58.104-.091.276a11.529 11.529 0 0 0 22.227 6.087l.092-.276 15.679-58.104.092-.277c1.476-6.087-2.213-12.266-8.208-13.926z" style="stroke-width:.0922282"/><path fill-opacity=".95" d="M261.984 194.44a14.757 14.757 0 1 1 0 29.512 14.757 14.757 0 0 1 0-29.513z" style="stroke-width:.0922282"/><path fill="#fff" d="M138.582 101.29c-5.994-1.569-12.266 1.936-14.018 7.839l-.092.276-15.68 58.104-.091.277a11.529 11.529 0 0 0 22.227 6.087l.092-.277 15.679-58.104.092-.369c1.476-5.995-2.121-12.174-8.208-13.834zm201.519 10.974c-6.087-1.568-12.359 1.937-14.111 7.84l-.092.276-10.514 39.105a129.027 129.027 0 0 1 19.46 11.805l1.014.83 12.359-45.653v-.276c1.476-6.087-2.121-12.267-8.116-13.927zM237.543 46.782a212.032 212.032 0 0 0-21.95 3.136l-1.568.277-14.572 54.138-.092.276a11.529 11.529 0 0 0 22.227 5.995l.092-.277 15.679-58.103.092-.277a11.436 11.436 0 0 0 .092-5.165zm144.245 40.12-3.044 11.436-.092.277a11.529 11.529 0 0 0 22.227 5.994l.092-.276.37-1.2a213.231 213.231 0 0 0-18.17-15.217Zm-91.214-38.183-5.533 20.567-.093.277a11.529 11.529 0 0 0 22.227 5.994l.093-.276 5.81-21.674a210.833 210.833 0 0 0-20.843-4.611z" style="stroke-width:.0922282"/></svg>