<svg viewBox="0 0 24 24" width="16" height="16" xmlns="http://www.w3.org/2000/svg"><path d="M13.19 6.04v1.2H3.66c-.654 0-1.18.536-1.18 1.18v4.77h-.804a.403.403 0 0 0-.396.397v3.967c0 .225.182.407.396.407h.794v2.38c0 .655.536 1.18 1.19 1.18h16.68c.654 0 1.18-.525 1.18-1.18v-2.38h.804a.403.403 0 0 0 .396-.396v-3.967a.405.405 0 0 0-.396-.408h-.794V8.43c0-.665-.536-1.19-1.19-1.19h-5.96V2.866a.396.396 0 0 0-.398-.397h-2.787a.394.394 0 0 0-.386.397v2.787c0 .215.171.386.397.386zm5.221 8.083-2.498 2.498a.482.482 0 0 1-.675 0l-1.501-1.5a.482.482 0 0 1 0-.676l.504-.515a.482.482 0 0 1 .675 0l.654.643 1.651-1.64a.482.482 0 0 1 .676 0l.514.515a.486.486 0 0 1 0 .675zM7.97 16.621a.482.482 0 0 1-.676 0l-1.5-1.5a.482.482 0 0 1 0-.676l.503-.515a.482.482 0 0 1 .686 0l.644.643 1.65-1.64a.482.482 0 0 1 .676 0l.515.515a.466.466 0 0 1 0 .675z" fill="#448aff"/></svg>