<svg width="16" height="16" viewBox="0 0 16 16" xmlns="http://www.w3.org/2000/svg"><path fill="#333" d="m10.45 3.96-4.687.074a.454.407 0 0 1-.443-.526l.759-2.218a.454.407 0 0 1 .415-.288l3.197-.11a.454.407 0 0 1 .455.293l.731 2.253a.454.407 0 0 1-.426.521z" style="stroke-width:.524341"/><rect fill="#333" x="3.054" y="4.267" width="9.995" height=".764" rx=".41" style="stroke-width:.524341"/><path fill="#00a2f1" d="m6.278 7.532-1.174-.338a.615.55 0 0 1-.36-.278l-.377-.664a.615.55 0 0 1 .565-.8l2.521.055a.615.55 0 0 1 .438.923l-.975.948a.615.55 0 0 1-.638.154Zm5.392-2.01a.233.208 0 0 1 .232.209l-.005.064A1.623 1.79 89.975 0 1 10.1 7.413h-.088a1.623 1.79 89.975 0 1-1.784-1.628l.005-.064a.233.208 0 0 1 .233-.209Z" style="stroke-width:.524341"/><path fill="#333" d="M7.68 10.211a.925.829 0 0 0 1.369-.283q.775-1.334 2.1-2.178a.565.506 0 0 1 .88.526l-.149.58q-.06.234.155.373 2.554 1.652 2.2 4.525a.864.779.317 0 1-.604.65q-5.175 1.4-10.539.144-1.102-.258-1.158-1.037-.205-2.794 2.322-4.272a.344.308 0 0 0 .133-.372l-.355-.824q-.133-.313.239-.323C6.14 7.65 6.45 9.407 7.68 10.211z" style="stroke-width:.524341"/></svg>