<svg xmlns="http://www.w3.org/2000/svg" width="16" height="16" viewBox="0 0 24 24"><path fill="#fd73b1" d="M2.2 9.76h2.24v2.449H2.2v-2.45m2.75 0H7.2v2.45H4.95v-2.45m0-3.145H7.2v2.449H4.95V6.614m2.76 3.145h2.24v2.45H7.71v-2.45m0-3.145h2.24v2.449H7.71V6.614m2.75 3.145h2.25v2.45h-2.25v-2.45m0-3.145h2.25v2.449h-2.25V6.614m2.76 3.145h2.24v2.45h-2.24v-2.45m-2.76-6.29h2.25v2.448h-2.25V3.468m-5.13 12.28c.35 0 .63.303.63.684 0 .371-.28.686-.63.686-.33 0-.62-.315-.62-.686 0-.381.29-.685.62-.685m17.36-4.718.31.19-.16.35c-.64 1.358-1.97 1.774-3.27 1.707-1.95 5.291-6.2 7.807-11.34 7.807-2.66 0-5.1-1.09-6.49-3.662l-.02-.045-.22-.45A6.33 7.111 0 0 1 1 13.31l.03-.37H15.8c.53 0 1.07-.101 1.56-.281l.76-.382c-.31-.45-.48-1.022-.52-1.584-.07-.764.07-1.786.55-2.348l.24-.315.28.248c.71.629 1.3 1.494 1.41 2.482.85-.27 1.86-.213 2.61.27M5.34 17.724c.66 0 1.16-.584 1.16-1.292 0-.718-.5-1.303-1.17-1.303-.65 0-1.18.585-1.18 1.303 0 .72.53 1.292 1.19 1.292z"/></svg>