<svg xmlns="http://www.w3.org/2000/svg" width="16" height="16" viewBox="0 0 400 400"><g fill-rule="evenodd"><path d="M292.093 76c0 .77.082 1.085.183.7.1-.385.1-1.015 0-1.4-.101-.385-.183-.07-.183.7M177 215.985c-5.807.478-14.389 5.649-16.2 9.761-.11.25-.717 1.25-1.348 2.223-6.029 9.285-3.039 22.134 6.269 26.939 1.364.704 2.569 1.388 2.679 1.521 1.63 1.965 15.909 1.767 19.6-.271.55-.304 1.45-.741 2-.972 3.617-1.519 9.659-7.813 9.043-9.419-.221-.576-.409-.537-1.547.317-10.074 7.56-26.992-2.795-22.929-14.034.348-.963.633-2.257.633-2.877 0-.619.157-1.223.349-1.342.192-.118.825-1.188 1.407-2.376 1.271-2.599 4.789-6.371 6.678-7.16 1.292-.54 2.664-1.752 2.323-2.053-.38-.334-6.039-.497-8.957-.257M0 223.8c0 .33.18.6.4.6.22 0 .4-.27.4-.6 0-.33-.18-.6-.4-.6-.22 0-.4.27-.4.6m139 34.439c-1.54.789-2.98 1.582-3.2 1.762-.22.18-1.075.454-1.9.608-.825.154-1.5.428-1.5.609 0 .18-.405.44-.9.576-1.088.299-4.518 1.704-5.9 2.417-.55.284-1.72.649-2.6.813-.88.163-1.96.526-2.4.807-.44.28-1.477.634-2.304.785-.828.151-1.597.424-1.71.606-.112.183-1.055.447-2.095.589-1.04.141-2.791.583-3.891.981-2.719.985-5.004 1.544-8.835 2.16-1.779.286-3.439.646-3.688.801-.389.24-4.452.838-8.677 1.277-.66.068-2.46.311-4 .539-2.933.434-24.87.614-27.866.228-4.45-.572-10.724-1.493-12.534-1.84l-4.847-.927c-1.565-.3-3.185-.719-3.6-.931-.414-.213-1.383-.502-2.153-.644-.77-.142-2.03-.551-2.8-.91-2.931-1.366-3.836-1.725-5-1.985-.66-.147-1.47-.499-1.8-.783-.33-.283-1.088-.636-1.684-.785-.596-.149-1.293-.523-1.549-.831-.256-.309-.884-.561-1.395-.561-1.121 0-.927.828 1.272 5.449.746 1.567 1.356 3.069 1.356 3.337 0 .268.36.945.8 1.505.44.559.8 1.263.8 1.563 0 .3.177.546.392.546.216 0 .51.495.654 1.1.144.605.536 1.416.872 1.803.632.727 1.278 1.771 2.163 3.497.282.55.652 1.18.821 1.4.169.22.843 1.12 1.498 2a74.2 74.2 0 0 0 1.595 2.083c.223.266.405.595.405.732 0 .768 6.836 8.594 10.758 12.317 2.696 2.558 3.314 3.113 5.87 5.267 1.305 1.1 2.432 2.135 2.505 2.3.074.166.332.301.575.301.242 0 .812.338 1.266.751 1.229 1.117 8.095 5.649 8.558 5.649.221 0 .461.16.535.355.167.448 12.65 6.845 13.356 6.845.286 0 .759.24 1.052.533.293.292 1.071.664 1.729.826.658.161 2.31.816 3.672 1.455 1.362.639 3.342 1.374 4.4 1.632 1.058.258 2.104.603 2.324.766.22.162 1.03.424 1.8.581.77.157 1.764.515 2.21.796.445.281 1.795.644 3 .806 1.204.162 2.415.477 2.69.699.276.222 1.716.639 3.2.925 1.485.286 3.6.727 4.7.98l4.4 1.015c1.32.305 4.099.761 6.175 1.014 2.077.253 4.057.617 4.4.809.344.193 3.055.522 6.025.733 2.97.211 6.39.561 7.6.778 3.752.671 28.379.549 32.77-.163 2.073-.336 6.041-.759 8.818-.94 2.777-.181 5.411-.523 5.853-.76.443-.237 2.371-.558 4.285-.713 4.152-.337 4.132-.899-.074-2.173-1.459-.441-3.282-1.058-4.052-1.369-.77-.311-3.098-1.241-5.174-2.066-3.978-1.58-4.141-1.669-9.826-5.368-9.076-5.904-16.656-15.889-20.342-26.796-.557-1.65-1.293-3.669-1.636-4.487-.342-.818-.622-1.961-.622-2.54s-.259-1.619-.576-2.313c-1.454-3.183-3.343-20.622-2.905-26.824.133-1.89.116-3.435-.038-3.434-.155.001-1.541.648-3.081 1.437" fill="#d7e6fb"/><path d="M313.475 54.7c-4.285 4.515-9.875 13.183-9.875 15.315 0 .378-.256.899-.569 1.159-.313.26-.694 1.227-.847 2.149-.153.922-.572 2.217-.931 2.877-.54.992-.649 2.484-.631 8.6.023 7.681.209 8.761 2.383 13.8 1.12 2.598 1.47 3.299 2.993 6 .869 1.54 1.748 3.172 1.953 3.626.205.455.844 1.521 1.42 2.369.903 1.331 2.84 5.114 3.587 7.005.13.33.398.87.596 1.2 1.899 3.175 2.929 17.314 1.401 19.239-.245.309-.572 1.09-.727 1.737-.155.647-.783 1.817-1.397 2.6-.613.783-1.348 1.874-1.632 2.424-.283.55-.76 1.144-1.057 1.32-.298.176-.542.517-.542.759 0 .525-4.443 5.101-4.964 5.113-.201.004-.841.541-1.423 1.193-1.09 1.221-3.8 3.215-4.37 3.215-.176 0-.736.36-1.243.8-.507.44-1.181.8-1.498.8-.317 0-1.033.36-1.593.8-.559.44-1.331.8-1.714.8s-.912.258-1.174.574c-.262.316-1.004.69-1.649.832-.644.142-1.172.395-1.172.562 0 .168-1.305.798-2.9 1.401-1.595.602-3.41 1.351-4.032 1.663-.623.312-1.343.569-1.6.57-.258.002-1.008.292-1.668.646-1.108.593-1.971.861-7 2.174-.99.259-2.375.712-3.079 1.007-.703.296-2.233.652-3.4.791-1.166.139-2.661.488-3.321.776-.66.287-2.73.651-4.6.808-1.87.156-3.614.457-3.874.668-.383.309-3.766.74-8.526 1.085-.33.024-1.68.232-3 .463s-4.74.573-7.6.761c-2.86.188-6.64.472-8.4.631-5.73.519-43.991.436-48.6-.105-2.31-.272-6.72-.577-9.8-.679-3.08-.102-7.58-.375-10-.607-2.42-.232-7.19-.604-10.6-.827-3.41-.222-7.28-.6-8.6-.838-2.278-.412-12.296-1.197-14.747-1.155-.631.01-1.354-.153-1.608-.363-.253-.211-2.707-.476-5.453-.589-2.745-.114-6.792-.406-8.992-.649-9.068-1.003-10.745-1.158-10.977-1.014-.133.082-2.848-.181-6.033-.584-3.184-.404-9.39-.86-13.79-1.013-9.641-.336-10.54-.396-10.874-.729-.363-.364-33.925-.327-34.289.037-.164.163-1.949.355-3.967.427-2.019.072-4.66.173-5.87.226-1.21.052-4.121.13-6.468.172l-4.268.078-.281 2.7c-.154 1.485-.433 2.892-.619 3.126-.187.235-.525 2.035-.751 4-.226 1.966-.584 5.062-.795 6.88-.524 4.506-.605 30.596-.099 31.55.217.409.524 2.904.681 5.544.157 2.64.453 5.61.659 6.6.205.99.542 3.42.748 5.4.206 1.98.645 4.23.975 5 .33.77.774 2.57.987 4 .451 3.031 1.708 7.849 2.37 9.087.254.473.462 1.277.462 1.787.004 2.253 7.279 7.535 10.368 7.527.312 0 .852.231 1.2.514.347.283 1.891.91 3.431 1.392 1.54.483 3.926 1.241 5.302 1.686 1.375.444 3.085.808 3.8.809.714.002 1.8.265 2.414.585.614.321 2.504.695 4.2.831 1.696.137 4.074.531 5.284.876 2.917.831 32.573.954 37 .154 1.54-.279 4.42-.742 6.4-1.03 1.98-.288 4.05-.7 4.6-.917.55-.217 2.032-.521 3.294-.675 1.261-.155 2.389-.437 2.506-.626.117-.189 1.245-.47 2.506-.623 1.262-.153 2.77-.521 3.352-.817.582-.295 1.842-.659 2.8-.808.958-.148 2.097-.514 2.531-.811.434-.298 1.154-.547 1.6-.555.446-.007 1.531-.361 2.411-.786.88-.425 1.96-.785 2.4-.8.44-.015 1.52-.375 2.4-.8.88-.425 1.802-.779 2.049-.786.529-.016 3.891-1.404 5.413-2.235.584-.318 1.306-.579 1.606-.579.299 0 1.216-.36 2.036-.8.821-.44 1.832-.8 2.246-.8.413 0 .976-.27 1.25-.6.72-.868 1.311-.746 2.525.522 1.409 1.47 1.4 2.965-.025 4.046-.605.459-.793.727-.417.597.622-.216.661.075.438 3.235-.44 6.234 1.444 23.667 2.903 26.86.317.694.576 1.734.576 2.313 0 .579.28 1.722.622 2.54.343.818 1.079 2.837 1.636 4.487 3.686 10.907 11.266 20.892 20.342 26.796 5.685 3.699 5.848 3.788 9.826 5.368 2.076.825 4.404 1.755 5.174 2.066.77.311 2.593.928 4.052 1.369 1.459.442 2.87 1.066 3.137 1.387.41.495.616.502 1.348.047.475-.296 2.089-.644 3.587-.773 2.568-.221 5.476-.915 8.683-2.072.774-.279 2.441-.636 3.705-.794 1.264-.158 2.389-.434 2.5-.614.111-.179 1.196-.532 2.41-.785 1.214-.252 2.696-.713 3.293-1.024.597-.311 1.499-.567 2.006-.569.506-.001 1.586-.342 2.4-.758 1.734-.887 3.651-1.568 5.879-2.089.88-.205 2.14-.621 2.8-.923 1.442-.66 4.337-1.814 7.6-3.03 1.32-.491 4.397-1.863 6.837-3.048 2.44-1.185 4.695-2.154 5.011-2.154.316 0 .95-.263 1.408-.584.459-.322 2.434-1.419 4.389-2.438 1.955-1.019 4.275-2.279 5.155-2.801.88-.521 2.05-1.181 2.6-1.467.55-.286 1.761-1.012 2.692-1.615.931-.602 1.848-1.095 2.038-1.095.19 0 .672-.36 1.07-.8.398-.44.959-.8 1.246-.8.288 0 .845-.338 1.238-.75.394-.413 1.165-.889 1.714-1.059.55-.169 1.18-.539 1.4-.823.221-.283 1.254-.961 2.295-1.506 1.042-.545 2.147-1.232 2.456-1.527.309-.294 1.064-.895 1.676-1.335 1.377-.988 4.096-3.36 4.931-4.3.342-.385.792-.7.999-.7.547 0 .925-.355 8.77-8.239 8.447-8.488 8.675-8.731 8.675-9.239 0-.216.63-.967 1.4-1.667.77-.701 1.4-1.422 1.4-1.603 0-.181.315-.719.7-1.195.385-.475 1.06-1.322 1.5-1.881a104.44 104.44 0 0 1 1.5-1.857c.385-.463.7-1.075.7-1.36 0-.285.584-1.383 1.298-2.439 1.441-2.132 2.059-3.2 3.888-6.72.686-1.32 1.403-2.67 1.595-3 1.159-2.003 3.657-7.698 3.878-8.843.144-.746.505-1.712.802-2.146.296-.434.539-1.159.539-1.611 0-.452.246-1.177.546-1.611.3-.434.678-1.869.839-3.189.16-1.32.463-2.608.672-2.863.417-.509 1.187-4.218 1.167-5.625-.007-.489.188-1.389.435-2 .246-.612.587-3.182.757-5.712.169-2.53.589-6.58.932-9 .342-2.42.608-5.03.589-5.8-.032-1.31-.128-35.206-.134-47.233-.002-4.229.143-5.736.656-6.8.362-.752 1.143-2.627 1.735-4.167.957-2.488 5.14-9 5.782-9 .136 0 .872-.59 1.636-1.311 2.361-2.231 5.477-4.689 5.944-4.689.244 0 .444-.184.444-.41 0-.225.405-.595.9-.82.495-.226 1.62-.845 2.5-1.375.88-.53 2.14-1.266 2.8-1.635.66-.369 1.29-.782 1.4-.916.559-.682 2.852-2.044 3.442-2.044.372 0 1.594-.609 2.717-1.353 1.122-.744 3.121-1.931 4.441-2.637 1.32-.707 2.94-1.624 3.6-2.038 1.757-1.102 3.821-2.255 5.3-2.962.715-.341 1.3-.784 1.3-.984 0-.199.528-.478 1.172-.62.645-.142 1.387-.516 1.649-.832.262-.316.682-.574.932-.574s.679-.36.954-.8c.275-.44.737-.8 1.027-.8.289 0 .963-.472 1.496-1.048.534-.576 1.604-1.453 2.38-1.948 3.316-2.117 8.128-7.77 10.05-11.804 2.231-4.683 3.781-12.069 2.625-12.512-1.14-.438-19.243-.086-20.339.395-.58.254-2.713.648-4.74.874-2.028.226-3.921.607-4.209.846-.288.238-1.395.591-2.46.784-1.065.193-3.197.828-4.737 1.411-1.54.583-3.43 1.245-4.2 1.472-.77.227-1.58.55-1.8.717-.22.167-2.02 1.163-4 2.213-6.373 3.381-13.8 10.313-13.8 12.88 0 .232-.248.628-.552.88-.303.252-.654.969-.779 1.593-.361 1.809-2.216 3.789-2.966 3.167-.527-.438-.57-1.94-.334-11.512.265-10.713-.126-19.947-.885-20.946-.194-.254-.571-1.483-.84-2.731-.268-1.248-.748-2.485-1.066-2.749-.318-.264-.578-.808-.578-1.21 0-.914-1.916-4.539-3.685-6.972-2.642-3.634-4.787-5.987-8.015-8.792-.866-.753-.82-.755-1.625.092m-150.77 40.783c.497.096 1.217.092 1.6-.008.382-.1-.025-.179-.905-.174-.88.004-1.193.086-.695.182m39.009 1.917c.003 1.1.081 1.503.173.895.092-.609.09-1.509-.005-2-.095-.492-.171.005-.168 1.105m-72.413 6c.004.88.086 1.193.182.695.096-.497.092-1.217-.008-1.6-.1-.382-.179.025-.174.905m72.83 4c.002 1.54.074 2.121.161 1.291.087-.83.085-2.09-.003-2.8-.089-.71-.16-.031-.158 1.509m-72.83 7.6c.004.88.086 1.193.182.695.096-.497.092-1.217-.008-1.6-.1-.382-.179.025-.174.905m63.806 5.29c.719.089 1.799.087 2.4-.004s.013-.164-1.307-.162c-1.32.002-1.812.077-1.093.166m-7.402.397c.609.092 1.509.09 2-.005.492-.095-.005-.171-1.105-.168-1.1.003-1.503.081-.895.173m-35.4 2.396c.497.096 1.217.092 1.6-.008.382-.1-.025-.179-.905-.174-.88.004-1.193.086-.695.182m-10.205 1.193c.385.1 1.015.1 1.4 0 .385-.101.07-.183-.7-.183s-1.085.082-.7.183m-9.789.417c.94.085 2.38.084 3.2-.002.819-.086.049-.155-1.711-.154-1.76.002-2.43.072-1.489.156M165 128.81c-.534.237-.202.276 1 .117.99-.131 1.875-.303 1.967-.383.347-.301-2.203-.072-2.967.266m-8.709 1.079c.71.088 1.97.09 2.8.003.83-.087.249-.159-1.291-.161-1.54-.002-2.219.069-1.509.158m-5.491.511c-.824.264-.859.326-.2.354.44.019 1.07-.141 1.4-.354.701-.453.214-.453-1.2 0m-16.095 1.483c.497.096 1.217.092 1.6-.008.382-.1-.025-.179-.905-.174-.88.004-1.193.086-.695.182m38.235 2.917c0 1.87.069 2.635.153 1.7.084-.935.084-2.465 0-3.4s-.153-.17-.153 1.7m-44.44-2.124c.385.1 1.015.1 1.4 0 .385-.101.07-.183-.7-.183s-1.085.082-.7.183m-27.789 1.617c.94.085 2.38.084 3.2-.002.819-.086.049-.155-1.711-.154-1.76.002-2.43.072-1.489.156M89.314 148.6c.003 1.1.081 1.503.173.895.092-.609.09-1.509-.005-2-.095-.492-.171.005-.168 1.105m83.995 7.4c0 .99.078 1.395.173.9a5.661 5.661 0 0 0 0-1.8c-.095-.495-.173-.09-.173.9m-68.204 4.283c.497.096 1.217.092 1.6-.008.382-.1-.025-.179-.905-.174-.88.004-1.193.086-.695.182m7.4.404c.609.092 1.509.09 2-.005.492-.095-.005-.171-1.105-.168-1.1.003-1.503.081-.895.173m3.495.495c.33.223.945.409 1.367.412 1.023.008.704-.221-.767-.55-.876-.196-1.038-.159-.6.138m8.5.705a8.899 8.899 0 0 0 2.2 0c.605-.092.11-.167-1.1-.167-1.21 0-1.705.075-1.1.167m23.133 1.857c.092.079 1.067.247 2.167.374 1.287.149 1.715.108 1.2-.115-.764-.331-3.714-.558-3.367-.259m21.567 1.614c0 .087.705.225 1.566.307.862.083 1.481.011 1.377-.158-.19-.307-2.943-.447-2.943-.149m17.892 47.608c.829.311 2.048.681 2.708.821 5.205 1.107 15.8 9.79 15.8 12.948 0 .163.36 1.002.8 1.865.44.863.803 1.846.806 2.185.003.338.265 1.335.582 2.215.772 2.142.779 8.457.012 9.8-.314.55-.578 1.401-.586 1.89-.013.858-3.036 7.024-4.097 8.357-1.438 1.808-5.462 5.516-6.517 6.007-.66.307-1.56.776-2 1.043-2.349 1.424-3.014 1.742-5.4 2.583-1.43.504-2.99.917-3.468.918-.477.001-1.963.283-3.303.626-1.965.503-2.994.544-5.332.212-5.704-.809-7.721-1.199-9.297-1.795-.88-.333-1.827-.614-2.104-.623-.277-.01-1.401-.648-2.496-1.418-1.095-.77-2.158-1.4-2.36-1.4-.362 0-3.861-3.378-5.44-5.251-.824-.977-1.973-3.208-3.263-6.336-1.072-2.599-1.066-11.852.01-14.426 1.396-3.34 2.747-5.987 3.057-5.987.17 0 .411-.405.536-.9.125-.495 1.45-2.114 2.944-3.597 2.47-2.453 3.476-3.292 6.116-5.103.481-.33 1.433-1.005 2.115-1.5.682-.495 1.453-.9 1.714-.9.26 0 .685-.256.945-.569.26-.313 1.196-.691 2.082-.84.885-.15 2.09-.523 2.677-.829 1.487-.776 10.688-.773 12.759.004" fill="#fd73b1"/><path d="M309.6 49.06c0 .354-.945 1.571-2.1 2.706-1.155 1.135-2.298 2.416-2.541 2.848-.242.432-.827.844-1.3.914-.472.07-.859.388-.859.705 0 .318-.167.89-.371 1.272a9.616 9.616 0 0 0-.587 1.395c-.132.425-.614.7-1.229.7-1.15 0-1.147-.005-.635 1.343.282.74.23 1.118-.2 1.475-.318.264-.578.726-.578 1.028 0 .301-.36.772-.8 1.047-.493.308-.8.933-.8 1.63 0 1.606-.684 2.676-1.714 2.683-.501.004-.7.134-.457.3 1.289.882.519 3.294-1.052 3.294-.914 0-1.047 1.011-.177 1.345.742.284.761 1.876.05 4.255-.701 2.35-1.739 2.628-1.957.524-.087-.838-.163 1.716-.169 5.676-.006 3.96.099 6.494.233 5.631.324-2.088 1.087-2.256 1.615-.356.531 1.913.539 2.809.028 3.125-.952.588-.44 2.542.7 2.673 1.131.131 1.172.28.666 2.427-.214.908-.125 1.1.507 1.1.964 0 1.727.742 1.727 1.68 0 .396.204.72.452.72.292 0 .374.488.229 1.376-.204 1.261-.133 1.387.848 1.5.876.102 1.068.324 1.055 1.224-.008.605.195 1.1.453 1.1.79 0 2.662 2.78 2.44 3.626-.147.562.003.774.546.774.412 0 .961.405 1.221.9.26.495.717 1.044 1.014 1.22.641.378.734 2.28.113 2.28-1.129 0-.013 1.418 1.432 1.822 1.624.453 2.659 2.505 1.324 2.625-.29.026.013.163.673.303 1.328.282 1.83 1.65.982 2.672-.397.478-.306.578.526.578 1.339 0 2.209 2.71 1.092 3.4-.223.138-.4 1.996-.4 4.2s.177 4.062.4 4.2c1.151.712.139 3.4-1.28 3.4-.974 0-.968 2.005.009 3.212l.729.9 1.006-1.756c3.302-5.764 2.16-21.759-1.762-24.679-.386-.287-.702-.845-.702-1.238 0-.807-1.069-3.111-1.594-3.435-.189-.117-.916-1.336-1.615-2.708-.699-1.373-1.699-3.216-2.221-4.096-.523-.88-1.137-2.05-1.363-2.6a22.928 22.928 0 0 0-1.01-2.062c-.328-.584-.597-1.417-.597-1.851 0-.434-.261-1.006-.58-1.271-.32-.265-.697-1.322-.838-2.349-.142-1.027-.511-2.755-.82-3.84-.784-2.753-.761-10.954.036-12.481.328-.63.598-1.557.6-2.059.001-.502.272-1.559.602-2.349.33-.789.6-1.749.6-2.133 0-.383.337-1.126.748-1.651.411-.525.873-1.527 1.026-2.226.152-.7.536-1.487.852-1.749.316-.262.574-.697.574-.966s.36-.815.8-1.213c.44-.398.8-.94.8-1.204 0-.265.63-1.306 1.4-2.314.77-1.009 1.4-1.949 1.4-2.089 0-1.067 4.321-4.975 5.51-4.984 1.338-.009 7.294 5.404 8.589 7.807.275.512 1.281 2.042 2.234 3.401.954 1.36 1.968 3.127 2.254 3.927.286.801 1.005 2.536 1.597 3.856.592 1.32 1.242 3.3 1.444 4.4.202 1.1.561 2.9.797 4 .352 1.644.5 16.769.233 23.963-.089 2.407.646 2.109 1.937-.787.646-1.447 1.371-2.753 1.612-2.903.242-.15 1.044-1.218 1.783-2.373.74-1.155 1.494-2.1 1.676-2.1.183 0 1.007-.589 1.833-1.31.825-.72 2.582-2.025 3.903-2.9 3.408-2.255 3.875-2.54 4.998-3.048.55-.249 1.81-.817 2.8-1.262a91.577 91.577 0 0 0 2.862-1.345c.584-.294 1.349-.535 1.701-.535.352 0 1.312-.36 2.133-.8.82-.44 1.814-.8 2.208-.8.394 0 1.74-.36 2.992-.8 1.252-.44 3.102-.8 4.11-.8 1.009 0 2.037-.203 2.284-.45.551-.551 5.309-1.143 10.804-1.345 2.252-.083 4.237-.238 4.41-.346.174-.107.941-.061 1.706.103.776.166 1.793.122 2.301-.101.641-.281 1.049-.261 1.38.07.258.258 1.567.469 2.909.469 3.443 0 4.22 1.264 2.827 4.598-.315.754-.701 2.224-.857 3.265-.269 1.79-.973 3.748-2.495 6.937-1.304 2.733-6.651 9.061-9.053 10.714a33.758 33.758 0 0 0-3 2.384c-.782.714-1.616 1.299-1.852 1.3-.237.001-.867.475-1.4 1.054-.534.578-1.522 1.287-2.197 1.574-.675.288-2.175 1.148-3.333 1.911-1.159.763-2.947 1.809-3.973 2.325-1.027.516-1.957 1.045-2.067 1.176-.11.131-.68.491-1.266.8l-3.6 1.9c-1.394.736-2.804 1.568-3.134 1.849-.33.281-1.32.831-2.2 1.222-.88.39-2.77 1.452-4.2 2.359-1.43.906-2.96 1.864-3.4 2.127-3.937 2.356-4.967 3.032-6.088 3.997-.708.609-2.273 1.918-3.478 2.908-1.204.99-2.289 2.07-2.411 2.4-.121.33-.866 1.3-1.653 2.157-.788.856-1.598 1.936-1.8 2.4a16.818 16.818 0 0 1-.722 1.443c-.195.33-.75 1.68-1.234 3a116.396 116.396 0 0 1-1.506 3.896c-.544 1.301-.583 2.864-.295 12 .181 5.777.364 14.945.404 20.374.041 5.428.177 10.136.301 10.462.125.325-.004 1.589-.288 2.808-.337 1.451-.379 2.351-.122 2.608.237.237.26.843.057 1.523-.185.621-.372 2.299-.415 3.729-.189 6.254-2.1 22.289-2.875 24.126-.261.619-.475 1.57-.475 2.113 0 .543-.243 1.569-.541 2.28-.297.712-.674 2.191-.837 3.288-.164 1.096-.618 2.713-1.009 3.593-.392.88-.84 2.312-.996 3.181-.247 1.377-.78 2.61-2.172 5.019-.19.33-1.129 2.22-2.086 4.2-1.581 3.272-4.284 8.154-6.046 10.921a25.564 25.564 0 0 0-1.258 2.279c-.314.66-1.13 1.796-1.813 2.525-.683.728-1.242 1.551-1.242 1.828 0 .457-1.906 2.748-4.577 5.501-.563.58-1.023 1.215-1.023 1.412 0 .627-11.474 12.031-14.721 14.632a542.94 542.94 0 0 0-6.22 5.074c-3.029 2.517-3.829 3.079-5.859 4.117-1.602.819-7.903 5.03-8.167 5.458-.133.215-.765.506-1.404.647-.639.14-1.253.491-1.363.779-.111.288-.709.651-1.33.807-.62.156-1.22.424-1.332.596-.23.351-4.285 2.644-7.604 4.299-1.21.603-2.629 1.418-3.154 1.811-.525.393-1.248.714-1.607.714-.656 0-6.424 2.762-7.347 3.518-.27.222-1.249.606-2.175.854-.926.247-1.779.604-1.896.794-.117.189-.809.455-1.539.592-.73.137-2.03.608-2.889 1.046-.859.438-1.8.796-2.092.796-.291 0-.928.25-1.415.555-.487.305-1.543.67-2.346.811-.803.14-1.68.52-1.949.845-.269.324-.962.59-1.54.59-.578.001-2.311.514-3.851 1.139-1.54.626-3.79 1.369-5 1.652-1.21.282-2.38.653-2.6.823-.22.171-1.46.506-2.755.745-1.295.238-2.574.615-2.841.837-.268.222-1.433.498-2.59.613-1.156.115-2.488.42-2.958.678-.471.257-2.116.692-3.656.966s-3.52.679-4.4.899c-.88.221-2.77.59-4.2.819-1.43.23-3.59.586-4.8.791-1.21.204-3.64.579-5.4.832-1.76.253-4.343.629-5.741.837-1.398.207-5.178.458-8.4.559-3.222.1-6.43.352-7.129.559-.698.207-1.359.287-1.469.178-.109-.11-3.048-.275-6.53-.367-3.482-.092-8.131-.257-10.331-.367-2.2-.109-6.07-.297-8.6-.418-2.53-.121-5.59-.395-6.8-.61-1.21-.216-3.46-.568-5-.783-1.54-.215-3.16-.571-3.6-.791-.44-.22-2.375-.555-4.299-.746-1.924-.19-3.724-.532-4-.759-.276-.227-1.401-.526-2.501-.666-2.084-.265-4.728-.941-8.8-2.25-1.32-.424-2.716-.771-3.101-.771-.386 0-1.374-.36-2.195-.8-.82-.44-2.04-.8-2.709-.8s-1.572-.244-2.006-.543c-.434-.299-1.446-.664-2.249-.811-.803-.147-1.68-.532-1.949-.857-.269-.324-.754-.589-1.078-.589-.324 0-1.067-.254-1.651-.564a23.608 23.608 0 0 0-2.362-1.049c-.715-.266-1.3-.622-1.3-.791 0-.169-.612-.422-1.36-.562-.748-.14-1.58-.52-1.849-.845-.269-.324-.658-.589-.865-.589-.556 0-4.677-1.997-4.914-2.381-.113-.182-.667-.446-1.231-.588-.565-.142-1.915-.882-3-1.644-1.085-.763-2.057-1.387-2.159-1.387-.103 0-.869-.453-1.704-1.007a439.316 439.316 0 0 0-2.274-1.5c-.415-.271-1.625-1.168-2.688-1.993-1.063-.825-2.109-1.5-2.324-1.5-.216 0-.54-.263-.72-.585-.18-.321-1.223-1.269-2.319-2.106-2.887-2.204-4.96-4.065-6.787-6.092-.883-.981-2.118-2.241-2.743-2.8-.625-.559-1.958-2.097-2.962-3.417-1.004-1.32-2.022-2.58-2.263-2.8-.767-.701-2.638-3.333-2.638-3.712 0-.201-.622-1.006-1.383-1.789-.761-.784-1.5-1.891-1.643-2.462-.144-.57-.409-1.037-.59-1.037-.182 0-.446-.366-.588-.814-.142-.447-.566-1.122-.942-1.5-.376-.377-1.125-1.676-1.665-2.886-.539-1.21-1.109-2.296-1.267-2.413-.157-.116-.758-1.286-1.335-2.6-.577-1.313-1.395-3.042-1.818-3.841-.423-.8-.769-1.861-.769-2.356 0-.496-.274-1.102-.609-1.347-.335-.245-.716-1.101-.846-1.903-.345-2.128 1.108-2.424 3.855-.784.33.197 1.05.556 1.6.798s1.27.615 1.6.829c1.171.76 4.368 2.017 5.129 2.017.425 0 .981.25 1.235.557.254.306 1.305.682 2.335.837 1.03.154 2.234.534 2.676.843.442.31 1.117.563 1.5.563s1.558.294 2.611.653c1.053.359 2.904.803 4.114.986 1.21.184 3.19.512 4.4.729 7.76 1.392 22.11 1.952 31.2 1.217 2.75-.223 6.71-.514 8.8-.648 2.09-.134 3.996-.398 4.237-.587.24-.188 2.203-.526 4.363-.75 2.16-.224 4.142-.586 4.404-.804.263-.218 1.629-.508 3.037-.646 1.407-.137 3.099-.478 3.759-.757 2.46-1.039 5.27-1.866 7.573-2.229 1.306-.205 2.656-.621 3-.924.345-.303 1.257-.683 2.027-.844.77-.161 1.886-.541 2.48-.844.594-.304 1.427-.552 1.851-.552.424 0 .983-.256 1.243-.569.26-.313 1.171-.687 2.026-.831.855-.144 1.766-.518 2.026-.831.26-.313.73-.569 1.045-.569.602 0 3.902-1.35 4.929-2.017.33-.214 1.05-.605 1.6-.87s1.429-.803 1.954-1.197c.525-.394 1.286-.716 1.691-.716.64 0 .678-.131.286-.992-.672-1.475-1.685-1.583-4.109-.436-1.195.565-2.366 1.028-2.603 1.028-.236 0-.742.169-1.124.375-1.996 1.078-5.34 2.425-6.021 2.425-.427 0-.99.258-1.252.573-.262.316-1.229.746-2.149.957-.92.211-3.128.923-4.906 1.581-1.778.658-3.982 1.323-4.898 1.477-.915.155-1.76.436-1.876.624-.117.188-1.059.469-2.096.624-1.036.156-2.427.506-3.09.779-.664.273-2.179.627-3.368.787-1.189.159-2.758.539-3.487.844-.73.305-2.007.556-2.839.559-.832.002-2.503.277-3.713.609-1.21.333-4.27.78-6.8.994-2.53.214-5.77.524-7.2.69-7.06.819-28.784-.225-35-1.682-1.32-.309-3.3-.681-4.4-.827-1.1-.145-2.18-.402-2.4-.571-.22-.169-1.267-.421-2.327-.559-1.059-.138-2.314-.523-2.789-.855-.474-.332-1.324-.604-1.888-.604-.565 0-1.733-.36-2.596-.8-.863-.44-1.721-.8-1.907-.8-.426 0-3.176-1.216-7.327-3.241-3.451-1.684-5.132-3.142-5.484-4.759-.119-.55-.521-1.9-.892-3l-1.079-3.2c-.223-.66-.64-2.46-.927-4-.51-2.74-1.305-5.933-2.109-8.47-.221-.698-.334-1.338-.251-1.42.143-.144-.593-5.964-1.457-11.51-1.222-7.843-.926-43.86.38-46.301.217-.406.565-2.288.774-4.182.208-1.894.716-4.135 1.128-4.98l.751-1.537 3.4-.091c1.87-.05 6.46-.23 10.2-.4 8.19-.372 39.053-.349 46.6.035 2.97.152 5.925.266 6.566.254.641-.011 3.881.249 7.2.579 3.319.33 8.158.69 10.753.801 2.595.111 5.385.37 6.2.576.815.206 3.335.496 5.6.644 2.266.148 4.662.425 5.326.615.746.214 1.554.188 2.114-.067.676-.308 1.29-.253 2.416.218.831.347 1.669.532 1.864.412.416-.257 9.446.522 11.761 1.016.88.188 3.85.454 6.6.592 2.75.138 6.474.427 8.275.642 1.802.215 3.422.356 3.6.315.179-.042.955.041 1.725.183.77.143 3.65.374 6.4.515 2.75.14 5.99.328 7.2.416 1.21.089 3.148.155 4.308.147 1.159-.008 3.229.163 4.6.381 1.875.298 16.263.857 23.492.913 15.678.121 39.694-.66 41.534-1.351.514-.193 2.944-.454 5.4-.579 2.456-.126 5.237-.484 6.18-.797.943-.313 2.383-.573 3.2-.579.817-.005 2.206-.195 3.086-.422.88-.227 2.95-.666 4.6-.975 1.65-.309 4.71-1.029 6.8-1.6 2.09-.57 4.61-1.206 5.6-1.413.99-.206 2.16-.541 2.6-.745 4.02-1.861 5.458-2.435 6.099-2.435.411 0 1.097-.264 1.525-.587.427-.323 1.045-.593 1.375-.6.705-.015 13.57-6.385 14.303-7.083.277-.263.817-.577 1.201-.699 1.214-.385 1.796-1.708 1.206-2.74-.496-.867-.512-.857-.634.409-.114 1.18-.248 1.3-1.454 1.3-.991 0-1.381.203-1.537.8-.238.912-2.654 1.178-2.724.3-.022-.275-.164-.05-.316.5-.314 1.136-1.912 1.609-2.272.672-.365-.951-1.712-.318-1.849.869-.135 1.165-1.898 1.71-2.884.891-.604-.501-1.068-.172-.787.559.119.31-.314.692-1.087.961-1.595.556-3.965.585-3.965.048 0-.22-.27-.4-.6-.4-.335 0-.6.357-.6.809 0 1.093-1.616 1.825-2.723 1.232-1.162-.622-2.095-.549-2.958.232-1.405 1.272-2.11-.076-1.489-2.849.499-2.231 1.661-3.622 2.106-2.521.111.273.215-3.216.232-7.754.027-6.873-.068-8.334-.568-8.749-.672-.558-.832-9.3-.236-12.923.428-2.6.129-3.861-1.016-4.297-.567-.215-.948-.686-.948-1.17 0-1.197-5.562-1.241-5.874-.047-.328 1.253-12.919 2.363-15.035 1.325-.49-.24-2.376-.508-4.192-.596-4.126-.2-3.747.493-3.919-7.162-.081-3.591-.268-10.224-.416-14.738-.239-7.307-.196-8.267.384-8.749.534-.443.644-1.312.606-4.792-.026-2.338-.129-3.936-.23-3.551-.248.951-1.182.886-1.44-.1-.321-1.228-31.438-1.261-31.759-.034-.227.868-.841 1.062-4.557 1.443-2.132.218-2.754.148-3.272-.37-1.03-1.03-3.653-.715-3.23.389.424 1.106-5.406 2.04-6.066.972-.577-.934-3.8-.465-3.8.553 0 .651-.286 1.03-.9 1.195-1.415.379-3.828.292-4.1-.148-.489-.792-4.2-.487-4.2.345 0 .586-.502.852-2.348 1.244-2.314.491-4.052.313-4.052-.416 0-.205-1.08-.373-2.4-.373-2.288 0-2.4.046-2.4.992 0 1.077-.265 1.187-3.819 1.587-1.449.163-2.24.06-2.8-.363-1.208-.913-2.981-.798-2.981.194 0 1.339-5.46 2.387-6.2 1.19-.564-.913-3.797-.46-4.196.589-.423 1.113-2.21 1.765-2.913 1.062-.921-.921-5.019-.564-5.163.449-.182 1.277-2.787 1.932-3.852.969-1.154-1.045-2.476-.874-2.476.32 0 1.297-2.124 2.004-3.486 1.16-1.285-.797-2.04-.675-2.186.351-.111.779-.357.895-1.828.865-1.379-.028-1.7.101-1.7.681 0 .393-.243.858-.539 1.034-.638.378-1.156 2.727-1.217 5.52-.039 1.769-.151 2.015-.967 2.131-1.101.156-1.174 2.669-.077 2.669.33 0 .659.416.731.925.101.709-.039.895-.6.8-.619-.106-.749.196-.852 1.975-.109 1.89-.039 2.1.7 2.1.533 0 .821.26.821.742 0 .408.186 3.037.414 5.842.471 5.795.229 6.729-1.456 5.625-1.52-.995-4.558-.718-4.558.416 0 .905-9.02 1.714-10.469.938-.427-.229-.775-.215-.93.036-.321.519-2.08.52-2.401.001-.519-.84-7.8-.492-7.8.373 0 1.163-7.43 1.9-10.5 1.041-.943-.263-1.1-.19-1.1.516 0 .452-.165.925-.366 1.049-.202.125-.385 2.605-.409 5.512-.023 2.908-.218 5.462-.434 5.678-.934.934-.471 11.764.509 11.903 1.213.172 1.529 4.102.46 5.732-.839 1.282-2.3 1.22-2.488-.104-.155-1.095-.872-1.205-.872-.133 0 .421-.209.836-.464.921-.874.291-2.736-.179-2.736-.691 0-1.086-14.131-1.604-14.489-.531-.199.599-9.06.474-9.798-.138-.366-.304-.513-.297-.513.023 0 .569-5.05.615-5.4.049-.532-.86-21.047-.507-21.275.366-.234.895-.862 1.077-4.975 1.446-2.072.185-3.138.131-3.324-.17-.595-.963-7.754-.558-7.898.447-.091.633-.545 1.007-1.579 1.3-1.339.379-1.41.473-.916 1.213.602.903.242 1.799-.784 1.95-.72.105-.768.273-.374 1.298.34.888-.363 1.921-1.416 2.078-1.007.15-1.098.935-.257 2.22.872 1.33.109 3.452-1.241 3.452-1.145 0-1.354 1.951-.406 3.779.74 1.426.078 3.821-1.056 3.821-.807 0-.824 1.421-.079 6.857.295 2.162-.273 3.543-1.458 3.543-.445 0-.703.172-.573.383.13.21.501.281.824.157.424-.163.587.065.587.817 0 .776-.205 1.043-.8 1.043-.88 0-1.249 4.875-.408 5.395.24.149.384 4.246.372 10.6-.011 5.696.1 11.158.247 12.138.192 1.28.082 2.173-.392 3.169-.906 1.911-.736 6.95.23 6.792 1.042-.17 1.79 2.089 1.217 3.675-.619 1.712-.598 1.831.326 1.831.834 0 1.011.463 1.346 3.508.127 1.149.004 1.893-.375 2.272-.816.816-.746 2.265.095 1.942 1.286-.493 2.545 3.334 1.342 4.078-.649.401-.458 1 .32 1 1.419 0 2.431 2.688 1.28 3.4-.782.483-.46 2.2.413 2.2 1.022 0 1.418.975.877 2.162-.46 1.009-.278 1.424.91 2.079.951.524 1.254 1.971.582 2.781-.392.473-.328.578.355.578 1.412 0 2.357 3.124 1.167 3.859-.335.208-.174.386.5.551.881.216.987.439.92 1.917-.065 1.448.036 1.673.75 1.673.704 0 .791.177.586 1.2-.216 1.078-.138 1.2.763 1.2 1.185 0 1.694 1.001 1.04 2.048-.626 1.002-.6 1.077.437 1.224.644.092.936.44 1.027 1.228.071.622.372 1.1.692 1.1.438 0 .512.395.325 1.754-.233 1.7-.21 1.748.756 1.563.828-.158 1.069.018 1.427 1.046.237.68.596 1.237.797 1.237.201 0 .279.45.174 1-.15.785-.027 1 .575 1 .964 0 1.727.742 1.727 1.68 0 .396.201.72.447.72.258 0 .367.413.259.98-.146.764-.003 1.006.65 1.1.46.066 1.073.615 1.362 1.22.289.605.696 1.1.904 1.1.208 0 .378.27.378.6 0 .33.276.6.613.6.811 0 1.193 1.07.625 1.754-.715.861-.081 1.802 1.4 2.08 1.457.273 8.383 6.739 8.638 8.064.07.367.492.765.938.884 2.031.546 3.786 2.447 3.786 4.101v1.587l1.536-.259c1.85-.313 4.464.992 4.464 2.229 0 .446.289.772.7.789 1.37.057 3.105 1.413 3 2.343-.084.744.041.839.8.609.495-.15.99-.286 1.1-.302.533-.079 3.2 1.867 3.2 2.334 0 .294.495.591 1.1.66.933.108 1.171.4 1.568 1.927.277 1.065.481 1.42.5.871.023-.666.231-.889.732-.785.385.08.675.453.644.829-.047.581.334.685 2.503.685 2.23 0 2.67.128 3.428 1 .478.55 1.178 1 1.556 1 1.536 0 5.569 2.393 5.581 3.311.011.796.055.816.42.189.538-.924 1.624-.886 2.877.1.56.44 1.205.8 1.435.8 1.019 0 2.456.99 2.456 1.693 0 .672.254.749 2.1.636 1.94-.119 2.11-.058 2.232.804.123.866.183.887.841.291 1.151-1.041 4.827-.121 4.827 1.209 0 1.036.379 1.228 1.067.54.817-.817 3.518-.28 3.661.727.134.942.65 1.183 1.072.5.677-1.095 4.6-.08 4.6 1.19 0 .878 2.106 1.21 2.6.41.74-1.197 6.2-.149 6.2 1.19 0 .971.622 1.045 1.49.177.473-.473.996-.559 2.072-.338.791.162 1.888.328 2.438.37.55.042 1.225.104 1.5.139.275.034.5.512.5 1.062 0 .733.213 1 .8 1 .537 0 .8-.267.8-.811 0-.757.181-.796 2.7-.588 9.196.763 9.7.859 9.7 1.849 0 .873 11.013 1.177 11.862.328.56-.56 4.23-.571 5.267-.016 1.224.655 4.816.55 5.528-.162.755-.754 1.131-.754 1.886 0 1.072 1.073 6.156.833 6.375-.3l.173-.9.055.927c.044.764.246.904 1.154.8.791-.091 1.067-.324.982-.827-.08-.477.144-.7.7-.7.551 0 .818.261.818.8 0 1.101 1.114 1.014 1.272-.1.143-1.007 2.844-1.544 3.661-.727.833.833 5.114.532 5.352-.377.225-.859.581-.988 4.315-1.56 1.875-.287 2.594-.244 3.286.198 1.385.885 2.835.73 2.986-.319.144-.994 1.518-1.447 4.979-1.644 1.265-.071 2.311-.376 2.729-.794.743-.743 2.429-.909 2.82-.277.497.804 3.4.479 3.4-.381 0-1.248 3.817-2.162 4.255-1.019.352.916 1.307.743 1.063-.193-.279-1.068 1.626-1.852 2.989-1.231 1.619.738 3.293.542 3.293-.385 0-1.118 1.783-1.919 2.824-1.269 1.135.709 1.976.581 1.976-.302 0-.429.296-.946.657-1.148.737-.413 2.143-.167 2.143.375 0 .194.425.353.945.353.787 0 .913-.164.756-.982-.214-1.121 1.566-1.911 2.408-1.069.722.722 1.425.523 1.563-.441.084-.586.539-1.02 1.328-1.265.66-.205 1.932-.704 2.826-1.108.895-.404 1.766-.735 1.937-.735.171 0 .768-.36 1.328-.8 1.211-.953 2.232-1.02 3.052-.2.885.886 1.457.731 1.457-.394 0-.976.043-.989 2.4-.743 2.265.237 2.4.203 2.4-.606 0-.59.249-.857.8-.857.529 0 .8-.267.8-.786 0-1.179 1.284-1.711 2.341-.97.775.543.885.541 1.062-.019l.402-1.271c.138-.435.518-.585 1.169-.461.697.133 1.018-.02 1.157-.552.257-.981 1.398-1.377 2.317-.804.996.622 1.11.588.887-.265-.285-1.089.925-1.952 1.892-1.348 1.025.64 1.098.616 1.245-.424.086-.607.45-.945 1.118-1.04.545-.076 1.23-.481 1.523-.9.293-.418.929-.76 1.413-.76.485 0 1.106-.36 1.381-.8.275-.44.849-.8 1.277-.8.427 0 .948-.307 1.158-.682.322-.575.543-.608 1.42-.208.991.451 1.038.419 1.038-.715 0-1.242.184-1.383 4.657-3.581.912-.447 1.754-1.067 1.873-1.376.119-.309.753-.681 1.41-.825.656-.144 1.293-.521 1.414-.837.122-.317.587-.576 1.033-.576.447 0 .813-.18.813-.4 0-.22.437-.4.972-.4.692 0 1.009-.25 1.1-.868.185-1.256 2.466-2.417 4.133-2.105 1.326.249 1.336.239 1.606-1.563.226-1.507.53-1.991 1.801-2.872.84-.583 1.626-1.314 1.746-1.626.119-.311.471-.566.78-.566.31 0 .777-.257 1.038-.571.32-.386.92-.498 1.849-.347 1.206.195 1.375.118 1.375-.63 0-.585.25-.852.8-.852.444 0 .8-.267.8-.6 0-.333.356-.6.8-.6.533 0 .8-.267.8-.8 0-.444.267-.8.6-.8.333 0 .6-.356.6-.8 0-.533.267-.8.8-.8.667 0 .8-.267.8-1.6 0-.88.18-1.6.4-1.6.22 0 .4-.276.4-.613 0-.336.315-.725.7-.864 1.005-.361 2.1-1.581 2.1-2.341 0-1.127 2.346-3.259 3.626-3.295 1.627-.046 2.015-.385 1.731-1.515-.24-.958.779-3.772 1.367-3.772.157 0 .464-.405.681-.9.217-.495.781-.955 1.252-1.022.596-.085.8-.337.672-.83-.311-1.188 1.401-3.648 2.539-3.648.914 0 .94-.049.338-.652-.359-.358-.552-.913-.429-1.232.123-.32.223-.657.223-.749 0-.092.45-.167 1-.167.792 0 1-.202 1-.972 0-.704.249-1.008.9-1.1.803-.114.885-.317.76-1.886-.117-1.465-.036-1.718.487-1.518.849.326 1.135-.256.696-1.411-.424-1.114.097-2.313 1.004-2.313.41 0 .53-.242.371-.744-.282-.889.713-1.845 1.577-1.513.357.137.605.009.605-.313 0-.299-.27-.648-.6-.775-.848-.325-.744-1.6.2-2.455.44-.398.802-1.101.805-1.562.012-1.805.47-2.638 1.451-2.638.908 0 .929-.051.369-.905-.756-1.155-.043-2.832 1.285-3.023 1.037-.149 1.133-.572.29-1.272-.707-.587-.744-1.266-.179-3.3.421-1.515 1.668-2.105 2.114-1 .111.275.21-.22.221-1.1.01-.88-.231-1.93-.537-2.333-.393-.518-.451-1.044-.199-1.8.195-.587.332-1.337.305-1.667-.123-1.456.115-2 .875-2 .896 0 1.19-2.65.384-3.456-1.049-1.049-.274-7.534.916-7.671 1.48-.17 1.753-5.577.3-5.957-1.236-.323-1.153-3.192.1-3.434l.9-.173-.882-.055c-1.04-.064-1.17-.647-1.538-6.909-.17-2.89-.111-4.34.185-4.523.831-.514.539-3.822-.338-3.822-.932 0-1.099-.513-1.443-4.431-.218-2.492-.151-3.145.375-3.671.461-.461.632-1.351.609-3.169-.017-1.391-.122-2.304-.233-2.029-.293.727-1.249.612-1.668-.2-.668-1.296-.845-7.179-.24-7.977.998-1.318.794-10.906-.227-10.639-.447.117-.8.012-.8-.237 0-.409.541-.614 1.3-.494.482.076.345-5.017-.165-6.136-.546-1.197-.33-1.517 1.025-1.517.546 0 1.092-.259 1.214-.575.121-.317.416-.455.654-.308.3.186.356-.269.18-1.474-.401-2.754 3.278-6.529 5.97-6.125l1.799.269.267-1.675c.201-1.257.504-1.764 1.212-2.033.519-.198.944-.566.944-.819 0-.298.423-.375 1.2-.22 1.078.216 1.2.138 1.2-.763 0-.593.286-1.103.7-1.25.385-.137 1-.506 1.367-.82.506-.433.861-.467 1.473-.139.71.38.822.3.933-.665.084-.724.398-1.145.927-1.24.44-.078 1.16-.451 1.6-.827 1.178-1.006 3.074-1.78 4.1-1.673.678.071.9-.113.9-.747 0-1.034 1.056-1.498 2.028-.892.622.389.738.302.847-.636.105-.914.317-1.088 1.325-1.088.771 0 1.303-.253 1.489-.706.159-.388.727-.872 1.261-1.075.535-.203 1.091-.561 1.235-.795.186-.3.506-.297 1.082.012.901.482 1.37.182 1.618-1.036.169-.833.328-.87 1.815-.419.772.234.9.126.9-.767 0-1.184.937-1.73 1.774-1.035.454.376.59.295.695-.415.072-.485.491-1.081.931-1.323.44-.243.944-.666 1.12-.941.176-.275.761-.5 1.3-.5.567 0 .98-.233.98-.553 0-.677 2.51-2.647 3.373-2.647.345 0 .627-.18.627-.4 0-.22.36-.4.8-.4.444 0 .8-.267.8-.6 0-.433.444-.6 1.6-.6 1.333 0 1.6-.133 1.6-.8 0-.533.267-.8.8-.8.44 0 .8-.258.8-.573 0-.315.377-.693.837-.839.701-.222.797-.48.591-1.58-.183-.973-.088-1.376.363-1.549.335-.129.609-.6.609-1.046 0-.447.16-.813.357-.813.196 0 .469-.45.607-1 .199-.793.503-1 1.472-1 1.11 0 1.164-.057.593-.629-1.108-1.107-.48-2.571 1.103-2.571.691 0 .744-.201.513-1.949-.309-2.327-.025-3.251.998-3.251.858 0 1.105-2.292.331-3.066-.494-.494-.344-8.736.178-9.834.261-.547.155-.7-.486-.7-.45 0-.932-.183-1.07-.406-.138-.223-.868-.664-1.623-.98-.931-.389-1.373-.837-1.373-1.394 0-.891-2.493-1.241-3-.42-.326.528-9.274.528-9.6 0-.53-.858-8.2-.491-8.2.392 0 .524-.34.863-1 1l-2.042.426c-.614.129-1.436-.039-1.999-.408-.914-.599-3.17-.476-2.783.152.614.993-1.875 1.799-3.767 1.219-.374-.115-.639.139-.724.693-.155 1.012-2.277 1.694-3.005.966-.868-.868-2.28-.526-2.28.552 0 1.009-1.468 1.784-2.348 1.24-.217-.134-.504.102-.638.525-.405 1.276-2.535 1.516-2.661.3-.026-.251-.163.083-.303.743-.273 1.284-1.738 1.872-2.576 1.034-.949-.949-1.797-.471-2.074 1.166-.218 1.291-.612 1.846-2.035 2.868-.971.697-1.765 1.417-1.765 1.6 0 .183-.27.332-.6.332-.33 0-.6.276-.6.613 0 .336-.27.716-.6.842-.33.127-.6.475-.6.774 0 .298-.36.736-.8.971-.44.235-.8.591-.8.789 0 .634-2.166 2.709-3.134 3.003-.842.255-.892.203-.502-.524.523-.978.507-.661.578-11.134.032-4.657.193-8.602.358-8.767.621-.622.302-1.767-.492-1.767-.973 0-1.46-1.582-.842-2.736.786-1.47.545-2.297-.666-2.28-1.197.017-1.791-1.453-.934-2.31.655-.655.522-1.022-.294-.809-1.045.273-1.839-.806-1.314-1.787.475-.887.223-1.278-.825-1.278-.403 0-.733-.27-.733-.6 0-.33-.315-.927-.7-1.328-1.084-1.126-2.5-3.194-2.5-3.65 0-.226-.631-.675-1.403-.997-.771-.323-1.564-1-1.761-1.506-.505-1.292-2.393-3.114-3.774-3.641-.406-.155-.826-.62-.934-1.034-.134-.509-.444-.686-.965-.55-.953.249-1.963-.544-1.963-1.543 0-.872-1.197-1.009-2.376-.273-.587.367-1.003.369-1.794.008-.874-.398-1.03-.371-1.03.174m-69.378 36.959c.994.824.676 34.455-.335 35.466-.659.658-1.677.704-13.4.601-18.13-.159-17.944-.109-18.073-4.815-.245-8.992-.799-17.768-1.412-22.397-1.233-9.295-.65-9.543 22.108-9.415 7.742.044 10.669.191 11.112.56m-37.995 2.825c.247.399.468 2.593.741 7.356.088 1.54.355 3.88.593 5.2.649 3.597.616 19.005-.042 19.612-.503.464-15.917 1.267-30.319 1.58-3.19.07-6.79.33-8 .58-1.21.249-4.9.549-8.2.666-3.3.117-6.63.382-7.4.588-.77.206-2.93.469-4.8.583-1.87.115-6.123.503-9.451.862-8.646.932-8.144 1.598-7.744-10.271.16-4.73.2-9.873.09-11.429-.269-3.814.092-4.402 2.927-4.756 1.234-.155 3.247-.626 4.474-1.048 1.259-.433 3.306-.767 4.705-.767 1.362 0 2.999-.25 3.638-.555.638-.306 2.596-.677 4.35-.825 1.754-.148 3.393-.439 3.642-.646.25-.207 2.055-.477 4.012-.599 1.956-.123 4.187-.411 4.957-.642.77-.23 3.56-.661 6.2-.957 2.64-.297 5.79-.732 7-.968s3.635-.526 5.39-.644c1.754-.118 3.374-.368 3.6-.554.225-.187 1.94-.464 3.81-.615 1.87-.152 4.12-.452 5-.667 4.819-1.175 10.424-1.736 10.827-1.084m18.179.056c.014 1.166.687 1.574.885.537.135-.705.024-1.037-.346-1.037-.3 0-.542.225-.539.5M188.4 125.695c3.211-.107 14.791.452 15.252.737.624.385 1.413 11.631 1.513 21.575.033 3.193.228 8.762.434 12.374.284 4.973.259 6.708-.103 7.144-.734.884-27.004.139-28.171-.799-1.478-1.189-1.901-23.863-.691-37.078.4-4.376.678-4.562 6.287-4.205 2.463.157 4.929.27 5.479.252m83.54.183c.467.835.18 23.701-.358 28.522-.209 1.87-.38 4.244-.381 5.276-.001 2.199-.257 2.42-3.201 2.759-1.21.139-3.55.466-5.2.725l-7 1.099c-9.888 1.551-12.338 1.383-11.57-.793.169-.476.363-8.426.432-17.666s.217-17.185.328-17.656c.304-1.283.744-1.352 12.334-1.928 5.9-.294 10.836-.643 10.969-.775.552-.552 3.276-.226 3.647.437m-46.392.723c13.607.234 14.262.327 14.726 2.111.258.99.365 11.559.236 23.288-.027 2.53-.04 6.13-.029 8 .023 3.542-.756 6.38-1.761 6.422-.286.011-4.3.295-8.92.629-21.267 1.54-20.198 1.844-20.205-5.751-.002-2.805-.114-11.625-.248-19.601-.268-15.936-.275-15.879 2.008-15.517.685.108 7.072.297 14.193.419m-51.628.679c.355.355.483 4.277.493 15.1.007 8.041.195 15.88.417 17.42.222 1.54.506 3.527.63 4.416.406 2.912-3.417 3.413-15.128 1.984-2.567-.314-7.337-.684-10.6-.823-3.262-.139-6.562-.42-7.332-.624-.77-.203-5.09-.556-9.6-.784-4.51-.227-8.65-.579-9.2-.781-.55-.202-4.278-.555-8.285-.785-4.006-.23-8.177-.587-9.269-.794-1.092-.207-5.074-.502-8.848-.655-9.272-.377-8.716.502-9.59-15.154-.184-3.3-.467-7.3-.628-8.888l-.293-2.889 1.152-.438c.634-.241 1.695-.343 2.357-.228.662.116 3.094.042 5.404-.164 2.31-.207 4.92-.439 5.8-.517.88-.077 4.57-.266 8.2-.419a293.934 293.934 0 0 0 19.6-1.482c1.87-.205 4.537-.373 5.926-.374 1.39 0 2.83-.162 3.2-.359.371-.197 3.194-.469 6.274-.605s7.172-.438 9.094-.671c1.922-.233 3.849-.311 4.283-.173.434.138 1.562-.012 2.506-.332.944-.321 3.958-.696 6.697-.835s5.064-.336 5.166-.439c.336-.336 1.084-.197 1.574.293m39.394 9.72c.003 1.1.081 1.503.173.895.092-.609.09-1.509-.005-2-.095-.492-.171.005-.168 1.105m.006 4.2c0 1.21.075 1.705.167 1.1a8.899 8.899 0 0 0 0-2.2c-.092-.605-.167-.11-.167 1.1m95.08 1.772c0 .345-.27.628-.6.628-.631 0-.751.795-.348 2.3.297 1.107 1.348 1.196 1.348.114 0-.432.371-.984.824-1.227 1.109-.593.892-2.142-.324-2.315-.605-.086-.9.078-.9.5m-51.886 1.628c.003 1.1.081 1.503.173.895.092-.609.09-1.509-.005-2-.095-.492-.171.005-.168 1.105m-43.213.4c.004.88.086 1.193.182.695.096-.497.092-1.217-.008-1.6-.1-.382-.179.025-.174.905m43.192 3c0 .77.082 1.085.183.7.1-.385.1-1.015 0-1.4-.101-.385-.183-.07-.183.7m50.112-.808a.75.75 0 0 0 .105.878c.521.521.935-.149.514-.832-.246-.398-.395-.409-.619-.046m-50.112 5.208c0 .77.082 1.085.183.7.1-.385.1-1.015 0-1.4-.101-.385-.183-.07-.183.7m-72.809 62.055c.106.318 1.059.654 2.29.806 3.8.471 3.917 2.042.244 3.266-2.703.901-2.844.995-5.296 3.517-4.163 4.282-6.44 11.939-5.067 17.038.434 1.614 3.618 5.533 4.945 6.088.55.23 1.27.582 1.6.782 4.83 2.922 12.437 1.451 16.924-3.275 2.332-2.456 3.051-2.603 3.07-.628.006.677-1.441 4.175-2.036 4.921-.189.237-1.201 1.524-2.251 2.861-2.021 2.577-4.538 4.969-5.226 4.969-.228 0-.474.141-.548.313-.126.296-2.582 1.528-6.133 3.076-3 1.308-12.145 1.356-15.81.082-6.288-2.185-10.393-5.189-12.513-9.155-.504-.944-1.211-2.166-1.57-2.716-.609-.931-1.483-8.059-1.177-9.6.065-.33.286-1.519.491-2.642.616-3.384 4.12-10.008 5.859-11.078.286-.176.52-.516.52-.756s.315-.666.699-.947c.385-.281.559-.653.386-.825-.352-.353-5.91 5.227-6.745 6.771-3.127 5.786-3.371 6.495-4.049 11.796-.892 6.977 4.062 16.59 10.109 19.613 1.664.831 2.843 1.551 3.314 2.022.245.245.769.446 1.164.446.396 0 1.784.369 3.087.819 3.294 1.14 13.818 1.313 16.184.266.852-.377 1.932-.688 2.4-.691.468-.003 1.231-.228 1.694-.5.464-.272 1.994-1.103 3.4-1.847 3.461-1.833 5.994-3.872 7.61-6.128.741-1.035 1.468-1.89 1.615-1.9.148-.011.387-.557.531-1.214.144-.658.428-1.298.631-1.424 2.793-1.726 3.753-14.376 1.432-18.861-.364-.704-.662-1.484-.662-1.732 0-1.812-6.413-8.942-9.3-10.339-1.042-.505-1.989-1.069-2.102-1.253-.114-.184-.747-.453-1.407-.598a12.604 12.604 0 0 1-2.295-.793c-1.697-.821-6.24-1.236-6.012-.55m-11.284.345c-.436.282-.108.388 1.2.388.99 0 2.07-.175 2.4-.388.436-.282.108-.388-1.2-.388-.99 0-2.07.175-2.4.388m-3.2 1.316-1 .423.946.164c.521.091 1.121-.01 1.335-.224.608-.608-.175-.83-1.281-.363" fill="#0d1418"/><path d="M211.197 86.774c-2.79.849-3.888 1.858-3.638 3.345.082.486 1.129 14.777 1.67 22.777.292 4.334.659 7.245.943 7.481.446.37 17.892 1.218 25.114 1.222 2.981.001 3.543-.106 3.881-.738.722-1.349.88-33.957.166-34.231-.894-.343-26.973-.21-28.136.144m14.418 2.083 1.585.89.049 3.027c.113 6.981.715 21.152.965 22.731.453 2.849-.486 3.829-3.459 3.614-3.182-.23-3.074.016-3.505-8.005-.208-3.891-.494-7.262-.635-7.489-.339-.549-1.025-15.285-.734-15.756.372-.601 4.028.029 5.734.988m10.117-.356c.842.616 1.242 16.707.421 16.981-.589.197-.94-3.17-.989-9.482-.039-5.244-.265-6-1.786-6-1.343 0-1.36.189-1.22 14.046.143 14.167.06 13.724 2.514 13.447 2.212-.249 2.293-.338 1.79-1.963-.728-2.354-1.23-6.346-.908-7.217l.313-.846.801.801c1.271 1.271 1.27 10.026-.003 10.501-.978.365-5.394.235-5.8-.171-.146-.145-.276-2.095-.288-4.331-.013-2.237-.088-8.837-.166-14.667l-.142-10.6 1.366-.477c1.801-.63 3.255-.638 4.097-.022m-20.732.46 2 .526.235 10.589c.129 5.824.383 10.83.565 11.124.549.889.958 6.942.507 7.5-.251.31-1.422.5-3.08.5-4.074 0-3.882.469-4.261-10.4-.739-21.162-.752-21.097 4.034-19.839m-20 1.25c-1.02.336-1.29.539-.746.558.47.017 1.46-.232 2.2-.553 1.656-.719.723-.722-1.454-.005m6.596 2.507.196 3.082.124-2.76c.068-1.519-.021-2.905-.196-3.082-.176-.177-.232 1.065-.124 2.76m20.332-2.12c-.411.902-.253 3.362.887 13.802.181 1.65.341 5.211.357 7.913.031 5.372.256 5.858 2.292 4.931l1.013-.462-.267-6.291c-.147-3.46-.328-8.001-.403-10.091-.288-8.092-.779-10.038-2.656-10.529-.566-.148-.92.063-1.223.727m-9.055.315c-.403.485-.305 12.497.14 17.087.096.99.294 3.383.441 5.318.285 3.764.725 4.474 2.481 4.015 1.065-.279 1.123-1.603.233-5.333-.429-1.8-.675-5.428-.798-11.796-.16-8.266-.249-9.224-.874-9.472-1.013-.401-1.154-.386-1.623.181m-22.573.169a5.661 5.661 0 0 0 1.8 0c.495-.095.09-.173-.9-.173s-1.395.078-.9.173m-4.041.392c-.151.151-1.036.398-1.966.55-1.657.27-1.663.277-.293.32.77.024 2.21-.211 3.2-.523 1.655-.522 1.701-.57.567-.594-.679-.015-1.357.096-1.508.247m-7.968 1.215c.71.088 1.97.09 2.8.003.83-.087.249-.159-1.291-.161-1.54-.002-2.219.069-1.509.158m-2.409.362c-.138.138-1.293.399-2.567.58l-2.315.328 2.546-.146c2.031-.116 4.687-1.013 3.001-1.013-.228 0-.527.113-.665.251M164.8 94.647l-2.6.533 2.2-.206c3.846-.359 6.558-.868 4.6-.863-.88.002-2.77.243-4.2.536m-4.7.829c.385.1 1.015.1 1.4 0 .385-.101.07-.183-.7-.183s-1.085.082-.7.183m-3.858.415c-.16.16-1.225.415-2.367.566l-2.075.276 2-.134c2.805-.187 5.72-.888 3.967-.953-.679-.025-1.365.085-1.525.245m-7.142 1.191a5.661 5.661 0 0 0 1.8 0c.495-.095.09-.173-.9-.173s-1.395.078-.9.173m-4.7.772-1.8.55 1.929-.198c1.98-.204 4.135-1.025 2.471-.942-.44.022-1.61.288-2.6.59m-5.293.836c.719.089 1.799.087 2.4-.004s.013-.164-1.307-.162c-1.32.002-1.812.077-1.093.166m-2.448.384c-.151.151-1.036.412-1.966.581l-1.693.308 1.935-.136c1.616-.114 3.761-1.027 2.412-1.027-.228 0-.537.123-.688.274m65.637 7.126c.114 3.96.371 7.47.57 7.8.373.619.109-6.059-.47-11.888-.193-1.946-.231-.415-.1 4.088m-71.755-5.803c-1.395.563-1.54 1.156-1.562 6.403-.012 2.75-.142 7.07-.289 9.6-.193 3.331-.157 4.214.131 3.2.219-.77.459-5.139.532-9.71.073-4.57.204-8.377.29-8.461.086-.083.787-.424 1.557-.758 1.456-.63.85-.882-.659-.274m72.783 17.003c.002 1.32.077 1.812.166 1.093.089-.719.087-1.799-.004-2.4s-.164-.013-.162 1.307m-5.212 2.895c1.052.082 2.672.081 3.6-.003.928-.084.068-.151-1.912-.15-1.98.001-2.74.07-1.688.153M184.4 121c-5.631.65-2.382.666 4.4.022 4.044-.385 4.697-.513 2.6-.51-1.54.002-4.69.221-7 .488m-11.5.487a8.899 8.899 0 0 0 2.2 0c.605-.092.11-.167-1.1-.167-1.21 0-1.705.075-1.1.167m-10.9.406c-.77.09-1.58.351-1.8.58-.275.287-.105.328.545.131.52-.158 2.95-.422 5.4-.587l4.455-.299-3.6.005c-1.98.003-4.23.079-5 .17m-33.947.974c-.099 2.01.261 2.338 2.49 2.27l2.057-.063-2-.237c-1.911-.226-2.011-.299-2.247-1.637-.207-1.167-.256-1.223-.3-.333m26.059.228c1.052.082 2.672.081 3.6-.003.928-.084.068-.151-1.912-.15-1.98.001-2.74.07-1.688.153m-10.067.537c-4.708.925-1.925.898 3.955-.039l1.8-.286-2-.01c-1.1-.005-2.79.146-3.755.335m-8.345 1.055a8.899 8.899 0 0 0 2.2 0c.605-.092.11-.167-1.1-.167-1.21 0-1.705.075-1.1.167m133.854 1.493c-.099.098-3.414.369-7.367.601-10.581.621-15.83 1.101-16.206 1.481-.183.186-.365 8.438-.404 18.338l-.07 18 1.946-.096a34.606 34.606 0 0 0 3.947-.478c2.446-.467 10.327-1.603 15.2-2.191l3.6-.435.273-4.2c.15-2.31.374-7.53.498-11.6.123-4.07.32-9.956.438-13.08.2-5.351.167-5.705-.572-6.1-.878-.47-1.026-.498-1.283-.24m-91.512.576c-1.072.697-1.592 21.813-.868 35.244l.226 4.2 2.8.047c1.54.026 5.32.165 8.4.311 13.549.639 15.232.654 15.864.143.657-.532.51-8.219-.427-22.301-.212-3.19-.397-8.354-.411-11.476-.019-4.079-.167-5.768-.526-5.999-.704-.454-24.375-.613-25.058-.169m32.064.746c-.106.276-.067 7.206.087 15.4.153 8.194.25 16.485.215 18.425-.049 2.718.091 3.765.612 4.559l.675 1.031 8.453-.277c12.099-.398 17.897-.913 18.641-1.657.698-.698 1.136-35.48.46-36.527-.274-.425-2.393-.58-9.7-.706-5.142-.09-10.159-.273-11.149-.407-3.434-.465-8.088-.376-8.294.159m-40.806.789c.825.087 2.175.087 3 0 .825-.086.15-.157-1.5-.157s-2.325.071-1.5.157m31.775.023c1.151.732 1.343 2.735 1.235 12.838-.095 8.816-.02 10.416.536 11.448.715 1.326 1.38 9.362.925 11.172-.26 1.039-.326 1.059-3.119.945l-2.852-.117-.281-2.4c-.174-1.491-.112-2.831.165-3.538.356-.912.316-1.354-.203-2.233-.537-.909-.569-1.35-.187-2.593.355-1.157.347-1.679-.034-2.289-.783-1.254-1.17-21.995-.421-22.604.994-.809 3.392-1.165 4.236-.629m67.044.396c.678.75 1.251 29.253.601 29.904-.154.154-1.082.37-2.061.48-2.223.251-2.79-.562-2.857-4.094-.025-1.32-.199-7.547-.386-13.838-.339-11.399-.337-11.441.522-12.3 1.07-1.07 3.277-1.15 4.181-.152M162 129.02c-1.537.44-1.625.516-.6.517.66.001 1.92-.236 2.8-.526 2.162-.712.293-.705-2.2.009m24.149.524c.556.614.595.946.223 1.9-.308.791-.444 6.169-.431 17.024.014 11.876-.102 15.964-.461 16.251-.769.614-5.031.822-5.491.268-1.183-1.425-1.351-23.299-.247-31.987l.458-3.6 2.2-.235c1.21-.129 2.397-.264 2.638-.3.241-.036.741.27 1.111.679m72.418-.101c.901.346.785.759-.362 1.282l-.994.453.174 13.215c.194 14.816.074 14.045 2.113 13.585 2.194-.495 2.485.21.503 1.221-4.183 2.134-4.342 1.591-4.441-15.171-.092-15.704-.078-15.769 3.007-14.585m-105.867.439a5.661 5.661 0 0 0 1.8 0c.495-.095.09-.173-.9-.173s-1.395.078-.9.173m41.898.618c.43 1.821.019 33.444-.441 33.904-.674.673-5.343.934-5.415.303-.183-1.6-.206-2.95-.365-22.107-.013-1.54-.054-3.07-.091-3.4-.124-1.098.574-8.249.846-8.668.832-1.279 5.165-1.304 5.466-.032m41.649-.423c.163.262.355 4.987.428 10.5.073 5.513.296 10.473.496 11.023.2.55.469 3.111.598 5.691l.234 4.691-1.63.832c-2.386 1.217-4.421.959-4.84-.614-1.291-4.848-1.503-30.355-.263-31.674.967-1.03 4.426-1.342 4.977-.449m16.616.623c.627 1.557.816 3.795.935 11.1.31 18.997.323 18.6-.631 18.6-.218 0-.372-1.35-.352-3.1.019-1.705-.168-3.73-.415-4.5-.249-.776-.54-5.501-.651-10.6-.206-9.348-.599-11.976-1.531-10.233-.27.503-.388 3.294-.32 7.517.132 8.102.131 19.554-.002 20.228-.054.276.426.545 1.104.619 2.804.305 2.075 1.652-.9 1.663l-1.7.006-.015-11.3c-.009-6.215-.028-13.311-.044-15.768-.033-5.277-.009-5.332 2.293-5.332 1.574 0 1.838.13 2.229 1.1m8.485-.491c.303.79.279 20.895-.027 22.141-.625 2.551-.955-1.137-.978-10.945-.014-5.945-.186-10.708-.39-10.834a.436.436 0 0 1-.136-.599c.358-.579 1.272-.438 1.531.237m-112.748.176c-.44.18-2.855.348-5.366.371-2.512.024-4.657.134-4.767.244-.433.433 9.453.092 11.333-.391 1.582-.407 1.749-.518.8-.533-.66-.011-1.56.128-2 .309m24.778 11.815c0 6.82.054 9.666.121 6.325s.067-8.921 0-12.4c-.066-3.479-.121-.745-.121 6.075m25.284-11.469c-.793.877-.922 6.12-.212 8.669.269.97.465 5.886.497 12.48.056 11.468.127 11.908 1.89 11.654 1.194-.172 1.473-1.352 1.063-4.495-.175-1.342-.478-3.699-.673-5.239-.195-1.54-.375-7.369-.4-12.954-.026-5.585-.143-10.31-.26-10.5-.351-.567-1.198-.395-1.905.385m20.103.204c.275.514.457 1.189.404 1.5-.052.311.028.843.179 1.183.764 1.72.078 12.178-.806 12.304-1.072.153-1.386-2.213-.863-6.522.676-5.579-.34-8.907-2.321-7.609l-1.072.702.265 7.854.513 15.356.248 7.503 1.146.297c1.417.367 1.471.987.125 1.436-1.259.42-2.82.062-3.118-.715-1.034-2.695-1.095-32.921-.068-33.672 1.323-.967 4.777-.721 5.368.383m-36.387.001-.978.488-.003 15.72c-.002 16.662-.003 16.654 1.881 16.387.92-.131.922-.147.931-6.731.005-3.63.086-10.893.179-16.14.185-10.414.11-10.781-2.01-9.724m82.561.079c-.13.338-.008 4.163.27 8.5.279 4.337.581 10.075.671 12.751.129 3.821.292 4.914.758 5.093 1.187.456 1.316-2.1.786-15.559-.147-3.74-.267-7.696-.268-8.79 0-1.106-.213-2.125-.478-2.294-.767-.487-1.485-.364-1.739.299m-74.286.391c-.174.453-.42 28.586-.277 31.718.016.358.499.485 1.524.4l1.5-.124-.077-5.2c-.043-2.86-.103-10.017-.135-15.904-.053-9.969-.108-10.732-.796-11.1-1.026-.549-1.468-.496-1.739.21m36.798-.106c.545.781.447 25.6-.102 25.783-.869.291-1.026-1.376-1.211-12.874-.207-12.816-.098-12.006-1.559-11.64l-1.058.266.319 9.483c.366 10.922.351 11.57-.29 12.343-.361.434-.364.685-.013 1.036.258.258.463 1.644.463 3.134 0 3.089.493 3.788 2.38 3.373 1.091-.239 1.208-.412 1.172-1.735-.075-2.735.701-3.825 1.059-1.489.453 2.953-.209 3.919-3.411 4.975-1.653.545-3.141-.617-2.425-1.895.25-.447.187-.86-.194-1.281-1.022-1.129-1.026-28.658-.005-29.408.959-.705 4.398-.755 4.875-.071m5.338.228-.899.729.657 10.971c.362 6.035.657 12.352.656 14.039-.003 3.539.213 4.333 1.178 4.333 2.032 0 2.58-3.487 1.413-8.993-.372-1.761-.668-6.178-.799-11.949-.243-10.667-.253-10.711-2.206-9.13M131 131.84l-2.8.532 2.8-.235c1.54-.129 3.79-.366 5-.527l2.2-.292-2.2-.005c-1.21-.003-3.46.235-5 .527m-9.884.857c1.383.078 3.543.077 4.8-.002 1.256-.079.124-.143-2.516-.142-2.64 0-3.668.065-2.284.144m-9.116.515c-.77.182-3.092.34-5.159.352-2.068.012-3.868.136-4 .277-.4.424 10.482-.109 11.559-.566l1-.424-1 .015c-.55.009-1.63.164-2.4.346m-17.1 1.079c.825.087 2.175.087 3 0 .825-.086.15-.157-1.5-.157s-2.325.071-1.5.157M88.109 140c0 .99.078 1.395.173.9a5.661 5.661 0 0 0 0-1.8c-.095-.495-.173-.09-.173.9m.381 3.8c-.006 1.1.134 2.45.31 3 .456 1.423.469-.678.02-3.2l-.32-1.8-.01 2m131.228 4.7c.164 1.338.107 11.642-.08 14.233-.124 1.725-1.044-.113-1.085-2.167-.052-2.642-.487-11.882-.585-12.42-.163-.901.096-1.346.787-1.346.588 0 .8.375.963 1.7M89.104 153c.087 2.64.221 4.98.296 5.2.268.783.1-7.622-.175-8.8-.155-.66-.209.96-.121 3.6m84.644 9c0 2.31.066 3.255.147 2.1a36.327 36.327 0 0 0 0-4.2c-.081-1.155-.147-.21-.147 2.1m-83.559-2.702c.412.23 2.022.486 3.58.567 3.645.192 2.32-.466-1.548-.769-2.053-.16-2.584-.107-2.032.202m8.311.978c.385.1 1.015.1 1.4 0 .385-.101.07-.183-.7-.183s-1.085.082-.7.183m3.205.011c.609.092 1.509.09 2-.005.492-.095-.005-.171-1.105-.168-1.1.003-1.503.081-.895.173m8.095.51c1.76.194 4.01.45 5 .569 1.151.138 1.582.087 1.195-.142-.333-.197-2.583-.453-5-.568-4.068-.195-4.157-.185-1.195.141m9.691 1.092c.71.088 1.97.09 2.8.003.83-.087.249-.159-1.291-.161-1.54-.002-2.219.069-1.509.158m6.909.517c1.43.161 4.04.4 5.8.532l3.2.24-3-.558c-1.65-.308-4.26-.547-5.8-.533l-2.8.027 2.6.292m15.2 1.204c4.531.535 9.469.806 7.2.395-.99-.179-3.69-.421-6-.537-3.835-.193-3.939-.181-1.2.142m9.905 1.073c.497.096 1.217.092 1.6-.008.382-.1-.025-.179-.905-.174-.88.004-1.193.086-.695.182m9.095.567c4.522.502 12.12.784 9.8.364-.99-.179-4.32-.414-7.4-.522-4.655-.163-5.06-.137-2.4.158" fill="#8e0950"/><path d="M318.4 56.2c.746.77 1.447 1.4 1.557 1.4.11 0-.411-.63-1.157-1.4-.746-.77-1.447-1.4-1.557-1.4-.11 0 .411.63 1.157 1.4m5.199 6.5c.523.715 1.014 1.3 1.09 1.3.304 0-.688-1.5-1.344-2.033-.432-.351-.335-.071.254.733m4.001 7.384c0 .34.299.865.665 1.167.609.502.622.464.146-.451-.697-1.341-.811-1.442-.811-.716m1.65 3.116c-.008.11.235 1.1.541 2.2.336 1.211.559 1.606.564 1 .007-.811-1.054-3.885-1.105-3.2m-29.965 5.213c-.267.427-.484 1.004-.483 1.282.002.278.275-.017.608-.655.693-1.329.601-1.79-.125-.627m31.521 1.82c.003.642.178 1.437.389 1.767.26.409.304.09.137-1-.303-1.977-.534-2.314-.526-.767M384 80.8l-1.8.28 1.876.06c1.032.033 1.988-.12 2.124-.34.136-.22.102-.373-.076-.34-.178.033-1.134.186-2.124.34m-5.695.283c.497.096 1.217.092 1.6-.008.382-.1-.025-.179-.905-.174-.88.004-1.193.086-.695.182m17.595.529c.691.278.915.714.964 1.875l.064 1.513.163-1.326c.18-1.456-.428-2.488-1.44-2.449-.441.018-.36.143.249.387m-25 .4c-.495.199-.9.469-.9.599s.177.127.394-.007c.216-.134 1.161-.395 2.1-.58 1.375-.271 1.473-.34.506-.355-.66-.01-1.605.144-2.1.343m-12.677 3.421c-.427.312-1.157.567-1.623.567-.466 0-1.196.264-1.624.587-.872.66-.533.812.529.237.382-.207 1.145-.475 1.695-.596 1.169-.258 2.259-.902 1.988-1.174-.104-.104-.538.067-.965.379m-143.679.236c-7.746.515-8.563 1.511-7.542 9.205.613 4.629 1.167 13.405 1.412 22.397.129 4.706-.057 4.656 18.073 4.815 11.723.103 12.741.057 13.4-.601 1.011-1.011 1.329-34.642.335-35.466-.687-.571-18.667-.815-25.678-.35m24.789.961c.714.274.556 32.882-.166 34.231-.338.632-.9.739-3.881.738-7.222-.004-24.668-.852-25.114-1.222-.284-.236-.651-3.147-.943-7.481-.541-8-1.588-22.291-1.67-22.777-.25-1.487.848-2.496 3.638-3.345 1.163-.354 27.242-.487 28.136-.144m-19.452 1.239c-.291.471.395 15.207.734 15.756.141.227.427 3.598.635 7.489.431 8.021.323 7.775 3.505 8.005 2.973.215 3.912-.765 3.459-3.614-.25-1.579-.852-15.75-.965-22.731l-.049-3.027-1.585-.89c-1.706-.959-5.362-1.589-5.734-.988m11.754.654-1.366.477.142 10.6c.078 5.83.153 12.43.166 14.667.012 2.236.142 4.186.288 4.331.406.406 4.822.536 5.8.171 1.273-.475 1.274-9.23.003-10.501l-.801-.801-.313.846c-.322.871.18 4.863.908 7.217.503 1.625.422 1.714-1.79 1.963-2.454.277-2.371.72-2.514-13.447-.14-13.857-.123-14.046 1.22-14.046 1.521 0 1.747.756 1.786 6 .049 6.312.4 9.679.989 9.482.821-.274.421-16.365-.421-16.981-.842-.616-2.296-.608-4.097.022m-35.835.545c-1.54.259-3.52.646-4.4.86-.88.215-3.13.515-5 .667-1.87.151-3.585.428-3.81.615-.226.186-1.846.436-3.6.554-1.755.118-4.18.408-5.39.644-1.21.236-4.36.671-7 .968-2.64.296-5.43.727-6.2.957-.77.231-3.001.519-4.957.642-1.957.122-3.762.392-4.012.599-.249.207-1.888.499-3.642.649-1.754.151-3.729.513-4.389.806-.66.293-1.83.603-2.6.688-1.339.148-1.327.158.274.219.921.035 2.173-.126 2.782-.357.609-.232 3.006-.678 5.326-.991 2.32-.312 5.208-.746 6.418-.962 1.21-.217 4.81-.755 8-1.195 3.19-.441 7.15-.998 8.8-1.238 1.65-.24 4.574-.612 6.499-.827 1.924-.214 4.354-.571 5.4-.792 1.045-.221 3.356-.57 5.133-.775 1.778-.206 4.291-.65 5.585-.986 3.365-.877 6.972-.832 7.019.087.019.385.182 2.86.36 5.5.719 10.619 1.306 24.157 1.075 24.76-.192.499-.844.641-2.958.646-1.492.003-6.493.285-11.113.627-4.62.342-10.56.615-13.2.606-2.64-.009-6.69.153-9 .36-2.31.207-7.763.646-12.117.975-4.355.33-8.059.688-8.232.795-.536.331-17.683 1.504-18.334 1.255-.54-.208-.572-1.188-.266-8.13.192-4.342.296-9.718.231-11.948-.144-4.95-.058-5.065 4.282-5.74 2.959-.461 5.709-1.56 3.986-1.593-.357-.007-1.37.241-2.251.552-.881.311-2.619.692-3.862.848-2.919.364-3.033.619-2.878 6.431.07 2.616-.004 7.816-.166 11.556-.422 9.792-.788 9.392 7.756 8.471 3.328-.359 7.581-.747 9.451-.862 1.87-.114 4.03-.377 4.8-.583.77-.206 4.1-.471 7.4-.588 3.3-.117 6.99-.417 8.2-.666 1.21-.25 4.81-.51 8-.58 14.402-.313 29.816-1.116 30.319-1.58.658-.607.691-16.015.042-19.612-.238-1.32-.505-3.66-.593-5.2-.502-8.739-.081-8.321-7.168-7.132m15.744.097c-1.103.892-1.162 2.911-.578 19.635.379 10.869.187 10.4 4.261 10.4 1.658 0 2.829-.19 3.08-.5.451-.558.042-6.611-.507-7.5-.182-.294-.436-5.3-.565-11.124L217 89.487l-2-.526c-2.563-.674-2.357-.686-3.456.204m9.747.272c-.145.757-.29.892-.539.5-.511-.808-.42-1.537.193-1.537.37 0 .481.332.346 1.037m3.23 1.303c.645.745 1.087 4.059 1.286 9.66.075 2.09.256 6.631.403 10.091l.267 6.291-1.013.462c-2.036.927-2.261.441-2.292-4.931-.016-2.702-.176-6.263-.357-7.913-1.14-10.44-1.298-12.9-.887-13.802.478-1.048 1.615-.986 2.593.142m-10.025-.008c.625.248.714 1.206.874 9.472.123 6.368.369 9.996.798 11.796.89 3.73.832 5.054-.233 5.333-1.756.459-2.196-.251-2.481-4.015a341.905 341.905 0 0 0-.441-5.318c-.096-.99-.263-5.124-.37-9.187-.218-8.24-.079-8.847 1.853-8.081m126.079 4.133c-1.173 1.263-1.173 1.264-.092.5.596-.421 1.175-.99 1.287-1.265.311-.759.088-.616-1.195.765m-38.781 4.236c1.165 2.292 1.401 2.636 1.404 2.043.001-.36-.372-1.08-.828-1.6-.457-.519-.716-.718-.576-.443m29.242 3.744c-.153 2.225-.195 4.13-.092 4.233.317.316 1.856-.676 1.85-1.192-.004-.333-.116-.312-.355.065-.845 1.334-1.223-.053-.973-3.571.139-1.969.163-3.58.051-3.58-.111 0-.328 1.82-.481 4.045m57.342-.545L387 103.8l1.5-1.378c1.396-1.284 1.684-1.622 1.378-1.622-.066 0-.741.675-1.5 1.5m-11.003 9.4L376.2 113l1.3-1.175c.715-.646 1.3-1.231 1.3-1.3 0-.309-.33-.037-1.425 1.175M368 117.2c-.77.422-1.256.774-1.08.783.424.022 2.68-1.151 2.68-1.393 0-.262-.023-.253-1.6.61m-55.972 1c0 .22.258.85.572 1.4.314.55.572.82.572.6 0-.22-.258-.85-.572-1.4-.314-.55-.572-.82-.572-.6M363 120c-.66.437-.995.796-.744.797.437.003 2.555-1.559 2.144-1.581-.11-.006-.74.347-1.4.784m-48.994 5.033c.003.422.189 1.037.412 1.367.297.438.334.276.138-.6-.329-1.471-.558-1.79-.55-.767m-136.333.894c-2.132 2.132-2.447 39.111-.348 40.799 1.167.938 27.437 1.683 28.171.799.362-.436.387-2.171.103-7.144-.206-3.612-.401-9.181-.434-12.374-.1-9.944-.889-21.19-1.513-21.575-.461-.285-12.041-.844-15.252-.737-.55.018-3.016-.095-5.479-.252-4.103-.261-4.544-.22-5.248.484m90.62-.486c-.133.132-5.069.481-10.969.775-11.59.576-12.03.645-12.334 1.928-.111.471-.259 8.416-.328 17.656-.069 9.24-.263 17.19-.432 17.666-.768 2.176 1.682 2.344 11.57.793l7-1.099c1.65-.259 3.99-.586 5.2-.725 2.944-.339 3.2-.56 3.201-2.759.001-1.032.172-3.406.381-5.276.538-4.821.825-27.687.358-28.522-.371-.663-3.095-.989-3.647-.437m-58.686 1.151c-.395.475-.451 3.746-.26 15.107.134 7.976.246 16.796.248 19.601.007 7.595-1.062 7.291 20.205 5.751 4.62-.334 8.634-.618 8.92-.629 1.005-.042 1.784-2.88 1.761-6.422-.011-1.87.002-5.47.029-8 .129-11.729.022-22.298-.236-23.288-.464-1.784-1.119-1.877-14.726-2.111-7.121-.122-13.508-.311-14.193-.419-.821-.13-1.415.009-1.748.41m61.23-.172c.739.395.772.749.572 6.1-.118 3.124-.315 9.01-.438 13.08-.124 4.07-.348 9.29-.498 11.6l-.273 4.2-3.6.435c-4.873.588-12.754 1.724-15.2 2.191-1.1.21-2.876.425-3.947.478l-1.946.096.07-18c.039-9.9.221-18.152.404-18.338.376-.38 5.625-.86 16.206-1.481 3.953-.232 7.268-.503 7.367-.601.257-.258.405-.23 1.283.24m-67.737.505c.359.231.507 1.92.526 5.999.014 3.122.199 8.286.411 11.476.937 14.082 1.084 21.769.427 22.301-.632.511-2.315.496-15.864-.143-3.08-.146-6.86-.285-8.4-.311l-2.8-.047-.226-4.2c-.724-13.431-.204-34.547.868-35.244.683-.444 24.354-.285 25.058.169m-30.754.062c-.102.103-2.427.3-5.166.439-2.739.139-5.753.514-6.697.835-.944.32-2.072.47-2.506.332-.434-.138-2.361-.06-4.283.173-1.922.233-6.014.535-9.094.671-3.08.136-5.903.408-6.274.605-.37.197-1.81.359-3.2.359-1.389.001-4.056.169-5.926.374a293.934 293.934 0 0 1-19.6 1.482c-3.63.153-7.32.342-8.2.419-.88.078-3.49.31-5.8.517-2.31.206-4.742.28-5.404.164-.662-.115-1.723-.013-2.357.228l-1.152.438.293 2.889c.161 1.588.444 5.588.628 8.888.874 15.656.318 14.777 9.59 15.154 3.774.153 7.756.448 8.848.655 1.092.207 5.263.564 9.269.794 4.007.23 7.735.583 8.285.785.55.202 4.69.554 9.2.781 4.51.228 8.83.581 9.6.784.77.204 4.07.485 7.332.624 3.263.139 8.033.509 10.6.823 11.711 1.429 15.534.928 15.128-1.984-.124-.889-.408-2.876-.63-4.416-.222-1.54-.41-9.379-.417-17.42-.013-14.719-.092-15.58-1.426-15.58-.25 0-.538.084-.641.187m46.054.356c.99.134 6.007.317 11.149.407 7.307.126 9.426.281 9.7.706.676 1.047.238 35.829-.46 36.527-.744.744-6.542 1.259-18.641 1.657l-8.453.277-.675-1.031c-.521-.794-.661-1.841-.612-4.559.035-1.94-.062-10.231-.215-18.425-.154-8.194-.193-15.124-.087-15.4.206-.535 4.86-.624 8.294-.159m131.4.284c-.66.423-.995.77-.744.771.25.001.88-.352 1.4-.785 1.189-.99.903-.984-.656.014m-175.771 18.797c.127 10.243.359 18.833.517 19.088.684 1.108-3.705 1.1-16.946-.027-4.07-.347-8.888-.724-10.707-.839-1.819-.114-3.485-.317-3.701-.451-.216-.133-3.228-.415-6.692-.625-3.465-.211-9.27-.665-12.9-1.009-10.292-.976-14.716-1.322-24.329-1.906-6.541-.397-9.07-.69-9.457-1.098-.641-.676-2.642-23.305-2.176-24.607.286-.801.676-.868 6.633-1.145 3.481-.162 7.229-.353 8.329-.426 1.1-.072 4.066-.246 6.59-.387 2.525-.141 4.689-.317 4.809-.392.121-.074 3.005-.251 6.41-.393 3.405-.143 8.171-.507 10.591-.81 4.162-.522 7.576-.813 14-1.192 1.54-.09 4.06-.348 5.6-.572 1.54-.224 4.241-.413 6.003-.42 1.761-.007 3.831-.205 4.6-.439 1.819-.555 6.271-1.003 9.797-.987l2.8.013.229 18.624m24.171-18.135c-1.951.48-1.939.394-1.679 11.789.17 7.395.396 10.921.739 11.469.381.61.389 1.132.034 2.289-.382 1.243-.35 1.684.187 2.593.519.879.559 1.321.203 2.233-.277.707-.339 2.047-.165 3.538l.281 2.4 2.852.117c2.793.114 2.859.094 3.119-.945.455-1.81-.21-9.846-.925-11.172-.556-1.032-.631-2.632-.536-11.448.14-13.061-.111-13.846-4.11-12.863m65.738.573c-.859.859-.861.901-.522 12.3.187 6.291.361 12.518.386 13.838.067 3.532.634 4.345 2.857 4.094.979-.11 1.907-.326 2.061-.48.65-.651.077-29.154-.601-29.904-.904-.998-3.111-.918-4.181.152m82.762.567c-.825.541-1.5 1.064-1.5 1.163 0 .265 2.763-1.409 3.025-1.832.311-.503.173-.443-1.525.669m-164.3-.264-2.2.235-.458 3.6c-1.104 8.688-.936 30.562.247 31.987.46.554 4.722.346 5.491-.268.359-.287.475-4.375.461-16.251-.013-10.855.123-16.233.431-17.024.471-1.209-.316-2.73-1.334-2.579-.241.036-1.428.171-2.638.3m73.639.403c-.678.428-.683 28.029-.006 29.294.626 1.17 2.092 1.294 3.968.337 1.982-1.011 1.691-1.716-.503-1.221-2.039.46-1.919 1.231-2.113-13.585l-.174-13.215.994-.453c1.147-.523 1.263-.936.362-1.282-.887-.341-1.87-.292-2.528.125m-66.039.324c-.33.125-.721.413-.868.64-.272.419-.97 7.57-.846 8.668.037.33.078 1.86.091 3.4.159 19.157.182 20.507.365 22.107.072.631 4.741.37 5.415-.303.46-.46.871-32.083.441-33.904-.215-.908-2.884-1.261-4.598-.608m41.27.634c-1.24 1.319-1.028 26.826.263 31.674.419 1.573 2.454 1.831 4.84.614l1.63-.832-.234-4.691c-.129-2.58-.398-5.141-.598-5.691-.2-.55-.423-5.51-.496-11.023-.073-5.513-.265-10.238-.428-10.5-.551-.893-4.01-.581-4.977.449m17.31-.494c-.147.238-.254 2.443-.239 4.9.016 2.457.035 9.553.044 15.768l.015 11.3 1.7-.006c2.975-.011 3.704-1.358.9-1.663-.678-.074-1.158-.343-1.104-.619.133-.674.134-12.126.002-20.228-.068-4.223.05-7.014.32-7.517.932-1.743 1.325.885 1.531 10.233.111 5.099.402 9.824.651 10.6.247.77.434 2.795.415 4.5-.032 2.839.316 3.782.992 2.689.14-.227.218-2.972.175-6.1-.347-24.8-.276-24.289-3.348-24.289-.983 0-1.907.194-2.054.432m11.237-.06a.436.436 0 0 0 .136.599c.204.126.376 4.889.39 10.834.023 9.808.353 13.496.978 10.945.306-1.246.33-21.351.027-22.141-.259-.675-1.173-.816-1.531-.237m-59.25.374c.117.19.234 4.915.26 10.5.025 5.585.205 11.414.4 12.954.195 1.54.498 3.897.673 5.239.41 3.143.131 4.323-1.063 4.495-1.763.254-1.834-.186-1.89-11.654-.032-6.594-.228-11.51-.497-12.48-1.315-4.725.361-11.894 2.117-9.054m12.83.206c-1.027.751-.966 30.977.068 33.672.298.777 1.859 1.135 3.118.715 1.346-.449 1.292-1.069-.125-1.436l-1.146-.297-.248-7.503-.513-15.356-.265-7.854 1.072-.702c1.981-1.298 2.997 2.03 2.321 7.609-.523 4.309-.209 6.675.863 6.522.884-.126 1.57-10.584.806-12.304-.151-.34-.231-.872-.179-1.183.36-2.124-3.652-3.432-5.772-1.883m-29.009 10.108c-.093 5.247-.174 12.51-.179 16.14-.009 6.584-.011 6.6-.931 6.731-1.884.267-1.883.275-1.881-16.387l.003-15.72.978-.488c2.12-1.057 2.195-.69 2.01 9.724m82.29-9.944c.265.169.478 1.188.478 2.294.001 1.094.121 5.05.268 8.79.53 13.459.401 16.015-.786 15.559-.466-.179-.629-1.272-.758-5.093-.09-2.676-.392-8.414-.671-12.751-.583-9.079-.428-10.005 1.469-8.799m-74.286.48c.688.368.743 1.131.796 11.1.032 5.887.092 13.044.135 15.904l.077 5.2-1.5.124c-1.025.085-1.508-.042-1.524-.4-.143-3.132.103-31.265.277-31.718.271-.706.713-.759 1.739-.21m30.184.175c-1.021.75-1.017 28.279.005 29.408.381.421.444.834.194 1.281-.716 1.278.772 2.44 2.425 1.895 3.202-1.056 3.864-2.022 3.411-4.975-.358-2.336-1.134-1.246-1.059 1.489.036 1.323-.081 1.496-1.172 1.735-1.887.415-2.38-.284-2.38-3.373 0-1.49-.205-2.876-.463-3.134-.351-.351-.348-.602.013-1.036.641-.773.656-1.421.29-12.343l-.319-9.483 1.058-.266c1.461-.366 1.352-1.176 1.559 11.64.185 11.498.342 13.165 1.211 12.874.549-.183.647-25.002.102-25.783-.477-.684-3.916-.634-4.875.071m11.994-.22c.119.193.31 4.471.425 9.507.131 5.771.427 10.188.799 11.949 1.167 5.506.619 8.993-1.413 8.993-.965 0-1.181-.794-1.178-4.333.001-1.687-.294-8.004-.656-14.039l-.657-10.971.899-.729c.996-.806 1.455-.903 1.781-.377m79.726 3.049c-.166 1.1-.388 2.54-.495 3.2-.107.66.074.3.404-.8.329-1.1.551-2.54.495-3.2-.08-.921-.174-.735-.404.8m-100.809 3.695c-.092.608-.17.205-.173-.895-.003-1.1.073-1.597.168-1.105.095.491.097 1.391.005 2m122.42.431c-.372.591-.976 1.524-1.341 2.074l-.664 1 .867-1c1.286-1.481 2.161-2.803 1.978-2.987-.089-.089-.467.322-.84.913m-122.42 3.974c-.092.605-.167.11-.167-1.1 0-1.21.075-1.705.167-1.1a8.899 8.899 0 0 1 0 2.2m99.17-1.8-.715 1.3.829-.944c.716-.816 1.079-1.656.715-1.656-.062 0-.435.585-.829 1.3m19.983 2.34c-.468.938-.485 1.13-.073.787.492-.408 1.151-2.027.825-2.027-.073 0-.412.558-.752 1.24m-75.953 2.655c-.092.608-.17.205-.173-.895-.003-1.1.073-1.597.168-1.105.095.491.097 1.391.005 2m-43.204.2c-.096.498-.178.185-.182-.695-.005-.88.074-1.287.174-.905.1.383.104 1.103.008 1.6m117.625.613c-.873 2.427-.605 2.696.307.307.385-1.008.624-1.909.532-2.002-.093-.093-.471.67-.839 1.695m-113.155.992a3.81 3.81 0 0 0 .015.846c.098.538.533 9.778.585 12.42.041 2.054.961 3.892 1.085 2.167.187-2.591.244-12.895.08-14.233-.201-1.636-1.632-2.609-1.765-1.2m38.723 1.4c-.101.385-.183.07-.183-.7s.082-1.085.183-.7c.1.385.1 1.015 0 1.4m0 4.4c-.101.385-.183.07-.183-.7s.082-1.085.183-.7c.1.385.1 1.015 0 1.4m72.282 4.3c0 3.08.063 4.287.139 2.682.076-1.604.076-4.124-.001-5.6-.077-1.475-.139-.162-.138 2.918M42.7 164.693c.935.084 2.465.084 3.4 0s.17-.153-1.7-.153c-1.87 0-2.635.069-1.7.153m-32.469 1.385c-.347.495-.624 1.085-.615 1.311.009.226.292-.098.629-.72.611-1.126.625-1.13 4.153-1.002 1.947.071 3.653.015 3.792-.124.139-.139-1.453-.278-3.538-.309-3.511-.053-3.837.01-4.421.844m65.962-.552c.101.101 1.365.21 2.808.243 1.775.039 2.336-.048 1.733-.272-.903-.334-4.879-.309-4.541.029m194.407 1.488c-1.615.74-.649.741 1.054.002.74-.322 1.076-.577.746-.568-.33.009-1.14.264-1.8.566m-171.4.186c.55.176 1.54.32 2.2.32 1.167 0 1.172-.009.2-.32-.55-.176-1.54-.32-2.2-.32-1.167 0-1.172.009-.2.32m5.705.687c.609.092 1.509.09 2-.005.492-.095-.005-.171-1.105-.168-1.1.003-1.503.081-.895.173M329.519 177c.105 4.84.257 8.875.337 8.967.255.294.075-10.851-.233-14.367-.174-1.989-.217.251-.104 5.4m-210.014-7.917c.497.096 1.217.092 1.6-.008.382-.1-.025-.179-.905-.174-.88.004-1.193.086-.695.182m3.795.393c.385.1 1.015.1 1.4 0 .385-.101.07-.183-.7-.183s-1.085.082-.7.183m3.533.274c.092.082 1.247.25 2.567.373 1.578.147 1.989.112 1.2-.103-1.234-.335-4.064-.538-3.767-.27M257.6 170c-.33.213-1.05.415-1.6.448-.819.05-.852.09-.185.223.448.089 1.438-.108 2.2-.439.762-.33 1.115-.605.785-.61-.33-.005-.87.165-1.2.378m-117.1 1.087a8.899 8.899 0 0 0 2.2 0c.605-.092.11-.167-1.1-.167-1.21 0-1.705.075-1.1.167m3.933.259c.092.08 1.157.248 2.367.373 1.42.147 1.846.11 1.2-.106-.991-.33-3.887-.548-3.567-.267m7.872.937c.497.096 1.217.092 1.6-.008.382-.1-.025-.179-.905-.174-.88.004-1.193.086-.695.182m9.495.517c.44.189 1.07.344 1.4.344.378 0 .304-.127-.2-.344-.44-.189-1.07-.344-1.4-.344-.378 0-.304.127.2.344m3.4-.266c0 .103.581.39 1.291.638.71.247 1.115.285.9.084-.456-.427-2.191-.998-2.191-.722m73.452.147c-.154.155-1.669.397-3.366.54l-3.086.258 2.6.043c2.072.033 6.251-.963 4.567-1.09-.239-.017-.56.094-.715.249m-62.552 1.195c.385.1 1.015.1 1.4 0 .385-.101.07-.183-.7-.183s-1.085.082-.7.183m17.007.414c.719.089 1.799.087 2.4-.004s.013-.164-1.307-.162c-1.32.002-1.812.077-1.093.166m14.494-.012c0 .332 6.638.417 6.966.088.101-.101-1.425-.235-3.391-.297-1.967-.063-3.576.031-3.575.209M329.72 188.8c0 1.21.075 1.705.167 1.1a8.899 8.899 0 0 0 0-2.2c-.092-.605-.167-.11-.167 1.1m-322.769 4c0 2.53.065 3.565.145 2.3a44.671 44.671 0 0 0 0-4.6c-.08-1.265-.145-.23-.145 2.3m322.427 3.778c-.151.803-.184 1.549-.074 1.659.11.11.323-.456.474-1.259.15-.803.184-1.55.074-1.66-.11-.11-.324.457-.474 1.26M6.893 200c0 .77.082 1.085.183.7.1-.385.1-1.015 0-1.4-.101-.385-.183-.07-.183.7m322.423.287c-.027.984.072 1.26.316.875.446-.704.471-1.851.047-2.113-.177-.11-.34.448-.363 1.238M6.893 205.6c0 .77.082 1.085.183.7.1-.385.1-1.015 0-1.4-.101-.385-.183-.07-.183.7m.016 3.6c0 .99.078 1.395.173.9a5.661 5.661 0 0 0 0-1.8c-.095-.495-.173-.09-.173.9m321.6 3.2c0 .99.078 1.395.173.9a5.661 5.661 0 0 0 0-1.8c-.095-.495-.173-.09-.173.9m-322.103.033c.003.532.183 1.237.4 1.567.276.422.317.185.136-.8-.317-1.725-.544-2.051-.536-.767m172.494 1.054a8.899 8.899 0 0 0 2.2 0c.605-.092.11-.167-1.1-.167-1.21 0-1.705.075-1.1.167m7.6.789c.385.1 1.015.1 1.4 0 .385-.101.07-.183-.7-.183s-1.085.082-.7.183m141.57 2.124c-.044 1.21-.174 2.65-.287 3.2l-.206 1 .429-.982c.236-.54.365-1.98.287-3.2l-.142-2.218-.081 2.2m-.769 5.8c.004.88.086 1.193.182.695.096-.497.092-1.217-.008-1.6-.1-.382-.179.025-.174.905m-167.938 1.1c-1.105 1.155-2.259 2.46-2.564 2.9-.306.44.124.08.955-.8s2.071-2.185 2.757-2.9c.685-.715 1.159-1.3 1.054-1.3-.106 0-1.097.945-2.202 2.1m42.453 0c.854 1.045 1.612 1.9 1.683 1.9.362 0-.786-1.544-1.933-2.6-1.198-1.103-1.178-1.047.25.7m-194.21.133c.003.642.178 1.437.389 1.767.26.409.304.09.137-1-.303-1.977-.534-2.314-.526-.767m318.879 4.18c-.267.427-.484 1.004-.483 1.282.002.278.275-.017.608-.655.693-1.329.601-1.79-.125-.627m-170.986.603c-.89 1.19-1.654 3.127-1.098 2.783.22-.135.399-.481.399-.769 0-.287.381-1.006.846-1.597.465-.591.78-1.138.7-1.215-.08-.077-.461.282-.847.798m50.025 1.584c.202.44.468 1.07.59 1.4.193.518.227.515.254-.024.018-.342-.248-.972-.59-1.4-.612-.764-.616-.763-.254.024m-53.423 8c.004.88.086 1.193.182.695.096-.497.092-1.217-.008-1.6-.1-.382-.179.025-.174.905m54.802 1.477-.011 2.923.313-2.6c.172-1.43.177-2.745.011-2.923-.166-.178-.307.992-.313 2.6m116.747-.627c-.264.579-.388 1.145-.276 1.257.112.112.394-.296.626-.907.232-.611.357-1.177.276-1.257-.08-.081-.362.328-.626.907m-312.568 3.371c.126.978.293 1.854.373 1.946.326.375.105-2.612-.234-3.146-.237-.375-.286.049-.139 1.2m143.718 9.368c0 .487 3.217 4.383 3.935 4.765.366.194.02-.346-.769-1.2-.788-.855-1.823-2.073-2.3-2.708-.476-.635-.866-1.02-.866-.857m46.1 2.227c-1.263 1.559-1.129 1.917.15.398.577-.686.982-1.306.9-1.378-.083-.072-.555.369-1.05.98m114.367 3.851c-.709 1.234-1.232 2.301-1.162 2.372.071.07.723-.867 1.451-2.083.727-1.216 1.249-2.284 1.161-2.372-.089-.089-.741.848-1.45 2.083M117 261.414c-1 .482-1.034.537-.2.334 1.133-.277 2.407-.927 1.8-.918-.22.003-.94.266-1.6.584m52.546.802c.74.321 1.55.577 1.8.568.25-.008-.152-.278-.892-.6-.74-.321-1.55-.577-1.8-.568-.25.008.152.278.892.6m16.654-.002c-.66.303-.93.552-.6.554.33.002 1.05-.254 1.6-.568 1.265-.723.589-.713-1 .014m-79.6 2c-.66.303-.93.55-.6.55.33 0 1.14-.247 1.8-.55.66-.302.93-.549.6-.549-.33 0-1.14.247-1.8.549m202.678 3.105c-.703.726-1.278 1.446-1.278 1.6 0 .282.741-.42 2.162-2.046 1.178-1.349.548-1.031-.884.446M46.2 267.2c.66.168 1.65.305 2.2.305.892 0 .87-.033-.2-.305-.66-.168-1.65-.305-2.2-.305-.892 0-.87.033.2.305m45.6 0-.8.344.8-.012c.44-.006 1.25-.156 1.8-.332l1-.32-1-.012c-.55-.006-1.36.143-1.8.332m-4.5.687a8.899 8.899 0 0 0 2.2 0c.605-.092.11-.167-1.1-.167-1.21 0-1.705.075-1.1.167m-7.9.513-1.6.286 1.476.057c.812.031 1.588-.123 1.724-.343.136-.22.192-.374.124-.343-.068.031-.844.185-1.724.343m-17.895.283c.497.096 1.217.092 1.6-.008.382-.1-.025-.179-.905-.174-.88.004-1.193.086-.695.182m4.395.412c1.155.081 3.045.081 4.2 0 1.155-.081.21-.147-2.1-.147s-3.255.066-2.1.147m7.591-.006c.71.088 1.97.09 2.8.003.83-.087.249-.159-1.291-.161-1.54-.002-2.219.069-1.509.158m231.891 3.217c-.23.162-.816 1.014-1.303 1.894-.497.898-.577 1.186-.183.656a28.861 28.861 0 0 1 1.586-1.9c.842-.913.787-1.273-.1-.65m-6.807 8.194-1.175 1.3 1.3-1.175c.715-.646 1.3-1.231 1.3-1.3 0-.309-.33-.037-1.425 1.175m-8.071 7.951c-2.961 2.635-4.305 4.01-2.504 2.563 2.19-1.761 5.312-4.614 5.047-4.614-.131 0-1.275.923-2.543 2.051M275.8 300.027c-.66.423-.995.77-.744.771.25.001.88-.352 1.4-.785 1.189-.99.903-.984-.656.014m-20 12c-.66.423-.995.77-.744.771.25.001.88-.352 1.4-.785 1.189-.99.903-.984-.656.014m-3.141 1.574c-.848.424-1.748.937-2 1.141-.253.205-.819.46-1.259.569-.764.187-.761.198.046.243.465.025 1.304-.314 1.863-.754.56-.44 1.179-.8 1.378-.8.198 0 .709-.264 1.137-.587 1.048-.793.683-.734-1.165.188m-5.635 2.612c-.428.323-.597.587-.377.587.22 0 .749-.264 1.177-.587.427-.323.596-.588.376-.588-.22 0-.749.265-1.176.588m-17.418 7.41c-.766.427-1.121.777-.789.777.333 0 .96-.248 1.394-.552.434-.303 1.149-.643 1.589-.754l.8-.201-.8-.024c-.44-.013-1.427.327-2.194.754M221.2 326.6c-.55.314-.82.572-.6.572.22 0 .85-.258 1.4-.572.55-.314.82-.572.6-.572-.22 0-.85.258-1.4.572m-4.344 1.459c-.739.213-1.269.461-1.177.553.202.202 3.121-.575 3.121-.831 0-.235-.318-.19-1.944.278" fill="#8e0950"/><path d="M197.24 90.202c-.748.336-2.908.77-4.8.966-1.892.196-4.16.549-5.04.784-.88.235-3.31.539-5.4.675-2.09.137-4.52.49-5.4.786-.88.296-3.112.654-4.96.795-1.848.142-3.828.438-4.4.659-.572.22-2.75.568-4.84.771-4.626.451-5.334.553-5.82.841-.209.123-2 .35-3.98.505-1.98.154-4.324.519-5.21.812-.885.294-3.135.664-5 .823-1.864.16-3.84.472-4.39.694-.55.222-1.99.54-3.2.706-1.21.166-2.875.592-3.7.947l-1.5.645-.018 6.894c-.016 6.414-.261 9.898-1.002 14.248l-.299 1.752 6.759-.212c3.718-.117 7.362-.403 8.098-.636.737-.233 4.337-.536 8-.674 3.664-.138 7.565-.498 8.669-.801 1.341-.368 5.382-.618 12.181-.755 5.595-.113 11.082-.397 12.192-.631 1.111-.234 5.8-.554 10.42-.711l8.4-.285.121-2.334c.067-1.285-.075-2.57-.315-2.859-.27-.325-.605-5.081-.877-12.466-.243-6.568-.483-11.994-.535-12.058-.371-.459-3.033-.383-4.154.119m-31.44 38.817c-1.32.304-4.83.673-7.8.821-2.97.148-5.738.443-6.152.656-.413.213-3.833.545-7.6.737-3.766.192-8.648.615-10.848.939-2.2.324-6.34.613-9.2.642-2.86.03-6.28.218-7.6.42-3.903.596-13.49 1.149-21.1 1.216-6.917.062-7.101.085-7.152.907-.112 1.829.137 5.022.682 8.74.313 2.144.57 6.228.57 9.077 0 3.16.162 5.279.417 5.436.748.463 6.418.981 15.383 1.406 5.027.238 9.755.667 11.026 1 1.225.321 4.015.588 6.2.592 2.186.004 5.954.287 8.374.629 2.42.343 5.48.68 6.8.751 10.476.562 12.4.708 13.168 1 .479.182 5.272.543 10.651.803 5.38.259 10.186.667 10.68.907 1.368.663 1.343 1.09.946-16.54-.205-9.107-.276-17.503-.158-18.658l.215-2.1-2.551.034c-1.403.018-3.631.281-4.951.585" fill="#ed56a8"/></g></svg>