<svg width="16" height="16" xmlns="http://www.w3.org/2000/svg"><path fill="#f08704" opacity=".9" d="M15.39 15.454H.669V.576H15.39zm-6.184-5.227v2.15c0 .446.358.808.8.808h2.758c.442 0 .8-.362.8-.808v-2.15a.804.804 0 0 0-.8-.808h-1.529l-1.627-2.8a.807.807 0 0 0 .615-.787V3.653a.804.804 0 0 0-.8-.808H6.665c-.442 0-.8.362-.8.808v2.18c0 .372.25.685.589.779L4.823 9.419H3.294c-.441 0-.8.361-.8.808v2.15c0 .446.359.808.8.808h2.759c.441 0 .8-.362.8-.808v-2.15c0-.488-.249-.808-1.03-.808L7.437 6.64h1.241l1.615 2.779c-.787-.055-1.108.467-1.087.808z"/></svg>