<svg viewBox="0 0 32 32" width="16" height="16" xmlns="http://www.w3.org/2000/svg"><path fill="#dcd5f2" d="M26.791 20.649c-2.438.18-3.6 1.359-3.487 3.537.02.427-.197.6-.65.52-.295-.053-.425-.23-.392-.53.073-.561.681-.019.125-.822.549.855.012.012-.149.554l-2.491 4.135c-2.625 2.686-5.153 2.67-7.585-.05-1.192-1.332-2.375-1.673-3.737-2.705.581-1.523.501-2.746-.24-3.667a1.102 1.102 0 0 0-.862-.441c-1.47-.073-2.228-.618-2.275-1.633-.39-3.127 1.162-4.119 2.746-6.453a.546.546 0 0 0-.18-.792C2.302 9.276 3.554.95 10.107 2.773c.247.067.43.21.551.43l1.704 3.187c.153.282.45.456.771.451l5.641-.05c.368-.007.635-.17.802-.49l1.513-2.887c.174-.328.469-.576.822-.691 5.08-1.623 7.124 4.038 4.679 7.725-.591.872-1.633 1.453-2.465 2.305a.551.551 0 0 0 .06.812c2.265 1.777 3.133 4.138 2.605 7.084zm-13.126-5.21a1.393 1.393 0 1 0-2.786.002 1.393 1.393 0 0 0 2.786-.003zm7.385 0a1.393 1.393 0 1 0-2.786.002 1.393 1.393 0 0 0 2.786-.003zm-3.076 10.33-3.988.04a.15.15 0 0 0-.15.15v.08c.01.969.849 1.745 1.873 1.734h.581c1.024-.012 1.845-.806 1.834-1.774v-.08a.15.15 0 0 0-.15-.15z" style="stroke:#c5bad3;stroke-width:1.2525;stroke-opacity:1"/><circle fill="#34404d" cx="12.272" cy="15.438" r="1.393" style="stroke-width:1.002"/><circle fill="#34404d" cx="19.657" cy="15.438" r="1.393" style="stroke-width:1.002"/><path fill="#b9aad1" fill-opacity=".996" d="M5.048 19.547c.047 1.015.805 1.56 2.275 1.633.353.013.64.16.861.44.742.922.822 2.145.24 3.668l-.67-.611-1.093-1.042c-.74-1.517-2.12-2.112-4.138-1.785a.265.265 0 0 1-.31-.28c.007-.107.01-.21.01-.311 0-.167.083-.25.25-.25h1.984c.313 0 .483-.157.51-.471zm21.743 1.102c-.08-.28-.07-.13.03.45l-.05.892c-.567.314-1.148 1.009-1.743 2.085.307-.555.21-.418-.29.41l-4.99 3.558 1.7-3.07c.16-.541.578-1.24.86-.751.28.487.027-.608-.046-.047-.033.3-.022-1.301.272-.695.218-1.183.79.184.77-.243-.113-2.178 1.049-2.409 3.487-2.589z" style="stroke-width:1.002"/><path fill="#7b7583" fill-opacity=".992" d="m26.822 21.1 2.685-.15a.27.26 89.1 0 1 .28.28q-.01.15-.01.29 0 .15-.15.17l-2.856.301zm-20.16 2.535 1.091 1.042-5.28.601a.25.25 0 0 1-.21-.43l.26-.261q.17-.16.4-.14 2.255.22 3.738-.812Zm18.366.44q2.575-.06 4.369.592 1.082.4-.07.47-2.285.161-4.59-.65.752-1.243.29-.411z" style="stroke-width:1.002"/><path fill="#34404d" d="M17.974 25.769a.15.15 0 0 1 .15.15V26a1.754 1.854 89.4 0 1-1.834 1.774h-.58a1.754 1.854 89.4 0 1-1.874-1.733v-.08a.15.15 0 0 1 .15-.15z" style="stroke-width:1.002"/></svg>