<svg xmlns="http://www.w3.org/2000/svg" viewBox="0 0 36 36" width="16" height="16"><path fill="#ea596e" d="M29.024 30.439h-13a1 1 0 1 1 0-2h13c2.542 0 4-1.367 4-3.75 0-1.537-1.643-3.25-4-3.25h-7a1 1 0 1 1 0-2h7c3.589 0 6 2.715 6 5.25 0 3.493-2.355 5.75-6 5.75z"/><path fill="#ABC9DE" d="M11.024 21.156c0-2.85 3-7.035 0-7.035-4 0-10.137 6.566-10.137 8.442 0 1.876 6.44 1.876 9.29 1.876 2.849 0 .847-.434.847-3.283z"/><path fill="#ABC9DE" d="M32.024 18.34c0-7.972-6.554-9.751-11.381-8.786C11.263 11.43 9.51 15.996 9.51 19.748c0 4.922 9.149 4.69 14.07 4.69 4.923 0 8.443-1.174 8.443-6.097z"/><path fill="#ABC9DE" d="M24.024 16.935 6.918 18.81l3.53 5.629h13.576zm-8.082-5.353c0-2.683-1.997-4.858-4.458-4.858-2.463 0-4.46 2.175-4.46 4.858s1.997 4.857 4.46 4.857c2.46 0 4.458-2.174 4.458-4.857z"/><path fill="#f4abba" d="M13.394 12.122c0 1.788-1.141 3.239-2.548 3.239-1.408 0-2.548-1.451-2.548-3.24 0-1.787 1.14-3.237 2.548-3.237 1.407-.001 2.548 1.449 2.548 3.238z"/><circle fill="#dd2e44" cx="7.524" cy="18.939" r="1.5"/></svg>