<!--Copyright 2000-2022 JetBrains s.r.o. and contributors. Use of this source code is governed by the Apache 2.0 license.--><svg width="16" height="16" viewBox="0 0 16 16" fill="none" xmlns="http://www.w3.org/2000/svg"><path d="M15 8.333a2.766 2.766 0 0 0-1.817-2.605 4.15 4.15 0 0 0 .068-.757A3.964 3.964 0 0 0 9.297 1a3.917 3.917 0 0 0-3.2 1.652 2.057 2.057 0 0 0-1.28-.436 2.109 2.109 0 0 0-2.103 2.112c0 .252.046.505.126.734A2.76 2.76 0 0 0 1 7.667c0 1.182.731 2.215 1.829 2.617a4.059 4.059 0 0 0-.069.757C2.76 13.221 4.531 15 6.703 15c1.28 0 2.457-.62 3.2-1.652a2.1 2.1 0 0 0 1.291.447 2.109 2.109 0 0 0 2.103-2.111c0-.253-.046-.505-.126-.735A2.807 2.807 0 0 0 15 8.333Z" fill="#6F737A"/><path d="m6.474 7.013 3.12 1.435L12.75 5.67c.045-.229.068-.459.068-.7a3.529 3.529 0 0 0-3.52-3.534 3.497 3.497 0 0 0-2.903 1.538l-.525 2.73.605 1.31Z" fill="#5682ff"/><path d="M3.24 10.33c-.046.229-.069.47-.069.711 0 1.95 1.589 3.546 3.532 3.546a3.549 3.549 0 0 0 2.926-1.55l.514-2.73-.697-1.332-3.132-1.434-3.074 2.788Z" fill="#ff8c96"/><path d="m3.217 4.902 2.137.505.48-2.445a1.698 1.698 0 0 0-2.617 1.94Z" fill="#57f2ac"/><path d="M3.034 5.418c-.96.31-1.623 1.24-1.623 2.25 0 .986.606 1.87 1.52 2.214l3.006-2.731-.548-1.182-2.355-.551Z" fill="#ff9c64"/><path d="M10.177 13.026c.297.23.652.356 1.017.356a1.698 1.698 0 0 0 1.589-2.284l-2.137-.505-.469 2.433Z" fill="#bb85ff"/><path d="m10.611 10.031 2.355.551a2.392 2.392 0 0 0 1.623-2.25c0-.986-.606-1.858-1.52-2.214L9.983 8.826l.628 1.205Z" fill="#ffc29a"/></svg>