<!--SPDX-License-Identifier: MIT--><svg xmlns="http://www.w3.org/2000/svg" height="16" viewBox="0 0 64 64" width="16"><linearGradient id="a" gradientUnits="userSpaceOnUse" x1="33.138" x2="32.203" y1="4.878" y2="64"><stop offset="0" stop-color="#d9d8dc"/><stop offset="1" stop-color="#fff" stop-opacity=".385"/></linearGradient><linearGradient id="b" gradientTransform="matrix(.1142 0 0 .22712 11.41 0)" gradientUnits="userSpaceOnUse" x1="199.036" x2="140.071" y1="21.413" y2="278.408"><stop offset="0" stop-color="#8d67af" stop-opacity=".672"/><stop offset="1" stop-color="#9f8daf"/></linearGradient><linearGradient id="c" gradientUnits="userSpaceOnUse" x1="36.732" x2="36.732" y1="21.34" y2="62.234"><stop offset="0" stop-color="#26053d" stop-opacity=".762"/><stop offset="1" stop-color="#b7b4b4" stop-opacity=".278"/></linearGradient><linearGradient id="d" gradientTransform="matrix(.18478 0 0 .14038 11.41 0)" gradientUnits="userSpaceOnUse" x1="23.483" x2="112.931" y1="171.718" y2="351.723"><stop offset="0" stop-color="#91739f" stop-opacity=".46"/><stop offset="1" stop-color="#32054f" stop-opacity=".54"/></linearGradient><linearGradient id="e" gradientTransform="matrix(.14184 0 0 .18287 11.41 0)" gradientUnits="userSpaceOnUse" x1="226.781" x2="67.804" y1="317.252" y2="147.413"><stop offset="0" stop-color="#463d49" stop-opacity=".331"/><stop offset="1" stop-color="#340a50" stop-opacity=".821"/></linearGradient><linearGradient id="f" gradientTransform="matrix(.10597 0 0 .24478 11.41 0)" gradientUnits="userSpaceOnUse" x1="248.016" x2="200.705" y1="88.755" y2="255.005"><stop offset="0" stop-color="#715383" stop-opacity=".145"/><stop offset="1" stop-color="#f4f4f4" stop-opacity=".234"/></linearGradient><linearGradient id="g" gradientTransform="matrix(.09173 0 0 .28277 11.41 0)" gradientUnits="userSpaceOnUse" x1="307.564" x2="156.451" y1="109.963" y2="81.527"><stop offset="0" stop-color="#a5a1a8" stop-opacity=".356"/><stop offset="1" stop-color="#370c50" stop-opacity=".582"/></linearGradient><g fill-rule="evenodd"><path d="M34.034.161c-4.65 1.648-9.138 6.459-13.466 14.431-6.491 11.959-14.874 28.953-3.33 42.409 5.341 6.225 14.159 9.899 25.731 4.08 9.297-4.674 11.882-18.088 8.544-24.392-6.885-13.003-13.87-16.21-15.74-24.274-1.247-5.376-1.827-9.461-1.739-12.254z" fill="url(#a)"/><path d="M34.034 0c-4.673 1.665-9.162 6.476-13.466 14.431-6.456 11.934-14.874 28.953-3.33 42.409 5.341 6.225 14.045 8.236 18.875 4.545 3.149-2.407 5.29-4.701 6.524-9.535 1.374-5.382.32-12.629-.403-15.957-.914-4.212-1.213-8.835-.897-13.87l-.249-.304c-2.515-3.077-4.455-5.758-5.315-9.464C34.526 6.878 33.946 2.794 34.034 0z" fill="url(#b)"/><path d="M30.164 2.094c-4.353 3.44-7.589 9.21-9.709 17.311-3.18 12.151-3.525 23.356-2.403 29.873 2.174 12.634 13.446 17.43 25.007 11.549 7.115-3.619 10.079-11.388 9.922-19.82-.163-8.731-17.035-18.626-20.023-25.913-1.992-4.858-2.923-9.191-2.794-13.001z" fill="url(#c)"/><path d="M41.199 24.874c5.22 6.695 6.358 11.355 3.414 13.981-4.417 3.939-15.217 6.509-21.937 1.744-4.479-3.177-6.174-9.991-5.085-20.444a93.87 93.87 0 0 0-4.69 11.736C11.623 35.853 11.25 40 11.782 44.33c1.601 3.24 5.495 5.403 11.68 6.491 9.278 1.632 18.06.825 23.953-2.145 3.928-1.98 5.786-3.952 5.574-5.914.142-2.898-.752-5.656-2.681-8.276s-4.965-5.824-9.109-9.613z" fill="url(#d)"/><path d="M20.799 18.189c-.044 4.835 1.2 9.431 3.73 13.789 3.795 6.536 8.225 12.995 14.854 18.349 4.419 3.569 7.951 4.722 10.594 3.459-2.171 3.885-4.479 5.789-6.925 5.712-3.669-.116-8.142-1.72-15.31-10.333-4.778-5.742-8.047-11.174-9.807-16.295l.888-6.071c.313-2.016.971-4.886 1.976-8.61z" fill="url(#e)"/><path d="M32.011 24.824c.406 3.939 1.938 10.24 0 14.435S21.12 51.032 23.592 57.708s8.494 5.177 12.271 2.101 5.8-8.079 6.248-11.598-1.072-10.288-1.567-16.176c-.33-3.925-.106-7.291.671-10.097l-1.158-1.457-6.813-2.017c-1.092 1.614-1.503 3.734-1.233 6.36z" fill="url(#f)"/><path d="M34.443 5.315c-2.205.932-4.295 2.778-6.268 5.539-2.96 4.141-4.468 6.624-3.352 14.833.744 5.473 1.277 10.508 1.598 15.105l9.543-27.727c-.351-1.413-.643-2.689-.875-3.828s-.448-2.447-.645-3.922z" fill="url(#g)"/><path d="M35.946 13.01c-2.423 1.414-4.3 4.311-5.631 8.691s-2.55 10.503-3.655 18.369c1.474-5.003 2.451-8.627 2.933-10.871.722-3.367.969-8.127 2.887-11.359 1.278-2.155 2.434-3.764 3.467-4.829z" fill="#330a4c" fill-opacity=".316"/><path d="M24.729 59.938c3.987.57 6.071 1.076 6.254 1.519.274.665-.505 1.273-2.718.864-1.475-.272-2.654-1.067-3.536-2.383z" fill="#fff"/><path d="M26.732 5.315c-2.193 2.62-4.093 5.397-5.7 8.332s-2.756 5.124-3.446 6.568c-.214 1.077-.318 2.666-.313 4.768s.187 4.438.545 7.01c.314-5.036 1.275-9.924 2.882-14.665s3.618-8.745 6.031-12.013z" fill="#ededed" fill-opacity=".603"/></g></svg>