<svg xmlns="http://www.w3.org/2000/svg" version="1.0" width="16" height="16" viewBox="0 0 224 224"><rect width="196.219" height="197.986" x="13.908" y="13.689" ry=".579" fill="#ecd53f"/><path d="m67.16 169.537.316 25.91 18.7.34 18.594.228v-9.091H77.456v-13.637h24.163v-8.977l-11.767-.341-11.87-.341-.316-5.455-.315-5.34h26.369v-9.092H66.95zm44.124 0 .315 25.91 5.042.34 4.938.342v-32.501l9.245 16.137 9.14 16.25h9.98v-52.274h-9.35l-.315 15.91-.316 15.909-8.93-15.91-8.929-15.795-5.568-.114h-5.463zm43.912-25.341c0 .34 8.72 26.818 15.969 48.637.945 2.955 1.47 3.182 6.513 3.182h5.568l3.151-10c1.786-5.455 5.673-17.16 8.615-26.137l5.253-16.137h-10.926l-5.673 18.41-5.673 18.41-2.941-8.978c-1.681-5-4.308-13.296-5.884-18.41l-2.836-9.432h-5.568c-3.046 0-5.568.227-5.568.455zM39.636 188.06v7.955h14.708v-15.909H39.636z"/></svg>