<svg xmlns="http://www.w3.org/2000/svg" height="16" width="16" viewBox="-0.5 -2 32 32" fill="none"><path d="M14.727 10.621c.245-.36.513-.407.73-.407.218 0 .58.046.826.407 1.93 2.653 5.117 7.936 7.468 11.833 1.533 2.541 2.71 4.493 2.952 4.741.906.933 2.15.352 2.873-.706.711-1.041.909-1.772.909-2.553 0-.53-10.308-19.703-11.346-21.3-.998-1.534-1.323-1.922-3.032-1.922H14.83c-1.704 0-1.95.388-2.948 1.923C10.843 4.233.536 23.405.536 23.937c0 .78.197 1.51.909 2.552.722 1.058 1.966 1.639 2.873.706.241-.248 1.419-2.2 2.952-4.741 2.35-3.897 5.527-9.18 7.457-11.833z" fill="#EEE"/></svg>