<svg viewBox="0 0 272 272" xmlns="http://www.w3.org/2000/svg" width="16" height="16"><path d="M249.94 77.62A128.23 128.23 0 1 0 264 136a128.63 128.63 0 0 0-14.06-58.38Zm-78 116.11a67.85 67.85 0 0 1-71.78 0 68.41 68.41 0 0 1-21.84-21.84 67.85 67.85 0 0 1 0-71.78 68.41 68.41 0 0 1 21.84-21.84 67.85 67.85 0 0 1 71.78 0 68.41 68.41 0 0 1 21.84 21.84 67.85 67.85 0 0 1 0 71.78 68.41 68.41 0 0 1-21.89 21.84Z" style="fill:#efefef"/><path d="m194.38 22.06-22.49 56.21a67.85 67.85 0 0 0-71.78 0L77.62 22.06a128.23 128.23 0 0 1 116.76 0Zm0 227.88a128.23 128.23 0 0 1-116.76 0l22.49-56.21a67.85 67.85 0 0 0 71.78 0ZM68 136a67.54 67.54 0 0 0 10.27 35.89l-56.21 22.49a128.23 128.23 0 0 1 0-116.76l56.21 22.49A67.54 67.54 0 0 0 68 136Zm196 0a127.43 127.43 0 0 1-14.06 58.38l-56.21-22.49a67.85 67.85 0 0 0 0-71.78l56.21-22.49A127.43 127.43 0 0 1 264 136Z" style="fill:#e91d62"/></svg>