<svg xmlns="http://www.w3.org/2000/svg" width="16" height="16" viewBox="0 0 2048 2048"><circle fill-opacity=".8" r="896" cx="1024" cy="1024" fill="#3592C4"/><path fill-opacity=".8" fill="#231f20" d="M1131.326 1340.8h-176.7v-143.22q0-91.14 28.365-154.845t106.485-139.965l83.7-82.77q57.66-54.87 79.515-95.79t21.855-86.49q0-82.77-60.915-133.92t-162.285-51.15q-72.54 0-155.31 32.085t-173.91 95.325V405.22q87.42-53.01 176.235-79.05t185.535-26.04q172.98 0 275.745 89.28t102.765 239.01q0 70.68-31.155 131.595T1312.676 906.49l-81.84 79.98q-64.17 61.38-81.84 100.44t-17.67 95.79v158.1zm-183.21 136.71h188.79v236.22h-188.79v-236.22z"/></svg>