<svg xmlns="http://www.w3.org/2000/svg" width="16" height="16" viewBox="0 0 2048 2048"><circle fill-opacity=".8" r="896" cx="1024" cy="1024" fill="#3592C4"/><path fill-opacity=".8" fill="#231f20" d="M904.406 1450.54h248.31v263.19h-248.31v-263.19zm248.31-109.74h-248.31v-143.22q0-92.07 28.83-157.17t103.23-137.64l83.7-82.77q58.59-56.73 79.515-93.93t20.925-77.19q0-62.31-42.78-93.93t-128.34-31.62q-78.12 0-163.215 33.015T711.896 654.46V405.22q91.14-52.08 184.605-78.585t187.395-26.505q187.86 0 294.81 87.42t106.95 240.87q0 70.68-31.62 131.595t-119.04 146.475l-81.84 79.98q-63.24 61.38-80.91 100.44t-17.67 95.79q0 8.37-.465 19.53t-1.395 24.18v114.39z"/></svg>