<svg viewBox="0 0 512 512" width="16" height="16" xml:space="preserve" xmlns="http://www.w3.org/2000/svg"><path style="fill:#ffc107" fill-opacity=".9" d="M123.479 395.086h188.404v40.348H123.479zM439.164 202.9l-39.643 6.898-32.222-186.144 39.643-6.899L439.164 202.9zM128.846 321.94l187.603 17.343-3.703 40.161-187.599-17.31 3.699-40.194zm199.955-35.311-10.449 38.955-181.939-49.037 10.441-38.96 181.947 49.042zM190.285 144.503l162.277 95.972-20.43 34.749-162.31-95.963 20.463-34.758zm95.92-88.369 106.148 156.085-33.229 22.721L252.947 78.864l33.258-22.73zm0 0"/><path d="M371.086 495.246H72.835V315.809h29.826v149.53H341.26v-149.53h29.826v179.437zm0 0" style="fill:#c5d4dc" fill-opacity=".9"/></svg>