<svg width="16" height="16" viewBox="0 0 400 400" xmlns="http://www.w3.org/2000/svg"><path d="M177.564 19.41c-24.576 1.518-44.47 4.418-63.357 9.236C92.467 34.192 70.9 43.763 68.433 48.96c-.848 1.787-1.029 52.566-.195 54.398 1.121 2.456 1.102 2.458 26.72-3.011 9.708-2.074 12.956-2.76 36.256-7.67 6.911-1.456 17.479-3.69 23.484-4.963 14.116-2.993 20.067-4.25 30.9-6.53a11241.302 11241.302 0 0 0 20.599-4.364 7304.026 7304.026 0 0 1 21.424-4.525 6717.371 6717.371 0 0 0 22.249-4.704c6.91-1.475 17.94-3.816 24.512-5.203 6.572-1.389 13.618-2.88 15.657-3.312 10.469-2.225 13.697.23 16.015 12.177 8.013 41.286-14.002 83.795-48.975 94.57-9.143 2.817-8.86 2.533-9.328 9.393-2.325 34.047-22.215 59.504-53.852 68.925-7.574 2.256-8.269 3.045-8.291 9.431-.092 25.087-17.177 52.018-40.374 63.645-7.843 3.93-10.104 4.559-36.454 10.132-46.077 9.746-41.014 7.657-41.014 16.922 0 7.833.675 8.743 10.3 13.872 48.184 25.674 149.971 30.634 216.557 10.553 16.303-4.915 32.72-12.648 35.69-16.81l.925-1.3V49.352l-1.132-1.485c-4.895-6.417-32.638-17.052-57.733-22.132-26.592-5.383-66.728-8.06-94.809-6.325m66.126 83.79a29522.599 29522.599 0 0 1-39.552 8.398c-8.044 1.7-20.374 4.308-27.399 5.798-7.025 1.49-18.426 3.897-25.337 5.354-6.912 1.456-18.314 3.867-25.338 5.357a37009.433 37009.433 0 0 1-40.778 8.636c-14.424 3.046-16.21 3.692-17.009 6.138-.412 1.261-.497 17.528-.412 78.555l.107 76.964 1 1.064c1.383 1.473 2.906 1.397 12.24-.605 4.275-.917 9.07-1.926 10.656-2.241 36.01-7.188 40.961-8.914 49.208-17.162 7.689-7.689 13.52-21.564 10.29-24.485-1.23-1.115-2.487-.978-14.796 1.607-14.704 3.088-15.835 3.252-18.785 2.711-12.741-2.334-17.995-18.215-9.189-27.77 3.925-4.256 3.484-4.124 37.655-11.3 45.843-9.626 45.934-9.653 53.548-15.704 10.119-8.04 18.072-25.429 12.79-27.96-1.29-.618-.598-.735-22.047 3.726-6.38 1.326-9.627 1.457-12.8.514-13.083-3.885-15.651-21.832-4.244-29.64 2.739-1.874 5.242-2.663 14.984-4.723 3.285-.696 10.701-2.262 16.48-3.48 50.222-10.595 47.75-9.833 55.31-17.053 7.996-7.64 15.73-24.19 12.715-27.204-1.37-1.37-2.617-1.179-29.298 4.505" fill="#ea6a24" fill-rule="evenodd"/></svg>