<svg viewBox="0 0 16 16" height="16" width="16" xmlns="http://www.w3.org/2000/svg"><path fill="#9AA7B0" fill-opacity=".8" fill-rule="evenodd" d="M1.017 7.498V2.007h1.997c1.22 0 2.136.03 2.356.076.642.137 1.054.405 1.85 1.207l.744.75h7.02v8.95H1.016z"/><path class="cls-1" d="M8.335 9.713a2.308 2.308 0 0 1-1.116-2.504.056.056 0 0 0 0-.036.208.208 0 0 0-.204.1 2.356 2.356 0 0 0 .8 3.052.828.828 0 0 1 .52-.612z" style="fill:#f68e1e;stroke:#362f8a;stroke-width:.2px;stroke-miterlimit:10"/><path class="cls-2" d="M13.199 13.713h-.612l.264 2h.4a.156.156 0 0 0 .152-.196zm-4.496 1.744a.356.356 0 0 1-.328.256h.768a.36.36 0 0 0 .284-.252c.168-.548.352-1.384.76-1.744h-.732c-.408.356-.596 1.196-.752 1.74z" style="fill:#362f8a;stroke:#362f8a;stroke-width:.2px;stroke-miterlimit:10"/><path class="cls-1" d="M12.675 13.713h-1.392c.4.36.552 1.2.716 1.744a.356.356 0 0 0 .34.256h.4a.156.156 0 0 0 .148-.196zm-4.572-.276-.552 2.08a.156.156 0 0 0 .152.196h.62a.36.36 0 0 0 .34-.256c.164-.548.348-1.384.76-1.744z" style="fill:#f68e1e;stroke:#362f8a;stroke-width:.2px;stroke-miterlimit:10"/><path class="cls-1" d="M12.519 12.913a4.332 4.332 0 0 1-.16-1.2 4.364 4.364 0 0 1 .16-1.2 1.232 1.232 0 0 1 .444-.736.336.336 0 0 1 .188-.06H8.303a.24.24 0 0 0-.072.028c-.4.16-.684.92-.708 1.856v.224c.024.936.32 1.7.708 1.856a.204.204 0 0 0 .072.032h4.848a.336.336 0 0 1-.188-.06 1.232 1.232 0 0 1-.444-.74z" style="fill:#f68e1e;stroke:#362f8a;stroke-width:.2px;stroke-miterlimit:10"/><path class="cls-3" d="M13.183 10.113a3.296 3.296 0 0 1 .288 1.6 3.296 3.296 0 0 1-.288 1.6" style="fill:none;stroke:#362f8a;stroke-width:.2px;stroke-miterlimit:10"/><path class="cls-1" d="M15.695 7.053c0-.436-.364-.688-.8-.8a20.172 20.172 0 0 0-1.956-.516c-.08 0-.204 0-.348-.024a14 14 0 0 1-.868-1.164.096.096 0 0 0-.172 0 5.08 5.08 0 0 0-.168.996 2.084 2.084 0 0 0 0 .316l-.196.084A4.62 4.62 0 0 1 9.85 4.913a.092.092 0 0 0-.16.06v.26a4.684 4.684 0 0 0 .48 2.072v.104a1.732 1.732 0 0 0 .532 1.38l.02.02a2 2 0 0 0 1.356.532h1.368a1.96 1.96 0 0 0 1.336-.508 2.896 2.896 0 0 0 .564-.72 3.052 3.052 0 0 0 .312-.824.8.8 0 0 0 .032-.172v-.064zm-.524.4a.148.148 0 0 1-.108.064h-.08a1.084 1.084 0 0 1-.508-.124.152.152 0 0 1-.048-.228 1.132 1.132 0 0 1 .82-.448.128.128 0 0 1 .132.128 1.116 1.116 0 0 1-.208.624z" style="fill:#f68e1e;stroke:#362f8a;stroke-width:.2px;stroke-miterlimit:10"/><path class="cls-4" d="M15.17 7.469a.148.148 0 0 1-.107.064h-.08a1.084 1.084 0 0 1-.508-.124.152.152 0 0 1-.048-.228 1.132 1.132 0 0 1 .82-.448.128.128 0 0 1 .132.128 1.116 1.116 0 0 1-.208.608z" style="fill:#362f8a;stroke-width:.4"/><path class="cls-5" d="M11.935 10.633h-.472a.156.156 0 1 1 0-.308h.472a.156.156 0 1 1 0 .308zm-1.632 0h-.468a.156.156 0 0 1 0-.308h.468a.156.156 0 1 1 0 .308zm-1.568 0h-.472a.156.156 0 1 1 0-.308h.472a.156.156 0 0 1 0 .308z" style="fill:#fff;stroke-width:.4"/><path class="cls-2" d="M11.735 4.56a.092.092 0 0 0-.168 0 7.908 7.908 0 0 0-.18 1.313 3.152 3.152 0 0 1 1.2-.168 8.46 8.46 0 0 1-.852-1.144z" style="fill:#362f8a;stroke:#362f8a;stroke-width:.2px;stroke-miterlimit:10"/><path class="cls-3" d="M11.567 9.713a.204.204 0 0 0-.064 0c-.4.16-.688.92-.712 1.856v.244c.024.936.324 1.7.712 1.856a.176.176 0 0 0 .068.032M9.815 9.713a.24.24 0 0 0-.072.028c-.4.16-.684.92-.708 1.856v.244c.024.936.324 1.7.708 1.856a.204.204 0 0 0 .072.032" style="fill:none;stroke:#362f8a;stroke-width:.2px;stroke-miterlimit:10"/><ellipse class="cls-3" cx="13.115" cy="11.705" rx=".756" ry="2.008" style="fill:none;stroke:#362f8a;stroke-width:.2px;stroke-miterlimit:10"/><path class="cls-4" d="M13.363 10.06a.212.212 0 0 0-.208-.055c-.064 0-.108.048-.108.084a.052.052 0 0 0 0 .032 3.296 3.296 0 0 1 .288 1.6 3.296 3.296 0 0 1-.288 1.6c-.028.048 0 .1.1.116a.208.208 0 0 0 .204-.056 3.272 3.272 0 0 0 .32-1.668 3.272 3.272 0 0 0-.308-1.652z" style="fill:#362f8a;stroke-width:.4"/></svg>