<svg version="1.0" width="16" height="16" viewBox="0 0 210 210" style="zoom:1" xmlns="http://www.w3.org/2000/svg"><path d="M90.864 8.277c-21.297 3.44-39.525 12.648-54.684 27.9-13.113 13.02-21.762 28.365-26.319 46.407-2.79 11.439-2.79 33.387 0 44.826 4.557 18.042 13.206 33.387 26.319 46.407 13.02 13.113 28.365 21.762 46.407 26.319 11.439 2.79 33.387 2.79 44.826 0 18.042-4.557 33.387-13.206 46.407-26.32 13.113-13.02 21.762-28.364 26.319-46.406 2.79-11.44 2.79-33.387 0-44.826-4.557-18.042-13.206-33.387-26.319-46.407-12.927-13.02-28.458-21.855-45.942-26.133-8.649-2.14-28.737-3.07-37.014-1.767zm-14.88 55.242c1.395.744 3.255 2.139 4.185 3.162 1.581 1.767 1.953 1.767 6.045.465 5.301-1.674 12.276-1.023 16.461 1.488 3.069 1.767 3.162 1.767 8.928 0 15.996-5.022 27.342-2.232 32.736 7.812 1.86 3.627 2.046 5.3 2.325 23.808l.279 19.809 3.162 3.162c5.58 5.58 6.231 12.648 1.674 18.786-8.277 11.16-25.389 5.487-25.389-8.556 0-4.743 2.511-10.137 5.208-11.16 1.209-.465 1.395-3.162 1.116-19.716l-.279-19.158-2.604-2.232c-2.976-2.511-7.812-2.883-14.136-1.023l-3.627 1.116.279 19.995c.279 19.437.279 19.902 2.418 21.576 5.394 4.185 6.231 13.95 1.674 19.437-8.742 10.416-25.389 5.022-25.389-8.184 0-4.93 1.023-7.72 4.092-10.51l2.418-2.324v-19.344c0-18.042-.093-19.344-1.86-21.111-1.86-1.86-5.859-2.418-9.858-1.302-1.023.279-2.697 1.953-3.627 3.72-.93 1.86-2.511 3.72-3.441 4.185-1.488.837-1.674 2.418-1.674 17.67 0 13.857.186 16.833 1.395 17.205 2.604 1.023 5.115 6.417 5.115 11.16 0 14.043-17.112 19.716-25.389 8.556-4.557-6.138-3.906-13.206 1.674-18.88l3.255-3.161V90.024l-3.255-3.162c-7.161-7.161-5.952-17.67 2.697-22.878 3.441-2.046 9.858-2.325 13.392-.465z" fill="#9AA7B0" fill-opacity=".8"/></svg>