<svg xmlns="http://www.w3.org/2000/svg" width="16" height="16" viewBox="0 0 16 16"><path d="M10.777 14.554c-.08-.059-.086-.079-.026-.081.043-.002.008-.035-.08-.072-.201-.088-.621-.452-3.99-3.457-4.595-4.1-5.488-4.93-5.488-5.11 0-.073.161-.263.475-.556.566-.53.777-.657.953-.578.21.094 3.51 2.526 6.806 5.015.875.66 1.625 1.214 1.667 1.23.067.025.077-.357.077-2.926 0-2.356-.014-2.944-.066-2.904C9.757 6.15 7.29 7.97 7.235 7.97c-.064 0-1.406-.99-1.736-1.28l-.236-.207.131-.142c.283-.305 4.392-3.953 5.136-4.56.408-.332.449-.322 2.3.583 1.305.637 1.556.778 1.602.896.065.168.096 9.25.032 9.474-.027.098-.141.208-.356.345-.364.23-2.899 1.48-3.095 1.525a.303.303 0 0 1-.236-.049zm.377-12.325c-.017-.042-.03-.03-.032.03-.002.055.01.086.028.069.017-.018.02-.062.004-.1zm-9.001 8.982c-.528-.437-.907-.842-.907-.97 0-.098.12-.247.46-.573.655-.63 1.672-1.545 1.717-1.545.02 0 .372.306.781.68.41.374.775.707.813.74.054.049-.104.19-.777.693-1.659 1.24-1.728 1.272-2.087.975z" fill="#9AA7B0" fill-opacity=".8" fill-rule="evenodd"/></svg>