<svg xmlns="http://www.w3.org/2000/svg" width="16" height="16" viewBox="0 0 16 16"><path d="M1.242 6.095s-.327-.233.065-.544l.914-.808s.262-.272.539-.035l8.438 6.313v3.027s-.004.476-.622.423z" fill="#87939a"/><path d="M3.417 8.046 1.242 10s-.224.165 0 .458l1.01.908s.24.254.594-.035L5.15 9.603zm3.818.016 3.988-3.01-.025-3.01s-.17-.658-.74-.316L5.152 6.5z" fill="#87939a"/><path d="M10.576 14.475c.232.235.512.158.512.158l3.109-1.514c.398-.268.342-.6.342-.6v-9.04c0-.397-.412-.534-.412-.534l-2.694-1.283c-.588-.36-.974.064-.974.064s.496-.352.739.316v11.951a.538.538 0 0 1-.054.236c-.07.141-.224.273-.594.218z" fill="#87939a"/><path d="M7.508 11.687a379.332 379.332 0 0 0-3.125-2.79 4.34 4.34 0 0 1-.33-.296c-.172-.164-.88-.805-1.573-1.426-.693-.621-1.282-1.173-1.308-1.226-.074-.152.007-.258.573-.756.587-.516.71-.595.85-.545.052.02.662.46 1.355.979.693.519 1.284.949 1.313.956a.43.43 0 0 1 .143.118c.05.058.09.083.092.056 0-.028.038.001.083.064.045.063.113.115.152.115.039 0 .084.035.1.077.017.043.064.078.105.078.042 0 .089.035.105.077.017.043.061.078.098.078.038 0 .098.047.135.105.037.058.089.092.115.076.027-.016.074.019.106.077.032.058.08.093.105.077.026-.015.073.019.104.076.032.058.09.105.129.105.039 0 .085.035.101.077a.13.13 0 0 0 .11.078c.045 0 .081.02.081.043 0 .024.91.724 2.022 1.556l2.022 1.512v1.565c0 1.55-.001 1.566-.118 1.693a.605.605 0 0 1-.278.159c-.15.03-.322-.115-3.267-2.758z" fill="#87939a"/><path d="M10.764 14.575c-.16-.063-.15-.145.013-.115.085.016.131.002.131-.041 0-.037.014-.053.03-.036.049.047.217-.135.192-.207-.013-.035.005-.064.04-.064.047 0 .059-1.416.05-6.053-.012-5.875-.016-6.058-.114-6.22-.1-.168-.14-.189-.316-.171-.05.005-.092-.016-.092-.046 0-.057.141-.08.368-.059.148.014.278.072 1.995.895.679.326 1.282.644 1.34.708.103.114.105.199.118 4.795.013 4.435.009 4.689-.081 4.86-.086.163-.26.262-1.72.991-.895.446-1.673.81-1.731.81a.75.75 0 0 1-.223-.047z" fill="#87939a"/><path d="M6.208 7.265c-.549-.413-.99-.766-.98-.785.07-.129 5.3-4.766 5.405-4.792.216-.053.4.041.47.242.042.122.063.654.065 1.656l.003 1.478-1.942 1.465c-1.069.805-1.96 1.47-1.983 1.476-.022.006-.489-.327-1.038-.74zm-4.436 3.64c-.531-.48-.583-.543-.568-.69.013-.139.18-.31 1.117-1.152l1.102-.99.211.197c.116.108.496.453.845.767l.634.57-1.2.897c-.928.695-1.239.901-1.378.913-.163.015-.233-.032-.763-.512z" fill="#87939a"/><path d="M10.882 14.587c-.155-.03-.226-.114-.097-.114.158 0 .374-.22.411-.42.018-.096.026-2.858.017-6.138-.015-5.609-.022-5.974-.11-6.105-.056-.085-.138-.138-.21-.136l-.116.003.119.047a.35.35 0 0 1 .169.176c.027.071.064.81.082 1.64l.033 1.512-.49.361c-.268.199-1.147.855-1.951 1.459-.805.603-1.482 1.097-1.505 1.097-.045 0-1.299-.925-1.695-1.25-.138-.113-.25-.225-.25-.249 0-.06 4.208-3.821 5.049-4.513l.339-.279c.118-.097.189-.116.352-.095.215.029 2.085.886 2.907 1.334.467.254.481.267.512.475.06.412.05 9.24-.011 9.387-.071.172-.42.373-1.929 1.115-1.346.661-1.485.72-1.626.693z" fill="#87939a"/><path d="M10.882 14.587c-.154-.03-.226-.114-.098-.114.058 0 .163-.062.233-.139l.128-.138-.152.112c-.308.23-.052.425-3.603-2.752a1026.28 1026.28 0 0 0-2.576-2.298c-2.306-2.039-3.62-3.283-3.62-3.425 0-.17 1.12-1.168 1.31-1.168.09 0 2.56 1.776 4.282 3.079 2.805 2.122 3.527 2.666 3.931 2.96l.46.336-.017 1.575c-.01.866 0 1.481.02 1.368.02-.114.034-2.565.029-5.447-.004-2.881-.02-4.84-.036-4.35l-.028.889-.736.552C8.02 7.423 7.26 7.97 7.196 7.946c-.11-.041-1.709-1.24-1.828-1.371l-.105-.115.394-.364c.618-.57 3.407-3.047 4.306-3.824.86-.743.903-.766 1.266-.646.254.084 2.364 1.092 2.812 1.344.315.176.381.237.406.372.06.321.05 9.291-.01 9.437-.072.172-.42.374-1.929 1.115-1.346.661-1.485.72-1.626.693zm.21-12.76c-.045-.086-.119-.157-.165-.157-.061 0-.051.026.041.1.114.09.126.146.15.683l.027.586.014-.529c.012-.4-.004-.566-.067-.684z" fill="#87939a"/><path d="m10.803 14.567-.131-.052.118-.045c.154-.059.151-.092-.005-.063-.166.031-.336-.112-3.657-3.075C1.992 6.749 1.193 6.009 1.193 5.83c0-.069.158-.254.433-.51.569-.527.791-.677.944-.637.152.04 3.165 2.245 5.581 4.085.491.374 1.366 1.033 1.943 1.465l1.05.786.032 1.043c.017.573.029-.828.026-3.114-.003-2.285-.012-4.094-.021-4.02-.017.147-.04.165-2.602 2.07-.719.533-1.327.97-1.352.97-.06 0-1.435-1.023-1.732-1.289l-.232-.207.394-.375c.493-.47 3.307-2.972 4.344-3.863.652-.56.803-.667.946-.668.094 0 .413.107.71.238.668.295 2.549 1.23 2.69 1.339.102.077.107.158.134 2.413.041 3.325.013 7.14-.052 7.26-.03.055-.19.181-.358.28-.347.208-2.873 1.453-3.032 1.496a.447.447 0 0 1-.236-.026zM11.147 2a.514.514 0 0 0-.148-.258l-.117-.097.105.121c.08.092.111.223.13.542.024.379.029.392.044.137A2.328 2.328 0 0 0 11.147 2z" fill="#87939a"/><path d="M10.803 14.567c-.122-.05-.124-.056-.029-.09.09-.034.083-.043-.052-.07-.189-.04-.519-.324-4.092-3.515C1.894 6.662 1.193 6.01 1.193 5.83c0-.068.156-.254.423-.503.556-.52.8-.684.954-.644.166.043 2.82 1.992 6.894 5.064l1.68 1.267.014-1.5c.008-.827.008-2.162 0-2.968l-.013-1.465-.756.57C8.82 6.837 7.277 7.969 7.232 7.969c-.115 0-1.943-1.407-1.943-1.496 0-.059.943-.92 3.024-2.762 2.22-1.966 2.44-2.144 2.639-2.144.207 0 .85.28 2.284.992.92.457 1.156.596 1.197.703.065.168.092 9.326.028 9.499-.024.066-.179.205-.343.31-.322.203-2.904 1.482-3.079 1.524a.464.464 0 0 1-.236-.028zm.353-12.418c-.012-.079-.022-.027-.023.115 0 .142.01.206.022.143a.907.907 0 0 0 0-.258zm-.14-.39-.123-.114.1.137c.054.075.11.127.122.114.013-.012-.032-.074-.1-.137z" fill="#87939a"/><path d="M10.777 14.554c-.08-.059-.086-.079-.026-.081.043-.002.008-.035-.08-.072-.201-.088-.621-.452-3.99-3.457-4.595-4.1-5.488-4.93-5.488-5.11 0-.073.161-.263.475-.556.566-.53.777-.657.953-.578.21.094 3.51 2.526 6.806 5.015.875.66 1.625 1.214 1.667 1.23.067.025.077-.357.077-2.926 0-2.356-.014-2.944-.066-2.904C9.757 6.15 7.29 7.97 7.235 7.97c-.064 0-1.406-.99-1.736-1.28l-.236-.207.131-.142c.283-.305 4.392-3.953 5.136-4.56.408-.332.449-.322 2.3.583 1.305.637 1.556.778 1.602.896.065.168.096 9.25.032 9.474-.027.098-.141.208-.356.345-.364.23-2.899 1.48-3.095 1.525a.303.303 0 0 1-.236-.049zm.377-12.325c-.017-.042-.03-.03-.032.03-.002.055.01.086.028.069.017-.018.02-.062.004-.1zm-9.001 8.982c-.528-.437-.907-.842-.907-.97 0-.098.12-.247.46-.573.655-.63 1.672-1.545 1.717-1.545.02 0 .372.306.781.68.41.374.775.707.813.74.054.049-.104.19-.777.693-1.659 1.24-1.728 1.272-2.087.975z" fill="#87939a"/></svg>