<svg xmlns="http://www.w3.org/2000/svg" width="16" height="16" viewBox="0 0 16 16"><path d="M4.859 13.49c-1.198-.3-2.129-1.018-2.668-2.06-.444-.86-.733-2.259-.639-3.09l.041-.357h4.874c5.552 0 5.549 0 5.303-.534-.085-.186-.116-.42-.117-.889 0-.532.027-.703.168-1.048.3-.735.298-.734.684-.38.327.3.683.905.754 1.278.034.182.052.188.597.195.557.007 1.086.182 1.2.396.068.127-.283.82-.538 1.064-.26.25-.654.41-1.172.478-.355.047-.365.054-.466.363-.161.492-.81 1.61-1.256 2.163a6.765 6.765 0 0 1-3.741 2.345c-.691.163-2.494.209-3.024.076z" fill="#9AA7B0" fill-opacity=".8" fill-rule="evenodd"/><path d="M2.606 6.86v-.674h1.352v1.348H2.606zm1.674 0v-.674h1.35v1.348H4.28zM5.953 5.1v-.71h1.352v1.423H5.953zm-1.673 0v-.71h1.35v1.423H4.28zm1.673 1.76v-.674h1.352v1.348H5.953zm1.609 0v-.674h1.352v1.348H7.562zm1.674 0v-.674h1.351v1.348H9.236zM7.562 5.1v-.71h1.352v1.423H7.562zm0-1.797v-.711h1.352v1.423H7.562z" fill="#9AA7B0" fill-opacity=".8" fill-rule="evenodd"/></svg>