<svg width="16" height="16" xmlns="http://www.w3.org/2000/svg"><path d="M14.94 4.56 8.733.726a1.276 1.202 0 0 0-1.399 0L1.124 4.56a1.276 1.202 0 0 0-.576 1.005v4.968a1.276 1.202 0 0 0 .576 1.005l6.21 3.834a1.276 1.202 0 0 0 1.398 0l6.209-3.834a1.275 1.201 0 0 0 .576-1.005V5.565a1.275 1.201 0 0 0-.576-1.005zm-1.98 5.604h-.936v.999c0 .26-.223.47-.499.47H4.54c-.276 0-.5-.21-.5-.47v-.999h-.935v-2.35h.936V6.17c0-.26.223-.47.499-.47h3.912v-.873h-1.23V3.088h1.845v2.611h2.458c.276 0 .5.21.5.47v1.645h.935zM7.34 7.526 6.203 8.597l-.566-.533-.502.468 1.068.992L7.85 7.985zm3.306 0L9.508 8.597l-.566-.533-.501.468 1.067.992 1.648-1.539z" fill="#9aa7b0" fill-opacity=".8" fill-rule="evenodd" style="stroke-width:.0325434"/><path style="fill:#fff;fill-opacity:0;stroke-width:.0325434" d="M4.442 11.617a.625.625 0 0 1-.153-.065.497.497 0 0 1-.232-.313 8.643 8.643 0 0 1-.012-.574v-.507H3.11V7.825h.932l.005-.884.006-.884.044-.085a.56.56 0 0 1 .122-.147c.153-.124.034-.118 2.248-.118h1.997l-.005-.444-.005-.444-.614-.005-.615-.005V3.105h1.83v2.602h1.258c.822 0 1.286.007 1.338.02a.49.49 0 0 1 .306.233l.05.095v1.77h.934v2.333h-.933v.543c0 .33-.009.57-.021.612a.461.461 0 0 1-.119.164c-.172.166.18.153-3.841.15a450.103 450.103 0 0 1-3.586-.01zM7.035 8.76c.45-.418.82-.766.82-.774 0-.008-.116-.118-.259-.244l-.258-.23-.57.537-.57.537-.282-.263-.28-.263-.257.232-.257.233.533.502c.293.276.539.5.546.497.007-.002.383-.346.834-.764zm3.309-.008.821-.776-.257-.23-.257-.231-.57.535-.568.536-.286-.269-.286-.268-.259.242-.258.242.54.497c.296.274.543.498.549.498.005 0 .379-.349.83-.776z"/></svg>