<svg xmlns="http://www.w3.org/2000/svg" width="16" height="16" viewBox="0 0 16 16"><g fill="#aeb9c0" fill-rule="evenodd"><path d="m12.298 1-1.596 5H5.298L3.702 1 1 8.907l7 5.101 7.001-5.101z"/><path d="M10.701 6 8 14.008 14.007 6zM8 14.008l7-5.101v-.001l-.992-2.904zM1 8.906v.001l7 5.101L1.994 6z"/><path d="m1.994 6 6.007 8.008L5.299 6z"/></g><path d="M4.972 9.995a2925.46 2925.46 0 0 0-2.93-3.903c-.052-.068.276-.085 1.593-.085h1.659l1.303 3.871c.717 2.13 1.288 3.886 1.27 3.904-.017.018-1.32-1.686-2.895-3.787zm1.685-.028-1.335-3.96h2.674c1.472 0 2.675.012 2.675.026 0 .037-2.644 7.86-2.662 7.879-.009.008-.617-1.767-1.352-3.945zm1.454 3.752c.017-.047.607-1.8 1.312-3.898l1.282-3.812 1.652-.001c1.312-.001 1.64.016 1.587.084-.036.046-1.353 1.8-2.926 3.898-1.574 2.097-2.878 3.813-2.9 3.813-.02 0-.024-.038-.007-.084zm2.646-7.797c.017-.047.364-1.13.77-2.407.405-1.277.754-2.322.774-2.322.02 0 .116.237.212.526.097.289.467 1.372.821 2.406l.645 1.882h-1.627c-1.274 0-1.62-.019-1.595-.085zm-2.521 7.84c.05-.136 5.71-7.62 5.763-7.62.074 0 .961 2.696.913 2.775-.023.036-1.497 1.125-3.277 2.42a1409.54 1409.54 0 0 0-3.33 2.427c-.07.053-.089.052-.069-.002zM4.45 11.405A278.36 278.36 0 0 1 1.101 8.94c-.067-.066.221-1.002.835-2.716.05-.138.267.125 1.932 2.34 1.033 1.372 2.345 3.112 2.916 3.868.571.755 1.016 1.37.988 1.369-.028-.002-1.524-1.08-3.324-2.395zM2.061 5.95c0-.06 1.44-4.316 1.57-4.642.07-.174.143.017.845 2.204.422 1.316.769 2.416.77 2.444 0 .028-.715.05-1.592.05-.876 0-1.593-.025-1.593-.056z" fill="#aeb9c0"/><path d="M6.684 9.957C5.967 7.84 5.38 6.082 5.382 6.049c.001-.068 5.126-.025 5.195.044.025.025-.125.542-.333 1.15-.207.606-.78 2.293-1.27 3.747a133.159 133.159 0 0 1-.94 2.73c-.026.046-.633-1.647-1.35-3.763z" fill="#aeb9c0"/></svg>