<svg xmlns="http://www.w3.org/2000/svg" width="16" height="16" viewBox="0 0 16 16"><g fill="none" fill-rule="evenodd"><path fill="#9AA7B0" fill-opacity=".8" d="M7.984 3 6.696 1.711C6.304 1.32 5.532 1 4.978 1H1.05a.051.051 0 0 0-.05.051V7h14V3H7.984z"/><path fill="#62b543" fill-opacity=".6" d="M0 15h15V8H0z"/><path fill="#231F20" fill-opacity=".8" d="M1.5 10H0V9h4v1H2.5v4h-1zm11.4 1.5c.664 0 1.1-.116 1.1-.75s-.443-.75-1.1-.75H12v1.5h.9zM11 9h1.971C14.142 9 15 9.642 15 10.65c0 1.636-1.029 1.85-2.128 1.85H12V14h-1V9zM5 9h.936L7.5 11l1.479-2H10v5H9v-3.3l-1.5 1.8L6 10.7V14H5z"/></g></svg>