<svg xmlns="http://www.w3.org/2000/svg" width="16" height="16" viewBox="0 0 16 16"><defs><linearGradient gradientUnits="userSpaceOnUse" gradientTransform="matrix(1.67072 0 0 1.1204 163.01 -22.289)" x1="92.697" y1="17.661" x2="92.697" y2="157.955" id="a"><stop stop-color="#97D9F6" offset="0%"/><stop stop-color="#0F80CC" offset="92.024%"/><stop stop-color="#0F80CC" offset="100%"/></linearGradient></defs><path fill="#9AA7B0" fill-opacity=".8" fill-rule="evenodd" d="M1 13h14V4H7.985L6.696 2.711A2.8 2.8 0 0 0 4.98 2H1.05a.051.051 0 0 0-.05.051V13z"/><path d="M1.017 7.498V2.007h1.997c1.22 0 2.136.03 2.356.076.642.137 1.054.405 1.85 1.207l.744.75h7.02v8.95H1.016z" fill="#aeb9c0"/><g stroke-width="1.368"><path d="M13.873 6.696H7.416c-.433 0-.787.33-.787.731v6.616c0 .402.354.73.787.73h4.253c-.048-1.965.674-5.78 2.204-8.077z" fill="#0f80cc"/><path d="M425.288-5.983H192.452c-11.498 0-20.855 5.941-20.855 13.245v156.882c52.732-12.854 131.877-23.944 186.601-23.44 10.997-36.52 43.317-108.09 67.09-146.687z" fill="url(#a)" transform="matrix(.02673 0 0 .03909 2.273 7.143)"/><path d="M15.38 6.48c-.443-.367-.978-.22-1.507.216a3.623 3.623 0 0 0-.234.214c-.904.89-1.744 2.54-2.004 3.801.101.191.18.435.233.622a5.525 5.525 0 0 1 .07.28s-.008-.028-.041-.118a7.06 7.06 0 0 0-.036-.09 7.175 7.175 0 0 0-.294-.513 12.17 12.17 0 0 0-.16.468c.206.352.333.956.333.956s-.011-.04-.063-.176c-.047-.12-.277-.495-.331-.583-.094.32-.13.536-.097.589.065.101.126.277.18.472.123.438.209.971.209.971l.007.09c-.017.368-.007.75.024 1.095.04.456.117.848.214 1.058l.067-.034c-.144-.413-.202-.955-.176-1.58.038-.955.275-2.107.712-3.308.739-1.812 1.764-3.266 2.702-3.96-.855.717-2.012 3.038-2.359 3.898a14.737 14.737 0 0 0-.828 2.732c.286-.812 1.21-1.16 1.21-1.16s.453-.52.983-1.262c-.318.068-.839.183-1.013.25-.257.101-.327.135-.327.135s.834-.471 1.55-.685c.983-1.44 2.055-3.484.975-4.378" fill="#003b57"/></g></svg>