<svg xmlns="http://www.w3.org/2000/svg" width="16" height="16" viewBox="0 0 16 16"><g fill="#87939a"><path d="M7.563 4.334h1.41v1.49h-1.41zm0 1.79h1.41v1.474h-1.41zm-1.665-1.79h1.41v1.49h-1.41zM9.23 6.122h1.41v1.473H9.23zM7.563 2.53h1.41v1.506h-1.41zm-3.33 1.804h1.41v1.49h-1.41zm1.665 1.788h1.41v1.473h-1.41z"/><path d="M14.875 6.814c-.307-.24-1.015-.327-1.559-.208-.07-.596-.356-1.114-.876-1.58l-.299-.231-.198.347c-.392.69-.499 1.826-.079 2.575-.185.116-.55.275-1.032.265H1.563c-.185 1.26.124 2.897.938 4.021.791 1.089 1.977 1.642 3.527 1.642 3.356 0 5.84-1.798 7.002-5.065.457.01 1.442.003 1.947-1.121.032-.062.14-.327.181-.424z"/><path d="M2.57 7.595h1.409V6.122H2.57zm1.663-1.473h1.41v1.473h-1.41z"/></g><path d="M4.859 13.49c-1.198-.3-2.129-1.018-2.668-2.06-.444-.86-.733-2.259-.639-3.09l.041-.357h4.874c5.552 0 5.549 0 5.303-.534-.085-.186-.116-.42-.117-.889 0-.532.027-.703.168-1.048.3-.735.298-.734.684-.38.327.3.683.905.754 1.278.034.182.052.188.597.195.557.007 1.086.182 1.2.396.068.127-.283.82-.538 1.064-.26.25-.654.41-1.172.478-.355.047-.365.054-.466.363-.161.492-.81 1.61-1.256 2.163a6.765 6.765 0 0 1-3.741 2.345c-.691.163-2.494.209-3.024.076z" fill="#87939a"/><path d="M2.606 6.86v-.674h1.352v1.348H2.606zm1.674 0v-.674h1.35v1.348H4.28zM5.953 5.1v-.71h1.352v1.423H5.953zm-1.673 0v-.71h1.35v1.423H4.28zm1.673 1.76v-.674h1.352v1.348H5.953zm1.609 0v-.674h1.352v1.348H7.562zm1.674 0v-.674h1.351v1.348H9.236zM7.562 5.1v-.71h1.352v1.423H7.562zm0-1.797v-.711h1.352v1.423H7.562z" fill="#87939a"/><path d="M8.918 5.102v-.719h-.675c-.592 0-.675-.002-.675-.02 0-.017.085-.02.698-.02h.698v.739c0 .73 0 .738-.023.738s-.023-.009-.023-.718zm.32 2.461c0-.026.008-.026.675-.026h.675V6.18h-.675c-.667 0-.675 0-.675-.027 0-.026.008-.027.698-.027h.698V7.59h-.698c-.69 0-.698 0-.698-.027zm-1.334-1.38c.187-.002.491-.002.675 0 .183.002.03.004-.342.004-.37 0-.52-.002-.333-.004z" fill="#87939a"/></svg>