<svg xmlns="http://www.w3.org/2000/svg" width="16" height="16" viewBox="0 0 16 16"><g fill="#87939a" fill-rule="evenodd"><g fill-opacity=".9" fill-rule="nonzero"><path d="M7.91 1.026c-.54 0-1.08.046-1.612.136-1.428.25-1.687.772-1.687 1.735v1.271h3.374v.424h-4.64a2.102 2.102 0 00-2.108 1.692 6.172 6.172 0 000 3.391 1.879 1.879 0 001.794 1.692h1.16V9.842A2.132 2.132 0 016.297 7.77h3.37a1.69 1.69 0 001.687-1.696V2.897a1.872 1.872 0 00-1.687-1.735 10.636 10.636 0 00-1.758-.136zM6.086 2.049A.636.636 0 116.09 3.32a.636.636 0 01-.005-1.271z"/><path d="M9.5 14.807a5.704 5.704 0 01-3.202-.049 1.954 1.954 0 01-1.687-1.695V9.885A1.711 1.711 0 016.298 8.19h3.37a2.152 2.152 0 002.107-2.116V4.592h1.267a1.801 1.801 0 011.686 1.692A5.65 5.65 0 0114.895 9H9.5v2.367H7.985v.424H9.5v.975a.633.633 0 00-.253.507c0 .203.096.39.253.51v1.024z"/></g><path fill="#62B543" d="M12.752 16l-2.494-6h1.17l1.814 4.607L15.048 10h1.144l-2.494 6z"/></g></svg>