<svg xmlns="http://www.w3.org/2000/svg" width="16" height="16" viewBox="0 0 16 16"><path d="M.766 13.566c-.078-.52.013-2.706.137-3.26.22-.992.666-1.888 1.219-2.45.303-.308 1.004-.778 1.157-.777.068 0 .235.243.445.644.184.355.433.761.554.903a1.247 1.25 0 0 0 1.115.441c.39-.06 1.01-.463 1.356-.885.43-.518.417-.543-.078-.162-1.108.851-1.708.878-2.242.102-.35-.51-1.008-1.852-1.008-2.054 0-.583 1.256-1.15 2.8-1.27 1.602-.123 2.523.111 4.04 1.032.83.503 1.348.676 1.868.623 1.052-.11 1.969-1.04 1.969-1.997 0-.303-.04-.44-.2-.694a1.594 1.69 0 0 0-.42-.45c-.266-.161-.752-.176-1.22-.033a3.298 3.303 0 0 1-.38.1c-.029 0-.117-.137-.199-.305-.208-.43-.148-.586.304-.807.337-.166.424-.18.957-.154.481.022.647.062.923.214.996.548 1.474 1.426 1.469 2.7-.004 1.35-.497 2.53-1.974 4.743-1.1 1.648-1.24 2.023-1.23 3.277l.007.824H10.49l-.495-.482c-1.238-1.202-2.06-1.51-2.804-1.05-.255.157-.662.746-.842 1.22l-.12.312H4.922l-.109-.39c-.138-.501-.556-.998-.891-1.062-.47-.086-.78.16-1.168.929l-.25.49-.847.018-.844.02z" fill="#9AA7B0" fill-opacity=".8" fill-rule="evenodd"/></svg>