<svg viewBox="0 0 16 16" height="16" width="16" xmlns="http://www.w3.org/2000/svg"><defs><linearGradient id="c" x1="104.325" y1="264.568" x2="149.004" y2="238.146" gradientUnits="userSpaceOnUse" gradientTransform="translate(4.608 -.503) scale(.05316)"><stop stop-color="#F9DDAE" stop-opacity=".1"/><stop offset="1" stop-color="#F9DDAE" stop-opacity=".3"/></linearGradient><linearGradient id="b" x1="102.976" y1="244.819" x2="66.21" y2="237.789" gradientUnits="userSpaceOnUse" gradientTransform="translate(4.608 -.503) scale(.05316)"><stop stop-color="#F9DDAE" stop-opacity=".1"/><stop offset="1" stop-color="#F9DDAE" stop-opacity=".3"/></linearGradient><linearGradient id="a" x1="103.921" y1="82.258" x2="39.672" y2="40.201" gradientUnits="userSpaceOnUse" gradientTransform="translate(4.608 -.503) scale(.05316)"><stop stop-color="#F9DDAE" stop-opacity="0"/><stop offset="1" stop-color="#F9DDAE" stop-opacity=".2"/></linearGradient></defs><path fill="#9AA7B0" fill-opacity=".8" fill-rule="evenodd" d="M1.017 7.498V2.007h1.997c1.22 0 2.136.03 2.356.076.642.137 1.054.405 1.85 1.207l.744.75h7.02v8.95H1.016z"/><path d="M4.674 14.988h11.31m-9.695.437h8.285m.253 0h.403" stroke="#e8eaf6" stroke-width=".106" stroke-miterlimit="10" stroke-linecap="round"/><path d="M13.274 13.445s1.577-.078 1.754-1.563a3.286 3.286 0 0 0-.03-1.028.08.08 0 0 1 .04-.085c.13-.065.468-.137.687.744.276 1.106-.17 1.369-.17 1.369l.375.085s-.37 1.724-2.339 1.284c-1.97-.44-.317-.806-.317-.806z" fill="#f68e1e" style="stroke-width:.0531561"/><path d="M12.8 13.612c.125.093.388.195.866.304 1.414.314 2-.481 2.223-.96l.04.011s-.368 1.724-2.338 1.284c-1.154-.26-1.065-.492-.792-.639zm2.413-2.874c.027.136.092.522.03 1.027-.092.779-.57 1.168-1.003 1.366.362-.222.706-.604.785-1.253a3.286 3.286 0 0 0-.03-1.027.08.08 0 0 1 .04-.086.28.28 0 0 1 .178-.027c0-.003 0 0 0 0z" fill="#ed701b" style="stroke-width:.0531561"/><path d="M13.55 13.404s.444.813 1.25.516c.805-.297-.26.286-.26.286l-.659.004-.624-.092s-.27-.28-.27-.294c0-.014.32-.376.32-.376zm-6.793.731c.003-.164.222-.263.29-.318.068-.051.147-.089.444-.068.065.003.133 0 .201-.007.072-.126.157-.3.236-.526.163-.474.198-1.331.204-1.567-.071-.447-.194-1.198-.15-1.41.051-.242-.089-.003-.089-.003s-.116-.761.444-1.174c.564-.413 1.021-.14 1.021-.14s.987.498.853 1.6c-.133 1.107.038 1.264-.071 1.534-.11.273-.17.303-.17.303s-.14-.218-.22-.303c-.078-.086.12.184.042.413-.079.228-.24.29-.24.29l-.01-.038c-.123.359-.293.734-.379.963-.133.348-.027.478.014.512l-.068-.048c.02.106-.079.243-.079.243a.168.168 0 0 0-.099-.14l-.15.058a1.51 1.51 0 0 0-.143.32c-.079.274-.133.26-.577.37-.447.109-.703-.069-.703-.069-.147.082-.724-.191-.731-.372-.01-.178.13-.423.13-.423z" fill="#ed701b" style="stroke-width:.0531561"/><path d="M7.846 13.431s.631.093.69.635c.037.366-.342.683-.342.683l.515.215s.396-.877.434-.922c.037-.044.416-.56.416-.56l-.76-.368-.749-.082-.122.184Z" fill="#d35f28" style="stroke-width:.0531561"/><path d="M7.637 14.258c-.003 0-.19-.028-.28.088-.078.103-.116.318-.003.584v.003a.205.205 0 0 1-.116.01c-.116-.296-.075-.532.03-.665.13-.167.376-.133.387-.133.03.003.05.034.047.065-.003.03-.034.051-.065.048zm-.88-.127c.003-.12.123-.205.211-.263.13-.044.25-.061.256-.061.031-.003.058.017.065.051.004.03-.017.058-.051.065-.003-.003-.358.044-.481.208z" fill="#bf5e32" style="stroke-width:.0531561"/><path d="M10.942 12.94c1.456-.275 2.59-.749 2.53-1.058-.058-.31-1.286-.337-2.742-.062-1.456.276-2.59.75-2.53 1.06.058.309 1.286.336 2.742.06zm-.46-2.434c1.456-.275 2.589-.75 2.53-1.059-.058-.309-1.286-.336-2.742-.06-1.456.275-2.59.749-2.53 1.058.058.31 1.285.337 2.742.061z" fill="#ed701b" style="stroke-width:.0531561"/><path d="M7.433 8.406a.5.5 0 0 1-.127-.235l.355 1.874a.505.505 0 0 0 .297.369h.004l-.01.006a.388.388 0 0 1-.212.048l.372 1.96a.51.51 0 0 0 .3.375l-.01.007a.389.389 0 0 1-.212.048l.325 1.71s.013.034.058.086c.304.47 1.379.672 2.615.47.007 0 .017 0 .024-.003 0 0 .29-.054.297-.058 1.222-.263 2.15-.846 2.26-1.393a.602.602 0 0 0 .024-.099l-.311-1.645a.377.377 0 0 1-.225.038l-.01-.004.003-.003a.54.54 0 0 0 .147-.489l-.366-1.932a.378.378 0 0 1-.225.038l-.01-.004.003-.003a.536.536 0 0 0 .147-.488l-.362-1.905a.487.487 0 0 1-.03.266c-.106.294-.448.553-.86.765h-.004c-.417.215-.953.4-1.55.512-.598.113-1.16.14-1.629.092h-.003c-.457-.048-.87-.167-1.075-.403Z" fill="#f68e1e" style="stroke-width:.0531561"/><path d="M10.143 8.713c1.456-.275 2.553-.943 2.449-1.492-.104-.548-1.368-.77-2.824-.494-1.457.276-2.553.944-2.45 1.492.105.548 1.37.77 2.825.494z" fill="#f9ddae" style="stroke-width:.0531561"/><path d="M10.123 8.327c1.154-.219 2.033-.696 1.963-1.067-.07-.37-1.062-.493-2.217-.275-1.154.218-2.033.696-1.962 1.066.07.37 1.062.494 2.216.276z" fill="#f6bf7c" style="stroke-width:.0531561"/><path d="M7.907 8.051c.007.031.02.062.041.092.178-.13.758-.498 1.95-.723 1.46-.277 2.147-.017 2.153-.017.007.003.014.003.021.003a.248.248 0 0 0 .017-.147c-.061-.324-.823-.457-1.779-.345-.146.018-.3.041-.464.072-1.143.225-2.01.697-1.939 1.065z" fill="#f68e1e" style="stroke-width:.0531561"/><path d="m8.214 9.328.116.621a.207.207 0 1 1-.406.079l-.116-.621a.207.207 0 0 1 .164-.243.204.204 0 0 1 .242.164zm.403 2.137.116.621a.207.207 0 1 1-.406.079l-.116-.621a.207.207 0 1 1 .406-.079zm.393 2.069.116.621a.207.207 0 1 1-.406.079l-.116-.622a.207.207 0 0 1 .163-.242.204.204 0 0 1 .243.164z" fill="#f9ddae" style="stroke-width:.0531561"/><path d="M8.194 12.858a.367.367 0 0 0 .212-.048l.01-.007c.454.277 1.369.362 2.369.198l.02-.003c.052-.007.236-.045.284-.055l.017-.003a6.74 6.74 0 0 0 .495-.127 1.83 1.83 0 0 0 .44-.198c.024-.013.048-.03.069-.044.003-.003.006-.007.01-.007a.403.403 0 0 0 .058-.044.092.092 0 0 0 .027-.024c.014-.01.027-.024.041-.034.017-.014.03-.027.048-.041.007-.007.017-.014.024-.024l.068-.068.02-.02.041-.049c.007-.006.014-.017.021-.023.014-.018.024-.035.034-.048.004-.007.01-.014.014-.024.013-.024.03-.048.04-.072.018-.034.031-.068.045-.102.007-.017.01-.034.017-.055a61.271 61.271 0 0 1 .017-.072c.004-.013.004-.027.004-.04 0-.024 0-.052-.007-.076l-.263-1.386a.15.15 0 0 0-.229-.099c-.355.232-.833.437-1.386.58h.007c-.017.004-.03.008-.048.01l-.027.008-.232.044-.045.01h-.006c-.004 0-.024.004-.034.004-1.103.18-2.14-.103-2.633-.447l.076-.113s-.024.007-.004-.037c0 0 .874.658 2.458.396l.02-.004c.052-.007.236-.044.284-.055l.017-.003c.17-.038.413-.096.574-.143.27-.082.522-.219.723-.413.168-.16.273-.328.307-.492a.51.51 0 0 0 .024-.099l-.273-1.434c.297-.18.523-.416.605-.648a.48.48 0 0 0 .03-.267l.004.014.126.669.236 1.236c.02.102.01.205-.024.297h.003c.096.051.099.12.099.12l.007.04v.004l.007.034.109.573.198 1.038.055.287s.02.099 0 .218a.309.309 0 0 1-.02.075.123.123 0 0 1 .033.024c.007.004.014.01.017.014a.764.764 0 0 0 .024.024.016.016 0 0 1 .007.014c.014.024.017.044.017.044l.007.041.007.034.304 1.611v.045c0 .003 0 .007-.004.01v.007c0 .007-.003.01-.003.017 0 .004-.004.007-.004.01l-.003.014a.527.527 0 0 1-.096.236c-.003.003-.003.006-.006.01-.01.013-.018.027-.028.044a1.376 1.376 0 0 1-.102.13l-.007.007a.317.317 0 0 1-.048.048l-.01.01c-.017.013-.03.03-.048.044a.032.032 0 0 1-.014.01c-.017.018-.037.031-.054.048-.004.004-.007.004-.007.007a2.53 2.53 0 0 1-.314.219h-.003a1.516 1.516 0 0 1-.09.05l-.003.004-.092.051a.88.88 0 0 0 .219-.4v-.002a.322.322 0 0 0 .01-.161l-.058-.314-.202-1.069a.15.15 0 0 0-.228-.099c-.27.178-.611.338-1.004.468a3.23 3.23 0 0 1-.379.126h.007l-.048.01-.027.008-.232.044-.045.01h-.007c-.003 0-.023.004-.034.004-1.113.18-2.113.061-2.601-.29z" fill="#ed701b" style="stroke-width:.0531561"/><path d="M13.376 14.21a.044.044 0 0 0 .01-.014.194.194 0 0 0 .028-.044c.003-.004.003-.007.006-.01a.545.545 0 0 0 .096-.236l.003-.014c0-.003.004-.007.004-.01.003-.007.003-.014.003-.017v-.007c0-.003 0-.007.004-.01v-.045l-.304-1.61-.007-.035-.007-.041s0-.02-.017-.044l-.007-.014s0-.003-.003-.003c-.004-.004-.007-.01-.014-.014l-.007-.007c-.003-.003-.01-.01-.017-.014a.678.678 0 0 1-.034-.024c.01-.023.014-.05.02-.075.024-.12 0-.218 0-.218l-.054-.287-.198-1.038-.11-.573-.006-.034v-.004l-.007-.04s-.003-.07-.099-.12h-.003a.548.548 0 0 0 .023-.297l-.235-1.236-.072-.376a.997.997 0 0 0 .168-.276.48.48 0 0 0 .03-.266l.004.013.126.67.236 1.235c.02.103.01.205-.024.297h.003c.096.051.099.12.099.12l.007.04v.004l.007.034.109.574.198 1.038.055.286s.02.1 0 .219a.306.306 0 0 1-.02.075.123.123 0 0 1 .033.024c.007.003.014.01.017.013a.764.764 0 0 1 .024.024c.004.004.007.007.007.014.014.024.017.044.017.044l.007.041.007.034.304 1.612v.044c0 .004 0 .007-.004.01v.007c0 .007-.003.01-.003.017 0 .004-.004.007-.004.01l-.003.014a.526.526 0 0 1-.096.236c-.003.003-.003.007-.006.01l-.028.044c-.003.004-.007.007-.01.014a1.375 1.375 0 0 1-.092.116l-.007.007a.318.318 0 0 1-.048.048.66.66 0 0 0-.01.01c-.017.014-.03.03-.048.044a.045.045 0 0 1-.013.01c-.018.018-.038.031-.055.049-.004.003-.007.003-.007.006l-.044.035.068-.09z" fill="#d35f28" style="stroke-width:.0531561"/><path d="m9.938 7.918.366.068.007-.174-.4-.099c-.003 0 .03.072.027.205z" fill="#f8c377" style="stroke-width:.0531561"/><path d="m9.911 7.853.024-.075c-.007.024-.014.051-.024.075z" fill="#f8c377" style="stroke-width:.0531561"/><path opacity=".3" d="m8.464 7.911.413-.522.61.034 1.694-.314-.775.86s-.41-.01-.478.041c-.068.051-.375.072-.512.024-.137-.048-.222-.085-.222-.085s-.406-.157-.73-.038z" fill="#9b2b1c" style="stroke-width:.0531561"/><path d="M11.089 7.396c.382-.243.724-.284 1.14-.147-.239-.02-.543.106-.71.218-.41.274-.755.478-1.232.502.006-.061.006-.116.01-.174.276-.089.553-.246.792-.4z" fill="#ed701b" style="stroke-width:.0531561"/><path d="M12.482 4.248c-.1.86-.352 2.212-.147 3.049-.423-.215-.857-.14-1.243.095-.386.24-.747.485-1.215.492.03-.082.051-.167.082-.246-.191.123-.318.133-.57.092-.25-.04-.618-.105-.881.062.294-.639.304-.936.55-1.676.245-.741 2.597-1.65 3.424-1.868Z" fill="#f68e1e" style="stroke-width:.0531561"/><path d="m9.925 7.754.024-.075c-.007.024-.017.048-.024.075z" fill="#f9ddae" style="stroke-width:.0531561"/><path d="m10.358 5.651.59-.45c.025.102.052.198.073.307a3.337 3.337 0 0 0-.54.727c-.092.188-.065.167-.136.318.088-.017.167-.02.252-.035a3.212 3.212 0 0 0-.648 1.165c-.192.12-.321.136-.57.092-.25-.041-.622-.103-.881.054.222-.508.355-1.014.505-1.683.03-.133.12-.423.167-.505.318-.553.908.1 1.188.01z" fill="#f9ddae" style="stroke-width:.0531561"/><path d="M9.396 7.734c.239.04.372.017.563-.096-.014.041-.03.082-.038.126-.19.12-.317.137-.57.093-.249-.045-.631-.103-.887.054.013-.044.034-.088.054-.133.266-.14.611-.089.878-.044z" fill="#f8c377" style="stroke-width:.0531561"/><path d="M9.628 6.303a3.32 3.32 0 0 0-.232.29c-.048.072-.048.076-.082.127.006.044.12-.082.102.017-.02.099-.246.372-.27.522" stroke="#f8c377" stroke-width=".062" stroke-miterlimit="10" stroke-linecap="round"/><path d="M11.935 6.198c-.023-.007-.047-.021-.071-.021.01-.164-.007-.136.01-.345.017-.208.13-.638.232-.874-.055-.085-.11-.153-.164-.232.01-.072.017-.147.028-.222-.72.222-1.42.492-2.107.803.83-.451 1.72-.792 2.622-1.069-.11.877-.352 2.216-.15 3.059a1.257 1.257 0 0 0-.444-.13c0-.32.007-.645.044-.97z" fill="#ed701b" style="stroke-width:.0531561"/><path opacity=".3" d="M10.932 5.648s-.427.635-1.096.72c-.67.086-.632 1.465-.632 1.465-.361-.055-.597-.014-.737.075l.25-.659.255-.976s.12-.499.178-.611c.058-.113 1.782-.014 1.782-.014z" fill="#9b2b1c" style="stroke-width:.0531561"/><path d="M11.17 2.302s.206-.054.578.1c.372.153.799.194 1.11.17.31-.024-.042.427-.042.427s-.498.737-1.618.833c-1.12.095-.027-1.53-.027-1.53z" fill="#ed701b" style="stroke-width:.0531561"/><path d="M12.816 2.999s.246-.31.147-.403c-.003.003-.495.618-1.222.608-.73-.007-.768.215-.768.215l.065.413c.047.003.102.003.163 0 1.117-.096 1.615-.833 1.615-.833z" fill="#d35f28" style="stroke-width:.0531561"/><path d="M7.655 5.808s.774.168 1.307-1.017c.509-1.13 2.315-.69 2.315-.69l.006 1.267-1.396.53-1.03.344-.544.331-.597-.39Z" fill="#831e0c" style="stroke-width:.0531561"/><path d="M10.541 2.993c.426-.242.613-.717.418-1.06-.195-.341-.699-.422-1.125-.18-.425.244-.612.718-.417 1.06.195.343.698.423 1.124.18z" fill="#ed701b" style="stroke-width:.0531561"/><path d="M10.143 2.652c.253-.145.37-.42.258-.615-.111-.195-.407-.236-.66-.091-.255.145-.37.42-.26.615.112.195.408.235.662.09z" fill="#fff" style="stroke-width:.0531561"/><path d="M9.882 2.284c.108-.062.165-.166.127-.233-.039-.068-.157-.072-.265-.01-.109.061-.165.166-.127.233.038.067.157.071.265.01z" fill="#831e0c" style="stroke-width:.0531561"/><path d="M10.972 2.302c.021-.11-.011-.21-.073-.222-.06-.011-.127.07-.148.18-.021.112.012.211.073.223.06.011.127-.07.148-.18z" fill="#f68e1e" style="stroke-width:.0531561"/><path d="M6.934 1.295c.29-.44.826-.454 1.321-.276.27.099 1.465.4 2.318.771.09.045.219.113.369.205l1.113.976c.051.072.099.144.143.216.622.949.051 2.143.051 2.143a2.076 2.076 0 0 1-1.426 1.01c-.01.004-.02.004-.035.008a2.346 2.346 0 0 1-1.43-.198l-.041.003-.888.413-.57-.293-.44-.287.123-.123.212.17c.283.427.914.43 1.222.031l.085-.112-.01-.11.106-.01c.204-.252.375-.392.775-.437.45-.05.805-.703.884-.857.003-.01-.007-.017-.014-.01-1.98 1.345-3.407-.403-3.407-.403a.336.336 0 0 0-.113.171c-.505-.454-.484-.765-.488-1.065 0 0-.3.061-.341.218-.038.137-.277-.79.335-1.88.026-.079.075-.147.109-.212 0 .003-.004.007-.004.01a.3.3 0 0 0 .041-.072z" fill="#f68e1e" style="stroke-width:.0531561"/><path d="M10.478 4.395s.488-.092.502.556" stroke="#ed701b" stroke-width=".049" stroke-miterlimit="10" stroke-linecap="round"/><path d="M9.119 5.3a.13.13 0 0 1-.11-.041c-.044-.051-.143-.123-.34-.096-.304.041-.342.277-.67.16-.403-.143.13.472.448.485.317.014.525-.194.846-.204.321-.01.645-.09.645-.09l-.085.072c.003 0-.396-.32-.734-.286z" fill="#f8bbd0" style="stroke-width:.0531561"/><path d="M8.45 5.808s-.485-.198-.46-.57c.013-.218-.189-.345-.353-.403-.163-.054-.32.178-.099.485.222.307.577.458.912.488z" fill="#f48fb1" style="stroke-width:.0531561"/><path d="M7.474 5.812a.116.116 0 0 1 .18-.004c.065.082.168.192.294.273.232.15.509.233.768-.05l.007-.008a1.917 1.917 0 0 1 1.004-.583c.006 0 .136-.028.208-.038.45-.051.806-.703.884-.857l.096.086s.177.054-.116.42c-.12.146-.052.276.085.358a.524.524 0 0 0 .676-.147 6.13 6.13 0 0 0 .375-.556s.4-.837.168-1.666l.102.15c.621.949.051 2.144.051 2.144a2.197 2.197 0 0 1-.28.382s-.99 1.219-2.393.878c0 0-.59-.308-.799.034-.208.341-.665.348-.87.198-.205-.15-.246-.308-.215-.331.03-.024-.062.044-.045.16-.003 0-.75-.075-.18-.843z" fill="#ed701b" style="stroke-width:.0531561"/><path d="M8.948 5.269c.02-.003.041-.003.065-.007a.136.136 0 0 0 .106.038.55.55 0 0 1 .13.003 2.725 2.725 0 0 0-.676.174c.099-.143.249-.184.375-.208z" fill="#f48fb1" style="stroke-width:.0531561"/><path d="M6.948 1.283c.29-.44.826-.454 1.321-.276.014.007 1.417.45 1.83.584.096.03.191.068.277.123.447.266.13.44-.069.481-.491.092-1.638-.273-2.341.976-.076.133-.14.28-.12.427.082.604.796 1.178 1.533 1.427-1.195.034-1.966-.908-1.966-.908a.333.333 0 0 0-.113.17c-.505-.453-.485-.764-.488-1.064 0 0-.3.061-.342.218-.037.137-.32-.835.332-1.91.02-.064.078-.118.112-.183 0 .004-.003.007-.003.01a.771.771 0 0 0 .037-.075z" fill="url(#a)" style="fill:url(#a);stroke-width:.0531561"/><path d="M7.327 2.145s-.434.157-.55.987" stroke="#ed701b" stroke-width=".049" stroke-miterlimit="10"/><path d="M6.436 3.265c.04-.157.413-.413.413-.413.003.304-.062.72.444 1.174 0 0 .03-.12.112-.17 0 0 1.438 1.833 3.356.597l-.007-.014.051.096-.177.113s0 .003-.003.003c-.01.007-.024.014-.035.02l-.024.014v-.003c-1.826 1.079-3.171-.55-3.171-.55a.335.335 0 0 0-.113.17c-.505-.453-.484-.764-.488-1.064 0 0-.3.061-.341.218-.014.058-.075-.089-.089-.351.027.136.062.201.072.16z" fill="#ed701b" style="stroke-width:.0531561"/><path d="M7.262 2.08a.18.18 0 0 0 .099.113c.03.014.061.024.092.034.208.072.423.089.625.058a.184.184 0 0 0 .143-.242 1.365 1.365 0 0 0-.761-.833.15.15 0 0 0-.202.096c-.081.273-.064.553.004.774Z" fill="#9b2b1c" style="stroke-width:.0531561"/><path d="M7.258 2.046c.209.072.424.09.625.058a.184.184 0 0 0 .144-.242 1.37 1.37 0 0 0-.274-.478c.222.174.386.41.468.659.034.11-.03.229-.143.242a1.31 1.31 0 0 1-.625-.058c-.03-.01-.061-.024-.092-.034a.172.172 0 0 1-.1-.113l-.01-.037c.004 0 .004.003.007.003z" fill="#831e0c" style="stroke-width:.0531561"/><path opacity=".3" d="M7.757 6.433c.014-.003-.126.089-.106.225 0 0-.31-.034-.379-.259.126.106.284.099.485.034z" fill="#9b2b1c" style="stroke-width:.0531561"/><path opacity=".3" d="M7.757 6.433c.014-.003-.126.089-.106.225 0 0-.31-.034-.379-.259.126.106.284.099.485.034z" fill="#9b2b1c" style="stroke-width:.0531561"/><path d="m12.342 5.112-.09.048a2.76 2.76 0 0 1-1.269 1.116c-.437.17-.98.277-1.55.14 0 0-.59-.307-.799.034-.208.342-.464.43-.693.314a1.82 1.82 0 0 1-.235-.164c.05.082.065.123.205.23.204.153.662.142.87-.199.208-.341.799-.034.799-.034.717.174 1.348-.058 1.826-.376.072-.047.314-.232.488-.413.007-.006.01-.013.018-.017l.003-.003c.003-.004.007-.01.014-.014l.003-.003c.297-.321.386-.54.41-.66z" fill="#d35f28" style="stroke-width:.0531561"/><path d="M14.984 4.04c-.024-.082-.106-.137-.191-.147a5.5 5.5 0 0 0-.42-.034c-.181-.003-1.639-.498-1.639-.498s-.607-.178-.785-.113c-.177.065-.642.403-.454 1.212.089.375.41.56.734.652.376.106.912.058 1.277-.068.61-.215 1.59-.639 1.478-1.004z" fill="#f68e1e" style="stroke-width:.0531561"/><path d="M14.646 4.03s-.304-.038-.468-.041c-.106-.004-.754-.11-1.201-.185-.352-.061-.598-.085-.867.15-.267.23-.23.697.153.94.4.252.901.122 1.219.034.594-.171 1.618-.601 1.164-.898z" fill="#f9ddae" style="stroke-width:.0531561"/><path d="M12.028 4.651c.245.085.59.116.962.062.666-.096 1.175-.414 1.175-.728-.133-.01-.755-.112-1.188-.184-.352-.061-.598-.085-.867.15-.195.168-.226.461-.082.7z" fill="#f6bf7c" style="stroke-width:.0531561"/><path d="M14.984 4.04a.149.149 0 0 1 .007.055.228.228 0 0 0-.15-.075 5.615 5.615 0 0 0-.42-.035c-.181-.003-1.639-.498-1.639-.498s-.604-.174-.785-.113c-.236.079-.335.127-.41.195a.76.76 0 0 1 .362-.321.557.557 0 0 1 .242-.003l.1.013c.218.038.443.103.443.103s1.458.495 1.639.498c.12 0 .307.02.42.034.085.01.164.062.191.147Z" fill="#d35f28" style="stroke-width:.0531561"/><path d="M12.198 4.21c.253-.252.495-.249.854-.218.45.041 1.106.096 1.212.089.14-.007.382 0 .45.003-.017-.017-.037-.037-.065-.054 0 0-.303-.038-.467-.041-.106-.004-.755-.11-1.202-.185-.352-.061-.597-.085-.867.15-.215.185-.232.523-.03.776a.505.505 0 0 1 .115-.52zm-1.881-1.798c-.529.327-.874.583-.607 1.007.266.423 1.037.522 1.447.385.59-.198.553-.86.29-1.287-.263-.426-.6-.433-1.13-.105Z" fill="#ed701b" style="stroke-width:.0531561"/><path d="M11.476 2.987c.02-.14-.024-.262-.1-.274-.077-.011-.156.093-.177.233-.021.14.024.262.1.274.076.011.155-.093.177-.233z" fill="#f68e1e" style="stroke-width:.0531561"/><path d="M10.894 2.732c-.467-.48-1.041.079-1.13.233-.013.024-.027.05-.04.078a.38.38 0 0 0 .085.454l.003.004c.25.218.734.416 1.034.208.076-.051.355-.656.048-.977z" fill="#fff" style="stroke-width:.0531561"/><path d="M10.294 3.058c.116-.124.138-.293.049-.376-.09-.084-.256-.052-.372.072-.116.124-.138.292-.049.376.09.084.256.051.372-.072z" fill="#831e0c" style="stroke-width:.0531561"/><path d="M10.417 2.928c.047-.051.056-.12.019-.155-.038-.035-.106-.022-.154.029-.048.05-.056.12-.02.155.038.035.107.022.155-.03z" fill="#fff" style="stroke-width:.0531561"/><path d="M10.372 2.552a.526.526 0 0 1 .403.038c.126.064.232.18.28.317.05.14.05.29.024.426a1.14 1.14 0 0 1-.157.39l-.004.006-.003.004-.034.03c-.01.007-.024.018-.035.024-.024.014-.047.028-.075.038a.627.627 0 0 1-.157.04.728.728 0 0 1-.31-.033 1.124 1.124 0 0 1-.27-.14 1.351 1.351 0 0 1-.222-.195c.082.055.167.103.253.147.085.041.174.075.266.096.089.02.18.023.27.006a.373.373 0 0 0 .122-.04c.021-.01.038-.021.055-.031.01-.007.017-.014.024-.017l.02-.017-.01.01a1.33 1.33 0 0 0 .14-.348.763.763 0 0 0 0-.362.521.521 0 0 0-.208-.29.73.73 0 0 0-.372-.1Z" fill="#9b2b1c" style="stroke-width:.0531561"/><path d="M11.611 10.922c.079-1.11-.932-1.56-.932-1.56s-.471-.25-1.014.188c-.543.44-.389 1.195-.389 1.195s.13-.243.089 0c-.034.215.123.959.215 1.4.003.238.01 1.092-.13 1.573a3.2 3.2 0 0 1-.208.54 1.41 1.41 0 0 1-.201.017c-.297-.007-.373.034-.44.088a1.877 1.877 0 0 1-.083.058l.028.147s.013.034.058.086c.215.334.819.532 1.59.546a.542.542 0 0 0 .028-.103c.027-.112.078-.228.13-.327l.15-.065s.088.027.105.133c0 0 .093-.14.069-.246l.071.045c-.044-.031.437-.15.553-.51.076-.231-.365-.617-.259-.982l.01.037s.157-.068.226-.3c.064-.232-.144-.492-.062-.41.082.082.232.294.232.294s.062-.034.157-.314c.106-.273-.071-.42.007-1.53z" fill="#d35f28" style="stroke-width:.0531561"/><path d="m10.17 14.698.014.01s-.007-.003-.013-.01z" fill="#f68e1e" style="stroke-width:.0531561"/><path d="M7.753 14.517s-.01.164 0 0 .233-.253.304-.304c.072-.048.154-.082.448-.048.061.007.133.007.201.004a3.1 3.1 0 0 0 .26-.516c.184-.467.262-1.317.28-1.556-.048-.448-.137-1.205-.08-1.414.066-.239-.088-.01-.088-.01s-.082-.768.502-1.15c.58-.386 1.027-.09 1.027-.09s.963.547.775 1.643c-.184 1.096-.024 1.263-.146 1.53-.123.266-.188.296-.188.296s-.13-.225-.202-.314c-.075-.089.11.188.02.413-.088.226-.252.277-.252.277l-.007-.038c-.14.352-.327.72-.423.942-.15.342-.051.475-.01.513l-.065-.052c.017.106-.092.24-.092.24-.007-.107-.092-.144-.092-.144l-.154.051a1.433 1.433 0 0 0-.16.314c-.093.27-.144.253-.598.342-.45.088-.7-.103-.7-.103-.153.072-.713-.225-.71-.406-.003-.184.15-.42.15-.42Z" fill="#f68e1e" style="stroke-width:.0531561"/><path d="M7.754 14.517v.02-.02c.01-.164.232-.253.303-.304.072-.048.154-.082.448-.048.061.007.133.007.201.004a3.1 3.1 0 0 0 .26-.516c.184-.467.262-1.317.28-1.556-.048-.448-.137-1.206-.08-1.414.066-.239-.088-.01-.088-.01s-.082-.768.502-1.15c.478-.314.86-.175.986-.113-.157.01.103.143-.105.28-.58.386-.502 1.15-.502 1.15s.153-.228.089.01c-.055.209.03.967.078 1.414-.017.235-.543 1.004-.73 1.471-.09.222-.236.58-.308.628-.071.048-.491.144-.502.308 0 0-.249.184-.249.365 0 .18.427.403.475.427-.328.01-.505-.127-.505-.127-.154.072-.714-.225-.71-.406.003-.177.156-.413.156-.413zm-.004.041v.003zm0 .017v.007-.007z" fill="url(#b)" style="fill:url(#b);stroke-width:.0531561"/><path d="M8.539 14.698c-.058-.003-.195.007-.229.058a.513.513 0 0 1-.048.065c-.099.126-.17.239-.095.334.058.072.109.14.15.195-.007-.003-.007-.007-.007-.007a.229.229 0 0 1-.137 0c-.027-.037-.058-.075-.092-.12-.14-.173.007-.361.096-.474.017-.02.03-.04.04-.054.08-.123.305-.113.332-.11.03 0 .055.028.055.062s-.035.054-.065.051zm-.789-.178.003-.003-.003.003c.003-.003 0 0 0 0zm.004-.003c.006-.13.146-.212.238-.266.127-.031.23-.02.236-.02.03 0 .055.027.055.057 0 .031-.028.055-.058.055-.01.003-.287-.027-.472.174z" fill="#ed701b" style="stroke-width:.0531561"/><path d="M68.61 28.632c-8.413-3.018-17.405-3.147-23.12 2.954l.385.193-.77.193a14.152 14.152 0 0 0-1.414 1.862c-.257.45-.514.963-.77 1.413 0-.064.064-.128.064-.193-.578 1.092-2.954 5.395-3.275 6.487.706.321 2.183-1.734 3.981-2.312 1.798-.578 3.468.642 5.138.45l-.128 1.155c12.651 1.092 12.459-1.99 12.459-1.99 3.275-.322 6.165-1.157 8.606-3.533C72.5 32.65 78 31.521 78 31.521c-4.348-1.294-7.939-2.37-9.39-2.889Z" fill="#ed701b" style="mix-blend-mode:multiply" opacity=".48" transform="translate(4.608 -.503) scale(.05316)"/><path d="M10.43 12.243c.18-.163.437-.32.7-.42a.026.026 0 0 0 .017-.023 6.76 6.76 0 0 1 .03-.308c.004-.017-.01-.03-.027-.03-.396-.007-.928.249-1.236.529 0 0-.378.242-.19 1.236.003.027.04.03.05.006v-.003c.01-.027.052-.02.052.01.006.137-.113.226-.041.536.013.051 0 .1-.031.11-.488.13-.277.604-.277.604a.291.291 0 0 1 .014.293.866.866 0 0 0-.075.174c-.092.27-.143.253-.597.342-.396.075-.635-.058-.687-.096-.006-.003-.017-.007-.023-.003a.376.376 0 0 1-.134.02c-.027 0-.037.038-.013.051.13.065.263.1.33.079a.02.02 0 0 1 .025.003c.051.035.29.171.69.096.45-.089.505-.072.597-.341.037-.106.095-.215.153-.308.004-.006.007-.01.014-.01l.133-.044c.007-.004.017 0 .024.003.017.01.051.038.068.082.007.02.038.024.048.004a.39.39 0 0 0 .055-.134.027.027 0 0 1 .044-.017l.024.017c-.04-.037-.14-.167.01-.512.1-.222.287-.59.424-.942.006.024.006.038.006.038s.164-.052.253-.277a.412.412 0 0 0 .017-.061c0-.004.004-.01.004-.014.003-.02.003-.04.006-.058v-.003c0-.02 0-.038-.003-.058v-.007a1.753 1.753 0 0 0-.01-.058c-.01.01-.014.01-.014.01s-.13-.225-.201-.314c-.075-.089.109.188.02.413-.089.225-.252.276-.252.276s-.004-.013-.007-.037c-.045.116-.089.246-.133.365-.01.027-.048.024-.052-.003-.177-.977.195-1.216.195-1.216z" fill="#ed701b" style="stroke-width:.0531561"/><path d="M11.802 14.875c0-.034-.03-.047-.044-.075a.475.475 0 0 1-.1.23c0-.021 0-.038-.003-.059-.15.126-.276.236-.42.382-.177.188-.389.154-.631.093-.242-.062-.427-.15-.587-.345-.29-.079-.406-.321-.4-.601.004-.133.086-.17.168-.246.044-.03.01-.051.065-.11a.66.66 0 0 1 .361-.142.69.69 0 0 1 .37.095c.115-.133 1.249.522 1.221.778zm.011-.003.01.014z" fill="#f68e1e" style="stroke-width:.0531561"/><path d="M10.078 15.172zm.482-.655c-.007 0-.352-.058-.427.02-.133.147-.12.205-.126.233-.028.088-.052.187-.017.283.006.02.02.03.03.048-.017 0-.03-.004-.044-.007a.143.143 0 0 1-.11-.14.84.84 0 0 1 .038-.222c.007-.027.038-.174.185-.293.112-.093.433-.041.495-.031.133.027.075.02.081.075.007.055-.017.044-.105.034zm-.724-.352c.014-.034.044-.054.078-.075.079-.054.386-.037.427-.034.106.014.082.004.086.058.003.055.003.055-.106.051-.01 0-.475-.023-.516.086-.01-.034.02-.051.03-.086z" fill="#ed701b" style="stroke-width:.0531561"/><path d="M11.092 15.391s.792-.27 1.376-.184c.229.034.137.006.358-.041a.372.372 0 0 0 .188-.625l.024-.324-.754-.635s-1.274.55-1.7.515c-.43-.037.508 1.294.508 1.294z" fill="#f68e1e" style="stroke-width:.0531561"/><path d="m13.113 14.38-.075-.163-.655-.55-.116-.041-.256.068c-.37.147-1.021.39-1.356.403.16.277.7.618 1.048.936a.976.976 0 0 0 .3.17c.158-.013.318-.013.468.007.23.034.137.007.359-.041.283-.065.39-.443.283-.788z" fill="#ed701b" style="stroke-width:.0531561"/><path d="M13.27 12.875c-.406-.526-1.065-1.185-1.638-1.29.017.027.105.085-.27-.082-.338-.147-.953.126-1.28.43 0 0-.352.228-.15 1.18 0 0 .047-.142.078-.183 0 0-.051.338.212.737l.034-.133s.314.857 1.662 1.143c.328.069.888-.16 1.01-.208.482-.191.769-.406.615-1.017-.04-.16-.17-.444-.273-.577z" fill="#f68e1e" style="stroke-width:.0531561"/><path d="M11.417 14.53c-.56-.351-.714-.774-.714-.774l-.034.133c-.263-.4-.212-.738-.212-.738a1.06 1.06 0 0 0-.078.185c-.202-.953.15-1.181.15-1.181.328-.304.942-.577 1.28-.43.379.163.287.109.27.081.109.02.266.178.372.215-.236-.153-.543-.385-.82-.436.018.027.106.085-.27-.082-.337-.147-.952.126-1.28.43 0 0-.35.228-.15 1.18 0 0 .048-.142.079-.183 0 0-.051.338.212.737l.034-.133c-.004 0 .232.638 1.16.997z" fill="url(#c)" style="fill:url(#c);stroke-width:.0531561"/><path d="M13.543 13.449c-.05-.158-.04-.185-.013-.021v.004a.205.205 0 0 1-.147.232c-.184.05-.44.054-.621-.212-.212-.31-.611-.662-.786-.806l.181.157c.123.116.26.267.318.407 0 0 .04.061-.051.081l-.038.007c-.024.007-.037.035-.02.058.082.113.402.512.6.758.093.113.094.267-.065.373.01.014.12.156.137.15.41-.174.673-.66.505-1.188z" fill="#ed701b" style="stroke-width:.0531561"/></svg>