<svg xmlns="http://www.w3.org/2000/svg" version="1.0" width="16" viewBox="0 0 16 16" height="16"><g fill="#aeb9c0"><path d="M8.745 3.768c-.83.288-1.258.61-2.782 2.086L4.52 7.262l.658.6c.358.332.74.61.843.61.116 0 .831-.6 1.605-1.32 1.12-1.054 1.5-1.343 1.893-1.443.958-.255 1.2-.133 2.943 1.531l1.582 1.498.75-.721.75-.71-1.523-1.52c-1.258-1.243-1.662-1.575-2.228-1.83-.877-.378-2.263-.466-3.048-.19z"/><path d="m1.254 8.172-.716.7L2.13 10.38c1.94 1.853 2.447 2.13 3.89 2.13s1.95-.277 3.89-2.13l1.593-1.509-.6-.588c-.416-.4-.693-.588-.9-.588-.208 0-.624.322-1.616 1.265-1.316 1.253-1.732 1.509-2.425 1.509-.611 0-1.108-.333-2.482-1.653-.761-.744-1.408-1.343-1.442-1.343-.035 0-.393.31-.785.7z"/></g></svg>