<svg xmlns="http://www.w3.org/2000/svg" width="16" height="16" viewBox="0 0 16 16"><path d="M.649 13.16c.363-1.387 1.045-4.444 1.93-8.655.049-.233.125-.25 1.125-.25.59 0 1.072.033 1.07.073a8.4 8.4 0 0 1-.158.692c-.087.34-.131.619-.099.619s.325-.255.651-.567c.378-.362.807-.64 1.184-.767.713-.24 1.9-.26 2.406-.039.425.186.978.823.978 1.126 0 .374.125.351.51-.095.209-.242.648-.593.977-.78.495-.282.766-.35 1.567-.39 1.176-.06 1.875.198 2.24.826.342.587.29 1.294-.28 3.745-.28 1.205-.628 2.748-.773 3.43l-.263 1.238-1.153.034c-1.062.031-1.147.017-1.09-.177.342-1.154 1.308-5.647 1.308-6.085 0-.764-.346-1.145-1.04-1.145-.937 0-1.75.753-2.214 2.05-.126.353-.453 1.695-.727 2.983l-.498 2.34-1.15.034c-1.062.031-1.147.017-1.09-.177.307-1.033 1.218-5.215 1.272-5.833.063-.735.049-.805-.224-1.091-.578-.605-1.796-.28-2.44.649-.502.727-.88 2.061-1.756 6.212-.054.254-.106.265-1.194.265-1.126 0-1.138-.003-1.069-.265z" fill="#9AA7B0" fill-opacity=".8" fill-rule="evenodd"/></svg>