<svg xmlns="http://www.w3.org/2000/svg" width="16" height="16" viewBox="0 0 16 16"><g fill="#87939a" fill-rule="evenodd"><g fill-opacity=".9" fill-rule="nonzero"><path d="M7.91 1.026c-.54 0-1.08.046-1.612.136-1.428.25-1.687.772-1.687 1.735v1.271h3.374v.424h-4.64a2.102 2.102 0 00-2.108 1.692 6.172 6.172 0 000 3.391 1.879 1.879 0 001.794 1.692h1.16V9.842A2.132 2.132 0 016.297 7.77h3.37a1.69 1.69 0 001.687-1.696V2.897a1.872 1.872 0 00-1.687-1.735 10.636 10.636 0 00-1.758-.136zM6.086 2.049A.636.636 0 116.09 3.32a.636.636 0 01-.005-1.271z"/><path d="M10.51 8a2.152 2.152 0 001.265-1.926V4.592h1.267a1.801 1.801 0 011.686 1.692c.176.559.262 1.137.26 1.716h-4.479zm-.018.008L6 12.5l2.49 2.49a5.704 5.704 0 01-2.192-.232 1.954 1.954 0 01-1.687-1.695V9.885A1.711 1.711 0 016.298 8.19h3.37c.293-.006.572-.07.824-.182z"/></g><path d="M15.5 12.5L12 16V9zm-8 0L11 9v7z"/></g></svg>