<svg xmlns="http://www.w3.org/2000/svg" viewBox="0 0 16 16" height="16" width="16"><path d="M1 13h14V4H7.985L6.696 2.711A2.8 2.8 0 0 0 4.98 2H1.05a.051.051 0 0 0-.05.051V13z" fill-rule="evenodd" fill-opacity=".8" fill="#9AA7B0"/><path fill="#9AA7B0" d="M1.017 7.498V2.007h1.997c1.22 0 2.136.03 2.356.076.642.137 1.054.405 1.85 1.207l.744.75h7.02v8.95H1.016z"/><g fill="none"><path fill="#509cd1" d="m12.253 13.876.928-.93 1.975 1.979-.928.93z"/><path fill="#9cc4e8" d="M14.33 14.103c1.973-1.976 2.034-5.119.137-7.019-1.896-1.9-5.033-1.838-7.006.138"/><path fill="#9cc4e8" d="M13.44 13.206c-1.716 1.72-4.446 1.773-6.096.12-1.65-1.653-1.597-4.387.12-6.107"/><path fill="#509cd1" d="M13.434 13.212c1.473-1.476 1.519-3.822.102-5.241-1.416-1.419-3.758-1.373-5.231.103"/><path fill="#509cd1" d="M12.68 12.45c-1.255 1.257-3.252 1.297-4.46.087-1.207-1.209-1.168-3.209.088-4.467"/><path fill="#9cc4e8" d="M12.676 12.454c1.01-1.01 1.04-2.618.07-3.59-.97-.97-2.574-.94-3.582.071"/><path fill="#509cd1" d="M11.762 11.664c.461-.463.476-1.199.032-1.644-.444-.444-1.179-.43-1.64.033"/><path fill="#9cc4e8" d="M9.165 8.933c-.763.765-.787 1.98-.053 2.716.734.735 1.948.711 2.711-.053"/></g></svg>