<svg xmlns="http://www.w3.org/2000/svg" width="16" height="16" viewBox="0 0 16 16"><g fill="#87939a" fill-rule="evenodd"><path d="m12.298 1-1.596 5H5.298L3.702 1 1 8.907l7 5.101 7.001-5.101z"/><path d="M10.701 6 8 14.008 14.007 6zM8 14.008l7-5.101v-.001l-.992-2.904zM1 8.906v.001l7 5.101L1.994 6z"/><path d="m1.994 6 6.007 8.008L5.299 6z"/></g><path d="M4.434 11.395c-1.809-1.32-3.313-2.44-3.342-2.488-.058-.093.826-2.732.924-2.758.03-.008 1.35 1.71 2.932 3.82 1.582 2.109 2.853 3.833 2.825 3.83-.028-.001-1.53-1.083-3.34-2.404zm.67-1.232-2.93-3.9-.193-.256h3.313l1.303 3.871c.717 2.13 1.29 3.885 1.274 3.9-.016.017-1.261-1.61-2.767-3.615zm1.551-.194L5.319 6.007h2.676c1.472 0 2.676.012 2.676.026 0 .04-2.644 7.86-2.664 7.88-.01.01-.618-1.765-1.352-3.944zm1.456 3.75c.017-.047.608-1.8 1.313-3.898l1.281-3.812 1.652-.001c1.312-.001 1.64.016 1.587.084-.036.046-1.353 1.8-2.926 3.898-1.574 2.097-2.878 3.813-2.9 3.813-.02 0-.024-.038-.007-.084zm.125.044c.052-.137 5.71-7.62 5.762-7.62.075 0 .962 2.695.914 2.774-.023.036-1.497 1.125-3.277 2.42a1409.54 1409.54 0 0 0-3.33 2.427c-.07.053-.089.053-.069-.001zm2.521-7.841c.017-.047.364-1.13.77-2.407.405-1.277.754-2.322.774-2.322.02 0 .116.237.212.526.097.289.467 1.372.821 2.406l.645 1.882h-1.627c-1.274 0-1.62-.019-1.595-.085zm-8.696.028c0-.06 1.44-4.316 1.57-4.642.07-.174.143.017.845 2.204.422 1.316.769 2.416.77 2.444 0 .028-.715.05-1.592.05-.876 0-1.593-.025-1.593-.056z" fill="#87939a"/></svg>