<svg xmlns="http://www.w3.org/2000/svg" width="16" height="16" viewBox="0 0 16 16"><path d="M.649 13.16c.363-1.387 1.045-4.444 1.93-8.655.049-.233.125-.25 1.125-.25.59 0 1.072.033 1.07.073a8.4 8.4 0 0 1-.158.692c-.087.34-.131.619-.099.619s.325-.255.651-.567c.378-.362.807-.64 1.184-.767.713-.24 1.9-.26 2.406-.039.425.186.978.823.978 1.126 0 .374.125.351.51-.095.209-.242.648-.593.977-.78.495-.282.766-.35 1.567-.39 1.176-.06 1.875.198 2.24.826.342.587.29 1.294-.28 3.745-.28 1.205-.628 2.748-.773 3.43l-.263 1.238-1.153.034c-1.062.031-1.147.017-1.09-.177.342-1.154 1.308-5.647 1.308-6.085 0-.764-.346-1.145-1.04-1.145-.937 0-1.75.753-2.214 2.05-.126.353-.453 1.695-.727 2.983l-.498 2.34-1.15.034c-1.062.031-1.147.017-1.09-.177.307-1.033 1.218-5.215 1.272-5.833.063-.735.049-.805-.224-1.091-.578-.605-1.796-.28-2.44.649-.502.727-.88 2.061-1.756 6.212-.054.254-.106.265-1.194.265-1.126 0-1.138-.003-1.069-.265z" fill="#87939a"/><path d="M.697 13.261c0-.045.199-.94.442-1.988.243-1.049.68-3.015.97-4.369.29-1.354.578-2.495.638-2.536.061-.04.534-.075 1.051-.075l.941-.002-.063.251a8.812 8.812 0 0 0-.128.727l-.065.475.594-.534c.86-.771 1.247-.945 2.222-.999.453-.025.987-.014 1.187.023.448.084 1.108.716 1.204 1.152.037.172.094.312.125.312.032 0 .266-.195.521-.434.256-.239.69-.566.966-.728.452-.265.603-.297 1.556-.327.953-.031 1.098-.011 1.497.202.673.36.84.745.78 1.79-.04.676-1.123 5.935-1.433 6.96-.047.152-.19.175-1.102.175-.577 0-1.049-.03-1.049-.068a97 97 0 0 1 .499-2.286c.273-1.22.565-2.609.648-3.085C12.944 6.483 12.69 6 11.7 6c-.92 0-1.73.739-2.2 2.01-.091.248-.407 1.537-.7 2.864l-.533 2.412-1.071.029c-.739.02-1.07-.007-1.07-.084 0-.062.091-.473.204-.914.465-1.824 1.019-4.6 1.034-5.195.016-.582-.006-.657-.264-.88-.38-.326-1.077-.33-1.688-.01-.9.471-1.354 1.554-2.14 5.116l-.428 1.938-1.073.029c-.59.015-1.073-.009-1.073-.054z" fill="#aeb9c0"/></svg>