<svg xmlns="http://www.w3.org/2000/svg" width="16" height="16" viewBox="0 0 16 16"><path d="M1.017 7.498V2.007h1.997c1.22 0 2.136.03 2.356.076.642.137 1.054.405 1.85 1.207l.744.75h7.02v8.95H1.016z" fill="#9AA7B0" fill-opacity=".8" fill-rule="evenodd"/><path d="M15.669 15.932c.107-.044.04-.222-.246-.652l-.174-.26.099-.063c.054-.035.217-.165.362-.29.146-.124.281-.226.301-.226.053 0-.158-.215-.27-.274-.143-.076-.52-.063-1.117.041-.533.092-.76.094-.872.005-.084-.065-.372-.433-.508-.648-.3-.474-.838-.988-1.246-1.19-.215-.106-1.017-.418-1.79-.695-1.422-.51-1.96-.796-2.427-1.287-.27-.285-.44-.55-.885-1.382-.444-.83-.62-1.1-.91-1.39a1.96 1.96 0 0 0-1.357-.576 1.657 1.657 0 0 1-.726-.167c-.25-.132-.37-.163-.454-.117-.064.035-.07.068-.056.37.023.551.143.726.955 1.403.294.245.447.448.517.686.03.103.144.624.252 1.157.306 1.5.562 2.304.927 2.9.187.305.536.685.718.78l.115.06-.023-.33c-.03-.421.02-.419.184.008.242.635.523 1.084.907 1.451.371.355.871.608 1.272.646l.185.017-.146-.172c-.192-.225-.5-.772-.638-1.134-.18-.473-.314-1.28-.211-1.28.018 0 .06.076.095.17.214.594.28.74.374.843l.106.115.489-.02c.269-.012.721-.056 1.005-.1.666-.1 1.352-.11 1.675-.02.301.082.665.282 1.17.642.387.277 1.09.678 1.486.849.26.112.73.183.862.13z" fill="#2780af"/></svg>