<svg xmlns="http://www.w3.org/2000/svg" viewBox="0 0 16 16" height="16" width="16"><defs><linearGradient gradientUnits="userSpaceOnUse" gradientTransform="matrix(.14094 0 0 -.1318 1.333 -74.89)" y2="-689.92" x2="63.99" y1="-609.92" x1="63.99" id="a"><stop offset="0"/><stop offset="1"/></linearGradient></defs><path d="M1 13h14V4H7.985L6.696 2.711A2.8 2.8 0 0 0 4.98 2H1.05a.051.051 0 0 0-.05.051V13z" fill-rule="evenodd" fill-opacity=".8" fill="#9AA7B0"/><path fill="#aeb9c0" d="M1.017 7.498V2.007h1.997c1.22 0 2.136.03 2.356.076.642.137 1.054.405 1.85 1.207l.744.75h7.02v8.95H1.016z"/><path fill="url(#a)" d="M4.714 5.369H15.99v10.544H4.714z"/><path fill="#fff" d="M7.364 7.702H5.841v-.924h4.13v.923H8.463v3.637h-1.1zm2.607 1.366c0-1.318 1.043-2.385 2.55-2.385.917 0 1.48.29 1.932.712l-.69.738c-.38-.317-.762-.514-1.255-.514-.818 0-1.424.645-1.424 1.423v.013c0 .791.578 1.437 1.424 1.437.563 0 .902-.211 1.282-.54l.69.645c-.507.501-1.056.817-2 .817a2.454 2.295 0 0 1-2.51-2.346m-4.129 4.736h4.13v.698h-4.13z"/></svg>