<svg xmlns="http://www.w3.org/2000/svg" width="16" height="16" viewBox="0 0 16 16"><path fill="#9AA7B0" fill-opacity=".8" fill-rule="evenodd" d="M1 13h14V4H7.985L6.696 2.711A2.8 2.8 0 0 0 4.98 2H1.05a.051.051 0 0 0-.05.051V13z"/><path d="M1.017 7.498V2.007h1.997c1.22 0 2.136.03 2.356.076.642.137 1.054.405 1.85 1.207l.744.75h7.02v8.95H1.016z" fill="#aeb9c0"/><g fill="none" fill-rule="evenodd"><path fill="#1f58ff" d="M4.504 6.99h11.409v8.923H4.504z"/><g fill="#fff"><path d="M15.1 14.186v.846h-2.667l1.455-3.158c.143-.314.215-.559.215-.734a.56.56 0 0 0-.065-.302c-.043-.067-.11-.1-.198-.1a.214.214 0 0 0-.198.11c-.043.074-.065.22-.065.439v.472h-1.045v-.181c0-.278.013-.497.04-.657a1.19 1.19 0 0 1 .2-.474c.106-.155.243-.273.413-.352.17-.08.372-.12.61-.12.463 0 .814.122 1.052.366.238.245.356.554.356.927 0 .284-.066.585-.2.901-.134.317-.528.99-1.183 2.017z"/><path fill-rule="nonzero" d="M9.564 12.173h1.297v-1.956h.978v4.819h-.978v-1.792H9.564v1.792h-.978v-4.819h.978z"/></g></g></svg>