<svg viewBox="0 0 16 16" height="16" width="16" xmlns="http://www.w3.org/2000/svg"><path fill="#9AA7B0" fill-opacity=".8" fill-rule="evenodd" d="M1.017 7.498V2.007h1.997c1.22 0 2.136.03 2.356.076.642.137 1.054.405 1.85 1.207l.744.75h7.02v8.95H1.016z"/><path class="cls-1" d="M15.676 11.465c0-.733-.643-1.156-1.412-1.344a35.603 33.906 0 0 0-3.452-.868c-.142 0-.36 0-.615-.04a24.71 23.531 0 0 1-1.531-1.957.17.161 0 0 0-.304 0 8.966 8.539 0 0 0-.297 1.674 3.678 3.503 0 0 0 0 .532l-.346.14a8.154 7.765 0 0 1-2.357-1.734.162.155 0 0 0-.283.101v.437a8.267 7.873 0 0 0 .847 3.483v.175a3.057 2.911 0 0 0 .94 2.32l.035.033a3.53 3.362 0 0 0 2.393.894h2.414a3.46 3.294 0 0 0 2.358-.854 5.111 4.868 0 0 0 .996-1.21 5.387 5.13 0 0 0 .55-1.385 1.412 1.345 0 0 0 .057-.29v-.107zm-.925.672a.261.249 0 0 1-.19.108h-.142a1.913 1.822 0 0 1-.896-.208.268.255 0 0 1-.085-.384 1.998 1.903 0 0 1 1.447-.753.226.215 0 0 1 .233.216 1.97 1.876 0 0 1-.367 1.048z" style="fill:#f68e1e;stroke:#362f8a;stroke-width:.344475px;stroke-miterlimit:10"/><path class="cls-4" d="M14.751 12.164a.261.249 0 0 1-.19.108h-.142a1.913 1.822 0 0 1-.896-.208.268.255 0 0 1-.085-.384 1.998 1.903 0 0 1 1.447-.753.226.215 0 0 1 .233.215 1.97 1.876 0 0 1-.367 1.022z" style="fill:#362f8a;stroke-width:.688949"/><path class="cls-2" d="M8.687 7.277a.162.155 0 0 0-.297 0 13.957 13.292 0 0 0-.318 2.205 5.563 5.298 0 0 1 2.118-.283 14.931 14.22 0 0 1-1.503-1.922z" style="fill:#362f8a;stroke:#362f8a;stroke-width:.344475px;stroke-miterlimit:10"/></svg>