<svg xmlns="http://www.w3.org/2000/svg" height="16" viewBox="0 0 512 512" width="16"><g fill="#aeb9c0"><path d="M254.104 27.134c-18.61.088-36.383 1.673-52.022 4.442-46.069 8.14-54.432 25.173-54.432 56.589v41.493h108.866v13.829H106.792c-31.64 0-59.343 19.017-68.006 55.193-9.997 41.467-10.443 67.347 0 110.645 7.739 32.227 26.217 55.191 57.857 55.191h37.43v-49.742c0-35.929 31.09-67.629 68.008-67.629h108.74c30.268 0 54.43-24.92 54.43-55.319V88.164c0-29.498-24.887-51.665-54.43-56.59-18.701-3.113-38.107-4.529-56.717-4.44zm-58.873 33.37c11.245 0 20.429 9.332 20.429 20.807 0 11.435-9.184 20.684-20.43 20.684-11.287 0-20.428-9.25-20.428-20.684 0-11.475 9.141-20.808 20.429-20.808z"/><path d="M378.827 143.485v48.341c0 37.483-31.772 69.023-68.005 69.023H202.08c-29.785 0-54.432 25.494-54.432 55.322v103.667c0 29.5 25.653 46.857 54.432 55.317 34.462 10.133 67.503 11.97 108.74 0 27.406-7.93 54.43-23.905 54.43-55.317v-41.494H256.517v-13.828H419.68c31.642 0 43.435-22.067 54.435-55.191 11.366-34.106 10.883-66.902 0-110.645-7.819-31.494-22.753-55.193-54.434-55.193h-40.855zm-61.154 262.52c11.285 0 20.428 9.242 20.428 20.677 0 11.474-9.143 20.812-20.428 20.812-11.243 0-20.426-9.338-20.426-20.812-.001-11.435 9.182-20.678 20.426-20.678z"/></g></svg>
