<svg xmlns="http://www.w3.org/2000/svg" width="16" height="16" viewBox="0 0 16 16"><path d="M5.234 14.387c-1.945-.849-3.45-2.623-3.995-4.707C1.06 9 1 7.758 1.109 7.02a6.935 6.935 0 0 1 3.833-5.253c1.047-.511 1.611-.65 2.814-.69.806-.026 1.1-.008 1.628.101 2.609.54 4.66 2.49 5.365 5.1.136.5.156.732.153 1.763-.003 1.091-.018 1.235-.187 1.796-.62 2.053-1.96 3.629-3.814 4.485-.609.281-.917.346-1.023.217-.048-.058-.085-.571-.1-1.38-.025-1.318-.044-1.42-.376-2.005-.012-.021.227-.092.531-.158 1.712-.367 2.523-1.402 2.53-3.227.004-.792-.096-1.183-.431-1.688-.19-.287-.197-.32-.16-.883.028-.44.01-.684-.077-.98l-.115-.395-.314.047c-.396.06-.856.24-1.286.505l-.335.206-.47-.1c-.6-.127-1.959-.128-2.555-.002l-.46.098-.35-.207c-.46-.27-.9-.441-1.289-.5l-.313-.047-.107.359c-.118.398-.14 1.116-.043 1.372.052.137.027.217-.14.444-.357.485-.494.972-.49 1.738.009 1.804.735 2.798 2.359 3.23.258.07.525.126.593.126.152 0 .156-.031-.046.367-.093.183-.17.386-.17.45 0 .128-.435.268-.826.266-.338-.002-.76-.224-.979-.515-.554-.736-1.051-1.056-1.477-.949-.26.065-.217.183.195.539.266.23.451.474.656.868.442.85.883 1.106 1.832 1.064l.517-.023.033.577c.037.643-.046.882-.308.88-.083 0-.386-.103-.673-.229z" fill="#9AA7B0" fill-opacity=".8" fill-rule="evenodd"/></svg>