<svg xmlns="http://www.w3.org/2000/svg" width="16" height="16" viewBox="0 0 16 16" preserveAspectRatio="xMidYMid"><defs><linearGradient x1="7.758" y1="13.697" x2="120.537" y2="109.821" id="a" gradientTransform="matrix(.08297 0 0 .06832 .634 1.531)" gradientUnits="userSpaceOnUse"><stop stop-color="#87939a" offset="0%"/><stop stop-color="#87939a" offset="100%"/></linearGradient><linearGradient x1="38.732" y1="281.517" x2="190.56" y2="141.661" id="b" gradientTransform="matrix(.07512 0 0 .04548 .64 1.532)" gradientUnits="userSpaceOnUse"><stop stop-color="#87939a" offset="0%"/><stop stop-color="#87939a" offset="100%"/></linearGradient><linearGradient x1="65.594" y1="177.899" x2="148.764" y2="86.018" id="c" gradientTransform="matrix(.04967 0 0 .06878 .64 1.532)" gradientUnits="userSpaceOnUse"><stop stop-color="#87939a" offset="0%"/><stop stop-color="#87939a" offset="100%"/></linearGradient></defs><path d="M11.365 9.475 3.107 1.948a1.45 1.52 0 1 0-1.69 2.439l9.289 6.044.042.028a.561.588 0 1 0 .617-.984z" fill="url(#a)"/><path d="M15.269 8.62a1.594 1.665 0 0 0-2.42-1.356L3.83 12.625l-.015.009a.809.845 0 1 0 .63 1.556l9.825-3.96.024-.011a1.594 1.665 0 0 0 .974-1.598z" fill="url(#b)"/><path d="M8.007 8.371a.437.456 0 0 0-.741-.477L3.459 12.94l-.008.017a.808.845 0 1 0 1.4.837L7.98 8.416a.451.451 0 0 0 .027-.045z" fill="url(#c)"/><path d="M5.436 11.191c-.457-.095-.825-.423-1.032-.92l-.052-.125.346-.26.387-.29c.027-.022.078.042.167.212.145.276.276.383.435.353.133-.025.281-.172.322-.32.02-.072.034-.851.034-1.956V6.05h1.051l-.01 2.055-.009 2.055-.078.185c-.224.527-.633.825-1.183.862a1.72 1.72 0 0 1-.378-.016zM8.174 8.6V6.042l.973.024c.535.014 1.04.039 1.12.057.376.081.69.325.858.667.067.137.077.21.077.547 0 .445-.02.503-.291.817-.091.106-.165.2-.165.211a.9.9 0 0 0 .204.122c.285.145.454.31.582.57.101.205.111.254.121.605.011.366.007.392-.09.6-.13.276-.325.488-.572.619-.399.21-.504.224-2.064.262l-.753.018zm1.895 1.675c.352-.078.507-.278.507-.65 0-.258-.037-.375-.162-.51-.167-.177-.318-.222-.76-.222l-.397-.001v1.453l.33-.018a4.02 4.02 0 0 0 .482-.052zM9.77 7.99a.618.618 0 0 0 .418-.676.48.48 0 0 0-.157-.256c-.136-.129-.184-.144-.564-.177l-.211-.018v1.214l.178-.019a2 2 0 0 0 .336-.068z" fill="none"/><path d="M5.436 11.191c-.457-.095-.825-.423-1.032-.92l-.052-.125.346-.26.387-.29c.027-.022.078.042.167.212.145.276.276.383.435.353.133-.025.281-.172.322-.32.02-.072.034-.851.034-1.956V6.05h1.051l-.01 2.055-.009 2.055-.078.185c-.224.527-.633.825-1.183.862a1.72 1.72 0 0 1-.378-.016z" fill="none"/><path d="M5.436 11.191c-.457-.095-.825-.423-1.032-.92l-.052-.125.346-.26.387-.29c.027-.022.078.042.167.212.145.276.276.383.435.353.133-.025.281-.172.322-.32.02-.072.034-.851.034-1.956V6.05h1.051l-.01 2.055-.009 2.055-.078.185c-.224.527-.633.825-1.183.862a1.72 1.72 0 0 1-.378-.016zM8.174 8.6V6.042l.973.024c.535.014 1.04.039 1.12.057.376.081.69.325.858.667.067.137.077.21.077.547 0 .445-.02.503-.291.817-.091.106-.165.2-.165.211a.9.9 0 0 0 .204.122c.285.145.454.31.582.57.101.205.111.254.121.605.011.366.007.392-.09.6-.13.276-.325.488-.572.619-.399.21-.504.224-2.064.262l-.753.018zm1.895 1.675c.352-.078.507-.278.507-.65 0-.258-.037-.375-.162-.51-.167-.177-.318-.222-.76-.222l-.397-.001v1.453l.33-.018a4.02 4.02 0 0 0 .482-.052zM9.77 7.99a.618.618 0 0 0 .418-.676.48.48 0 0 0-.157-.256c-.136-.129-.184-.144-.564-.177l-.211-.018v1.214l.178-.019a2 2 0 0 0 .336-.068z" fill="none"/><path d="M8.174 8.6V6.042l.973.024c.535.014 1.04.039 1.12.057.376.081.69.325.858.667.067.137.077.21.077.547 0 .445-.02.503-.291.817-.091.106-.165.2-.165.211a.9.9 0 0 0 .204.122c.285.145.454.31.582.57.101.205.111.254.121.605.011.366.007.392-.09.6-.13.276-.325.488-.572.619-.399.21-.504.224-2.064.262l-.753.018zm1.895 1.675c.352-.078.507-.278.507-.65 0-.258-.037-.375-.162-.51-.167-.177-.318-.222-.76-.222l-.397-.001v1.453l.33-.018a4.02 4.02 0 0 0 .482-.052zM9.77 7.99a.618.618 0 0 0 .418-.676.48.48 0 0 0-.157-.256c-.136-.129-.184-.144-.564-.177l-.211-.018v1.214l.178-.019a2 2 0 0 0 .336-.068zm-4.334 3.201c-.457-.095-.825-.423-1.032-.92l-.052-.125.346-.26.387-.29c.027-.022.078.042.167.212.145.276.276.383.435.353.133-.025.281-.172.322-.32.02-.072.034-.851.034-1.956V6.05h1.051l-.01 2.055-.009 2.055-.078.185c-.224.527-.633.825-1.183.862a1.72 1.72 0 0 1-.378-.016z" fill="none"/></svg>