<svg width="16" height="16" viewBox="0 0 216.5 37.344" xmlns="http://www.w3.org/2000/svg"><path d="M172.193 72.5a48.14 52.236 0 0 0 15.073-15.163h6.935a6.382 6.925 0 0 0 0-13.85h-.55a48.581 52.715 0 0 0 2.418-13.73h6.822a6.383 6.926 0 1 0 0-13.852h-7.027a48.446 52.568 0 0 0-3.08-13.728h1.322a6.382 6.925 0 0 0 0-13.85h-8.581a49.046 53.219 0 0 0-38.182-19.94h-10.89a47.708 51.768 0 0 0-19.368 4.416h11.454a48.11 52.203 0 0 1 6.065 103.987c-1.432.12-2.86.239-4.4.239H80.652a59.055 64.08 0 0 0 20.135-19.7 3.707 4.022 0 0 0 1.1.121h43.122a6.383 6.926 0 0 0 0-13.85h-37.515a61.12 66.32 0 0 0 3.301-13.73h49.403a6.382 6.925 0 0 0 0-13.85h-48.846a59.84 64.931 0 0 0-2.423-13.729h36.311a6.383 6.926 0 0 0 0-13.852h-41.925a58.954 63.97 0 0 0-50.623-31.384h-4.18A58.913 63.926 0 0 0 .76-16.203a52.476 56.94 0 0 1 89.013 17.79H63.159a28.914 31.375 0 1 0 .549 38.446H36.185A22.985 24.94 0 0 1 59.181 15.08H92.74a47.914 51.991 0 0 1 .338 6.09A52.492 56.958 0 0 1 1.86 59.614a58.836 63.842 0 0 0 46.763 25.194h86.267c44.672 0 80.868-2.866 80.868-6.58.003-2.378-17.712-4.63-43.567-5.728z" fill="#f78557" style="stroke-width:1.07325"/></svg>