<svg viewBox="0 0 16 16" width="16" height="16" xmlns="http://www.w3.org/2000/svg"><path d="m6.832 3.39-.9 5a6.73 6.73 0 0 1 2.82-2.3l.49-2.7a3 3 0 0 1 1.64-.78.66.66 0 0 1 .71.61.54.54 0 0 1 0 .25l-.43 2.11h.15a6.51 6.51 0 0 1 2.19.38l.66-3.43a1.65 1.65 0 0 0-1.19-2 1.71 1.71 0 0 0-.55 0 4.79 4.79 0 0 0-3 1.46A1.49 1.49 0 0 0 7.912.45h-.13a4.55 4.55 0 0 0-3 1.38V.64h-2l-1.62 8.38h2.32l1.12-5.72a2.73 2.73 0 0 1 1.56-.77.64.64 0 0 1 .7.59.63.63 0 0 1-.03.27z" fill="#40b6e0" fill-opacity=".8"/><g fill="#9AA7B0" fill-rule="evenodd"><path d="M16 11v.002a4.791 4.791 0 0 0-4.5-.01v-.006c0-.876 1.272-1.858 2.05-2.079C15.511 8.351 16 10.262 16 11zm-6.548 2.092c.778-.22 2.049-1.202 2.049-2.078v-.006a4.792 4.792 0 0 1-4.5-.01V11c0 .738.489 2.649 2.45 2.092z"/><path d="m9.25 7.378.003-.002a3.938 3.938 0 0 0 .602 2.103 4.333 4.333 0 0 0 1.638 1.525l-.005.003a3.295 3.295 0 0 1-2.961-.61c-1.5-1.302.037-2.65.724-3.02zm5.224 4.225a3.295 3.295 0 0 0-2.96-.61l-.005.003a4.33 4.33 0 0 1 1.637 1.525c.395.63.604 1.359.603 2.102h.002c.687-.37 2.223-1.718.723-3.02z"/><path d="m9.251 14.623-.002-.002a4.335 4.335 0 0 0 1.657-1.536 3.94 3.94 0 0 0 .603-2.081l.004.003a2.773 2.773 0 0 1 .912 2.689c-.462 1.858-2.487 1.295-3.174.927zm1.325-6.319a2.774 2.774 0 0 0 .912 2.69l.005.002c.002-.737.21-1.458.602-2.082a4.33 4.33 0 0 1 1.657-1.536h-.002c-.687-.37-2.712-.932-3.174.926z"/></g></svg>