<svg xmlns="http://www.w3.org/2000/svg" xmlns:xlink="http://www.w3.org/1999/xlink" viewBox="0 0 16 16" height="16" width="16"><defs><path id="a" d="M0 .001h32V32H0z"/></defs><g transform="matrix(.4603 0 0 .46338 .666 .696)" fill-rule="evenodd" fill="none"><mask fill="#fff" id="b"><use height="100%" width="100%" xlink:href="#a"/></mask><path mask="url(#b)" d="M31.397 14.575 17.425.604a2.062 2.062 0 0 0-2.914 0l-2.901 2.9 3.68 3.682a2.448 2.448 0 0 1 2.518.586 2.45 2.45 0 0 1 .58 2.533l3.548 3.547a2.452 2.452 0 1 1-1.469 1.383l-3.307-3.307v8.704a2.453 2.453 0 1 1-2.82 3.932 2.452 2.452 0 0 1 .803-4.003v-8.786a2.453 2.453 0 0 1-1.331-3.216L10.184 4.93l-9.58 9.58a2.06 2.06 0 0 0 0 2.915l13.972 13.972a2.062 2.062 0 0 0 2.914 0L31.396 17.49a2.06 2.06 0 0 0 0-2.916" fill="#CD5342"/></g></svg>