<!-- SPDX-License-Identifier: MIT -->

<!--Copyright 2000-2021 JetBrains s.r.o. and contributors. Use of this source code is governed by the Apache 2.0 license that can be found in the LICENSE file.--><svg xmlns="http://www.w3.org/2000/svg" width="16" height="16" viewBox="0 0 16 16"><path fill="#161514" fill-rule="evenodd" d="M7.997 1a6.998 6.998 0 0 0-2.211 13.638c.35.064.477-.152.477-.338 0-.165-.006-.606-.01-1.19-1.946.423-2.356-.938-2.356-.938-.319-.808-.777-1.023-.777-1.023-.636-.434.048-.426.048-.426.702.05 1.071.721 1.071.721.625 1.07 1.639.76 2.037.582.064-.452.245-.76.444-.935-1.553-.177-3.187-.778-3.187-3.46 0-.763.273-1.388.72-1.877-.072-.177-.312-.889.069-1.852 0 0 .587-.188 1.924.718a6.702 6.702 0 0 1 1.752-.236 6.71 6.71 0 0 1 1.752.236c1.336-.906 1.922-.718 1.922-.718.382.963.142 1.675.07 1.852a2.7 2.7 0 0 1 .72 1.878c0 2.688-1.637 3.28-3.195 3.453.25.216.474.643.474 1.296 0 .935-.008 1.69-.008 1.92 0 .187.126.404.48.336A6.998 6.998 0 0 0 7.997 1"/><path fill="#59A869" d="m9 7 7 4.5L9 16z"/></svg>
