<svg width="16" height="16" viewBox="0 0 16 16" xmlns="http://www.w3.org/2000/svg"><path fill="#a37c1c" d="m5.884 3.423-4.047.542a.44.453 0 0 1-.497-.453v-1.99a.44.453 0 0 1 .44-.452h4.663a.44.453 0 0 1 .407.635l-.617 1.448a.44.453 0 0 1-.349.27ZM9.989 1.07h4.286a.444.458 0 0 1 .445.458v1.58a.444.458 0 0 1-.426.458l-3.665.182a.444.458 0 0 1-.44-.305l-.616-1.758a.444.458 0 0 1 .416-.615ZM2.807 7.043c.803-1.177 1.74-3.31 3.498-2.507a.31.32 0 0 1 .172.384c-.588 2.088-2.055 5.072-4.563 4.9a.167.172 0 0 0-.12.3l.583.503q.248.216.024.458l-.664.728q-.316.34-.32-.133l-.091-6.83q-.005-.305.291-.325l1.142-.088a.588.606 0 0 1 .555.896L2.5 6.846a.182.187 0 0 0 .306.197zM14.72 5.28v3.073a.636.655 0 0 1-1.143.398L11.61 6.073a.636.655 0 0 1 .382-1.04l1.969-.398a.636.655 0 0 1 .76.645z" style="stroke-width:.485076"/><path fill="#a37c1c" d="M13.396 13.518q.358-.202.373-.64.052-1.3-.325-3.068-.125-.566.42-.418l.354.098q.502.133.502.67v4.574a.12.123 0 0 1-.12.124h-3.115q-.144 0-.163-.148-.2-1.63-1.08-3.063c-.96-1.561-3.732-2.994-2.313-5.23q.115-.177.32-.202c3.69-.433 4.922 4.112 4.913 7.16q0 .276.234.143zm-7.87 1.152c-1.228-1.694-1.209-4.338.325-5.899q.186-.192.387-.015 2.604 2.32 1.883 5.826-.058.276-.33.276H5.889a.452.46 22.053 0 1-.363-.188Zm-1.453-3.245-.726 3.093a.397.409 0 0 1-.373.315l-1.228.034a.397.409 0 0 1-.406-.403v-1.581a.397.409 0 0 1 .153-.325l1.95-1.551a.397.409 0 0 1 .63.418z" style="stroke-width:.485076"/><path fill="#a37c1c" d="M9.062 14.986a.12.123 0 0 1-.139-.104l-.014-.088a2.608.88 80.366 0 1 .425-2.729l.02-.005a2.608.88 80.366 0 1 1.304 2.413l.019.094a.12.123 0 0 1-.1.143z" style="stroke-width:.485076"/><ellipse fill="#a37c1c" cx="4.13" cy="14.586" transform="rotate(-.721) skewX(-.042)" rx=".64" ry=".295" style="stroke-width:.485076"/></svg>