<svg width="16" height="16" viewBox="32.6 578.5 654.2 324.8" style="enable-background:new 32.6 578.5 654.2 324.8" xml:space="preserve" xmlns="http://www.w3.org/2000/svg"><path d="M183.391 1044.479c-9.763 0-19.525-2.335-28.439-7.216-19.525-10.4-31.834-30.773-31.834-53.057V743.749c0-33.32 26.953-60.061 60.06-60.061 33.109 0 60.062 26.953 60.062 60.061v128.187l192.28-128.187-285.45-190.582c-27.589-18.464-35.017-55.817-16.765-83.407 18.464-27.59 55.816-35.018 83.406-16.766l361.003 240.669c16.766 11.248 26.741 29.924 26.741 50.086s-9.975 38.838-26.74 50.086l-360.792 240.669c-10.187 6.58-21.86 9.975-33.532 9.975z" style="stroke-width:2.12228;fill:#b88ece"/></svg>