<svg xmlns="http://www.w3.org/2000/svg" version="1.0" width="16" height="16" viewBox="0 0 314 314"><path d="M89.64 44.477c-2.894.425-4.501 3.29-4.823 8.383l-.214 3.82-11.895 5.094C56.206 68.67 51.276 71.854 41.096 82.04c-8.68 8.489-15.752 21.54-17.574 32.364-.964 5.624-.643 22.284.429 27.165.964 4.032.857 4.244-5.037 10.187-6.322 6.366-10.93 14.006-10.93 18.039 0 5.836 5.358 11.247 12.323 12.415 3 .424 4.18.106 6.43-2.123 1.5-1.485 2.679-3.289 2.679-4.138 0-.849.964-2.334 2.036-3.29 1.929-1.803 2.143-1.697 2.893.637.429 1.38.857 2.653.965 2.971.107 1.592 9.965 18.146 13.073 22.284 7.072 9.126 17.788 20.267 26.468 27.483 14.038 11.566 25.504 18.251 48.33 28.226 3.535 1.485 23.36 6.473 29.468 7.428 2.036.212 7.715.742 12.43.955 6.216.424 10.61 1.379 14.895 3.289 10.93 4.775 22.397 6.791 26.469 4.669 5.572-2.759 7.287-5.306 7.287-10.717 0-4.67.214-5.094 3-5.73 6.001-1.592 25.397-12.416 32.684-18.464 1.071-.849 3-2.44 4.286-3.502 5.465-4.456 17.896-17.296 18.539-18.994.428-1.485 1.714-1.91 6.108-1.91h5.572l2.893 5.624c6.537 12.097 6.858 12.415 10.502 11.142 1.929-.637 3.643-1.804 3.965-2.547.321-.849-1.179-4.562-3.322-8.383-2.143-3.82-3.858-7.109-3.858-7.321 0-.212 1.5-.637 3.215-1.061 4.393-.85 9.644-6.58 9.644-10.505 0-8.49-7.394-14.113-14.145-10.718-1.607.85-4.286 1.486-6 1.486-3.108 0-3.108-.106-2.358-4.245.428-2.334.536-4.244.214-4.244-.214 0 1.179-2.016 3.215-4.563 12.859-15.492 14.466-33.425 4.393-51.358-9.001-16.13-27.432-26.74-46.614-26.846-6 0-6.215-.107-7.715-3.502-3.644-8.807-12.967-10.611-20.146-3.926-2.894 2.546-3 2.546-11.252 0-3.643-1.061-10.93-2.76-16.074-3.714-11.466-2.016-11.252-1.91-29.576-13.158-21.432-13.158-27.004-16.023-37.077-19.312-6.108-1.91-10.609-2.76-14.466-2.547-4.715.318-5.787 0-7.716-2.228-2.679-3.078-8.573-5.518-12.002-4.882zm6.322 6.367 2.357 2.016-3.536 1.274c-3.965 1.379-5.465.318-4.608-3.184.75-2.546 2.572-2.546 5.787-.106zm27.54 9.869c7.822 2.546 16.824 7.109 24.11 12.202 2.787 2.017 5.251 3.608 5.466 3.608.321 0 3.321 1.804 6.75 4.139 10.716 7.003 17.039 9.55 30.005 12.202 12.43 2.547 24.111 5.943 29.04 8.49 2.572 1.379 2.572 1.379-2.25 4.138-14.36 8.383-22.932 26.74-20.146 43.293 1.822 11.036 5.68 18.146 14.574 27.165l7.822 7.852-3 1.486c-10.502 5.412-7.716 16.447 3.858 15.068 4.607-.425 5.036-.319 6.965 2.865l2.036 3.29-2.358.53c-2.464.637-12.323-.425-16.61-1.698-1.714-.424-2.678-.106-3.107 1.167-.964 2.335.75 3.396 7.716 4.775 4.715.955 6 1.804 8.787 5.73 5.786 7.959 13.609 9.657 19.61 4.245 2.464-2.122 2.572-4.563.536-11.142-1.5-4.881-1.5-4.987 1.607-7.958 1.715-1.592 3.108-3.82 3.108-4.881 0-3.184-3.644-2.123-7.93 2.334-2.25 2.334-4.715 4.245-5.465 4.245-.858 0-2.465-1.38-3.75-3.184l-2.251-3.183 3-3.714c2.786-3.396 3.215-3.608 7.287-2.865 7.18 1.273 22.075.53 27.219-1.273 2.571-.955 4.822-1.592 4.929-1.486.107.212.964 1.698 1.929 3.502 1.607 3.077 1.5 3.501-2.25 10.61-4.93 9.339-20.682 25.362-32.899 33.32-10.287 6.685-26.36 14.537-31.826 15.492-4.608.85-12.43-2.228-20.039-8.064-8.144-6.155-10.18-7.322-13.823-7.322-7.501 0-11.359 9.02-7.18 16.872.857 1.698 1.286 3.183 1.072 3.502-.965.955-16.288-1.38-26.79-4.033-26.147-6.472-52.08-21.753-71.904-42.02-10.823-11.036-17.038-19.843-23.896-33.32-9.538-19.1-13.395-33.212-13.18-49.235.106-12.734 1.5-18.676 6.321-27.801 9.109-17.19 29.684-30.879 58.295-38.837 12.645-3.608 17.789-3.608 28.612-.106zm107.266 34.592c1.822 3.926.107 5.093-4.608 2.865-4.286-2.122-4.715-2.971-1.929-4.563 3.108-1.804 5.144-1.273 6.537 1.698zm25.29 10.399c8.68 2.228 14.895 5.518 20.896 10.823 4.929 4.457 10.608 11.673 11.144 14.326.214.742.643 2.122.965 2.97 1.607 3.715 2.679 11.142 2.357 15.811-.429 5.2-4.286 16.66-6 17.615-1.287.849-1.18-6.048.213-9.762 1.286-3.502 1.608-12.203.536-16.978-1.178-5.306-6.75-14.538-11.144-18.782-4.715-4.669-15.11-9.869-21.968-11.142-2.679-.424-5.144-.743-5.358-.53-.214.212-2.036-1.062-4.072-2.76l-3.643-3.077 4.822-.106c2.679 0 7.822.743 11.252 1.592zm-19.825 4.987c0 .425-.643.85-1.286.85-3.322 0-12.966 5.623-17.038 9.761-6.537 6.792-8.787 11.779-9.323 21.01-.643 10.824 2.358 18.464 10.18 26.635 15.86 16.553 40.935 17.933 57.33 3.29 3.108-2.76 4.072-3.184 3.215-1.593-.75 1.274-1.286 3.184-1.286 4.351 0 2.44-7.394 6.685-15.967 9.126-14.359 4.138-33.112-.106-44.685-10.187-5.036-4.35-11.895-14.75-13.395-20.374-1.929-6.897-1.393-17.402 1.179-24.511 2.893-7.534 12.002-17.19 19.396-20.374 4.286-1.91 5.036-2.016 8.251-.53 1.822.955 3.43 2.016 3.43 2.546zm24.968 7.534c20.896 9.444 27.004 34.805 12.11 49.873-6.323 6.367-11.681 8.489-22.076 9.02-11.359.53-18.86-1.91-26.682-8.914-7.501-6.685-11.145-14.431-11.145-23.557.107-8.383 2.036-13.476 7.501-19.418 9.537-10.4 26.254-13.37 40.292-7.004zM28.56 158.76l1.928 5.836-4.393 6.367c-2.358 3.502-5.037 6.367-5.894 6.367-2.25 0-6.858-4.882-6.858-7.322 0-3.29 9.751-16.766 12.323-16.978.643 0 1.93 2.547 2.894 5.73zm271.327 34.062c3.536 3.395 1.5 9.125-3.75 10.93-1.93.636-3.751 1.167-4.287 1.167-.75 0-6.751-9.55-6.108-9.975.964-.53 10.18-3.608 11.251-3.714.643 0 2.036.637 2.894 1.592zm-19.718 12.203c0 .53-.75.955-1.607.955-.964 0-1.286-.637-.964-1.592.642-1.592 2.571-1.167 2.571.637zm-41.256 8.489c.857 4.775-.214 6.26-4.608 6.26-2.357 0-9.323-6.154-8.251-7.321.964-.85 10.716-3.927 11.466-3.608.321.212.964 2.334 1.393 4.669zm-62.58 28.332c1.606.955 4.928 3.395 7.5 5.305 6.966 5.306 12.538 7.852 18.646 8.595 4.5.53 5.358.955 5.68 3.077.642 3.927-2.572 7.64-6.323 7.64-4.822 0-15.538-2.97-21.218-5.836-9.858-4.987-15.216-14.219-10.715-18.675 2.464-2.44 2.893-2.44 6.43-.106z" style="stroke-width:1.06634"/><path d="M100.462 143.374c-5.036 1.591-9.215 7.003-8.465 11.035.857 4.245 3.107 6.473 10.073 9.869 6.536 3.183 12.323 3.608 14.895 1.06 2.465-2.334 0-5.41-3.644-4.456-1.5.319-4.5-.212-7.072-1.38-8.573-3.82-10.073-7.533-3.75-9.655 4.822-1.698 8.465-1.38 12.323.955 4.072 2.44 6.965 1.803 6.536-1.38-.75-4.775-13.18-8.383-20.896-6.048zm61.617 7.958c-8.787 2.335-17.038 9.869-19.182 17.72-1.393 5.306-.535 14.538 1.715 18.889 11.359 21.859 45.007 23.557 54.758 2.759 10.288-21.86-12.43-45.947-37.291-39.368zm18.538 5.306c5.144 1.804 12.002 7.746 14.681 12.733.965 1.804 1.715 5.942 1.715 9.656.107 5.306-.429 7.216-2.893 10.824-8.573 12.84-27.219 14.643-39.435 3.714-8.251-7.428-9.966-21.753-3.536-29.712 6.43-8.064 18.645-10.93 29.468-7.215z" style="stroke-width:1.06634"/><path d="M171.187 178.072c-2.786.53-6.75 5.094-6.75 7.64 0 .955.964 3.184 2.035 5.094 3.751 5.942 13.61 6.048 16.503.212 3.536-7.428-3.108-14.75-11.788-12.946zm6.751 6.58c-.428.636-1.714 1.166-2.893 1.166-2.25 0-2.893-3.713-.643-4.562 1.715-.637 4.394 1.91 3.536 3.395zm58.08-35.336c-10.287 5.412-4.178 21.647 8.252 21.647 6.322 0 12.323-5.306 12.323-10.93 0-9.656-11.466-15.704-20.574-10.717zm11.788 5.942c.322 2.547 0 2.971-2.357 2.971-3.215 0-5.465-3.29-3.536-5.2 2.25-2.227 5.572-.954 5.893 2.23z" style="stroke-width:1.06634"/><path style="fill:#61dfed;fill-opacity:.8;stroke:#e6e6e6;stroke-width:.0394849" d="M159.078 255.591c-19.713-2.67-36.632-7.988-52.377-16.46-15.008-8.077-26.926-17.023-39.105-29.354-11.151-11.291-17.414-20.116-24.673-34.767-7.058-14.246-10.801-26.016-12.046-37.87-.588-5.61-.23-19.024.621-23.181 3.113-15.216 13.727-28.876 30.382-39.1 10.37-6.365 27.342-12.939 40.656-15.747 3.808-.803 10.21-.905 13.49-.214 10.074 2.12 20.503 6.893 32.868 15.043C168.56 86.904 174.03 89.5 188.492 92.725c4.01.894 9.433 2.159 12.051 2.81 9.569 2.376 19.642 6.042 19.642 7.149 0 .257-1.384 1.29-3.075 2.294-6.914 4.108-12.408 9.965-16.14 17.208-3.588 6.959-5.064 12.944-5.04 20.43.022 7.332 1.667 14.012 5.03 20.424 2.505 4.778 5.094 8.03 11.751 14.765l5.835 5.903-2.557 1.313c-7.68 3.942-9.104 11.415-2.797 14.677 1.425.737 2.224.838 6.199.785 3.05-.041 4.774.096 5.2.415.74.554 3.53 4.772 3.53 5.337 0 1.154-9.521.829-16.07-.548-4.758-1-5.755-.661-5.755 1.95 0 1.457 1.75 2.363 6.858 3.549 5.382 1.25 6.12 1.63 8.49 4.384 4.422 5.139 5.858 6.465 8.275 7.643 4.706 2.295 10.022 1.343 13.443-2.406 1.294-1.419 1.424-1.771 1.424-3.873 0-1.272-.425-3.79-.943-5.598-1.773-6.18-1.823-5.854 1.412-9.273 2.384-2.519 3.253-4.372 2.713-5.781-.807-2.101-3.427-.989-8.44 3.587-1.981 1.808-4.031 3.394-4.555 3.525-1.138.282-2.676-1.012-4.695-3.953l-1.326-1.932.834-1.158c1.869-2.6 4.894-5.412 5.874-5.46.545-.026 3.134.18 5.753.46 7.545.803 21.064-.063 25.06-1.605.62-.24 1.893-.668 2.827-.951l1.699-.518 1.417 2.786c1.711 3.365 1.652 4.22-.612 8.737-3.349 6.68-7.555 12-16.484 20.844-10.926 10.821-18.506 16.16-33.747 23.763-9.847 4.913-15.273 6.855-18.29 6.55-4.862-.494-10.54-3.255-18.058-8.781-8.422-6.192-10.949-7.256-15.118-6.371-1.6.34-2.439.833-3.929 2.308-3.473 3.44-4.035 8.522-1.56 14.107.663 1.496 1.206 2.999 1.206 3.34 0 .757-1.342.763-6.746.031zm24.007-51.277c4.87-1.506 8.044-3.396 11.506-6.852 5.364-5.353 7.6-11.303 7.236-19.248-.344-7.448-3.058-13.265-8.812-18.885-10.432-10.187-26.202-12.172-38.568-4.854-1.225.725-3.612 2.67-5.304 4.32-5.819 5.677-7.822 11.71-6.823 20.555.778 6.9 2.57 10.74 7.372 15.795 4.78 5.033 10.687 8.224 18.116 9.788 3.818.804 11.708.484 15.277-.62zm-66.591-38.346c1.68-1.239 2.056-2.658 1.056-3.987-.768-1.022-1.027-1.092-4.815-1.3-3.693-.202-4.267-.348-7.406-1.888-3.745-1.838-6.563-4.19-6.563-5.478 0-2.08 4.508-4.144 9.127-4.176 2.691-.019 3.32.139 6.583 1.647 3.735 1.727 4.835 1.952 6.14 1.26.578-.306.767-.828.767-2.115 0-1.5-.197-1.885-1.62-3.157-2.974-2.662-7.824-4.128-13.684-4.138-2.081-.003-4.454.247-5.628.591-3.95 1.162-7.99 5.481-8.628 9.224-.278 1.626.623 4.65 1.89 6.347 1.697 2.272 7.046 5.417 12.265 7.212 3.766 1.295 8.73 1.276 10.516-.042z"/><path style="fill:#61dfed;fill-opacity:.8;stroke:#e6e6e6;stroke-width:.0394849" d="M242.405 184.854c-9.07-1.42-17.767-5.233-24.54-10.759-2.3-1.877-6.347-6.88-9.082-11.229-4.84-7.697-5.884-11.62-5.541-20.8.332-8.863 1.537-13.161 5.251-18.728 2.448-3.668 9.105-10.318 12.485-12.47 3.627-2.31 7.518-3.765 9.218-3.45 1.482.276 5.581 2.58 5.63 3.166.017.204-.963.662-2.177 1.019-6.63 1.95-14.895 7.736-19.257 13.48-4.436 5.844-5.786 10.299-5.852 19.315-.04 5.46.073 6.699.86 9.408 2.405 8.295 9.02 16.602 17.595 22.094 11.499 7.366 25.96 8.61 38.424 3.304 3.644-1.551 6.902-3.603 10.726-6.754 1.333-1.099 2.482-1.937 2.553-1.863.07.076-.188 1.37-.574 2.876-.862 3.367-2.134 4.596-7.348 7.099-9.195 4.415-18.55 5.83-28.37 4.292z"/><path style="fill:#d5c294;fill-opacity:.9;stroke:#e6e6e6;stroke-width:.0394849" d="M226.32 97.895c-3.048-1.429-3.964-2.281-3.3-3.074.72-.857 3.344-2.09 4.449-2.09 1.86 0 4.576 4.373 3.643 5.867-.454.73-2.317.455-4.79-.703zM17.98 176.096c-1.807-1.296-3.601-3.51-4.183-5.165-.517-1.467.638-4.125 3.904-8.986 2.197-3.27 7.013-8.706 7.712-8.706.679 0 1.943 2.582 3.39 6.922l1.456 4.368-2.748 4.047c-2.923 4.307-6.676 8.631-7.491 8.631-.272 0-1.19-.5-2.042-1.11zM90.62 53.96c-.812-.804-.56-2.997.474-4.128.932-1.022 2.15-.682 4.89 1.363l2.178 1.625-2.773.88c-3.38 1.07-3.922 1.1-4.77.26zm106.947 211.832c-6.365-1.147-14.27-3.844-18.643-6.36-3.26-1.877-7.892-6.403-9.114-8.906-1.821-3.731-1.501-7.12.857-9.086 2.165-1.802 2.944-1.45 13.41 6.064 7.78 5.587 11.598 7.317 18.605 8.434 4.578.73 5.202 1.207 5.202 3.98 0 2.61-1.532 4.88-3.936 5.833-1.904.754-2.403.757-6.38.041zm91.889-64.322c-2.987-4.541-3.726-6.142-3.028-6.57.3-.183 2.821-1.07 5.602-1.97 4.833-1.565 5.11-1.61 6.253-1.024 1.519.777 2.834 2.594 3.113 4.299.298 1.817-1.002 4.587-2.786 5.933-1.216.92-5.49 2.573-6.65 2.573-.204 0-1.33-1.46-2.504-3.242zm-11.605 3.8c-.132-.341.052-.91.41-1.263.6-.596.698-.595 1.31.01.544.54.57.76.149 1.263-.658.786-1.562.78-1.869-.01z"/><path style="fill:#d5c294;fill-opacity:.9;stroke:#e6e6e6;stroke-width:.0394849" d="M228.234 98.425c-2.177-.645-5.273-2.45-5.273-3.072 0-.568 1.904-1.756 3.576-2.231 1.775-.504 3.587 1.178 4.528 4.201.396 1.274-.75 1.72-2.831 1.102z"/><path style="fill:#61dfed;fill-opacity:.8;stroke:#e6e6e6;stroke-width:.0394849" d="M228.12 98.257c-1.546-.468-4.167-1.87-4.715-2.525-.41-.49-.334-.697.441-1.2 3.029-1.965 4.808-1.643 6.297 1.137 1.35 2.52.662 3.4-2.023 2.588z"/><path style="fill:#fff;fill-opacity:.9;stroke:#e6e6e6;stroke-width:.0394848" d="M166.313 199.588a24.5 24.26 0 0 1-11.82-6.852 21.871 21.657 0 0 1-6.897-16.7c0-6.123 1.472-9.788 5.51-13.787 7.276-7.246 20.105-9.142 29.59-4.394 4.184 2.083 10.409 7.83 12.112 11.162 1.851 3.582 2.608 12.266 1.41 16.202-1.935 6.372-9.149 12.64-16.761 14.556-3.365.833-9.506.77-13.144-.187zm13.312-5.165c5.11-2.374 6.014-9.496 1.724-13.744-3.323-3.29-9.043-4.04-12.492-1.624-2.44 1.687-4.416 4.664-4.416 6.58a14.174 14.036 0 0 0 3.092 6.83c2.733 2.937 8.096 3.79 12.092 1.958z"/><path style="fill:#fff;fill-opacity:.9;stroke:#e6e6e6;stroke-width:.0394848" d="M173.8 184.886c-.652-.75-.4-2.583.42-3.124 1.725-1.041 4.395 1.583 3.134 3.082-.631.77-2.945.791-3.576.042zm67.043-8.476a33.48 33.153 0 0 1-13.964-6.58c-9.737-7.685-14.216-17.41-13.038-28.426.715-6.976 2.733-11.245 7.675-16.389 4.038-4.165 8.37-6.747 14.427-8.58 3.113-.936 4.143-1.04 9.632-1.082 5.257 0 6.603.104 9.253.874 7.403 2.104 12.47 5.102 17.497 10.33 2.755 2.873 3.764 4.247 5.384 7.538 2.523 5.06 3.217 7.663 3.47 12.848a27.339 27.072 0 0 1-3.155 14.307c-1.304 2.54-2.46 3.998-5.636 7.122-4.374 4.331-7.592 6.247-12.534 7.497-3.007.728-16.193 1.124-19.01.541zm8.56-6.456a12.976 12.849 0 0 0 6.33-5.955c.925-1.875 1.05-2.5.862-4.81-.337-4.686-3.092-8.435-7.782-10.621-1.892-.854-2.797-1.02-5.846-1.02-3.365 0-3.806.103-6.33 1.374-3.365 1.666-5.09 3.769-5.741 6.872a12.618 12.495 0 0 0 3.848 11.328 12.828 12.703 0 0 0 14.658 2.812z"/><path style="fill:#fff;fill-opacity:.9;stroke:#e6e6e6;stroke-width:.0394848" d="M243.177 157.377c-2.187-1.187-2.25-3.915-.105-4.873 1.472-.688 2.314-.542 3.47.624.883.875 1.052 1.333.947 2.832-.127 1.791-.127 1.791-1.704 1.875a5.72 5.664 0 0 1-2.608-.458zm-10.851 61.432c-2.019-1.083-6.31-5.248-6.099-5.914.274-.833 10.683-4.332 11.251-3.749.505.5 1.346 4.581 1.346 6.601 0 2.645-.63 3.416-3.196 3.707a4.858 4.81 0 0 1-3.302-.625z"/></svg>