<!--SPDX-License-Identifier: MIT--><svg height="16" viewBox="0 0 23 23" width="16" xmlns="http://www.w3.org/2000/svg"><path d="M19.291 11.08h-1.445V7.252A1.926 1.926 0 0 0 15.92 5.34h-3.854V3.906c0-1.34-1.06-2.391-2.408-2.391-1.35 0-2.41 1.052-2.41 2.39V5.34H3.395c-1.06 0-1.927.861-1.927 1.913v3.635h1.445a2.581 2.581 0 0 1 2.602 2.582 2.581 2.581 0 0 1-2.602 2.583H1.467v3.634c0 1.052.867 1.913 1.927 1.913h3.661v-1.435a2.581 2.581 0 0 1 2.602-2.582 2.581 2.581 0 0 1 2.601 2.582V21.6h3.661c1.06 0 1.927-.86 1.927-1.913v-3.826h1.445c1.35 0 2.41-1.052 2.41-2.39 0-1.34-1.06-2.392-2.41-2.392z" fill="#77BBE2" fill-rule="evenodd"/><path fill="#fff" d="M10.862 9.127c0 1.202-.99 2.176-2.212 2.176-1.22 0-2.211-.974-2.211-2.176 0-1.202.99-2.176 2.211-2.176 1.222 0 2.212.974 2.212 2.176" style="stroke-width:1.4375"/><path fill="#fff" d="M10.862 9.127c0 1.202-.99 2.176-2.212 2.176-1.22 0-2.211-.974-2.211-2.176 0-1.202.99-2.176 2.211-2.176 1.222 0 2.212.974 2.212 2.176" style="stroke-width:1.4375"/><path d="M9.784 9.12c0 .588-.443 1.064-.988 1.064-.545 0-.988-.476-.988-1.063s.443-1.064.988-1.064c.545 0 .988.477.988 1.064" style="stroke-width:1.4375"/><path fill="#fff" d="M15.74 9.127c0 1.202-.99 2.176-2.21 2.176-1.223 0-2.212-.974-2.212-2.176 0-1.202.99-2.176 2.211-2.176 1.221 0 2.212.974 2.212 2.176" style="stroke-width:1.4375"/><path d="M14.662 9.12c0 .588-.442 1.064-.988 1.064-.545 0-.988-.476-.988-1.063s.443-1.064.988-1.064c.546 0 .988.477.988 1.064" style="stroke-width:1.4375"/><path fill="#fff" d="M10.545 12.112v1.105h1.37v-1.105z"/><path fill="#b7937f" d="M12.6 11.743c0 .407-.613.737-1.37.737-.755 0-1.368-.33-1.368-.737s.613-.737 1.368-.737c.757 0 1.37.33 1.37.737" style="stroke-width:1.4375"/><path d="M11.915 11.362c0 .414-.31.38-.696.38-.384 0-.696.034-.696-.38 0-.414.312-.75.696-.75.385 0 .696.336.696.75" style="stroke-width:1.4375"/></svg>