<!--SPDX-License-Identifier: MIT--><svg height="16" viewBox="0 0 16 16" width="16" xmlns="http://www.w3.org/2000/svg"><path d="m8 1 7 3.889-7 3.889-7-3.89zm5.6 6.222L15 8l-7 3.889L1 8l1.4-.778L8 10.333zm0 3.111 1.4.778L8 15l-7-3.889 1.4-.778L8 13.444z" fill="#77BBE2" fill-rule="evenodd"/><path fill="#fff" d="M7.74 4.895c0 .836-.689 1.514-1.538 1.514-.85 0-1.539-.678-1.539-1.514s.69-1.514 1.539-1.514c.85 0 1.538.678 1.538 1.514"/><path fill="#fff" d="M7.74 4.895c0 .836-.689 1.514-1.538 1.514-.85 0-1.539-.678-1.539-1.514s.69-1.514 1.539-1.514c.85 0 1.538.678 1.538 1.514"/><path d="M6.99 4.89c0 .409-.308.74-.687.74-.38 0-.687-.331-.687-.74 0-.408.308-.74.687-.74.38 0 .687.332.687.74"/><path fill="#fff" d="M11.134 4.895c0 .836-.689 1.514-1.538 1.514-.85 0-1.539-.678-1.539-1.514S8.746 3.38 9.596 3.38s1.538.678 1.538 1.514"/><path d="M10.384 4.89c0 .409-.308.74-.687.74-.38 0-.687-.331-.687-.74 0-.408.307-.74.687-.74.379 0 .687.332.687.74"/><path fill="#fff" d="M7.52 6.97v.77h.953v-.77z"/><path fill="#b7937f" d="M8.95 6.714c0 .283-.427.513-.953.513s-.953-.23-.953-.513c0-.283.427-.512.953-.512s.952.23.952.512"/><path d="M8.473 6.45c0 .287-.216.264-.484.264-.267 0-.484.023-.484-.265 0-.288.217-.52.484-.52.268 0 .484.232.484.52"/></svg>