<svg width="16" height="16" viewBox="0 0 400 400" xmlns="http://www.w3.org/2000/svg"><g fill-rule="evenodd"><path d="M151.808 10.126c-6.496 1.037-11.367 5.558-13.916 12.918l-.483 1.392-3.173-.14c-13.59-.595-20.962.639-33.248 5.562-8.434 3.38-15.168 7.446-21.164 12.779l-2.228 1.98-3.063.008c-8.099.021-12.865 3.234-16.974 11.442-3.826 7.64-2.43 17.395 3.09 21.605l.97.74-.193 3.13c-.181 2.938-.081 4.574.749 12.233.657 6.065 3.634 17.974 5.672 22.695.364.842 1.83 4.475 3.257 8.071 3.418 8.62 11.59 24.755 16.211 32.012.628.987 1.706 2.764 2.395 3.95a107.83 107.83 0 0 0 2.594 4.192 321.96 321.96 0 0 1 3.425 5.38c1.144 1.838 2.64 4.094 3.32 5.013.68.919 2.448 3.55 3.929 5.848 1.48 2.297 4.096 6.056 5.814 8.354 1.717 2.297 3.795 5.189 4.62 6.425.824 1.238 2.783 3.995 4.352 6.127 7.265 9.876 10.196 13.91 12.732 17.522 11.757 16.754 25.123 28.652 36.272 32.286l1.452.473-.724 1.095c-.865 1.306-.696 1.288-2.909.3-14.536-6.495-31.178-5.359-43.619 2.975-8.939 5.99-17.115 15.474-22.841 26.501a669.912 669.912 0 0 1-1.937 3.714c-.625 1.18-.357 3.606.505 4.539 1.693 1.838 3.43 1.898 7.575.262 11.016-4.35 23.3-4.247 32.4.268 3.47 1.723 3.391 1.47 1.474 4.723-.904 1.532-1.644 2.973-1.649 3.203-.004.273-1.095.84-3.137 1.634-7.215 2.804-14.703 8.736-18.186 14.405-6.19 10.077-7.635 18.164-7.079 39.654.136 5.284.255 10.237.262 11.005l.012 1.397 5.64 1.455c24.184 6.24 38.702 4.563 52.952-6.12 4.145-3.107 10.512-10.13 13.114-14.467.53-.883 5.516-3.694 6.03-3.399.315.181 1.866 4.72 2.63 7.697 2.058 8.014.559 17.926-4.114 27.216-2.843 5.65-2.877 7.537-.163 9.191 2.03 1.238 3.35.906 12.464-3.133 13.84-6.133 25.837-16.58 29.662-25.83.285-.688.675-1.442.866-1.673 3.324-4.015 4.688-21.69 2.287-29.654-1.08-3.585-1.607-5.84-1.406-6.027.109-.103 1.827-1.093 3.818-2.202 1.99-1.108 4.121-2.354 4.734-2.77.612-.417 3.557-2.171 6.544-3.899 2.986-1.73 5.994-3.545 6.683-4.036.69-.492 1.88-1.25 2.645-1.682.766-.433 3.147-1.932 5.291-3.33a316.308 316.308 0 0 1 6.823-4.32c1.608-.979 4.615-3.002 6.683-4.496 2.068-1.494 4.786-3.38 6.039-4.192 2.829-1.831 9.593-6.972 14.568-11.072a810.25 810.25 0 0 1 6.405-5.227c3.272-2.631 12.808-12.207 16.403-16.47 8.588-10.186 16.86-23.994 20.74-34.615.52-1.427 1.269-3.471 1.66-4.543.95-2.603 3.135-9.855 3.65-12.114 1.741-7.655 2.274-10.956 3.215-19.942 1.067-10.192.142-26.94-1.594-28.86-1.048-1.156-7.642-2.85-14.418-3.699-1.684-.211-3.752-.518-4.594-.682-4.119-.8-17.49-.812-26.733-.025-10.305.877-27.814 5.441-36.38 9.482-2.688 1.268-3.086 1.382-3.846 1.11-2.653-.945-11.038-.368-15.678 1.08-.958.3-1.787.462-1.842.363-.056-.099-.385-1.056-.73-2.129-1.491-4.618-3.705-8.01-9.093-13.933-4.467-4.91-5.517-6.186-7.9-9.597a211.85 211.85 0 0 0-3.09-4.318c-1.276-1.7-4.698-7.385-5.994-9.958a61.755 61.755 0 0 0-2.055-3.692c-.609-.995-2.115-3.962-3.347-6.592l-2.24-4.782 2.18-2.005c3.933-3.62 9.887-11.26 11.615-14.904 3.19-6.733 1.817-12.505-3.64-15.292-4.929-2.518-12.29 1.648-17.594 9.956-.906 1.42-.995 1.439-1.374.279-.161-.497-1.374-3.938-2.691-7.644-2.817-7.918-2.67-6.821-1.234-9.176 2.548-4.178 3.546-9.792 2.576-14.487-1.898-9.194-9.126-16.508-18.177-18.396-1.594-.332-2.353-.651-3.012-1.264l-.88-.819.55-1.572c2.486-7.1 1.53-15.72-2.198-19.847-4.144-4.585-12.814-7.603-19.009-6.615m8.28 3.606c5.798 1.483 9.81 5.062 11.063 9.871.952 3.658-.015 11.58-1.745 14.265-.327.508-6.506-3.531-6.274-4.103 1.465-3.622 1.116-5.962-1.297-8.705-3.994-4.535-10.998-3.42-13.243 2.108-.514 1.267-.589 1.33-1.378 1.164-.46-.098-2.14-.42-3.736-.714-3.502-.648-3.194-.307-2.55-2.828 2.354-9.2 9.744-13.467 19.16-11.058m-22.29 13.9c13.924 1.638 25.621 6.15 32.516 12.543l2.029 1.881-1.323.176c-13.918 1.846-20.835 19.538-12.22 31.262 7.31 9.951 19.12 11.271 27.956 3.124.69-.635 1.253-1.08 1.253-.99 0 .557 3.058 9.797 4.162 12.577a184.168 184.168 0 0 1 2.523 6.823 117.115 117.115 0 0 0 2.568 6.683 967.96 967.96 0 0 1 2.715 6.405c7.564 18.052 16.387 32.653 25.997 43.023 7.014 7.568 8.875 10.559 10.883 17.488 4.061 14.021-2.946 35.384-16.67 50.815-1.023 1.15-2.617 3.114-9.294 11.44-10.89 13.577-24.822 20.826-37.1 19.303-13.255-1.643-29.493-15.395-43.467-36.808-1.149-1.761-2.842-4.142-3.76-5.29-.921-1.15-2.096-2.716-2.614-3.482-.83-1.228-2.062-2.915-7.927-10.849-.766-1.036-2.434-3.405-3.706-5.264a201.41 201.41 0 0 0-4.198-5.886c-1.036-1.378-2.24-3.132-2.673-3.898-.435-.766-2.054-3.244-3.6-5.51-5.337-7.818-6.548-9.678-9.022-13.844a147.127 147.127 0 0 0-2.135-3.48c-3.203-4.99-12.319-22.412-14.641-27.987-.798-1.914-1.819-4.216-2.27-5.115-2.095-4.177-7.119-20.917-8.16-27.187-.44-2.664-.957-17.544-.608-17.544.095 0 .986.447 1.979.993 1.587.872 7.233 2.349 8.982 2.349 1.507 0 .086-.777-1.662-.91-10.564-.797-17.579-9.76-15.124-19.32C62.37 48.75 72.095 44.33 83.822 49.959c2.691 1.292 3.905 1.594 2.665.664-.49-.368-5.38-2.612-6.63-3.042-.704-.243-.357-.623 3.323-3.654 10.707-8.816 26.314-15.235 40.503-16.658 3.1-.31 9.86-.136 14.116.365m40.103 16.013c12.12 3.858 17.88 17.668 11.728 28.127-8.609 14.638-27.547 11.91-33.271-4.791-4.563-13.315 8.517-27.482 21.543-23.336M75.786 56.581c-8.446 2.579-9.282 13.53-1.32 17.296 2.955 1.398 3.813 1.107 3.822-1.3.013-2.65 1.755-7.341 5.231-14.081.471-.912-5.872-2.483-7.733-1.915m94.82 2.944c-.614.215-1.577.885-2.14 1.488-4.096 4.37 2.145 10.405 6.75 6.529 3.977-3.346.293-9.752-4.61-8.017m-52.91 6.435c-21.104 5.326-23.35 33.913-3.389 43.135 15.331 7.084 32.436-8.386 28.024-25.345-2.78-10.685-15.731-20.037-24.635-17.79m8.72 1.557c15.441 5.12 21.128 24.524 10.439 35.613-9.183 9.525-19.805 9.574-29.318.136-15.184-15.065-.813-42.278 18.88-35.75m87.408 15.04c6.757 3.374 3.954 12.014-7.818 24.095-2.128 2.185-3.961 3.971-4.073 3.971-.22 0-3.802-8.106-4.954-11.208l-.697-1.878 1.767-2.93c5.966-9.893 11.553-14.16 15.775-12.05m-51.296 4.104c-1.255.329-2.116.422-2.418.262-2.652-1.402-8.86 2.363-8.86 5.374 0 .355-.694 1.57-1.542 2.697-5.248 6.974-2.874 12.261 4.466 9.95.467-.146.777.19 1.9 2.054 1.688 2.802 3.503 4.657 4.795 4.9 3.095.58 5.076-1.66 4.329-4.895-.42-1.821-.392-1.864.602-.923 2.585 2.446 6.178 1.842 7.185-1.209.544-1.647.12-3.008-1.966-6.305l-1.931-3.051 1.128-.817c5.665-4.105-.017-10.046-7.688-8.037m5.846.695c2.908.876 3.948 3.071 2.595 5.48-.788 1.402-1.253 1.685-4.266 2.6-4.303 1.306-6.369 2.567-9.162 5.593-3.81 4.126-7.567 5.048-9.678 2.374-1.558-1.972 2.372-10.426 4.238-9.119 2.69 1.884 9.545-2.335 9.106-5.604l-.153-1.136 1.434-.262c2.185-.4 4.403-.372 5.886.074m-51.619 1.263c-5.372 1.301-4.007 9.473 1.58 9.473 2.732 0 4.372-1.81 4.372-4.824 0-3.54-2.495-5.488-5.952-4.65m53.77 10.449c2.64 4.31 2.745 5.753.53 7.258-2.047 1.391-4.266.526-6.214-2.42-2.223-3.364-3.287-5.076-3.287-5.294 0-.544 5.462-2.766 6.541-2.662.382.038 1.139 1.01 2.43 3.118m-8.876.905c3.554 5.639 4.142 9.742 1.585 11.065-2.09 1.08-3.712.044-6.46-4.131l-1.622-2.466 1.59-1.812c3.308-3.767 3.978-4.13 4.907-2.656m153.759 57.99c5.947.267 12.949 1.035 16.445 1.804 1.064.234 3.062.667 4.44.964 1.379.295 2.707.614 2.953.708 1.473.571 2.209 15.221 1.334 26.6-1.367 17.815-8.488 40.094-17.016 53.241-.963 1.486-2.083 3.303-2.486 4.038-1.902 3.462-8.026 11.135-14.26 17.87-4.367 4.717-7.863 7.936-15.38 14.161-1.52 1.259-4.88 3.87-7.47 5.803-2.589 1.934-5.411 4.1-6.272 4.812-1.696 1.408-8.487 6.086-11.832 8.151a74.877 74.877 0 0 0-3.975 2.672c-1.043.762-3.024 2.048-4.403 2.859a193.93 193.93 0 0 0-5.012 3.068 197.96 197.96 0 0 1-5.012 3.07c-1.379.81-4.022 2.444-5.873 3.63-3.995 2.558-11.457 6.863-18.215 10.51-2.68 1.446-6.126 3.352-7.658 4.235-1.532.884-5.792 3.145-9.468 5.025a1914.36 1914.36 0 0 0-9.886 5.09 352.5 352.5 0 0 1-12.418 6.18l-3.646 1.732-.933-1.564c-1.724-2.89-8.123-11.438-10.919-14.583-2.043-2.299-2.129-2.027 1.532-4.802a583.222 583.222 0 0 0 6.335-4.886c1.761-1.381 4.205-3.286 5.43-4.233 1.225-.947 2.885-2.339 3.687-3.094.803-.754 2.524-2.2 3.823-3.213 2.485-1.937 8.123-6.732 10.063-8.56 2.294-2.163 3.242-7.136 1.858-9.744-3.347-6.304-10.107-7.56-15.133-2.811-1.17 1.105-4.056 3.826-6.415 6.047-2.358 2.22-8.425 8.14-13.482 13.156l-9.193 9.119-4.59-4.619c-4.435-4.46-8.715-8.492-10.967-10.328l-1.085-.886 2.199-3.378c1.209-1.857 3.953-6.048 6.097-9.312a5173.25 5173.25 0 0 0 4.784-7.291c.487-.748 2.4-3.552 4.252-6.232 1.854-2.68 4.389-6.377 5.638-8.215 2.12-3.125 6.306-8.883 9.006-12.392l1.178-1.532h8.096l-.142 1.81c-.532 6.757 2.07 17.045 5.092 20.135 3.889 3.978 7.949 4.247 12.571.831 3.023-2.232 2.948-7.598-.234-16.995-1.558-4.597-3.04-9.935-3.04-10.95 0-.24.52-.729 1.157-1.086 4.284-2.41 15.449-13.522 19.175-19.085 1.314-1.962 2.651-3.634 4.457-5.57 4.582-4.912 11.076-15.314 13.53-21.672a333.39 333.39 0 0 1 2.045-5.2c.476-1.145 1.435-5.752 2.237-10.74.286-1.777.402-2.02 1.204-2.482.49-.281 1.973-1.236 3.299-2.12 3.322-2.221 9.433-5.63 13.298-7.423 5.37-2.49 12.636-5.564 13.67-5.782.536-.113 2.307-.682 3.936-1.264 1.63-.582 4.574-1.389 6.544-1.792 1.97-.403 4.335-.925 5.254-1.162 2.592-.665 7.584-1.487 9.039-1.487.724 0 2.306-.13 3.517-.286 6.04-.789 9.453-.897 17.24-.55m-171.398.595c-1.744.356-7.277.425-11.38.145-2.478-.17-3.391-.149-3.256.07.104.167.432.305.73.305.646 0 .634-.206.12 2.233-3.174 15.09-1.53 28 3.885 30.522 7.882 3.67 11.695-5.312 11.642-27.428-.013-5.071.018-5.402.515-5.532 1.87-.489-.07-.759-2.256-.315m.932 2.817c1.349 17.324-2.101 30.562-7.964 30.562-7.092 0-9.676-11.515-6.443-28.709l.712-3.784 4.781.117c2.629.065 5.47-.003 6.311-.15 2.592-.453 2.404-.595 2.603 1.964m110.874 7.105 1.113.58-2.784 1.297c-3.283 1.529-9.937 5.383-13.088 7.577l-2.228 1.553-.18-2.477c-.097-1.362-.317-3.222-.487-4.131-.368-1.972-.608-1.753 3.395-3.083 6.537-2.172 11.698-2.648 14.259-1.316m30.353 10.131c-14.681 2.9-24.372 19.706-19.646 34.072 8.368 25.442 44.61 24.95 51.374-.696 5.294-20.078-11.201-37.43-31.728-33.376m5.756.926c.238.522.23.788-.032 1.103-.854 1.03-2.243.71-2.243-.516 0-1.351 1.723-1.797 2.275-.587m11.11 1.828c1.043.558.509 2.218-.715 2.218-.746 0-1.253-.507-1.253-1.253 0-1.101.894-1.54 1.967-.965m-22.735.994c.519.2.59 1.52.105 2.004-.71.71-2.172.209-2.172-.744 0-.96 1.099-1.63 2.067-1.26m15.808.535c5.58 1.35 8.148 2.691 11.385 5.947 12.771 12.841 6.632 34.138-10.842 37.61-22.946 4.56-36.588-24.893-18.12-39.123 5.192-4 12.133-5.75 17.577-4.434m16.117 5.711c1.3.696.073 2.881-1.273 2.268-.813-.37-.919-1.29-.234-2.046.53-.587.762-.621 1.507-.222m-40.442 2.105c1.2.841.316 2.33-1.164 1.96-.868-.22-.997-1.1-.279-1.894.561-.621.643-.625 1.443-.066m45.277 8.905c.943.942.202 2.28-1.083 1.957-.982-.246-1.345-1.041-.817-1.795.495-.707 1.288-.775 1.9-.162m-48.804 2.25c.877.795.502 2.325-.568 2.325-1.259 0-1.824-1.642-.81-2.352.764-.535.757-.535 1.378.028m48.072 9.341c.905.905-.04 2.317-1.42 2.12-.713-.1-1.003-1.399-.46-2.053.404-.487 1.423-.524 1.88-.067m-46.152 2.182c1.135.607.406 2.357-.902 2.17-.936-.134-1.382-1.538-.658-2.067.638-.468.853-.482 1.56-.103m40.026 7.843c.183.184.334.597.334.919 0 .322-.15.735-.334.919-.184.184-.598.334-.92.334-.321 0-.735-.15-.918-.334-.184-.184-.335-.597-.335-.919 0-.322.15-.735.335-.919.183-.184.597-.334.919-.334.321 0 .735.15.919.334m-32.786 1.625c.792.425.7 1.6-.156 1.99-.575.261-.792.228-1.253-.188-1.285-1.163-.136-2.63 1.409-1.802m22.278 4.177c.655.35.725 1.717.112 2.225-1.063.883-2.581-.941-1.644-1.976.555-.615.781-.651 1.532-.249m-11.604.63c.816.597.501 1.983-.475 2.095-1.416.163-2.045-.928-1.124-1.947.546-.603.928-.637 1.599-.147m-92.726 19.479c.101.651 1.197 4.19 2.434 7.866 3.684 10.955 3.968 15.138 1.215 17.89-3.129 3.13-7.345.194-8.658-6.025l-.387-1.84.098 2.022c.168 3.499 2.332 6.86 4.819 7.484.924.232.792.605-.286.807-6.946 1.304-12.428-7.61-12.435-20.215-.002-4.266.109-4.563 1.808-4.815 1.793-.266 7.53-2.399 9.12-3.389 1.914-1.194 2.053-1.182 2.272.215m-46.832 5.78c3.535.292 7.091.985 9.96 1.939 2.502.831 8.145 3.561 8.03 3.884-.11.31-2.997 4.481-6.426 9.285-3.545 4.963-9.557 13.775-11.514 16.875a182.45 182.45 0 0 1-3.36 5.096l-1.662 2.411-1.654-1.038c-11.529-7.243-25.172-8-39.888-2.213-4.564 1.796-4.026-.426 2.668-11.04 10.122-16.05 24.032-25.313 38.211-25.448 1.302-.012 3.838.1 5.635.248m46.45 32.337c2.462.738 5.295 3.778 5.663 6.077.682 4.262-1.296 7.238-8.459 12.731-1.148.882-3.216 2.614-4.594 3.849-4.175 3.742-15.918 13.02-20.785 16.421-1.324.926-4.325 3.123-6.67 4.884-11.748 8.826-22.344 15.703-23.95 15.543-2.429-.24-2.36-1.857.21-4.905.992-1.18 3.454-4.145 5.469-6.592 2.014-2.444 4.858-5.703 6.32-7.24a363.752 363.752 0 0 0 5.158-5.56c3.398-3.757 21.043-21.426 26.029-26.063 2.218-2.063 4.725-4.44 5.572-5.282 3.972-3.953 6.495-4.924 10.037-3.863m-50.868 18.399c1.245 1.104 4.552 4.265 7.35 7.024l5.083 5.018-2.476 2.515c-1.362 1.382-3.148 3.291-3.97 4.244-.822.95-2.92 3.269-4.661 5.151-9.04 9.77-12.588 14.736-11.725 16.406 1.639 3.172 2.437 3.005 10.274-2.163 4.735-3.123 7.212-4.848 13.946-9.708a1251.72 1251.72 0 0 1 7.49-5.369c.583-.409 2.09 1.248 7.007 7.71 3.929 5.161 4.383 5.778 5.695 7.734l1.205 1.798-2.088 3.528c-6.536 11.04-18.021 19.526-29.613 21.88-8.553 1.738-16.273 1.276-29.444-1.762-4.018-.926-7.357-1.685-7.42-1.685-.063 0-.126-3.476-.14-7.727-.012-4.25-.102-9.482-.198-11.626-.997-22.348 8.048-37.027 26.874-43.618 4.728-1.654 4.145-1.71 6.811.65m80.593 20.899c3.025 8.775 3.4 21.591.843 28.872-3.22 9.168-10.816 18.91-17.946 23.015-.745.43-2.232 1.36-3.304 2.07-4.258 2.816-15.576 8.097-17.526 8.176-1.324.056-1.204-.667.765-4.656 6.71-13.588 7.124-27.664 1.139-38.575-.535-.976-.936-1.794-.89-1.82.045-.026 2.651-1.346 5.79-2.932 3.14-1.587 6.553-3.373 7.585-3.968a50.257 50.257 0 0 1 3.76-1.927c1.035-.463 4.577-2.326 7.87-4.136 12.567-6.91 11.124-6.412 11.914-4.119" fill="#0b0e0e"/><path d="M310.327 157.876c.269.07.706.07.975 0 .268-.07.048-.128-.488-.128s-.754.058-.487.128m6.966.286c.423.063 1.05.062 1.392-.004.343-.067-.004-.118-.77-.117-.766.003-1.046.057-.622.121m-180.452 1.67c.422.064 1.11.064 1.531 0 .422-.064.077-.116-.765-.116-.843 0-1.188.052-.766.116m8.07 3.142c0 .536.058.755.128.488a2.3 2.3 0 0 0 0-.975c-.07-.267-.128-.049-.128.487m147.315 14.962c.575.06 1.515.06 2.089 0 .575-.06.104-.11-1.044-.11-1.149 0-1.618.05-1.045.11m-19.02 7.803-.96 1.044 1.044-.959c.972-.894 1.173-1.13.96-1.13-.046 0-.517.472-1.044 1.045m-3.235 17.753c.002 1.072.052 1.475.112.899.06-.578.06-1.455-.003-1.95-.062-.495-.11-.022-.109 1.05M138.052 253.08c-14.52 2.258-27.582 13.44-37.577 32.171-2.38 4.462-2.042 5.32 1.543 3.91 14.716-5.788 28.36-5.03 39.888 2.213l1.654 1.038 1.663-2.411a182.45 182.45 0 0 0 3.36-5.096c1.956-3.1 7.968-11.912 11.513-16.875 3.429-4.804 6.315-8.974 6.427-9.285.114-.323-5.53-3.053-8.031-3.884-5.879-1.955-14.49-2.706-20.44-1.781m28.174 7.417c-2.7 3.812-4.656 6.88-4.3 6.743.345-.132 2.489 1.45 8.708 6.426 3.563 2.85 8.728 7.392 12.1 10.641l2.952 2.845 1.212-1.236c2.078-2.117 6.834-2.713 9.816-1.228 4.506 2.241-21.29-20.798-28.513-25.468l-.734-.475-1.24 1.752m27.006 14.897c.347.066.848.064 1.114-.006.268-.07-.016-.124-.629-.121-.613.004-.83.061-.485.127m-3.113 9.862c-1.178.275-2.741 1.443-5.175 3.865-.847.842-3.354 3.219-5.572 5.282-4.986 4.637-22.631 22.306-26.029 26.062a363.752 363.752 0 0 1-5.158 5.561c-1.462 1.537-4.306 4.796-6.32 7.24a1061.304 1061.304 0 0 1-5.47 6.592c-2.568 3.048-2.638 4.666-.21 4.905 1.607.16 12.203-6.717 23.951-15.543 2.345-1.761 5.346-3.958 6.67-4.884 4.867-3.402 16.61-12.679 20.785-16.421 1.378-1.235 3.446-2.967 4.594-3.849 3.634-2.786 6.52-5.476 7.29-6.793 3.826-6.548-1.81-13.787-9.356-12.017m10.549 3.415c2.05 3.144 1.343 8.053-1.551 10.753l-1.344 1.253 2.427 3.22c7.207 9.555 8.405 11.304 12.39 18.083 1.216 2.068 2.324 3.9 2.463 4.071.21.258 5.433-2.357 8.535-4.27.393-.242-2.574-5.696-4.888-8.99a250 250 0 0 1-2.94-4.317c-5.157-7.75-10.894-15.425-14.673-19.632l-1.125-1.253.706 1.082m20.478 35.434c-1.302.703-5.061 2.76-8.354 4.57-3.293 1.81-6.835 3.673-7.87 4.136a50.257 50.257 0 0 0-3.76 1.927c-1.032.595-4.444 2.381-7.584 3.968-3.14 1.586-5.746 2.906-5.791 2.933-.046.025.355.843.89 1.82 5.985 10.91 5.57 24.986-1.14 38.574-1.968 3.99-2.088 4.712-.764 4.656 1.95-.079 13.268-5.36 17.526-8.176a79.066 79.066 0 0 1 3.304-2.07c7.13-4.105 14.725-13.847 17.946-23.015 2.556-7.281 2.182-20.097-.843-28.872-.714-2.073-.587-2.058-3.56-.451m-110.725 20.013c.002 1.838.046 2.554.1 1.59a34.28 34.28 0 0 0 0-3.341c-.055-.875-.1-.086-.1 1.751" fill="#e02c43"/><path d="M169.694 43.237c-17.216 4.511-18.99 28.551-2.676 36.238 13.423 6.324 28.074-6.404 24.508-21.291-2.348-9.81-13.167-17.218-21.832-14.947m4.583 16.41c2.16.98 3.322 3.693 2.463 5.75-1.284 3.07-4.28 4.261-7.12 2.828-5.53-2.791-.996-11.145 4.657-8.578m-56.581 7.155c-11.051 1.684-18.893 14.88-15.778 26.555 3.445 12.913 17.743 20.529 28.17 15.005 9.128-4.834 14.046-14.35 11.89-23.005-3.015-12.097-13.597-20.182-24.282-18.555m92.27 15.512c-3.89 1.443-7.567 5.291-11.82 12.376l-1.75 2.91.552 1.428c1.154 2.992 4.808 11.316 4.967 11.316 1.359 0 11.43-11.738 13.382-15.595 1.9-3.756 2.495-7.877 1.397-9.678-1.286-2.11-4.701-3.51-6.729-2.757m-47.784 5.106c-.877.121-.9.158-.738 1.18.376 2.348-2.412 4.983-6.388 6.034-1.346.356-1.726.326-2.889-.23-2.333-1.116-5.823 7.487-3.781 9.323 2.346 2.114 5.739.99 9.543-3.158 2.52-2.747 5.352-4.452 8.779-5.285 4.95-1.203 6.531-5.365 2.784-7.33-1.115-.585-4.916-.862-7.31-.534m-41.831 1.551c3.412 1.724 3.454 7.097.067 8.718-4.875 2.332-9.482-3.716-5.92-7.774 1.407-1.604 3.788-1.987 5.853-.944m45.24 7.704c-2.952 1.026-4.113 1.646-3.94 2.098 1.317 3.432 5.72 8.23 7.554 8.23 3.767 0 4.212-3.086 1.164-8.076-2.053-3.363-1.854-3.27-4.778-2.252m-5.997 3.077c-.542.444-1.756 1.674-2.697 2.732l-1.711 1.926 1.653 2.528c2.748 4.2 4.18 5.09 6.388 3.963 2.553-1.302 1.963-5.113-1.714-11.07-.674-1.091-.681-1.091-1.919-.079m146.766 58.111c-.843.052-2.91.22-4.595.373-8.724.795-11.909 1.175-14.063 1.678-1.302.305-3.62.809-5.151 1.122-4.616.941-8.732 2.128-14.48 4.17-6.521 2.317-19.197 8.592-24.228 11.993-1.072.725-2.65 1.753-3.504 2.286l-1.555.967-.49 3.026c-1.476 9.1-3.796 15.683-8.228 23.348-2.017 3.487-7.262 10.76-9.454 13.108-1.007 1.08-2.576 3.023-3.486 4.316-5.501 7.82-17.515 19.744-21.096 20.938-.483.16.446 3.874 2.596 10.368 2.497 7.543 3.276 12.315 2.477 15.186-.692 2.488-4.85 5.462-7.523 5.383-7.718-.23-12.23-8.693-12.25-22.968l-.003-2.132-3.829-.117-3.829-.117-.626.716c-.346.394-1.69 2.186-2.99 3.982l-2.362 3.265 3.128 2.346c12.725 9.544 25.537 21.697 34.387 32.616 4.74 5.85 15.01 20.85 17.482 25.54.542 1.027 1.08 1.926 1.196 1.999.423.26 11.83-6.104 16.958-9.464 1.345-.88 4.45-2.813 6.9-4.293 9.908-5.985 13.42-8.174 14.48-9.03.613-.495 1.929-1.37 2.924-1.947.996-.576 2.234-1.369 2.75-1.76.518-.39 2.711-1.899 4.873-3.353 2.164-1.453 4.56-3.177 5.326-3.829.766-.653 3.784-2.985 6.707-5.183 4.891-3.677 9.812-7.722 15.63-12.843 6.291-5.542 18.023-19.52 21.089-25.126.586-1.073 1.34-2.326 1.678-2.785 1.967-2.683 4.542-7.744 7.862-15.455 8.182-18.997 11.547-41.378 9.106-60.567-.557-4.38-.146-3.928-4.473-4.918-7.035-1.61-12.495-2.338-19.449-2.591-2.45-.09-5.332-.203-6.404-.252-1.073-.049-2.639-.047-3.481.004m-175.018 1.844c-1.083 3.164-2.154 13.422-1.94 18.583.37 8.858 2.383 12.725 7.022 13.498 5.654.94 9.15-10.077 8.553-26.95l-.195-5.516-2.265.224c-2.662.265-8.829.266-10.142.002-.617-.124-.954-.073-1.033.159m115.425 8.728c-.995.216-3.357.908-5.247 1.536l-3.438 1.143.161 1.012c.09.557.244 2.42.344 4.14l.181 3.128 2.678-1.86c3.51-2.436 7.434-4.719 11.726-6.817l3.481-1.701-1.114-.507c-1.381-.63-6.032-.668-8.772-.074m52.352 10.13c14.751 4.243 23.041 19.166 18.793 33.828-5.834 20.126-31.872 25.982-45.865 10.313-14.683-16.44-4.917-41.49 17.465-44.8 2.072-.308 7.56.07 9.607.658m-9.176.685c-.674.812-.247 1.687.822 1.687.807 0 .99-.112 1.066-.642.11-.769-.39-1.447-1.066-1.447-.268 0-.639.181-.822.402m11.563 2.263c-.845.847.054 2.304 1.199 1.941.887-.281 1.055-1.275.317-1.874-.761-.617-.958-.625-1.516-.067m-22.715 1.234c-.796.796-.384 1.949.696 1.949 1.099 0 1.652-1.717.715-2.218-.719-.384-.766-.376-1.41.269m9.606.18c-14.811 3.08-22.537 18.225-16.034 31.434 9.06 18.4 34.816 16.1 41.05-3.666 4.708-14.93-9.722-30.947-25.016-27.767m22.194 6c-.754.755-.164 1.894.98 1.894.844 0 1.443-1.172.921-1.801-.422-.51-1.434-.559-1.9-.092m-40.438 2.32c-.499.93.147 1.687 1.215 1.418.923-.231 1.262-1.256.58-1.754-.767-.56-1.378-.446-1.795.335m45.171 8.262c-.811.812.208 2.391 1.318 2.04 1.069-.34.608-2.374-.538-2.374-.245 0-.596.15-.78.334m-48.783 2.585c-.609.733.06 1.815 1.12 1.815.822 0 .854-.044.772-1.044-.097-1.18-1.185-1.623-1.892-.771m48.045 9.22c-.55.553-.469 1.477.168 1.877.52.325 1.91-.407 1.903-1.004-.013-1.007-1.365-1.578-2.07-.873m-46.1 2.48c-.408.491.291 1.811.96 1.811.483 0 1.267-.753 1.267-1.217 0-.944-1.585-1.367-2.227-.594m39.965 7.554c-.664.665-.42 1.578.508 1.902.948.333 1.7-.402 1.4-1.366-.325-1.04-1.168-1.278-1.908-.536m-32.567 1.656c-.834.835-.223 1.921.981 1.742.974-.144 1.305-.922.685-1.606-.622-.686-1.077-.724-1.666-.136m22.304 4.203c-.302.304-.212 1.348.149 1.709.987.987 2.503-.405 1.612-1.48-.35-.424-1.427-.563-1.761-.229m-11.87.91c-.388.725-.09 1.38.72 1.584 1.17.294 1.988-.962 1.163-1.788-.511-.51-1.561-.398-1.883.204m-92.829 18.749c-1.69 1.05-7.143 3.13-9.326 3.559l-1.657.326-.174 1.262c-1 7.296 2.098 18.482 5.933 21.419 1.519 1.164 3.694 1.822 5.645 1.711l1.477-.085-1.134-.607c-2.483-1.328-4.24-4.37-4.372-7.562-.087-2.16.446-2.147.691.016.69 6.083 6.3 9.35 9.014 5.246 1.57-2.371 1.367-7.655-.487-12.826-.755-2.104-3.352-10.132-4.017-12.423l-.252-.867-1.34.83m-32.842 21.891c-2.636 3.641-8.084 11.805-18.248 27.338l-2.028 3.098.772.604c1.916 1.5 3.976 3.44 9.704 9.135l6.145 6.107 7.233-7.32c7.313-7.397 17.857-17.592 20.161-19.49l1.253-1.033-1.67-1.705c-2.08-2.122-9.736-8.946-11.659-10.393-.786-.59-2.432-1.917-3.657-2.949-2.513-2.113-6.36-5.026-6.639-5.026-.102 0-.717.735-1.367 1.634m33.764 34.855c-1.761 1.522-3.954 3.361-4.873 4.085-.919.725-2.722 2.232-4.007 3.35a116.477 116.477 0 0 1-4.316 3.562c-1.09.842-3.421 2.658-5.183 4.035a971.65 971.65 0 0 1-6.126 4.749c-3.57 2.739-3.452 2.249-1.18 4.88 3.303 3.823 9.482 12.148 11.351 15.29.278.471 8.932-3.328 13.638-5.986.766-.433 4.087-2.158 7.38-3.833 8.568-4.361 13.617-7.039 13.786-7.312.31-.5-6.65-11.74-10.204-16.484-.975-1.3-2.9-3.881-4.279-5.735-1.378-1.854-2.569-3.37-2.645-3.37-.077 0-1.58 1.246-3.342 2.769" fill="#e0e0de"/><path d="M164.97 87.153c.424.063 1.05.061 1.393-.004.342-.067-.005-.119-.77-.117-.766.002-1.046.057-.623.12m52.348.775c.004.613.062.83.127.485.067-.347.064-.848-.006-1.114-.07-.268-.124.016-.12.629m33.276 79.983a8.936 8.936 0 0 0 1.81 0c.497-.062.09-.113-.905-.113s-1.402.05-.905.113m-121.25 11.772c0 1.15.05 1.62.11 1.045.06-.574.06-1.514 0-2.089-.06-.573-.11-.104-.11 1.044m135.903 25.063c0 1.608.046 2.266.102 1.462a25.02 25.02 0 0 0 0-2.924c-.056-.804-.102-.146-.102 1.462m26.421 26.932c.422.064 1.11.064 1.532 0 .42-.064.077-.116-.766-.116-.842 0-1.186.052-.766.116M189.797 265.27c-.088.227-.106.767-.04 1.202.099.654.13.6.193-.325.073-1.094.078-1.098.287-.278l.213.835.032-.749c.038-.841-.441-1.319-.685-.685m-19.625 36.312-.96 1.045 1.045-.96c.972-.894 1.172-1.129.96-1.129-.047 0-.517.47-1.045 1.044m-33.122 1.6c-16.124 5.599-24.499 16.54-26.185 34.209-.324 3.397-.3 28.257.027 28.46 1.546.956 18.587 4.13 23.93 4.457 17.897 1.098 34.923-8.508 43.282-24.417l1.095-2.083-.939-1.377c-1.313-1.924-10.07-13.372-11.353-14.838l-1.057-1.212-1.382 1.08c-8.651 6.766-26.596 18.746-28.078 18.746-1.152 0-2.683-1.566-2.867-2.931-.213-1.59 4.038-7.197 11.822-15.594 1.64-1.77 3.718-4.059 4.616-5.086.898-1.028 2.683-2.937 3.968-4.242 1.284-1.304 2.335-2.503 2.335-2.663 0-.632-14.15-14.086-14.748-14.024-.083.01-2.092.69-4.466 1.515" fill="#f9c357"/><path d="M152.087 13.178c-4.989.857-9.648 5.707-11.158 11.612-.645 2.521-.953 2.18 2.549 2.828 1.596.295 3.276.616 3.736.714.79.167.864.103 1.378-1.164 2.245-5.528 9.25-6.643 13.243-2.108 2.413 2.743 2.762 5.083 1.297 8.705-.232.572 5.947 4.611 6.274 4.103 2.534-3.935 2.813-12.93.54-17.456-2.32-4.628-11.468-8.333-17.86-7.234m-28.403 14.09c-14.19 1.423-29.796 7.842-40.503 16.658-3.68 3.031-4.027 3.411-3.324 3.654 1.25.43 6.142 2.674 6.63 3.042 1.241.93.027.628-2.664-.664-11.727-5.628-21.45-1.209-24.635 11.196-2.455 9.56 4.56 18.522 15.124 19.32 1.748.132 3.169.909 1.662.909-1.749 0-7.395-1.477-8.982-2.349-.993-.546-1.884-.993-1.979-.993-.349 0 .168 14.88.609 17.544 1.04 6.27 6.064 23.01 8.159 27.187.451.9 1.472 3.2 2.27 5.115 2.322 5.575 11.438 22.998 14.641 27.986.492.766 1.453 2.333 2.135 3.481 2.474 4.166 3.685 6.026 9.022 13.844 1.546 2.266 3.165 4.744 3.6 5.51.434.766 1.637 2.52 2.673 3.898a201.41 201.41 0 0 1 4.198 5.886c1.272 1.859 2.94 4.228 3.706 5.264 5.865 7.934 7.097 9.621 7.927 10.85.518.765 1.693 2.332 2.613 3.48.92 1.149 2.612 3.53 3.76 5.291 13.975 21.413 30.213 35.165 43.469 36.808 12.277 1.523 26.209-5.726 37.099-19.303 6.677-8.326 8.271-10.29 9.293-11.44 13.725-15.431 20.732-36.794 16.671-50.815-2.008-6.93-3.87-9.92-10.883-17.488-9.61-10.37-18.433-24.971-25.997-43.023a967.96 967.96 0 0 0-2.715-6.405 117.115 117.115 0 0 1-2.568-6.683 184.168 184.168 0 0 0-2.523-6.823c-1.104-2.78-4.162-12.02-4.162-12.577 0-.09-.564.355-1.253.99-8.837 8.147-20.647 6.827-27.957-3.124-8.614-11.724-1.697-29.416 12.221-31.262l1.323-.176-2.029-1.88c-9.331-8.653-30.537-14.522-46.63-12.908M79.98 56.843c2.026.58 3.693 1.357 3.54 1.653-3.477 6.74-5.219 11.43-5.232 14.082-.01 2.406-.867 2.697-3.823 1.299-6.082-2.878-7.467-9.684-2.952-14.511 2.618-2.797 5.011-3.512 8.467-2.523m46.59 10.164c11.262 4.138 18.345 15.514 16.212 26.038-2.74 13.521-16.799 21.445-28.475 16.05-19.96-9.222-17.715-37.81 3.389-43.135 1.827-.46 6.165.051 8.875 1.047m41.522 19.42c4.574 1.27 5.705 5.676 2.124 8.27l-1.128.817 1.931 3.05c2.086 3.298 2.51 4.66 1.966 6.306-1.007 3.051-4.6 3.655-7.185 1.209-.994-.941-1.021-.898-.602.923.747 3.236-1.234 5.475-4.33 4.894-1.291-.242-3.106-2.097-4.794-4.9-1.123-1.864-1.433-2.2-1.9-2.053-7.34 2.311-9.714-2.976-4.466-9.95.848-1.128 1.542-2.342 1.542-2.697 0-3.011 6.208-6.776 8.86-5.374.302.16 1.163.067 2.418-.262 2.263-.593 4.003-.666 5.564-.233m-21.297 72.06c0 .135-.238.308-.53.384-.496.13-.527.461-.514 5.532.053 22.116-3.76 31.098-11.642 27.428-5.416-2.522-7.059-15.432-3.884-30.522.513-2.44.525-2.233-.121-2.233-.298 0-.626-.138-.73-.305-.135-.219.778-.24 3.255-.07 4.104.28 9.637.21 11.381-.145 1.68-.342 2.785-.369 2.785-.07m145.018 24.183c.5.061 1.252.061 1.671-.003.418-.064.008-.114-.91-.112-.92 0-1.262.052-.76.115" fill="#4cd4fc"/></g><path style="fill:#fff;fill-opacity:.574899;stroke:#060604;stroke-width:.00773442" d="M4.638 4.353a1.016 1.016 0 0 1-.497-.46c-.06-.114-.069-.156-.068-.372.001-.29.05-.42.23-.612a.64.64 0 0 1 .562-.227c.388.026.69.295.797.71a.772.772 0 0 1-.068.557c-.06.124-.257.311-.4.381a.934.934 0 0 1-.556.023Zm.215-.473c.07-.07.07-.232 0-.295a.191.191 0 0 0-.273.023c-.08.093-.075.158.015.248.088.088.185.097.258.024zm1.878-.68a.869.869 0 0 1-.405-.374c-.098-.177-.116-.483-.04-.653.174-.387.584-.546.943-.366a.745.745 0 0 1 .436.642.726.726 0 0 1-.37.705.762.762 0 0 1-.564.045Zm.287-.51c.077-.077.08-.164.01-.254-.077-.098-.202-.093-.292.014-.05.06-.064.098-.052.147a.197.197 0 0 0 .334.093zm4.442 6.35a.87.87 0 0 1-.549-.448c-.236-.46-.055-.978.419-1.2a.968.968 0 0 1 .712-.006c.16.071.372.286.45.457.08.173.08.531.001.704-.177.384-.635.602-1.032.492z" transform="scale(25)"/><path style="fill:#f95;fill-opacity:.574899;stroke:#060604;stroke-width:.00773442" d="M5.34 14.8a57.554 57.554 0 0 0-.308-.05 8.393 8.393 0 0 1-.416-.079l-.173-.039v-.584c0-.675.03-.887.165-1.171.157-.33.433-.569.838-.725l.204-.078.069.05c.038.028.171.153.296.28l.227.23-.188.202c-.688.737-.794.897-.658.992.052.036.065.034.173-.029.176-.102.684-.444.88-.594.097-.072.185-.125.197-.118.012.008.132.159.266.336l.245.322-.063.123c-.198.392-.677.761-1.14.88-.153.039-.512.07-.614.052z" transform="scale(25)"/><path style="fill:#ffb380;fill-opacity:.574899;stroke:#060604;stroke-width:.00773442" d="M5.362 7.632c-.12-.065-.16-.196-.17-.538a3.04 3.04 0 0 1 .025-.5l.033-.191.256-.013c.157-.008.264-.003.275.013.01.014.02.146.02.294 0 .445-.074.784-.197.907-.074.074-.142.082-.242.028zm2.172 3.291c-.115-.1-.193-.287-.228-.547-.04-.3-.027-.33.152-.386.082-.026.19-.068.241-.093l.093-.047.092.287c.16.5.175.656.077.765-.106.117-.273.014-.331-.202-.027-.1-.033-.109-.035-.048-.002.102.089.283.16.317.051.025.048.027-.039.029-.07.001-.117-.018-.182-.075zm.433-6.751a1.527 1.527 0 0 1-.092-.263c0-.095.267-.445.417-.548.123-.083.218-.089.309-.018.134.106.105.318-.077.572-.138.194-.395.477-.432.477-.018 0-.074-.099-.125-.22zm1.588 2.943a.684.684 0 0 1-.015-.161v-.123l.2-.054c.203-.055.427-.07.485-.033.02.013-.017.043-.11.089a5.007 5.007 0 0 0-.343.194c-.16.1-.206.118-.217.088ZM5.956 4.163c-.052-.033-.043-.187.017-.29.041-.07.063-.083.15-.084.164-.003.304-.095.331-.219.016-.07.024-.074.15-.074.198 0 .284.079.232.214-.008.022-.095.07-.193.107a.999.999 0 0 0-.311.19c-.195.177-.285.214-.376.156Z" transform="scale(25)"/><path style="fill:#fff;fill-opacity:.574899;stroke:#060604;stroke-width:.00773442" d="M6.36 4.373a1.35 1.35 0 0 1-.107-.134c-.041-.06-.04-.065.053-.16.052-.053.107-.097.123-.097.028 0 .12.183.153.3.022.08-.029.161-.099.161-.032 0-.087-.031-.123-.07zm.265-.197a1.041 1.041 0 0 1-.119-.166c-.038-.074-.038-.074.064-.115.151-.06.17-.053.252.09.094.165.08.262-.04.274-.062.006-.093-.01-.157-.083Z" transform="scale(25)"/></svg>