<svg width="16" height="16" viewBox="0 0 400 400" xmlns="http://www.w3.org/2000/svg"><g fill-rule="evenodd"><path d="M196.564 11.149c-5.452.138-13.312.554-15.713.831-1.431.166-3.07.35-3.642.411-1.314.14-7.742 1.169-12.904 2.066-4.61.801-13.773 3.092-19.627 4.908a440.195 440.195 0 0 1-5.868 1.784c-.973.282-2.705.896-3.85 1.363a275.552 275.552 0 0 1-4.472 1.77c-6.746 2.591-15.322 6.635-21.543 10.154-1.26.713-3.273 1.841-4.475 2.507-6.215 3.442-20.721 13.664-25.387 17.89-.759.687-2.592 2.28-4.073 3.538-11.572 9.832-23.528 23.677-33.432 38.71-3.783 5.745-4.04 6.163-5.739 9.366-.85 1.603-2.008 3.68-2.572 4.617-.564.937-1.544 2.81-2.178 4.163a165.215 165.215 0 0 1-2.202 4.5c-1.236 2.407-4.617 10.426-5.894 13.984a740.288 740.288 0 0 1-1.658 4.573 62.269 62.269 0 0 0-1.363 4.275 92.831 92.831 0 0 1-1.352 4.433c-.857 2.531-1.973 6.806-2.703 10.34l-1.224 5.932a157.69 157.69 0 0 0-2.838 20.188c-.097 1.259-.276 3.32-.397 4.579-.33 3.419-.485 17.174-.235 20.916.314 4.712.601 8.063.964 11.238.176 1.545.501 4.402.72 6.348.22 1.946.54 4.112.712 4.815.171.703.732 3.56 1.245 6.347.514 2.79 1.3 6.43 1.747 8.089.448 1.66.967 3.673 1.153 4.475.955 4.1 5.201 16.28 7.697 22.082.645 1.5 1.172 2.81 1.172 2.91 0 .506 8.274 17.031 9.577 19.13a113.43 113.43 0 0 1 1.67 2.809c1.228 2.145 4.823 7.624 7.304 11.134 1.132 1.603 2.596 3.68 3.253 4.616 1.39 1.983 5.09 6.575 6.511 8.08a26.86 26.86 0 0 1 1.747 2.08c1.735 2.359 11.51 12.43 15.618 16.093a245.073 245.073 0 0 1 3.954 3.6c.803.756 1.842 1.647 2.308 1.978.466.332 1.543 1.18 2.393 1.885 4.575 3.79 7.911 6.358 9.635 7.416.587.362 2.754 1.825 4.814 3.253 4.255 2.95 10.385 6.703 13.008 7.961.973.467 2.174 1.126 2.669 1.465.495.34 1.62.943 2.497 1.34.879.398 2.862 1.362 4.407 2.141 1.546.78 4.543 2.135 6.66 3.013 2.118.877 4.787 2.005 5.932 2.506 2.66 1.166 5.283 2.125 10.093 3.691 3.613 1.177 4.888 1.567 10.094 3.095 4.305 1.263 19.71 4.287 23.726 4.658.801.074 1.99.226 2.642.338.652.111 2.15.291 3.33.4 1.18.108 2.94.293 3.914.41 3.197.388 15.78.624 22.477.423 7.969-.24 20.652-1.48 24.558-2.404a49.257 49.257 0 0 1 3.122-.59c2.081-.32 8.007-1.61 10.822-2.359a194.312 194.312 0 0 1 3.642-.927c2.05-.495 13.386-4.036 16.472-5.146 7.794-2.802 21.378-9.123 27.164-12.64a124.31 124.31 0 0 1 3.734-2.169c2.183-1.203 4.41-2.582 5.389-3.335.4-.308 1.446-.983 2.324-1.5 1.738-1.027 6.172-4.124 7.666-5.355a38.638 38.638 0 0 1 2.3-1.702c2.029-1.381 7.154-5.523 9.273-7.494a161.716 161.716 0 0 1 3.417-3.078c4.022-3.488 12.16-11.692 15.053-15.177a202.866 202.866 0 0 1 2.97-3.467c4.601-5.24 11.83-15.264 15.901-22.048a102.787 102.787 0 0 1 2.224-3.518c.605-.904 1.1-1.733 1.1-1.841 0-.11.53-1.099 1.18-2.2.647-1.102 1.44-2.58 1.759-3.285.32-.706.878-1.785 1.241-2.4 4.142-7.006 12.622-28.928 14.24-36.809.176-.858.502-2.123.725-2.81.854-2.63 3.329-15.128 4.039-20.395 2.167-16.093 2.256-34.06.244-49.845-.88-6.908-1.155-8.723-1.674-11.03-.27-1.203-.633-2.888-.806-3.747-1.271-6.33-1.625-7.76-3.9-15.76-.805-2.834-3.708-11.146-5.072-14.521-.601-1.489-1.21-3.08-1.357-3.539-.144-.457-.617-1.581-1.05-2.497-3.426-7.253-4.158-8.835-4.159-8.986 0-.094-.434-.92-.961-1.836-.528-.916-1.574-2.883-2.324-4.37-2.49-4.936-9.05-15.485-11.906-19.148a52.327 52.327 0 0 1-1.876-2.601 46.378 46.378 0 0 0-2.084-2.81c-.65-.801-1.465-1.88-1.814-2.398-.347-.517-1.589-2.015-2.759-3.33a226.044 226.044 0 0 1-3.693-4.262c-3.87-4.63-16.997-17.53-20.584-20.232-.555-.419-1.716-1.38-2.578-2.134a53.262 53.262 0 0 0-2.986-2.406 295.805 295.805 0 0 1-3.01-2.236c-4.697-3.539-14.607-9.961-20.22-13.104-4.812-2.694-14.526-7.565-17.899-8.975a2052.6 2052.6 0 0 1-4.162-1.746c-4.367-1.84-18.973-6.704-21.124-7.036-.458-.07-1.816-.391-3.018-.713-3.566-.953-8.431-2.085-8.97-2.086-.274-.001-1.294-.193-2.263-.425-1.855-.444-3.15-.639-10.932-1.64-9.107-1.17-19.602-1.76-27.68-1.555m-26.015 47.427c3.754 1.088 7.685 3.684 8.78 5.8 1.893 3.665 2.17 8.359.76 12.908l-.571 1.841.712.58c.457.374 1.07.63 1.718.715 11.323 1.502 17.786 15.095 11.928 25.09l-.746 1.271 1.792 5.036a567.269 567.269 0 0 1 2.011 5.713c.297.908.263.932 1.92-1.331 5.001-6.83 10.389-8.585 14.4-4.692 4.176 4.054 1.677 11.168-7.09 20.169l-2.476 2.542.454 1.053c1.055 2.454 2.926 6.24 3.725 7.538a44.114 44.114 0 0 1 1.517 2.706c1.086 2.162 3.282 5.793 4.44 7.343.599.801 1.704 2.35 2.455 3.44 1.635 2.373 2.16 3.012 5.441 6.62 4.215 4.637 5.933 7.225 7 10.544.61 1.9.561 1.869 2.157 1.377 3.528-1.09 9.487-1.48 11.308-.741.63.256.805.207 3.122-.86 12.958-5.965 35.959-9.237 48.209-6.857.897.175 2.01.317 2.471.317.462 0 1.649.184 2.635.41.988.226 2.919.656 4.293.955 2.887.632 3.685 1.044 4.12 2.126 1.03 2.579 1.586 15.224.897 20.443a88.563 88.563 0 0 0-.454 4.37c-.076 1.088-.413 3.289-.749 4.891a218.116 218.116 0 0 0-.907 4.58c-.163.915-.684 2.928-1.156 4.474a260.73 260.73 0 0 0-1.25 4.207c-.217.768-.757 2.313-1.2 3.434-.444 1.12-.924 2.41-1.067 2.869-.46 1.463-5.114 10.752-6.38 12.73-5.753 8.994-9.549 13.635-17.15 20.966-4.319 4.163-15.787 13.347-20.32 16.27a84.615 84.615 0 0 0-3.813 2.654c-1.087.807-3.44 2.375-5.227 3.48a410.155 410.155 0 0 0-5.723 3.614c-5.067 3.283-6.355 4.081-9.784 6.065-1.931 1.117-4.355 2.561-5.385 3.21a80.054 80.054 0 0 1-3.642 2.137c-2.763 1.5-2.605 1.287-2.219 2.98.181.793.522 2 .758 2.683 1.096 3.177 1.418 10.333.645 14.375-.705 3.684-1.795 7.465-2.355 8.16-.115.142-.471.816-.793 1.497-3.448 7.29-11.249 14.02-21.888 18.885-6.692 3.06-7.643 3.326-9.193 2.576-2.32-1.123-2.508-2.974-.636-6.255 3.505-6.14 4.97-14.789 3.526-20.812-.605-2.523-1.785-6.035-2.027-6.035-.871 0-4.124 1.912-4.498 2.645-3.517 6.893-13.626 14.69-21.647 16.695-1.415.354-2.657.695-2.76.759-1.104.682-9.783.671-14.646-.02-3.853-.547-12.51-2.507-14.173-3.208-.432-.182-.44-.298-.58-9.516-.196-13.037-.02-15.142 1.863-22.236 2.117-7.986 8.947-15.02 17.884-18.423 1.024-.39 1.314-.61 1.607-1.224.196-.412.78-1.451 1.297-2.31 1.221-2.029 1.278-1.882-1.187-3.1-6.82-3.37-16.018-3.489-24.05-.311-4.219 1.67-7.07.604-6.605-2.47.381-2.508 6.921-12.743 10.896-17.05 9.189-9.955 22.878-14.545 33.443-11.212.687.216 2.326.693 3.643 1.058 1.316.365 2.978.928 3.694 1.252l1.3.589.52-.684c.681-.891.718-.828-.78-1.373-6.678-2.432-14.568-8.593-20.653-16.128a272.253 272.253 0 0 0-2.401-2.913c-.767-.916-2.313-2.976-3.436-4.579a338.453 338.453 0 0 0-4.355-6.035c-1.273-1.717-2.63-3.59-3.016-4.163-.386-.572-1.514-2.117-2.506-3.434-.993-1.316-2.303-3.142-2.912-4.058-.611-.916-2.159-3.07-3.44-4.787-1.96-2.624-4.016-5.638-5.467-8.013-.175-.286-1.191-1.748-2.26-3.248-1.067-1.502-2.566-3.796-3.332-5.1-.766-1.303-1.655-2.707-1.975-3.12-.32-.412-.969-1.442-1.443-2.288a79.091 79.091 0 0 0-1.848-3.101c-5.82-9.2-13.358-25.486-16.327-35.277-1.957-6.46-3.138-14.367-3.014-20.185l.059-2.762-1.261-1.376c-3.674-4.01-4.43-9.9-1.938-15.098 3.038-6.333 6.87-9.024 12.902-9.057l2.398-.014 2.076-1.838c6.634-5.872 17.894-11.106 27.756-12.902 2.104-.383 3.222-.441 8.632-.447l6.215-.006.458-1.249c2.809-7.65 9.207-10.965 16.874-8.744m-4.007 8.581c.316.048.83.048 1.145 0 .315-.048.057-.086-.572-.086-.63 0-.887.038-.573.086m12.292 3.91c.001.686.04.942.086.568a5.555 5.555 0 0 0-.002-1.249c-.047-.312-.085-.006-.084.68m-36.017-.168c.2.052.528.052.728 0 .2-.052.037-.096-.364-.096-.4 0-.564.044-.364.096m30.19 2.25c0 .687.04.943.086.568a5.555 5.555 0 0 0-.002-1.249c-.048-.312-.085-.006-.084.68m107.689 18.628c.273.545.7.892 1.697 1.384l1.333.655-1.19.376c-1.46.46-1.99.968-2.503 2.393l-.397 1.102-.38-1.121c-.482-1.417-.985-1.95-2.39-2.532l-1.121-.464 1.296-.47c1.436-.52 1.855-.946 2.398-2.438l.367-1.01.262.698c.145.384.427 1.026.628 1.427m-172.84.982a3.76 3.76 0 0 0 1.04-.003c.256-.05-.003-.089-.575-.088-.573.003-.782.043-.465.091m230.273 5.054 1.082.995-1.546.078c-1.538.078-1.555.085-2.593 1.107l-1.044 1.03-.001-1.346c-.002-1.483-.236-1.975-1.456-3.07l-.729-.655 1.114-.007c1.405-.008 2.378-.466 3.22-1.517l.661-.826.104 1.608.104 1.607 1.084.996m-171.774-1.458c0 .973.036 1.372.08.885.044-.486.044-1.283 0-1.77-.044-.485-.08-.088-.08.885m12.363-1.518c.258.05.68.05.936 0 .257-.05.047-.09-.468-.09s-.725.04-.468.09m-11.972.894c0 .4.044.565.096.364a1.72 1.72 0 0 0 0-.728c-.052-.2-.096-.037-.096.364m0 1.873c0 .4.044.564.096.364a1.72 1.72 0 0 0 0-.728c-.052-.2-.096-.037-.096.364m-72.63 1.77c.004.457.046.62.095.361.05-.259.048-.634-.004-.832-.052-.2-.093.012-.09.47m46.514.875c.257.05.68.05.937 0s.047-.09-.468-.09-.726.04-.469.09m-10.354 4.12c-.505.515-.872.937-.814.937.057 0 .517-.422 1.023-.937.505-.515.872-.937.814-.937-.057 0-.517.422-1.023.937m-26.847-.663c0 .035.305.34.676.676l.677.611-.611-.676c-.57-.63-.742-.772-.742-.61m49.316 2.067c.51.543.955.988.989.988.156 0-.01-.187-.928-1.049l-.99-.928.93.989m-55.769.468c.621.63 1.177 1.145 1.234 1.145.057 0-.405-.515-1.026-1.145s-1.177-1.145-1.234-1.145c-.057 0 .405.515 1.026 1.145m73.875 1.197c.51.543.955.988.988.988.156 0-.01-.187-.928-1.049l-.989-.928.929.989m121.298 6.64c.257.416 1.124 1.374 1.925 2.131l1.457 1.375h-2.407c-2.91 0-3.08.072-5.043 2.174-1.787 1.914-1.659 1.926-1.55-.145.141-2.732-.093-3.297-2.23-5.36l-1.833-1.768h2.417c2.9 0 3.217-.148 5.246-2.432l1.334-1.503.108 2.386c.09 1.99.186 2.511.576 3.142M98.932 112.17c0 1.546.034 2.177.073 1.405.04-.772.04-2.036 0-2.81-.04-.771-.073-.14-.073 1.405m5.538-1.456c-.414.267.107.267.729 0l.416-.18-.416-.01a1.496 1.496 0 0 0-.729.19m2.134.56c.2.052.528.052.728 0 .2-.053.037-.096-.364-.096-.4 0-.564.043-.364.095m73.883.625c.2.052.528.052.728 0 .2-.052.036-.096-.364-.096-.4 0-.564.044-.364.096m-54.948 3.186c0 .4.043.564.095.364a1.72 1.72 0 0 0 0-.728c-.052-.2-.095-.036-.095.364m48.18-.058a7.683 7.683 0 0 0 1.456.002c.431-.045.13-.082-.672-.083-.801-.001-1.155.035-.785.08m-16.312 2.557c0 .973.035 1.371.08.884a11.87 11.87 0 0 0 0-1.769c-.045-.486-.08-.088-.08.885m-19.064-.894c.258.05.68.05.937 0 .258-.05.046-.09-.469-.09s-.725.04-.468.09m-39.235 1.102c0 .4.044.565.096.364a1.72 1.72 0 0 0 0-.728c-.052-.2-.096-.037-.096.364m68.093 9.412c-.218.257-.257.359-.085.228.172-.132.383-.248.468-.257.177-.02.235-.217.103-.349-.049-.048-.267.122-.486.378m12.67.682c.002.572.042.781.09.465a3.774 3.774 0 0 0-.003-1.04c-.05-.257-.089.002-.088.575m-6.145 1.385c.17.17.177.357.024.642-.118.22-.169.447-.113.503.055.057.166-.099.244-.345.137-.434.154-.436.59-.07.248.206.176.073-.16-.297-.337-.37-.66-.674-.719-.674-.059 0 .002.108.134.24m30.326 1.477-1.242 1.301 1.3-1.242c1.208-1.154 1.397-1.36 1.243-1.36-.032 0-.618.586-1.301 1.301m-30.015.885c.003.458.046.62.095.362.05-.26.047-.634-.005-.833-.052-.2-.092.013-.09.47m-5.671.795c0 .035.304.34.676.676l.676.611-.61-.676c-.57-.631-.742-.773-.742-.611m-26.276.501c.373.046.98.046 1.353 0s.068-.084-.676-.084-1.048.038-.677.084m-1.241.42a17.13 17.13 0 0 0 2.081-.001c.54-.043.045-.077-1.1-.077s-1.586.035-.981.078m80.171 32c.621.63 1.177 1.145 1.234 1.145.057 0-.405-.515-1.026-1.145s-1.177-1.144-1.234-1.144c-.057 0 .405.515 1.026 1.144m57.91 3.167c.315.048.83.048 1.144 0 .315-.048.058-.086-.572-.086s-.887.038-.572.086m3.846 0c.37.048 1.025.048 1.457.003.43-.045.129-.082-.673-.083-.8-.001-1.155.035-.784.08m4.995.21c.37.046 1.025.046 1.457.001.43-.045.129-.082-.673-.083-.801-.001-1.155.035-.784.081m-139.227.413c.26.05.634.048.833-.004.2-.052-.013-.093-.47-.09-.459.003-.621.045-.363.094m2.704.208c.258.05.68.05.936 0 .258-.05.047-.09-.468-.09s-.725.04-.468.09m4.372 0c.26.05.634.048.833-.004.2-.052-.013-.092-.47-.09-.459.003-.62.045-.363.094m3.666.158a.915.915 0 0 0-.01.573c.06.148.115.064.124-.183.01-.249.134-.499.276-.557.204-.082.202-.108-.006-.12-.146-.01-.32.12-.384.287m109.968-.158c.26.05.634.048.833-.004.2-.052-.013-.092-.47-.09-.459.003-.62.045-.363.094m-116.337.629c.373.046.935.046 1.248-.002.313-.048.007-.086-.68-.085-.687.002-.943.04-.568.087m5.927 2.45c.003.458.046.62.095.363.05-.26.048-.634-.004-.833-.052-.2-.093.013-.091.47m.639 1.353c0 .744.037 1.05.084.677a6.679 6.679 0 0 0 0-1.353c-.047-.372-.084-.068-.084.676m-.219 5.203c0 .515.041.727.09.469a2.945 2.945 0 0 0 0-.937c-.049-.257-.09-.047-.09.468m-12.491.104c.003.458.046.62.095.362.05-.259.048-.633-.004-.832-.052-.2-.093.012-.091.47m81.427-.104c-.079.36-.1.697-.047.75.054.054.157-.202.23-.568.173-.867.005-1.035-.183-.182m77.168 1.977c.002.573.043.782.09.466a3.774 3.774 0 0 0-.002-1.041c-.05-.256-.089.003-.088.575m-77.001.729c0 .63.038.887.086.572a4.58 4.58 0 0 0 0-1.144c-.048-.315-.086-.058-.086.572m-69.315.52c.003.458.046.62.095.362.05-.259.048-.633-.004-.832-.052-.2-.093.012-.09.47m107.858 1.274c-13.112 1.938-21.112 13.958-17.255 25.924 6.78 21.036 36.667 17.982 39.223-4.008 1.426-12.26-10.025-23.683-21.968-21.916m-38.547 1.015c.002.573.042.782.09.466a3.774 3.774 0 0 0-.003-1.041c-.05-.256-.088.003-.087.575m77.004.209c.002.572.043.781.09.465a3.774 3.774 0 0 0-.002-1.04c-.05-.257-.089.002-.088.575m-36.906-.22c.504.607.184 1.26-.615 1.26-.602 0-.74-.083-.796-.48-.082-.574.292-1.08.796-1.08.201 0 .478.135.615.3m-121.693 1.156c0 .4.044.565.096.364a1.72 1.72 0 0 0 0-.728c-.052-.2-.096-.037-.096.364m82.201-.374c-.137.137-.239.44-.226.676.024.418.027.418.127.01.057-.229.197-.532.314-.676.27-.332.114-.34-.215-.01m48.038.959c.551.447.425 1.19-.238 1.4-.855.272-1.527-.817-.896-1.45.418-.417.565-.411 1.134.05m-17.056.671c.7.375.287 1.658-.534 1.658-.807 0-1.115-.862-.52-1.457.482-.482.517-.488 1.054-.2m11.85.417c9.425 1.496 15.81 11.67 12.972 20.671-4.659 14.772-23.908 16.492-30.68 2.74-4.86-9.872.914-21.192 11.984-23.493.85-.177 4.414-.125 5.724.082m12.284 4.472c.202.243.21.44.03.832-.38.835-1.7.587-1.7-.318 0-.78 1.155-1.135 1.67-.514m20.855.306c0 .4.043.564.095.364a1.72 1.72 0 0 0 0-.728c-.052-.2-.095-.037-.095.364m-51.156 1.108c.51.373.257 1.139-.433 1.311-.798.201-1.281-.364-.909-1.06.312-.584.77-.67 1.342-.25m33.584 6.425c.809.808-.17 2.061-1.014 1.297-.657-.595-.392-1.547.431-1.547.183 0 .446.112.583.25m-36.21 2.508c.06.747.037.78-.577.78-.793 0-1.293-.808-.838-1.357.529-.637 1.341-.305 1.414.577m-189.182 6.257c2.948 2.995 4.672 3.5 10.238 3.002l1.769-.16-.937.77c-4.681 3.849-5.642 6.27-4.933 12.438l.166 1.442-2.209-2.32c-3.163-3.326-3.944-3.69-7.9-3.68-1.605.002-3.277.078-3.716.168-.793.161-.783.147 1.363-1.984 3.629-3.601 4.14-4.841 3.72-9.022-.125-1.237-.224-2.537-.22-2.89l.007-.64.525.625c.29.343 1.246 1.356 2.127 2.25m225.067.224c.277.42.167.737-.382 1.097-.626.41-1.187.194-1.291-.496-.135-.903 1.167-1.37 1.673-.601m-34.43 1.626c.472.472.008 1.415-.697 1.415-.5 0-1.022-.986-.717-1.354.31-.374 1.068-.406 1.414-.061m29.514 5.529c.406.267.511.99.205 1.408-.382.523-1.445.21-1.54-.453-.107-.74.74-1.348 1.335-.955m-24.154 1.518c.463.51.215 1.093-.512 1.2-.9.134-1.357-.678-.734-1.302.44-.44.78-.411 1.246.102m16.74 3.21c.666.804-.467 1.844-1.205 1.106-.27-.27-.337-1.05-.111-1.276.25-.25 1.054-.146 1.316.17m-8.78.357c.617.617.006 1.556-.87 1.336-.605-.152-.828-.642-.537-1.184.24-.45 1.025-.534 1.407-.152m-105.164 5.162c1.6 1.602 2.955 2.913 3.013 2.913.057 0-1.205-1.31-2.805-2.913-1.6-1.603-2.955-2.914-3.012-2.914-.058 0 1.205 1.311 2.804 2.914m-34.586-.55c-.195 2.746.215 3.789 2.283 5.805l1.654 1.613h-2.47c-3.09.002-3.318.124-5.978 3.225l-.536.625-.009-1.977c-.011-2.978-.172-3.36-2.263-5.389l-1.8-1.746 1.56.142c3.022.276 4.593-.397 6.524-2.789 1.251-1.548 1.18-1.583 1.035.49m76.72 2.996-.718.78.78-.717c.727-.668.877-.843.718-.843-.035 0-.386.351-.78.78m-22.623 9.145c.201.052.53.052.729 0 .2-.052.036-.096-.364-.096-.401 0-.564.044-.365.096m1.355.42c.26.05.634.047.833-.005.2-.052-.013-.093-.47-.09-.458.003-.62.045-.363.094m3.733.003c.593.074.673.165.745.852l.081.767.035-.884.035-.885-.78.034c-.752.032-.756.036-.116.116m.948 5.99c.003.458.046.62.095.362.05-.259.048-.634-.005-.832-.052-.2-.092.012-.09.47m92.241 4.527-1.032 1.092 1.093-1.032c.6-.568 1.092-1.06 1.092-1.093 0-.156-.192.017-1.153 1.033m-83.602 7.795c.26.05.634.048.833-.004.2-.052-.013-.093-.47-.09-.459.002-.621.045-.363.094m-9.632 12.392-1.869 1.925 1.925-1.868c1.06-1.029 1.926-1.894 1.926-1.926 0-.15-.246.082-1.982 1.87m-7.603 7.18-.717.78.78-.717c.726-.668.876-.844.717-.844-.034 0-.386.352-.78.78m-16.43 3.695c.388.4.752.728.809.728.057 0-.213-.328-.601-.728-.389-.401-.753-.729-.81-.729-.057 0 .213.328.601.729m28.604 2.653-.611.677.676-.611c.373-.336.676-.641.676-.677 0-.16-.171-.02-.741.611m-23.6 2.973c.625.691 1.179 1.227 1.23 1.19.052-.037-.46-.603-1.136-1.256l-1.23-1.19 1.136 1.256m-5.946 8.89-1.243 1.3 1.3-1.242c.717-.682 1.302-1.268 1.302-1.3 0-.154-.205.034-1.36 1.242m147.215 8.3c1.621 2.483 2.42 2.923 5.821 3.205l1.725.143-1.543 1.013c-2.658 1.744-2.945 2.26-3.403 6.086l-.17 1.42-1.302-1.762c-1.81-2.447-2.334-2.727-5.658-3.01l-1.757-.15 1.724-1.131c2.592-1.7 3.06-2.51 3.285-5.683.07-1.006.155-1.803.187-1.772.032.032.523.77 1.09 1.641m-174.496 5.28c.001 1.374.034 1.908.075 1.188a25.62 25.62 0 0 0 0-2.497c-.042-.654-.075-.065-.075 1.309m-40.3 3.85c.276.55.693.886 1.696 1.37l1.329.64-.99.279c-1.31.366-2.126 1.087-2.693 2.376l-.466 1.059-.367-1.1c-.409-1.224-1.197-1.987-2.64-2.552l-.89-.348 1.082-.359c1.328-.44 2.136-1.218 2.64-2.542l.386-1.007.275.727c.15.401.438 1.057.639 1.457m84.644 5.88-.823.884.885-.823c.822-.765.98-.946.823-.946-.034 0-.433.398-.885.885m-29.192 41.563c2.305.867 2.905 2.259 2.127 4.933-.372 1.28-.65 1.48-1.546 1.11-.72-.298-.712-.253-.317-1.765.53-2.033-.553-3.229-2.922-3.229-1.185 0-1.638.497-2.181 2.385a78.699 78.699 0 0 1-1.14 3.506c-1.212 3.448-1.613 5.272-1.3 5.912.638 1.302 3.613 1.986 4.5 1.035.392-.42 1.633-3.867 1.438-3.994a30.073 30.073 0 0 0-1.196-.433c-.954-.335-1.155-.492-1.208-.945-.093-.804.295-.833 2.476-.188 2.334.692 2.28.569 1.544 3.537-1.026 4.136-1.683 4.553-6.088 3.867-.914-.142-2.544-.994-3.154-1.647-.963-1.033-.849-1.972.903-7.407.865-2.685 1.573-4.996 1.573-5.135 0-1.925 3.354-2.722 6.491-1.542m107.31-.115c.994.518 1.45 1.226 2.124 3.314.78 2.412.73 3.119-.308 4.268l-.698.773 2.479 2.689c2.614 2.834 2.628 2.855 2.22 3.177-1.139.894-1.578.644-4.11-2.338a421.994 421.994 0 0 0-2.17-2.544c-.177-.198-.498-.171-1.474.122-1.537.462-1.55.592-.395 4.226.88 2.776.85 2.933-.561 2.964l-.871.018-.566-2.08a3488.45 3488.45 0 0 0-1.423-5.204c-2.448-8.93-2.617-7.92 1.528-9.158 1.905-.57 3.412-.65 4.225-.227m-4.095 1.795c-.73.215-1.356.421-1.393.459-.07.069 1.574 5.815 1.706 5.968.135.156 2.458-.441 3.22-.828 1.186-.6 1.35-1.272.807-3.287-.746-2.762-1.482-3.154-4.34-2.312m-7.144.868c.793.793.188 1.135-3.444 1.945-1.767.393-1.702.186-1.068 3.383.55 2.781.35 2.633 2.842 2.102 2.396-.51 2.81-.452 2.714.384-.063.55-.158.594-2.248 1.055-2.663.589-2.458.325-1.93 2.489.244.999.508 2.261.585 2.804.171 1.202.126 1.197 3.467.393 2.564-.618 2.87-.585 2.87.312 0 .535.217.455-3.822 1.418-3.342.798-3.782.856-3.991.519-.211-.343-1.48-5.94-1.744-7.688-.13-.859-.375-2.05-.545-2.646-.734-2.563-1.098-4.855-.817-5.136.148-.149 1.284-.473 2.524-.721s2.536-.536 2.88-.64c.892-.268 1.44-.26 1.727.027m-83.566.608c1.155.376 2.393 1.522 2.64 2.443.277 1.026-1.79 11.825-2.43 12.698-1.63 2.223-8.059 1.076-8.72-1.554-.417-1.664 2.254-12.39 3.328-13.367.796-.722 3.319-.83 5.182-.22m-3.664 1.69c-.334.334-.597.942-.754 1.74-.132.675-.657 2.88-1.166 4.902-1.263 5.017-1.172 5.625.924 6.208 2.551.709 3.097.147 4.046-4.161 1.23-5.585 1.476-7.057 1.275-7.623-.503-1.411-3.292-2.099-4.325-1.067m14.129.364c4.916.892 5.621 1.69 5.084 5.749-.305 2.305-.737 3.108-2 3.723l-.855.417 1.009 3.33c.555 1.83.967 3.447.915 3.59-.122.34-1.655.339-1.937-.002-.277-.334-1.402-4.112-1.694-5.69-.274-1.483-.248-1.46-1.803-1.626l-1.269-.136-.34 1.62a86.68 86.68 0 0 0-.577 3.076c-.268 1.642-.456 1.977-1.109 1.977-1.087 0-1.231-.372-.881-2.3.175-.967.472-2.788.66-4.048.413-2.745 1.726-9.65 1.886-9.91.157-.253.323-.24 2.91.23m60.256-.204c1.1.306 1.63 1.014 2.186 2.927.577 1.982.479 2.275-.76 2.275-.874 0-.77.197-1.134-2.157-.264-1.711-3.925-2.062-4.55-.435-.891 2.324.317 3.952 3.533 4.757 3.909.98 5.222 2.696 4.816 6.298-.323 2.87-6.973 4.264-8.587 1.801-.542-.827-1.068-4.014-.701-4.247 1.13-.715 1.823-.2 2.067 1.534.23 1.64.811 2.23 2.196 2.23 2.153 0 3.136-.961 2.9-2.842-.271-2.174-.434-2.314-3.855-3.3-3.702-1.069-4.13-1.447-4.437-3.923-.46-3.714 2.467-5.99 6.326-4.918m-46.323 1.877c3.263.295 3.265.297 3.186 1.105l-.064.659h-1.457c-.801 0-2.028-.073-2.726-.163l-1.269-.163-.13 1.828a56.727 56.727 0 0 1-.265 2.785l-.132.957.804.134c.442.072 1.29.134 1.884.135 1.496.003 2.146.282 2.146.92 0 .84-.819.97-3.874.62l-1.064-.122-.237 1.59c-.372 2.503-.319 4.277.128 4.284 1.376.025 5.348.64 5.477.849.454.734-.254 1.24-1.574 1.123-4.368-.382-6.21-.622-6.424-.835-.247-.247.051-4.097.685-8.843.129-.973.363-2.929.52-4.345.298-2.714.424-2.976 1.36-2.83.29.047 1.653.187 3.026.312m-15.37.243a5.37 5.37 0 0 0-.135 1.105c-.004.343-.191 1.5-.417 2.572-.227 1.072-.366 2.02-.311 2.111.186.3 3.763.477 4.26.21 1.037-.554 1.635-4.25.85-5.25-.805-1.021-4.023-1.588-4.248-.748m48.977.74c.257.659.822 2.227 1.257 3.486.705 2.046 2.678 7.267 3.638 9.626.44 1.086.328 1.429-.51 1.551-.892.132-1.105-.1-1.892-2.058l-.685-1.702-.953.086c-.525.048-1.575.142-2.335.208l-1.381.122-.256 1.703c-.33 2.205-.61 2.67-1.509 2.502-1.044-.195-1.043-.16-.17-4.559.453-2.282 1.029-5.74 1.28-7.687.599-4.626.533-4.474 1.927-4.474h1.12l.469 1.196m-24.915-.078c.088.13.116.422.064.65-.051.23-.148 2.852-.215 5.828-.066 2.976-.167 5.994-.225 6.706l-.104 1.294 2.762.058 2.763.059.069.601c.04.343-.051.678-.208.778-.318.201-5.79.2-6.729-.001l-.624-.135.018-2.286c.04-5.127.517-13.718.77-13.883.318-.205 1.45.02 1.66.331m15.742-.207c.784.946-.01 1.361-2.73 1.424l-2.557.058-.066 1.457c-.037.801-.006 2.043.068 2.757l.136 1.301h2.23c2.296 0 2.731.139 2.731.867 0 .532-.646.798-1.934.798-.621 0-1.564.06-2.095.132l-.966.132v2.236c0 1.229.057 2.514.124 2.855l.124.62 2.457-.102c3.003-.123 3.54-.018 3.54.692 0 .376-.161.584-.573.746-.62.245-7.235.353-7.465.123-.075-.077-.148-3.724-.16-8.105l-.024-7.966 2.081-.115c4.047-.226 4.828-.212 5.079.09m7.654 2.253c-.064.262-.22 1.32-.346 2.35-.126 1.031-.319 2.5-.428 3.267-.337 2.353-.468 2.19 1.612 1.991.996-.096 1.84-.203 1.877-.24.06-.06-2.417-7.64-2.544-7.784-.03-.034-.107.153-.17.416" fill="#3b5373"/><path d="M177.36 82.829c-12.866 3.371-14.192 21.338-2 27.083 10.032 4.727 20.982-4.786 18.317-15.913-1.755-7.332-9.84-12.868-16.316-11.17m102.078 7.831c-.543 1.492-.962 1.918-2.398 2.437l-1.296.47 1.12.465c1.406.582 1.909 1.115 2.39 2.532l.381 1.121.397-1.102c.513-1.425 1.043-1.933 2.502-2.393l1.19-.376-1.332-.655c-1.358-.668-1.655-1.027-2.325-2.811l-.262-.698-.367 1.01m56.736 3.766c-.841 1.051-1.814 1.509-3.22 1.517l-1.113.007.729.654c1.22 1.096 1.454 1.588 1.456 3.07v1.346l1.045-1.029c1.038-1.022 1.055-1.029 2.593-1.107l1.546-.078-1.082-.995-1.084-.996-.104-1.607-.104-1.608-.662.826m-155.39.667c1.614.733 2.483 2.76 1.841 4.297-.96 2.294-3.199 3.185-5.32 2.114-4.134-2.086-.746-8.33 3.48-6.41m-42.288 5.347c-8.26 1.258-14.12 11.12-11.792 19.846 2.575 9.65 13.26 15.343 21.054 11.215 6.822-3.613 10.497-10.726 8.885-17.194-2.253-9.04-10.161-15.084-18.147-13.867m151.635 9.61c-2.03 2.284-2.347 2.432-5.246 2.432h-2.417l1.832 1.769c2.138 2.062 2.372 2.627 2.23 5.359-.108 2.07-.236 2.06 1.55.145 1.964-2.102 2.133-2.174 5.044-2.174h2.407l-1.457-1.375c-2.199-2.075-2.372-2.438-2.5-5.273l-.109-2.386-1.334 1.503m-83.688 2.447c-2.508 1.203-5.486 4.615-8.387 9.614l-.757 1.304.439 1.194c.241.655 1.047 2.597 1.79 4.314l1.612 3.725.259.602 1.829-1.747c8.26-7.89 11.792-15.401 8.565-18.21-1.956-1.701-3.103-1.872-5.35-.796m-34.09 3.247-1.316.212.126.76c.404 2.457-4.88 5.714-6.935 4.275-.617-.432-1.293.286-2.502 2.658-1.529 2.996-1.337 4.274.733 4.876 2.289.665 3.322.195 6.01-2.733 2.035-2.217 3.51-3.09 6.975-4.127 6.104-1.828 3.42-6.971-3.09-5.921m-31.874 1.264c2.55 1.289 2.581 5.304.05 6.516-3.644 1.743-7.087-2.778-4.425-5.81 1.052-1.199 2.831-1.485 4.375-.706m33.81 5.758c-2.205.767-3.073 1.23-2.944 1.568.984 2.565 4.276 6.15 5.646 6.15 2.815 0 3.148-2.306.87-6.035-1.535-2.513-1.386-2.444-3.571-1.683m-4.482 2.3c-.405.332-1.312 1.25-2.016 2.041l-1.279 1.44 1.236 1.89c2.054 3.138 3.125 3.803 4.774 2.96 1.908-.972 1.467-3.82-1.281-8.272-.504-.816-.509-.816-1.434-.06m109.585 43.43c-1.206.065-6.045.508-10.067.922a40.367 40.367 0 0 0-3.85.625 543.195 543.195 0 0 1-4.814 1.037c-3.654.77-9.082 2.515-12.591 4.048-5.42 2.367-8.519 3.846-11.03 5.264-3.071 1.733-8.117 4.966-8.118 5.201-.002.34-.668 4.255-1.052 6.184-.645 3.237-2.938 8.992-5.059 12.695-1.772 3.095-5.59 8.461-7.407 10.411-.749.805-1.987 2.35-2.753 3.434-4.01 5.684-12.985 14.569-15.596 15.439-.38.127.455 3.494 2.045 8.243 1.789 5.342 2.326 8.78 1.697 10.878-.571 1.904-3.553 4.038-5.59 4-5.714-.11-9.152-6.561-9.156-17.18l-.001-1.613-2.133-.003c-1.173 0-2.47-.058-2.88-.125l-.748-.124-1.736 2.363a673.405 673.405 0 0 1-2.23 3.022l-.493.658 2.878 2.185c9.507 7.218 19.054 16.311 25.275 24.074 3.195 3.988 11.114 15.58 12.805 18.742.842 1.577 1.057 1.841 1.413 1.738.684-.197 10.84-6.05 13.35-7.694 1.274-.833 3.24-2.05 4.37-2.702 1.13-.653 2.43-1.443 2.887-1.757.458-.314 2.144-1.364 3.747-2.333 1.602-.969 3.635-2.27 4.518-2.89a86.329 86.329 0 0 1 2.81-1.886c2.447-1.542 7.48-5.033 8.489-5.887.572-.485 2.445-1.932 4.162-3.219 5.027-3.762 5.018-3.755 11.996-9.77 4.369-3.765 14.222-15.27 15.89-18.555.204-.4.795-1.384 1.314-2.185 2.316-3.579 3.3-5.504 6.2-12.127 6.077-13.88 8.669-31.007 6.848-45.246-.172-1.336-.311-2.526-.311-2.646 0-.357-.708-.632-2.75-1.068a667.225 667.225 0 0 1-3.353-.724c-2.207-.486-7.831-1.104-11.276-1.24-1.717-.066-3.87-.152-4.786-.19a38.183 38.183 0 0 0-2.914 0m-121.959 1.16c-.896.172-6.243.243-8.117.107-.623-.046-.625-.043-.982 1.723-2.743 13.549-.825 22.477 4.83 22.477 3.966 0 6.307-8.925 5.694-21.715-.075-1.564-.193-2.832-.26-2.818l-1.165.225m79.086 6.395c-1.426.23-4.835 1.174-6.601 1.83l-1.462.54.153 1.164c.085.64.213 2.027.286 3.082l.132 1.918 1.769-1.236c.973-.68 2.378-1.582 3.122-2.002a92.84 92.84 0 0 0 2.393-1.403c.572-.35 2.206-1.211 3.63-1.913l2.589-1.274-1.028-.36c-1.213-.42-3.519-.582-4.983-.346m37.566 7.92c11.024 3.172 17.22 14.325 14.045 25.283-4.36 15.041-23.82 19.418-34.279 7.707-10.973-12.287-3.674-31.009 13.054-33.482 1.548-.23 5.65.052 7.18.492m-6.859.512c-.503.607-.184 1.26.615 1.26.603 0 .74-.083.796-.48.083-.574-.291-1.08-.796-1.08a.918.918 0 0 0-.615.3m8.642 1.691c-.631.633.041 1.722.896 1.45.663-.21.79-.953.238-1.4-.57-.461-.716-.467-1.134-.05m-16.976.922c-.595.595-.287 1.457.52 1.457.821 0 1.235-1.283.534-1.658-.537-.287-.572-.28-1.054.201m7.18.135c-11.07 2.301-16.844 13.62-11.983 23.493 6.77 13.752 26.02 12.032 30.679-2.74 3.52-11.158-7.266-23.13-18.696-20.753m16.587 4.485c-.564.564-.122 1.415.733 1.415.63 0 1.078-.876.688-1.346-.315-.38-1.072-.417-1.42-.069m-30.223 1.734c-.372.696.11 1.261.909 1.06.69-.172.942-.938.433-1.31-.573-.42-1.03-.334-1.342.25m33.76 6.175c-.606.607.156 1.787.985 1.524.8-.254.455-1.774-.402-1.774a.955.955 0 0 0-.582.25m-36.46 1.931c-.455.549.045 1.357.838 1.357.614 0 .637-.033.576-.78-.073-.882-.885-1.214-1.414-.577m-190.428 4.599c-.003.352.096 1.652.221 2.89.42 4.18-.091 5.42-3.72 9.021-2.146 2.13-2.156 2.145-1.363 1.984.439-.09 2.111-.166 3.716-.169 3.956-.008 4.737.355 7.9 3.68l2.21 2.321-.167-1.442c-.709-6.169.252-8.589 4.933-12.437l.937-.77-1.77.159c-6.219.557-8.17-.272-12.364-5.253l-.525-.624-.008.64m226.336 2.292c-.412.413-.35 1.104.125 1.403.39.243 1.428-.304 1.422-.75-.009-.753-1.02-1.18-1.547-.653m-34.453 1.853c-.305.368.217 1.354.717 1.354.36 0 .947-.563.947-.91 0-.705-1.185-1.021-1.664-.444m29.868 5.647c-.496.496-.314 1.179.38 1.421.709.249 1.27-.3 1.046-1.02-.243-.778-.872-.956-1.426-.401m-24.34 1.237c-.623.624-.166 1.436.734 1.302.727-.107.975-.69.512-1.2-.465-.513-.805-.541-1.246-.102m16.67 3.142c-.226.226-.158 1.007.111 1.276.738.738 1.871-.302 1.205-1.106-.262-.316-1.066-.42-1.316-.17m-8.871.68c-.29.541-.068 1.031.538 1.183.875.22 1.486-.719.869-1.336-.382-.382-1.167-.297-1.407.152m-139.378 3.969c-1.931 2.392-3.502 3.065-6.523 2.789l-1.56-.142 1.799 1.746c2.09 2.029 2.252 2.411 2.263 5.389l.009 1.977.536-.625c2.66-3.1 2.888-3.223 5.978-3.224l2.47-.001-1.654-1.613c-2.068-2.016-2.478-3.059-2.283-5.806.145-2.073.216-2.038-1.035-.49m69.957 10.036c-1.208.752-5.3 2.301-6.996 2.648-1.403.286-1.429.354-1.429 3.756 0 8.409 3.35 14.46 8.16 14.737 1.566.091 2.243-.174 1.148-.449-1.714-.43-3.301-3.003-3.4-5.509-.059-1.51-.05-1.546.158-.66 1.116 4.755 3.615 6.974 6.026 5.35 2.584-1.74 2.453-5.014-.56-14-.963-2.87-1.751-5.398-1.753-5.62-.008-.87-.283-.922-1.354-.253m-24.18 15.899c-.682.881-4.173 5.96-5.616 8.172-.551.844-2.092 3.185-3.425 5.203-3.73 5.64-6.447 9.854-6.38 9.89.614.332 3.55 3.058 7.465 6.934l4.906 4.856 5.404-5.469c5.463-5.527 13.344-13.146 15.066-14.564l.937-.772-1.25-1.275c-1.693-1.73-7.273-6.685-9.573-8.5a1819.61 1819.61 0 0 1-4.227-3.353c-2.71-2.159-2.546-2.103-3.307-1.122m24.912 26.522c-1.316 1.14-2.908 2.468-3.538 2.954a73.841 73.841 0 0 0-2.81 2.348 89.58 89.58 0 0 1-3.393 2.81 1096.34 1096.34 0 0 1-8.444 6.523c-2.834 2.163-2.7 1.801-1.274 3.473 2.319 2.716 6.641 8.454 7.941 10.54.521.835.985 1.519 1.032 1.519.173 0 8.965-4.22 9.966-4.784.573-.322 3.054-1.612 5.515-2.865 6.484-3.3 10.179-5.262 10.31-5.475.404-.655-11.724-18.775-12.765-19.072-.08-.023-1.223.89-2.54 2.029m-42.046-.534c-6.308 2.147-9.17 3.85-12.816 7.628-6.65 6.89-8.6 16.302-7.602 36.705l.132 2.705 2.29.546c10.692 2.547 14.529 3.05 20.233 2.653 9.743-.678 18.056-5.23 24.65-13.5.68-.855 1.65-2.4 3.165-5.05l.568-.99-.726-1.092a65.402 65.402 0 0 0-1.83-2.558l-3.217-4.265c-3.104-4.117-4.115-5.222-4.471-4.883-1.234 1.178-15.61 11.168-19.204 13.345-2.778 1.682-4.704 1.16-4.704-1.275 0-1.503 5.047-7.6 14.829-17.913 1.23-1.297 2.237-2.435 2.237-2.526 0-.206-7.206-7.163-9.372-9.048l-1.567-1.364-2.595.882m152.492 25.656c-.226 3.174-.693 3.982-3.285 5.683l-1.724 1.13 1.757.15c3.324.284 3.848.564 5.658 3.011l1.303 1.762.17-1.42c.457-3.827.744-4.342 3.402-6.086l1.543-1.013-1.725-.143c-3.4-.282-4.2-.722-5.821-3.205a65.144 65.144 0 0 0-1.09-1.641c-.033-.031-.117.766-.188 1.772m-214.817 7.822c-.505 1.324-1.313 2.102-2.641 2.542l-1.081.36.888.347c1.444.565 2.232 1.328 2.641 2.553l.367 1.099.466-1.059c.567-1.29 1.384-2.01 2.693-2.376l.99-.278-1.33-.641c-1.361-.657-1.645-1-2.333-2.827l-.275-.727-.385 1.007m52.966 48.01c-1.21.209-2.706 1.398-2.706 2.152 0 .139-.708 2.45-1.573 5.135-1.752 5.435-1.866 6.374-.903 7.407.61.653 2.24 1.505 3.154 1.647 4.405.686 5.062.269 6.088-3.867.736-2.968.79-2.845-1.544-3.537-2.181-.645-2.57-.616-2.476.188.053.453.254.61 1.208.945a30.073 30.073 0 0 1 1.196.433c.195.127-1.046 3.575-1.437 3.994-.888.951-3.863.267-4.5-1.035-.314-.64.087-2.464 1.299-5.912.395-1.123.907-2.7 1.14-3.506.543-1.888.996-2.385 2.18-2.385 2.37 0 3.452 1.196 2.923 3.23-.395 1.511-.403 1.466.317 1.764 1.117.462 1.877-.833 1.877-3.198 0-2.046-3.423-3.941-6.243-3.455m106.87.722c-3.805 1.136-3.748 1.046-2.81 4.475l1.282 4.683c.471 1.717 1.111 4.058 1.423 5.203l.566 2.081.87-.018c1.413-.03 1.443-.188.562-2.964-1.154-3.634-1.142-3.764.395-4.226.976-.293 1.297-.32 1.473-.122.124.14 1.101 1.284 2.17 2.544 2.533 2.982 2.972 3.232 4.11 2.338.41-.322.395-.343-2.22-3.177l-2.478-2.69.698-.772c1.038-1.15 1.089-1.856.308-4.268-1.17-3.613-2.47-4.245-6.35-3.087m3.49 1.673c.77.771 1.527 3.66 1.18 4.5-.34.823-3.8 2.314-4.226 1.822-.132-.153-1.775-5.9-1.706-5.968.768-.768 4.09-1.016 4.752-.354m-12.23.737c-.344.103-1.64.391-2.88.639s-2.376.572-2.524.72c-.281.282.083 2.574.817 5.137.17.597.415 1.787.545 2.646.263 1.748 1.533 7.345 1.744 7.688.21.337.65.28 3.99-.519 4.04-.963 3.823-.883 3.823-1.418 0-.897-.306-.93-2.87-.312-3.34.804-3.296.81-3.467-.393-.077-.543-.34-1.805-.584-2.804-.529-2.164-.734-1.9 1.929-2.49 2.09-.46 2.185-.505 2.248-1.054.097-.836-.318-.894-2.714-.384-2.492.531-2.292.68-2.842-2.102-.634-3.197-.7-2.99 1.068-3.383 2.895-.645 3.694-.933 3.694-1.327 0-.804-.693-1.03-1.977-.644m-86.266.326c-1.214.497-1.617 1.42-2.8 6.422-1.907 8.069-1.82 8.649 1.463 9.672 3.021.94 4.966.731 5.973-.645.64-.873 2.708-11.672 2.431-12.698-.509-1.892-4.947-3.62-7.067-2.751m4.321 2.086c1.147.854 1.13 1.169-.508 8.6-.949 4.309-1.495 4.87-4.046 4.162-2.096-.583-2.187-1.19-.924-6.208.51-2.021 1.034-4.227 1.166-4.902.43-2.192 2.514-2.99 4.312-1.652m7.66.046c-.16.259-1.473 7.164-1.886 9.91-.188 1.259-.485 3.08-.66 4.046-.35 1.929-.206 2.301.881 2.301.653 0 .84-.335 1.11-1.977.13-.801.39-2.185.577-3.076l.34-1.62 1.268.136c1.555.166 1.53.143 1.803 1.626.292 1.578 1.417 5.356 1.694 5.69.282.34 1.815.342 1.937.002.052-.143-.36-1.76-.915-3.59l-1.01-3.33.856-.417c1.263-.615 1.695-1.418 2-3.723.537-4.06-.168-4.857-5.084-5.75-2.588-.469-2.754-.482-2.911-.228m59.76.111c-2.381.641-3.26 2.094-2.92 4.832.307 2.476.735 2.854 4.437 3.923 3.42.986 3.584 1.126 3.855 3.3.236 1.88-.747 2.842-2.9 2.842-1.385 0-1.966-.59-2.196-2.23-.244-1.734-.937-2.25-2.067-1.534-.367.233.16 3.42.701 4.247 1.614 2.463 8.264 1.069 8.587-1.801.406-3.602-.907-5.318-4.816-6.298-3.048-.764-3.657-1.371-3.66-3.658-.005-2.52 4.296-3.132 4.677-.664.364 2.354.26 2.157 1.133 2.157 1.24 0 1.338-.293.761-2.275-.848-2.917-2.391-3.702-5.591-2.84m-46.748 1.564c-.174.107-.377 1.11-.557 2.744-.156 1.416-.39 3.372-.52 4.345-.633 4.746-.93 8.596-.684 8.843.213.213 2.056.453 6.424.835 1.32.117 2.028-.389 1.574-1.123-.129-.209-4.1-.824-5.477-.849-.447-.007-.5-1.781-.128-4.284l.237-1.59 1.064.122c3.055.35 3.874.22 3.874-.62 0-.638-.65-.917-2.146-.92a14.388 14.388 0 0 1-1.884-.135l-.804-.134.132-.957c.073-.526.191-1.78.264-2.785l.131-1.828 1.269.163c.698.09 1.925.163 2.726.163h1.457l.064-.659c.079-.808.077-.81-3.186-1.105-1.373-.125-2.735-.265-3.027-.311-.292-.046-.653-.007-.803.085m-8.4.46c1.225.377 1.56 1.069 1.397 2.875-.277 3.064-.69 3.45-3.448 3.231-2.24-.177-2.145-.035-1.641-2.42.226-1.072.413-2.23.417-2.572.016-1.64.75-1.89 3.275-1.114m42.952.02c-.096.259-.38 2.061-.632 4.007-.251 1.946-.827 5.405-1.28 7.687-.873 4.4-.874 4.364.17 4.559.898.169 1.179-.297 1.509-2.502l.256-1.703 1.38-.122c.761-.066 1.811-.16 2.336-.208l.953-.086.685 1.702c.787 1.958 1 2.19 1.892 2.058.838-.122.95-.465.51-1.551-.96-2.36-2.933-7.58-3.638-9.626-.435-1.259-1-2.827-1.257-3.486l-.469-1.196h-1.12c-.972 0-1.144.062-1.295.468m-23.69.32c-.253.164-.73 8.755-.77 13.882l-.018 2.286.624.135c.94.201 6.411.202 6.729 0 .157-.1.247-.434.208-.777l-.069-.601-2.763-.059-2.762-.058.104-1.294c.058-.712.159-3.73.225-6.706.067-2.976.164-5.598.215-5.827.168-.742-1.033-1.427-1.722-.982m12.322.034-2.08.115.022 7.966c.013 4.38.086 8.028.161 8.105.23.23 6.845.122 7.465-.123.412-.162.572-.37.572-.746 0-.71-.536-.815-3.539-.692l-2.457.101-.124-.619c-.067-.341-.124-1.626-.124-2.855v-2.236l.966-.132a18.69 18.69 0 0 1 2.095-.132c1.288 0 1.934-.266 1.934-.798 0-.728-.435-.867-2.73-.867h-2.231l-.136-1.3a22.365 22.365 0 0 1-.068-2.758l.066-1.457 2.557-.058c2.538-.059 2.559-.063 2.763-.599.435-1.143.092-1.205-5.112-.915m14.237 5.817c.702 2.105 1.248 3.858 1.211 3.895-.036.036-.881.143-1.877.239-2.08.2-1.949.362-1.612-1.99.11-.768.302-2.237.428-3.267.23-1.886.417-2.882.517-2.767.03.033.63 1.784 1.333 3.89" fill="#e3dcce"/><path d="M164.481 60.36c-4.023.702-7.158 3.803-8.49 8.402-.64 2.207-.892 1.9 1.981 2.402 1.308.23 2.572.47 2.81.538.36.102.471-.012.676-.695.33-1.103 1.626-2.526 2.981-3.278 4.474-2.477 10.184 2.519 8.351 7.308l-.405 1.056 1.892 1.182c1.04.65 2.093 1.328 2.34 1.506.437.315.46.291.904-.886 1.63-4.329 1.622-8.72-.019-12.089-1.647-3.378-8.482-6.237-13.021-5.446m-21.3 10.534c-11.067 1.11-22.614 5.93-30.994 12.934-2.272 1.899-2.355 1.996-1.874 2.193 1.93.79 5.188 2.433 5.188 2.617 0 .346-.201.283-1.981-.615-8.824-4.447-16.36-1.126-18.74 8.259-1.792 7.059 3.417 13.698 11.267 14.362 1.096.093 1.545.212 1.545.412 0 .771-5.59-.494-7.492-1.695-.454-.286-.887-.52-.964-.52-.27 0 .101 10.868.44 12.903 1.221 7.331 6.002 21.287 9.982 29.137 2.307 4.552 7.554 14.199 8.433 15.505.308.458.87 1.394 1.249 2.081.755 1.37 3.103 5.112 4.438 7.076.467.687 1.777 2.607 2.912 4.267 1.134 1.66 2.387 3.571 2.784 4.249.398.677 1.503 2.274 2.456 3.55.953 1.276 2.13 2.969 2.613 3.764.484.794 1.273 1.913 1.753 2.485a29.022 29.022 0 0 1 1.57 2.081c.715 1.066 4.952 6.837 6.703 9.13.537.702 2.03 2.821 3.318 4.71 14.857 21.788 28.226 30.65 41.039 27.206 5.902-1.587 14.196-7.535 19.12-13.711 3.148-3.95 6.193-7.7 7.152-8.812 14.92-17.289 17.464-36.69 6.379-48.673-3.546-3.835-5.203-5.706-6.102-6.895-1.785-2.362-5.63-8.097-6.481-9.667-.468-.864-1.016-1.81-1.215-2.102-1.184-1.72-5.691-10.99-7.892-16.224a326.123 326.123 0 0 0-1.83-4.266c-.453-1.03-1.388-3.465-2.077-5.411-.689-1.946-1.595-4.381-2.013-5.411-.663-1.633-2.818-8.344-2.818-8.776 0-.085-.398.23-.885.7-6.233 6.027-15.275 5.206-20.667-1.879-6.717-8.824-2.13-21.766 8.411-23.736l1.324-.247-1.38-1.289c-2.742-2.566-7.053-4.91-12.818-6.968-5.842-2.086-15.818-3.33-21.853-2.724m-32.226 22.239c2.25.708 2.235.627.692 3.74-1.434 2.895-2.335 5.648-2.534 7.755-.174 1.83-.312 1.955-1.722 1.584-6.011-1.584-7.324-9.039-2.192-12.44 1.903-1.26 3.294-1.416 5.756-.64m34.26 7.436c13.644 5.217 16.608 21.79 5.337 29.834-13.97 9.968-31.361-7.542-22.62-22.774 3.81-6.637 10.858-9.516 17.282-7.06m32.243 15.06c2.508 1.55 2.53 4.377.045 5.888l-.594.362 1.273 1.962c1.514 2.335 1.837 3.05 1.837 4.06 0 2.625-3.065 3.973-5.245 2.31l-.907-.693.19 1.277c.324 2.16-.652 3.437-2.624 3.437-1.372 0-2.401-.85-4.026-3.33-1.283-1.958-1.378-2.053-1.875-1.863-.827.314-3.35.241-4.043-.117-2.01-1.04-1.66-3.88.916-7.45.645-.893 1.173-1.835 1.173-2.092 0-1.945 3.298-4.27 5.681-4.004.596.065 1.223.134 1.395.15.172.017.827-.122 1.457-.308 1.815-.536 4.099-.36 5.347.411m-17.21 53.346c0 .106-.175.249-.39.317-.363.115-.389.4-.386 4.228.009 14.835-1.9 20.86-6.612 20.86-5.73 0-7.819-9.808-5-23.48l.272-1.314-.55-.22c-.97-.387-.106-.435 3.28-.184 2.956.22 7.764.032 8.12-.316.176-.173 1.266-.08 1.266.109" fill="#4bd3fb"/><path d="M191.36 8.008c-.114.04-2.268.178-4.786.306-6.15.313-14.166 1.235-18.939 2.18-.916.18-2.93.567-4.474.86-3.317.626-8.046 1.638-10.094 2.158-7.048 1.792-15.72 4.483-19.173 5.951a81.84 81.84 0 0 1-3.93 1.54 72.543 72.543 0 0 0-3.721 1.458 481.728 481.728 0 0 1-3.874 1.64c-3.021 1.261-13.943 6.683-16.754 8.317-4.74 2.755-9.577 5.73-10.718 6.59a24.43 24.43 0 0 1-2.185 1.454c-1.02.579-3.484 2.363-8.184 5.926a226.154 226.154 0 0 1-3.642 2.708c-2.206 1.583-5.57 4.393-7.738 6.464-1.144 1.093-2.83 2.61-3.746 3.371-5.536 4.599-17.977 18.383-23.05 25.54a60.695 60.695 0 0 1-1.87 2.497c-1.668 2.05-8.51 12.548-11.136 17.086-2.063 3.566-8.922 17.345-10.411 20.916-.572 1.374-1.43 3.425-1.909 4.559-.476 1.133-1.274 3.287-1.772 4.787-.498 1.498-1.057 3.079-1.242 3.51-1.007 2.346-4.48 14.807-5.523 19.819a306.689 306.689 0 0 1-1.07 4.955c-.232 1.01-.652 3.398-.933 5.307-.28 1.91-.553 3.614-.606 3.786-.267.86-.971 6.399-1.147 9.009a156.556 156.556 0 0 1-.41 4.935c-.596 5.58-.604 24.557-.012 29.45.11.915.392 3.63.623 6.035.492 5.099 1.086 9.276 1.777 12.487.27 1.26.733 3.651 1.026 5.316.292 1.664.666 3.49.83 4.059.163.567.406 1.593.538 2.28.343 1.768 1.799 7.165 2.499 9.261.325.973 1.076 3.314 1.669 5.203 1.57 4.994 2.284 7.06 2.807 8.117.253.515.952 2.248 1.55 3.85.598 1.603 1.37 3.474 1.714 4.158a41.655 41.655 0 0 1 1.21 2.706c.795 1.992 6.182 12.794 7.215 14.468.459.744 1.495 2.582 2.301 4.084.807 1.501 1.922 3.406 2.478 4.233a714.46 714.46 0 0 1 3.637 5.52c10.624 16.255 28.004 34.783 42.849 45.68 1.774 1.304 4.537 3.348 6.14 4.545 3.582 2.674 8.023 5.611 11.28 7.46 1.35.765 3.954 2.258 5.785 3.317 6.983 4.034 24.275 11.908 28.721 13.078.687.18 2.28.71 3.538 1.176 6.148 2.277 15.506 4.873 21.333 5.918 1.545.278 4.167.782 5.827 1.122 6.01 1.23 17.603 2.498 27.005 2.953 9.055.438 27.925-.611 35.743-1.988.916-.161 2.134-.35 2.706-.42 2.763-.336 7.183-1.22 14.568-2.913 9.723-2.228 21.54-6.267 32.571-11.134 3.222-1.422 12.835-6.184 13.79-6.832.485-.329 2.147-1.291 3.692-2.138 2.43-1.332 6.257-3.682 10.565-6.487 11.377-7.41 27.81-21.44 35.43-30.249a170.47 170.47 0 0 1 3.03-3.408c.694-.749 1.582-1.783 1.972-2.298.39-.516 1.602-2.004 2.692-3.308 1.092-1.304 2.546-3.143 3.233-4.086a382.73 382.73 0 0 1 3.385-4.535c2.138-2.823 8.207-12.074 9.718-14.815.442-.801 1.338-2.347 1.99-3.434 1.414-2.354 8.505-16.705 8.845-17.898.082-.286.503-1.364.937-2.394 2.492-5.917 6.728-18.119 7.784-22.43.303-1.233.648-2.497.769-2.81.33-.86 1.627-6.563 1.974-8.683.167-1.03.437-2.342.6-2.914.691-2.452 1.975-11.151 2.5-16.962.183-2.003.37-3.783.418-3.954.118-.422.584-9.11.642-11.967.156-7.647-.948-27.006-1.68-29.45-.05-.171-.288-1.904-.526-3.85-.24-1.945-.608-4.38-.819-5.41a730.57 730.57 0 0 0-2.32-10.615c-1.684-7.368-6.12-21.045-9.047-27.888a878.743 878.743 0 0 1-2.21-5.203c-4.186-10.044-16.926-31.439-22.927-38.502a60.648 60.648 0 0 1-1.896-2.394c-.556-.744-1.368-1.727-1.801-2.185-.435-.458-1.333-1.547-1.997-2.422-5.968-7.857-22.87-23.751-32.598-30.654-5.935-4.209-7.05-4.99-9.193-6.433-2.195-1.477-6.065-3.798-10.708-6.42-1.196-.676-2.292-1.326-2.437-1.447-.523-.434-12.103-6.091-14.742-7.203-1.49-.626-3.08-1.329-3.536-1.562-2.257-1.15-19.31-6.98-22.7-7.76a97.63 97.63 0 0 1-3.214-.818c-4.404-1.21-14.117-3.28-17.587-3.749a324.452 324.452 0 0 1-4.474-.64c-2.685-.41-5.823-.7-14.465-1.34-2.624-.194-19.473-.28-19.98-.103m22.894 3.662c4.595.37 9.85.974 16.967 1.951 1.204.165 2.984.49 3.955.723.97.232 1.99.424 2.264.425.538.001 5.403 1.133 8.969 2.086 1.202.322 2.56.642 3.018.713 2.15.332 16.757 5.197 21.124 7.036.973.41 2.846 1.195 4.162 1.746 3.373 1.41 13.087 6.28 17.899 8.975 5.613 3.143 15.523 9.565 20.22 13.104.876.661 2.23 1.666 3.01 2.236.78.569 2.123 1.652 2.986 2.406.862.755 2.023 1.715 2.578 2.134 3.587 2.701 16.713 15.603 20.584 20.232.862 1.03 2.524 2.948 3.693 4.262 1.17 1.315 2.412 2.813 2.76 3.33.348.518 1.164 1.597 1.813 2.398a45.85 45.85 0 0 1 2.084 2.81c.497.744 1.34 1.914 1.876 2.601 2.857 3.663 9.416 14.212 11.906 19.147.75 1.488 1.796 3.455 2.324 4.37.527.916.96 1.743.961 1.837.001.151.733 1.733 4.16 8.986.432.916.905 2.04 1.05 2.497.145.458.755 2.05 1.356 3.539 1.364 3.375 4.267 11.687 5.072 14.52 2.275 8.001 2.629 9.431 3.9 15.761.173.859.535 2.544.806 3.746.52 2.308.794 4.123 1.674 11.03 2.012 15.787 1.923 33.753-.244 49.846-.71 5.267-3.185 17.765-4.039 20.395a31.44 31.44 0 0 0-.725 2.81c-1.618 7.88-10.098 29.803-14.24 36.81a30.263 30.263 0 0 0-1.241 2.399c-.32.706-1.112 2.183-1.76 3.285-.648 1.101-1.179 2.09-1.179 2.2 0 .108-.495.937-1.1 1.84a102.787 102.787 0 0 0-2.224 3.52c-4.07 6.783-11.3 16.807-15.901 22.047a202.866 202.866 0 0 0-2.97 3.467c-2.894 3.485-11.031 11.689-15.053 15.177-.856.742-2.394 2.127-3.417 3.078-2.12 1.97-7.244 6.113-9.272 7.494a38.638 38.638 0 0 0-2.301 1.702c-1.494 1.23-5.928 4.328-7.666 5.355-.878.517-1.923 1.192-2.324 1.5-.978.753-3.206 2.132-5.39 3.335a124.31 124.31 0 0 0-3.733 2.17c-5.786 3.516-19.37 9.837-27.164 12.64-3.086 1.109-14.423 4.65-16.472 5.145-.915.22-2.554.638-3.642.927-2.815.748-8.74 2.04-10.822 2.358-.973.15-2.378.415-3.122.591-3.906.923-16.59 2.165-24.558 2.404-6.696.201-19.28-.035-22.477-.422a167.16 167.16 0 0 0-3.914-.411c-1.18-.109-2.678-.289-3.33-.4a41.374 41.374 0 0 0-2.642-.338c-2.242-.207-4.988-.664-9.99-1.661-8.412-1.677-11.639-2.38-13.736-2.997-5.206-1.528-6.48-1.918-10.094-3.095-4.81-1.566-7.433-2.525-10.093-3.69a415.916 415.916 0 0 0-5.932-2.507c-2.117-.878-5.114-2.233-6.66-3.013a151.473 151.473 0 0 0-4.407-2.14c-.878-.398-2.002-1.002-2.497-1.34-.495-.34-1.696-.999-2.67-1.466-2.622-1.258-8.752-5.01-13.007-7.96-2.06-1.43-4.227-2.892-4.814-3.254-1.724-1.058-5.06-3.626-9.635-7.416-.85-.704-1.927-1.553-2.393-1.885-.466-.331-1.505-1.222-2.308-1.979a245.073 245.073 0 0 0-3.954-3.6c-4.109-3.661-13.883-13.733-15.618-16.091a26.86 26.86 0 0 0-1.747-2.081c-1.42-1.505-5.12-6.097-6.511-8.08-.657-.936-2.12-3.013-3.253-4.616-2.48-3.51-6.076-8.99-7.305-11.134a113.43 113.43 0 0 0-1.67-2.81c-1.302-2.098-9.576-18.623-9.576-19.128 0-.101-.527-1.411-1.172-2.91-2.496-5.802-6.742-17.982-7.697-22.083a175.79 175.79 0 0 0-1.153-4.475c-.447-1.66-1.233-5.3-1.747-8.089-.513-2.787-1.074-5.644-1.245-6.347-.171-.703-.492-2.87-.711-4.815-.22-1.946-.545-4.803-.721-6.348-.363-3.175-.65-6.526-.964-11.238-.25-3.742-.095-17.497.235-20.916.12-1.26.3-3.32.397-4.58a157.69 157.69 0 0 1 2.838-20.187l1.224-5.931c.73-3.535 1.846-7.81 2.703-10.34a92.831 92.831 0 0 0 1.352-4.434 62.269 62.269 0 0 1 1.363-4.275 740.288 740.288 0 0 0 1.658-4.573c1.277-3.558 4.658-11.577 5.894-13.984a165.215 165.215 0 0 0 2.202-4.5c.634-1.353 1.614-3.226 2.178-4.163.564-.936 1.721-3.014 2.572-4.617 1.7-3.203 1.956-3.621 5.74-9.365 9.903-15.034 21.86-28.88 33.43-38.71a229.732 229.732 0 0 0 4.074-3.539c4.666-4.226 19.172-14.448 25.387-17.89a680.739 680.739 0 0 0 4.475-2.507c6.22-3.519 14.797-7.563 21.543-10.154a275.552 275.552 0 0 0 4.472-1.77c1.145-.467 2.877-1.081 3.85-1.363a431.49 431.49 0 0 0 5.868-1.784c5.854-1.816 15.016-4.107 19.627-4.908 5.162-.897 11.59-1.926 12.904-2.066.572-.06 2.211-.245 3.642-.41 2.401-.278 10.261-.694 15.713-.832 4.696-.12 12.65.115 17.69.521m-51.468 46.587c-4.158 1.13-7.37 4.326-9.11 9.063l-.46 1.25-6.214.005c-5.41.006-6.528.064-8.632.447-9.862 1.796-21.122 7.03-27.756 12.902l-2.076 1.838-2.398.014c-11.962.066-18.944 15.447-10.964 24.155l1.261 1.376-.06 2.762c-.123 5.818 1.058 13.725 3.015 20.185 2.97 9.791 10.506 26.077 16.327 35.277a79.091 79.091 0 0 1 1.848 3.1c.474.847 1.123 1.877 1.443 2.29.32.412 1.209 1.816 1.975 3.12.766 1.303 2.265 3.597 3.333 5.099 1.068 1.5 2.084 2.962 2.259 3.248 1.45 2.375 3.507 5.389 5.466 8.013 1.282 1.717 2.83 3.871 3.44 4.787.61.916 1.92 2.742 2.913 4.058.992 1.317 2.12 2.862 2.506 3.434.386.573 1.743 2.446 3.016 4.163a338.453 338.453 0 0 1 4.355 6.035c1.123 1.603 2.669 3.663 3.436 4.579.766.915 1.847 2.227 2.401 2.913 6.085 7.535 13.975 13.696 20.653 16.128 1.498.545 1.461.482.78 1.373l-.52.684-1.3-.589c-.716-.324-2.378-.887-3.694-1.252a143.932 143.932 0 0 1-3.643-1.058c-10.565-3.333-24.254 1.257-33.443 11.212-3.975 4.307-10.515 14.542-10.896 17.05-.465 3.074 2.386 4.14 6.605 2.47 8.032-3.178 17.23-3.058 24.05.311 2.465 1.218 2.408 1.071 1.187 3.1-.517.859-1.101 1.898-1.297 2.31-.293.614-.583.835-1.607 1.224-8.937 3.403-15.767 10.437-17.884 18.423-1.883 7.094-2.059 9.199-1.862 22.236.14 9.218.147 9.334.579 9.516 1.663.701 10.32 2.66 14.173 3.208 4.863.691 13.542.702 14.646.02.103-.064 1.345-.405 2.76-.759 8.02-2.005 18.13-9.802 21.647-16.695.374-.733 3.627-2.645 4.498-2.645.242 0 1.422 3.512 2.027 6.035 1.444 6.023-.02 14.672-3.526 20.812-1.872 3.281-1.683 5.132.636 6.255 1.55.75 2.5.484 9.193-2.576 10.64-4.865 18.44-11.596 21.888-18.885.322-.68.678-1.355.793-1.497.56-.695 1.65-4.476 2.355-8.16.773-4.042.451-11.198-.645-14.375a31.565 31.565 0 0 1-.758-2.683c-.386-1.693-.544-1.48 2.219-2.98a80.054 80.054 0 0 0 3.642-2.137c1.03-.649 3.454-2.093 5.385-3.21 3.429-1.984 4.717-2.782 9.784-6.065a410.155 410.155 0 0 1 5.723-3.613c1.788-1.106 4.14-2.674 5.227-3.481a84.615 84.615 0 0 1 3.814-2.654c4.532-2.923 16-12.107 20.319-16.27 7.601-7.331 11.397-11.972 17.15-20.965 1.266-1.979 5.92-11.268 6.38-12.731.143-.458.623-1.75 1.066-2.87.444-1.12.984-2.665 1.2-3.433.216-.77.78-2.662 1.251-4.207.472-1.546.993-3.56 1.156-4.475.164-.916.573-2.976.907-4.579.336-1.602.673-3.803.749-4.89a88.14 88.14 0 0 1 .454-4.371c.69-5.219.134-17.864-.898-20.443-.434-1.082-1.232-1.494-4.12-2.126a546.296 546.296 0 0 1-4.292-.955c-.986-.226-2.173-.41-2.635-.41-.462 0-1.574-.142-2.471-.317-12.25-2.38-35.25.892-48.21 6.857-2.316 1.067-2.491 1.116-3.121.86-1.821-.739-7.78-.35-11.308.74-1.596.493-1.548.524-2.157-1.376-1.067-3.32-2.785-5.907-7-10.543-3.28-3.61-3.806-4.248-5.44-6.62a136.386 136.386 0 0 0-2.456-3.44c-1.158-1.551-3.354-5.182-4.44-7.344a44.114 44.114 0 0 0-1.517-2.706c-.8-1.298-2.67-5.084-3.725-7.538l-.454-1.053 2.476-2.542c8.767-9 11.266-16.115 7.09-20.17-4.011-3.892-9.399-2.137-14.4 4.693-1.657 2.263-1.623 2.239-1.92 1.33-.12-.372-1.026-2.942-2.011-5.712l-1.792-5.036.746-1.271c5.858-9.995-.605-23.588-11.928-25.09-.649-.086-1.26-.34-1.718-.714l-.712-.58.571-1.842c1.41-4.55 1.133-9.243-.76-12.907-2.182-4.217-11.227-7.564-16.543-6.12m7.786 2.553c7.333 2.168 10.073 8.389 7.26 16.48-.696 2.003-.605 1.99-3.04.423-2.715-1.748-2.539-1.55-2.167-2.44 1.518-3.633-1.548-8.057-5.584-8.057-2.477 0-5.169 1.973-5.644 4.138l-.123.56-2.334-.473c-1.284-.26-2.592-.474-2.908-.475-.731-.004-.734-.299-.028-2.543 2.125-6.744 7.681-9.648 14.568-7.613m-15.38 10.445c9.537 1.37 17.973 4.838 22.84 9.385.796.744 1.377 1.353 1.291 1.353-.085 0-.877.149-1.758.33-12.581 2.594-15.137 20.168-3.96 27.223 5.343 3.372 11.307 2.757 16.39-1.69l1.036-.905.751 2.454a100.494 100.494 0 0 0 1.688 4.95 446.712 446.712 0 0 1 2.294 6.335c.746 2.11 1.73 4.686 2.187 5.723a343.755 343.755 0 0 1 1.836 4.28c5.942 14.134 12.593 25.196 19.772 32.883 4.64 4.967 6.046 7.06 7.484 11.135 4.102 11.622-.226 25.76-12.366 40.393-1.951 2.35-3.093 3.76-6.281 7.756-1.799 2.251-6.395 6.648-9.342 8.934-16.139 12.518-33.14 5.23-51.362-22.015-1.11-1.66-2.603-3.777-3.316-4.707-1.918-2.494-5.611-7.523-6.401-8.717a27.924 27.924 0 0 0-1.56-2.08c-.479-.573-1.406-1.874-2.06-2.89-.655-1.017-1.97-2.89-2.92-4.163-.952-1.273-1.895-2.641-2.098-3.042-.316-.625-1.965-3.098-5.78-8.668-.844-1.233-2.36-3.655-5.325-8.502-1.348-2.205-2.646-4.55-6.218-11.238-7.572-14.177-12.304-28.364-12.95-38.815-.24-3.887-.272-6.726-.087-7.654l.127-.632 1.204.707c1.163.681 3.176 1.342 4.05 1.33.233-.004-.559-.393-1.76-.865-7.941-3.118-10.377-9.283-6.684-16.924 3.373-6.982 9.954-8.843 17.636-4.987.958.48 1.743.786 1.743.68 0-.162-2.413-1.364-5.052-2.517l-.577-.252 2.27-1.916c3.524-2.973 4.962-3.918 10.123-6.663 10.485-5.574 21.835-7.632 33.136-6.009m28.154 11.787c11.301 3.771 14.443 16.658 6.012 24.654-10.525 9.982-27.077-2.776-21.493-16.567 2.643-6.526 9.47-10.093 15.481-8.087m-77.212 10.244c-6.1 2.931-4.862 11.94 1.78 12.967l.845.13.24-1.785c.307-2.303 1.433-5.653 2.783-8.28 1.24-2.412 1.244-2.392-.843-3.07-1.759-.57-3.568-.556-4.805.038m71.254 2.01c-3.222 1.965-2.039 6.528 1.693 6.528 3.637 0 5.004-4.426 1.994-6.454-.917-.618-2.735-.655-3.687-.074M138.81 99.83c-13.916 2.406-17.776 21.575-6.082 30.198 10.346 7.629 24.605.292 24.605-12.66 0-9.805-9.767-19.052-18.523-17.538m6.068 1.09c11.492 3.696 15.992 18.36 8.132 26.5-5.452 5.649-10.588 6.927-16.847 4.192-3.019-1.318-6.818-4.939-8.254-7.864-6.127-12.484 4.535-26.827 16.97-22.827m-39.576 10c.757.243 2.29.243 2.29 0 0-.12-.594-.199-1.406-.187-1.02.015-1.262.067-.884.188m105.727 1.7c4.017 2.682 2.264 8.04-5.438 16.614-1.689 1.882-4.088 4.073-4.265 3.896-.165-.165-3.295-7.406-3.721-8.607l-.38-1.07.685-1.22c4.773-8.502 9.546-12 13.12-9.614m-39.338 2.794c-.748.243-1.09.254-1.703.061-2.38-.75-6.413 1.87-6.413 4.167 0 .228-.472 1.037-1.047 1.797-3.971 5.246-2.43 8.92 3.138 7.484.486-.125.617.006 1.595 1.606 3.248 5.316 8.103 4.671 6.515-.866l-.205-.714.777.756c2.37 2.303 5.457 1.205 5.46-1.943 0-1.083-.1-1.32-1.494-3.523l-1.494-2.36.505-.325c4.715-3.034.148-8.01-5.634-6.14m4.738.403c3.748 1.112 2.993 4.896-1.2 6.02-2.661.714-4.676 1.83-6.095 3.376-3.287 3.583-4.318 4.093-6.85 3.39-2.251-.626-1.905-4.14.705-7.135l.69-.792.68.343c2.173 1.094 6.88-1.79 6.66-4.08l-.099-1.016.75-.122c.413-.066.89-.15 1.062-.187.863-.182 2.748-.08 3.697.203m-39.411 1.229c-1.93.84-2.36 3.789-.804 5.51 2.919 3.23 7.706-.25 5.678-4.127-.807-1.542-3.048-2.178-4.874-1.383m42.093 9.436c.876 1.773.463 3.024-1.254 3.801-1.827.828-3.585-.751-6.655-5.98-.192-.328.325-.594 2.987-1.538l2.185-.775 1.098 1.698c.604.933 1.341 2.19 1.639 2.794m-6.641.833c1.712 3.425 1.767 5.136.197 6.093-1.593.971-3.188-.024-5.147-3.207l-1.017-1.653 1.051-1.214a29.243 29.243 0 0 1 2.116-2.17c1.268-1.141 1.082-1.284 2.8 2.151m120.16 41.678c3.768.445 4.528.573 8.096 1.359 3.575.786 3.683.832 3.827 1.61 2.065 11.164.425 28.507-3.853 40.73-2.376 6.793-5.678 14.067-8.011 17.65a71.555 71.555 0 0 0-1.927 3.144c-2.576 4.543-11.188 14.649-16.303 19.13-5.17 4.528-7.365 6.321-11.883 9.708-1.925 1.443-4.003 3.033-4.62 3.535-1.333 1.086-6.718 4.778-9.141 6.268-.946.582-2.086 1.349-2.533 1.704-.758.605-4.98 3.257-8.663 5.442-.884.525-3.225 1.973-5.203 3.218-3.934 2.478-12.021 7.153-15.145 8.756a138.63 138.63 0 0 0-4.579 2.505c-5.398 3.092-19.061 10.113-25.741 13.226l-1.704.793-.825-1.388c-1.078-1.815-5.664-7.94-7.786-10.4-.916-1.063-1.632-1.96-1.589-1.992a829.34 829.34 0 0 0 7.394-5.702l4.162-3.257a75.43 75.43 0 0 0 3.195-2.65 87.028 87.028 0 0 1 2.843-2.411c2.154-1.735 6.086-5.069 6.96-5.9 1.55-1.476 2.286-5.311 1.353-7.06-1.887-3.538-4.94-4.984-8.483-4.018-1.621.44-5.398 3.876-17.97 16.34l-6.66 6.602-4.156-4.103c-2.286-2.256-5.049-4.888-6.14-5.849-1.09-.961-1.972-1.85-1.959-1.977.03-.292 3.969-6.448 5.842-9.13a113.67 113.67 0 0 0 2.771-4.21c1.97-3.169 9.567-14.121 13.63-19.648l2.288-3.111 3.093.035 3.093.037-.113 1.04c-.338 3.136.81 10.048 2.133 12.84 1.925 4.057 6.296 6.088 9.175 4.26.63-.4 1.42-.899 1.76-1.109 2.307-1.437 2.238-5.54-.217-12.896-1.312-3.93-2.163-7.04-2.166-7.914 0-.316.29-.617.988-1.022 3.498-2.029 10.797-9.387 14.523-14.64a42.011 42.011 0 0 1 2.699-3.344c3.903-4.268 8.47-11.526 10.41-16.55.532-1.374 1.185-3.06 1.453-3.746.48-1.227 1.769-7.69 1.769-8.862 0-.397.158-.695.468-.886.258-.157 1.639-1.038 3.07-1.957 5.034-3.234 7.66-4.6 15.192-7.902 1.431-.627 3.351-1.376 4.267-1.664.916-.289 2.414-.792 3.33-1.12 1.884-.673 3.12-.997 6.672-1.746a504.41 504.41 0 0 0 4.358-.943c1.03-.229 2.997-.513 4.37-.63a336.334 336.334 0 0 0 5.308-.51c3.78-.397 12.18-.24 16.877.315m-134.674.13c-1.734.293-8.58.25-10.041-.063-.356-.076-.573-.034-.573.11 0 .129.188.233.417.233.497 0 .494-.05.112 2.006-2.184 11.747-1.146 20.357 2.694 22.332 5.951 3.062 9.038-4.186 8.813-20.695-.046-3.39-.017-3.752.305-3.814.336-.064.528-.48.199-.43a713.75 713.75 0 0 0-1.926.322m.905 1.996c1.008 12.947-1.567 22.85-5.941 22.839-5.536-.013-7.431-9.725-4.533-23.237l.228-1.064 3.475.094c1.91.052 4.035.007 4.722-.102a35.584 35.584 0 0 1 1.582-.222c.271-.02.359.295.467 1.692m82.297 5.052c1.614.48 1.527.637-1.03 1.863-3.014 1.443-5.483 2.867-8.537 4.923-2.902 1.952-2.664 1.913-2.668.44-.003-.657-.142-2.035-.31-3.059-.359-2.188-.572-1.928 2.394-2.92 4.483-1.501 7.888-1.92 10.151-1.247m-44.627 58.945c.068.43.788 2.747 1.6 5.15 3.065 9.092 3.293 12.296 1.02 14.348-2.21 1.997-5.406-.087-6.203-4.045-.127-.63-.269-1.332-.313-1.561-.045-.229-.093.02-.107.554-.068 2.757 1.696 5.576 3.882 6.203l.57.163-.625.25c-.796.32-2.58.114-3.895-.448-3.402-1.454-5.778-7.435-5.78-14.554-.003-3.386-.008-3.373 1.41-3.59 1.23-.188 5.998-2.008 7.016-2.678 1.112-.733 1.278-.708 1.425.208m-34.988 4.423c2.643.219 5.3.737 7.444 1.45 1.87.621 6.087 2.662 6.002 2.903-.083.232-2.24 3.349-4.803 6.94-2.65 3.709-7.143 10.295-8.605 12.611a136.359 136.359 0 0 1-2.511 3.809l-1.243 1.802-1.236-.776c-8.616-5.413-18.813-5.98-29.811-1.654-3.411 1.343-3.01-.318 1.994-8.25 7.565-11.996 17.96-18.919 28.558-19.02.973-.01 2.868.074 4.211.185m34.716 24.168c1.84.552 3.957 2.824 4.232 4.542.51 3.185-.969 5.41-6.321 9.515a72.234 72.234 0 0 0-3.434 2.876c-3.12 2.797-11.897 9.73-15.535 12.273-.99.692-3.232 2.334-4.984 3.65-8.78 6.597-16.7 11.736-17.9 11.617-1.815-.18-1.763-1.388.157-3.666a832.73 832.73 0 0 0 4.087-4.926c1.506-1.828 3.63-4.263 4.723-5.412a271.86 271.86 0 0 0 3.856-4.156c2.539-2.807 15.726-16.013 19.453-19.478 1.658-1.542 3.532-3.318 4.164-3.948 2.97-2.954 4.855-3.68 7.502-2.887m-41.026 9.788c-.164.308-.292.389-.348.22-.092-.275.353-.96.517-.796.05.05-.026.31-.169.576m2.896 3.854c.879.764 3.373 3.106 5.545 5.205l3.947 3.816-1.68 1.715a80.911 80.911 0 0 0-3.103 3.38c-.783.915-2.522 2.835-3.866 4.266-3.52 3.747-7.707 8.858-8.493 10.367-.519.993.446 2.793 1.638 3.054.86.19 5.574-2.578 10.73-6.3.458-.33 2.519-1.8 4.579-3.269 2.06-1.468 4.477-3.223 5.37-3.9 1.381-1.05 1.672-1.193 1.949-.964.64.531 6.718 8.336 8.67 11.133l1.18 1.69-1.308 2.264c-5.001 8.649-13.461 15.02-22.324 16.808-6.813 1.376-12.381.99-23.604-1.632a473.537 473.537 0 0 0-4.09-.947c-.044 0-.177-12.315-.179-16.441-.006-16.209 6.43-25.952 20.288-30.715 3.266-1.122 2.877-1.16 4.751.47m60.346 15.728c2.26 6.558 2.54 16.137.63 21.578-2.407 6.853-8.084 14.134-13.413 17.202a59.342 59.342 0 0 0-2.47 1.547c-3.181 2.104-11.64 6.051-13.097 6.11-.99.042-.9-.498.571-3.48 5.015-10.155 5.325-20.675.851-28.83-.4-.729-.7-1.34-.665-1.36a1252.5 1252.5 0 0 1 4.328-2.19c2.347-1.187 4.897-2.522 5.668-2.967a37.56 37.56 0 0 1 2.81-1.44c.774-.346 3.421-1.739 5.882-3.091 9.393-5.165 8.314-4.792 8.905-3.079" fill="#070707"/><path d="M153.712 239.66c-10.852 1.688-20.615 10.045-28.084 24.044-1.78 3.334-1.527 3.976 1.153 2.922 10.998-4.325 21.195-3.76 29.811 1.654l1.236.776 1.243-1.802c.685-.992 1.814-2.706 2.51-3.809 1.463-2.316 5.956-8.902 8.606-12.612 2.563-3.59 4.72-6.707 4.803-6.939.085-.241-4.132-2.282-6.002-2.903-4.394-1.461-10.83-2.022-15.276-1.33m20.624 6.175a253.035 253.035 0 0 0-2.084 3.056l-.752 1.13.565.345c.311.19 1.539 1.132 2.728 2.095 1.19.963 2.91 2.336 3.82 3.05 2.221 1.74 6.033 5.106 8.599 7.59l2.095 2.027.908-.925c1.556-1.586 5.109-2.031 7.34-.921 2.807 1.396-11.271-11.474-18.82-17.206-3.408-2.586-2.799-2.553-4.4-.24m18.291 17.87c-.88.206-2.049 1.08-3.868 2.89-.632.629-2.506 2.405-4.164 3.947-3.727 3.465-16.914 16.67-19.453 19.478a271.859 271.859 0 0 1-3.856 4.156c-1.092 1.15-3.217 3.584-4.723 5.412a793.192 793.192 0 0 1-4.087 4.926c-1.92 2.278-1.972 3.487-.158 3.666 1.201.12 9.12-5.02 17.9-11.616a236.46 236.46 0 0 1 4.985-3.65c3.638-2.543 12.415-9.477 15.535-12.274a72.234 72.234 0 0 1 3.434-2.876c2.715-2.082 4.872-4.093 5.447-5.077 2.86-4.894-1.352-10.304-6.992-8.982m8.148 2.993c1.21 2.182.54 5.761-1.42 7.597l-1 .936 3.13 4.163c3.614 4.802 5.104 7.014 7.869 11.683l1.99 3.36 3.274-1.77 3.275-1.77-.967-1.798c-2.673-4.97-11.755-17.81-15.993-22.609l-.735-.832.577 1.04m-38.55 14.673c1.255 1.259 2.329 2.289 2.386 2.289.057 0-.923-1.03-2.178-2.29-1.255-1.258-2.329-2.289-2.386-2.289-.057 0 .923 1.03 2.178 2.29m-21.025 2.757-1.452 1.51 1.509-1.452c1.401-1.348 1.603-1.567 1.451-1.567-.032 0-.71.68-1.508 1.51m74.616 8.611c-.973.526-3.783 2.063-6.244 3.416-2.46 1.352-5.108 2.745-5.882 3.091a37.56 37.56 0 0 0-2.81 1.44c-.77.445-3.321 1.78-5.668 2.966a1252.5 1252.5 0 0 0-4.328 2.192c-.034.018.266.63.665 1.36 4.474 8.154 4.164 18.674-.851 28.83-1.471 2.981-1.56 3.521-.571 3.48 1.457-.06 9.916-4.007 13.098-6.111a59.342 59.342 0 0 1 2.47-1.547c5.328-3.068 11.005-10.35 13.411-17.202 1.911-5.44 1.631-15.02-.63-21.578-.533-1.549-.438-1.538-2.66-.337m-36.849 22.919-.717.78.78-.717c.727-.668.877-.844.718-.844-.035 0-.386.352-.78.78m-3.229 3.226-.61.677.676-.611c.63-.57.772-.742.61-.742-.035 0-.34.305-.676.676m-42.547 4.202c0 .395.072.761.16.815.088.055.125-.267.083-.716-.097-1.006-.243-1.065-.243-.099m18.473 4.218c.259.05.634.048.832-.004.2-.052-.012-.093-.47-.09-.458.002-.62.045-.362.094m2.6-.003c.2.052.528.052.728 0 .2-.052.036-.096-.364-.096-.401 0-.564.044-.365.096" fill="#e32c44"/></g><path style="fill:#f2c6a8;fill-opacity:.574899;stroke:#060604;stroke-width:.150007" d="M150.08 192.377c-.775-.776-1.692-2.397-2.034-3.6-.807-2.83-.81-10.642-.006-15.197l.628-3.57 4.891-.156 4.89-.156.324 3.23c.535 5.374-.52 13.974-2.103 17.135-1.954 3.902-4.209 4.693-6.589 2.314zm51.158-59.79c0-.078-.863-2.141-1.917-4.584l-1.916-4.443 1.473-2.511c3.424-5.838 6.674-8.715 9.85-8.718 4.35-.004 5.25 4.933 1.837 10.073-2.315 3.487-7.153 9.161-8.362 9.809-.53.284-.964.452-.965.374zm-10.11 121.676c-2.357-2.078-3.783-6.124-4.15-11.783l-.276-4.261 2.923-.916c1.607-.504 3.723-1.321 4.704-1.819l1.78-.902 1.863 5.804c2.813 8.762 2.975 12.697.589 14.26-2.133 1.398-3.713.085-5.686-4.73-.502-1.222-.51-1.225-.542-.108-.051 1.71 1.207 4.348 2.508 5.26l1.156.809h-1.518c-1.006 0-2.137-.544-3.35-1.614zm37.928-71.35c0-.78-.137-2.1-.304-2.934-.299-1.493-.257-1.53 2.856-2.48 4.209-1.286 7.306-1.685 9.12-1.176l1.49.418-3.229 1.634c-1.775.898-4.737 2.605-6.58 3.795l-3.353 2.161zm-67.27-54.974c-1.123-1.124-.963-2.711.506-4.975 1.136-1.754 1.472-1.96 2.913-1.791 2.72.317 5.542-1.557 5.896-3.916.155-1.027.493-1.226 2.315-1.36 3.073-.224 4.975.684 4.975 2.376 0 1.712-1.05 2.612-4.43 3.794-1.768.618-3.775 1.922-5.846 3.797-3.301 2.988-4.893 3.51-6.328 2.075z"/><path style="fill:#f9f9f9;fill-opacity:.574899;stroke:#060604;stroke-width:.150007" d="M137.248 131.855c-3.054-1.08-8.12-5.967-9.558-9.22-1.581-3.576-1.628-9.53-.102-12.898 1.634-3.605 5.212-7.123 8.513-8.369 6.754-2.552 14.58.871 18.493 8.087 1.59 2.93 1.693 3.413 1.692 7.84-.002 5.649-.822 7.58-4.702 11.068-4.715 4.24-9.159 5.322-14.336 3.492zm4.548-9.708c1.398-1.873.744-4.236-1.426-5.14-2.664-1.114-5.204.345-5.177 2.973.019 1.829.874 3.085 2.513 3.694 1.532.57 2.908.056 4.09-1.527z"/><path style="fill:#f9f9f9;fill-opacity:.574899;stroke:#060604;stroke-width:.150007" d="M136.916 131.266c-2.892-1.324-6.773-5.033-8.458-8.086-1.323-2.395-1.466-3.095-1.455-7.126.009-3.646.215-4.858 1.115-6.568 1.566-2.972 3.85-5.424 6.507-6.987 1.94-1.141 2.86-1.346 6.016-1.346 4.365 0 7.213 1.156 10.354 4.204 3.282 3.184 4.67 6.054 4.935 10.2.368 5.724-.505 8.396-3.819 11.688-1.527 1.519-3.836 3.254-5.13 3.856-2.96 1.377-7.262 1.447-10.066.165zm4.493-8.236c2.542-2.542.82-6.728-2.766-6.728-3.502 0-5.007 4.438-2.297 6.769 1.758 1.512 3.525 1.497 5.063-.04zm33.625-13.467c-2.825-1.408-4.997-3.618-6.69-6.81-.88-1.662-1.113-2.923-1.12-6.07-.007-3.487.172-4.302 1.465-6.637 1.91-3.448 4.787-5.873 8.117-6.84 5.494-1.598 12.002 1.452 15.387 7.21 1.182 2.011 1.347 2.811 1.342 6.515-.007 4.815-.812 6.826-4.054 10.134-3.899 3.976-9.527 4.95-14.447 2.498zm6.834-8.658c1.87-1.872.74-5.771-1.738-5.989-2.93-.257-4.72 1.072-4.72 3.505 0 2.024 1.557 3.476 3.726 3.476 1.076 0 2.117-.378 2.732-.993zm82.595 118.518c-5.075-1.658-8.491-4.72-10.683-9.576-1.556-3.449-1.55-9.412.014-12.83 1.563-3.414 5.088-6.855 8.676-8.465 2.673-1.199 3.416-1.313 7.258-1.119 4.988.253 7.44 1.295 10.687 4.54 3.414 3.416 4.52 6.228 4.52 11.501 0 5.04-.85 7.392-3.997 11.069-3.655 4.269-11.36 6.552-16.475 4.88z"/><path style="fill:#ffd42a;fill-opacity:.574899;stroke:#060604;stroke-width:.150007" d="M149.26 326.87c-3.492-.343-10.07-1.54-13.69-2.488-1.587-.416-1.889-.73-2.175-2.256-.312-1.658.07-19.605.463-21.794 2-11.147 6.136-16.869 15.442-21.363 7.113-3.436 6.297-3.584 12.63 2.287l5.497 5.096-3.59 3.762c-5.073 5.317-12.73 14.316-13.364 15.709-.75 1.648.684 3.896 2.184 3.42 1.929-.612 6.826-3.721 14.156-8.986 5.614-4.034 7.49-5.143 8.08-4.776.42.263 2.749 3.07 5.172 6.239l4.406 5.76-1.62 2.634c-7.478 12.168-19.463 18.145-33.59 16.756z"/><path style="fill:#fff;fill-opacity:.574899;stroke:#060604;stroke-width:.150007" d="M66.453 223.887c-2.227-2.92-4.497-3.98-8.566-4.002l-3.57-.02 1.893-2.053c2.997-3.252 3.6-4.798 3.381-8.672l-.191-3.372 2.789 2.66c3.033 2.892 5.36 3.65 9.51 3.093l2.023-.27-2.246 2.32c-3.132 3.238-3.557 4.254-3.507 8.406.025 1.98-.016 3.6-.09 3.6-.075 0-.716-.76-1.426-1.69z"/><path style="fill:#fff;fill-opacity:.574899;stroke:#060604;stroke-width:.150007" d="M66.287 223.2c-1.599-2.17-4.872-3.583-8.308-3.583h-2.875l1.533-1.745c2.474-2.817 3.13-4.516 3.101-8.04l-.024-3.212 1.939 1.752c2.974 2.686 4.862 3.5 8.07 3.477l2.841-.02-1.683 1.863c-2.452 2.714-2.915 3.803-3.226 7.587l-.278 3.4zm54.854 10.523c-.2-1.775-.68-2.717-2.175-4.273-1.587-1.652-1.723-1.938-.79-1.655 1.821.55 4.06-.209 6.13-2.078l1.93-1.745v2.255c0 1.81.342 2.702 1.735 4.529l1.736 2.272h-2.463c-2.026 0-2.763.264-4.155 1.486L121.398 236zm-29.904 82.312c-.196-.614-1.061-1.55-1.925-2.076-.989-.602-1.262-.957-.739-.958.458-.001 1.352-.63 1.987-1.397l1.155-1.394 1.63 1.727c1.213 1.288 1.467 1.832.993 2.134-.35.221-.796.405-.993.41-.195.005-.67.607-1.055 1.34-.697 1.333-.698 1.333-1.053.215zm216.481-4.402c-1.782-1.833-2.34-2.115-4.223-2.137l-2.168-.026 1.241-.843c2.4-1.63 3.32-2.894 3.662-5.027l.343-2.154 1.6 1.85c1.333 1.542 2.007 1.895 4.052 2.126l2.454.277-1.887 1.584c-1.422 1.193-2.026 2.183-2.454 4.022l-.568 2.439zm-21.044-192.761c0-1.765-.324-2.445-2.05-4.319l-2.05-2.224h2.65c2.385 0 2.837-.183 4.533-1.84l1.884-1.839v2.487c0 2.12.241 2.752 1.635 4.273l1.635 1.785-2.504.328c-1.863.245-2.92.729-4.12 1.887l-1.613 1.558zM278.994 96c-.185-.583-.936-1.377-1.668-1.765-1.249-.661-1.27-.727-.338-1.052.546-.192 1.471-.909 2.056-1.594 1.014-1.186 1.08-1.198 1.375-.266.17.538.874 1.28 1.563 1.648 1.14.61 1.172.711.364 1.126-.489.25-1.366 1.02-1.951 1.709-1.056 1.245-1.067 1.246-1.4.194z"/></svg>