<svg width="16" height="16" viewBox="0 0 16 16" fill="none" xmlns="http://www.w3.org/2000/svg"><path d="M16 16H9V9h7l-3.6 3.4L16 16Z" fill="#B99BF8"/><path fill-rule="evenodd" clip-rule="evenodd" d="M11.36 3.133a2.352 2.352 0 0 1 3.27.056c.734.735 1.554 2.566-.456 4.811H8v3.884a1.532 1.532 0 0 0-1.262 1.309.224.224 0 0 1-.22.196H5.505a.223.223 0 0 1-.22-.196 1.531 1.531 0 0 0-3.037 0 .224.224 0 0 1-.229.204H.984a.224.224 0 0 1-.22-.183c-.583-3.04.495-5.44 2.25-6.689l.919 1.584a1.228 1.228 0 0 0 1.662.457l.43-.24h.015c.507-.317.986-.677 1.43-1.077a.22.22 0 0 0-.01-.33.237.237 0 0 0-.308.01 9.938 9.938 0 0 1-1.355 1.01l-.425.238.018-.013-.023.013a.765.765 0 0 1-1.038-.285l-.971-1.677a.767.767 0 0 1 .33-1.078c3.306-1.576 5.532-.443 7.183.398 1.174.597 2.057 1.047 2.833.272a1.348 1.348 0 0 0-1.767-2.034.224.224 0 0 1-.293-.02l-.284-.29a.228.228 0 0 1 0-.33Zm-1.3 3.96.72.36v.002a.452.452 0 1 0-.72-.363Z" fill="#3FB3B6"/></svg>