<svg xmlns="http://www.w3.org/2000/svg" width="16" height="16" viewBox="0 0 16 16"><path fill="#6E6E6E" fill-rule="evenodd" d="M14.63 3.189a2.352 2.352 0 0 0-3.27-.056.227.227 0 0 0 0 .33l.284.29c.08.079.204.087.293.02a1.348 1.348 0 0 1 1.767 2.034c-1.867 1.866-4.36-3.366-10.017-.67a.766.766 0 0 0-.33 1.078l.972 1.677a.765.765 0 0 0 1.038.285l.023-.013-.018.013.425-.237c.48-.298.933-.636 1.355-1.01a.237.237 0 0 1 .308-.01.22.22 0 0 1 .01.329c-.444.4-.923.76-1.43 1.076h-.015l-.43.24a1.228 1.228 0 0 1-1.662-.457l-.918-1.583c-1.756 1.25-2.834 3.65-2.25 6.69.02.105.112.182.22.182h1.034a.224.224 0 0 0 .23-.204 1.531 1.531 0 0 1 3.036 0 .223.223 0 0 0 .22.196h1.013a.224.224 0 0 0 .22-.196 1.531 1.531 0 0 1 3.037 0 .224.224 0 0 0 .22.196h1.006a.224.224 0 0 0 .224-.22c.023-1.418.406-3.047 1.495-3.863 3.775-2.824 2.783-5.243 1.91-6.117zm-3.85 4.264-.72-.36a.452.452 0 1 1 .72.362v-.002z"/><path fill-rule="evenodd" fill="#59A869" d="M15.912 12.533v-.2l-5-3.432V15.9z"/></svg>