<svg xmlns="http://www.w3.org/2000/svg" width="16" height="16" viewBox="0 0 40 40"><path d="M35.5 24.9c-.3-.2-.6-.3-.9-.3v-9.1l.9-.3c1.7-.9 2.2-3 1.3-4.6-1-1.6-3.1-2.2-4.7-1.2-.3.2-.5.4-.8.6l-8-4.5c.1-.3.2-.6.2-1 0-2-1.6-3.5-3.5-3.5s-3.5 1.5-3.5 3.4c0 .3.1.7.2 1l-8 4.5c-.2-.3-.5-.5-.8-.6-1.7-.9-3.8-.4-4.7 1.2-1 1.6-.4 3.7 1.3 4.6.3.2.6.3.9.3v9.1l-.9.3c-1.7.9-2.2 3-1.3 4.6 1 1.6 3.1 2.2 4.7 1.2.3-.2.5-.4.8-.6l8 4.5c-.1.3-.2.6-.2.9 0 1.9 1.5 3.4 3.5 3.4 1.9 0 3.5-1.5 3.5-3.4 0-.4-.1-.7-.2-1.1l8-4.5c.2.3.5.5.8.7 1.7.9 3.8.4 4.7-1.2 1-1.4.4-3.5-1.3-4.4zM9.5 27l-.3-.9c-.2-.3-.4-.5-.6-.7L19 7.6c.3.1.6.1 1 .1.3 0 .7-.1 1-.1l10.5 17.7c-.2.2-.4.5-.6.7-.2.3-.3.6-.3.9H9.5zm21-15.7c-.2.9-.2 1.8.3 2.6s1.3 1.4 2.2 1.6v9h-.1L22.4 6.8l.1-.1 8 4.6zm-13-4.6c0 .1.1.1 0 0L7.2 24.6h-.1v-9c.9-.2 1.7-.8 2.2-1.6.5-.8.6-1.8.3-2.6l7.9-4.7zm5 26.6c-.6-.7-1.5-1.1-2.5-1.1s-1.9.4-2.5 1l-8-4.5v-.1h20.9c0 .1 0 .1.1.2l-8 4.5z" fill="#2182AD"/></svg>