<svg xmlns="http://www.w3.org/2000/svg" width="16" height="16" viewBox="0 0 16 16" preserveAspectRatio="xMinYMin meet"><path d="M2.505 4.331s.297.97.34 1.295c.042.323-.765 1.042-.765 1.402 0 .36.17 1.007 1.104 1.33.935.324 1.062 1.151 1.062 1.655 0 .503-.34 1.474-.34 1.474s-.212 2.41.934 2.841c1.147.431.892.431 1.147.431.254 0 2.123.648 3.227.396 1.104-.252 1.4-.54 1.4-.54s1.105.073 1.444-.755c.34-.827.552-2.553.425-3.344-.127-.791-.297-1.834.467-2.193.764-.36 1.571-.791 1.444-1.151-.128-.36-.807-.863-.807-.863s-.17-.9-.042-1.115c.127-.216.891-.755.467-1.15-.425-.396-1.19-.396-1.19-.396l-.976.072S10.19 2.46 8.025 2.533C5.859 2.605 4.5 3.72 4.5 3.72s-.721-.216-1.358 0c-.637.215-.764 0-.637.611z" fill="#fba919"/><path d="M6.385 9.685s-.841 1.089-1.458 1.862c-.095.12.617.127.617.127l.84-1.989zm.4-2.257s-.253.535-.392.819c-.15.309-.726.462-.726.462s.298-.264.298-.935c0-.28.43-.393.43-.393l.39.046z" fill="#e78724"/><path d="M6.53 7.73s-.52.524-1.484.23c-.965-.292-1.064-1.34-1.064-1.633 0-.293 1.83.293 2.078.419.247.126.716.628.47.984zM2.886 2.136s.89-.147 1.483.251c.594.398.767.712.767.712l-1 .672s-.484-.19-.632-.734c-.148-.545-.05-.796-.618-.9z" fill="#e78724"/><path d="M6.27 6.218c-.384-.46-1.015-.662-1.52-.695-.86-.057-1.268.2-1.268.2s1.409.051 1.814.503c.756.84 1.858.908 2.035.724-.204.008-.428-.077-.668-.27-.15-.12-.272-.316-.394-.462zm-2.378 1.63s-1.562-.456-1.265-.916c.296-.461.06-.712.06-.712s-.872.551-.65 1.138c.137.36.366.62 1.625 1.12.603.95.124 2.659.153 2.667.048.013.848-.335.793-1.934-.017-.491-.063-1.162-.716-1.364zM5.94 2.955c-.655.281-1.553.674-1.553.674l.353.15c-.033.046-.05.074-.05.074l.363.14s.885.542 1.427.891c-.18-.471-.711-1.212-.711-1.212s-.15-.34.17-.717zm2.176 11.49c-2.014 0-2.696-.866-2.696-.866l.315.65c.119.28 1.388 1.154 2.378 1.154" fill="#e78724"/><path d="M5.641 12.995s.185.959.927.959c.63 0 .816-.81.816-.977zm-1.235-1.446a6.05 6.05 0 0 0 .371-1.34c.09-.678.057-1.668.057-1.668s-.198.65-.371.754c-.173.105-.495.817-.495.817s-.172 1.06-.254 1.416c.227.038.418-.075.692.02zM2.615 7.347s.42-.125.544-.9c.124-.775-.148-1.445-.148-1.445s.024 1.068-.124 1.277c-.148.21-.272.273-.445.545s.074.44.173.523z" fill="#e78724"/><path d="m3.117 2.32-.086-.047c-.253.008.086.046.086.046z" fill="#fdc168"/><path d="M6.282 2.726s-.396-.056-.594-.307a2.147 2.147 0 0 0-1.651-.76c-.894-.005-1.778.202-1.778.202l.772.412c.082-.002.224 0 .46.006.968.027 1.118.838 1.118.838L8.02 2.72" fill="#fba919"/><path d="M6.612 7.206s-.462.391-1.171.265c-.709-.125-1.138-.39-1.17-.851-.034-.461.148-.643.148-.643s.791.21 1.17.49c.38.278.66.725 1.023.74z" fill="#fff"/><path d="M6.053 7.066s-.4.155-.848.03c-.586-.166-.625-.682-.625-.682s-.36.893.648 1.065c.808.138 1.286-.259 1.286-.259l-.461-.154z" fill="#c9c9c9"/><path d="M6.337 2.537c-.043-.766.699-1.376.956-1.402.014.13-.015.636.242.791.075-.413.328-.869 1.326-1.168-.214.48-.028.883.06 1.07.682-.525 1.141-.438 1.141-.438s-.474.692-.288 1.147c-1.37-.091-3.43.123-3.437 0zM3.436 3.703c-.327-.23-.083-.442-.11-.703-.013-.138-.026-.27-.08-.341-.3-.402-1.01-.524-1.017-.526l-.332-.055.22-.218c.028-.028.933-.76 2.333-.376.979.267 1.704 1.174 1.73 1.21l-.49.196c-.006-.008-.58-.86-1.42-1.09a2.502 2.502 0 0 0-1.572.107c.285.097.657.272.882.572.106.142.124.32.141.493.023.23.044.445.243.585zm-.872 3.35s.411-.432.533-1.273c.048-.331-.037-.984-.173-1.236.024.618-.161 1.236-.161 1.236s-.125 1.147-.2 1.273z" fill="#463014"/><path d="M4.733 3.267s-.132-.489-.497-.735c-.516-.347-1.145-.163-1.151-.16l-.092-.24c.03-.008.75-.2 1.413.194.667.397.747.757.754.797l-.427.144zm-.877 3.476s-.216-.262-.177-.55c.02-.142.097-.288.236-.34.258-.095.372.152.372.152s-.363.076-.431.738z" fill="#463014"/><path d="M6.226 7.142a.781.781 0 0 1 .014.022s-.674.428-1.364-.006c-.37-.233-.334-.808-.221-1.052.294.056.544.158.752.277-.263-.2-.494-.346-.493-.35l-.3-.071-.582-.17c-.008.038-.22.881.393 1.456.272.255 1.546.825 2.15-.15l-.35.044z" fill="#463014"/><path d="M6.163 7.205c.379.488 1.335.209 1.319-.308 0 0-.64.3-1.204-.25-.33-.322-1.386-1.207-2.818-.913.989.184 2.299.95 2.703 1.47z" fill="#463014"/><path d="M3.326 8.583a.927.927 0 0 1 .413.749c0 .212-.025 1.274-.148 1.924.186.102.315.124.5.228.093-.752.16-1.842.128-2.282a1.183 1.183 0 0 0-.646-.981 13.203 13.203 0 0 0-.285-.134c-.504-.23-1.025-.468-1.025-.876 0-.318.147-.418.301-.523l.017-.012c.103-.07.219-.15.288-.28.188-.358.218-1.27 0-1.5-.11-.116-.401-.504-.317-.764.032-.1.106-.173.226-.225.127-.056.3-.084.511-.084.416 0 .878.108 1.116.171.85.229 1.877.887 2.171 1.083l.015.01.188.11-.118-.166c-.007-.01-.753-1.05-2.086-1.43-.26-.074-.77-.198-1.27-.198-.299 0-.552.044-.752.13-.244.106-.41.275-.478.489-.169.523.38 1.105.398 1.124.064.096.091.799-.056 1.08-.02.038-.076.076-.147.125l-.073.047c-.208.134-.523.335-.523.799 0 .635.76.979 1.37 1.255l.282.131z" fill="#463014"/><path d="M3.436 3.703c-.327-.23-.083-.442-.11-.703-.013-.138-.026-.27-.08-.341-.3-.402-1.01-.524-1.017-.526l-.332-.055.22-.218c.028-.028.933-.76 2.333-.376.979.267 1.704 1.174 1.73 1.21l-.49.196c-.006-.008-.58-.86-1.42-1.09a2.502 2.502 0 0 0-1.572.107c.285.097.657.272.882.572.106.142.124.32.141.493.023.23.044.445.243.585z" fill="#463014"/><path d="m3.425 3.75-.02-.014c-.243-.17-.2-.338-.159-.5a.63.63 0 0 0 .031-.232c-.013-.134-.026-.26-.073-.323-.286-.383-.978-.505-.985-.507l-.415-.069.275-.272c.005-.005.586-.502 1.57-.502.268 0 .543.038.816.113 1.022.279 1.75 1.219 1.758 1.228l.03.04-.582.232-.023-.032c-.062-.09-.613-.859-1.392-1.072a2.273 2.273 0 0 0-.599-.079c-.373 0-.676.087-.837.144.27.103.596.276.802.552.112.15.13.333.148.51.022.222.043.429.226.557l.069.049-.64.177z" fill="#463014"/><path d="M4.733 3.267s-.132-.489-.497-.735c-.516-.347-1.145-.163-1.151-.16l-.092-.24c.03-.008.75-.2 1.413.194.667.397.747.757.754.797l-.427.144z" fill="#463014"/><path d="m4.698 3.324-.013-.048c-.001-.005-.13-.476-.48-.711-.2-.134-.44-.203-.714-.203a1.51 1.51 0 0 0-.39.049l-.047.013-.123-.319.047-.013c.021-.005.212-.056.482-.056.356 0 .693.089.975.256.683.407.767.783.774.825l.006.033zM3.49 2.279c.293 0 .561.076.775.22.31.21.457.579.5.712l.337-.114c-.03-.1-.164-.402-.725-.736a1.767 1.767 0 0 0-.918-.24c-.187 0-.332.024-.404.04l.061.158c.07-.016.206-.04.374-.04zm3.046 11.445a.696.696 0 0 1-.398-.12c-.08-.058-.347-.267-.465-.522-.044-.095-.034-.171.03-.226.044-.038.135-.083.32-.083h.998c.141 0 .243.026.3.076.075.065.052.148.03.192a2.093 2.093 0 0 1-.441.555.552.552 0 0 1-.374.128zm.153-6.49-.527-.03s.135.202.222.462c.099.295-.09.725-.09.725s.703-.674.395-1.158zm-.658 7.67c-1.878-.123-2.538-1.625-2.538-1.938h.49-.245.245c.002.135.501 1.42 2.085 1.524z" fill="#463014"/><path d="M5.504 12.212a.887.887 0 0 1 .004-.414c-.143-.09-.4-.125-.591-.177-.157-.085-.961.086-1.545-.512-.73-.748-.577-1.195-.577-1.195-.187.176-.368.109-.654.93-.286.823.134 1.396.917 1.972.37.272.894.384 1.343.426-.15-.128.258-.14.54-.23-.023-.192.014-.379.184-.53.102-.09.233-.144.37-.187l.02-.043a.434.368 0 0 1-.01-.04z" fill="#fff"/><path d="M4.936 13.007a1.284 1.284 0 0 1-.04-.123c-.013-.045-.078-.173.002-.027a.485.485 0 0 1-.044-.115c-1.268-.001-2.372-.739-2.159-2.29-.166-.186-.398.377-.398.377s-.635 1.562 1.005 2.167c.546.202 1.03.346 1.143.288a.62.62 0 0 0 .532-.191.95.95 0 0 1-.04-.086z" fill="#c9c9c9"/><path d="M5.481 11.987a.757.757 0 0 1 .109-.384l.016-.026c-.488-.003-1.05-.043-1.529-.205-.526-.178-1.184-.788-1.297-1.505 0 0-.99.648-.7 2.034.274 1.302 1.56 1.726 3.026 1.798.001-.009-.165-.299-.112-.476-.833.051-1.764-.221-2.214-.848-.412-.573-.296-1.552-.127-1.696.413 1.103 1.897 1.327 2.828 1.308z" fill="#463014"/><path d="M5.635 11.197c-.264.656-.803 1.187-.803 1.187s.742-.028.782-.14c.03-.081.67-1.349.915-2.834-.23.321-.871 1.731-.894 1.787z" fill="#463014"/><path d="M9.836 9.685s.841 1.089 1.458 1.862c.095.12-.617.127-.617.127l-.84-1.989zm-.4-2.257s.253.535.392.819c.15.309.725.462.725.462s-.297-.264-.297-.935c0-.28-.429-.393-.429-.393l-.391.046z" fill="#e78724"/><path d="M9.692 7.73s.52.524 1.484.23c.964-.293 1.063-1.34 1.063-1.633 0-.293-1.83.293-2.077.419-.247.126-.717.628-.47.984zm3.642-5.594s-.89-.147-1.483.251c-.594.398-.767.712-.767.712l1 .672s.484-.19.632-.734c.149-.545.05-.796.618-.9z" fill="#e78724"/><path d="M9.952 6.218c.383-.46 1.014-.662 1.519-.695.86-.057 1.268.2 1.268.2s-1.408.051-1.814.503c-.756.84-1.858.908-2.034.724.203.008.428-.077.668-.27.15-.12.271-.316.393-.462zm2.377 1.63s1.562-.456 1.265-.916c-.296-.461-.06-.712-.06-.712s.872.551.65 1.138c-.137.36-.366.62-1.625 1.12-.603.95-.124 2.659-.153 2.667-.048.013-.847-.335-.793-1.934.017-.491.063-1.162.716-1.364zm-2.047-4.892c.654.281 1.552.674 1.552.674l-.353.15c.034.046.05.074.05.074l-.363.14s-.885.542-1.427.891c.18-.471.711-1.212.711-1.212s.151-.34-.17-.717zm-2.177 11.49c2.014 0 2.696-.866 2.696-.866l-.315.65c-.119.28-1.388 1.154-2.378 1.154" fill="#e78724"/><path d="M10.58 12.995s-.185.959-.927.959c-.63 0-.816-.81-.816-.977zm1.235-1.446a6.064 6.064 0 0 1-.371-1.34c-.09-.678-.057-1.668-.057-1.668s.198.65.371.754c.173.105.495.817.495.817s.172 1.06.254 1.416c-.227.038-.418-.075-.692.02zm1.791-4.202s-.42-.125-.544-.9c-.123-.775.149-1.445.149-1.445s-.025 1.068.123 1.277c.149.21.272.273.445.545s-.074.44-.173.523z" fill="#e78724"/><path d="m13.104 2.32.086-.047c.253.008-.086.046-.086.046z" fill="#fdc168"/><path d="M9.94 2.726s.395-.056.593-.307a2.148 2.148 0 0 1 1.652-.76 8.688 8.688 0 0 1 1.777.202l-.772.412a9.246 9.246 0 0 0-.46.006c-.968.027-1.117.838-1.117.838L8.2 2.72" fill="#fba919"/><path d="M9.61 7.206s.461.391 1.17.265c.709-.125 1.138-.39 1.17-.851.034-.461-.148-.643-.148-.643s-.791.21-1.17.49c-.38.278-.66.725-1.022.74z" fill="#fff"/><path d="M10.168 7.066s.4.155.848.03c.586-.166.625-.682.625-.682s.36.893-.648 1.065c-.808.138-1.286-.259-1.286-.259l.461-.154z" fill="#c9c9c9"/><path d="M12.785 3.703c.327-.23.084-.442.11-.703.013-.138.026-.27.08-.341.3-.402 1.01-.524 1.017-.526l.333-.055-.22-.218c-.03-.028-.934-.76-2.334-.376-.979.267-1.703 1.174-1.73 1.21l.49.196c.006-.008.58-.86 1.42-1.09a2.501 2.501 0 0 1 1.572.107c-.285.097-.657.272-.882.572-.106.142-.123.32-.14.493-.023.23-.045.445-.244.585zm.872 3.35s-.41-.432-.533-1.273c-.048-.331.037-.984.173-1.236a4.32 4.32 0 0 0 .161 1.236s.125 1.147.2 1.273z" fill="#463014"/><path d="M11.488 3.267s.132-.489.498-.735c.515-.347 1.144-.163 1.15-.16l.092-.24c-.03-.008-.75-.2-1.413.194-.667.397-.747.757-.754.797zm.877 3.476s.216-.262.177-.55c-.019-.142-.097-.288-.236-.34-.258-.095-.372.152-.372.152s.363.076.431.738z" fill="#463014"/><path d="m9.995 7.142-.013.022s.673.428 1.363-.006c.37-.233.334-.808.221-1.052a2.442 2.442 0 0 0-.752.277c.263-.2.494-.346.493-.35l.3-.071.582-.17c.008.038.22.881-.393 1.456-.272.255-1.546.825-2.15-.15l.35.044z" fill="#463014"/><path d="M10.058 7.205c-.379.488-1.335.209-1.318-.308 0 0 .638.3 1.203-.25.33-.322 1.386-1.207 2.818-.913-.989.184-2.298.95-2.703 1.47z" fill="#463014"/><path d="M12.895 8.583a.926.926 0 0 0-.413.749c0 .212.025 1.274.149 1.924-.186.102-.316.124-.5.228-.094-.752-.16-1.842-.13-2.282.036-.501.353-.838.647-.981.092-.045.188-.09.286-.134.503-.23 1.024-.468 1.024-.876 0-.318-.146-.418-.301-.523l-.017-.012c-.102-.07-.219-.15-.287-.28-.188-.358-.22-1.27 0-1.5.108-.116.4-.504.317-.764-.033-.1-.107-.173-.227-.225a1.31 1.31 0 0 0-.511-.084c-.416 0-.878.108-1.115.171-.851.229-1.878.887-2.172 1.083l-.014.01-.189.11.118-.166c.008-.01.753-1.05 2.087-1.43.26-.074.769-.198 1.27-.198.298 0 .55.044.751.13.245.106.41.275.479.489.168.523-.38 1.105-.4 1.124-.063.096-.09.799.057 1.08.02.038.076.076.147.125l.073.047c.208.134.523.335.523.799 0 .635-.76.979-1.37 1.255l-.282.131z" fill="#463014"/><path d="M11.989 3.629c-.12-.174-.43-.508-1.142-.802-.795-.328-1.715-.495-2.734-.495h-.004c-1.02 0-1.94.167-2.735.495-.712.294-1.021.628-1.142.802l-.052.058.61.115.02-.021.01-.019c.009-.034.09-.218.77-.5.728-.3 1.575-.452 2.52-.452.946 0 1.793.153 2.52.453.68.28.762.465.771.5l.01.018.02.02.61-.114-.052-.058z" fill="#463014"/><path d="M12.785 3.703c.327-.23.084-.442.11-.703.013-.138.026-.27.08-.341.3-.402 1.01-.524 1.017-.526l.333-.055-.22-.218c-.03-.028-.934-.76-2.334-.376-.979.267-1.703 1.174-1.73 1.21l.49.196c.006-.008.58-.86 1.42-1.09a2.501 2.501 0 0 1 1.572.107c-.285.097-.657.272-.882.572-.106.142-.123.32-.14.493-.023.23-.045.445-.244.585z" fill="#463014"/><path d="m12.157 3.573.068-.048c.183-.129.204-.336.226-.557.018-.177.036-.361.148-.511.207-.276.533-.449.802-.551a2.527 2.527 0 0 0-.837-.144 2.27 2.27 0 0 0-.598.078c-.78.213-1.33.982-1.393 1.072l-.023.032-.58-.232.029-.04c.007-.009.735-.95 1.757-1.228.274-.075.548-.113.817-.113.983 0 1.564.497 1.57.502l.275.273-.416.069c-.007 0-.698.123-.985.506-.047.064-.06.19-.073.323a.669.669 0 0 0 .03.232c.042.162.085.33-.157.5l-.021.015z" fill="#463014"/><path d="M11.488 3.267s.132-.489.498-.735c.515-.347 1.144-.163 1.15-.16l.092-.24c-.03-.008-.75-.2-1.413.194-.667.397-.747.757-.754.797z" fill="#463014"/><path d="m11.006 3.15.006-.033c.007-.042.091-.418.775-.825.28-.167.618-.256.974-.256.27 0 .461.05.482.056l.047.013-.122.319-.048-.013a1.536 1.536 0 0 0-.39-.049 1.25 1.25 0 0 0-.713.203c-.35.235-.48.706-.48.711l-.013.048zm2.098-.83.061-.16a1.965 1.965 0 0 0-.404-.04c-.34 0-.65.081-.918.24-.56.335-.695.636-.725.737l.337.114c.044-.133.19-.503.5-.712a1.38 1.38 0 0 1 .775-.22c.168 0 .304.024.374.04zM9.31 13.595a2.1 2.1 0 0 1-.441-.555c-.021-.044-.045-.127.03-.192.058-.05.159-.076.3-.076h.998c.185 0 .277.045.32.083.064.055.074.131.03.226-.118.255-.385.464-.464.521a.696.696 0 0 1-.399.12.552.552 0 0 1-.374-.127zm.221-6.363.527-.028s-.134.2-.222.461c-.098.295.09.725.09.725s-.703-.674-.395-1.158z" fill="#463014"/><path d="M8.11 5.638c-.336 0-.774-.008-1.103-.208 0 0 .43.64 1.103.64v-.081l.001.08c.673 0 1.103-.639 1.103-.639-.329.2-.767.208-1.103.208z" fill="#e78724"/><path d="M9.036 5.635a2.05 2.05 0 0 1-.925.238 2.05 2.05 0 0 1-.926-.238s.491.508.923.512h.005c.432-.004.923-.512.923-.512zm1.153 9.269-.037-.414c1.583-.104 2.082-1.389 2.085-1.524h.49c0 .313-.66 1.815-2.538 1.938z" fill="#463014"/><path d="M10.717 12.212a.885.885 0 0 0-.003-.414c.142-.09.398-.125.59-.177.158-.085.962.086 1.545-.512.73-.748.577-1.195.577-1.195.187.176.369.109.654.93.286.823-.134 1.396-.917 1.972-.37.272-.893.384-1.343.426.15-.128-.258-.14-.539-.23.023-.192-.015-.379-.185-.53a1.002 1.002 0 0 0-.37-.187l-.02-.043a.338.338 0 0 0 .011-.04z" fill="#fff"/><path d="M11.284 13.007c.017-.04.029-.081.041-.123.013-.045.078-.173-.002-.027a.486.486 0 0 0 .044-.115c1.268-.001 2.372-.739 2.159-2.29.166-.186.398.377.398.377s.635 1.562-1.005 2.167c-.546.202-1.029.346-1.143.288a.62.62 0 0 1-.532-.191.881.881 0 0 0 .04-.086z" fill="#c9c9c9"/><path d="M10.74 11.987a.756.756 0 0 0-.108-.384l-.017-.026c.488-.003 1.05-.043 1.529-.205.526-.178 1.184-.788 1.297-1.505 0 0 .991.648.7 2.034-.274 1.302-1.56 1.726-3.026 1.798 0-.009.165-.299.112-.476.833.051 1.764-.221 2.214-.848.412-.573.296-1.552.127-1.696-.412 1.103-1.897 1.327-2.828 1.308z" fill="#463014"/><path d="M11.332 12.313c-.175-.16-.497-.351-1.24-.351l-1.979-.001H6.13c-.742 0-1.064.192-1.24.352-.255.234-.295.558-.118.964.469 1.081 1.129 2.179 3.337 2.18h.005c2.208-.001 2.868-1.099 3.338-2.18.176-.406.136-.73-.12-.964zm-.344.889c-.224.542-.825 1.856-2.877 1.858-2.053-.002-2.654-1.316-2.878-1.858-.124-.301-.114-.524.029-.663.098-.094.323-.207.835-.207h.535a3668.618 3668.618 0 0 1 2.957 0h.535c.512 0 .737.113.835.207.143.139.153.362.03.663z" fill="#463014"/><path d="M10.586 11.197c.264.656.803 1.187.803 1.187s-.741-.028-.782-.14c-.03-.081-.67-1.349-.915-2.834.23.321.871 1.731.894 1.787z" fill="#463014"/></svg>