<svg viewBox="0 0 16 16" width="16" height="16" xmlns="http://www.w3.org/2000/svg"><path fill="#131a38" d="M15.68 1.841V4.16L11.185 9.9l-.618.872-.396.357c-.06.009-.104.037-.173.037q-2.844-.006-5.69-.023l-.626-.428-.897-.818q-.71-.693-1.304-1.744Q.74 6.839.881 5.29c.087-.95-.031-2.01.168-2.91.242-1.098 1.107.182 1.312.473a.094.093 61.7 0 0 .109.034q.974-.37 1.992-.112a.082.083 17.5 0 0 .097-.051c.102-.273.32-.801.595-.924.46-.206.69.685.742.976a.07.07 70.6 0 0 .102.049q.574-.314 1.192-.401.959-.135 1.758.04c1.092.236 2.095 1.146 2.574 2.148q.222.462.475 1.144c.092.246.245.3.44.106q1.559-1.54 2.34-2.431.138-.156.054-.42-.009-.027-.033-.041c-.322-.176-.4-.464-.255-.802q.314-.74 1.137-.327zM5.314 4.227q-.441-.228-.855.004c-.768.428-.561 1.502.265 1.7q.194.047.378-.027c.724-.287 1.027-1.254.212-1.677Zm-2.931-.04c-.422-.064-.84.232-.972.632-.195.589.515 1.27 1.093 1.102.907-.264.833-1.592-.122-1.734Zm1.115 2.129-.013.34a.068.066 73.2 0 1-.027.05c-.132.098-.363.223-.372.404a.104.104 0 0 0 .194.058c.112-.188.346-.306.55-.155q.141.106.266.186a.071.07 25.3 0 0 .105-.038l.009-.03q.038-.115-.063-.182l-.388-.255a.051.054 15.7 0 1-.023-.044l-.003-.365q.312-.107.387-.392c.084-.316-.73-.265-.875-.248-.228.026-.286.202-.157.379q.153.211.41.292Z" style="stroke-width:.0635975"/><circle cx="2.307" cy="5.004" r=".243" style="stroke-width:.0635975"/><circle cx="4.93" cy="5.004" style="stroke-width:.0635975" r=".243"/><path fill="#ad1f57" d="m3.734 6.285-.235.03q-.257-.08-.411-.291c-.128-.177-.07-.353.158-.378.145-.017.959-.07.875.247q-.076.285-.387.392z" style="stroke-width:.0635975"/><path fill="#3771c8" d="m2.785 9.896.898.818-.202.133a.04.04 0 0 1-.052-.008l-.101-.115q-.03-.034-.072-.017l-.26.1a.06.061 47.7 0 1-.049-.003l-.23-.115a.086.085 44.3 0 0-.077.003q-.25.126-.508.009a.058.057 35.7 0 0-.063.01l-.182.167q-.02.019-.046.02l-.313.01a.18.18 10.7 0 0-.159.108l-.01.023q-.041.098.065.098l2.885.007q2.845.017 5.69.023c.068 0 .112-.03.173-.038l2.257.009q.04 0 .011-.028l-.232-.204q-.028-.025-.066-.025c-.136-.003-.233.005-.383-.02q-.186-.031-.374.022a.108.113 47.5 0 1-.063-.003q-.22-.07-.433.008-.03.01-.058-.003l-.265-.113.62-.874q.774-.003 1.44-.003.139.003.222.123c.197.288.67.94.612 1.29q-.33 1.98-.59 3.092-.04.167-.19.265-.105.069-.296.069-5.563.003-11.125 0-.301 0-.367-.304-.355-1.612-.633-3.24c-.024-.136.027-.228.096-.335q.253-.385.493-.78c.081-.134.19-.183.357-.18q.773.01 1.58.001z" style="stroke-width:.0635975"/></svg>