<svg viewBox="0 0 210 210" width="16" height="16" xmlns="http://www.w3.org/2000/svg"><defs><filter style="color-interpolation-filters:sRGB" id="m" x="0" y="0" width="1" height="1"><feColorMatrix type="hueRotate" values="225" result="color1"/><feColorMatrix type="saturate" values=".982" result="color2"/></filter><filter style="color-interpolation-filters:sRGB" id="l" x="0" y="0" width="1" height="1"><feColorMatrix type="hueRotate" values="225" result="color1"/><feColorMatrix type="saturate" values=".982" result="color2"/></filter><filter style="color-interpolation-filters:sRGB" id="k" x="0" y="0" width="1" height="1"><feColorMatrix type="hueRotate" values="225" result="color1"/><feColorMatrix type="saturate" values=".982" result="color2"/></filter><filter style="color-interpolation-filters:sRGB" id="j" x="0" y="0" width="1" height="1"><feColorMatrix type="hueRotate" values="225" result="color1"/><feColorMatrix type="saturate" values=".982" result="color2"/></filter><filter style="color-interpolation-filters:sRGB" id="i" x="0" y="0" width="1" height="1"><feColorMatrix type="hueRotate" values="225" result="color1"/><feColorMatrix type="saturate" values=".982" result="color2"/></filter><filter style="color-interpolation-filters:sRGB" id="h" x="0" y="0" width="1" height="1"><feColorMatrix type="hueRotate" values="225" result="color1"/><feColorMatrix type="saturate" values=".982" result="color2"/></filter><filter style="color-interpolation-filters:sRGB" id="g" x="0" y="0" width="1" height="1"><feColorMatrix type="hueRotate" values="225" result="color1"/><feColorMatrix type="saturate" values=".982" result="color2"/></filter><filter style="color-interpolation-filters:sRGB" id="f" x="0" y="0" width="1" height="1"><feColorMatrix type="hueRotate" values="225" result="color1"/><feColorMatrix type="saturate" values=".982" result="color2"/></filter><filter style="color-interpolation-filters:sRGB" id="e" x="0" y="0" width="1" height="1"><feColorMatrix type="hueRotate" values="225" result="color1"/><feColorMatrix type="saturate" values=".982" result="color2"/></filter><filter style="color-interpolation-filters:sRGB" id="d" x="0" y="0" width="1" height="1"><feColorMatrix type="hueRotate" values="225" result="color1"/><feColorMatrix type="saturate" values=".982" result="color2"/></filter><filter style="color-interpolation-filters:sRGB" id="c" x="0" y="0" width="1" height="1"><feColorMatrix type="hueRotate" values="225" result="color1"/><feColorMatrix type="saturate" values=".982" result="color2"/></filter><filter style="color-interpolation-filters:sRGB" id="b" x="0" y="0" width="1" height="1"><feColorMatrix type="hueRotate" values="225" result="color1"/><feColorMatrix type="saturate" values=".982" result="color2"/></filter><filter style="color-interpolation-filters:sRGB" id="a" x="0" y="0" width="1" height="1"><feColorMatrix type="hueRotate" values="225" result="color1"/><feColorMatrix type="saturate" values=".982" result="color2"/></filter></defs><path fill="#f68712" d="m41.559 104.988 63.43-63.43 63.432 63.43-63.431 63.431z" style="filter:url(#a)"/><path d="M41.578 105.037 29.973 61.726 18.368 18.415l43.31 11.605 43.312 11.605-31.706 31.706z" fill="#fab20b" style="filter:url(#b)"/><path d="M104.735 41.555 61.545 30.01 18.367 18.413l22.927.185 23.228.294 20.263 11.36z" fill="#fbc707" style="filter:url(#c)"/><path d="m18.368 18.417 11.597 43.177 11.544 43.19-11.303-19.948-11.36-20.263-.294-23.229z" fill="#fff200" style="filter:url(#d)"/><path d="m104.999 41.579 43.31-11.605 43.312-11.605-11.605 43.311-11.605 43.311-31.706-31.706z" fill="#f47216" style="filter:url(#e)"/><path d="m168.49 104.735 11.545-43.19 11.598-43.177-.185 22.927-.294 23.228-11.36 20.264z" fill="#f1471d" style="filter:url(#f)"/><path d="m191.628 18.365-43.176 11.597-43.19 11.544 19.948-11.303 20.263-11.36 23.228-.293z" fill="#fbc707" style="filter:url(#g)"/><path d="m168.419 104.987 11.605 43.311 11.605 43.311-43.311-11.605-43.311-11.605 31.706-31.706z" fill="#f25c19" style="filter:url(#h)"/><path d="m105.261 168.47 43.19 11.544 43.177 11.597-22.927-.185-23.229-.294-20.263-11.36z" fill="#f68712" style="filter:url(#i)"/><path d="m191.631 191.617-11.597-43.177-11.545-43.19 11.304 19.948 11.36 20.263.293 23.229z" fill="#f1471d" style="filter:url(#j)"/><path d="m104.99 168.422-43.31 11.605-43.311 11.605 11.605-43.311 11.605-43.311 31.706 31.706z" fill="#f89c0e" style="filter:url(#k)"/><path d="m41.51 105.27-11.545 43.19-11.597 43.176.185-22.927.294-23.228 11.36-20.264z" fill="#fff200" style="filter:url(#l)"/><path d="m18.368 191.63 43.176-11.598 43.19-11.544-19.947 11.303-20.264 11.36-23.228.293z" fill="#f25c19" style="filter:url(#m)"/></svg>