<svg width="16" height="16" viewBox="0 0 16 16" fill="none" xmlns="http://www.w3.org/2000/svg"><path fill-rule="evenodd" clip-rule="evenodd" d="M14 6.6V5h-3v1.022a5.48 5.48 0 0 0-1 .185V5H6v2h2.337a5.54 5.54 0 0 0-1.08 1H6v5h.207c.099.349.23.683.393 1H1V2h14v5.257a5.507 5.507 0 0 0-1-.657ZM5 7V5H2v2h3ZM2 8v2h3V8H2Zm0 5v-2h3v2H2Z" fill="#9AA7B0"/><path fill-rule="evenodd" clip-rule="evenodd" d="M11.529 13.759c-.008 0-.014-.008-.023-.008h-.012c-.009 0-.015.007-.023.008a2.26 2.26 0 0 1 .029-4.52 2.26 2.26 0 0 1 .029 4.52Zm3.923-2.677-.776.034a3.18 3.18 0 0 0-.657-1.59l.57-.524c.16-.16.257-.519.098-.68l-.01-.009c-.16-.16-.519-.062-.678.098l-.524.57a3.18 3.18 0 0 0-1.59-.656l.033-.776c0-.226-.186-.549-.412-.549h-.012c-.226 0-.412.323-.412.549l.034.776a3.18 3.18 0 0 0-1.59.656L9 8.411c-.16-.16-.518-.257-.679-.098l-.009.01c-.16.16-.063.52.098.679l.57.523c-.353.45-.585.993-.656 1.591l-.776-.034c-.226 0-.549.186-.549.412v.012c0 .227.323.412.549.412l.776-.034c.071.598.303 1.14.656 1.591l-.57.524c-.16.16-.257.519-.098.68l.01.008c.16.16.519.063.678-.098l.524-.57c.45.353.993.585 1.59.657l-.033.776c0 .225.186.548.412.548h.012c.226 0 .412-.323.412-.548l-.034-.776a3.18 3.18 0 0 0 1.59-.657l.525.57c.16.16.518.257.679.098l.009-.009c.16-.16.063-.52-.098-.68l-.57-.522c.353-.452.585-.994.657-1.592l.776.034c.225 0 .548-.185.548-.412v-.012c0-.226-.323-.412-.548-.412Z" fill="#297FA5"/></svg>