<svg xmlns="http://www.w3.org/2000/svg" width="16" height="16" viewBox="0 0 16 16"><g fill="none" fill-rule="evenodd"><path fill="#297FA5" d="M11.529 13.759c-.008 0-.014-.008-.023-.008h-.012c-.009 0-.015.007-.023.008a2.26 2.26 0 0 1 .029-4.52 2.26 2.26 0 0 1 .029 4.52m3.923-2.677-.776.034a3.18 3.18 0 0 0-.657-1.59l.57-.524c.16-.16.257-.519.098-.68l-.01-.009c-.16-.16-.519-.062-.678.098l-.524.57a3.18 3.18 0 0 0-1.59-.656l.033-.776c0-.226-.186-.549-.412-.549h-.012c-.226 0-.412.323-.412.549l.034.776a3.18 3.18 0 0 0-1.59.656L9 8.411c-.16-.16-.518-.257-.679-.098l-.009.01c-.16.16-.063.52.098.679l.57.523c-.353.45-.585.993-.656 1.591l-.776-.034c-.226 0-.549.186-.549.412v.012c0 .227.323.412.549.412l.776-.034c.071.598.303 1.14.656 1.591l-.57.524c-.16.16-.257.519-.098.68l.01.008c.16.16.519.063.678-.098l.524-.57c.45.353.993.585 1.59.657l-.033.776c0 .225.186.548.412.548h.012c.226 0 .412-.323.412-.548l-.034-.776a3.18 3.18 0 0 0 1.59-.657l.525.57c.16.16.518.257.679.098l.009-.009c.16-.16.063-.52-.098-.68l-.57-.522c.353-.452.585-.994.657-1.592l.776.034c.225 0 .548-.185.548-.412v-.012c0-.226-.323-.412-.548-.412"/><path fill="#9AA7B0" fill-opacity=".8" d="M3 2h10v2H3zm10 4.207A5.504 5.504 0 0 0 11.5 6c-1.177 0-2.268.37-3.163 1H3V5h10v1.207ZM7.257 8a5.485 5.485 0 0 0-1.05 2H3V8h4.257Zm-1.235 3a5.57 5.57 0 0 0 .185 2H3v-2h3.022Z"/></g></svg>