<svg xmlns="http://www.w3.org/2000/svg" width="16" height="16" viewBox="0 0 16 16"><path fill="#297FA5" fill-rule="evenodd" d="M8.045 11.514c-.013-.001-.021-.012-.035-.012h-.02c-.013 0-.022.011-.035.012A3.515 3.515 0 0 1 4.482 8a3.518 3.518 0 1 1 7.037 0 3.516 3.516 0 0 1-3.474 3.514m6.102-4.164-1.207.053a4.947 4.947 0 0 0-1.022-2.475l.887-.814c.25-.248.4-.807.152-1.057l-.014-.014c-.25-.248-.808-.097-1.056.152l-.815.887a4.946 4.946 0 0 0-2.474-1.021l.052-1.207c0-.352-.289-.854-.64-.854h-.02c-.351 0-.64.502-.64.854l.052 1.207a4.946 4.946 0 0 0-2.474 1.021l-.815-.887c-.248-.249-.806-.4-1.056-.152l-.014.014c-.248.25-.098.809.152 1.057l.887.814a4.937 4.937 0 0 0-1.021 2.475L1.854 7.35c-.352 0-.854.289-.854.641v.019c0 .352.502.641.854.641l1.207-.053a4.94 4.94 0 0 0 1.021 2.475l-.887.814c-.25.248-.4.807-.152 1.057l.014.013c.25.248.808.098 1.056-.152l.815-.887c.701.55 1.545.91 2.474 1.022l-.052 1.207c0 .351.289.853.64.853h.02c.351 0 .64-.502.64-.853l-.052-1.207a4.947 4.947 0 0 0 2.474-1.022l.815.887c.248.25.806.4 1.056.152l.014-.013c.248-.25.098-.809-.152-1.057l-.887-.814a4.95 4.95 0 0 0 1.022-2.475l1.207.053c.351 0 .853-.289.853-.641v-.019c0-.352-.502-.641-.853-.641"/></svg>