<svg xmlns="http://www.w3.org/2000/svg" width="16" height="16" viewBox="0 0 400 415.842"><path d="M196.148 3.611c-8.791 7.942-12.785 37.706-7.632 56.878.35 1.306.058 1.449-3.804 1.87-21.124 2.301-42.636 9.067-58.633 18.443-2.272 1.332-4.209 2.335-4.304 2.229-.095-.106-1.228-2.42-2.517-5.143-8.186-17.287-25.961-35.327-36.15-36.69-16.948-2.266-8.329 30.603 13.891 52.971l4.043 4.07-7.263 7.322c-6.342 6.392-19.192 22.34-19.192 23.819 0 .289 2.451 2.09 5.446 4.002a1224.54 1224.54 0 0 1 10.008 6.465l4.563 2.988 1.016-1.529c48.615-73.219 159.82-73.325 206.362-.197 1.68 2.64 2.998 4.055 3.629 3.898 1.224-.305 19.802-11.642 19.802-12.084 0-2.061-12.775-18.537-20.44-26.361l-5.857-5.979 5.3-5.242c23.246-22.992 32.595-56.48 15.116-54.143-11.015 1.473-29.99 21.501-37.345 39.417l-2.068 5.038-6.231-3.61c-17.181-9.957-39.342-17.492-56.16-19.095l-4.384-.418.545-1.899c8.189-28.556-4.413-69.061-17.741-57.02M1.98 211.551v53.796h29.043v-42.245h31.023v42.245h29.043V157.756H62.046v39.604H31.023v-39.604H1.98v53.795m112.211 0v53.796h71.317l-.18-12.047-.179-12.046-20.958-.174-20.957-.174v-18.464h35.014l-.18-12.046-.18-12.046-17.327-.176-17.327-.176v-15.801l20.297-.174 20.297-.175.18-12.046.18-12.046h-69.997v53.795m92.41 0v53.796h69.336l-.18-12.047-.179-12.046-19.967-.175-19.967-.174v-83.149h-29.043v53.795m87.788 0v53.796h25.881l-.332-23.268c-.222-15.591-.679-25.989-1.387-31.518a1595.82 1595.82 0 0 1-1.403-11.221c-.207-1.767 2.025 3.851 5.506 13.861 3.22 9.258 8.087 22.773 10.815 30.033l4.962 13.202 7.905.184 7.905.185 7.368-19.987c4.052-10.992 9.006-24.59 11.008-30.217 2.542-7.143 3.537-9.335 3.299-7.261-.188 1.634-.817 6.683-1.398 11.221-.708 5.529-1.165 15.927-1.387 31.518l-.331 23.268h26.54V157.732l-15.626.177-15.626.177-4.902 13.861c-6.243 17.653-12.913 37.525-14.732 43.895l-1.415 4.95-3.083-10.231c-1.696-5.627-3.919-12.459-4.94-15.181a2659.977 2659.977 0 0 1-4.107-11.054l-4.624-12.541a5664.498 5664.498 0 0 0-3.785-10.234l-1.411-3.795h-30.7v53.795m-207.59 75.002c-5.083 3.622-9.146 6.941-9.03 7.376.461 1.72 8.074 10.999 14.699 17.916l6.989 7.297-3.235 3.3c-21.526 21.956-29.729 54.488-13.168 52.218 9.884-1.355 28.197-19.62 35.638-35.544 2.148-4.597 1.229-4.608 9.738.124 16.172 8.993 43.579 17.196 57.457 17.196 2.277 0 2.378.093 2.025 1.859-5.133 25.664 2.144 56.226 13.387 56.226 10.674 0 17.492-26.056 13.788-52.696-.816-5.87-1.694-5.108 7.731-6.708 20.097-3.413 46.458-13.585 56.901-21.958 1.058-.848.884-1.075 3.663 4.795 8.187 17.286 25.962 35.327 36.15 36.689 17.132 2.291 8.265-30.779-14.312-53.379l-4.474-4.478 3.918-4.081c2.154-2.245 4.065-4.24 4.247-4.433 1.661-1.768 7.477-8.96 9.441-11.675l2.461-3.403-9.503-6.663c-11.242-7.882-9.995-7.653-13.768-2.538-47.601 64.535-150.371 64.537-197.212.006-3.673-5.061-2.545-5.274-13.531 2.554" fill="#00acc1" fill-rule="evenodd"/></svg>