<svg xmlns="http://www.w3.org/2000/svg" width="16" height="16" viewBox="0 0 16 16"><defs><linearGradient id="a" x1="16.835%" x2="159.599%" y1="63.497%" y2="19.863%"><stop offset="0%" stop-color="#F69923"/><stop offset="31.23%" stop-color="#F79A23"/><stop offset="83.83%" stop-color="#E97826"/></linearGradient><linearGradient id="b" x1="-217.367%" x2="74.968%" y1="394.12%" y2="13.671%"><stop offset="32.33%" stop-color="#9E2064"/><stop offset="63.02%" stop-color="#C92037"/><stop offset="75.14%" stop-color="#CD2335"/><stop offset="100%" stop-color="#E97826"/></linearGradient><linearGradient id="c" x1="-20.305%" x2="125.697%" y1="192.631%" y2="-136.581%"><stop offset="0%" stop-color="#282662"/><stop offset="9.548%" stop-color="#662E8D"/><stop offset="78.82%" stop-color="#9F2064"/><stop offset="94.87%" stop-color="#CD2032"/></linearGradient><linearGradient id="d" x1="-79.867%" x2="146.442%" y1="170.503%" y2="-44.384%"><stop offset="32.33%" stop-color="#9E2064"/><stop offset="63.02%" stop-color="#C92037"/><stop offset="75.14%" stop-color="#CD2335"/><stop offset="100%" stop-color="#E97826"/></linearGradient><linearGradient id="e" x1="-18.376%" x2="164.728%" y1="77.298%" y2="-41.36%"><stop offset="0%" stop-color="#282662"/><stop offset="9.548%" stop-color="#662E8D"/><stop offset="78.82%" stop-color="#9F2064"/><stop offset="94.87%" stop-color="#CD2032"/></linearGradient><linearGradient id="f" x1="-34.831%" x2="110.897%" y1="187.637%" y2="-51.127%"><stop offset="32.33%" stop-color="#9E2064"/><stop offset="63.02%" stop-color="#C92037"/><stop offset="75.14%" stop-color="#CD2335"/><stop offset="100%" stop-color="#E97826"/></linearGradient><linearGradient id="g" x1="-129.474%" x2="66.599%" y1="465.394%" y2="17.067%"><stop offset="32.33%" stop-color="#9E2064"/><stop offset="63.02%" stop-color="#C92037"/><stop offset="75.14%" stop-color="#CD2335"/><stop offset="100%" stop-color="#E97826"/></linearGradient></defs><g fill="none" fill-rule="evenodd"><path fill="#9AA7B0" fill-opacity=".8" d="M7 1 3 5h4z"/><path fill="#9AA7B0" fill-opacity=".8" d="M5.645 15H3V6h5V1h5v1.023c-1.246.962-2.725 2.502-4.364 4.426-2.83 3.323-3.472 7.109-2.901 8.375l-.09.176zM13 10.134V15H8.789c1.42-.836 3.047-2.55 4.211-4.866z"/><path fill="url(#a)" fill-rule="nonzero" d="M8.05.106c-.298.154-.784.582-1.374 1.207l.54.884A11.92 11.92 0 0 1 8.363.942C8.391.913 8.408.9 8.408.9c-.017.014-.028.029-.045.043-.126.12-.507.505-1.075 1.274.552-.024 1.4-.12 2.09-.226C9.582.986 9.174.524 9.174.524s-.518-.73-1.125-.418z" transform="rotate(5 -20.357 67.846)"/><path d="m12.957 7.83.076.006-.544.06c-.038-.004-.081.046-.081.046.162-.093.353-.076.549-.113zm-.666 1.533a2.795 2.795 0 0 1-.63.16c.208-.035.422-.124.63-.16zm-4.502 3.173a.306.306 0 0 1 .02-.037c.14-.263.283-.516.42-.76.157-.275.308-.547.458-.804.157-.276.313-.537.468-.794.162-.266.318-.527.472-.774.128-.201.25-.398.372-.585.039-.065.083-.123.122-.188.077-.123.16-.241.236-.36.07-.11.14-.215.21-.315l.07-.105c.006-.004.007-.009.013-.018h-.066l-.042-.096a.086.086 0 0 1-.019.022c-.107.155-.215.31-.323.47-.063.09-.12.182-.184.273a40.963 40.963 0 0 0-1.467 2.343c-.156.26-.305.518-.45.776-.15.266-.301.533-.446.8l-.099.18c-.118.211-.23.424-.343.631l.07.15.072.002c0-.004.007-.014.007-.018.145-.268.285-.535.429-.793z"/><path fill="#BE202E" fill-rule="nonzero" d="M11.799 10.121c-.203.09-.421.179-.645.32.118-.043.219-.088.336-.132.106-.098.207-.143.309-.188z"/><path fill="#BE202E" fill-rule="nonzero" d="M11.799 10.121c-.203.09-.421.179-.645.32.118-.043.219-.088.336-.132.106-.098.207-.143.309-.188z" opacity=".35"/><path fill="#BE202E" fill-rule="nonzero" d="M11.623 9.574c.041.003.082.007.127-.043.168-.039.34-.131.508-.17-.208.035-.422.124-.635.213z"/><path fill="#BE202E" fill-rule="nonzero" d="M11.623 9.574c.041.003.082.007.127-.043.168-.039.34-.131.508-.17-.208.035-.422.124-.635.213z" opacity=".35"/><path fill="url(#b)" fill-rule="nonzero" d="M5.629 4.48c.165-.264.33-.528.496-.778.177-.264.347-.52.53-.764l.032-.044c.177-.24.353-.476.53-.697l-.54-.884c-.04.043-.083.086-.122.13A27.173 27.173 0 0 0 4.493 4.02c-.005.009-.01.014-.016.023l.7 1.207c.149-.264.298-.52.452-.77z" transform="rotate(5 -20.357 67.846)"/><path fill="url(#c)" fill-rule="nonzero" d="M2.442 11.27c-.093.22-.187.447-.28.677 0 .005 0 .005-.006.01-.011.034-.028.067-.039.096l-.243.615c.204.082 2.057-.317 2.509-.966a1.97 1.97 0 0 0 .11-.183c-.204.226-.463.323-.943.303.706-.274 1.059-.538 1.373-.98.072-.106.15-.217.22-.342-.617.553-1.333.712-2.089.592l-.568.052c-.005.044-.027.087-.044.125z" transform="rotate(5 -20.357 67.846)"/><path fill="url(#d)" fill-rule="nonzero" d="M2.707 10.168c.121-.274.248-.552.375-.836.121-.27.248-.539.38-.813.133-.274.265-.543.397-.817a40.963 40.963 0 0 1 .86-1.644c.055-.096.105-.193.16-.289.094-.168.188-.331.281-.495a.104.104 0 0 1 .017-.024l-.7-1.211c-.011.014-.022.033-.033.048-.166.23-.326.47-.486.711-.16.245-.32.495-.474.745a15.55 15.55 0 0 0-.452.775c-.154.273-.292.538-.413.793a14.999 14.999 0 0 0-.574 1.317c-.05.135-.093.274-.137.409-.105.317-.193.64-.27.956l.7 1.217c.093-.217.187-.438.286-.659.028-.058.055-.12.083-.183z" transform="rotate(5 -20.357 67.846)"/><path fill="url(#e)" fill-rule="nonzero" d="M1.626 9.842A8.722 8.722 0 0 0 1.444 11c0 .015-.053 1.31.05 1.543-.119.294-.297.751-.536 1.371l.26-.123c.28-.714.502-1.272.668-1.675.027-.063.05-.125.077-.188.005-.02.016-.034.022-.053.093-.226.193-.461.292-.697.022-.053.044-.106.072-.163l-.7-1.217c-.017.02-.017.034-.023.044z" transform="rotate(5 -20.357 67.846)"/><path fill="url(#f)" fill-rule="nonzero" d="M5.287 5.346c-.022.034-.038.072-.06.11l-.182.333c-.067.125-.133.25-.204.38-.034.062-.072.13-.105.196-.105.198-.21.404-.32.616-.132.26-.265.529-.402.812-.133.27-.265.544-.397.832-.127.274-.254.553-.386.842-.116.26-.232.524-.353.793l-.017.038c-.115.27-.237.548-.353.832 0 .005-.005.014-.005.02l.568-.054c-.011 0-.022-.004-.033-.004.678-.073 1.577-.515 2.155-1.058.27-.25.513-.548.734-.894.165-.26.325-.544.474-.861C6.533 8 7.989 4.914 8 4.875c-.015.01-.917.159-2.707.447 0 .015-.006.02-.006.024z" transform="rotate(5 -20.357 67.846)"/><path fill="url(#g)" fill-rule="nonzero" d="M7.283 2.212c-.16.211-.33.452-.518.726-.011.014-.022.028-.028.043-.16.235-.33.495-.507.779a52.4 52.4 0 0 0-.485.788c-.144.245-.298.505-.452.784C7.082 5.04 7.984 4.889 8 4.879c.015-.01.59-1.143.75-1.413a7.99 7.99 0 0 0 .396-.76c.067-.148.122-.288.155-.408.033-.106.055-.211.077-.308-.695.101-1.544.198-2.095.222z" transform="rotate(5 -20.357 67.846)"/></g></svg>