<svg viewBox="0 0 24 24" width="16" height="16" xmlns="http://www.w3.org/2000/svg"><path d="M16.56 14.091c.084-.69.147-1.38.147-2.091 0-.711-.063-1.402-.147-2.091h3.535c.167.669.272 1.369.272 2.09a8.62 8.62 0 0 1-.272 2.092m-5.386 5.815a16.358 16.358 0 0 0 1.443-3.723h3.086a8.397 8.397 0 0 1-4.53 3.723m-.26-5.815H9.554c-.105-.69-.168-1.38-.168-2.091 0-.711.063-1.412.168-2.091h4.894c.094.679.167 1.38.167 2.09 0 .712-.073 1.402-.167 2.092m-2.447 6.233c-.867-1.254-1.57-2.646-1.998-4.141H14c-.428 1.495-1.13 2.887-1.998 4.14M7.818 7.817H4.765a8.286 8.286 0 0 1 4.518-3.723c-.627 1.16-1.098 2.416-1.465 3.723m-3.053 8.367h3.053c.367 1.307.838 2.562 1.465 3.723a8.376 8.376 0 0 1-4.518-3.723m-.858-2.092A8.62 8.62 0 0 1 3.634 12c0-.721.105-1.423.272-2.093h3.535A17.24 17.24 0 0 0 7.294 12c0 .711.063 1.4.147 2.091M12 3.665c.868 1.254 1.57 2.656 1.998 4.151h-3.995c.428-1.495 1.13-2.896 1.998-4.151m7.237 4.151h-3.086a16.365 16.365 0 0 0-1.442-3.723 8.352 8.352 0 0 1 4.528 3.723M12 1.543C6.217 1.543 1.543 6.249 1.543 12A10.457 10.457 0 0 0 12 22.46 10.457 10.457 0 0 0 22.458 12 10.457 10.457 0 0 0 12.001 1.542Z" fill="#e53935" style="stroke-width:1.12684"/></svg>
