<svg width="16" height="16" viewBox="0 0 16 16" xmlns="http://www.w3.org/2000/svg"><path fill="#4ec1f5" d="M8.082.472q-.255 1.381.133 2.38-.218-.03-.6.237l-2.893-.076Q3.088 3.008 3.64.729q.058-.237.318-.242Z" style="stroke-width:.517296"/><path fill="#0299e3" d="m8.082.472 3.96.01q.265 0 .339.242.616 2.158-.977 2.254l-3.19-.126q-.387-.999-.132-2.38Z" style="stroke-width:.517296"/><path fill="#e5e7f6" d="M7.615 3.089q.074-.03.154-.026.175.016.186.182l.159 3.146q-1.959.434-3.238 1.74-1.464.892-1.364 2.425l-.026 1.165q.451 2.067 2.441 2.374l1.874.036q.445.534.308 1.422H2.966q-.876 0-.892-.832-.074-4.1.016-8.557c.032-1.85.897-2.622 2.632-3.151Z" style="stroke-width:.517296"/><path fill="#c2c9eb" d="m8.215 2.852 3.19.126c.583.434 1.616 1.004 2.112 1.265 0-.638.445 1.027.445 1.372.022 3.16.022 6.22 0 9.181-.002.413-.356.747-.79.747l-5.063.01c.091-.592-.011-1.066-.308-1.422.155-.04.295-.052.419-.035 2.693-.357 4.124-1.733 4.294-4.13l-.107-1.422a.413.413 0 0 0-.265-.348c-.318-.124-.478-.35-.478-.675a.455.455 0 0 0-.223-.399c-.987-.665-2.096-.909-3.327-.73l-.16-3.147c-.006-.111-.068-.171-.185-.182a.345.345 0 0 0-.154.026c.255-.179.455-.257.6-.237Z" style="stroke-width:.517296"/><path fill="#87893d" d="M8.114 6.391q1.847-.267 3.327.731.223.147.223.399 0 .489.478.675a.413.43 87.323 0 1 .265.348l.107 1.422q-1.253 2.975-4.294 4.13-.186-.026-.42.035l-1.873-.036-.875-.64a.549.558 75.065 0 1-.176-.217q-.43-.907-1.39-1.517l.026-1.165L4.876 8.13q1.28-1.306 3.238-1.74Zm2.616 2.204q.812.03.77-.696a.265.252 0 0 0-.35-.227c-1.02.338-3.286 1.482-3.355 2.808a.17.161 0 0 0 .282.126l2.123-1.83q.228-.192.53-.181Z" style="stroke-width:.517296"/><path fill="#743e06" d="m10.2 8.776-2.123 1.83a.17.161 0 0 1-.282-.126c.07-1.326 2.336-2.47 3.355-2.808a.265.252 0 0 1 .35.227q.042.726-.77.696-.302-.01-.53.181z" style="stroke-width:.517296"/><path fill="#ba9a79" d="m4.876 8.13-1.364 2.426q-.1-1.533 1.364-2.425Z" style="stroke-width:.517296"/><path fill="#a3b0b5" d="M12.514 9.966q-.255 3.595-4.294 4.13 3.041-1.155 4.294-4.13Z" style="stroke-width:.517296"/><path fill="#ba9a79" d="M3.486 11.72q.96.61 1.39 1.518a.549.558 75.065 0 0 .176.217l.875.64q-1.99-.307-2.441-2.374Z" style="stroke-width:.517296"/></svg>