<!--Copyright 2000-2023 JetBrains s.r.o. and contributors. Use of this source code is governed by the Apache 2.0 license.--><svg width="16" height="16" viewBox="0 0 16 16" fill="none" xmlns="http://www.w3.org/2000/svg"><path d="M4.213 11h1.009a.84.84 0 0 0 .406-.094.667.667 0 0 0 .274-.274.84.84 0 0 0 .098-.41V6h1v4.358c0 .322-.071.607-.214.855-.142.248-.34.442-.594.582A1.808 1.808 0 0 1 5.32 12H4.213v-1Zm5.893 1.103c-.425 0-.801-.077-1.129-.231a1.878 1.878 0 0 1-.77-.65 1.718 1.718 0 0 1-.282-.958h1.013c0 .189.05.357.15.505.1.148.238.263.415.346.18.08.385.12.615.12.226 0 .424-.037.595-.111a.888.888 0 0 0 .393-.312.81.81 0 0 0 .141-.47.862.862 0 0 0-.735-.873L9.499 9.3a1.815 1.815 0 0 1-.757-.309 1.584 1.584 0 0 1-.496-.577 1.722 1.722 0 0 1-.171-.765c0-.33.085-.627.256-.89a1.75 1.75 0 0 1 .723-.619 2.337 2.337 0 0 1 1.043-.227c.396 0 .748.073 1.056.218.31.146.553.348.727.607.173.26.262.556.265.89h-1.013a.768.768 0 0 0-.129-.436.837.837 0 0 0-.359-.304 1.26 1.26 0 0 0-.534-.107c-.202 0-.38.034-.535.103a.83.83 0 0 0-.359.29.755.755 0 0 0-.128.437.74.74 0 0 0 .188.504c.126.14.29.227.492.26l.996.163c.293.052.554.161.782.33.231.168.41.377.535.628.125.25.188.517.188.8 0 .341-.091.65-.274.927a1.859 1.859 0 0 1-.765.646 2.576 2.576 0 0 1-1.124.235Z" fill="#FFD553"/></svg>