<svg width="16" height="16" viewBox="0 0 24 24" xmlns="http://www.w3.org/2000/svg"><g fill-opacity="0"><path d="M2.005 1.963H22.03V21.99H2.005V1.963m5.261 16.732c.447.946 1.325 1.724 2.826 1.724 1.67 0 2.815-.89 2.815-2.836V11.15h-1.89v6.388c0 .956-.39 1.2-1.002 1.2-.645 0-.913-.444-1.213-.968l-1.536.924m6.654-.2c.555 1.09 1.68 1.924 3.437 1.924 1.78 0 3.116-.923 3.116-2.625 0-1.569-.902-2.27-2.504-2.96l-.468-.2c-.811-.345-1.156-.577-1.156-1.134 0-.456.345-.812.901-.812.534 0 .89.234 1.213.812l1.458-.968c-.612-1.068-1.48-1.48-2.67-1.48-1.68 0-2.76 1.068-2.76 2.48 0 1.536.9 2.26 2.258 2.838l.467.2c.869.378 1.38.612 1.38 1.258 0 .534-.5.922-1.28.922-.923 0-1.457-.478-1.858-1.145z" style="stroke-width:1.4166" fill="none" transform="translate(-1.787 -1.78) scale(1.14869)"/><path style="fill:#ab6e1e;fill-opacity:.8" d="M6.498 13.586a1.887 1.887 0 0 1-1.546-.946 1.376 1.376 0 0 1-.09-.164c0-.017.994-.616 1.003-.604l.12.183c.224.341.428.458.764.438.302-.018.466-.135.557-.4.036-.104.04-.35.047-2.377l.007-2.26h1.237L8.589 9.8c-.007 2.339-.007 2.347-.061 2.54-.194.697-.65 1.11-1.351 1.22a2.737 2.737 0 0 1-.68.025zm4.788.001c-.64-.046-1.197-.295-1.603-.717-.18-.187-.401-.51-.37-.542.012-.01.239-.146.504-.3l.482-.278.074.113c.112.173.376.421.526.495a1.51 1.51 0 0 0 1.024.092c.28-.087.477-.315.478-.558a.538.538 0 0 0-.151-.404c-.134-.144-.338-.262-.818-.47-.806-.347-1.18-.586-1.42-.902-.237-.312-.333-.622-.335-1.072 0-.345.039-.516.185-.797.222-.428.64-.715 1.208-.83a3.18 3.18 0 0 1 1.04.027c.37.097.71.312.932.59.136.17.225.31.207.327l-.472.316c-.46.306-.46.307-.497.253-.182-.272-.36-.413-.577-.458-.344-.071-.667.058-.772.31a.786.786 0 0 0 .013.48c.086.19.245.294.853.558.493.215.873.41 1.077.556.23.164.48.442.58.647.141.29.172.444.17.845-.002.314-.01.373-.068.55-.268.817-1.112 1.251-2.27 1.169z" transform="translate(-1.787 -1.78) scale(1.72303)"/></g></svg>