<svg width="16" height="16" viewBox="0 0 24 24" xmlns="http://www.w3.org/2000/svg"><g fill="#ffca28" fill-opacity=".9"><path d="M17.778 7.747v2h2v10h-10v-2h-2v4h14v-14z"/><path d="M2.222 2.253h14.136V16.39H2.222V2.253m3.714 11.811c.315.668.935 1.217 1.995 1.217 1.178 0 1.987-.628 1.987-2.002v-4.54H8.583v4.509c0 .675-.275.848-.707.848-.455 0-.644-.314-.856-.684l-1.084.652m4.697-.141c.392.77 1.186 1.358 2.426 1.358 1.257 0 2.2-.651 2.2-1.853 0-1.107-.637-1.602-1.768-2.089l-.33-.141c-.573-.244-.816-.408-.816-.801 0-.322.243-.573.636-.573.377 0 .628.165.856.573l1.029-.683c-.432-.754-1.045-1.045-1.885-1.045-1.186 0-1.948.754-1.948 1.751 0 1.084.636 1.595 1.594 2.003l.33.141c.613.267.974.432.974.888 0 .377-.353.651-.903.651-.652 0-1.029-.337-1.312-.808z"/></g><path style="fill:#000;fill-opacity:.3;stroke:#060604;stroke-width:.00576611" d="M5.05 10.164a1.65 1.65 0 0 1-.534-.174c-.19-.107-.534-.492-.535-.598 0-.012.157-.116.35-.231l.35-.21.05.088c.072.13.198.265.288.31a.645.645 0 0 0 .426.028c.163-.054.244-.173.273-.399.01-.076.019-.815.019-1.641V5.833h.86v1.621c0 1.748-.002 1.774-.102 2.02a1.102 1.102 0 0 1-.805.661 2.24 2.24 0 0 1-.64.03zm3.399.001a1.951 1.951 0 0 1-.856-.308c-.185-.127-.492-.49-.476-.563.002-.014.16-.113.348-.222l.344-.199.061.092a.978.978 0 0 0 .592.42c.163.034.434.016.55-.036.18-.08.277-.216.277-.385 0-.246-.123-.363-.607-.574-.618-.27-.82-.391-1.015-.603-.186-.204-.279-.439-.3-.76-.035-.552.288-1.009.833-1.178.127-.04.182-.045.468-.045.361 0 .492.027.726.15.131.069.397.324.462.444l.043.079-.336.223a5.408 5.408 0 0 1-.34.218.775.775 0 0 0-.327-.33c-.386-.161-.758.107-.656.472.045.162.178.258.62.45.394.17.52.233.707.358.427.282.62.659.593 1.153-.017.304-.106.525-.29.723-.301.326-.835.484-1.421.421Z" transform="scale(1.5)"/></svg>