<svg xmlns="http://www.w3.org/2000/svg" width="16" height="16" viewBox="0 -2 16 16"><path class="i-color" fill="#c792ea" d="M6.157 9.998c-.33.088-.924.3-.763.725a2.101 2.023 0 001.484.636 6.818 6.564 0 003.884-.567c-.412-.127-.799-.363-1.18-.509a7.41 7.134 0 01-3.393.025c.056-.128.562-.425.14-.332l-.172.012zm-.355-1.561a.966.93 0 00-.862.73 1.592 1.533 0 001.25.586 11.081 10.67 0 004.9-.45 2.373 2.285 0 01-.977-.518 10.648 10.252 0 01-4.267.116c-.196-.1.2-.287.223-.388.394-.327-.138-.048-.268-.076zm5.552-6.561a5.374 5.174 0 00-3.113 1.828 2.01 1.936 0 00.441 2.29.934.899 0 01-.166 1.319c-.43.364.066.3.315.125A1.747 1.682 0 009.858 5.65c-.207-.572-.97-1.048-.7-1.72.526-.921 1.623-1.325 2.449-1.952.317-.205-.13-.077-.252-.106zm-6.717 9.152a3.115 3 0 00-1.951.743c-.253.288.11.617.407.65a21.923 21.108 0 007.85.1 3.717 3.579 0 001.972-.774c.228-.375-.309-.65-.623-.673a1.653 1.592 0 00.22.42 2.467 2.375 0 01-1.322.436 23.5 22.626 0 01-6.66.031 2.306 2.22 0 01-.723-.223 2.485 2.392 0 011.732-.332 1.246 1.2 0 00-.909-.371zM6.28 6.811a4.815 4.636 0 00-2.416.703c-.25.228.062.526.32.555a14.475 13.937 0 004.584.17 5.9 5.68 0 002.078-.446 3.031 2.919 0 00.723-.43c-.812-.047-1.607.212-2.415.24a15.763 15.177 0 01-3.96-.019c-.203-.045.157-.151.213-.186.469-.202.986-.248 1.433-.493a1.62 1.56 0 00-.562-.094zm5.912-.135a1.053 1.014 0 00-1.01.594c-.2.263.33-.12.513-.117a.772.743 0 01.992.94 3.845 3.702 0 01-1.61 1.414c-.476.377-.324.395.182.213a3.063 2.95 0 002.315-1.645 1.243 1.197 0 00-1.382-1.402zM9.43-.884a2.425 2.335 0 01-.867 2.414c-.8.769-1.95 1.295-2.425 2.334-.312.888.411 1.699.992 2.303a10.216 9.836 0 001.266 1.11c-.212-1.04-1.407-1.711-1.3-2.831.214-1.075 1.376-1.546 2.043-2.32a2.666 2.567 0 00.756-2.793 3.628 3.493 0 00-.576-.71l.11.492zm3.931 12.827a4.112 3.959 0 01-1.964.743 22.156 21.333 0 01-7.175.083 4.02 3.87 0 002.503.678 16.839 16.213 0 005.812-.469 1.243 1.197 0 001.065-1.22c.044-.385-.157.123-.242.19z" stroke-width="1.082"/></svg>