<svg xmlns="http://www.w3.org/2000/svg" width="16" height="16" viewBox="0 0 16 16" preserveAspectRatio="xMidYMid"><defs><linearGradient x1="7.758" y1="13.697" x2="120.537" y2="109.821" id="a" gradientTransform="matrix(.06452 0 0 .05295 .64 1.532)" gradientUnits="userSpaceOnUse"><stop stop-color="#AA4A9B" offset="0%"/><stop stop-color="#F05922" offset="100%"/></linearGradient><linearGradient x1="38.732" y1="281.517" x2="190.56" y2="141.661" id="b" gradientTransform="matrix(.07512 0 0 .04548 .64 1.532)" gradientUnits="userSpaceOnUse"><stop stop-color="#FFE42E" offset="0%"/><stop stop-color="#ED417C" offset="100%"/></linearGradient><linearGradient x1="65.594" y1="177.899" x2="148.764" y2="86.018" id="c" gradientTransform="matrix(.04967 0 0 .06878 .64 1.532)" gradientUnits="userSpaceOnUse"><stop stop-color="#FFE42E" offset="0%"/><stop stop-color="#F05922" offset="100%"/></linearGradient></defs><path d="M8.985 7.688 2.564 1.855a1.127 1.177 0 1 0-1.314 1.89L8.473 8.43l.033.022a.437.456 0 1 0 .48-.763z" fill="url(#a)"/><path d="M15.269 8.62a1.594 1.665 0 0 0-2.42-1.356L3.83 12.625l-.015.009a.809.845 0 1 0 .63 1.556l9.825-3.96.024-.011a1.594 1.665 0 0 0 .974-1.598z" fill="url(#b)"/><path d="M8.007 8.371a.437.456 0 0 0-.741-.477L3.459 12.94l-.008.017a.808.845 0 1 0 1.4.837L7.98 8.416a.451.451 0 0 0 .027-.045z" fill="url(#c)"/><path d="M5.314 5.342h5.228v5.461H5.314z"/><path d="M7.277 7.905 7.143 7.7a.27.281 0 0 0 .175-.275.266.278 0 0 0-.076-.207.377.394 0 0 0-.277-.096h-.403.004v.889h.236v-.27h.102l.172.27h.158l-.001.002h.247l.06-.16h.331l.06.16h.254l-.363-.897h-.227zM5.765 9.779h1.96v.341h-1.96zm-.022-3 .152-.15a.172.18 0 0 0 .134.083.102.107 0 0 0 .096-.124v-.563h.235v.564a.317.33 0 0 1-.084.25.32.335 0 0 1-.234.09.348.364 0 0 1-.299-.15zm.671-.754H7.1v.209h-.452v.136h.41v.195h-.41v.14h.458v.215h-.692zm.995.216h-.254v-.214h.746v.214h-.255v.675H7.41V6.24zm-1.644.882H6.2a.319.333 0 0 1 .233.08.192.2 0 0 1 .054.144.197.205 0 0 1-.131.198.205.214 0 0 1 .169.214c0 .153-.119.245-.323.245h-.44v-.88zm.491.275c0-.049-.037-.076-.102-.076h-.155v.157h.149c.072 0 .113-.026.113-.077l-.004-.004zm-.081.253h-.18v.164h.182c.072 0 .112-.03.112-.082.001-.053-.035-.082-.114-.082zm.78-.1a.102.107 0 0 0 .127-.107.102.107 0 0 0-.128-.107H6.8v.215zm.845.11-.096-.252-.096.252H7.8zm.413-.538h.235v.89h-.235v-.89zm.295 0h.22l.35.471v-.47h.234v.89h-.205l-.365-.488v.488H8.51v-.89zm.819.758.13-.164a.442.461 0 0 0 .277.107c.065 0 .103-.022.103-.06 0-.04-.028-.057-.145-.087-.181-.043-.321-.097-.321-.279 0-.164.125-.284.33-.284a.536.56 0 0 1 .35.117l-.118.175a.418.437 0 0 0-.239-.088c-.057 0-.085.025-.085.057 0 .04.03.059.149.087.195.045.317.107.317.277 0 .182-.138.29-.345.29a.597.624 0 0 1-.403-.148z" fill="#fff"/></svg>