<svg width="16" height="16" viewBox="0 0 16 16" xmlns="http://www.w3.org/2000/svg"><path d="M5 5.293 3.396 6.897l.708.707L6 5.707V3H5v2.293Zm1 4.656c-.166.019-.329.051-.5.051a4.49 4.49 0 0 1-3.182-1.318A4.486 4.486 0 0 1 1 5.5c0-1.288.541-2.449 1.407-3.269A4.489 4.489 0 0 1 5.5 1a4.49 4.49 0 0 1 3.182 1.318A4.486 4.486 0 0 1 10 5.5c0 .069-.018.133-.021.201l-1.081.6C8.96 6.043 9 5.777 9 5.5c0-.965-.393-1.84-1.026-2.474a3.493 3.493 0 0 0-4.948 0 3.493 3.493 0 0 0 0 4.948A3.493 3.493 0 0 0 5.5 9c.171 0 .335-.027.5-.051v1Zm0 0" fill="#6E6E6E"/><path d="m7.515 8.214 3.985 2.214 3.985-2.214L11.5 6Z" fill="#86b918"/><path d="M11.5 11.572 7 9.073V13.5l4.5 2.5 4.5-2.5V9.073Z" fill="#86b918"/></svg>