<svg version="1.0" width="16" height="16" viewBox="0 0 1024 1023" xmlns="http://www.w3.org/2000/svg"><path d="M293.604 41.171c-53.815 2.488-89.016 9.768-120.44 24.789-17.047 8.109-33.266 18.153-45.89 28.382l-2.673 2.12 24.697 24.695 24.788 24.789 7.464-3.594c12.164-5.806 20.089-7.556 35.11-7.649 14.375 0 20.733 1.198 32.344 5.99 19.628 8.202 36.307 24.88 44.508 44.509 4.792 11.61 5.99 17.969 5.99 32.344-.092 15.02-1.843 22.946-7.648 35.11l-3.594 7.464 90.491 90.399 90.4 90.307 7.371-3.594c11.98-5.806 19.997-7.556 35.017-7.649 14.376 0 20.734 1.198 32.345 5.99 19.628 8.202 36.307 24.88 44.508 44.509 4.7 11.334 5.99 18.061 5.99 31.884 0 8.662-.46 14.375-1.566 18.706-7.649 30.778-31.331 54.46-62.11 62.11-8.57 2.119-28.842 2.119-37.412 0-30.779-7.65-54.461-31.332-62.11-62.11-1.105-4.331-1.566-10.044-1.566-18.706 0-13.454 1.198-20.273 5.529-31.055l2.396-6.082-91.505-91.597c-60.174-60.174-92.058-91.413-92.98-91.136-.737.276-3.962 1.382-7.095 2.58l-5.805 2.12v432.367l3.962 1.198c2.12.645 6.358 2.396 9.4 3.962 22.392 11.243 38.334 31.24 44.416 55.66 2.119 8.569 2.119 28.842 0 37.412-7.649 30.778-31.331 54.46-62.11 62.11-8.57 2.119-28.843 2.119-37.412 0-30.779-7.65-54.461-31.332-62.11-62.11-2.119-8.57-2.119-28.843 0-37.413 6.082-24.42 22.024-44.416 44.417-55.659 3.04-1.566 7.28-3.317 9.491-3.962l3.87-1.198V296.611l-3.87-1.198c-15.112-4.515-32.529-17.97-42.112-32.713-9.584-14.652-13.362-27.46-13.362-45.614 0-13.454 1.198-20.273 5.529-31.055l2.396-5.99-25.157-25.249-25.157-25.157-4.884 6.635c-11.242 15.389-23.867 39.624-30.225 57.778-9.307 26.724-14.007 56.672-16.126 102.747-1.198 27.185-1.198 402.235 0 429.42 2.856 60.265 9.583 92.334 26.723 127.166 12.348 24.973 26.17 44.232 44.785 62.202 17.6 16.955 34.464 28.658 57.962 40.085 34.096 16.771 66.625 23.498 126.246 26.263 27.184 1.197 403.156 1.197 430.34 0 59.621-2.765 92.15-9.492 126.246-26.263 23.498-11.427 40.361-23.13 57.962-40.085 18.614-17.97 32.437-37.23 44.785-62.202 17.14-34.832 23.867-66.9 26.724-127.167 1.197-27.184 1.197-402.234 0-429.419-2.765-59.62-9.492-92.15-26.263-126.245-11.427-23.498-23.13-40.362-40.085-57.963-17.97-18.614-37.23-32.436-62.202-44.784-34.832-17.14-66.9-23.867-127.167-26.724-24.235-1.106-409.422-1.014-433.565.092zm495.86 83.765c5.805 2.856 105.696 102.655 109.29 109.105 3.501 6.45 3.686 15.481.276 22.116-1.75 3.502-19.997 22.208-76.3 78.235-40.638 40.639-75.932 75.195-78.328 76.946-5.437 3.962-13.73 7.832-21.47 10.044-5.345 1.474-10.23 1.659-54.277 1.659h-48.379l-4.607-2.12c-5.99-2.764-9.952-6.727-12.625-12.532-2.12-4.7-2.12-4.884-2.396-49.392-.276-46.352.092-52.434 3.594-63.031 4.608-13.823 4.055-13.178 83.672-92.98 40.823-41.006 75.748-75.47 77.59-76.668 1.844-1.198 4.792-2.58 6.451-3.133 4.608-1.383 12.809-.553 17.509 1.75zM419.48 752.846c2.673 2.672 3.134 3.778 3.134 7.464 0 3.686-.461 4.792-3.134 7.464-2.672 2.672-3.778 3.133-7.464 3.133-3.686 0-4.792-.46-7.464-3.133-2.672-2.672-3.133-3.778-3.133-7.464 0-3.686.46-4.792 3.133-7.464 2.672-2.673 3.778-3.133 7.464-3.133 3.686 0 4.792.46 7.464 3.133zm134.54 0c2.672 2.672 3.133 3.778 3.133 7.464 0 3.686-.461 4.792-3.134 7.464-2.672 2.672-3.778 3.133-7.464 3.133-3.686 0-4.792-.46-7.464-3.133-2.672-2.672-3.133-3.778-3.133-7.464 0-3.686.46-4.792 3.133-7.464 2.672-2.673 3.778-3.133 7.464-3.133 3.686 0 4.792.46 7.464 3.133zm47.365 17.6v9.676h17.508v14.744h-17.6l.276 22.945c.276 21.01.46 23.13 2.027 24.88 2.488 2.765 7.28 3.318 13.178 1.752l4.976-1.475-.277 7.464-.276 7.465-5.53 1.75c-4.146 1.29-7.556 1.66-13.822 1.383-11.703-.553-17.785-3.963-21.194-11.98-1.106-2.856-1.382-8.017-1.382-28.843v-25.341h-9.215v-5.898c0-5.529.092-5.897 2.395-6.45 3.87-1.014 10.598-7.925 13.362-13.915 1.475-3.04 2.673-6.082 2.673-6.727 0-.737 1.935-1.105 6.45-1.105h6.45zm166.791 10.413c12.532 5.621 20.273 19.905 20.273 37.69v7.648l-24.604.184c-21.287.277-24.696.461-24.512 1.659 1.29 12.072 6.543 16.956 18.246 16.956 6.727 0 12.348-2.028 16.771-6.082 1.106-1.014 2.304-1.659 2.765-1.383.46.277 2.764 3.041 5.16 5.99l4.331 5.53-3.225 2.856c-10.229 8.938-29.673 12.532-42.758 7.925-17.508-6.174-27.737-27.553-23.775-49.853 2.857-15.942 11.704-26.355 25.71-30.318 6.727-1.935 20.089-1.29 25.618 1.198zm79.065 8.294.276 10.32-3.686-.552c-8.017-1.29-14.467 2.12-17.693 9.307-1.474 3.225-1.75 6.358-1.75 27.368v23.775h-21.195v-79.249h20.18l.646 5.621c.46 4.516.83 5.345 1.566 3.963 3.318-6.45 11.98-11.52 18.615-11.15l2.764.184zm-359.385-7.74c2.488 1.29 4.976 2.948 5.62 3.685 1.844 2.212 2.673 1.751 3.41-1.75l.553-3.226h19.26l-.277 43.034-.276 43.126-2.673 4.884c-3.133 5.53-8.754 10.137-16.218 13.178-6.358 2.488-22.3 3.41-32.068 1.75-6.082-1.013-18.614-6.081-19.812-8.017-.553-.829 6.358-15.02 7.28-15.02.184 0 2.487 1.474 5.068 3.225 13.73 9.4 31.33 7.28 35.754-4.423.553-1.474 1.014-4.884 1.014-7.74v-5.069l-3.134 2.765c-4.515 3.87-8.846 5.068-17.047 4.607-8.478-.553-12.901-2.58-18.43-8.57-4.608-5.068-7.096-10.136-8.847-18.706-4.33-20.457 2.765-39.901 17.232-47.089 7.557-3.778 16.864-4.054 23.59-.645zM422.43 825.92c-.276 44.969-.276 45.982-2.304 49.576-2.395 4.516-6.266 8.294-9.952 9.676-3.133 1.198-12.164 1.474-17.877.46l-3.778-.644v-14.1l3.962.277c4.884.369 6.912-1.106 8.018-5.805.46-2.028.921-22.024.921-44.509v-40.73h21.287zm134.724-6.174v39.624h-21.195v-79.249h21.195zm100.35-36.676a2502.03 2502.03 0 0 1 8.018 29.764c3.87 14.652 7.372 27 7.648 27.369.277.368 4.424-12.993 9.215-29.765l8.662-30.317h18.891l-4.515 14.468c-2.488 8.017-7.925 25.71-12.164 39.44l-7.648 24.88h-27.277l-11.703-37.32c-6.45-20.55-12.071-38.243-12.44-39.44l-.645-2.028h22.945z" style="stroke-width:.97"/><path d="M654.556 335.406c-6.082 2.212-11.058 6.82-14.283 12.993-8.662 16.956 5.713 37.874 24.88 36.215 9.031-.737 16.587-5.99 20.642-14.283 6.266-12.625 1.106-27.369-11.887-34.003-3.963-2.12-14.837-2.58-19.352-.922zm92.426 460.197c-3.778 2.028-7.187 8.017-7.556 13.546l-.276 3.686 13.73.277 13.73.276-.645-5.252c-1.105-9.215-4.423-13.362-11.334-13.915-3.133-.276-5.345.092-7.648 1.382zm-269.723-.184c-1.843.921-3.778 3.04-5.068 5.805-1.935 3.779-2.12 5.622-2.12 16.68 0 10.597.277 12.993 1.844 16.034 2.672 5.252 6.082 7.464 11.61 7.372 5.069-.093 7.741-1.843 9.676-6.543 1.843-4.239 1.751-29.58 0-33.911-2.395-5.806-10.136-8.386-15.942-5.437z" style="stroke-width:.97"/></svg>