<svg xmlns="http://www.w3.org/2000/svg" version="1.0" width="16" height="16" viewBox="0 0 200 200"><path d="M7.53 100.909v93.334h185.199V7.575H7.53zm115.75-81.014c1.944 7.093 2.87 15.213 2.314 19.227-.555 3.546-.74 3.92-2.778 3.36-1.296-.28-4.352-.094-6.852.56-4.537 1.026-4.537 1.026-12.686-3.64-12.964-7.28-12.594-6.907-8.704-10.36 5.463-5.04 9.722-7.56 17.779-10.36 4.26-1.494 8.148-2.707 8.796-2.707.649 0 1.575 1.773 2.13 3.92zM97.906 44.162l7.964 4.666-2.778 2.987c-10.557 11.2-14.724 36.867-7.316 45.174 1.297 1.4 1.112 2.147-2.222 7.653-1.945 3.36-3.704 6.44-3.89 6.907-.184.467-6.11-2.52-13.24-6.627-7.038-4.106-14.539-8.493-16.576-9.706-2.037-1.12-3.889-2.24-4.074-2.334-.185-.186 1.204-2.706 2.963-5.693 4.722-8.027 24.816-43.307 26.39-46.294 1.575-3.173 2.223-2.987 12.78 3.267zm65.56 1.586c.833 3.64 1.482 9.52 1.482 13.16 0 6.534-1.482 15.027-2.686 14.84-.278 0-4.907-2.613-10.186-5.786-8.89-5.32-9.722-6.067-10.741-9.613-.648-2.147-1.852-4.854-2.685-6.067-.834-1.213-1.482-2.52-1.482-2.894 0-2.053 17.872-9.893 22.872-9.986 1.667-.094 2.222.746 3.426 6.346zm-97.414-2.8 10 .56-3.518 6.067c-1.944 3.36-6.852 11.76-10.834 18.667-3.982 6.907-7.315 12.693-7.408 12.88-.092.093-4.074-1.493-8.89-3.453-22.964-9.614-27.223-11.387-27.501-11.76-.185-.187 2.593-5.6 6.297-12.04l6.574-11.76 12.686.093c6.945.093 17.13.373 22.594.746zm60.745 7.934c7.87 4.2 10.278 11.667 6.76 21.093-5.556 14.747-23.15 27.254-31.02 22.12-3.15-2.146-4.446-8.68-3.242-16.986 2.13-15.214 11.482-27.534 20.927-27.534 2.223 0 5.186.56 6.575 1.307zm24.539 24.36 8.796 5.227-10.278 17.92c-5.649 9.893-12.593 22.12-15.557 27.254-2.963 5.133-5.648 9.24-6.111 9.146-1.296-.28-30.28-17.173-31.576-18.48-1.111-1.027-1.111-1.587.092-3.36.741-1.213 2.408-4.107 3.704-6.347 2.13-3.92 2.408-4.106 6.76-4.293 2.5-.093 6.39-1.027 8.704-2.053 9.538-4.294 20.465-15.96 23.798-25.574.926-2.52 1.945-4.573 2.223-4.573.37 0 4.537 2.333 9.445 5.133zm15.556 26.787c2.87 4.76 7.964 13.253 11.39 18.76 3.333 5.507 6.111 10.267 6.111 10.547 0 .747-13.149 23.707-13.612 23.707-.185 0-3.981-2.894-8.426-6.347-6.482-5.04-22.039-16.8-23.15-17.453-.092-.094 2.5-4.947 5.926-10.827 3.334-5.88 8.242-14.28 10.742-18.854 2.593-4.48 4.908-8.12 5.278-8.12.278 0 2.963 3.92 5.741 8.587zm-97.877 6.44 7.964 4.667v7c0 6.907-1.39 14.933-2.778 15.773-.833.56-31.484-17.08-31.484-18.107 0-1.4 7.223-7.56 12.409-10.733 3.055-1.867 5.648-3.36 5.74-3.36.093 0 3.797 2.147 8.15 4.76zm-24.446 19.6c0 .467-3.055 6.254-6.852 12.787A6649.169 6649.169 0 0 0 22.81 166.71c-4.445 7.653-8.242 14.186-8.427 14.373-.185.187-.37-2.52-.37-6.067v-6.533l12.686-22.027 12.593-22.12 2.686 1.4c1.389.747 2.592 1.773 2.592 2.333zm64.079 3.454 7.685 4.48-.092 8.4c-.093 4.573-.741 9.893-1.39 11.76l-1.296 3.453-14.352-8.307c-7.871-4.666-14.909-8.773-15.65-9.24-2.5-1.493 4.908-8.773 14.26-13.906 2.593-1.494 2.316-1.587 10.835 3.36zm-53.8 1.773 2.593 1.587-2.871 5.133c-7.964 14.373-26.205 45.547-27.131 46.574-.649.746-2.5 1.12-4.538.933l-3.426-.28 9.538-16.333c5.278-8.96 12.5-21.467 16.02-27.72 3.61-6.347 6.666-11.48 6.759-11.48.185 0 1.574.746 3.056 1.586zm12.964 7.653 2.13 1.68-6.946 12.04c-3.889 6.627-9.63 16.707-12.963 22.494l-5.927 10.453-3.889.094H36.33l1.667-2.987c1.018-1.68 6.667-11.667 12.593-22.213 15.186-26.787 13.52-24.64 17.224-21.56zm16.575 10.174c0 .373-4.538 8.587-10.094 18.387l-10 17.733-3.797.28c-2.13.187-3.889.093-3.889-.187 0-.373 4.074-7.746 16.39-29.213l5.926-10.547 2.778 1.4c1.482.84 2.686 1.773 2.686 2.147zm10.278 5.32 2.778 1.493-3.519 6.254c-13.797 24.826-12.408 23.053-16.853 23.333l-3.981.28 2.963-5.413c7.223-13.347 15.186-27.347 15.464-27.347.185 0 1.574.653 3.148 1.4zm12.408 7.187c2.871 1.306 2.778 1.866-4.074 14.373l-5.185 9.613-3.982.094H89.85l4.26-7.654c2.315-4.293 5.37-9.986 6.76-12.693 2.685-5.32 2.685-5.32 6.203-3.733z" fill="#EEE"/></svg>