<svg viewBox="0 0 16 16" width="16" height="16" xmlns="http://www.w3.org/2000/svg"><path fill="#efba12" d="M9.68 4.588 6.367 8.076q-.225.23.01.454l1.056 1.03q.219.21 0 .418l-.5.475a.296.296 0 0 1-.413-.005c-.847-.852-2.407-1.765-1.168-3.086Q7.166 5.42 9.125 3.4a1.091 1.091 0 0 1 1.54-.026l4.294 4.116a.847.852 43.9 0 1 .02 1.198l-4.472 4.661a.48.48 0 0 1-.633.057l-1.219-.908q-.336-.25-.025-.53l.515-.455a.306.306 0 0 1 .449.051l.199.27q.199.271.428.026l3.381-3.529q.235-.24-.01-.47l-3.447-3.283q-.235-.225-.464.01Z" style="stroke-width:.509985"/><path fill="#529715" d="m5.743 4.822-3.3 3.315a.296.3 44.7 0 0 0 .423l3.402 3.305a.311.316 44 0 0 .444-.01l3.284-3.381a.393.398 44.2 0 0-.004-.561L8.54 6.908q-.266-.25.02-.48l.485-.397q.244-.199.464.025l1.407 1.428a1.066 1.06 45.1 0 1 0 1.495l-4.182 4.217a.964.964 0 0 1-1.351.016l-4.32-4.136a.918.918 0 0 1-.026-1.3L5.32 3.291a.602.617 29.1 0 1 .582-.173q.943.22 1.596.984a.617.617 0 0 1-.75.949l-.571-.296q-.24-.128-.434.066Z" style="stroke-width:.509985"/></svg>