<svg width="16" height="16" viewBox="0 0 16 16" xmlns="http://www.w3.org/2000/svg"><g transform="matrix(.08013 0 0 .0706 -1.631 -.26)"><rect width="5" height="5" x="60" y="25" fill="#ffca28" rx="2.5" ry="2.5"/><rect width="10" height="5" x="115" y="25" fill="#ef6c00" rx="2.5" ry="2.5"/><rect width="5" height="5" x="175" y="25" fill="#ffca28" rx="2.5" ry="2.5"/><rect width="17" height="5" x="60" y="35" fill="#ffca28" rx="2.5" ry="2.5"/><rect width="30" height="5" x="105" y="35" fill="#ef6c00" rx="2.5" ry="2.5"/><rect width="17" height="5" x="163" y="35" fill="#ffca28" rx="2.5" ry="2.5"/><rect width="30" height="5" x="60" y="45" fill="#ffca28" rx="2.5" ry="2.5"/><rect width="40" height="5" x="100" y="45" fill="#ef6c00" rx="2.5" ry="2.5"/><rect width="30" height="5" x="150" y="45" fill="#ffca28" rx="2.5" ry="2.5"/><rect width="35" height="5" x="60" y="55" fill="#ffca28" rx="2.5" ry="2.5"/><rect width="30" height="5" x="105" y="55" fill="#ef6c00" rx="2.5" ry="2.5"/><rect width="35" height="5" x="145" y="55" fill="#ffca28" rx="2.5" ry="2.5"/><rect width="40" height="5" x="60" y="65" fill="#ffca28" rx="2.5" ry="2.5"/><rect width="20" height="5" x="110" y="65" fill="#ef6c00" rx="2.5" ry="2.5"/><rect width="40" height="5" x="140" y="65" fill="#ffca28" rx="2.5" ry="2.5"/><rect width="40" height="5" x="60" y="75" fill="#ffca28" rx="2.5" ry="2.5"/><rect width="20" height="5" x="110" y="75" fill="#ef6c00" rx="2.5" ry="2.5"/><rect width="40" height="5" x="140" y="75" fill="#ffca28" rx="2.5" ry="2.5"/><rect width="40" height="5" x="60" y="85" fill="#ffca28" rx="2.5" ry="2.5"/><rect width="20" height="5" x="110" y="85" fill="#ef6c00" rx="2.5" ry="2.5"/><rect width="40" height="5" x="140" y="85" fill="#ffca28" rx="2.5" ry="2.5"/><rect width="35" height="5" x="65" y="95" fill="#ffca28" rx="2.5" ry="2.5"/><rect width="10" height="5" x="115" y="95" fill="#ef6c00" rx="2.5" ry="2.5"/><rect width="35" height="5" x="140" y="95" fill="#ffca28" rx="2.5" ry="2.5"/><rect width="40" height="5" x="70" y="105" fill="#ffca28" rx="2.5" ry="2.5"/><rect width="40" height="5" x="130" y="105" fill="#ffca28" rx="2.5" ry="2.5"/><rect width="90" height="5" x="75" y="115" fill="#ffca28" rx="2.5" ry="2.5"/><rect width="5" height="5" x="30" y="125" fill="#00c853" rx="2.5" ry="2.5"/><rect width="70" height="5" x="85" y="125" fill="#ffca28" rx="2.5" ry="2.5"/><rect width="5" height="5" x="205" y="125" fill="#00c853" rx="2.5" ry="2.5"/><rect width="25" height="5" x="30" y="135" fill="#00c853" rx="2.5" ry="2.5"/><rect width="50" height="5" x="95" y="135" fill="#ffca28" rx="2.5" ry="2.5"/><rect width="25" height="5" x="185" y="135" fill="#00c853" rx="2.5" ry="2.5"/><rect width="30" height="5" x="35" y="145" fill="#00c853" rx="2.5" ry="2.5"/><rect width="20" height="5" x="110" y="145" fill="#00c853" rx="2.5" ry="2.5"/><rect width="30" height="5" x="175" y="145" fill="#00c853" rx="2.5" ry="2.5"/><rect width="45" height="5" x="40" y="155" fill="#00c853" rx="2.5" ry="2.5"/><rect width="20" height="5" x="110" y="155" fill="#00c853" rx="2.5" ry="2.5"/><rect width="45" height="5" x="155" y="155" fill="#00c853" rx="2.5" ry="2.5"/><rect width="50" height="5" x="45" y="165" fill="#00c853" rx="2.5" ry="2.5"/><rect width="20" height="5" x="110" y="165" fill="#00c853" rx="2.5" ry="2.5"/><rect width="50" height="5" x="145" y="165" fill="#00c853" rx="2.5" ry="2.5"/><rect width="50" height="5" x="55" y="175" fill="#00c853" rx="2.5" ry="2.5"/><rect width="20" height="5" x="110" y="175" fill="#00c853" rx="2.5" ry="2.5"/><rect width="50" height="5" x="135" y="175" fill="#00c853" rx="2.5" ry="2.5"/><rect width="120" height="5" x="60" y="185" fill="#00c853" rx="2.5" ry="2.5"/><rect width="100" height="5" x="70" y="195" fill="#00c853" rx="2.5" ry="2.5"/><rect width="70" height="5" x="85" y="205" fill="#00c853" rx="2.5" ry="2.5"/></g></svg>