<svg width="16" height="16" viewBox="0 0 16 16" xmlns="http://www.w3.org/2000/svg"><path fill="#d08c43" d="M15.287.644a.066.065 0 0 1 .093-.01l.027.016a.6 1.302 38.567 0 1-.339 1.39l-.454.571a.6 1.302 38.567 0 1-1.285.652l-.022-.021a.066.065 0 0 1-.01-.093zm-1.214 7.461c-2.1-1.625-4.981-.734-3.997 2.445q-.71-.169-1.372.26l-.05-3.015q-.005-.418-.426-.413l-.722.005a.421.413.27 0 0-.415.403l-.17 4.922q-.716-.255-.35-1.526a.683.68 0 0 0-1.11-.701q-1.202 1.043-2.722.527a.312.31 0 0 1-.126-.5l.87-.951a.618.614 0 0 0-.58-1.016l-2.05.418a.317.315 0 0 1-.378-.31v-.217q.005-.587.596-.646l1.875-.18q.252-.021.301-.266l.038-.185a.246.25 20.828 0 0-.158-.282l-1.072-.392a.323.32 0 0 1 .088-.619l1.082-.081a.268.266 0 0 0 .148-.479c-.629-.478-2.018-.831-2.4-1.304Q.725 3.698.824 3.35a.437.435 0 0 1 .716-.2c1.367 1.227 3.877 2.33 4.303-.588a.596.592 0 0 1 1.17-.049c.388 1.669 3.171 1.745 3.188-.255q.005-.967.907-1.19.307-.076.318.234.032.95-.733 1.576a.252.25 0 0 0 .12.44l2.007.331a.284.288 20.892 0 1 .224.38l-.47 1.283a.53.527 0 0 0 .787.625l1.044-.669a.46.456 0 0 1 .52.75q-1.012.755-.853 2.087z" style="stroke-width:.545061"/><ellipse fill="#d08c43" cx="4.063" cy=".395" transform="matrix(.85768 .51418 -.5189 .85484 0 0)" rx="1.627" ry=".452" style="stroke-width:.545066"/><path fill="#eaf3ff" d="m14.073 8.105-.126.875-2.089-.24q-.306-.038-.41.256-.17.478.197.402-.12.158-.142.407a.246.24 3.604 0 0 .224.256q3.079.282 2.647 3.287a.794.814 79.617 0 1-.345.549q-2.33 1.608-4.423-.342a.388.386 0 0 1 .12-.641l.94-.37q.438-.174.722.196.301.39.771.63a.794.689 71.776 0 0 .59-1.358q-.83-.604-1.951-.788-.24-.614-.678-.43-.295-.385-.044-.244c-.984-3.179 1.897-4.07 3.997-2.445ZM8.704 10.81l-.432 3.26q-.58.06-.957.452-1.57.196-2.838-.668-.027-.544.59-1.473 1.783 1.81 1.854.331l.17-4.922a.421.413.27 0 1 .415-.403l.722-.005q.421-.005.426.413z" style="stroke-width:.545061"/><path fill="#d08c43" d="m13.947 8.98 1.236.092q.547.038.432.57l-.066.3a.372.364 15.535 0 1-.552.233q-1.695-1.043-3.352-.777-.366.076-.197-.402.104-.294.41-.256Zm-3.827 1.814q.437-.184.678.43-.082.19-.235.217-.137.027-.246-.103-.186-.207-.197-.544zm-5.052 1.587q-.618.93-.59 1.473-.214.695-.635.83-.344.11-.366-.249-.082-1.5 1.59-2.054Zm3.204 1.689q.18.724.005 1.175a.655.658 43.467 0 1-.804.39q-.596-.173-.158-1.113.377-.391.957-.451Z" style="stroke-width:.545061"/></svg>