<svg width="16" height="16" viewBox="0 0 400 400" xmlns="http://www.w3.org/2000/svg"><g fill-rule="evenodd"><path d="M193.431 61.282c-47.653 6.581-55.441 76.674-10.376 93.376 27.366 10.142 56.748-5.735 62.545-33.795 7.161-34.673-18.696-64.204-52.17-59.581m.194 181.83c-26.063 3.522-43.065 26.5-40.08 54.169 2.71 25.142 21.324 41.95 46.456 41.95 28.311 0 48.098-21.503 46.702-50.753-1.377-28.844-25.126-49.143-53.078-45.367" fill="#fbfbfb"/><path d="M184.566 26.834C84.79 35.969 13.556 126.4 28.035 225.554c13.223 90.552 95.713 155.668 187.006 147.615 99.888-8.813 171.428-99.41 156.925-198.73-13.237-90.642-96.161-155.956-187.4-147.604m23.915 34.644c26.585 4.387 43.398 31.147 37.287 59.35-10.695 49.365-80.841 49.365-91.536 0-7.644-35.278 19.587-65.068 54.249-59.35m-.34 181.782c47.524 7.707 53.08 78.987 7.323 93.945-29.034 9.49-57.902-8.447-61.95-38.497-4.588-34.056 21.741-60.78 54.627-55.449" fill="#040404"/></g></svg>