<svg xmlns="http://www.w3.org/2000/svg" width="16" height="16" viewBox="0 0 16 16" display="block"><g fill-rule="evenodd"><path d="M1.287 8.038v6.802h13.565V1.236H1.287v6.802m7.45-5.64c.201.039.215.064.132.245-.084.18-.08.139-.082.787-.002.545-.014.752-.043.781a1.31 1.31 0 0 1-.132.039c-.23.06-.224.053-.251.322a5.886 5.886 0 0 0-.02.212l.523.113.522.11.283.16.282.16.208.344c.114.19.209.344.211.344l.36-.138c.196-.075.358-.135.36-.133.005.005.175 1.179.171 1.182-.024.021-1.17.361-1.198.356a22.999 22.999 0 0 1-.456-.137 10.572 10.572 0 0 0-.426-.127c-.002.002-.013.242-.025.534-.012.292-.023.53-.025.532l-.21.175-.208.173-.162-.005a98.51 98.51 0 0 0-.937-.018l-.775-.012-.25-.156a64.927 64.927 0 0 0-.328-.202c-.093-.057-.094-.028.009-.254a2.11 2.11 0 0 0 .085-.203c0-.01.336-.133.916-.336.532-.186.904-.321.886-.323-.075-.006-1.807-.05-1.9-.047-.174.004-.568-.193-.764-.384-.022-.021-.056-1.094-.036-1.113.272-.25.44-.37.735-.531l.298-.163.41.017c.359.014.415.014.444 0 .019-.01.218-.093.444-.187l.411-.17-.39-.025a30.57 30.57 0 0 0-.407-.025c-.025 0-.273-.347-.284-.399a23.321 23.321 0 0 1-.069-.444l-.06-.402.175-.3c.137-.233.18-.3.199-.3.013 0 .243-.018.513-.04.52-.041.7-.044.861-.012m3.467 2.517c.121.012.2.034.24.066.025.02.038.148.064.642l.003.05-.524.222a51.11 51.11 0 0 1-.543.23c-.022.006-.303-.392-.287-.408.006-.005.087-.038.181-.074l.177-.07a1.89 1.89 0 0 0-.008-.213 1.772 1.772 0 0 1-.006-.222l.102-.129.095-.117.196.006c.108.004.247.011.31.017m-.48.41.02.214c.007.088.015.163.017.165a4.54 4.54 0 0 0 .436-.125c0-.008-.46-.31-.471-.31-.005 0-.006.025-.003.055m-3.015.921c-.112.217-.234.453-.272.524l-.068.13.222-.174.222-.173.007-.078c.003-.042.027-.185.053-.316.072-.369.072-.368-.164.087M6.212 8.821c.145.044.383.11.53.145.148.036.274.07.282.073.009.005-.021.049-.085.124l-.098.116-.117.294-.117.295.355-.009c.196-.004.356-.008.357-.01 0 0 .013-.111.026-.247.023-.224.027-.249.05-.27.014-.012.108-.083.21-.157l.183-.135.193.137.193.138.02.26c.01.144.02.262.022.262l.31-.004.31-.003-.186-.386a9.984 9.984 0 0 1-.182-.39c.002-.002.123-.016.27-.03.248-.026.278-.031.455-.086.105-.032.197-.058.206-.058.009 0 .228.244.488.541.573.658.577.662.967 1.03.705.662.8.787.904 1.17.067.247.095.318.337.835a9 9 0 0 1 .285.66c.041.118.054.096-.116.197a.45.45 0 0 0-.111.079c-.001.044.147.107.639.267.635.208.74.286.593.437-.107.108-.181.119-.794.119-.628 0-.798-.019-.868-.094-.05-.053-.066-.018.191-.406a9.1 9.1 0 0 0 .225-.348c-.002-.001-.211.017-.465.041l-.461.044-.353-.03a4.49 4.49 0 0 1-.365-.039 48.5 48.5 0 0 1-.483-.982l-.472-.972-.713-.456-.712-.456-.296.007c-.163.004-.336.01-.386.014l-.089.007-.595.66-.596.66-.742.717-.741.716-.223.028-.223.029-.462-.066a14.575 14.575 0 0 0-.465-.063c-.002.002.107.153.241.335.134.182.243.337.24.344a2.099 2.099 0 0 1-.088.147l-.085.134h-.45c-.684-.002-.698-.008-.598-.251.048-.116.063-.133.245-.273.315-.243.428-.34.456-.394.009-.016-.013-.04-.129-.137a.723.723 0 0 1-.138-.135c.003-.058 1.565-2.204 1.834-2.52.15-.175.402-.49.562-.699l.29-.38.105-.267c.057-.147.113-.294.123-.327.024-.074-.007-.076.307.018"/><path d="M6.563 4.693a.092.092 0 0 0 .04 0c.01-.003.002-.005-.02-.005s-.03.002-.02.005m.296.012a.093.093 0 0 0 .04 0c.011-.003.002-.006-.02-.006s-.03.003-.02.006m.308.011a.093.093 0 0 0 .04 0c.01-.003.002-.005-.02-.005s-.031.002-.02.005m-1.72.863c0 .022.002.031.005.02a.095.095 0 0 0 0-.04c-.003-.01-.005-.002-.005.02m.011.338c0 .026.003.035.006.02a.126.126 0 0 0 0-.046c-.003-.01-.006.001-.006.026m.012.338c0 .023.002.032.005.02a.094.094 0 0 0 0-.04c-.003-.01-.005-.002-.005.02m.734.616a.124.124 0 0 0 .046 0c.011-.003 0-.005-.026-.005-.025 0-.034.002-.02.005m.41.011a.161.161 0 0 0 .052 0c.014-.002.002-.005-.026-.005-.028 0-.04.003-.026.005m.428.012a.203.203 0 0 0 .057 0c.014-.003 0-.005-.032-.005-.031 0-.043.002-.025.005m.427.011a.161.161 0 0 0 .05 0c.015-.002.003-.005-.025-.005s-.04.003-.025.005m.427.012a.202.202 0 0 0 .057 0c.014-.003 0-.005-.032-.005-.031 0-.043.002-.025.005m1.252.714c0 .022.003.03.005.02a.095.095 0 0 0 0-.04c-.002-.011-.005-.002-.005.02m-1.873.776c.02.002.056.002.08 0 .023-.002.007-.005-.037-.005s-.064.002-.043.005m.683.011c.02.003.056.003.08 0 .023-.002.007-.004-.037-.004s-.063.002-.043.004m.678.012a.202.202 0 0 0 .057 0c.014-.003 0-.005-.031-.005-.032 0-.043.002-.026.005m-.348 1.41c.02.002.056.002.08 0 .024-.003.007-.005-.037-.005s-.063.002-.043.005m-1.343.022a.161.161 0 0 0 .05 0c.015-.002.003-.005-.025-.005s-.04.003-.025.005m3.539.244a.67.67 0 0 0 .073.07.494.494 0 0 0-.062-.07.674.674 0 0 0-.073-.068c-.003 0 .025.03.062.068m-2.742.421a.124.124 0 0 0 .046 0c.01-.003-.001-.005-.026-.005-.025 0-.034.002-.02.005m-.353.011a.124.124 0 0 0 .046 0c.01-.003-.001-.005-.026-.005-.025 0-.034.003-.02.005m-1.37 1.45-.045.05.048-.046c.045-.042.054-.052.045-.052a.507.507 0 0 0-.048.049m-.296.286-.045.049.048-.045c.045-.042.054-.052.045-.052a.51.51 0 0 0-.048.048m-.296.287-.045.048.048-.045c.045-.042.054-.052.045-.052a.51.51 0 0 0-.048.049m-.285.275-.045.049.048-.046c.045-.042.054-.052.045-.052a.505.505 0 0 0-.048.049m-.296.286-.045.049.048-.045c.045-.042.054-.052.045-.052a.514.514 0 0 0-.048.048m-2.092 1.06c.04.003.1.003.137 0 .035-.002.003-.004-.072-.004s-.104.002-.065.004m9.504.034a.092.092 0 0 0 .04 0c.01-.003.002-.005-.02-.005s-.031.002-.02.005" fill="#3e3e3e"/><path d="M8.425 2.379a.3.3 0 0 0 .069 0c.017-.003 0-.005-.037-.005-.038 0-.052.002-.032.005m-1.93 2.314a.092.092 0 0 0 .04 0c.01-.003.002-.005-.02-.005s-.031.002-.02.005m.603.023a.093.093 0 0 0 .04 0c.011-.003.002-.005-.02-.005s-.03.002-.02.005m4.95.195a.123.123 0 0 0 .045 0c.01-.003-.001-.005-.026-.005-.025 0-.034.002-.02.005m-6.6.594c0 .025.002.034.005.02a.126.126 0 0 0 0-.046c-.003-.011-.005 0-.005.026m.011.338c0 .022.003.031.005.02a.094.094 0 0 0 0-.04c-.002-.011-.005-.002-.005.02m.012.338c0 .025.002.034.005.02a.125.125 0 0 0 0-.046c-.003-.01-.005 0-.005.026m.814.69a.16.16 0 0 0 .051 0c.014-.003.003-.005-.025-.005s-.04.002-.026.005m.421.011a.161.161 0 0 0 .052 0c.014-.002.002-.005-.026-.005-.028 0-.04.003-.026.005m.433.012a.161.161 0 0 0 .052 0c.014-.003.002-.005-.026-.005-.028 0-.04.002-.026.005m.428.011a.202.202 0 0 0 .056 0c.014-.002 0-.005-.031-.004-.031 0-.043.002-.025.004m.426.012a.161.161 0 0 0 .052 0c.014-.003.002-.005-.026-.005-.028 0-.04.002-.026.005m1.168.37c0 .022.002.031.005.02a.094.094 0 0 0 0-.04c-.003-.011-.005-.002-.005.02m-.023.562c0 .022.002.03.005.02a.095.095 0 0 0 0-.04c-.003-.012-.005-.003-.005.02m-1.708.558a.49.49 0 0 0 .085 0c.024-.002.004-.005-.043-.005s-.066.003-.042.005m.683.011a.49.49 0 0 0 .085 0c.024-.002.005-.004-.042-.004s-.066.002-.043.004m.33 1.422a.496.496 0 0 0 .086 0c.023-.003.004-.005-.043-.005s-.066.002-.043.005m-1.406.022a.123.123 0 0 0 .045 0c.011-.003 0-.005-.025-.005s-.034.003-.02.005m-.399.012a.161.161 0 0 0 .051 0c.015-.003.003-.005-.025-.005s-.04.002-.026.005m1.378.642a.124.124 0 0 0 .046 0c.01-.004 0-.006-.026-.006-.025 0-.034.003-.02.006m-.353.011a.124.124 0 0 0 .046 0c.01-.003 0-.005-.026-.005-.025 0-.034.002-.02.005m-1.564 1.381-.033.038.037-.034c.034-.031.042-.04.033-.04a.285.285 0 0 0-.037.036m-.296.287-.033.037.037-.033c.034-.032.042-.041.033-.041a.284.284 0 0 0-.037.037m-.296.287-.033.037.037-.034c.034-.031.042-.04.033-.04a.287.287 0 0 0-.037.037m-.285.275-.033.037.037-.034c.034-.031.042-.04.033-.04a.286.286 0 0 0-.037.037m-.296.286-.033.037.037-.033c.034-.032.042-.041.033-.041a.283.283 0 0 0-.037.037m-1.91 1.14c.04.003.102.003.138 0 .035-.002.003-.004-.072-.004s-.105.002-.065.004m9.316.034a.161.161 0 0 0 .051 0c.014-.002.003-.005-.026-.005-.028 0-.04.003-.025.005m.518 0a.092.092 0 0 0 .04 0c.01-.003.002-.005-.02-.005s-.031.002-.02.005" fill="#7c7c7c"/><path d="M8.773 2.955c0 .028.002.04.005.026a.165.165 0 0 0 0-.052c-.003-.014-.005-.003-.005.026m.011.235c0 .025.002.034.005.02a.126.126 0 0 0 0-.046c-.003-.011-.005 0-.005.026m0 .538c0 .026.002.035.005.02a.126.126 0 0 0 0-.046c-.003-.01-.005.001-.005.026m-2.056.977a.124.124 0 0 0 .046 0c.01-.003 0-.005-.026-.005-.025 0-.034.002-.02.005m.296.011a.124.124 0 0 0 .046 0c.011-.003 0-.005-.026-.005-.025 0-.034.003-.02.005m4.91.195c.02.003.05.003.068 0 .017-.002 0-.004-.038-.004-.037 0-.051.002-.03.004m-6.487.52c0 .021.002.03.005.02a.095.095 0 0 0 0-.04c-.003-.012-.005-.003-.005.02m.012.332c0 .028.002.04.005.025a.164.164 0 0 0 0-.051c-.003-.014-.005-.003-.005.026m.01.338c0 .025.003.034.006.02a.125.125 0 0 0 0-.046c-.003-.011-.005 0-.005.026m.01.334c-.001.027.002.05.007.054.005.003.007-.013.005-.037-.006-.063-.012-.07-.013-.017m.902.436a.25.25 0 0 0 .063 0c.017-.003.003-.005-.032-.005-.034 0-.048.002-.031.005m.421.012a.25.25 0 0 0 .063 0c.017-.003.003-.005-.031-.005-.035 0-.049.002-.032.005m.433.011a.25.25 0 0 0 .063 0c.017-.003.003-.005-.032-.005-.034 0-.048.002-.03.005m.432.011a.202.202 0 0 0 .057 0c.014-.002 0-.005-.032-.004-.03 0-.042.002-.025.004m.421.012a.25.25 0 0 0 .063 0c.017-.003.003-.005-.031-.005-.035 0-.049.002-.032.005m1.07.301c0 .022.003.031.006.02a.094.094 0 0 0 0-.04c-.003-.01-.005-.002-.005.02m-.012.28c0 .026.003.035.006.02a.126.126 0 0 0 0-.045c-.003-.01-.006 0-.006.026m-.011.28c0 .023.002.032.005.02a.095.095 0 0 0 0-.04c-.003-.01-.005-.001-.005.02m-2.238.617c.027.002.07.002.097 0 .027-.003.005-.005-.048-.005-.054 0-.076.002-.049.005m.695.011a.567.567 0 0 0 .091 0c.024-.002.002-.004-.048-.004s-.07.002-.043.004m.683.012a.567.567 0 0 0 .092 0c.023-.003.001-.005-.05-.005-.05 0-.068.002-.042.005m.33 1.42c.027.003.07.003.097 0 .027-.002.005-.004-.048-.004s-.075.002-.049.005m-1.486.022a.202.202 0 0 0 .057 0c.014-.002 0-.005-.031-.005-.032 0-.043.003-.026.005m-.387.012a.202.202 0 0 0 .057 0c.014-.003 0-.005-.031-.005-.032 0-.043.002-.026.005m1.19.641a.16.16 0 0 0 .051 0c.014-.002.003-.004-.025-.004s-.04.002-.026.004m-.353.012a.162.162 0 0 0 .051 0c.014-.003.003-.005-.025-.005-.029 0-.04.002-.026.005m3.682.319c.071.072.133.131.136.131.003 0-.053-.059-.125-.131a2.323 2.323 0 0 0-.136-.132c-.003 0 .053.059.125.132m-5.365 1.26a.261.261 0 0 0-.044.052.396.396 0 0 0 .056-.052.258.258 0 0 0 .044-.051.396.396 0 0 0-.056.051m-.296.287a.258.258 0 0 0-.044.051.396.396 0 0 0 .056-.051.258.258 0 0 0 .044-.052.396.396 0 0 0-.056.052m-.29.283-.046.05.049-.046c.045-.042.053-.052.045-.052a.511.511 0 0 0-.049.048m-.29.278a.26.26 0 0 0-.044.052.393.393 0 0 0 .056-.052.261.261 0 0 0 .044-.051.394.394 0 0 0-.056.051m-.296.287a.26.26 0 0 0-.044.051.394.394 0 0 0 .056-.051.26.26 0 0 0 .044-.052.392.392 0 0 0-.056.052m-1.432.942c.042.003.112.003.154 0 .042-.002.008-.004-.077-.004-.085 0-.12.002-.077.004m9.225.035c.061.002.161.002.222 0s.011-.004-.11-.004c-.123 0-.173.002-.112.004" fill="#b3b3b3"/><path d="M7.833 2.42c-.268.022-.49.04-.491.043-.045.052-.34.585-.34.61l.065.445.063.412.12.168c.067.093.125.173.13.178.004.004.173.019.377.031.537.034.532.01.044.21-.228.095-.43.18-.45.19-.03.017-.067.018-.45.003l-.415-.015-.293.16c-.29.159-.294.161-.515.348l-.222.187v.115c.001.328.032.971.047.985.144.136.625.407.67.378.015-.009 1.966.04 2.007.05.025.006-.157.074-.886.329l-.917.32-.095.209-.095.207.326.203.325.203.939.016.938.017.201-.168.206-.172c.002-.002.014-.232.025-.511.011-.28.022-.521.024-.538l.003-.03.444.137c.245.076.455.138.467.138.026 0 1.146-.345 1.16-.358.01-.009-.149-1.145-.162-1.16a3.691 3.691 0 0 0-.36.128 3.757 3.757 0 0 1-.36.129c-.005-.004-.1-.16-.213-.346l-.204-.338-.284-.16-.284-.161-.52-.109-.52-.109V4.76c-.001-.11.037-.403.054-.423.03-.034.115-.07.23-.099a.468.468 0 0 0 .115-.037c.034-.053.061-.563.048-.92-.015-.449-.015-.452.078-.644.065-.132.066-.163.008-.193-.13-.067-.395-.073-1.038-.023m3.769 2.599-.1.127.013.21c.008.125.01.216.004.221a2.03 2.03 0 0 1-.189.076l-.178.068.037.052.137.198c.054.08.103.146.108.146.01 0 1.061-.445 1.068-.451a14.89 14.89 0 0 0-.037-.602l-.007-.072-.059-.027c-.072-.033-.19-.048-.452-.057a3.707 3.707 0 0 1-.222-.012c-.018-.004-.045.023-.123.123m.368.397c.262.172.245.16.237.168a5.65 5.65 0 0 1-.45.128c-.003-.003-.048-.42-.049-.458 0-.011-.02-.024.262.162m-3.044.476a4.2 4.2 0 0 1-.047.272 6.655 6.655 0 0 0-.067.396c-.044.038-.445.347-.448.344-.005-.005.554-1.085.562-1.085a.215.215 0 0 1 0 .073m-2.997 2.86a8.327 8.327 0 0 1-.145.391l-.101.258-.293.384c-.161.21-.415.526-.563.7-.247.29-.993 1.308-1.817 2.48l-.025.036.148.123c.122.102.145.126.137.143-.022.041-.185.184-.388.342-.116.09-.225.175-.241.19a.557.557 0 0 0-.11.275c.007.099.013.1.504.1.233 0 .454.003.491.007l.067.007.089-.138c.048-.076.088-.144.088-.15 0-.007-.11-.163-.246-.346a7.11 7.11 0 0 1-.24-.338c.002-.003.216.026.475.063l.472.068.215-.027.214-.028.069-.064a33.533 33.533 0 0 0 2.027-2.043c.501-.555.596-.656.622-.656l.38-.012.35-.013.704.45c.387.247.712.457.723.468.01.01.23.451.487.98.257.53.471.966.476.971.005.005.164.023.354.04l.345.03.455-.042c.25-.023.467-.04.48-.04.027.004.27-.13.27-.148 0-.049-.125-.348-.35-.835-.213-.46-.24-.527-.298-.749-.102-.383-.2-.51-.923-1.191-.387-.365-.36-.336-.944-1.005a10.55 10.55 0 0 0-.495-.548c-.265.09-.407.121-.656.145l-.26.027s.08.173.18.383c.101.21.18.384.176.389a3.55 3.55 0 0 1-.317.007h-.309l-.019-.235c-.01-.13-.02-.246-.02-.259-.001-.03-.368-.298-.39-.284-.041.025-.386.284-.393.293a2.984 2.984 0 0 0-.03.25 2.552 2.552 0 0 1-.032.246c-.01.01-.705.033-.714.024a3.15 3.15 0 0 1 .111-.303l.118-.297.095-.112.096-.113-.345-.089c-.19-.048-.436-.116-.547-.15a1.456 1.456 0 0 0-.207-.055m5.986 4.972c-.243.367-.228.337-.19.387.053.07.172.085.755.094.66.01.792-.007.892-.11.144-.146.043-.227-.502-.402-.486-.156-.652-.22-.713-.277l-.024-.022-.218.33" fill="#fff"/></g></svg>