<svg width="16" height="16" viewBox="0 0 64 64" xmlns="http://www.w3.org/2000/svg"><path style="opacity:.2;stroke-width:1.0406" d="M32 3.883A29.137 29.137 0 0 0 2.863 33.02 29.137 29.137 0 0 0 32 62.157 29.137 29.137 0 0 0 61.137 33.02 29.137 29.137 0 0 0 32 3.883Z"/><path style="fill:#5ca742;stroke-width:1.0406" d="M32 2.843A29.137 29.137 0 0 0 2.863 31.98 29.137 29.137 0 0 0 32 61.117 29.137 29.137 0 0 0 61.137 31.98 29.137 29.137 0 0 0 32 2.843Z"/><g style="opacity:.2"><path d="M32 10.127a12.487 12.487 0 0 0-12.487 12.487A12.487 12.487 0 0 0 32 35.102a12.487 12.487 0 0 0 12.487-12.488A12.487 12.487 0 0 0 32 10.127Zm0 2.081a6.244 6.244 0 0 1 6.244 6.244A6.244 6.244 0 0 1 32 24.695a6.244 6.244 0 0 1-6.244-6.243A6.244 6.244 0 0 1 32 12.208z"/><path d="M25.756 30.94v20.673l6.244 4.3 6.244-4.3v-1.805l2.08-2.08-2.08-2.082v-2.22l4.162-3.121-4.162-3.122v-6.244zm2.082 6.243h2.08V49.67h-2.08z"/></g><path style="fill:#fff;stroke-width:2.08121" d="M32 9.086a12.487 12.487 0 0 0-12.487 12.488A12.487 12.487 0 0 0 32 34.06a12.487 12.487 0 0 0 12.487-12.487A12.487 12.487 0 0 0 32 9.086Zm0 2.082a6.244 6.244 0 0 1 6.244 6.243A6.244 6.244 0 0 1 32 23.655a6.244 6.244 0 0 1-6.244-6.244A6.244 6.244 0 0 1 32 11.168Z"/><path style="fill:#fff;stroke-width:2.08121" d="M25.756 29.898v20.675l6.244 4.3 6.244-4.3v-1.806l2.08-2.081-2.08-2.082v-2.218l4.162-3.122-4.162-3.122v-6.244Zm2.082 6.244h2.08V48.63h-2.08z"/><path style="opacity:.2;fill:#fff;stroke-width:1.0406" d="M32 2.843A29.137 29.137 0 0 0 2.863 31.98a29.137 29.137 0 0 0 .022.422A29.137 29.137 0 0 1 32 3.883a29.137 29.137 0 0 1 29.115 28.698 29.137 29.137 0 0 0 .022-.601A29.137 29.137 0 0 0 32 2.843Z"/></svg>