<!--Generator: Adobe Illustrator 24.1.0, SVG Export Plug-In . SVG Version: 6.00 Build 0)--><svg xmlns="http://www.w3.org/2000/svg" width="16" height="16" viewBox="0 0 200 200" xml:space="preserve"><circle fill="#FFF" cx="100.001" cy="100" r="95.081"/><linearGradient id="a" gradientUnits="userSpaceOnUse" x1="140.399" y1="603.448" x2="140.399" y2="763.593" gradientTransform="matrix(.952 0 0 .952 -33.61 -551.206)"><stop offset="0" style="stop-color:#226e23"/><stop offset="1" style="stop-color:#63ab3a"/></linearGradient><path opacity=".94" fill="url(#a)" d="M113.925 24.936c1.741 7.615-3.046 15.448-10.879 17.189-7.833 1.741-15.448-3.046-17.189-10.879-.435-2.176-.435-4.134 0-6.31 9.357-1.958 18.93-1.958 28.068 0zM59.967 42.342c0 15.448 8.921 29.59 22.845 36.118v72.67l17.189 17.189 17.189-17.189-1.088-15.23 8.05-8.05-8.05-8.05 12.184-12.184-12.184-12.184 1.088-16.971c16.536-7.833 25.674-25.892 22.193-43.95 36.335 21.758 48.084 68.754 26.327 104.872S96.956 187.467 60.621 165.71 12.753 96.954 34.293 60.836C40.82 49.957 49.741 41.037 60.619 34.51a47.565 47.565 0 0 0-.652 7.832zm28.502 45.691h5.657v57.223h-5.657V88.033z"/><circle fill="none" stroke="#515151" stroke-width="6.5" stroke-miterlimit="10" cx="100.001" cy="100" r="95.081"/></svg>