<svg width="16" height="16" viewBox="0 0 16 16" xmlns="http://www.w3.org/2000/svg"><g fill="none" fill-rule="evenodd"><path fill="#326ce5" d="M7.957 1.06a.93.93 0 0 0-.354.09L2.769 3.46a.918.918 0 0 0-.5.622L1.075 9.27a.91.91 0 0 0 .178.776l3.346 4.16a.927.927 0 0 0 .723.345h5.366a.927.927 0 0 0 .722-.345l3.345-4.161a.911.911 0 0 0 .179-.776L13.74 4.08a.918.918 0 0 0-.5-.622L8.405 1.15a.931.931 0 0 0-.448-.09Z"/><path fill="#fff" fill-rule="nonzero" d="M7.955.684A.982.982 0 0 0 7.58.78L2.477 3.218a.97.97 0 0 0-.528.656L.691 9.351a.961.961 0 0 0 .187.82l3.533 4.392a.98.98 0 0 0 .763.364l5.664-.001a.979.979 0 0 0 .763-.364l3.531-4.393a.962.962 0 0 0 .189-.818L14.06 3.873a.97.97 0 0 0-.528-.656L8.428.779a.983.983 0 0 0-.473-.095Zm.002.376a.931.931 0 0 1 .448.09l4.835 2.309c.254.12.438.35.5.622l1.195 5.188a.911.911 0 0 1-.179.776l-3.345 4.161a.927.927 0 0 1-.722.344l-5.366.002a.927.927 0 0 1-.723-.345l-3.346-4.16a.917.917 0 0 1-.178-.777l1.192-5.188a.918.918 0 0 1 .5-.622l4.835-2.31a.93.93 0 0 1 .354-.09z"/><path fill="#fff" fill-rule="nonzero" d="M8.005 2.826c-.16 0-.29.144-.29.321l.001.008v.075c.004.102.026.18.04.275.024.202.044.37.031.525a.316.316 0 0 1-.094.15l-.006.122a3.722 3.722 0 0 0-2.414 1.16 4.85 4.85 0 0 1-.105-.074c-.051.007-.103.023-.171-.017a2.622 2.622 0 0 1-.39-.352c-.066-.07-.113-.135-.191-.202l-.064-.052a.344.344 0 0 0-.202-.076.279.279 0 0 0-.23.102c-.1.125-.068.316.07.427l.005.003c.02.016.042.035.06.048.082.061.158.092.24.14.173.108.316.196.43.303.045.047.052.13.058.167l.093.083a3.744 3.744 0 0 0-.59 2.61l-.122.035c-.032.042-.077.106-.124.126-.149.047-.316.064-.519.085-.095.008-.177.003-.277.022l-.077.018-.003.001-.004.001c-.17.041-.28.198-.245.353.035.154.202.248.373.211h.005l.005-.002c.024-.006.054-.011.075-.017.099-.027.17-.066.26-.1.191-.068.35-.126.504-.148.065-.005.133.04.166.059l.127-.022c.29.9.898 1.627 1.668 2.084l-.052.126c.019.049.04.115.026.163-.057.146-.153.3-.262.471-.053.08-.108.14-.156.231l-.037.078c-.074.16-.02.343.123.411.144.07.323-.003.4-.163v-.001c.011-.023.027-.052.036-.074.041-.094.055-.174.084-.265.076-.192.118-.394.224-.52.029-.034.076-.047.124-.06l.066-.12a3.739 3.739 0 0 0 2.67.008l.062.111c.05.016.104.024.148.09.079.134.133.294.198.486.03.091.043.172.084.265l.036.075c.077.16.256.233.4.163.143-.068.198-.252.123-.41a1.446 1.446 0 0 0-.037-.079c-.048-.09-.103-.151-.156-.23-.11-.172-.2-.314-.256-.46-.024-.075.004-.121.022-.17-.01-.013-.034-.084-.048-.117a3.765 3.765 0 0 0 1.668-2.098c.037.005.102.017.124.021.043-.029.083-.066.162-.06.154.023.313.08.504.149.09.034.16.073.26.1l.075.016.005.002h.004c.172.037.339-.057.374-.211.035-.155-.074-.311-.245-.353l-.084-.02c-.1-.018-.183-.014-.278-.022a2.59 2.59 0 0 1-.518-.085c-.061-.023-.104-.096-.125-.125l-.117-.034a3.745 3.745 0 0 0-.603-2.604l.103-.093c.004-.052 0-.106.054-.164.114-.106.257-.195.43-.302.083-.048.159-.08.241-.14.019-.014.044-.036.064-.052.138-.11.17-.301.07-.426-.099-.125-.292-.137-.43-.026l-.065.051c-.078.067-.126.133-.191.202-.143.145-.26.266-.39.353-.056.033-.139.022-.176.02l-.11.078a3.792 3.792 0 0 0-2.402-1.16 6.99 6.99 0 0 1-.007-.13c-.037-.036-.083-.066-.094-.144-.013-.156.008-.323.032-.525.014-.095.036-.173.04-.275v-.083c0-.177-.13-.321-.29-.321ZM7.643 5.07l-.086 1.518-.006.003a.255.255 0 0 1-.405.196h-.003L5.9 5.907a2.98 2.98 0 0 1 1.744-.836Zm.725 0c.658.081 1.267.38 1.734.836l-1.237.877-.004-.002a.255.255 0 0 1-.406-.195h-.001zm-2.92 1.402L6.583 7.49l-.002.006a.255.255 0 0 1-.1.438l-.001.005-1.457.42a2.98 2.98 0 0 1 .423-1.886Zm5.107.001a3.017 3.017 0 0 1 .436 1.88l-1.464-.42-.002-.007a.255.255 0 0 1-.1-.438v-.003l1.13-1.012ZM7.772 7.567h.466l.289.362-.104.451-.418.201-.42-.201-.103-.452Zm1.493 1.238c.02 0 .039.001.058.005l.003-.004 1.506.255a2.984 2.984 0 0 1-1.206 1.516l-.585-1.413.002-.003a.255.255 0 0 1 .222-.356zm-2.531.006a.255.255 0 0 1 .23.356l.005.005-.579 1.399a2.996 2.996 0 0 1-1.202-1.505l1.493-.253.003.003a.258.258 0 0 1 .05-.005zm1.262.613a.253.253 0 0 1 .234.134h.005l.736 1.33a2.992 2.992 0 0 1-1.927-.002L7.78 9.56h.001a.255.255 0 0 1 .216-.135Z"/></g></svg>