<svg xmlns="http://www.w3.org/2000/svg" width="16" height="16" viewBox="0 0 32 32"><path fill="#0f120e" d="M6.29 11.26q2.46-.13 4.97.88a.62.61 74 0 0 .59-1.07L9.09 9.03q-.98-2.59-2.91-4.12a.08.07 74.1 0 1 .07-.13c2.82 1.07 8.67 4.13 9.87 7.19q.18.45.52.8c1.44 1.5 2.03 4.13 4.9 3.28a.6.59 45.2 0 0 0-1.14l-3.55-1.09q-.7-.22-.46-.91.93-2.63-1.6-4.36-.47-.33.07-.54l2.67-1.04q.28-.11.44.14.91 1.41-.07 2.18-.39.31-.08.71.25.29.57 0 1.98-1.77 3.73-3.38.16-.14.28.03l1.14 1.54a.31.31 0 0 1-.14.47l-2.44.96a.29.28-24.9 0 0-.15.4l.15.28q.14.25.41.15l2.33-.86q.71-.26.71.5l.01.86a.37.36-33.7 0 0 .7.14q.84-1.97 2.63-1.42a.99.99 0 0 1-.36 1.93q-1.63-.11-2.9 1.08a.1.1 0 0 0 .09.17q3.05-.69 5.33.96.51.37-.07.63-2.03.9-3.65-.37a.43.43 0 0 0-.66.49l.66 1.79a.66.65-17 0 0 .77.4l1.7-.41q.45-.11.81.16l.78.57q.45.34-.09.52-.35.12-.74-.13-.36-.23-.24.18.06.22.13.43.13.44-.33.41l-2.68-.19q-.57-.04-.5-.61l.04-.35a.71.7-22.9 0 0-1.26-.51q-2.81 3.68-.29 6.73.57.69 2.03.46a.34.33 7 0 1 .36.46l-.27.69a1.02 1.01-80.8 0 1-.88.64l-.35.02q-.44.03-.81.27l-1.25.86a.53.51 46 0 1-.6-.02l-2.39-1.81q-.19-.15-.24-.38l-.51-2.6q-.1-.54-.62-.73-2.06-.73-4.65-2.16-.47-.26-.97-.01-.43.23-.04.53.82.65.35 1.63-.22.46-.03.94.69 1.8 2.6 1.17a.88.88 0 0 1 .97 1.37l-.29.38q-.32.4-.79.19l-2.75-1.19q-.54-.24-.86-.74-1.73-2.77-4.93-.97-1 .56-.14 1.32l.29.25a.9.9 0 0 1-.96 1.5c-2-.88-4.13-.11-5.72-1.34-1.9-1.47-.04-3.76 1.44-4.89q.46-.35.26-.9-.36-1.04-1.63-.93a.75.75 0 0 1-.77-.48q-.53-1.41-.07-2.83.11-.31.23 0 .95 2.28 2.96 3.52c2.24 1.38 4.87.29 6.87-1.02q.89-.57-.15-.79l-1.66-.34q-.3-.06-.16-.34l.16-.3q.23-.46-.06-.88-.87-1.27-2.38-1.04-.42.06-.31-.35.29-1.11-.42-1.45ZM2.98 23.53l1.53.32a.46.46 0 0 0 .54-.36l.08-.36a1.99 1.15-78.3 0 0-.73-2.18l-.17-.04a1.99 1.15-78.3 0 0-1.53 1.72l-.08.36a.46.46 0 0 0 .36.54Zm21.66 1.04-1.95-1.97q-.42-.42-.39.17.09 2.1 2.13 2.24.69.05.21-.44Z"/><path fill="#465450" d="m9.09 9.03 2.76 2.04a.62.61 74 0 1-.59 1.07q-2.51-1.01-4.97-.88l-3.53-.17a4.11 3.53 38 0 0-.88.04l-.64.1q-.57.08-.08-.22c3.07-1.88 4.07-3.37 7.93-1.98Zm-6.11 14.5a.46.46 0 0 1-.36-.54l.08-.36a1.99 1.15-78.3 0 1 1.53-1.72l.17.04a1.99 1.15-78.3 0 1 .73 2.18l-.08.36a.46.46 0 0 1-.54.36l-1.53-.32Z"/></svg>
