<svg xmlns:svg="http://www.w3.org/2000/svg" xmlns="http://www.w3.org/2000/svg" xmlns:xlink="http://www.w3.org/1999/xlink" viewBox="0 0 16 16" height="16" width="16"><svg width="60" height="52" viewBox="-5 -5 60 52" x="212" y="165"><defs><clipPath clipPathUnits="userSpaceOnUse" id="a"><path d="M0 500h500V0H0v500z"/></clipPath></defs><g clip-path="url(#a)" transform="matrix(.05511 0 0 -.05171 -222.541 -143.592)"><path d="M153.4 387.093c-8.448 2.66-14.608 24.875-21.515 29.122-5.507 3.407-8.728 2.567-8.728 2.567-12.46 0-25.295-36.683-9.334-52.877 8.541-8.728 24.41-11.107 32.063-10.407.093 5.833.747 11.107 1.867 16.894 1.493 4.527 3.5 10.454 5.833 14.981-.046-.093-.14-.186-.186-.28m184.511 0c8.448 2.66 14.608 24.875 21.516 29.122 5.506 3.407 8.727 2.567 8.727 2.567 12.461 0 25.295-36.683 9.333-52.877-8.54-8.728-24.408-11.107-32.062-10.407-.093 5.833-.747 11.107-1.866 16.894-1.494 4.527-3.5 10.454-5.834 14.981.046-.093.14-.186.186-.28" fill="#2e1619"/><path d="M138.51 383.78c-4.434 5.554-12.134 18.995-15.821 4.014-5.507-22.262 23.335-13.488 15.82-4.014-.092.14.14-.186 0 0m230.482 4.013c-3.687 14.981-11.434 1.541-15.821-4.013-.094-.094-.047-.047 0 0-7.514-9.474 21.328-18.248 15.821 4.013" fill="#f6f4fe"/><path d="M343.142 375.473c-9.334 32.342-43.87 50.73-97.4 50.73-53.531 0-88.067-18.341-97.401-50.73-9.334-32.39 7.56-64.638 31.736-78.266 9.8-5.506 20.348-8.466 30.102-12.2 12.087-4.666 23.475-9.007 34.909-10.007h1.213c11.48 0 22.822 5.387 34.91 10.008 9.753 3.733 20.3 6.613 30.1 12.119 24.317 13.629 41.165 46.003 31.83 78.346" fill="#c3a8a5"/><path d="M252.45 301.15c3.15 0 4.967 2.038 4.967 4.79 0 4.322-1.82 5.98-4.946 6.23-1.12.09-2.037-.226-2.352-1.21-.315-.983.188-2.207 1.21-2.351 2.394-.338 2.392-.755 2.392-1.974 0-1.214-1.404-1.725-1.694-1.792a1.87 1.87 0 01.423-3.692m-13.373-.001c-3.15 0-4.967 2.038-4.967 4.79 0 4.322 1.819 5.98 4.946 6.23 1.119.09 2.037-.226 2.352-1.21.315-.983-.188-2.207-1.21-2.351-2.394-.338-2.392-.755-2.392-1.974 0-1.214 1.404-1.725 1.694-1.792a1.87 1.87 0 00-.423-3.692" fill="#644945"/><path d="M296.563 395.641c-22.108 0-40.03-17.923-40.03-40.03 0-22.107 17.922-40.03 40.03-40.03s40.029 17.923 40.029 40.03c0 22.107-17.921 40.03-40.03 40.03" fill="#f6f4fe"/><path d="M290.957 373.172a17.697 17.697 0 01-9.993-3.074c3.986-.164 7.17-3.438 7.17-7.464a7.478 7.478 0 00-14.402-2.824 17.799 17.799 0 01-.557-4.427c0-9.823 7.961-17.79 17.782-17.79 9.823 0 17.792 7.967 17.792 17.79s-7.969 17.789-17.792 17.789" fill="#2e1619"/><path d="M194.92 395.641c22.107 0 40.03-17.923 40.03-40.03 0-22.107-17.923-40.03-40.03-40.03-22.109 0-40.03 17.923-40.03 40.03 0 22.107 17.921 40.03 40.03 40.03" fill="#f6f4fe"/><path d="M200.638 373.172a17.7 17.7 0 01-9.993-3.074c3.986-.164 7.17-3.438 7.17-7.464a7.479 7.479 0 00-7.48-7.48 7.48 7.48 0 00-6.924 4.656 17.845 17.845 0 01-.555-4.427c0-9.823 7.961-17.79 17.782-17.79 9.823 0 17.792 7.967 17.792 17.79s-7.969 17.789-17.792 17.789" fill="#2e1619"/></g></svg><svg height="34" width="34" viewBox="-5 -5 34 34" x="212" y="217"><g clip-path="url(#b)" transform="translate(1494.8 1616.5) scale(.56263)"><use xlink:href="#c" transform="translate(-2655.3 -2871.5) scale(.47669)" height="100%" width="100%" fill="#fff"/></g><defs><clipPath id="b" clip-rule="evenodd"><path d="M-2657-2913h82v82h-82v-82z" fill="#fff"/></clipPath><path id="c" d="M61.5 0v70.428L0 61.293l21.484 7.232.026.047.043-.024L61.5 82 82 73.472V8.528L61.5 0zM10.25 43.562L4.1 42.094V29.031l4.448-5.664 17.104-6.64v-4.789l13.3 10.461-28.703 5.787v15.375zm28.702 3.844V22.21l12.301-1.87v28.423l-11.278 9.303-17.767-5.81v5.828L10.25 43.562l28.702 3.844z"/></defs></svg></svg>