<svg xmlns="http://www.w3.org/2000/svg" viewBox="0 0 16 16" height="16" width="16"><path d="M15.686 3.441c-.072-.07-.184-.127-.244-.201-.064-.019-.128-.034-.195-.008a2.194 2.194 0 0 0-.436-.137 4.443 4.443 0 0 0-1.387-.012.77.77 0 0 0-.334.028c-.218.056-.44.107-.658.165-.548.145-1.116.2-1.717.113-.075.046-.161.026-.243.01-.91-.161-1.576-.48-2.072-.91.057-.041.023-.08-.014-.115a6.08 3.261 0 0 1-.474-.612h-.028a5.245 2.813 0 0 1-.263-.382 2.644 1.755 0 0 1-.031-.135 8.365 4.486 0 0 1-.01-.732c.021-.146.052-.292.099-.437l-.056.001h-.325c-.032 0-.063 0-.095-.002-.031-.002-.06.001-.09.001a5.841 3.133 0 0 0 .141 1.338 2.835 1.52 0 0 0 .23.421 6.06 3.25 0 0 0 .504.643 1.005.539 0 0 1 .055.068c.016.153.204.26.37.369.566.375 1.292.622 2.155.751.204.016.403.071.617.025.161-.027.33-.016.495-.025.508-.024.929-.167 1.372-.28.462-.117.932-.195 1.458-.135.804.095 1.135.562.86.913-.13.163-.39.217-.706.157a.714.383 0 0 0-.15-.028.192.103 0 0 0-.214.068c-.038.049.026.077.094.101a.824.442 0 0 0 .18.051.882.473 0 0 0 1.134-.276 1.449.776 0 0 0 .11-.309c-.004-.052-.02-.108.037-.159.053-.124-.071-.226-.169-.328z" fill="#4b2ebf"/><path d="M14.646 8.147a3.08 3.027 0 0 1-.35.486 3.836 4.666 0 0 1-.403.393 4.852 4.768 0 0 1-.775.52l-.172.097a6.023 5.919 0 0 1-2.348.644 7.675 9.335 0 0 1-.56.015c-1.153-.017-1.916-.51-2.39-1.139-.343-.382-.37-2.22 1.276-3.315 0 0-.598-.366-.656-.459-.356-.567-.034-.998.447-1.364.01-.006 4.459-2.03 6.164 1.637-.006-.004.531 1.12-.233 2.485z" fill="#664b47"/><path d="M11.984 3.112c-.151-.111-.26-.289-.205-.41.054-.122.329-.278.394-.16.067.12-.057.374-.059.46 0 .087-.083.142-.13.108zm.43-.117a.39.383 0 0 1 .26-.357.161.157 0 0 1 .199.207c-.06.145-.14.318-.254.367-.111.051-.21-.114-.203-.217zm.549.353c-.13-.119.216-.376.285-.355.069.023.216.212.079.343a.236.231 0 0 1-.364.012z" fill="#2e171a"/><path d="M8.717 8.114c-.228-.251-.742-.53-1.073-.699-.297.787-.204 1.52 0 1.744.439.581 1.125 1.047 2.135 1.128-.095-.278-.22-.537-.32-.807-.016-.474-.427-1.016-.742-1.366z" fill="#422b23"/><path d="M7.527 13.755c.142.316-.355 1.07-.298 1.382.044.249.154.321.154.321.332.361 1.755-.211 1.816-1.095.034-.477-.313-1-.535-1.205a3.735 3.67 0 0 1-.548.383 4.374 4.299 0 0 1-.596.217zm-4.86-5.382c-.3-.176-1.122.218-1.43.127-.247-.073-.305-.185-.305-.185-.331-.36.422-1.687 1.324-1.64.484.023.972.425 1.152.666a3.736 3.672 0 0 0-.452.49 4.374 4.299 0 0 0-.291.56z" fill="#2e171a"/><path d="M8.017 14.104c-.048.271-.242.848.298.566.805-.417-.216-1.03-.298-.566z" fill="#f3f2f8"/><path d="M11.268 6.423c2.327 1.659 1.564 2.831 1.286 3.39-.738.404-2.228.558-2.943.467-.643-1.863.874-2.81.229-3.453" fill="#c3a7a4"/><path d="M12.685 7.554c-.077.5-3.773-.24-3.872-2.199.157-.004.768-.134 1.11-.015.343.12 2.817 1.88 2.762 2.214z" fill="#664b47"/><path d="M2.875 7.92c-.713 1.112-.351 2.592 1.058 4.155 1.41 1.561 2.866 2.092 4.072 1.527a2.757 2.708 0 0 0 1.488-2.951c-.095-.428-.29-.807-.436-1.188-.179-.472-.335-.934-.624-1.276l-.013-.02-.012-.02c-.311-.328-.757-.531-1.21-.764-.369-.188-.729-.418-1.151-.566A2.75 2.703 0 0 0 2.875 7.92z" fill="#c3a7a4"/><path d="M7.471 8.643a.183.179 0 0 0-.274-.021c-.13.11-.13.208-.054.305a.08.077 0 0 0 .097.037.069.068 0 0 0 .041-.09V8.87c-.053-.08-.04-.09 0-.118a.085.083 0 0 1 .099 0 .074.073 0 0 0 .09-.108zm.352.394a.183.179 0 0 1-.012.268c-.128.113-.224.102-.316.017a.08.077 0 0 1-.026-.102.069.068 0 0 1 .092-.034l.013.007c.072.061.084.05.12.018a.085.083 0 0 0 .01-.096.074.073 0 0 1 .119-.077z" fill="#664b47"/><ellipse cx="-2.393" cy="9.69" transform="matrix(.75373 -.65719 .67011 .74226 0 0)" fill="#f3f2f8" rx="1.577" ry="1.573"/><path d="M4.318 9.384a.702.69 0 0 0 .355.21.297.293 0 1 1 .495-.056.705.694 0 1 0-.85-.154z" fill="#2e171a"/><ellipse cx="-2.393" cy="13.685" transform="matrix(.75373 -.65719 .67011 .74226 0 0)" fill="#f3f2f8" rx="1.577" ry="1.573"/><path d="M6.696 12.015a.702.69 0 0 0 .355.213.297.293 0 1 1 .495-.056.705.694 0 1 0-.85-.157zM9.784 3.12c-.086-.288.094-.47.246-.404.152.068.063.27-.028.327-.091.059-.183.2-.218.077zm-.393.236c-.075.091-.333.051-.416-.041-.084-.093-.069-.261.01-.295.077-.036.179.1.232.139.052.038.212.15.174.197zm.147-.168a.335.33 0 0 1-.267-.254c-.029-.15-.014-.307.094-.309.107 0 .183.2.2.287.018.085.117.296-.027.276z" fill="#2e171a"/><path d="M6.253 2.132a1.428 1.404 0 0 0 .95 1.111 1.296 1.274 0 0 0 .753.014 1.76 1.731 0 0 0 .774-.478c.703-.705 1.075-1.05 1.994-1.194 1.114-.176 2.11.21 2.957 1.15a4.526 4.448 0 0 1 1.126 2.736c.023.062-.152 1.083.137 1.923.32-.918.418-1.863.148-2.844q-.026-.105-.054-.207a4.927 4.843 0 0 0-.439-1.037l-.002-.006a4.865 4.782 0 0 0-.603-.83 4.053 4.93 0 0 0-3.339-1.284c-1.04.164-1.5.587-2.226 1.315-.347.349-.737.475-1.098.36a1.012.995 0 0 1-.665-.778c-.047-.32.095-.61.398-.818.343-.233.65-.148.783.031.101.14.117.358-.146.557a.211.207 0 1 0 .255.33c.472-.353.452-.831.235-1.126-.257-.349-.807-.505-1.362-.13-.436.286-.647.73-.576 1.205z" fill="#2e171a"/><path d="m8.134 5.363.029.053.01.015a4.618 4.538 0 0 0 .487.605c1.199 1.25 3.015 1.63 5.238 1.114.786-.182.994.278.847.745-.053.139-.101.25-.101.25l.029-.048a3.089 3.036 0 0 0 .137-2.623 3.298 3.24 0 0 0-.528-.936c-.643-.832-1.565-1.188-2.645-1.312q-.092-.01-.184-.015l.184.015c-1.252-.146-2.495.37-2.96.722-.464.354-.86.877-.545 1.415zm3.135-2.166h.092-.097zm-.016 0h-.047z" fill="#c3a7a4"/><path d="M2.378 7.795c.48-.005.034-1.096-.518-.383-.373.475.238.384.518.383z" fill="#f3f2f8"/></svg>