<svg width="16" height="16" viewBox="0 0 16 16" xmlns="http://www.w3.org/2000/svg"><path d="M2.895 6.77C2.43 6.635 2.09 5.486 1.71 5.267c-.303-.177-.48-.133-.48-.133-.687 0-1.395 1.897-.515 2.734.47.45 1.345.574 1.767.538.005-.301.04-.574.103-.873a5.49 5.49 0 0 1 .321-.775c-.002.005-.008.01-.01.014m10.168 0c.466-.137.805-1.286 1.186-1.505.303-.177.481-.133.481-.133.687 0 1.394 1.897.514 2.734-.47.45-1.345.574-1.767.538a4.58 4.58 0 0 0-.102-.873 5.491 5.491 0 0 0-.322-.775l.01.014" fill="#2e1619"/><path d="M2.074 6.943c-.244-.287-.668-.982-.872-.208-.303 1.15 1.286.698.872.208-.005-.008.008.01 0 0m12.702-.208c-.203-.774-.63-.08-.872.208-.005.005-.002.002 0 0-.414.49 1.176.943.872-.208" fill="#f6f4fe"/><path d="M13.352 7.372c-.515-1.672-2.418-2.623-5.368-2.623s-4.854.948-5.368 2.623c-.514 1.675.417 3.343 1.75 4.047.54.285 1.12.438 1.658.63.666.243 1.294.467 1.924.519h.067c.632 0 1.257-.28 1.924-.518.537-.193 1.118-.342 1.658-.626 1.34-.705 2.27-2.38 1.755-4.052" fill="#c3a8a5"/><path d="M8.354 11.216c.173 0 .273-.106.273-.248 0-.224-.1-.31-.272-.322-.062-.005-.113.01-.13.062-.017.05.01.114.067.122.132.017.132.039.132.102s-.078.09-.094.093a.103.097 0 0 0 .024.19m-.737 0c-.174 0-.274-.105-.274-.247 0-.224.1-.31.272-.322.062-.005.113.01.13.062.017.05-.01.114-.067.122-.132.017-.132.039-.132.102s.078.09.094.093a.103.097 0 0 1-.023.19" fill="#644945"/><path d="M10.785 6.33c-1.219 0-2.206.926-2.206 2.07 0 1.143.987 2.07 2.206 2.07 1.22 0 2.206-.927 2.206-2.07 0-1.144-.988-2.07-2.206-2.07" fill="#f6f4fe"/><path d="M10.476 7.49a.975.915 0 0 0-.55.16c.22.009.394.178.394.386a.412.387 0 0 1-.794.146.98.92 0 0 0-.03.23c0 .507.438.92.98.92.541 0 .98-.413.98-.92 0-.507-.439-.92-.98-.92" fill="#2e1619"/><path d="M5.183 6.33c1.218 0 2.206.926 2.206 2.07 0 1.143-.988 2.07-2.206 2.07S2.977 9.543 2.977 8.4c0-1.144.988-2.07 2.206-2.07" fill="#f6f4fe"/><path d="M5.498 7.49a.975.915 0 0 0-.55.16c.22.009.395.178.395.386a.412.387 0 0 1-.413.387.412.387 0 0 1-.38-.24.983.923 0 0 0-.03.228c0 .508.437.92.98.92.54 0 .98-.412.98-.92s-.44-.92-.98-.92" fill="#2e1619"/></svg>