<svg xmlns="http://www.w3.org/2000/svg" width="16" height="16" viewBox="0 0 16 16" fill-rule="evenodd" clip-rule="evenodd" stroke-linejoin="round" stroke-miterlimit="1.414"><path d="M4.902 15.074a.65.65 0 0 1-.362-.31c-.074-.127-.089-.19-.089-.379 0-.29.105-.488.33-.622l.153-.09 1.183-.01 1.183-.009V4.37h-.974l-.648.41c-.722.459-.846.516-1.188.552l-.238.025.946 2.345c.843 2.089.947 2.365.947 2.526.002.268-.076.426-.317.644-1.097.996-3.086 1.08-4.334.186-.448-.322-.623-.638-.54-.973.02-.082.445-1.157.943-2.39.498-1.232.912-2.266.92-2.297.014-.05-.011-.057-.225-.057-.202 0-.27-.015-.411-.089-.497-.262-.487-1.017.017-1.297.083-.047.245-.055 1.2-.064l1.105-.01.632-.403c.847-.539.848-.54 1.577-.557l.588-.014v-.71c0-.693.002-.713.08-.87.231-.457.805-.473 1.07-.03l.105.174v1.436l.588.013c.724.016.732.02 1.591.568l.616.392 1.105.01c.957.01 1.119.018 1.202.065.428.238.51.861.156 1.198-.138.132-.303.188-.557.188-.124 0-.226.012-.226.027s.412 1.049.916 2.298c.504 1.25.933 2.332.953 2.407.119.445-.249.895-1.037 1.27-1.235.586-2.897.385-3.83-.463-.246-.224-.326-.38-.327-.635 0-.182.064-.354.948-2.541l.95-2.347-.238-.025c-.345-.036-.487-.102-1.196-.554l-.638-.408h-.976v9.285l1.183.01 1.183.01.137.078a.759.759 0 0 1 .349.755c-.03.199-.193.438-.357.523-.127.067-.164.067-3.09.073-2.039.004-2.992-.005-3.058-.029zm-.734-4.898c.247-.063.525-.176.525-.213 0-.071-1.14-2.843-1.159-2.82-.033.038-1.128 2.77-1.127 2.813 0 .073.48.234.837.282.188.025.726-.011.924-.062zm8.76.002c.254-.06.52-.174.52-.222 0-.043-1.094-2.775-1.127-2.813-.02-.023-1.101 2.602-1.146 2.78-.014.058.01.078.154.135a2.66 2.66 0 0 0 1.599.12z" fill="#59944f"/></svg>