<svg xmlns="http://www.w3.org/2000/svg" height="16" viewBox="0 0 16 16" width="16"><style>.st0{fill:#ff3d00}</style><g transform="matrix(.03836 0 0 .04002 -20.771 1.245)"><ellipse ry="51.7" rx="128.9" cy="51.7" cx="750" class="st0"/><path d="M753 278.7c-41.2 9.9-83.6 20.1-110.7 38-13.5-8.4-21.1-18.1-21.1-27.3 0-40.9 68.3-56.4 134.4-71.3 47.6-10.8 96.2-21.8 123.4-44v36c-.1 38.5-64.1 53.8-126 68.6zm-2.3-82c-50.1 11.3-101.4 23-129.5 47.2v-8c0-71.2 78.1-89.5 153.7-107.2 54.9-12.8 81.6-19.6 104.1-37.6V131c-.1 36.7-65.3 51.4-128.3 65.7zm128.2 58.2c-26.8 22.6-74.3 34-120.8 45.2-33.3 8-67.5 16.2-91.6 28.1 21.9 7.8 50.5 13 83.5 13 75.1 0 128.9-27 128.9-51.7z" class="st0"/></g></svg>