<svg viewBox="0 0 498 496" width="16" height="16" xmlns="http://www.w3.org/2000/svg"><path fill="#3cbd4f" d="M239.05 25.978h22.138q20.458 1.737 31.298 3.993c92.971 19.275 162.64 91.325 177.232 185.361q.921 5.962 2.257 20.877v22.31c-3.321 55.2-25.157 106.471-64.011 145.372q-60.061 60.132-146.947 66.13h-22.264c-121.458-7.269-214.94-106.794-211.538-229.21 1.54-55.469 25.425-110.787 64.888-149.668q60.429-59.552 146.946-65.165Zm78.155 221.797q3.481-2.828 6.704-5.693c11.495-10.206 18.21-29.38 7.128-42.739q-.297-.358.052-.672c11.155-9.767 22.354-24.252 25.417-39.068 8.28-40.081-14.137-72.067-50.09-87.134-46.472-19.472-103.946-19.222-145.952 11.055-10.456 7.538-20.35 19.597-21.746 32.873-2.166 20.618 17.475 30.198 34.646 31.397 14.61 1.02 24.718-2.632 38.084-6.902q15.497-4.952 30.869.143c12.712 4.207 20.778 14.843 11.638 27.645-12.006 16.823-35.605 14.71-53 9.41-4.88-1.496-12.06-4.693-17.887-6.205-18.737-4.87-42.936 5.846-37.886 28.89 4.476 20.483 17.85 36.31 35.738 46.687a.287.296 60.4 0 1-.152.537H63.518a.376.384 89.3 0 0-.386.384c.752 105.13 88.147 189.471 193.697 184.405 98.744-4.737 176.238-85.174 176.784-184.565a.224.224 0 0 0-.224-.224H317.284q-.357 0-.08-.224z" style="stroke-width:.895249" opacity=".85"/><path fill="#3cbd4f" d="M194.142 194.24c13.913 3.366 27.772 4.87 41.934 3.663 23.152-1.98 51.935-19.527 42.919-47.217-7.842-24.082-40.1-28.567-61.226-25.236-7.798 1.227-17.404 4.77-25.99 7.278-10.6 3.106-26.248-2.274-20.868-16.365 4.35-11.37 17.225-19.723 28.094-23.805a131.601 131.601 0 0 1 67.877-6.625c39.14 6.491 78.872 44.645 51.082 86.401-15.173 22.802-38.353 34.628-65.182 37.618q-9.24 1.03-18.496 1.978c-2.919.297-8.622 4.432-2.837 7.046q4.95 2.237 10.51 2.293c17.09.142 32.3-2.714 48.548-6.93 4.155-1.075 7.458-1.486 10.34 1.433 3.475 3.518.413 8.137-2.712 10.599q-9.955 7.815-20.698 10.25c-32.516 7.377-85.881 7.815-100.107-31.764-5.039-14.018 8.192-12.702 16.812-10.618z" style="stroke-width:.895249" opacity=".85"/></svg>