<svg width="16" height="16" viewBox="0 0 16 16" fill="none" xmlns="http://www.w3.org/2000/svg"><g clip-path="url(#a)"><path fill-rule="evenodd" clip-rule="evenodd" d="M13.436 6.703a8.237 8.237 0 00.21-1.896L8.691 3.668a8.215 8.215 0 01-9.009 7.063 8.176 8.176 0 003.91 2.139 8.185 8.185 0 003.491.042 5 5 0 016.23-5.738c.046-.154.087-.312.123-.47z" fill="#E05555"/><path d="M8 4l6.417 2.071L10.88-.057l-.875.505.135 2.257L8 4z" fill="#62B543"/><path fill-rule="evenodd" clip-rule="evenodd" d="M15.814 13.232l-.91-.653a2.968 2.968 0 000-1.158l.91-.653a3.997 3.997 0 00-.835-1.445l-1.02.46a2.95 2.95 0 00-1.006-.582l-.111-1.114a4.017 4.017 0 00-1.67 0l-.111 1.114a2.95 2.95 0 00-1.006.582l-1.02-.46c-.373.413-.66.904-.835 1.445l.91.653a2.967 2.967 0 000 1.158l-.91.653c.175.541.462 1.032.835 1.445l1.02-.46c.29.256.631.455 1.006.582l.11 1.114a4.015 4.015 0 001.67 0l.112-1.114a2.951 2.951 0 001.006-.582l1.02.46c.372-.413.66-.904.835-1.445zM13.422 12a1.415 1.415 0 11-2.83 0 1.415 1.415 0 012.83 0z" fill="#9AA7B0" fill-opacity=".8"/></g><defs><clipPath id="a"><path fill="#fff" d="M0 0h16v16H0z"/></clipPath></defs></svg>