<svg xmlns="http://www.w3.org/2000/svg" viewBox="0 0 208 128" height="16" width="16"><rect fill="none" stroke-width="9.558" stroke="#000" ry="9.626" y="7.334" x="10.294" height="113.582" width="187.914"/><path d="M34.02 96.852V31.398h18.981l18.982 24.064 18.98-24.064h18.982v65.454H90.964v-37.54L71.983 83.377 53 59.313v37.54zm118.633 0L124.18 65.088h18.981v-33.69h18.981v33.69h18.982z"/><path d="M19.7 115.988c-.131-.045-.642-.15-1.135-.234-1.008-.171-2.37-1.266-2.98-2.396-.377-.696-.404-4.066-.404-49.233 0-45.166.027-48.536.404-49.233.595-1.102 1.958-2.216 2.98-2.436 1.172-.252 170.2-.252 171.372 0 1.021.22 2.384 1.334 2.98 2.436.376.697.404 4.067.404 49.233 0 48.052-.004 48.493-.476 49.304a5.071 5.071 0 0 1-3.424 2.433c-1.17.225-169.071.35-169.721.126zm33.474-37.556.06-18.62L62.612 71.7c9.026 11.444 9.39 11.87 9.751 11.393a5475.1 5475.1 0 0 1 9.413-11.951l9.038-11.456.06 18.682.062 18.683h19.024V31.199H90.98l-9.49 12.032-9.491 12.032-9.487-12.032L53.025 31.2H33.851v65.852h19.262zm113.849 2.579c7.726-8.624 14.048-15.761 14.049-15.86 0-.1-4.227-.181-9.394-.181h-9.395V31.199h-19.265V64.97h-9.414c-6.281 0-9.388.081-9.334.245.178.543 28.163 31.59 28.423 31.535.155-.033 6.603-7.116 14.33-15.74z" fill="#fff" stroke="#e6e6e6" stroke-width=".024"/></svg>