<svg xmlns="http://www.w3.org/2000/svg" viewBox="0 0 208 128" height="16" width="16"><rect fill="none" stroke-width="10" stroke="#000" ry="10" y="5" x="5" height="118" width="198"/><path d="M30 98V30h20l20 25 20-25h20v68H90V59L70 84 50 59v39zm125 0-30-33h20V30h20v35h20z"/><path d="M14.91 117.88c-.137-.047-.675-.156-1.195-.243-1.062-.178-2.497-1.315-3.14-2.489-.396-.724-.426-4.225-.426-51.148s.03-50.424.426-51.148c.627-1.146 2.063-2.303 3.14-2.531 1.236-.262 179.334-.262 180.57 0 1.077.228 2.513 1.385 3.14 2.53.396.725.426 4.226.426 51.149 0 49.92-.005 50.379-.502 51.222a5.341 5.341 0 0 1-3.607 2.527c-1.232.234-178.146.363-178.831.131zm35.272-39.017.064-19.344 9.88 12.351c9.51 11.89 9.894 12.332 10.274 11.837.217-.283 4.68-5.87 9.918-12.417l9.523-11.901.064 19.41.064 19.408h20.045V29.793H90.015l-10 12.5-9.999 12.5-9.995-12.5-9.996-12.5H29.822v68.414h20.295zm119.959 2.68c8.141-8.96 14.803-16.375 14.803-16.478 0-.103-4.454-.188-9.898-.188h-9.899V29.793h-20.299v35.084h-9.92c-6.617 0-9.89.085-9.834.255.188.564 29.674 32.819 29.949 32.761.162-.033 6.957-7.392 15.098-16.35z" fill="#fff" stroke="#e6e6e6" stroke-width=".026"/></svg>