<!--Created with Inkscape (http://www.inkscape.org/)--><svg version="1.2" width="16" height="16" xmlns="http://www.w3.org/2000/svg"><path d="M73.5 106.875c-42.677 7.737-72.156 24.253-72.156 43.406 0 26.564 56.72 48.125 126.687 48.125s126.688-21.56 126.688-48.125c0-18.827-28.526-35.102-70.031-43V111c26.532 6.88 43.968 18.444 43.968 31.563 0 21.1-45.05 38.218-100.625 38.218S27.375 163.663 27.375 142.562c0-13.469 18.39-25.29 46.125-32.093z" transform="matrix(.06315 0 0 .06568 -.085 -.432)" style="fill:#0067ab;fill-opacity:1;stroke:none"/><path d="M117.341 684.789v3.655c-5.415 1.03-9.41 2.938-11.982 5.727-2.572 2.79-3.859 5.971-3.859 9.546 0 3.628.65 8.137 1.95 13.525 1.3 5.389 1.95 10.087 1.95 14.095 0 3.682-1.097 7.433-3.29 11.25-2.194 3.819-5.348 7.082-9.464 9.79-2.87 1.895-7.447 3.682-13.73 5.361 6.716 2.112 11.59 4.197 14.623 6.255 4.008 2.762 7.014 6.012 9.017 9.749 2.004 3.736 3.006 7.284 3.006 10.641 0 3.25-.663 7.582-1.99 12.998-1.327 5.416-1.99 10.127-1.99 14.135 0 3.845 1.232 7.162 3.696 9.951 2.464 2.79 6.485 4.726 12.063 5.809v3.818h-2.843c-5.524.054-10.764-1.219-15.719-3.818-4.955-2.6-8.692-5.944-11.21-10.033-2.519-4.089-3.778-8.056-3.778-11.9 0-3.738.84-8.856 2.518-15.354 1.246-4.82 1.869-9.126 1.869-12.917 0-4.278-1.354-7.92-4.062-10.926-2.708-3.006-6.661-4.942-11.86-5.808v-4.956c5.199-.866 9.152-2.87 11.86-6.011s4.062-6.96 4.062-11.454c0-3.683-.596-7.826-1.787-12.43-1.68-6.444-2.519-11.345-2.519-14.703 0-3.52 1.056-7.094 3.168-10.723 2.113-3.628 4.766-6.58 7.962-8.855a32.703 32.703 0 0 1 10.479-4.955c2.924-.812 6.878-1.3 11.86-1.462zm56.134 146.305v-3.737c5.361-1.03 9.342-2.938 11.942-5.727 2.599-2.79 3.899-5.971 3.899-9.545 0-3.575-.65-8.056-1.95-13.445-1.3-5.388-1.95-10.087-1.95-14.094 0-3.737 1.084-7.514 3.25-11.332 2.166-3.819 5.334-7.081 9.505-9.79 2.87-1.84 7.446-3.628 13.728-5.36-6.715-2.113-11.59-4.198-14.622-6.256-4.062-2.762-7.095-6.011-9.098-9.748-2.004-3.737-3.006-7.284-3.006-10.642 0-3.25.663-7.582 1.99-12.998 1.327-5.415 1.99-10.1 1.99-14.054 0-3.899-1.218-7.23-3.655-9.991-2.437-2.762-6.445-4.712-12.023-5.85v-3.736l2.843-.081c5.47-.054 10.696 1.218 15.679 3.818 4.982 2.6 8.732 5.943 11.25 10.032 2.519 4.09 3.778 8.083 3.778 11.982 0 3.683-.84 8.774-2.518 15.273-1.246 4.82-1.869 9.125-1.869 12.916 0 4.279 1.34 7.934 4.022 10.967 2.68 3.033 6.647 4.955 11.9 5.768v4.955c-5.253.867-9.22 2.87-11.9 6.011-2.681 3.142-4.022 6.96-4.022 11.455 0 3.682.596 7.825 1.788 12.429 1.624 6.444 2.437 11.345 2.437 14.703 0 3.575-1.043 7.162-3.128 10.764-2.085 3.601-4.725 6.54-7.92 8.814a32.7 32.7 0 0 1-10.48 4.955c-2.924.813-6.878 1.327-11.86 1.544z" style="font-style:normal;font-variant:normal;font-weight:700;font-stretch:normal;font-size:166.37px;line-height:125%;font-family:'Times New Roman';-inkscape-font-specification:'Times New Roman Bold';text-align:start;writing-mode:lr-tb;text-anchor:start;display:inline;fill:#000;fill-opacity:1;stroke:#000;stroke-width:4.36847;stroke-linecap:butt;stroke-linejoin:round;stroke-miterlimit:4;stroke-dashoffset:0;stroke-opacity:1" transform="matrix(.06315 0 0 .06568 -1.184 -44.83)"/><path d="M147.146 560.429h-6.372v-16.631l-4.604 10.792h-4.42l-4.605-10.792v16.63h-6.038v-24.837h7.44l5.588 12.46 5.571-12.46h7.44zm29.509 0h-7.857l-7.423-9.942-1.501 1.818v8.124h-6.406V535.59h6.406v11.243l8.874-11.243h7.423l-9.708 11.493zm25.688-24.839-9.057 24.839h-7.173l-9.058-24.838h6.722l6.006 17.448 6.005-17.448z" style="font-style:normal;font-variant:normal;font-weight:700;font-stretch:normal;font-size:34.1627px;line-height:125%;font-family:Verdana;-inkscape-font-specification:'Verdana Bold';text-align:start;writing-mode:lr-tb;text-anchor:start;fill:#000;fill-opacity:1;stroke:none" transform="matrix(.1105 0 0 .11484 -9.872 -48.36)"/></svg>
