<!--Created with Inkscape (http://www.inkscape.org/)--><svg version="1.2" width="16" height="16" xmlns="http://www.w3.org/2000/svg"><path d="M6.387 16h-.704v-1.91l-.509 1.24h-.488l-.509-1.24V16H3.51v-2.852h.822l.617 1.43.616-1.43h.822zm3.261 0H8.78l-.82-1.142-.167.21V16h-.707v-2.852h.707v1.29l.981-1.29h.82l-1.072 1.32zm2.838-2.852-1 2.852h-.793l-1.001-2.852h.743l.663 2.003.664-2.003z" style="font-style:normal;font-variant:normal;font-weight:700;font-stretch:normal;font-size:34.1627px;line-height:125%;font-family:Verdana;-inkscape-font-specification:'Verdana Bold';text-align:start;writing-mode:lr-tb;text-anchor:start;fill:#000;fill-opacity:1;stroke:none"/><path d="M73.5 106.875c-42.677 7.737-72.156 24.253-72.156 43.406 0 26.564 56.72 48.125 126.687 48.125s126.688-21.56 126.688-48.125c0-18.827-28.526-35.102-70.031-43V111c26.532 6.88 43.968 18.444 43.968 31.563 0 21.1-45.05 38.218-100.625 38.218S27.375 163.663 27.375 142.562c0-13.469 18.39-25.29 46.125-32.093z" transform="matrix(.06315 0 0 .06568 -.085 -.432)" style="fill:#0067ab;fill-opacity:1;stroke:none"/><path d="M6.226.149v.24c-.342.068-.595.193-.757.376a.918.918 0 0 0-.244.627c0 .238.041.535.123.889.083.353.124.662.124.925 0 .242-.07.489-.208.74a1.89 1.89 0 0 1-.598.642c-.181.125-.47.242-.867.352.424.14.732.276.924.411.253.182.443.395.569.64.127.246.19.479.19.7 0 .213-.042.498-.126.853a4.128 4.128 0 0 0-.126.929c0 .252.078.47.234.653.156.183.41.31.762.382v.25h-.18c-.349.004-.68-.08-.992-.25a1.798 1.798 0 0 1-.708-.66 1.52 1.52 0 0 1-.239-.78c0-.246.053-.582.16-1.01.078-.316.117-.599.117-.848 0-.28-.085-.52-.256-.717-.171-.198-.421-.325-.75-.382v-.325c.329-.057.579-.189.75-.395a1.14 1.14 0 0 0 .256-.753 3.43 3.43 0 0 0-.113-.816c-.106-.423-.159-.745-.159-.966 0-.23.067-.466.2-.704A1.83 1.83 0 0 1 4.815.57a2.03 2.03 0 0 1 .662-.325C5.66.192 5.91.16 6.226.149zm3.544 9.61v-.246c.339-.067.59-.193.754-.376a.913.913 0 0 0 .247-.627c0-.235-.041-.53-.123-.883a4.175 4.175 0 0 1-.124-.926c0-.245.069-.493.206-.744.136-.25.337-.465.6-.643.181-.121.47-.238.867-.352-.424-.139-.732-.276-.924-.411a1.793 1.793 0 0 1-.574-.64 1.53 1.53 0 0 1-.19-.7c0-.213.042-.497.126-.853.084-.356.125-.663.125-.923a.98.98 0 0 0-.23-.656c-.154-.182-.407-.31-.76-.385V.15l.18-.005c.345-.004.675.08.99.25.315.171.551.39.71.66.16.268.239.53.239.786 0 .242-.053.577-.159 1.003-.079.317-.118.6-.118.849 0 .28.085.521.254.72.17.2.42.326.751.379v.325c-.331.057-.582.189-.751.395-.17.207-.254.457-.254.753 0 .242.038.514.113.816.102.423.154.745.154.966 0 .235-.066.47-.198.707-.131.236-.298.43-.5.579a2.03 2.03 0 0 1-.662.325 3.348 3.348 0 0 1-.749.102z" style="font-style:normal;font-variant:normal;font-weight:700;font-stretch:normal;font-size:166.37px;line-height:125%;font-family:'Times New Roman';-inkscape-font-specification:'Times New Roman Bold';text-align:start;writing-mode:lr-tb;text-anchor:start;display:inline;fill:#000;fill-opacity:1;stroke:#000;stroke-width:4.36847;stroke-linecap:butt;stroke-linejoin:round;stroke-miterlimit:4;stroke-dashoffset:0;stroke-opacity:1"/></svg>