<svg width="16" height="16" viewBox="0 0 16 16" fill="none" xmlns="http://www.w3.org/2000/svg"><g clip-path="url(#a)" fill-rule="evenodd" clip-rule="evenodd"><path d="M1 16h15V9H1v7Z" fill="#F4AF3D" fill-opacity=".7"/><path d="M7 1 3 5h4V1Z" fill="#9AA7B0" fill-opacity=".8"/><path d="M8 1v5H3v2h10V1H8Z" fill="#9AA7B0" fill-opacity=".8"/><path d="m15.7 10-1.6 2.45L15.7 15h-1.2l-1.05-1.907L12.4 15h-1.2l1.6-2.55L11.2 10h1.2l1.05 1.814L14.5 10h1.2ZM2 10h.936L4.5 12l1.479-2H7v5H6v-3.3l-1.5 1.8L3 11.7V15H2v-5Z" fill="#231F20" fill-opacity=".7"/><path d="M8.5 11v3h.649c.929 0 1.351-.507 1.351-1.485V12.5c0-.978-.422-1.5-1.351-1.5H8.5Zm-1-1h1.649c1.391 0 2.351 1.093 2.351 2.5 0 1.421-.96 2.5-2.351 2.5H7.5v-5Z" fill="#231F20" fill-opacity=".7"/></g><defs><clipPath id="a"><path fill="#fff" d="M0 0h16v16H0z"/></clipPath></defs></svg>