<svg version="1.0" width="16" height="16" viewBox="0 0 210 210" style="zoom:1" xmlns="http://www.w3.org/2000/svg"><circle cy="104.997" fill="#fff" r="65.1" cx="105" style="stroke-width:.93"/><g fill="#28abe1"><path d="M90.864 8.277c-21.297 3.44-39.525 12.648-54.684 27.9-13.113 13.02-21.762 28.365-26.319 46.407-2.79 11.439-2.79 33.387 0 44.826 4.557 18.042 13.206 33.387 26.319 46.407 13.02 13.113 28.365 21.762 46.407 26.319 11.439 2.79 33.387 2.79 44.826 0 18.042-4.557 33.387-13.206 46.407-26.32 13.113-13.02 21.762-28.364 26.319-46.406 2.79-11.44 2.79-33.387 0-44.826-4.557-18.042-13.206-33.387-26.319-46.407-12.927-13.02-28.458-21.855-45.942-26.133-8.649-2.14-28.737-3.07-37.014-1.767zm-14.88 55.242c1.395.744 3.255 2.139 4.185 3.162 1.581 1.767 1.953 1.767 6.045.465 5.301-1.674 12.276-1.023 16.461 1.488 3.069 1.767 3.162 1.767 8.928 0 15.996-5.022 27.342-2.232 32.736 7.812 1.86 3.627 2.046 5.3 2.325 23.808l.279 19.809 3.162 3.162c5.58 5.58 6.231 12.648 1.674 18.786-8.277 11.16-25.389 5.487-25.389-8.556 0-4.743 2.511-10.137 5.208-11.16 1.209-.465 1.395-3.162 1.116-19.716l-.279-19.158-2.604-2.232c-2.976-2.511-7.812-2.883-14.136-1.023l-3.627 1.116.279 19.995c.279 19.437.279 19.902 2.418 21.576 5.394 4.185 6.231 13.95 1.674 19.437-8.742 10.416-25.389 5.022-25.389-8.184 0-4.93 1.023-7.72 4.092-10.51l2.418-2.324v-19.344c0-18.042-.093-19.344-1.86-21.111-1.86-1.86-5.859-2.418-9.858-1.302-1.023.279-2.697 1.953-3.627 3.72-.93 1.86-2.511 3.72-3.441 4.185-1.488.837-1.674 2.418-1.674 17.67 0 13.857.186 16.833 1.395 17.205 2.604 1.023 5.115 6.417 5.115 11.16 0 14.043-17.112 19.716-25.389 8.556-4.557-6.138-3.906-13.206 1.674-18.88l3.255-3.161V90.024l-3.255-3.162c-7.161-7.161-5.952-17.67 2.697-22.878 3.441-2.046 9.858-2.325 13.392-.465z"/><path d="M64.08 71.098c-5.487 5.487-2.418 14.136 5.022 14.136 4.464 0 6.045-.744 7.533-3.813 3.069-5.766.186-11.625-6.231-12.648-2.976-.465-3.813-.093-6.324 2.325zm-.465 56.684c-3.348 3.348-3.162 8.184.465 11.81 2.511 2.419 3.348 2.79 6.324 2.326 3.999-.651 7.626-4.278 7.626-7.72 0-2.975-2.325-7.44-4.185-8.183-3.441-1.302-7.998-.558-10.23 1.767zm35.433.558c-4.557 5.394-1.86 12.462 5.208 13.578 2.976.465 3.813.093 6.324-2.325 5.673-5.673 2.418-14.136-5.487-14.136-2.976 0-4.092.558-6.045 2.883zm36.828-2.232c-1.674.65-3.906 5.3-3.906 8.09 0 3.442 3.627 7.069 7.626 7.72 2.976.465 3.813.093 6.324-2.325 5.58-5.673 2.418-14.23-5.301-14.043-1.953 0-4.092.279-4.743.558z"/></g></svg>