<svg width="16" height="16" viewBox="0 0 491 491" xml:space="preserve" style="fill-rule:evenodd;clip-rule:evenodd;stroke-linejoin:round;stroke-miterlimit:2" xmlns="http://www.w3.org/2000/svg"><path d="M462.315 102.842c0-41.393-33.604-74.997-74.997-74.997H102.842c-41.393 0-74.997 33.604-74.997 74.997v284.476c0 41.393 33.604 74.997 74.997 74.997h284.476c41.393 0 74.997-33.604 74.997-74.997z" style="fill:#ff3670;stroke-width:.886385"/><path d="M389.029 126.393c-63.725-2.727-122.239 36.482-143.949 96.456-21.71-59.974-80.224-99.183-143.949-96.456-2.123 50.567 22.069 98.79 63.873 127.32 21.422 14.713 34.223 39.117 34.153 65.105V363.9h91.855v-45.082c-.074-25.986 12.725-50.39 34.145-65.104 41.815-28.521 66.01-76.75 63.872-127.321z" style="fill:#fff;fill-rule:nonzero;stroke-width:.886385"/></svg>