<svg xmlns="http://www.w3.org/2000/svg" height="16" width="16" viewBox="0 0 142.89 156.99"><path fill="#ef4242" d="M3.919 53.026c0-7.113 5.108-15.806 11.297-19.353L60.96 7.556c6.217-3.547 16.386-3.547 22.604 0l45.743 26.117c6.218 3.547 11.307 12.297 11.307 19.353v52.234c0 7.094-5.089 15.806-11.307 19.353L83.564 150.73c-6.218 3.547-16.387 3.547-22.604 0l-45.744-26.117c-6.208-3.547-11.297-12.297-11.297-19.353z"/><path fill="#fff" d="M72.266 138.897a10.637 10.519 0 0 1-5.28-1.325l-42.558-24.3a11.03 10.906 0 0 1-5.27-9.034V55.647a11.03 10.906 0 0 1 5.27-9.034l42.568-24.3a11.24 11.114 0 0 1 10.522 0l42.558 24.3a11.01 10.887 0 0 1 5.271 9.034v48.591a11.02 10.897 0 0 1-5.261 9.034l-42.549 24.3a10.599 10.48 0 0 1-5.27 1.325zm-41.802-35.084 41.802 23.865 41.803-23.865v-47.74L72.266 32.206 30.464 56.072z"/><path fill="#ef4242" d="M72.266 126.448a6.352 6.28 0 0 1-3.175-.842l-47.456-27.09a6.361 6.29 0 0 1-3.186-5.449V38.885a6.361 6.29 0 0 1 9.71-5.373l44.155 26.486 44.156-26.486a6.361 6.29 0 0 1 9.652 5.373v54.182a6.352 6.28 0 0 1-3.176 5.448l-47.504 27.091a6.4 6.328 0 0 1-3.176.842zM31.162 89.425l41.133 23.468 41.133-23.468V50.056L75.634 72.758a6.342 6.271 0 0 1-6.6 0L31.228 50.056z"/><path fill="#fff" d="M125.366 107.038H114.07v-44.26L75.194 86.125a5.625 5.562 0 0 1-5.864 0L30.464 62.779v44.26H19.157V52.846a5.663 5.6 0 0 1 8.61-4.73l44.5 26.694 44.519-26.741a5.653 5.59 0 0 1 8.609 4.73z"/></svg>