<svg height="16" width="16" viewBox="0 0 515 515" xmlns="http://www.w3.org/2000/svg"><path d="M148.749 25.169c-4.776-.11-9.643 1.142-14.098 3.904-12.961 8.034-17.37 25.703-9.888 39.618l24.193 44.986-61.753 114.839H38.817c-14.966 0-27.014 12.935-27.014 29.003s12.048 29.003 27.014 29.003H87.22l61.743 114.82-24.2 45.001c-7.482 13.915-3.072 31.586 9.889 39.62 12.96 8.034 29.418 3.298 36.9-10.616l24.205-45.011H319.24l24.205 45.01c7.483 13.915 23.94 18.65 36.9 10.617 12.962-8.034 17.373-25.705 9.89-39.62l-24.2-45.005 61.742-114.82h48.406c14.966 0 27.012-12.934 27.012-29.003s-12.046-29.003-27.012-29.003h-48.389l-61.752-114.829 24.195-44.99c7.483-13.915 3.07-31.585-9.89-39.618-12.96-8.034-29.418-3.3-36.9 10.614l-24.19 44.982h-123.52L171.548 39.69c-4.91-9.131-13.686-14.308-22.802-14.518z" fill="#00aad4" stroke="#006680" stroke-linecap="round" stroke-linejoin="round" stroke-width="7.056"/><path d="M367.015 43.666a9.229 8.773 0 0 0-8.218 4.98l-45.184 89.612h-83.618a9.229 8.773 0 0 0-9.229 8.773 9.229 8.773 0 0 0 9.23 8.775h74.77L292.261 180.6H241.12a9.229 8.773 0 0 0-9.229 8.773 9.229 8.773 0 0 0 9.229 8.775h42.295l-6.182 12.26H251.14a9.229 8.773 0 0 0-9.228 8.772 9.229 8.773 0 0 0 9.228 8.775h25.406l16.387 28.036h-.01l-16.41 28.078h-25.405a9.229 8.773 0 0 0-9.229 8.774 9.229 8.773 0 0 0 9.229 8.773H277.2l6.182 12.26h-42.295a9.229 8.773 0 0 0-9.229 8.774 9.229 8.773 0 0 0 9.23 8.773h51.14l12.504 24.795h-74.77a9.229 8.773 0 0 0-9.23 8.775 9.229 8.773 0 0 0 9.23 8.772h83.617l45.184 89.613a9.229 8.773 0 0 0 12.311 4.118 9.229 8.773 0 0 0 4.332-11.704l-46.986-93.185 57.281-98.02 63.372.253a9.229 8.773 0 0 0 9.267-8.736 9.229 8.773 0 0 0 0-.075h.033a9.229 8.773 0 0 0 0-.117 9.229 8.773 0 0 0-9.267-8.736l-63.372.252-57.28-98.018 46.985-93.186a9.229 8.773 0 0 0-4.332-11.704 9.229 8.773 0 0 0-4.093-.861zm-48.341 125.142 45.996 78.705-25.06.1-32.569-55.731 11.633-23.074zm20.904 95.59 25.06.101-45.997 78.705-11.633-23.074 32.57-55.731z" fill="#d5f6ff"/><g fill="#5df"><ellipse cx="259.67" cy="49.729" rx="56.16" ry="19.613"/><ellipse transform="rotate(-60)" cx="-98.625" cy="558.84" rx="56.16" ry="19.613"/><ellipse transform="scale(-1 1) rotate(-60)" cx="-343.22" cy="-303.74" rx="56.16" ry="19.613"/></g><g fill="#08a"><ellipse cx="259.67" cy="472.65" rx="56.16" ry="19.613"/><ellipse transform="scale(-1 1) rotate(-60)" cx="-356.45" cy="112.28" rx="56.16" ry="19.613" opacity=".992"/><ellipse transform="rotate(-60)" cx="-84.083" cy="145.09" rx="56.16" ry="19.613" opacity=".992"/></g></svg>