<svg xmlns="http://www.w3.org/2000/svg" height="16" viewBox="0 0 23 23" width="16"><path d="M19.291 11.08h-1.445V7.252A1.926 1.926 0 0 0 15.92 5.34h-3.854V3.906c0-1.34-1.06-2.391-2.408-2.391-1.35 0-2.41 1.052-2.41 2.39V5.34H3.395c-1.06 0-1.927.861-1.927 1.913v3.635h1.445a2.581 2.581 0 0 1 2.602 2.582 2.581 2.581 0 0 1-2.602 2.583H1.467v3.634c0 1.052.867 1.913 1.927 1.913h3.661v-1.435a2.581 2.581 0 0 1 2.602-2.582 2.581 2.581 0 0 1 2.601 2.582V21.6h3.661c1.06 0 1.927-.86 1.927-1.913v-3.826h1.445c1.35 0 2.41-1.052 2.41-2.39 0-1.34-1.06-2.392-2.41-2.392z" fill="#8cd3ec" fill-rule="evenodd"/></svg>