<!--Created with Inkscape (http://www.inkscape.org/)--><svg width="16" height="16" viewBox="0 0 16 16" xmlns="http://www.w3.org/2000/svg"><g style="display:inline;stroke:#000;stroke-width:1.58;stroke-dasharray:none;stroke-opacity:1" class="UnoptimicedTransforms"><path style="display:inline;fill:#000;stroke:#000;stroke-width:.48;stroke-dasharray:none;stroke-opacity:1" d="M34.814 168.537c-1.822-.248-4.554-.772-6.07-1.165-1.515-.392-4.124-.714-5.797-.714-1.845 0-3.988-.363-5.45-.923a209.063 209.063 0 0 0-4.726-1.733c-1.273-.446-3.165-1.618-4.203-2.606-1.887-1.795-1.887-1.795-.828-4.342 1.49-3.586 5.346-7.575 9.149-9.466 5.778-2.873 13.82-4.263 21.598-3.732 2.574.175 4.68.159 4.68-.037s-.671-1.403-1.492-2.683c-.99-1.543-1.92-2.414-2.76-2.589-7.412-1.538-11.358-4.553-14.718-11.244-2.027-4.038-2.223-4.989-2.622-12.725-.678-13.153 1.424-20.43 10.883-37.68 10.6-19.328 13.59-27.4 13.59-36.687 0-7.531-4.964-17.467-10.472-20.96-3.324-2.108-5.489-2.566-8.033-1.699-1.883.642-5.5 3.056-5.493 3.666.002.132.95.266 2.106.297 6.166.166 9.153 8.87 4.725 13.763-2.333 2.578-10.143 4.046-14.82 2.787-4.848-1.305-8.986-6.308-9.475-11.454-1.073-11.297 6.884-19.518 21.487-22.2 4.203-.77 10.053-.37 14.435.99 16.025 4.976 25.07 27.884 18.795 47.6-1.464 4.598-3.287 8.127-7.5 14.514-9.625 14.594-14.558 28.247-13.607 37.659.402 3.974 2.103 9.053 4.098 12.235.845 1.347 1.56 2.497 1.591 2.556.031.06.908-.125 1.95-.408 3.083-.84 7.003-2.775 9.645-4.76 2.29-1.722 2.496-2.043 2.801-4.398 1.42-10.94 5.759-20.86 12.152-27.783 3.76-4.072 7.674-6.666 13.429-8.9 3.072-1.192 5.12-2.344 6.602-3.713 2.013-1.86 12.906-15.992 14.22-18.448.896-1.675.036-1.938-5.536-1.694-4.426.194-5.032.113-6.78-.9-2.603-1.506-3.652-3.818-3.957-8.72-.39-6.25 1.703-12.108 5.716-16 2.319-2.249 4.389-3.261 7.6-3.72 1.954-.278 2.388-.143 4.547 1.41 2.386 1.718 2.386 1.718 3.148.708.42-.556 1.377-2.453 2.128-4.216 2.64-6.198 5.778-10.504 8.777-12.044 1.31-.673 1.329-.499.189 1.778-1.159 2.313-1.623 4.294-1.084 4.627.235.145 2.015-1.16 3.955-2.899 1.94-1.74 4.371-3.593 5.403-4.12 1.875-.957 1.875-.957 1.578.408a49.589 49.589 0 0 1-.605 2.445c-.275.966-.137 1.081 1.308 1.09 3.713.025 7.896 2.873 11.26 7.665 1.888 2.69 2.547 3.305 3.316 3.09 6.592-1.831 10.296 1.336 10.707 9.156.177 3.376.034 4.315-1.102 7.22-.797 2.037-1.875 3.825-2.767 4.586-1.447 1.234-1.463 1.297-1.573 6.48-.086 4.05-.345 5.817-1.146 7.816-.568 1.42-.972 2.62-.896 2.665l2.93 1.738c4.765 2.822 8.143 8.084 9.709 15.12.667 3 .762 4.89.494 9.818-.331 6.104-.331 6.104 2.534 8.969 4.576 4.576 5.191 8.547 2.284 14.744-1.434 3.057-3.398 5.168-6.08 6.537-1.716.875-2.635 1.022-5.228.836-1.834-.132-3.96-.642-5.098-1.223-2.468-1.26-5.287-4.359-6.464-7.105-.5-1.167-1.199-2.122-1.552-2.122-1.138 0-8.379-3.72-11.978-6.155-3.398-2.298-6.98-5.738-9.63-9.248-.811-1.075-1.987-1.93-3.124-2.27-3.255-.975-7.082-4.978-9.643-10.086-1.117-2.227-2.937-7.9-2.937-9.153 0-3.6-3.587.749-5.865 7.11-.7 1.952-1.028 4.395-1.208 8.972-.247 6.29-.247 6.29 2.443 10.128 1.48 2.112 3.77 6.15 5.088 8.975 1.32 2.824 3.675 6.798 5.236 8.831 3.007 3.916 4.858 7.179 4.879 8.597.007.473.77 2.047 1.695 3.5.926 1.451 2.261 4.367 2.966 6.48 1.163 3.48 1.283 4.512 1.282 11.04 0 6.077-.175 7.822-1.12 11.195-2.092 7.464-7.16 11.697-15.876 13.257-3.568.639-19.747 1.248-37.68 1.418-10.296.097-20.988.294-23.76.438-2.772.143-6.53.057-8.353-.19zm13.633-3.118c2.244-.365 4.758-.668 5.586-.672 1.506-.008 1.506-.008-1.965-3.489-3.947-3.957-5.66-6.458-7.48-10.92-1.202-2.943-1.38-3.137-3.147-3.452-3.279-.582-12.796-.396-16.157.316-4.666.989-9.526 3.7-12.384 6.906-1.305 1.464-2.373 3.022-2.373 3.461 0 1.236 1.927 3.4 2.881 3.235.468-.08 1.807-1.549 2.977-3.263 3.904-5.722 9.906-9.312 13.858-8.288 1.55.402 1.55.402-1.567 1.936-4.133 2.035-7.141 4.759-8.839 8.004-1.78 3.403-1.374 4.283 2.075 4.488 2.405.143 2.405.143 2.7-1.703.743-4.643 5.559-8.76 10.249-8.76 1.335 0 2.768.307 3.295.705.909.688.906.705-.139.72-1.542.022-4.91 1.408-6.779 2.79-3.377 2.496-3.444 6.19-.138 7.603 3.96 1.693 8.664 1.797 17.347.383zm41.44-.657c2.594-.231 4.81-.514 4.924-.628.114-.113-.12-1.13-.518-2.261-.909-2.575-.922-4.854-.042-6.962.878-2.1.487-2.447-4.068-3.619-1.882-.484-3.513-.97-3.623-1.081-.11-.11.466-1.495 1.281-3.076 1.724-3.342 2.324-7.698 1.432-10.399-.317-.962-1.443-2.485-2.512-3.4-1.938-1.66-1.938-1.66-4.166-.484-1.225.647-3.061 1.496-4.08 1.888-1.457.56-1.781.893-1.519 1.556 1.46 3.687 2.868 15.86 2.139 18.5-.605 2.187-3.88 5.511-6.953 7.056-7.092 3.564-7.302 3.356 3.385 3.343 5.28-.006 11.724-.2 14.319-.433zm-23.72-2.954c2.53-1.348 5.493-3.177 6.583-4.065 1.768-1.44 2.049-1.962 2.584-4.802.775-4.104.337-8.796-1.274-13.671-1.823-5.516-1.932-5.612-4.383-3.836-3.778 2.737-6.099 7.049-7.578 14.079-.385 1.833-.814 3.514-.952 3.738-.586.949-1.83-.393-3.57-3.853-2.762-5.494-6.43-8.184-9.163-6.722-.959.513-1.028.832-.8 3.675.327 4.078 2.82 9.168 6.222 12.708 2.635 2.743 5.881 5.122 7.051 5.171.375.016 2.75-1.074 5.28-2.422zm43.294-.278c3.35-1.575 5.948-3.89 6.931-6.178.81-1.884 1.82-16.352 1.407-20.127-.323-2.946-2.053-7.452-3.457-9.004-.747-.825-.844-.804-2.203.467-2.211 2.069-4.984 6.62-5.675 9.315-.344 1.345-.907 2.554-1.251 2.686-.344.131-1.726-.234-3.072-.814-1.473-.633-2.902-.938-3.59-.765-1.077.27-1.144.496-1.144 3.866 0 3.296.096 3.643 1.21 4.372 1.589 1.042 3.74.674 6.754-1.154 4.25-2.576 4.316-2.558 5.228 1.445.852 3.734.677 6.798-.518 9.11-.674 1.302-.674 1.302-2.714.376-3.996-1.814-8.894-.545-10.229 2.649-.797 1.91-.422 3.167 1.406 4.707 1.614 1.361 6.995.892 10.917-.951zm-1.583-11.164c.25-3.417.095-3.503-3.76-2.12-3.64 1.308-5.8 1.271-7.945-.134-2.036-1.334-2.706-5.604-1.58-10.073.785-3.119 1.978-3.752 6.37-3.381 3.516.297 3.516.297 5.98-4.771 1.356-2.788 2.464-5.158 2.464-5.269 0-.11-.347-.2-.772-.2-2.915 0-10.517-6.337-16.563-13.806-1.273-1.573-2.214-2.356-2.495-2.076-.252.253-.317 1.787-.148 3.487.166 1.67.437 5.233.602 7.919.283 4.623.234 5-.92 7.064-1.218 2.18-1.218 2.18.2 3.756 3.804 4.23 4.04 7.624 1.15 16.509-.273.838-.096 1.059 1.028 1.284.747.149 2.178.827 3.18 1.507 1.487 1.01 2.41 1.243 5.04 1.273 1.77.02 4.082.32 5.138.667 1.056.347 2.136.583 2.4.526.264-.057.548-1.03.63-2.162zm-45.214-12.073c1.118-2.126 2.65-4.146 4.08-5.378 2.292-1.974 2.292-1.974.607-5.18-.927-1.764-2.178-3.67-2.782-4.237-1.097-1.03-1.097-1.03-2.393 1.859-1.465 3.263-2.205 7.067-2.2 11.301.004 2.645.356 5.04.741 5.04.087 0 .963-1.532 1.947-3.405zm99.403-27.153c2.71-1.757 3.98-4.172 3.98-7.566 0-3.165-1.046-5.517-3.502-7.876-1.667-1.6-1.667-1.6-2.442-.493-.427.609-.776 1.315-.776 1.57 0 .253-.455.946-1.01 1.538-.947 1.007-.962 1.148-.24 2.178.987 1.41.98 2.741-.024 3.85-.96 1.061-3.183 1.149-4.006.157-.76-.917-2.295-.915-4.5.006-1.956.817-2.104 1.351-.886 3.199 2.923 4.432 9.335 6.076 13.406 3.436zm-12.848-9.558c1.83-.543 3.192-1.402 4.844-3.053 6.512-6.513 7.541-16.667 2.669-26.343-1.997-3.965-3.917-6.289-6.882-8.329-2.129-1.464-2.129-1.464-4.435-.21-2.83 1.541-5.857 2.003-8.487 1.294-2.654-.714-3.903-1.812-4.692-4.123-.594-1.74-.842-1.945-2.63-2.193-2.588-.358-5.02-2.713-6.28-6.08-1.129-3.018-1.2-4.93-.296-7.936.975-3.24 2.4-4.935 5.374-6.39 2.412-1.18 2.826-1.246 4.558-.727 1.048.314 2.169.993 2.49 1.508.812 1.3 1.592 1.18 3.822-.586 1.06-.839 2.71-1.651 3.67-1.806 1.576-.254 1.759-.442 1.903-1.955.088-.921-.088-2.539-.39-3.595-.847-2.95-4.424-10.32-5.01-10.318-.285.001-1.2.416-2.03.923-1.683 1.026-2.441 2.825-3.252 7.715-.285 1.716-.72 3.08-.966 3.031-.247-.048-1.029-1.733-1.738-3.743-1.617-4.58-2.876-6.008-5.3-6.008-1.504 0-2.067.314-3.44 1.917-.901 1.054-1.89 2.753-2.197 3.775-.627 2.096-.682 9.046-.102 13.028.212 1.452.318 2.716.237 2.808-.081.093-1.565-.187-3.298-.622-3.726-.934-5.996-.64-7.988 1.037-1.258 1.058-1.406 1.476-1.406 3.98 0 4.89 3.058 9.827 5.332 8.61.5-.268.908-.88.908-1.363 0-.481.138-1.878.306-3.103.276-2.013.212-2.227-.662-2.227-.531 0-1.235.324-1.564.72-1.419 1.71-2.796.436-1.89-1.75 1.264-3.052 6.326-3.188 8.72-.234 1.185 1.464 1.046 1.864-.529 1.518-1.219-.268-1.416-.147-1.7 1.041-.177.74-.448 4.6-.602 8.576-.328 8.425.34 12.767 2.962 19.27 3.975 9.86 13.85 19.744 21.797 21.818 3.993 1.043 5.03 1.059 8.174.125zm-33.59-23.788c-1.498-5.862-2.38-11.288-2.38-14.647-.001-2.952-.001-2.952-2.166-3.124-2.436-.194-2.404-.236-2.883 3.915-.506 4.39 1.414 11.554 3.955 14.753.865 1.089 4.092 3.498 4.357 3.252.08-.073-.318-1.94-.882-4.15zm27.945-17.336c1.354-1.082 1.38-2.67.06-3.708-2.59-2.036-7.157-1.623-8.236.745-.799 1.753-.685 2.392.53 2.977 1.507.727 6.731.718 7.646-.014zm-9.221-5.774c2.065-1.045 3.374-3.54 3.374-6.432 0-2.333-.998-5.914-1.649-5.914-.142 0-.551.702-.91 1.56-.877 2.1-1.971 2.932-3.386 2.577-1.216-.305-2.215-2.33-2.215-4.488 0-1.832-1.057-1.086-2.52 1.779-1.575 3.085-1.684 5.576-.357 8.177 1.529 2.997 4.827 4.176 7.663 2.741zm13.355-.706c1.7-4.514 1.857-5.917 1.004-8.988-.53-1.907-.53-1.907-1.394-.84-1.89 2.334-5.27.77-5.27-2.439 0-1.642-.739-1.533-2.117.313-.838 1.123-.887 1.447-.348 2.309.344.551.73 2.218.855 3.704.347 4.083.586 4.86 1.499 4.876.457.009 1.694.547 2.75 1.198 2.392 1.473 2.417 1.472 3.021-.133z" transform="matrix(.09337 0 0 .09299 -.08 -.035)"/><path style="display:inline;fill:#9c4a00;fill-opacity:1;fill-rule:evenodd;stroke:#000;stroke-width:1.58;stroke-dasharray:none;stroke-opacity:1" d="M-21.295 38.355c-.543-.544-.378-3.099.383-5.937.39-1.452.705-3.072.7-3.6-.01-.874-.105-.848-1.075.291-.585.688-1.312 1.66-1.615 2.16-.91 1.503-1.625.19-1.94-3.557-.228-2.726-.124-3.66.514-4.634 1.615-2.466 5.855-1.05 7.315 2.445.364.872.661 3.195.661 5.162 0 3.308-.12 3.735-1.582 5.654-1.541 2.02-2.676 2.7-3.36 2.016zm-50.864 7.472c-1.868-.451-4.764-1.85-6.233-3.01-1.697-1.342-.62-10.424 1.805-15.208 2.18-4.301 7.68-6.959 10.533-5.09 1.165.764 4.051 3.709 5.277 5.386.57.778.695.587 1.194-1.815.605-2.915 3.078-7.423 5.385-9.819 1.996-2.072 5.31-3.787 9.204-4.765 4.925-1.237 8.7-.146 11.315 3.27.562.734.422 1.082-1.117 2.786-.968 1.071-2 2.476-2.295 3.122-.684 1.503-1.203 1.457-3.242-.285-3.532-3.019-9.223-1.12-11.86 3.956-1.188 2.286-1.34 3.143-1.51 8.47l-.19 5.926-1.22-.233c-.67-.129-2.171.09-3.335.487-1.164.397-2.17.643-2.239.547a244.77 244.77 0 0 1-1.753-2.814c-3.646-5.904-6.183-8.202-8.968-8.12-1.34.038-1.34.04.329.766 2.572 1.12 4.327 2.53 4.327 3.477 0 .495-.918 1.439-2.172 2.231-1.995 1.261-3.925 3.389-3.479 3.835.103.102.995-.364 1.984-1.036 2.026-1.377 4.511-1.905 5.587-1.188.517.344.72 1.358.72 3.583 0 4.185-1.114 5.777-4.128 5.895-1.161.045-2.925-.114-3.919-.354z" class="UnoptimicedTransforms" transform="matrix(.09337 0 0 .09299 15.851 .04)"/><path style="display:inline;fill:#fff;fill-rule:evenodd;stroke:#000;stroke-width:1.58;stroke-dasharray:none;stroke-opacity:1" d="M-26.432 53.558c-.66-.52-1.794-1.077-2.52-1.24-1.437-.322-1.566-.658-2.027-5.253-.158-1.58-.496-3.082-.75-3.336-.847-.847-.486-2.962.695-4.07 1.634-1.536 2.884-1.163 3.082.921.276 2.907 1.982 3.795 3.68 1.918 1.228-1.356 1.985-1.195 2.594.552.756 2.17.586 6.027-.39 8.808-.969 2.767-2.332 3.297-4.364 1.7zm-15.829.324c-3.1-1.569-4.273-7.188-2.374-11.375 1.975-4.353 3.548-5.007 3.928-1.635.3 2.66 1.814 4.526 2.925 3.605.386-.32 1.056-1.329 1.489-2.24.966-2.037 1.923-2.112 2.897-.227 1.947 3.765 1.163 8.826-1.747 11.275-1.63 1.372-5.025 1.656-7.118.597z" class="UnoptimicedTransforms" transform="matrix(.09337 0 0 .09299 15.851 .04)"/><path style="display:inline;fill:#ff8c63;fill-opacity:1;fill-rule:evenodd;stroke:#000;stroke-width:1.58;stroke-dasharray:none;stroke-opacity:1" d="M-34.712 59.942c-1.58-.655-1.8-.946-1.8-2.375 0-2.883 2.432-4.366 6.42-3.917 4.347.49 6.009 3.344 3.442 5.91-.963.963-1.642 1.174-3.72 1.153-1.398-.013-3.352-.36-4.342-.77z" class="UnoptimicedTransforms" transform="matrix(.09337 0 0 .09299 15.851 .04)"/><path style="display:inline;fill:#ffbdd6;fill-opacity:1;fill-rule:evenodd;stroke:#000;stroke-width:1.58;stroke-dasharray:none;stroke-opacity:1" d="M-57.212 79.76c-2.535-1.935-4.451-5.27-5.44-9.463-.734-3.115-.882-8.121-.318-10.759.297-1.388.404-1.44 2.943-1.44h2.635l.34 4.422c.188 2.431.904 6.86 1.592 9.84 1.799 7.785 1.946 9.018 1.08 9.018-.392 0-1.667-.728-2.832-1.618z" class="UnoptimicedTransforms" transform="matrix(.09337 0 0 .09299 15.851 .04)"/><path style="display:inline;fill:#ffbdd6;fill-opacity:1;fill-rule:evenodd;stroke:#000;stroke-width:1.58;stroke-dasharray:none;stroke-opacity:1" d="M-30.406 100.821c-7.565-2.08-17.411-11.825-21.454-21.232-2.78-6.468-3.492-10.267-3.443-18.37.023-3.829.21-8.14.417-9.58.315-2.202.554-2.66 1.5-2.884 1.116-.263 1.117-.273.18-1.121-1.547-1.4-3.97-1.552-5.506-.344-.726.57-1.32 1.492-1.32 2.047 0 1.003.007 1.002 1.16-.08.833-.783 1.458-.995 2.221-.752 1.015.322 1.048.501.731 3.995-.182 2.012-.588 3.822-.902 4.021-3.666 2.332-8.591-7.004-6.427-12.184 1.243-2.974 6.03-4.03 11.333-2.5 1.112.32 1.143.264.842-1.543-.775-4.641-.916-9.823-.328-12.052.941-3.572 3.271-6.784 5.386-7.424 3.4-1.028 5.488.885 7.533 6.9l.854 2.514.323-2.748c.622-5.292 2.729-8.506 5.576-8.506 1.166 0 1.524.483 3.652 4.92 2.023 4.217 2.385 5.417 2.536 8.4l.175 3.48h-1.625c-1.15 0-2.372.561-4.18 1.92-1.406 1.056-2.805 1.92-3.11 1.92-.304 0-1.164-.648-1.912-1.44-1.787-1.893-4.224-1.955-6.85-.174-3.203 2.172-4.413 4.574-4.471 8.873-.068 5.032 2.776 9.252 6.683 9.92 1.922.327 2.138.515 2.766 2.398 1.456 4.368 8.042 5.485 12.901 2.187 2.072-1.406 2.686-1.213 6.322 1.987 3.022 2.66 5.483 6.663 7.042 11.458 1.188 3.653 1.3 4.563 1.1 9.027-.272 6.05-1.413 9.258-4.588 12.887-3.877 4.433-8.904 5.79-15.117 4.08z" class="UnoptimicedTransforms" transform="matrix(.09337 0 0 .09299 15.851 .04)"/><path style="display:inline;fill:#ffbdd6;fill-opacity:1;fill-rule:evenodd;stroke:#000;stroke-width:1.58;stroke-dasharray:none;stroke-opacity:1" d="M-17.298 111.128c-1.18-.549-2.812-1.506-3.626-2.126-1.646-1.257-3.523-4.882-2.828-5.463.242-.202 1.592-.763 2.999-1.246 2.538-.872 2.569-.87 3.94.143 1.805 1.335 2.664 1.29 3.634-.19.734-1.121.735-1.277.01-2.078-1.017-1.125-.993-2.538.07-3.965a20.461 20.461 0 0 0 1.521-2.465c.368-.726 1.01-1.312 1.428-1.303 1.1.026 3.066 1.828 4.655 4.268 1.198 1.84 1.384 2.586 1.384 5.561 0 2.971-.18 3.695-1.327 5.35-2.645 3.818-7.876 5.367-11.86 3.514z" class="UnoptimicedTransforms" transform="matrix(.09337 0 0 .09299 15.851 .04)"/><path style="display:inline;fill:#9c4a00;fill-opacity:1;fill-rule:evenodd;stroke:#000;stroke-width:1.58;stroke-dasharray:none;stroke-opacity:1" d="M-67.326 115.93c-3.61-2.38-7.353-5.242-8.318-6.36-2.063-2.391-4.068-6.132-4.068-7.59 0-2.362 4.336-8.142 6.088-8.116.216.003 1.688 2.541 3.272 5.64 3.412 6.674 7.39 12.846 10.485 16.265 2.73 3.016 2.95 4.49.67 4.49-1.165 0-3.24-1.105-8.129-4.329z" class="UnoptimicedTransforms" transform="matrix(.09337 0 0 .09299 15.851 .04)"/><path style="display:inline;fill:#9c4a00;fill-opacity:1;fill-rule:evenodd;stroke:#000;stroke-width:1.58;stroke-dasharray:none;stroke-opacity:1" d="M-95.056 131.898c.009-.198.434-1.548.944-3 .673-1.912.934-3.963.948-7.44.022-5.544 2.553-19.161 4.545-24.454 1.352-3.591.963-3.763-.915-.403-3.356 6.004-5.443 14.7-5.878 24.488-.315 7.079-.81 8.227-3.276 7.608-.98-.246-1.603-1.071-2.848-3.777-.954-2.072-2.403-4.233-3.61-5.382-2.465-2.35-4.552-5.314-4.982-7.08-.183-.752.104-3.41.669-6.179 2.968-14.567 9.44-24.553 18.707-28.863 13.236-6.155 12.414-5.548 17.695-13.078 6.84-9.753 7.863-10.732 8.514-8.139.435 1.736-.97 5.07-3.39 8.04-2.075 2.548-4.568 7.054-5.882 10.634-.419 1.14-.862 4.824-1.072 8.907-.374 7.283-.822 8.933-2.929 10.8-1.813 1.606-4.683 6.4-5.553 9.278-.801 2.648-1.009 7.659-.61 14.72.201 3.585-1.175 6.7-4.301 9.74-2.73 2.652-6.83 4.819-6.776 3.58zm-40.967-.084c-7.026-4.122-10.52-10.999-10.512-20.687.01-11.494 3.737-22.617 13.238-39.512 1.954-3.474 4.091-7.397 4.75-8.717 2.27-4.551 5.597-14.549 6.047-18.17 1.265-10.194-2.582-21.031-9.807-27.626-3.406-3.108-5.92-4.339-8.893-4.353-5.774-.028-10.748 3.863-11.717 9.165l-.317 1.736 3.767.218c4.11.238 5.879 1.034 6.801 3.06 1.439 3.156.203 4.89-4.635 6.5-2.495.83-3.812.985-6.588.775-4.073-.308-5.833-1.105-7.858-3.562-1.875-2.275-2.21-4.094-1.505-8.171 1.376-7.959 6.79-13.49 15.415-15.75 4.615-1.209 12.575-.77 16.765.923 8.207 3.319 14.044 9.784 17.037 18.874 1.56 4.733 2.112 12.81 1.21 17.702-1.611 8.757-6.066 18.806-12.787 28.853-4.904 7.328-6.466 10.309-8.321 15.88-2.651 7.959-2.967 15.667-1.001 24.483.485 2.177 1.282 4.522 1.772 5.21 2.5 3.517 2.61 3.775 2.329 5.453-.155.924-.436 3.084-.625 4.8-.535 4.855-.881 5.077-4.565 2.916z" class="UnoptimicedTransforms" transform="matrix(.09337 0 0 .09299 15.851 .04)"/><path style="display:inline;fill:#ffbdd6;fill-opacity:1;fill-rule:evenodd;stroke:#000;stroke-width:1.58;stroke-dasharray:none;stroke-opacity:1" d="M-111.089 140.298c-.7-2.615-.297-10.356.71-13.63 1.94-6.299 2.77-7.037 4.974-4.418 1.435 1.706 4.109 6.78 4.064 7.715-.016.337-.914 1.261-1.996 2.053-1.31.96-2.7 2.756-4.17 5.389-2.283 4.088-3.087 4.737-3.582 2.891z" class="UnoptimicedTransforms" transform="matrix(.09337 0 0 .09299 15.851 .04)"/><path style="display:inline;fill:#9c4a00;fill-opacity:1;fill-rule:evenodd;stroke:#000;stroke-width:1.58;stroke-dasharray:none;stroke-opacity:1" d="M-116.192 140.586c-2.994-2.183-5.517-3.116-6.949-2.572-2.022.77-2.455.597-3.3-1.316-1.366-3.086-1.831-6.774-1.228-9.717.74-3.608 3.243-6.004 8.475-8.113 2.135-.861 4.267-1.99 4.737-2.51 1.12-1.238 2.967-.994 4.086.54.86 1.18.847 1.284-.765 6-.903 2.64-1.886 6.625-2.184 8.854-.498 3.718-.455 4.963.303 8.786.342 1.726-.849 1.744-3.175.048z" class="UnoptimicedTransforms" transform="matrix(.09337 0 0 .09299 15.851 .04)"/><path style="display:inline;fill:#ffbdd6;fill-opacity:1;fill-rule:evenodd;stroke:#000;stroke-width:1.58;stroke-dasharray:none;stroke-opacity:1" d="M-72.407 162.23c-2.29-1.605-3.128-4.868-1.753-6.831 1.862-2.659 7.818-3.888 10.943-2.258.757.395 1.437.717 1.513.717.445 0 1.192-3.373 1.192-5.379 0-2.373-.853-6.62-1.33-6.62-.142 0-1.61.755-3.261 1.68-3.887 2.173-6.835 2.32-8.334.414-.78-.992-.995-1.954-.995-4.464 0-1.848.244-3.442.576-3.775.885-.885 3.568-.685 5.749.427 2.025 1.034 2.77.78 2.788-.952.016-1.453 3.44-7.603 5.305-9.53 2.263-2.339 2.784-2.457 4.195-.955 2.023 2.154 3.13 5.597 3.352 10.434.289 6.292-.578 17.774-1.473 19.5-2.06 3.973-6.994 7.098-12.456 7.888-4.121.596-4.784.563-6.011-.297zm-31.425 2.324c-.726-.11-1.32-.462-1.32-.784 0-.32 1.992-1.656 4.426-2.968 5.135-2.767 7.888-5.328 8.345-7.765.45-2.398-.053-8.827-1.043-13.339-1.338-6.091-1.379-5.944 2.082-7.421 1.655-.707 3.264-1.54 3.576-1.852.815-.816 1.72-.704 3.573.442 4.159 2.57 4.925 9.175 1.787 15.406-.625 1.24-.976 2.353-.78 2.473.195.12 1.358.369 2.585.553 2.479.37 5.213 1.817 5.202 2.752-.003.334-.33 1.534-.724 2.667-.76 2.181-.633 3.535.606 6.476.46 1.09.59 1.98.326 2.226-.926.862-24.321 1.789-28.64 1.134z" class="UnoptimicedTransforms" transform="matrix(.09337 0 0 .09299 15.851 .04)"/><path style="display:inline;fill:#ffbdd6;fill-opacity:1;fill-rule:evenodd;stroke:#000;stroke-width:1.58;stroke-dasharray:none;stroke-opacity:1" d="M-113.614 161.808c-5.018-3.379-9.08-9.459-10.296-15.408-.492-2.409-.477-3.138.087-4.32.785-1.646 2.968-2.12 5.305-1.151 1.975.818 4.948 4.368 6.212 7.418 1.587 3.827 2.09 3.66 3.072-1.023 1.41-6.72 4.804-12.485 8.463-14.377 2.029-1.05 2.3-.898 3.584 2.007 1.707 3.858 2.58 8.02 2.588 12.332.011 5.774-.665 7.763-3.367 9.899-2.875 2.272-10.572 6.273-12.068 6.273-.622 0-2.233-.742-3.58-1.65z" class="UnoptimicedTransforms" transform="matrix(.09337 0 0 .09299 15.851 .04)"/><path style="display:inline;fill:#ffbdd6;fill-opacity:1;fill-rule:evenodd;stroke:#000;stroke-width:1.58;stroke-dasharray:none;stroke-opacity:1" d="M-138.882 164.817c-3.233-1.127-4.472-2.825-3.978-5.454.365-1.95 3.263-4.679 5.846-5.505 2.385-.763 3.139-1.44 1.598-1.437-2.311.005-4.874 1.049-6.76 2.753-2.18 1.97-3.026 3.423-3.493 6.004l-.326 1.8h-2.579c-3.466 0-4.098-.306-4.098-1.987 0-3.421 3.782-8.23 8.64-10.986l2.64-1.498-2.128.242c-3.1.352-6.922 3.229-10.034 7.55-2.892 4.017-4.193 4.61-6.128 2.792-.778-.731-1.15-1.61-1.15-2.72 0-1.375.489-2.128 3-4.632 5.776-5.756 13.723-8.067 24.498-7.124 3.141.275 5.938.727 6.217 1.005.278.278.906 1.644 1.396 3.035 1.273 3.616 3.887 7.355 7.738 11.07 3.93 3.79 4.016 4.693.445 4.693-1.286 0-4.478.323-7.095.717-6.418.968-10.843.869-14.249-.318z" class="UnoptimicedTransforms" transform="matrix(.09337 0 0 .09299 15.851 .04)"/></g></svg>