<?xml version="1.0" encoding="UTF-8" standalone="no"?>
<!-- Created with Inkscape (http://www.inkscape.org/) -->

<svg
   version="1.1"
   id="svg2"
   width="16"
   height="16"
   viewBox="0 0 16 16"
   xmlns="http://www.w3.org/2000/svg">
  <g
     id="g8"
     transform="translate(-4.285984,-3.6660814)">
    <g
       id="g7542"
       transform="matrix(0.09721662,0,0,0.09682006,20.460647,3.3774949)"
       style="display:inline;stroke:#000000;stroke-width:1.58;stroke-dasharray:none;stroke-opacity:1"
       class="UnoptimicedTransforms">
      <path
         style="display:inline;fill:#000000;stroke:#000000;stroke-width:0.48;stroke-dasharray:none;stroke-opacity:1"
         d="m 34.813953,168.53674 c -1.8224,-0.24765 -4.55358,-0.77161 -6.06928,-1.16437 -1.5157,-0.39276 -4.12447,-0.71411 -5.79726,-0.71411 -1.84538,0 -3.98889,-0.36294 -5.45071,-0.92293 -1.32511,-0.50762 -3.45146,-1.28766 -4.72524,-1.73343 -1.27377,-0.44577 -3.1651602,-1.61832 -4.2030702,-2.60567 -1.88711,-1.79517 -1.88711,-1.79517 -0.82855,-4.34234 1.49003,-3.58543 5.3460102,-7.5751 9.1487502,-9.46598 5.77827,-2.87318 13.82112,-4.26293 21.59883,-3.73211 2.574,0.17567 4.68,0.159 4.68,-0.037 0,-0.19605 -0.67169,-1.40319 -1.49265,-2.68254 -0.99035,-1.54334 -1.91913,-2.4146 -2.76,-2.58911 -7.41164,-1.53813 -11.35729,-4.55272 -14.71729,-11.24441 -2.02761,-4.03814 -2.22349,-4.98856 -2.62247,-12.72443 -0.67836,-13.15281 1.42361,-20.430368 10.88308,-37.679998 10.5992,-19.327968 13.58933,-27.400443 13.58933,-36.68727 0,-7.531381 -4.9639,-17.466965 -10.47176,-20.959946 -3.32392,-2.10797 -5.48834,-2.565656 -8.03291,-1.698634 -1.88268,0.641495 -5.4998,3.05571 -5.49239,3.66585 0.002,0.132 0.94923,0.26553 2.10582,0.296734 6.16544,0.166336 9.15327,8.869581 4.72483,13.76295 -2.33281,2.577724 -10.14312,4.046412 -14.82051,2.786921 C 9.2134128,36.759732 5.0754528,31.757097 4.5864228,26.611125 3.5128628,15.31431 11.469773,7.093412 26.072783,4.4118998 c 4.20311,-0.771807 10.05329,-0.3706464 14.43504,0.989846 16.02521,4.9756682 25.07063,27.8830502 18.79524,47.5986242 -1.46357,4.598131 -3.28755,8.128099 -7.50015,14.51507 -9.62512,14.593234 -14.55826,28.246085 -13.60692,37.65822 0.40173,3.97456 2.10278,9.05348 4.09804,12.23576 0.84449,1.34689 1.56062,2.49704 1.5914,2.55589 0.0308,0.0588 0.90782,-0.12507 1.94898,-0.40869 3.08338,-0.83996 7.00385,-2.7745 9.64513,-4.75937 2.29126,-1.72182 2.49625,-2.04362 2.80187,-4.39834 1.41997,-10.940675 5.75816,-20.859097 12.15169,-27.78254 3.76079,-4.072474 7.67432,-6.666048 13.4289,-8.899584 3.0724,-1.192493 5.12083,-2.344796 6.60181,-3.713717 2.01301,-1.860696 12.905827,-15.991939 14.220177,-18.447831 0.89651,-1.675135 0.0357,-1.938602 -5.536297,-1.694445 -4.42586,0.193936 -5.03188,0.113584 -6.78027,-0.898982 -2.60212,-1.507 -3.65104,-3.818841 -3.95688,-8.72105 -0.38992,-6.249934 1.70315,-12.108193 5.71647,-15.999728 2.31894,-2.248565 4.38889,-3.261489 7.600407,-3.719223 1.95378,-0.27847 2.38782,-0.143876 4.54626,1.409798 2.38626,1.717659 2.38626,1.717659 3.1484,0.707272 0.41917,-0.555713 1.37654,-2.452677 2.12748,-4.215477 2.64062,-6.198728 5.77869,-10.5045682 8.77786,-12.0443823 1.31012,-0.6726305 1.32852,-0.4986889 0.18811,1.7784133 -1.1581,2.31244 -1.62229,4.293653 -1.08394,4.626371 0.23523,0.145379 2.01504,-1.159021 3.95513,-2.8986667 1.9401,-1.7396457 4.37147,-3.5935833 5.40306,-4.1198612 1.87562,-0.9568688 1.87562,-0.9568688 1.57818,0.4080829 -0.16358,0.7507235 -0.43582,1.8509518 -0.60497,2.4449518 -0.27502,0.9658291 -0.1367,1.0811145 1.30845,1.0905417 3.71212,0.024216 7.89534,2.8717045 11.25904,7.6639475 1.88805,2.689889 2.54792,3.304834 3.31694,3.091096 6.59208,-1.832174 10.29583,1.33508 10.70629,9.155457 0.17717,3.375491 0.0338,4.314838 -1.10181,7.21966 -0.79647,2.037289 -1.87532,3.825273 -2.76698,4.585692 -1.44718,1.234186 -1.46258,1.297653 -1.57286,6.48 -0.0862,4.049753 -0.34531,5.817752 -1.1456,7.816011 -0.56882,1.420325 -0.97231,2.619917 -0.89663,2.665761 0.0757,0.04584 1.3945,0.827765 2.93073,1.737596 4.76408,2.821521 8.14257,8.083516 9.70812,15.120403 0.6674,2.999793 0.76259,4.889261 0.49467,9.817934 -0.33178,6.103253 -0.33178,6.103253 2.53348,8.968507 4.57608,4.57608 5.19149,8.547562 2.28466,14.743742 -1.43437,3.05749 -3.39817,5.16872 -6.08082,6.5373 -1.71545,0.87516 -2.63464,1.02217 -5.22735,0.83604 -1.83399,-0.13166 -3.96024,-0.64168 -5.09864,-1.22301 -2.46738,-1.25995 -5.28659,-4.35893 -6.46379,-7.10523 -0.50014,-1.1668 -1.19846,-2.12145 -1.5518,-2.12145 -1.13774,0 -8.37895,-3.72103 -11.97787,-6.155038 -3.39774,-2.297957 -6.98037,-5.738674 -9.63006,-9.248602 -0.81122,-1.07459 -1.98765,-1.929307 -3.12417,-2.269819 -3.25468,-0.975125 -7.082,-4.978229 -9.64302,-10.085904 -1.11668,-2.227118 -2.93655,-7.899293 -2.93655,-9.152673 0,-3.600063 -3.58777,0.748771 -5.865887,7.110196 -0.69885,1.951469 -1.0277,4.394717 -1.20749,8.971311 -0.24707,6.289469 -0.24707,6.289469 2.443097,10.128624 1.47959,2.111539 3.76926,6.150055 5.08814,8.974495 1.31888,2.82443 3.67503,6.79855 5.23589,8.83137 3.00695,3.9162 4.85825,7.17855 4.87854,8.59692 0.007,0.47252 0.76982,2.04712 1.6957,3.49912 0.92588,1.452 2.2606,4.368 2.96605,6.48 1.16276,3.48112 1.28254,4.51291 1.28168,11.04 -9.6e-4,6.07813 -0.17539,7.82258 -1.12051,11.19556 -2.09159,7.46455 -7.1599,11.69703 -15.87521,13.2572 -3.56878,0.63887 -19.747407,1.24754 -37.679997,1.4176 -10.296,0.0976 -20.988,0.29473 -23.76,0.43796 -2.772,0.14324 -6.53106,0.0578 -8.35347,-0.18984 z m 13.63347,-3.11751 c 2.244,-0.36531 4.75761,-0.66798 5.58581,-0.67258 1.5058,-0.008 1.5058,-0.008 -1.9648,-3.48839 -3.94695,-3.95763 -5.65993,-6.45796 -7.48092,-10.91942 -1.20159,-2.94392 -1.37864,-3.13816 -3.14666,-3.45234 -3.27838,-0.58257 -12.79541,-0.39658 -16.15692,0.31576 -4.66549,0.98866 -9.52583,3.69895 -12.38397,6.90571 -1.3049,1.46406 -2.37254,3.02168 -2.37254,3.46138 0,1.2361 1.92625,3.39913 2.8809,3.23504 0.46757,-0.0804 1.80717,-1.54896 2.97691,-3.26355 3.90354,-5.72178 9.90623,-9.31161 13.85799,-8.28761 1.54976,0.40159 1.54976,0.40159 -1.56721,1.93607 -4.13252,2.03443 -7.141,4.75854 -8.83906,8.00357 -1.78086,3.40327 -1.37395,4.28345 2.07491,4.48822 2.40556,0.14284 2.40556,0.14284 2.70069,-1.7028 0.74255,-4.64366 5.55817,-8.76003 10.24809,-8.76003 1.33488,0 2.76875,0.30668 3.29504,0.70474 0.90922,0.6877 0.90588,0.7051 -0.13855,0.72 -1.54182,0.022 -4.90997,1.40803 -6.77894,2.78963 -3.37723,2.49654 -3.44448,6.19041 -0.13844,7.60346 3.96065,1.69283 8.66446,1.79672 17.34767,0.38314 z m 41.43866,-0.65674 c 2.59526,-0.23185 4.81157,-0.51445 4.92512,-0.62801 0.11356,-0.11356 -0.11984,-1.13131 -0.51865,-2.26169 -0.90839,-2.57465 -0.922,-4.85418 -0.0416,-6.9614 0.87764,-2.1005 0.48752,-2.44762 -4.0678,-3.61936 -1.88227,-0.48416 -3.51276,-0.97075 -3.62332,-1.08131 -0.11056,-0.11056 0.46607,-1.49447 1.2814,-3.07537 1.72361,-3.34201 2.32334,-7.69795 1.43179,-10.39938 -0.31745,-0.96188 -1.44284,-2.48511 -2.51252,-3.4007 -1.93751,-1.65845 -1.93751,-1.65845 -4.16532,-0.48304 -1.2253,0.64648 -3.06137,1.49613 -4.08017,1.88811 -1.4568,0.5605 -1.78109,0.89263 -1.51861,1.55531 1.4603,3.68688 2.86713,15.85948 2.1381,18.49982 -0.60412,2.18794 -3.87888,5.51162 -6.95239,7.05624 -7.09209,3.5642 -7.3026,3.35628 3.38526,3.34365 5.28,-0.006 11.7234,-0.20103 14.31866,-0.43287 z m -23.71859,-2.95451 c 2.52996,-1.34766 5.49223,-3.17706 6.58281,-4.06533 1.76745,-1.43958 2.0482,-1.96124 2.58412,-4.80147 0.77433,-4.10381 0.33691,-8.79586 -1.27455,-13.67163 -1.82303,-5.51592 -1.93176,-5.61106 -4.38311,-3.83531 -3.77823,2.73694 -6.09879,7.04836 -7.57768,14.07875 -0.38548,1.83253 -0.81372,3.51445 -0.95164,3.73761 -0.5868,0.94945 -1.83049,-0.3927 -3.5702,-3.85282 -2.76199,-5.4933 -6.43042,-8.18419 -9.16338,-6.72155 -0.95877,0.51311 -1.02818,0.83197 -0.79999,3.67476 0.32736,4.07815 2.8193,9.16793 6.22196,12.70831 2.63556,2.74223 5.88117,5.12212 7.05166,5.17073 0.37404,0.0155 2.75004,-1.07439 5.28,-2.42205 z m 43.293437,-0.27829 c 3.34981,-1.57445 5.94819,-3.89051 6.93114,-6.17804 0.80918,-1.88315 1.82066,-16.35123 1.40709,-20.12681 -0.32269,-2.94591 -2.05288,-7.45135 -3.45754,-9.00348 -0.74678,-0.82519 -0.84316,-0.80475 -2.20276,0.46698 -2.21124,2.06834 -4.98362,6.6193 -5.67446,9.31484 -0.34476,1.34516 -0.9079,2.5536 -1.25143,2.68542 -0.34353,0.13183 -1.72588,-0.23407 -3.07188,-0.8131 -1.47287,-0.63361 -2.902447,-0.93855 -3.590467,-0.76587 -1.07643,0.27017 -1.1432,0.49602 -1.1432,3.86671 0,3.29611 0.0958,3.64259 1.2093,4.37216 1.588957,1.04113 3.740557,0.67352 6.754287,-1.154 4.24972,-2.577 4.31582,-2.55873 5.22846,1.44499 0.85116,3.73399 0.67673,6.79727 -0.51866,9.10891 -0.6737,1.30279 -0.6737,1.30279 -2.71354,0.37687 -3.99617,-1.81393 -8.894297,-0.54565 -10.228937,2.64858 -0.79772,1.90921 -0.4223,3.16685 1.40527,4.70751 1.614237,1.36083 6.995247,0.89176 10.917327,-0.95167 z m -1.58323,-11.16364 c 0.24956,-3.41679 0.0957,-3.50353 -3.75926,-2.11933 -3.64002,1.30703 -5.800447,1.27031 -7.945277,-0.13504 -2.036,-1.33405 -2.70609,-5.60352 -1.58083,-10.07233 0.78541,-3.11915 1.97907,-3.75262 6.371487,-3.38133 3.51523,0.29715 3.51523,0.29715 5.97942,-4.77115 1.3553,-2.78757 2.46418,-5.15837 2.46418,-5.26845 0,-0.11009 -0.34776,-0.20016 -0.77281,-0.20016 -2.91496,0 -10.516997,-6.33695 -16.562337,-13.80613 -1.27351,-1.57345 -2.21444,-2.35627 -2.49499,-2.07572 -0.25211,0.25211 -0.3174,1.78691 -0.1483,3.48613 0.16617,1.66965 0.43688,5.2334 0.60158,7.91946 0.28345,4.6225 0.23429,5.00036 -0.91907,7.06394 -1.21853,2.1802 -1.21853,2.1802 0.19876,3.75626 3.80453,4.2307 4.04087,7.62346 1.14998,16.50841 -0.27273,0.83818 -0.0957,1.05908 1.0289,1.284 0.74706,0.14942 2.17788,0.82787 3.17961,1.50766 1.48768,1.00959 2.41091,1.24275 5.04,1.27288 1.770267,0.0203 4.082677,0.3204 5.138677,0.66692 1.056,0.34652 2.136,0.58313 2.4,0.52581 0.264,-0.0573 0.54763,-1.03015 0.63028,-2.16183 z m -45.213397,-12.0727 c 1.11739,-2.12638 2.64961,-4.14602 4.08054,-5.3786 2.29131,-1.97368 2.29131,-1.97368 0.60635,-5.18015 -0.92672,-1.76356 -2.17855,-3.67018 -2.78184,-4.23694 -1.09688,-1.03047 -1.09688,-1.03047 -2.39357,1.85894 -1.46441,3.26312 -2.20457,7.06715 -2.19902,11.30166 0.003,2.6451 0.35532,5.04 0.74047,5.04 0.0868,0 0.963,-1.53221 1.94707,-3.40491 z m 99.402807,-27.15366 c 2.7098,-1.75707 3.98031,-4.17209 3.98031,-7.5659 0,-3.1647 -1.04616,-5.517176 -3.50244,-7.875901 -1.66657,-1.600373 -1.66657,-1.600373 -2.44206,-0.493195 -0.42653,0.608947 -0.7755,1.31519 -0.7755,1.569437 0,0.254241 -0.4551,0.946689 -1.01133,1.538769 -0.94596,1.00693 -0.96147,1.147695 -0.24,2.17774 0.98793,1.41047 0.97996,2.7415 -0.023,3.84983 -0.96074,1.0616 -3.18286,1.14914 -4.00561,0.15779 -0.76125,-0.91725 -2.29593,-0.91505 -4.50138,0.006 -1.95547,0.81705 -2.10324,1.35109 -0.88496,3.19833 2.92335,4.43261 9.33513,6.07627 13.40604,3.43665 z m -12.84785,-9.55753 c 1.83017,-0.5435 3.19205,-1.40208 4.8434,-3.053423 6.51281,-6.512817 7.54159,-16.666958 2.66893,-26.34276 -1.9966,-3.964733 -3.91688,-6.288729 -6.88182,-8.328657 -2.12874,-1.464615 -2.12874,-1.464615 -4.43453,-0.209645 -2.83071,1.54067 -5.85721,2.002022 -8.48735,1.293797 -2.65414,-0.714687 -3.90293,-1.812029 -4.69227,-4.12321 -0.59402,-1.739328 -0.84147,-1.945718 -2.62965,-2.193293 -2.58827,-0.358344 -5.01978,-2.712533 -6.27972,-6.080001 -1.12922,-3.018111 -1.20062,-4.930723 -0.29627,-7.935656 0.97533,-3.240767 2.40019,-4.935012 5.37393,-6.389928 2.41219,-1.180173 2.82645,-1.246284 4.55822,-0.727433 1.04769,0.313895 2.16844,0.992727 2.49055,1.508515 0.81152,1.299441 1.59114,1.17972 3.82163,-0.586861 1.05877,-0.838562 2.70985,-1.651045 3.66907,-1.805518 1.5764,-0.253865 1.75939,-0.441813 1.90372,-1.955343 0.0878,-0.920965 -0.0881,-2.538482 -0.39095,-3.594482 -0.84629,-2.950911 -4.42326,-10.320223 -5.00833,-10.318206 -0.28622,0.001 -1.20013,0.41627 -2.03092,0.922851 -1.68255,1.025961 -2.44109,2.825566 -3.25204,7.715355 -0.28459,1.716 -0.71922,3.080042 -0.96585,3.031204 -0.24662,-0.04884 -1.02889,-1.733404 -1.73838,-3.74348 -1.61661,-4.580069 -2.87596,-6.007724 -5.29948,-6.007724 -1.50427,0 -2.0676,0.313892 -3.43926,1.916363 -0.90218,1.054 -1.89102,2.75306 -2.1974,3.77569 -0.62794,2.095875 -0.68254,9.045698 -0.10236,13.027947 0.21155,1.452 0.31815,2.715632 0.23689,2.80807 -0.0813,0.09244 -1.56544,-0.187475 -3.29818,-0.62203 -3.72544,-0.934305 -5.99567,-0.639721 -7.98773,1.036485 -1.25817,1.058678 -1.40569,1.47641 -1.40569,3.980349 0,4.889564 3.0572,9.826729 5.3313,8.60967 0.49978,-0.267475 0.9087,-0.880574 0.9087,-1.362437 0,-0.481867 0.13736,-1.878264 0.30524,-3.103113 0.27592,-2.01303 0.21239,-2.226994 -0.66122,-2.226994 -0.53156,0 -1.23537,0.324 -1.56402,0.72 -1.41925,1.710091 -2.79654,0.436157 -1.89127,-1.749351 1.26459,-3.052987 6.32725,-3.189106 8.72059,-0.23447 1.18572,1.463795 1.04659,1.863126 -0.52862,1.517153 -1.21908,-0.267756 -1.41658,-0.146737 -1.70017,1.041862 -0.17648,0.739641 -0.44749,4.598673 -0.60225,8.575622 -0.32784,8.424922 0.33953,12.766483 2.96218,19.270546 3.9753,9.85859 13.85081,19.743547 21.79688,21.817736 3.9937,1.04249 5.03097,1.05832 8.1745,0.1248 z M 115.62962,77.793851 c -1.49862,-5.861736 -2.3808,-11.287426 -2.38154,-14.647258 -4.8e-4,-2.951664 -4.8e-4,-2.951664 -2.16519,-3.123816 -2.4354,-0.193694 -2.40411,-0.236189 -2.88288,3.915485 -0.50626,4.389994 1.41431,11.553715 3.95522,14.752992 0.86443,1.088405 4.09192,3.497683 4.3566,3.252149 0.0794,-0.07368 -0.31757,-1.940981 -0.88221,-4.149552 z M 143.5744,60.458262 c 1.35408,-1.082587 1.37954,-2.669462 0.0595,-3.707808 -2.58896,-2.036477 -7.15685,-1.623667 -8.23576,0.744278 -0.799,1.753604 -0.68556,2.391797 0.52928,2.977695 1.50742,0.726998 6.73206,0.717321 7.64698,-0.01416 z m -9.22139,-5.774069 c 2.06487,-1.044835 3.37441,-3.541099 3.37441,-6.432332 0,-2.333198 -0.99843,-5.913599 -1.64906,-5.913599 -0.14194,0 -0.5515,0.702 -0.91015,1.56 -0.87745,2.099148 -1.97166,2.931618 -3.38659,2.576494 -1.21551,-0.305073 -2.2142,-2.329393 -2.2142,-4.488121 0,-1.831939 -1.0571,-1.085696 -2.52,1.778944 -1.57543,3.085016 -1.68432,5.5768 -0.35736,8.177857 1.52852,2.996146 4.82686,4.175837 7.66295,2.740757 z m 13.35498,-0.705931 c 1.69994,-4.514543 1.85675,-5.917718 1.00444,-8.987765 -0.52965,-1.907764 -0.52965,-1.907764 -1.39427,-0.84 -1.8899,2.333934 -5.27074,0.76945 -5.27074,-2.439038 0,-1.642339 -0.73801,-1.533217 -2.11635,0.312925 -0.83805,1.122474 -0.88692,1.446251 -0.34847,2.308461 0.34447,0.551578 0.72951,2.218442 0.85565,3.704143 0.34665,4.082748 0.58541,4.859796 1.49831,4.876255 0.45697,0.0083 1.69486,0.547133 2.75086,1.197542 2.39187,1.473192 2.41635,1.472117 3.02057,-0.132523 z"
         id="path11304"
         transform="translate(-170.62812,-0.80062142)" />
      <path
         style="display:inline;fill:#9c4a00;fill-opacity:1;fill-rule:evenodd;stroke:#000000;stroke-width:1.58;stroke-dasharray:none;stroke-opacity:1"
         d="m -21.294917,38.354816 c -0.54336,-0.543346 -0.37832,-3.098718 0.3834,-5.936593 0.38973,-1.452 0.70434,-3.072 0.69913,-3.6 -0.009,-0.874433 -0.10438,-0.848504 -1.0743,0.290903 -0.58566,0.687996 -1.31246,1.659996 -1.61512,2.16 -0.90967,1.502826 -1.62521,0.190437 -1.93939,-3.557099 -0.22851,-2.725612 -0.12502,-3.660925 0.51276,-4.634302 1.61589,-2.466163 5.85496,-1.048905 7.31509,2.445673 0.364,0.871195 0.66183,3.194137 0.66183,5.162093 0,3.307834 -0.11955,3.734844 -1.58275,5.653225 -1.54071,2.020003 -2.6758,2.700959 -3.36065,2.0161 z"
         id="path3174"
         class="UnoptimicedTransforms" />
      <path
         style="display:inline;fill:#9c4a00;fill-opacity:1;fill-rule:evenodd;stroke:#000000;stroke-width:1.58;stroke-dasharray:none;stroke-opacity:1"
         d="m -72.158971,45.826834 c -1.867791,-0.451285 -4.763986,-1.850331 -6.232546,-3.010716 -1.6974,-1.341202 -0.61955,-10.423141 1.804819,-15.207403 2.179402,-4.300841 7.679952,-6.958554 10.532921,-5.089216 1.16493,0.76329 4.05084,3.708483 5.27711,5.385509 0.56902,0.778179 0.69509,0.586525 1.19355,-1.81456 0.60529,-2.915659 3.07786,-7.423907 5.38541,-9.819233 1.99584,-2.071757 5.30881,-3.78705 9.20414,-4.765443 4.92424,-1.236825 8.69863,-0.145769 11.31486,3.270767 0.56169,0.733516 0.42199,1.08177 -1.11747,2.785769 -0.96767,1.0711 -2.00016,2.475858 -2.29442,3.121685 -0.68488,1.503161 -1.20387,1.457504 -3.24279,-0.285278 -3.53156,-3.01862 -9.2222,-1.120253 -11.85983,3.956374 -1.18762,2.285795 -1.34046,3.142812 -1.51044,8.469412 l -0.18912,5.926278 -1.21974,-0.233167 c -0.67085,-0.128241 -2.17177,0.09123 -3.33538,0.487707 -1.16361,0.396481 -2.17098,0.642581 -2.23861,0.546889 -0.0676,-0.09569 -0.85655,-1.361985 -1.75317,-2.813985 -3.64601,-5.904458 -6.183216,-8.201985 -8.968003,-8.120844 -1.340496,0.03906 -1.33968,0.04096 0.3282,0.767092 2.572363,1.119902 4.327963,2.530249 4.327963,3.476832 0,0.495025 -0.918782,1.438469 -2.172826,2.231139 -1.994265,1.260566 -3.924422,3.388533 -3.478243,3.834713 0.102101,0.102102 0.99456,-0.364036 1.983245,-1.035863 2.026253,-1.376875 4.511654,-1.905275 5.587824,-1.18798 0.51623,0.344079 0.72,1.357884 0.72,3.582205 0,4.185796 -1.11454,5.777396 -4.128298,5.895365 -1.161436,0.04546 -2.925057,-0.113859 -3.919156,-0.354048 z"
         id="path3170"
         class="UnoptimicedTransforms" />
      <path
         style="display:inline;fill:#ffffff;fill-rule:evenodd;stroke:#000000;stroke-width:1.58;stroke-dasharray:none;stroke-opacity:1"
         d="m -26.431517,53.557889 c -0.66,-0.518967 -1.7942,-1.076904 -2.52045,-1.23986 -1.43675,-0.322377 -1.56641,-0.658464 -2.02674,-5.253343 -0.15834,-1.580445 -0.49599,-3.081645 -0.75035,-3.336 -0.84658,-0.846587 -0.48563,-2.961353 0.69472,-4.070235 1.63468,-1.535706 2.88385,-1.162105 3.08204,0.921776 0.27643,2.906568 1.98188,3.795255 3.68078,1.917996 1.22718,-1.356021 1.98417,-1.194983 2.59304,0.551627 0.75637,2.169705 0.58615,6.027239 -0.38867,8.808373 -0.96962,2.766283 -2.33277,3.297144 -4.36437,1.699666 z"
         id="path3166"
         class="UnoptimicedTransforms" />
      <path
         style="display:inline;fill:#ffffff;fill-rule:evenodd;stroke:#000000;stroke-width:1.58;stroke-dasharray:none;stroke-opacity:1"
         d="m -42.261357,53.882037 c -3.10014,-1.568611 -4.27252,-7.187979 -2.37322,-11.375182 1.97423,-4.352401 3.54761,-5.007301 3.92774,-1.634867 0.29982,2.660048 1.81426,4.526426 2.92493,3.604651 0.38608,-0.320415 1.05599,-1.328637 1.48869,-2.240494 0.96626,-2.036229 1.9228,-2.110904 2.89742,-0.226194 1.94701,3.7651 1.16278,8.82617 -1.74703,11.274621 -1.63047,1.37195 -5.02482,1.65684 -7.11853,0.597465 z"
         id="path3162"
         class="UnoptimicedTransforms" />
      <path
         style="display:inline;fill:#ff8c63;fill-opacity:1;fill-rule:evenodd;stroke:#000000;stroke-width:1.58;stroke-dasharray:none;stroke-opacity:1"
         d="m -34.711517,59.942153 c -1.57964,-0.655205 -1.8,-0.945989 -1.8,-2.375266 0,-2.882942 2.43159,-4.366363 6.42028,-3.916781 4.34627,0.489888 6.008,3.343469 3.44154,5.909933 -0.96329,0.963283 -1.64181,1.173672 -3.72,1.15345 -1.398,-0.01358 -3.35182,-0.360706 -4.34182,-0.771336 z"
         id="path3158"
         class="UnoptimicedTransforms" />
      <path
         style="display:inline;fill:#ffbdd6;fill-opacity:1;fill-rule:evenodd;stroke:#000000;stroke-width:1.58;stroke-dasharray:none;stroke-opacity:1"
         d="m -57.212437,79.760268 c -2.53413,-1.934952 -4.45062,-5.269407 -5.43927,-9.463627 -0.7342,-3.114821 -0.88231,-8.120828 -0.3183,-10.758418 0.29675,-1.387752 0.40353,-1.44 2.9432,-1.44 h 2.63529 l 0.3401,4.42141 c 0.18706,2.431776 0.90334,6.859776 1.59174,9.84 1.79822,7.784899 1.94601,9.01859 1.08039,9.01859 -0.3928,0 -1.66772,-0.728078 -2.83315,-1.617955 z"
         id="path3154"
         class="UnoptimicedTransforms" />
      <path
         style="display:inline;fill:#ffbdd6;fill-opacity:1;fill-rule:evenodd;stroke:#000000;stroke-width:1.58;stroke-dasharray:none;stroke-opacity:1"
         d="m -30.406177,100.82129 c -7.56496,-2.080541 -17.41108,-11.824867 -21.45422,-21.232401 -2.77957,-6.467472 -3.49146,-10.266538 -3.44241,-18.370666 0.0232,-3.828 0.21069,-8.138448 0.41671,-9.57877 0.31496,-2.20197 0.55376,-2.661004 1.50041,-2.884131 1.11534,-0.262889 1.11701,-0.273343 0.17953,-1.121747 -1.54722,-1.400213 -3.97019,-1.55155 -5.50551,-0.343869 -0.72592,0.571007 -1.31985,1.492169 -1.31985,2.047026 0,1.002987 0.007,1.002521 1.15916,-0.08015 0.83296,-0.782518 1.45813,-0.994091 2.22151,-0.751803 1.0146,0.32202 1.04745,0.501601 0.73083,3.995521 -0.18233,2.012092 -0.58801,3.821443 -0.9015,4.020782 -3.66675,2.331523 -8.5916,-7.004128 -6.42737,-12.183863 1.24286,-2.974573 6.02913,-4.030866 11.33245,-2.500982 1.1127,0.320991 1.14359,0.26442 0.84205,-1.542403 -0.77454,-4.641026 -0.91555,-9.822648 -0.32796,-12.051988 0.94153,-3.572271 3.27155,-6.783777 5.38597,-7.423562 3.3995,-1.028629 5.4885,0.884826 7.53317,6.900154 l 0.85439,2.513567 0.32297,-2.747978 c 0.62203,-5.29251 2.72857,-8.505804 5.57615,-8.505804 1.16561,0 1.52378,0.48252 3.652,4.919863 2.02234,4.216602 2.38475,5.417325 2.53537,8.4 l 0.17574,3.480137 h -1.62538 c -1.1504,0 -2.37211,0.561079 -4.18066,1.92 -1.40541,1.056 -2.8043,1.92 -3.10865,1.92 -0.30435,0 -1.16497,-0.648 -1.91248,-1.44 -1.78682,-1.893138 -4.22444,-1.954988 -6.85078,-0.173826 -3.20233,2.171797 -4.41229,4.573284 -4.47046,8.872809 -0.0681,5.031475 2.7756,9.251721 6.68349,9.918849 1.92173,0.328061 2.13775,0.515453 2.76564,2.399112 1.45608,4.368245 8.04148,5.484595 12.90085,2.186938 2.07201,-1.406103 2.68651,-1.212975 6.32162,1.986777 3.02248,2.660491 5.4829,6.663581 7.04257,11.458215 1.18825,3.652833 1.29906,4.56287 1.09914,9.026755 -0.271,6.050669 -1.41275,9.25823 -4.5873,12.887208 -3.87746,4.43253 -8.90361,5.78911 -15.11719,4.08023 z"
         id="path3150"
         class="UnoptimicedTransforms" />
      <path
         style="display:inline;fill:#ffbdd6;fill-opacity:1;fill-rule:evenodd;stroke:#000000;stroke-width:1.58;stroke-dasharray:none;stroke-opacity:1"
         d="m -17.297867,111.12828 c -1.18049,-0.54909 -2.81205,-1.5061 -3.62567,-2.12668 -1.64686,-1.25613 -3.52394,-4.88176 -2.82806,-5.46246 0.24205,-0.20198 1.5913,-0.7627 2.99836,-1.24605 2.53798,-0.87184 2.56923,-0.8707 3.94056,0.14316 1.80505,1.33454 2.6637,1.28956 3.63336,-0.19033 0.73476,-1.12139 0.73559,-1.2772 0.0111,-2.07779 -1.01822,-1.12512 -0.99349,-2.538206 0.0694,-3.965174 0.46895,-0.629602 1.15345,-1.738733 1.52111,-2.464733 0.36765,-0.726 1.00996,-1.312234 1.42734,-1.302739 1.1007596,0.02506 3.0665696,1.827101 4.6554796,4.267685 1.19782,1.839873 1.38341,2.585913 1.38341,5.561041 0,2.97085 -0.17962,3.69528 -1.32659,5.35037 -2.64527,3.81712 -7.8758396,5.36679 -11.8597496,3.5137 z"
         id="path3146"
         class="UnoptimicedTransforms" />
      <path
         style="display:inline;fill:#9c4a00;fill-opacity:1;fill-rule:evenodd;stroke:#000000;stroke-width:1.58;stroke-dasharray:none;stroke-opacity:1"
         d="m -67.325962,115.9303 c -3.610373,-2.38036 -7.353283,-5.24236 -8.317584,-6.36 -2.063309,-2.39142 -4.067971,-6.13228 -4.067971,-7.59116 0,-2.361488 4.335917,-8.141135 6.087974,-8.11509 0.215616,0.0034 1.688026,2.541207 3.272026,5.64 3.41175,6.67443 7.38973,12.8458 10.48404,16.2647 2.72956,3.0159 2.94976,4.48947 0.67089,4.48947 -1.16568,0 -3.24019,-1.10443 -8.129375,-4.32792 z"
         id="path3142"
         class="UnoptimicedTransforms" />
      <path
         style="display:inline;fill:#9c4a00;fill-opacity:1;fill-rule:evenodd;stroke:#000000;stroke-width:1.58;stroke-dasharray:none;stroke-opacity:1"
         d="m -95.055845,131.89822 c 0.0086,-0.198 0.433565,-1.548 0.944328,-3 0.67261,-1.91209 0.933941,-3.96347 0.947818,-7.44 0.02213,-5.54464 2.55299,-19.1617 4.545019,-24.454024 1.351776,-3.591336 0.962309,-3.762879 -0.915442,-0.403215 -3.355521,6.003679 -5.443128,14.700379 -5.878128,24.487539 -0.31464,7.07923 -0.809001,8.22757 -3.275467,7.60853 -0.980731,-0.24615 -1.603083,-1.07128 -2.848733,-3.7769 -0.95393,-2.07199 -2.40282,-4.2328 -3.60875,-5.38193 -2.46575,-2.34962 -4.55237,-5.31445 -4.98277,-7.07988 -0.18341,-0.75232 0.10404,-3.40941 0.6685,-6.17923 2.96868,-14.567577 9.44089,-24.552911 18.707953,-28.862687 13.235328,-6.155261 12.413678,-5.54797 17.694302,-13.0782 6.839508,-9.753226 7.863108,-10.731787 8.513818,-8.139182 0.43573,1.736107 -0.96957,5.069232 -3.390082,8.040667 -2.074968,2.547235 -4.567339,7.053168 -5.881536,10.633152 -0.418843,1.140965 -0.862041,4.824014 -1.071835,8.907096 -0.374184,7.282565 -0.821784,8.932958 -2.928888,10.7994 -1.813325,1.606209 -4.683235,6.401164 -5.55335,9.278344 -0.80101,2.64868 -1.008898,7.65921 -0.610743,14.72052 0.202104,3.58438 -1.17382,6.70038 -4.300516,9.73918 -2.729271,2.65254 -6.829416,4.81945 -6.775498,3.58082 z"
         id="path3136"
         class="UnoptimicedTransforms" />
      <path
         style="display:inline;fill:#9c4a00;fill-opacity:1;fill-rule:evenodd;stroke:#000000;stroke-width:1.58;stroke-dasharray:none;stroke-opacity:1"
         d="m -136.02255,131.81411 c -7.02596,-4.1217 -10.52086,-10.9991 -10.51239,-20.68671 0.01,-11.494388 3.73653,-22.616934 13.23819,-39.512334 1.95386,-3.474264 4.0912,-7.396843 4.74964,-8.716843 2.27042,-4.551552 5.59738,-14.54886 6.04708,-18.171107 1.26546,-10.192903 -2.58199,-21.030443 -9.80716,-27.62495 -3.40575,-3.10848 -5.91977,-4.33921 -8.8927,-4.353401 -5.77446,-0.02757 -10.74857,3.863238 -11.71727,9.165389 l -0.31716,1.73593 3.76704,0.21807 c 4.10934,0.237886 5.87887,1.033806 6.80178,3.059385 1.43839,3.156914 0.20216,4.89056 -4.63529,6.500359 -2.49517,0.830338 -3.81188,0.985273 -6.58862,0.775269 -4.07306,-0.308044 -5.83228,-1.10564 -7.85731,-3.56236 -1.8752,-2.274939 -2.21018,-4.093508 -1.50514,-8.171125 1.37603,-7.95835 6.78931,-13.4891711 15.41461,-15.7493242 4.61524,-1.2093644 12.57569,-0.7711056 16.76573,0.9230291 8.20671,3.3181661 14.04317,9.7837071 17.03702,18.8733501 1.55889,4.732954 2.11115,12.810288 1.21036,17.702748 -1.61226,8.75662 -6.06648,18.805928 -12.78831,28.852084 -4.90344,7.328476 -6.46524,10.309104 -8.32078,15.879849 -2.6512,7.959504 -2.96643,15.667842 -1.00125,24.483792 0.48523,2.17679 1.2829,4.52153 1.7726,5.21055 2.49932,3.51656 2.60923,3.77392 2.32865,5.45246 -0.15446,0.924 -0.43551,3.084 -0.62457,4.8 -0.53489,4.85512 -0.88158,5.07658 -4.56475,2.91589 z"
         id="path11194"
         class="UnoptimicedTransforms" />
      <path
         style="display:inline;fill:#ffbdd6;fill-opacity:1;fill-rule:evenodd;stroke:#000000;stroke-width:1.58;stroke-dasharray:none;stroke-opacity:1"
         d="m -111.08898,140.29822 c -0.70092,-2.61549 -0.29728,-10.35596 0.71074,-13.62944 1.93994,-6.29982 2.77003,-7.03741 4.97325,-4.41904 1.43535,1.70582 4.10878,6.78069 4.06414,7.71479 -0.0161,0.33753 -0.9142,1.26169 -1.99571,2.05369 -1.31132,0.96029 -2.7007,2.7553 -4.17067,5.38831 -2.28247,4.08835 -3.08699,4.73788 -3.58175,2.89169 z"
         id="path3128"
         class="UnoptimicedTransforms" />
      <path
         style="display:inline;fill:#9c4a00;fill-opacity:1;fill-rule:evenodd;stroke:#000000;stroke-width:1.58;stroke-dasharray:none;stroke-opacity:1"
         d="m -116.19152,140.58637 c -2.99428,-2.18294 -5.51718,-3.11671 -6.9495,-2.57214 -2.02241,0.76892 -2.45496,0.59646 -3.30074,-1.31601 -1.36494,-3.08641 -1.83068,-6.77448 -1.22709,-9.71694 0.74028,-3.60877 3.24268,-6.0046 8.47443,-8.11352 2.13532,-0.86074 4.26724,-1.99024 4.73761,-2.50999 1.12015,-1.23775 2.96664,-0.99352 4.08602,0.54045 0.86044,1.17912 0.84712,1.28352 -0.7656,6 -0.9027,2.64 -1.88548,6.62434 -2.18396,8.85409 -0.49771,3.718 -0.45475,4.96227 0.30338,8.78591 0.34213,1.72552 -0.84894,1.74359 -3.17455,0.0481 z"
         id="path11191"
         class="UnoptimicedTransforms" />
      <path
         style="display:inline;fill:#ffbdd6;fill-opacity:1;fill-rule:evenodd;stroke:#000000;stroke-width:1.58;stroke-dasharray:none;stroke-opacity:1"
         d="m -72.407458,162.22908 c -2.290056,-1.60402 -3.127286,-4.86747 -1.752341,-6.83048 1.862165,-2.65862 7.818102,-3.88724 10.943152,-2.25742 0.75618,0.39437 1.43704,0.71704 1.51304,0.71704 0.44443,0 1.19209,-3.37366 1.19209,-5.37907 0,-2.37289 -0.85389,-6.62093 -1.33086,-6.62093 -0.14129,0 -1.60874,0.756 -3.261,1.68 -3.886798,2.17362 -6.834631,2.32052 -8.333302,0.41527 -0.780441,-0.99217 -0.994838,-1.9542 -0.994838,-4.464 0,-1.84832 0.243226,-3.4425 0.576,-3.77527 0.884779,-0.88478 3.5676,-0.6855 5.748235,0.42697 2.025475,1.03332 2.769405,0.77917 2.788415,-0.9526 0.0159,-1.45233 3.43964,-7.60269 5.30524,-9.53037 2.26292,-2.33823 2.78339,-2.4566 4.19499,-0.95402 2.02301,2.15339 3.12903,5.59689 3.35133,10.43402 0.28914,6.29159 -0.57818,17.77413 -1.47289,19.49983 -2.05992,3.97311 -6.99389,7.09763 -12.45533,7.88754 -4.12194,0.59618 -4.784062,0.56352 -6.011931,-0.29651 z"
         id="path3114"
         class="UnoptimicedTransforms" />
      <path
         style="display:inline;fill:#ffbdd6;fill-opacity:1;fill-rule:evenodd;stroke:#000000;stroke-width:1.58;stroke-dasharray:none;stroke-opacity:1"
         d="m -103.83152,164.55442 c -0.726,-0.10998 -1.32,-0.46277 -1.32,-0.78397 0,-0.3212 1.99129,-1.65685 4.42508,-2.96812 5.135606,-2.76692 7.888377,-5.32822 8.345525,-7.76504 0.449884,-2.39808 -0.05306,-8.82774 -1.04341,-13.33907 -1.337237,-6.09148 -1.378478,-5.94446 2.081923,-7.42167 1.655011,-0.70651 3.264211,-1.53966 3.576,-1.85145 0.81564,-0.81564 1.71984,-0.70392 3.573149,0.44149 4.159013,2.57041 4.925035,9.1752 1.78681,15.40625 -0.624538,1.24004 -0.975672,2.35301 -0.780298,2.47326 0.195374,0.12025 1.358904,0.36885 2.585621,0.55245 2.478917,0.37099 5.213376,1.81775 5.202619,2.75261 -0.0038,0.33389 -0.329774,1.53376 -0.724296,2.66638 -0.759893,2.18158 -0.633144,3.53582 0.606168,6.4766 0.459024,1.08922 0.589157,1.98003 0.32519,2.22601 -0.92508,0.86202 -24.32075,1.78859 -28.640081,1.13427 z"
         id="path3106"
         class="UnoptimicedTransforms" />
      <path
         style="display:inline;fill:#ffbdd6;fill-opacity:1;fill-rule:evenodd;stroke:#000000;stroke-width:1.58;stroke-dasharray:none;stroke-opacity:1"
         d="m -113.61448,161.80819 c -5.01773,-3.37913 -9.07999,-9.4589 -10.2951,-15.40813 -0.49197,-2.40868 -0.47737,-3.1383 0.0864,-4.32 0.78518,-1.64578 2.96789,-2.11952 5.30506,-1.15144 1.97555,0.8183 4.94834,4.36793 6.21253,7.41802 1.58639,3.82744 2.08892,3.66012 3.07164,-1.02269 1.4102,-6.71986 4.80348,-12.48464 8.46252,-14.37681 2.029421,-1.04945 2.300376,-0.89777 3.584876,2.00671 1.706126,3.85785 2.579784,8.02091 2.587944,12.33182 0.01094,5.77408 -0.66577,7.76326 -3.367527,9.89888 -2.874503,2.27216 -10.571803,6.27367 -12.068033,6.27367 -0.62159,0 -2.23273,-0.74251 -3.58031,-1.65003 z"
         id="path3110"
         class="UnoptimicedTransforms" />
      <path
         style="display:inline;fill:#ffbdd6;fill-opacity:1;fill-rule:evenodd;stroke:#000000;stroke-width:1.58;stroke-dasharray:none;stroke-opacity:1"
         d="m -138.88162,164.81696 c -3.23346,-1.12697 -4.47199,-2.82454 -3.97881,-5.45346 0.36587,-1.95021 3.26381,-4.6792 5.84617,-5.50533 2.38513,-0.76304 3.13901,-1.44078 1.59874,-1.43727 -2.31191,0.005 -4.87444,1.04876 -6.76105,2.75319 -2.17965,1.96918 -3.02517,3.42275 -3.49255,6.00413 l -0.3259,1.8 h -2.57899 c -3.466,0 -4.09751,-0.30628 -4.09751,-1.98731 0,-3.42122 3.78177,-8.22995 8.64,-10.98625 l 2.64,-1.49779 -2.12832,0.24185 c -3.09943,0.35219 -6.92226,3.22893 -10.03401,7.55075 -2.89228,4.01699 -4.19278,4.6095 -6.12766,2.79179 -0.77835,-0.73123 -1.15001,-1.61064 -1.15001,-2.72116 0,-1.37373 0.48826,-2.12742 3,-4.63092 5.77506,-5.75609 13.72222,-8.06721 24.49782,-7.12423 3.14086,0.27485 5.93817,0.72725 6.21624,1.00532 0.27807,0.27808 0.90643,1.64383 1.39635,3.035 1.27332,3.61574 3.8873,7.35476 7.7383,11.06886 3.9306,3.79086 4.01614,4.69409 0.44454,4.69409 -1.28529,0 -4.47807,0.32273 -7.09507,0.71717 -6.4178,0.96731 -10.84301,0.86842 -14.24828,-0.31843 z"
         id="path3102"
         class="UnoptimicedTransforms" />
    </g>
  </g>
</svg>
