<!--Created with Inkscape (http://www.inkscape.org/)--><svg width="16" height="16" version="1.0" xmlns="http://www.w3.org/2000/svg"><path style="fill:#fff;stroke-width:.034312" d="M6.54 15.983c-.326-.013-.72-.043-.878-.065a6.737 6.737 0 0 1-3.275-1.46c-.14-.117-.43-.4-.642-.627a6.606 6.606 0 0 1-1.717-3.744C-.025 9.62 0 8.488.075 8.017a9.151 9.151 0 0 1 1.764-4.14C3.459 1.782 6.149.325 8.929.039c2.465-.253 4.726.737 5.919 2.592.319.497.687 1.327.647 1.459-.041.134-.142.076-.203-.117a5.097 5.097 0 0 0-1.15-1.893C13.506 1.427 12.501.9 11.51.702c-1.23-.247-2.479-.15-3.925.302-1.643.514-2.99 1.324-4.082 2.454C2.339 4.663 1.628 6.073 1.32 7.785c-.086.481-.086 1.784 0 2.195.213 1.026.647 1.842 1.353 2.543.743.74 1.706 1.247 2.807 1.477.452.095 1.58.132 2.095.07 1.437-.175 2.614-.742 3.444-1.659.447-.495.665-.888 1.113-2.008.149-.375.418-1.026.598-1.449.728-1.71.723-1.693.589-1.832-.065-.067-.1-.075-.24-.058-.275.034-.509.25-.703.652-.051.105-.409.926-.795 1.823l-.702 1.631H9.62c-1.177 0-1.26-.004-1.26-.06 0-.034.35-.872.777-1.862.654-1.518.776-1.826.776-1.964 0-.146-.01-.167-.093-.2-.237-.095-.538.06-.753.387-.07.106-.461.968-.87 1.917a72.37 72.37 0 0 1-.771 1.75c-.015.014-.579.031-1.254.038-1.064.01-1.232.005-1.259-.04-.028-.048.475-1.245 1.93-4.599l.247-.567 1.217.009c1.187.009 1.217.01 1.23.079.02.12.055.126.243.04.383-.175.753-.247 1.263-.248.394-.001.511.012.709.076.272.088.51.241.604.387l.064.102.273-.133c.92-.445 1.966-.567 2.64-.306.242.093.528.367.608.58.09.24.076.62-.032.95-.208.633-1.563 3.68-1.976 4.441-.992 1.833-2.1 2.916-3.613 3.531-.636.259-1.56.455-2.322.492-.75.037-.883.038-1.459.013z"/></svg>