<svg viewBox="0 0 16 16" width="16" height="16" xmlns="http://www.w3.org/2000/svg"><path fill="#d1d2d3" d="m1.57 3.422.001.495a.012.01 0 0 0 .012.011h12.84q.007 0 .007-.007l.005-.5h.523a.01.009 0 0 1 .01.01v9.6q0 .006-.006.006H1.047a.01.01 0 0 1-.01-.009v-9.6a.007.006 0 0 1 .006-.006zm2.146 9.11h10.709q.007 0 .007-.007V4.947l.002-.5q0-.013-.015-.013H1.581q-.01 0-.01.01l.001.49q0 .006.007.006h.526a.004.004 0 0 1 .004.004v.497q0 .005-.006.005H1.58q-.007 0-.007.007v.493q0 .006.007.006h.52q.01 0 .01.009v.49q0 .008-.008.008h-.52q-.01 0-.01.009v.484a.013.012 0 0 0 .013.012h.516a.009.008 0 0 1 .009.008q.001.42-.007.839-.002.075.005.199c.01.15-.002.343-.001.45q.003.262.003.524a.006.006 0 0 1-.005.005h-.521A.012.01 0 0 0 1.572 9v3.522q0 .01.01.01z" style="stroke-width:.013019"/><path fill="#a7aaac" d="M1.57 3.422h12.865l-.005.499q0 .007-.008.007H1.582a.012.01 0 0 1-.01-.01z" style="stroke-width:.013019"/><path fill="#e6e6e6" d="M3.715 4.434v8.097H1.583q-.01 0-.01-.009V9a.012.01 0 0 1 .012-.01h.52a.006.006 0 0 0 .006-.006q0-.262-.003-.525c-.001-.106.01-.3.001-.45q-.007-.123-.005-.198.008-.42.007-.839a.009.008 0 0 0-.01-.008h-.515a.013.012 0 0 1-.012-.012v-.484q0-.009.01-.009h.519q.007 0 .007-.007V5.96q0-.009-.009-.009H1.58q-.007 0-.007-.006v-.493q0-.007.007-.007h.524q.006 0 .006-.005v-.497a.004.004 0 0 0-.004-.004H1.58q-.007 0-.007-.006v-.49q0-.01.01-.01zm-.535.511a.005.004 0 0 0-.004-.004h-.53a.005.004 0 0 0-.004.004v.496a.005.004 0 0 0 .005.005h.529a.005.004 0 0 0 .004-.005zm0 1.011a.004.004 0 0 0-.004-.003h-.53a.004.004 0 0 0-.004.003v.498a.004.004 0 0 0 .004.004h.53a.004.004 0 0 0 .004-.004zm.001 1.017a.009.008 0 0 0-.009-.008h-.521a.009.008 0 0 0-.01.007v.49a.009.008 0 0 0 .009.008l.521.001a.009.008 0 0 0 .01-.008zm-.154 1.509c-.098.003-.2-.003-.298 0-.025 0-.05-.006-.073-.008q-.014-.001-.014.012v.487q0 .015.016.015h.514a.009.01 89.919 0 0 .01-.008l-.003-.488a.012.012 0 0 0-.012-.012l-.14.002z" style="stroke-width:.013019"/><path fill="#f7f7f7" d="M3.715 4.434h10.704q.015 0 .015.014l-.001.5q-.042-.008-.095-.008-.209.003-.34 0a.004.29 89.622 0 0-.132 0h-3.69q-.008 0-.014.004-.01.005-.017 0-.252-.005-.509-.006-.01 0-.025.004L4.255 4.94a.003.003 0 0 0-.004.004v7.075a.007.006 0 0 0 .007.006h5.881a.007.006 0 0 0 .006-.006v-2.02l2.137.002q.008 0 .011-.006.004-.009.001-.018l-.004-.024v-.45a.007.007 0 0 1 .006-.007l2.136-.002v3.03q0 .007-.007.007H3.715z" style="stroke-width:.013019"/><path fill="#75b5e7" d="M10.145 4.944v7.074a.007.006 0 0 1-.006.007h-.526L9.61 5.444v-.502q.017-.004.027-.004.256 0 .509.005z" style="stroke-width:.013019"/><path fill="#1482da" d="M9.612 4.946v7.074a.07.006 0 0 1-.06.007H4.276l-.03-6.581v-.502q.17-.004.271-.004 2.568 0 5.105.005z" style="stroke-width:.0412315"/><path fill="#e6e6e6" d="M14.433 4.947v4.546l-2.136.003a.007.007 0 0 0-.007.007v.45l.005.023q.003.01-.002.018-.003.007-.01.007l-2.138-.003V4.943q.006.006.017 0 .006-.003.013-.003h3.691a.004.29 89.622 0 1 .132 0q.131.003.34 0 .053 0 .095.007z" style="stroke-width:.013019"/><rect fill="#d1d2d3" x="2.642" y="4.941" width=".538" height=".505" rx=".005" style="stroke-width:.013019"/><rect fill="#d1d2d3" x="2.642" y="5.953" width=".538" height=".505" rx=".004" style="stroke-width:.013019"/><rect fill="#d1d2d3" x="2.655" y="6.96" transform="rotate(.094) skewX(-.011)" width=".539" height=".506" rx=".009" style="stroke-width:.013019"/><path fill="#d1d2d3" d="m3.027 8.482.14-.002a.012.012 0 0 1 .012.012l.002.488a.009.01 89.919 0 1-.009.009l-.514-.001q-.016 0-.016-.015v-.487q0-.013.014-.012c.024.002.048.008.073.008.099-.003.2.003.298 0z" style="stroke-width:.013019"/></svg>