<svg width="16" height="16" viewBox="0 0 16 16" xmlns="http://www.w3.org/2000/svg"><g stroke-width="2" fill="none"><path stroke="#1a6f8c" vector-effect="non-scaling-stroke" d="m28.1 18.38-.73-5.56M3.49 18.13l.37-5.33" transform="matrix(.51941 0 0 .51261 -.362 -.178)"/><path stroke="#81d5f1" vector-effect="non-scaling-stroke" d="M9.212 22.333a6.74 4.54 99.2 0 0 5.56-5.927 6.74 4.54 99.2 0 0-3.404-7.38 6.74 4.54 99.2 0 0-5.56 5.928 6.74 4.54 99.2 0 0 3.404 7.38" transform="matrix(.51941 0 0 .51261 -.362 -.178)"/><path stroke="#81d5f1" vector-effect="non-scaling-stroke" d="M22.037 22.384a6.75 4.56 80.3 0 0 3.358-7.422 6.75 4.56 80.3 0 0-5.632-5.885 6.75 4.56 80.3 0 0-3.358 7.421 6.75 4.56 80.3 0 0 5.632 5.885" transform="matrix(.51941 0 0 .51261 -.362 -.178)"/><path stroke="#1a6f8c" vector-effect="non-scaling-stroke" d="m18.63 24.03-5.97-.34a.1.1 0 0 0-.11.09v.04a2.94 1.66 3.3 0 0 2.84 1.83l.3.02a2.94 1.66 3.3 0 0 3.03-1.49v-.04a.1.1 0 0 0-.09-.11" transform="matrix(.51941 0 0 .51261 -.362 -.178)"/><path stroke="#99999a" vector-effect="non-scaling-stroke" d="M9.639 19.462a3.39 2.29 99.7 0 0 2.828-2.956 3.39 2.29 99.7 0 0-1.686-3.727 3.39 2.29 99.7 0 0-2.828 2.955 3.39 2.29 99.7 0 0 1.686 3.728m11.835.012a3.39 2.3 80.6 0 0 1.715-3.72 3.39 2.3 80.6 0 0-2.823-2.969 3.39 2.3 80.6 0 0-1.715 3.72 3.39 2.3 80.6 0 0 2.823 2.97" transform="matrix(.51941 0 0 .51261 -.362 -.178)"/></g><path fill="#323334" d="m14.233 9.244-.379-2.85q.68-.225 1.132.39.172.24.208-.052.265-2.065-.904-3.721-.213-.303.13-.441l.135-.051q.224-.087.302.133 1.703 4.69-.624 6.592z" style="stroke-width:.516001"/><path fill="#02abe3" d="m13.854 6.394.38 2.85q-.38 1.43-1.128 2.502c-1.667 2.373-5.963 2.22-8.425 1.553q-2.981-.805-3.23-4.183l.192-2.732C2.833 3 5.975 2.837 9.123 3.01q3.49.195 4.731 3.383Zm-9.431 4.877A2.357 3.456 9.527 0 0 7.31 8.232 2.357 3.456 9.527 0 0 5.542 4.45a2.357 3.456 9.527 0 0-2.887 3.038 2.357 3.456 9.527 0 0 1.768 3.783Zm6.661.025a3.461 2.368 79.953 0 0 1.744-3.804 3.461 2.368 79.953 0 0-2.925-3.017A3.461 2.368 79.953 0 0 8.159 8.28a3.461 2.368 79.953 0 0 2.925 3.016Zm-1.77.845-3.1-.175a.052.051 0 0 0-.058.046v.02a1.527.851 3.218 0 0 1.476.939l.155.01a1.527.851 3.218 0 0 1.574-.764v-.02a.052.051 0 0 0-.047-.056Z" style="stroke-width:.516001"/><path fill="#fff" d="M4.423 11.27a2.357 3.456 9.527 0 1-1.768-3.782A2.357 3.456 9.527 0 1 5.542 4.45 2.357 3.456 9.527 0 1 7.31 8.232a2.357 3.456 9.527 0 1-2.887 3.039Zm.221-1.47a1.189 1.738 10.047 0 0 1.47-1.515 1.189 1.738 10.047 0 0-.876-1.911 1.189 1.738 10.047 0 0-1.47 1.515 1.189 1.738 10.047 0 0 .876 1.91Z" style="stroke-width:.516001"/><path fill="#fff" d="M11.084 11.296A3.461 2.368 79.953 0 1 8.16 8.28a3.461 2.368 79.953 0 1 1.744-3.805 3.461 2.368 79.953 0 1 2.925 3.017 3.461 2.368 79.953 0 1-1.744 3.804Zm-.293-1.49a1.738 1.194 80.26 0 0 .891-1.908 1.738 1.194 80.26 0 0-1.466-1.522 1.738 1.194 80.26 0 0-.89 1.907 1.738 1.194 80.26 0 0 1.465 1.522z" style="stroke-width:.516001"/><path fill="#323334" d="M1.643 6.384 1.45 9.116Q-.035 9.183.427 6.99q.172-.826 1.216-.605Z" style="stroke-width:.516001"/><ellipse fill="#323334" cx="7.151" cy="-6.248" transform="matrix(-.17066 .98533 -.98607 -.16635 0 0)" rx="1.738" ry="1.189" style="stroke-width:.516004"/><ellipse fill="#323334" cx="9.679" cy="-9.021" transform="matrix(.16543 .98622 -.98691 .16124 0 0)" rx="1.738" ry="1.194" style="stroke-width:.516003"/><path fill="#323334" d="M9.314 12.14a.052.051 0 0 1 .047.057v.02a1.527.851 3.218 0 1-1.574.764l-.155-.01a1.527.851 3.218 0 1-1.476-.938v-.02a.052.051 0 0 1 .058-.047z" style="stroke-width:.516001"/></svg>