<svg xmlns="http://www.w3.org/2000/svg" width="16" height="16" viewBox="0 0 16 16"><path fill="#6E6E6E" fill-rule="evenodd" d="M2.395 3.027.4 12.993h2.738l1.245-6.674s1.079-.94 1.909-.855c.83.085.83.948.83.948L5.96 13H8.7l1.326-6.68s.913-.942 1.825-.856c.913.085.747 1.034.747 1.034l-1.244 6.495h2.821l1.41-7.607c.167-1.206-.545-2.249-1.493-2.36-.948-.11-1.909.128-2.738.648-.83.521-1.328 1.198-1.328 1.198s-.428-1.735-1.743-1.845c-1.314-.111-1.908.212-2.49.555-.58.342-.912.777-.912.777l.229-1.332H2.395z"/><path fill-rule="evenodd" fill="#59A869" d="M15.912 12.533v-.2l-5-3.432V15.9z"/></svg>