<svg width="16" height="16" viewBox="0 0 16 16" xmlns="http://www.w3.org/2000/svg"><path d="M.689 13.874c-.13-.053-.048-.268.297-.787l.209-.315-.118-.076a6.229 6.229 0 0 1-.439-.35c-.176-.15-.338-.273-.362-.273-.065 0 .19-.26.325-.332.174-.092.628-.075 1.349.05.645.111.918.113 1.055.006.1-.078.448-.523.612-.782.363-.573 1.013-1.194 1.505-1.438.26-.128 1.23-.505 2.163-.84 1.718-.616 2.37-.962 2.933-1.555.326-.344.53-.665 1.069-1.67.536-1.002.749-1.329 1.098-1.679a2.368 2.368 0 0 1 1.64-.695c.31 0 .641-.078.878-.202.301-.16.447-.197.548-.142.078.043.085.083.07.448-.03.665-.174.877-1.157 1.694-.354.296-.54.54-.624.83-.036.124-.173.753-.304 1.397-.37 1.812-.68 2.784-1.12 3.503-.226.37-.648.828-.867.943l-.14.072.028-.398c.037-.51-.024-.507-.22.01-.294.766-.633 1.31-1.098 1.752-.448.428-1.052.734-1.536.781l-.223.02.177-.207c.23-.273.602-.933.769-1.37.217-.572.38-1.547.256-1.547-.02 0-.074.092-.114.205-.26.718-.34.895-.453 1.02l-.129.138-.59-.025a13.584 13.584 0 0 1-1.214-.12c-.805-.121-1.634-.132-2.023-.024-.364.099-.804.34-1.414.775a12.33 12.33 0 0 1-1.796 1.026c-.314.135-.882.221-1.04.157z" fill="#c59056" style="stroke-width:1.20812"/></svg>