<svg viewBox="0 0 16 16" width="16" height="16" xmlns="http://www.w3.org/2000/svg"><path fill="#01a1cc" d="M2.875.67q-.684.043-1.37.039-.272-.002-.408.055Q.89.85.758 1.036c-.12.17-.115.358-.055.55q.007.02.026.033c.1.064.164.181.23.28q.072.11.078.223.007.146-.026.287-.022.092-.006.168.016.074.027.15.004.027.024.045.096.09.117.222.003.023.019.04.047.052.028.108-.008.023-.005.047.02.136.005.276a.033.039 35.066 0 0 .001.012l.017.057q.005.017.012 0l.009-.025.002 2.949v5.76q-.028.102-.016.22c.01.098-.037.164-.035.25q.004.337-.003.673-.002.094-.035.303-.024.153-.016.311a.07.067 63.27 0 1-.012.043c-.047.07.002.118.003.173q.004.101-.016.204-.005.023.011.04.041.045.037.105-.001.02.005.039.044.125.167.112.025-.002.047.008l.173.077q.024.011.05.006.026-.004.032.023.006.026-.02.026h-.032q-.014 0-.015.014v.013a.008.008 88.778 0 0 .009.01q.368-.026.892-.026 5.864.003 11.727.001c.233 0 .515-.061.613-.298q.008-.021.029-.032c.112-.055.094-.22.09-.332q-.04-1.196-.018-2.642 0-.02-.019-.027l-.018-.007a.02.02 0 0 1-.014-.019L14.87 9.27l-.003-4.842.041-.182q.023-.096.026-.183.016-.477.007-.954 0-.003.001 0l.05.13q.008.024.035.023l.22-.009q.01 0 .01-.01v-.018q0-.019.019-.023.044-.008.069-.043.016-.022.027.004.028.073.07.035l.003 11.453a.038.035 62.07 0 1-.004.018q-.026.047-.02.098.002.025-.012.045-.09.126-.201.233c-.075.073-.15.072-.245.071-.101 0-.18-.075-.281-.075q-.039 0-.068.04-.012.015-.033.015-.469-.02-.635-.02-6.277.002-12.555 0-.132 0-.173-.075-.009-.018-.028-.024-.187-.062-.341-.183-.018-.013-.04-.01-.069.014-.099-.07-.01-.029-.021-.001-.007.017.007.036.014.018.018.04c.049.245.3.365.506.428a.03.03 58.809 0 1-.008.059l-.085.001q-.34-.116-.528-.48l-.03-.168-.014-3.994Q.597 6.037.55 1.437c.036-.421.379-.787.818-.784q.753.004 1.507.016z" style="stroke-width:.0467141"/><path fill="#007b97" d="M2.875.67 13.4.668l.11.01q.68.034 1.354.028c.054 0 .094.029.145.044q.022.006.037.024.072.084.164.147c.192.132.232.282.233.525q.002.32 0 .632l-.141-.059q-.023-.01-.048-.008-.132.002-.256.053-.018.007-.022.025-.003.012-.01.023a.002.002 0 0 1-.003-.002q.022-.037-.01-.065a.017.017 0 0 0-.027.013q-.004.416.004.83 0 .016-.007.025-.011.016-.03.022-.014.004-.02-.008l-.005-.012q-.003-.467 0-.935c.002-.454-.189-.648-.648-.648q-6.178-.003-12.355.001-.202 0-.309.051c-.274.13-.298.351-.3.663q-.001.731.003 1.461l-.01.026q-.006.016-.011-.001l-.017-.057a.033.039 35.066 0 1 0-.012q.014-.14-.006-.276-.003-.024.005-.047.019-.056-.028-.108-.016-.017-.02-.04-.02-.132-.116-.222-.02-.018-.024-.045-.011-.076-.027-.15-.016-.076.006-.168.033-.141.026-.287-.006-.112-.079-.224C.893 1.8.83 1.683.728 1.62Q.71 1.607.704 1.585c-.06-.191-.065-.379.055-.55Q.89.85 1.097.765q.136-.057.408-.055.686.004 1.37-.04Z" style="stroke-width:.0467141"/><path fill="#6babc7" d="M14.953.673q.439.216.565.647-.06 1.092-.034 2.175.012.463.012.927-.004 4.066-.005 9.76 0 .392-.034.692-.162.254-.421.373-.125.058-.325.058-6.727.014-13.454 0c-.04 0-.087-.023-.13-.029l.085-.001a.03.03 58.809 0 0 .008-.06c-.206-.062-.457-.182-.506-.427q-.004-.023-.018-.04-.014-.019-.007-.036.011-.028.021 0 .03.085.1.072.021-.004.038.009.155.12.342.183.019.006.028.023.041.077.173.077h12.555q.166 0 .635.018.02.001.033-.015.03-.04.067-.04c.102.001.18.075.282.076.095 0 .17.002.245-.07q.11-.108.2-.234.015-.02.013-.045-.006-.052.02-.098a.038.035 62.07 0 0 .004-.018l-.003-11.453V2.08q.003-.313.001-.632c-.001-.243-.04-.393-.233-.525q-.092-.063-.164-.147-.015-.018-.037-.024c-.05-.015-.09-.044-.145-.044Q14.19.713 13.509.68q.732-.037 1.444-.007z" style="stroke-width:.0467141"/><path fill="#e9f8fd" d="M14.868 2.916v1.51l.002 4.843-.003 1.869q-.012-.439-.032-.876-.001-.02.005-.036.007-.017.007-.037l-.016-2.127q0-.017-.017-.017h-.017q-.027 0-.03-.028a1.123 1.123 0 0 1 .004-.276q.02-.153-.063-.272-.013-.019-.036-.018l-4.41.002a.076.077 0 0 0-.076.079c.002.102-.068.177.006.272v.002l-.013.013q-.011.01.004.015.038.01.021.04.055.252.294.22.022-.004.034.015.111.167.315.179.02 0 .026.021.011.052.066.051.023 0 .033.02l.043.083c-.23-.115-.477-.244-.724-.312q-.093-.026-.143-.125-.498-.984-.812-1.646-.197-.593-.563-1.149-.966-1.408-2.419-2.147-.483-.245-1.127-.266c-.22-.007-.277-.113-.439-.224-.422-.287-1.525-.806-1.753.033q-.057.209.028.4c.218.488.643.793.814 1.317q.127.385.307.85.192.497.52.858-.115.234-.141.48l-.098.374q-.036-.066-.002-.158.011-.03-.018-.018-.014.006-.025.015-.015.014-.034.005-.043-.022-.1-.012-.017.003-.033-.003-.042-.014-.06.024-.009.02-.03.029a.429.429 0 0 1-.167.04h-1.63c-.147 0-.247-.057-.37-.124a.075.078 55.43 0 0-.043-.01q-.15.014-.246-.079-.076-.073-.109-.087-.067-.028-.139-.03-.022-.002-.034-.02-.02-.034-.061-.017-.03.014-.04-.017l-.027-.078a.013.013 42.06 0 0-.025.003l-.01.089-.003-2.949q-.004-.73-.002-1.461c0-.312.025-.532.3-.663q.106-.051.308-.051 6.177-.004 12.355 0c.46 0 .65.193.648.647q-.003.468 0 .935z" style="stroke-width:.0467141"/><path fill="#088baf" d="M15.443 2.079v1.118q-.042.038-.071-.035-.01-.026-.027-.004-.025.034-.069.043-.019.004-.019.023v.017q0 .01-.01.011l-.22.009q-.027 0-.036-.024l-.049-.129q-.001-.003-.001 0 .009.477-.007.954-.003.087-.026.183-.022.09-.04.181v-1.51l.006.012q.005.012.018.008.02-.006.031-.022.007-.01.007-.024-.008-.416-.004-.831a.017.017 0 0 1 .027-.013q.032.028.01.065a.002.002 0 0 0 .002.002q.008-.011.01-.023.005-.018.023-.025.124-.05.256-.053.025-.001.048.008z" style="stroke-width:.0467141"/><path fill="#6babc7" d="m8.773 5.231-.4-.103a.023.023 0 0 0-.025.034q.135.215.28.427.145.21.238.417.2.445.395.892.02.048.066.105c.06.078.057.174.126.228q.193.458.427.887.025.046.077.09.042.035.071.08a.054.055 84.854 0 0 .026.022q.142.055.281.114.087.037.258.091.29.093.548.286-.516-.235-1.048-.409-.054-.017-.113-.068-.063-.052-.128-.057a.053.053 0 0 0-.038.094q.17.14.357.195l.237.07c.22.083.449.139.645.271q.47.318.937.64.029.02-.007.025l-.034.005q-.4-.251-.79-.526c-.315-.222-.68-.336-1.04-.448q-.148-.047-.208-.08c-.167-.094-.33-.404-.409-.578q-.195-.433-.4-.858c-.214-.482-.405-1.01-.665-1.425Q7.692 4.457 6.464 3.71q-.413-.252-.859-.37c-.197-.053-.441-.04-.658-.062q-.103-.011-.189-.072c-.145-.101-.285-.22-.426-.298-.18-.1-.605-.317-.787-.27-.22.058-.026.392.05.488.412.516.676.885.813 1.518q-.102-.136-.288-.098-.025.005-.018.03.158.524.445.99c.057.092.196.22.227.32q.05.161-.07.166-.328-.361-.52-.858-.18-.465-.307-.85c-.171-.524-.596-.83-.814-1.318q-.085-.19-.028-.4c.228-.838 1.331-.319 1.753-.032.162.11.22.217.439.224q.644.02 1.127.266 1.453.739 2.419 2.147zM4.807 3.173q.052.041.105.045c.267.018.556.023.8.09q.207.056.378.138 1.013.488 1.783 1.35c.081.09.17.211.282.3a.046.045 35.172 0 0 .072-.026c.014-.062-.048-.114-.08-.153q-.14-.177-.285-.35-.132-.154-.321-.316-.224-.192-.44-.392-.045-.041-.094-.07c-.085-.048-.169-.089-.245-.153q-.243-.207-.52-.364-.012-.006.001-.008h.014a.016.016 0 0 0 .007-.03q-.048-.029-.056-.072-.003-.018-.02-.028-.357-.212-.665-.224-.24-.01-.482-.034a.07.068 73.739 0 1-.04-.02q-.454-.439-1.08-.608c-.257-.07-.644-.04-.765.24q-.19.442.134.826.159.187.287.362c.214.29.36.475.405.785q.004.027.032.027h.057q.027 0 .02-.026-.086-.365-.253-.634-.098-.16-.144-.257c-.032-.068-.077-.103-.128-.153q-.044-.042-.02-.09.01-.021.007-.044-.014-.122-.083-.223c-.076-.11-.138-.323-.035-.43q.09-.095.237-.054.587.161 1.135.596z" style="stroke-width:.0467141"/><path fill="#e9f8fd" d="M9.101 7.077q-.089-.092-.153-.199-.007-.01-.007-.022 0-.015.003-.03.004-.024-.02-.024-.014 0-.019.02-.008.034.002.103.003.02-.017.024l-.057.013q-.018.004-.014.023l.013.054q.004.015-.01.017l-.05.007q-.032.005-.022-.026.023-.065-.038-.07-.023-.003-.04.014-.069.069-.135.07-.705.022-2.364.01c-.147 0-.255-.058-.397-.088q-.01-.002-.014-.01l-.007-.014q-.008-.014-.024-.013-.084.005-.365-.01-.11-.006-.159.107-.008.019-.029.019l-.262-.005q-.022 0-.022-.022v-.022A.011.011 0 0 0 4.872 7q-.012.051-.055.065l.024-.24q.107-.347.223-.693.072-.214-.039-.338-.48-.54-.617-1.15c-.137-.633-.401-1.002-.813-1.518-.076-.096-.27-.43-.05-.488.182-.047.607.17.787.27.14.078.281.197.426.298q.086.06.189.072c.217.023.46.01.658.062q.446.118.859.37 1.228.747 1.973 1.942c.26.416.451.943.664 1.425zM5.528 4.452q.145-.25-.021-.445-.172-.27-.475-.15a.069.068 68.622 0 0-.026.11q.224.246.352.554a.059.058 75.715 0 0 .072.033q.07-.024.098-.102z" style="stroke-width:.0467141"/><path fill="#6babc7" d="m5.507 4.007-.184-.134q-.016-.011-.034-.009l-.226.028q-.034.004-.016.033c.059.09.151.099.218.148.096.072.198.27.263.379q-.027.078-.098.102a.059.058 75.715 0 1-.072-.033q-.128-.308-.352-.554a.069.068 68.622 0 1 .026-.11q.303-.12.475.15z" style="stroke-width:.0467141"/><path fill="#007b97" d="M5.507 4.007q.166.196.021.445c-.065-.108-.167-.307-.263-.379-.067-.05-.16-.057-.218-.148q-.018-.029.016-.033l.226-.028q.018-.002.034.009z" style="stroke-width:.0467141"/><path fill="#088baf" d="M4.408 4.644q.137.61.617 1.15.11.124.04.338-.117.346-.224.694-.088.018-.148-.049-.014-.016-.035-.014-.02.002-.033-.015-.007-.01-.01-.044-.006-.046-.052-.068-.02-.01-.015-.032l.015-.073q.026-.245.142-.48.118-.004.069-.166c-.03-.099-.17-.227-.227-.32q-.287-.465-.445-.99-.007-.024.018-.03.186-.037.288.099zm4.365.587q.366.556.563 1.15.167.446.378.874c.037.075.052.168.085.246a.056.056 0 0 1-.098.053q-.035-.053-.097-.072-.026-.008-.023-.035.005-.055-.039-.076-.019-.01-.028-.028l-.061-.112c-.069-.054-.066-.15-.126-.228q-.046-.057-.066-.105-.195-.447-.395-.892-.093-.206-.238-.417-.145-.212-.28-.427a.023.023 0 0 1 .026-.034z" style="stroke-width:.0467141"/><path fill="#fafafa" d="M4.465 6.906q-.139.755.088 1.482c.11.352.435.973.888.862q.239-.058.291-.247.085-.307.107-.606a.034.033 42.008 0 1 .063-.012c.11.23.217.456.384.647q.372.427.843.758-.01.02.02.036.084.117.226.193-.004.02.067.032h.016a.044.044 0 0 0 .033-.076c-.718-.664-1.265-1.67-1.6-2.605a.056.056 0 0 0-.092-.022c-.392.375-.501.856-.491 1.392a.056.056 0 0 1-.093.044q-.107-.092-.168-.219-.332-.707-.23-1.5.043-.014.055-.065a.011.011 0 0 1 .022.003v.022q0 .022.022.022l.262.005q.021 0 .03-.02.048-.112.158-.106.281.015.365.01.016-.001.024.013l.007.013q.004.009.014.011c.142.03.25.087.397.088q1.659.012 2.364-.01.066-.001.135-.07.017-.017.04-.014.06.005.038.07-.01.03.022.026l.05-.007q.014-.002.01-.017l-.013-.054q-.004-.02.014-.023l.057-.013q.02-.004.017-.024-.01-.07-.002-.103.005-.02.02-.02.023 0 .019.024-.003.015-.003.03 0 .011.007.022.064.107.153.199.206.425.401.858c.079.174.242.484.409.578q.06.033.207.08c.36.112.726.226 1.041.448q.39.275.79.526.02.008.016.03a.037.037 4.19 0 1-.037.03q-.698-.01-1.339.264c-.087.038-.13.096-.09.194.228.57.795.928 1.338 1.17q.265.118.41.217.288.197.557.429a.067.068 8.747 0 0 .11-.068.59.59 0 0 0-.143-.264q-.19-.204-.37-.416c-.276-.324-.67-.544-1.025-.768-.057-.036-.108-.092-.162-.134a.028.028 0 0 1-.005-.04q.014-.018.046-.033c.209-.038.4-.092.622-.123q.258-.036.6-.126.102-.027.116-.11.004-.024-.01-.044-.211-.294-.29-.37-.504-.486-1.278-.942l-.043-.083q-.01-.02-.033-.02-.055 0-.067-.05-.004-.021-.025-.022-.204-.012-.315-.18-.012-.018-.034-.015-.24.033-.294-.22.016-.03-.02-.039-.016-.004-.005-.015l.013-.013v-.002c-.074-.095-.004-.17-.007-.272a.076.077 0 0 1 .077-.079l4.41-.002q.023 0 .036.018.083.12.063.272c-.016.112-.011.178-.004.276q.003.028.03.028h.017q.017 0 .017.017l.016 2.127q0 .02-.007.037-.007.017-.006.036.02.437.033.876.001 1.488-.001 2.977c0 .265-.067.475-.308.579q-.118.051-.462.051L1.8 14.746q-.34 0-.472-.265-.068-.135-.067-.446.002-.909 0-1.818l.001-5.76.01-.088a.013.013 42.06 0 1 .026-.003l.027.078q.01.03.04.017.04-.017.061.017.012.018.034.02.072.002.14.03.032.014.108.087.096.093.246.08a.075.078 55.43 0 1 .043.01c.123.066.223.123.37.123h1.63a.43.43 0 0 0 .167-.04q.021-.008.03-.029.018-.038.06-.024.016.006.033.003.057-.01.1.012.019.01.034-.005.011-.01.025-.015.03-.012.018.018-.034.092.002.158zm-1.606 4.69-.018.445q-.003.08.078.08L3 12.12q.078-.001.076-.08-.008-.308-.003-.654c.002-.092-.036-.112-.114-.132-.182-.047-.246.014-.317.18q-.09.212-.172.417a.036.037 0 0 1-.068 0q-.087-.227-.18-.44c-.081-.189-.225-.237-.389-.104q-.017.014-.018.037l-.01.719a.058.058 0 0 0 .063.058l.107-.008q.057-.005.056-.062l-.008-.453a.025.025 0 0 1 .048-.012c.058.124.158.455.275.516.18.094.268-.049.331-.207q.06-.147.136-.31a.024.025 53.32 0 1 .046.011zm1.576-.157.47.002q.073 0 .084-.072l.009-.052q.01-.07-.06-.074c-.281-.017-.799-.076-.8.24-.002.313.281.303.54.286a.06.06 86.737 0 1 .063.054l.005.054q.007.063-.056.063l-.478.006q-.07.001-.07.071l.001.042q.001.07.071.07.256-.003.528-.02.281-.019.236-.303c-.04-.253-.351-.22-.54-.217q-.068.002-.066-.067v-.021q.003-.062.063-.062zm.612.442c.017.13.014.215.157.23q.218.022.448.014.027-.001.042.022.096.154.29.086a.048.049 0 0 0-.011-.094l-.035-.005q-.035-.004-.025-.037.064-.225.053-.46-.01-.2-.017-.225c-.054-.217-.432-.174-.653-.164q-.104.004-.22.088a.054.054 0 0 0-.022.036q-.042.256-.007.51zm1.007.083q.016.134.153.148.192.02.57.011.078-.002.082-.08v-.018q.005-.079-.074-.078l-.47.007a.062.062 0 0 1-.063-.062l.005-.614a.029.028 89.592 0 0-.03-.029l-.171.003a.027.027 0 0 0-.027.025q-.02.336.025.686zm-2.226.198q-.013.036-.052.036h-.531q-.076 0-.076.076v.028q0 .063.062.062l.638-.013a.182.183 0 0 0 .178-.182v-.632q0-.033-.033-.033l-.143.002a.034.035 89.454 0 0-.034.035v.362a.06.06 0 0 1-.06.06h-.339a.054.054 0 0 1-.053-.056l.006-.347q0-.054-.053-.054h-.105a.053.053 0 0 0-.054.054l-.002.26q-.003.14.058.198c.126.118.41.087.573.092a.028.027 13.1 0 1 .025.037zm3.347-.182a.145.145 0 0 0-.144-.145.145.145 0 0 0-.145.145.145.145 0 0 0 .145.145.145.145 0 0 0 .144-.145zm-.298 1.357a.02.02 0 0 1-.035-.014l.005-.841a.02.02 0 0 0-.02-.021l-.34-.003a.02.02 0 0 0-.02.02l-.002 1.631a.02.02 0 0 0 .02.02l.343-.002a.02.02 0 0 0 .02-.021l-.01-.45a.02.02 0 0 1 .036-.013l.423.477a.02.02 0 0 0 .015.007l.425.002a.02.02 0 0 0 .014-.035l-.595-.605a.02.02 0 0 1 0-.03l.547-.502a.02.02 0 0 0-.014-.036l-.397.003a.02.02 0 0 0-.014.006zm6.677-.29.009-.547q0-.046-.045-.046l-.307.007q-.037 0-.037.037v1.596a.037.037 0 0 0 .037.037h.312q.04 0 .039-.04l-.002-.657a.246.245 88.765 0 1 .215-.244l.053-.007a.145.145 21.392 0 1 .162.143l.004.767q0 .04.04.04l.299-.003q.048 0 .049-.048.005-.603-.01-.8c-.031-.434-.532-.488-.777-.218q-.042.045-.041-.017zm-5.33.936q.191.209.438.168c.456-.075.527-.663.35-.995-.167-.31-.538-.342-.782-.09a.02.02 0 0 1-.035-.014l.006-.555q0-.038-.037-.038l-.312-.003a.037.037 0 0 0-.038.038l.006 1.615q0 .02.019.02l.35-.002q.018 0 .016-.018L8.19 14a.02.02 0 0 1 .032-.016zm-5.73-.34a.018.018 0 0 1-.034-.001l-.257-1.104a.018.018 0 0 0-.018-.014h-.36a.018.018 0 0 0-.017.022l.373 1.57a.018.018 0 0 0 .018.014l.446.003a.018.018 0 0 0 .017-.013l.265-.798a.018.018 0 0 1 .034 0l.267.792a.018.018 0 0 0 .018.013l.447-.001a.018.018 0 0 0 .018-.014l.37-1.563a.018.018 0 0 0-.017-.023h-.359a.018.018 0 0 0-.018.014l-.254 1.1a.018.018 0 0 1-.035.003l-.245-.73a.018.018 0 0 0-.017-.012h-.379a.018.018 0 0 0-.017.013zm7.092-.01.84.001q.024 0 .026-.025c.043-.526-.337-.793-.816-.69q-.397.085-.453.518c-.095.742.671.831 1.181.627q.037-.015.037-.054l.001-.213a.023.023 0 0 0-.033-.022c-.203.094-.767.273-.802-.12q-.002-.022.02-.022zm-4.215-.165a.567.569 0 0 0-.572-.564l-.175.002a.567.569 0 0 0-.562.573l.001.11a.567.569 0 0 0 .572.563l.175-.001a.567.569 0 0 0 .562-.574zm.509-.398.017-.094a.042.043 0 0 0-.041-.05h-.297q-.046-.001-.045.045v1.118q0 .04.04.04h.311a.036.037 0 0 0 .037-.038c-.01-.207-.052-.653.08-.8q.126-.143.396-.048a.01.011 7.93 0 0 .014-.01v-.313q0-.011-.011-.013-.291-.043-.465.18a.02.02 0 0 1-.036-.017zm5.155.01L11 13.076a.029.029 0 0 1-.024-.035l.02-.085a.022.022 0 0 0-.02-.027l-.342-.002q-.03 0-.03.03v1.142a.032.032 0 0 0 .031.032h.316a.041.042 0 0 0 .042-.042l-.003-.627a.27.272 0 0 1 .199-.263l.056-.016a.137.138 0 0 1 .174.131l.008.772a.046.046 0 0 0 .046.045h.296a.044.044 0 0 0 .044-.045q.005-.34.001-.71-.003-.374-.273-.446-.338-.094-.505.152zm1.903-.14c-.395-.119-.94-.018-.995.48-.073.662.477.83 1 .693a.072.073 0 0 0 .054-.072l-.005-.201q-.002-.06-.054-.03c-.258.144-.608.077-.611-.283-.004-.37.364-.433.622-.274a.03.03 0 0 0 .047-.027l-.007-.219q-.001-.052-.05-.066z" style="stroke-width:.0467141"/><path fill="#01a1cc" d="M9.336 6.38q.314.662.812 1.646.05.1.143.125c.247.068.493.197.724.312q.774.456 1.278.942.079.076.29.37.014.02.01.045-.014.082-.116.11-.341.089-.6.125c-.221.031-.413.085-.622.123q-.085.009-.12-.02a.012.012 0 0 1 .006-.022q.104-.002.198-.034.114-.039.181-.047.198-.025.398-.043.314-.03.611-.157a.029.03 58.553 0 0 .015-.04q-.054-.105-.164-.146-.02-.008-.027-.029-.05-.15-.195-.21-.02-.008-.043-.004-.063.01-.068-.052a.023.022 0 0 0-.021-.02q-.094-.007-.158-.073-.015-.016-.034-.029l-.693-.45q-.257-.194-.548-.287-.17-.054-.258-.09-.14-.06-.281-.115a.054.055 84.854 0 1-.026-.021q-.03-.046-.07-.08-.053-.045-.078-.091-.234-.429-.428-.887l.062.112q.01.018.028.028.044.02.039.076-.003.027.023.035.062.02.097.072a.056.056 0 0 0 .098-.053c-.033-.078-.048-.17-.085-.246q-.21-.428-.378-.875Zm-4.773.151-.015.073q-.005.023.015.032.046.022.051.068.004.034.011.044.013.017.033.015.021-.002.035.014.06.067.148.049l-.024.239q-.102.793.23 1.5.06.127.168.219a.056.056 0 0 0 .093-.044c-.01-.536.099-1.017.491-1.392a.056.056 0 0 1 .092.022c.335.935.882 1.941 1.6 2.605a.044.044 0 0 1-.033.077l-.016-.001c.05-.102-.071-.169-.157-.237-.18-.144-.324-.333-.501-.484q-.194-.166-.297-.287-.204-.24-.252-.332-.044-.083-.111-.11-.036-.015-.022.02c.09.243.255.422.432.608.17.178.41.354.595.561q-.47-.33-.843-.758c-.167-.191-.274-.417-.384-.647a.034.033 42.008 0 0-.063.012q-.022.299-.107.606-.052.19-.29.247c-.454.111-.78-.51-.89-.862q-.226-.727-.087-1.482Zm.45 2.517q.207.247.506.124a.05.051 0 0 0 .03-.064q-.017-.047-.064-.027-.072.03-.15.032c-.076.001-.146-.043-.224-.064q-.023-.007-.036-.026-.051-.08-.127-.137a.024.024 0 0 0-.038.019q-.002.091.086.13a.046.044 80.928 0 1 .017.013z" style="stroke-width:.0467141"/><path fill="#95becd" d="m11.141 8.801.693.451q.019.013.034.029.064.066.157.072a.023.022 0 0 1 .022.021q.005.061.068.052.022-.004.043.005.145.059.195.209.007.021.027.029.11.041.164.146a.029.03 58.553 0 1-.015.04q-.297.127-.61.157-.2.018-.399.043-.067.008-.181.047-.094.032-.198.034a.012.012 0 0 0-.007.022q.036.029.121.02-.032.015-.046.034a.028.028 0 0 0 .005.039c.054.042.105.098.163.134.354.224.748.444 1.024.768q.18.212.37.416a.59.59 0 0 1 .142.264.067.068 8.747 0 1-.109.068q-.269-.232-.557-.43-.145-.098-.41-.216c-.543-.242-1.11-.6-1.338-1.17-.04-.098.003-.156.09-.194q.642-.274 1.339-.263a.037.037 4.19 0 0 .037-.032q.003-.021-.016-.029l.035-.005q.035-.004.006-.025-.467-.322-.937-.64c-.196-.132-.425-.188-.645-.27q-.005-.003-.237-.071-.187-.055-.357-.195a.053.053 0 0 1 .038-.094q.065.005.128.057.06.05.113.068.532.174 1.048.41zM7.442 10.05q-.071-.01-.067-.031l-.217-.208q-.01-.01-.014.004-.001.006.005.011-.03-.016-.02-.036c-.185-.207-.425-.383-.595-.56-.177-.187-.342-.366-.432-.608q-.014-.036.022-.022.067.028.111.111.048.093.252.332.103.121.297.287c.177.15.322.34.501.484.086.068.206.135.157.237zM4.996 9.035q-.088-.039-.086-.13a.024.024 0 0 1 .038-.019q.076.057.127.137.013.02.036.026c.078.021.148.065.224.064q.078-.002.15-.032.047-.02.063.027a.05.051 0 0 1-.029.064q-.299.123-.506-.124a.046.044 80.928 0 0-.017-.013z" style="stroke-width:.0467141"/><path fill="#088baf" d="m14.87 9.27.007 2.216a.02.02 0 0 0 .014.02l.018.006q.02.007.019.027-.021 1.446.018 2.642c.004.112.022.277-.09.332q-.02.01-.03.031c-.097.238-.379.299-.612.3l-11.727-.002q-.524 0-.892.025a.008.008 88.778 0 1-.01-.009l.001-.014q0-.014.015-.014h.032q.026 0 .02-.025-.006-.027-.033-.023-.025.005-.05-.006l-.172-.077q-.022-.01-.047-.008-.123.013-.167-.112-.006-.02-.005-.04.004-.06-.037-.104-.016-.017-.011-.04.02-.103.016-.204c-.002-.055-.05-.102-.003-.173a.07.067 63.27 0 0 .012-.043q-.008-.158.016-.31.033-.21.035-.304.007-.336.003-.673c-.002-.086.045-.152.035-.25q-.012-.118.016-.221v1.818q-.002.31.066.446.133.265.472.265 6.149-.002 12.297 0 .344 0 .462-.052c.241-.104.307-.314.308-.58q.002-1.488.001-2.977z" style="stroke-width:.0467141"/><path fill="#6babc7" d="M7.375 10.019q-.142-.076-.226-.193-.006-.005-.005-.011.004-.013.014-.004zM2.86 11.596a.024.025 53.32 0 0-.047-.011q-.076.163-.136.31c-.063.158-.15.301-.331.207-.117-.06-.217-.392-.275-.516a.025.025 0 0 0-.048.012l.008.453q0 .057-.056.062l-.107.008a.058.058 0 0 1-.062-.058l.01-.719q0-.023.017-.037c.164-.133.308-.085.39.104q.092.213.18.44a.036.037 0 0 0 .067 0q.082-.205.172-.417c.07-.166.135-.227.317-.18.078.02.116.04.114.132q-.005.346.003.654.002.079-.076.08h-.081q-.08.002-.078-.08zm-.869-.194q.073.017.116.079a.029.029 0 0 0 .051-.023q-.046-.216-.255-.14a.053.049 38.226 0 0 .018.097q.006.001.027-.008.021-.01.043-.005z" style="stroke-width:.0467141"/><path fill="#ebb640" d="M4.435 11.44q-.06 0-.062.06v.022q-.003.069.065.067c.189-.003.5-.036.54.217q.045.284-.236.303-.272.017-.528.02-.07 0-.07-.07l-.001-.042q-.002-.07.069-.07l.478-.007q.063 0 .056-.063l-.005-.054a.06.06 86.737 0 0-.064-.054c-.258.017-.541.027-.54-.286.002-.316.52-.257.801-.24q.07.004.06.074l-.009.052q-.011.072-.085.072zm-.103-.03c.14-.068.416-.045.596-.039a.023.022 3.642 0 0 .023-.021l.001-.02q.001-.016-.014-.016-.259-.007-.516-.005-.12.001-.204.08-.02.019-.017.045l.008.106q0 .015.015.015h.013q.012 0 .012-.013-.005-.09.083-.133z" style="stroke-width:.0467141"/><path fill="#ebb640" d="M5.047 11.881q-.035-.253.007-.509a.054.054 0 0 1 .023-.036q.115-.084.219-.088c.221-.01.599-.053.653.164q.007.026.017.226.011.234-.053.459-.01.033.025.037l.035.005a.048.049 0 0 1 .01.094q-.193.067-.289-.086-.015-.023-.042-.022-.23.008-.448-.014c-.144-.015-.14-.1-.157-.23zm.807-.484q-.013-.033-.047-.042-.262-.071-.567-.02-.12.02-.145.124a.025.024 11.43 0 0 .022.03l.077.006a.018.018 0 0 0 .02-.019q-.002-.06.041-.074.24-.074.533.005.025.007.027.032l.02.158a.024.024 0 0 0 .047 0q.01-.104-.028-.2zm-.469.435q.214-.075.323.09a.021.021 0 0 0 .038-.012l.002-.405a.064.064 0 0 0-.064-.064H5.35q-.065 0-.066.065l-.002.404q0 .039.04.039l.09-.001a.02.02 64.528 0 0 .015-.033l-.05-.053a.019.018 61.932 0 1 .007-.03zm.669.132q-.045-.351-.025-.687a.027.027 0 0 1 .027-.025l.172-.003a.029.028 89.592 0 1 .029.03l-.005.613a.062.062 0 0 0 .062.062l.47-.007q.08 0 .076.078l-.001.019q-.004.077-.081.08-.38.008-.57-.012-.138-.014-.154-.148zm.114-.655h-.08a.02.02 0 0 0-.02.02v.021a.065.053 89.607 0 0 .054.065h.015a.065.053 89.607 0 0 .052-.065v-.021a.02.02 0 0 0-.02-.02z" style="stroke-width:.0467141"/><path fill="#fafafa" d="M1.948 11.407q-.02.009-.027.008a.053.049 38.226 0 1-.018-.097q.21-.076.255.14a.029.029 0 0 1-.051.023q-.043-.062-.116-.079-.022-.005-.043.005z" style="stroke-width:.0467141"/><path fill="#cbafc8" d="M4.332 11.41q-.088.042-.083.132 0 .013-.012.013h-.013q-.014 0-.015-.015l-.008-.106q-.002-.026.017-.045.085-.079.204-.08.257-.002.516.005.015 0 .014.015v.021a.023.022 3.642 0 1-.024.021c-.18-.006-.457-.03-.596.038zm1.522-.013q.038.096.028.2a.024.024 0 0 1-.047 0l-.02-.158q-.002-.025-.027-.032-.292-.079-.533-.005-.043.013-.042.074a.018.018 0 0 1-.019.019l-.077-.005a.025.024 11.43 0 1-.022-.03q.026-.105.145-.125.305-.052.567.02.034.009.047.042zm.314-.088a.02.02 0 0 1 .02.02v.02a.065.053 89.607 0 1-.051.066h-.015a.065.053 89.607 0 1-.053-.065v-.02a.02.02 0 0 1 .02-.02z" style="stroke-width:.0467141"/><path fill="#fafafa" d="m5.378 11.862.05.053a.02.02 64.528 0 1-.014.033h-.092q-.04.001-.039-.038l.002-.404q0-.066.066-.066h.333a.064.064 0 0 1 .064.065l-.002.405a.021.021 0 0 1-.038.011q-.11-.164-.323-.089a.019.018 61.932 0 0-.007.03z" style="stroke-width:.0467141"/><path fill="#01a1cc" d="M3.808 12.11c-.163-.005-.447.026-.573-.092q-.06-.057-.058-.2l.002-.258a.053.053 0 0 1 .054-.053l.105-.001q.054 0 .053.054l-.006.347a.054.054 0 0 0 .053.055l.34.001a.06.06 0 0 0 .06-.06l-.001-.363a.034.035 89.454 0 1 .034-.034l.143-.002q.034 0 .034.033v.631a.182.183 0 0 1-.18.183l-.637.013q-.062 0-.062-.062v-.028q0-.076.076-.076h.531q.039 0 .052-.037l.005-.015a.028.027 13.1 0 0-.025-.036zm.075.075a.077.078 0 0 1-.08.074l-.566-.01q-.03 0-.03.03v.018a.026.026 0 0 0 .026.025q.273.01.535 0 .147-.007.22-.138a.048.048 3.047 0 0-.062-.068q-.041.02-.043.069z" style="stroke-width:.0467141"/><circle fill="#ebb640" cx="7.031" cy="11.98" style="stroke-width:.0467141" r=".145"/><path fill="#e9f8fd" d="M3.883 12.185q.002-.05.043-.069a.048.048 3.047 0 1 .062.067q-.073.132-.22.138-.262.011-.535.001a.026.026 0 0 1-.025-.025v-.019q0-.03.03-.029l.566.01a.077.078 0 0 0 .079-.074z" style="stroke-width:.0467141"/><path fill="#01a1cc" d="m6.877 13.337.4-.407a.02.02 0 0 1 .015-.006l.397-.003a.02.02 0 0 1 .014.036l-.547.502a.02.02 0 0 0 0 .03l.595.605a.02.02 0 0 1-.014.035l-.425-.002a.02.02 0 0 1-.015-.007l-.423-.477a.02.02 0 0 0-.036.014l.01.45a.02.02 0 0 1-.02.02l-.343.003a.02.02 0 0 1-.02-.02l.002-1.631a.02.02 0 0 1 .02-.02l.34.002a.02.02 0 0 1 .02.02l-.005.842a.02.02 0 0 0 .035.014zm6.677-.29q0 .062.04.017c.246-.27.747-.216.779.218q.014.197.009.8 0 .048-.05.048l-.298.003q-.04 0-.04-.04l-.004-.767a.145.145 21.392 0 0-.162-.143l-.053.007a.246.245 88.765 0 0-.215.244l.002.657q0 .04-.039.04h-.312a.037.037 0 0 1-.037-.037v-1.597q0-.036.037-.036l.307-.007q.046 0 .045.046zm-5.364.951.015.111q.002.018-.015.018h-.351q-.02 0-.02-.018l-.005-1.615a.037.037 0 0 1 .038-.038l.312.003q.037 0 .037.037l-.006.556a.02.02 0 0 0 .035.014c.244-.252.615-.22.781.09.178.332.107.92-.349.995q-.247.04-.439-.168a.02.02 0 0 0-.032.015zm.268-.112a.36.263 89.21 0 0 .259-.364.36.263 89.21 0 0-.269-.355.36.263 89.21 0 0-.258.363.36.263 89.21 0 0 .268.356zm-5.964-.243.246-.73a.018.018 0 0 1 .017-.012h.38a.018.018 0 0 1 .016.013l.245.729a.018.018 0 0 0 .035-.002l.254-1.1a.018.018 0 0 1 .018-.015h.359a.018.018 0 0 1 .018.023l-.371 1.563a.018.018 0 0 1-.018.014h-.447a.018.018 0 0 1-.018-.012l-.267-.792a.018.018 0 0 0-.034 0l-.265.798a.018.018 0 0 1-.017.013l-.446-.003a.018.018 0 0 1-.018-.014l-.373-1.57a.018.018 0 0 1 .018-.022h.359a.018.018 0 0 1 .018.014l.257 1.104a.018.018 0 0 0 .034.001z" style="stroke-width:.0467141"/><path fill="#01a1cc" d="M9.567 13.654c.035.394.6.215.802.121a.023.023 0 0 1 .033.022l-.001.213q0 .04-.037.054c-.51.204-1.276.115-1.18-.627q.055-.433.452-.518c.479-.103.86.164.816.69q-.002.026-.026.025l-.84-.001q-.021 0-.02.021zm.192-.51a.059.059 0 0 0-.048.018l-.134.136a.059.059 0 0 0 .043.1l.39-.001a.059.059 0 0 0 .048-.093l-.08-.115a.059.059 0 0 0-.041-.025zm-4.387.433a.567.569 0 0 1-.562.574l-.175.001a.567.569 0 0 1-.572-.563v-.11a.567.569 0 0 1 .56-.574l.176-.001a.567.569 0 0 1 .572.563zm-.657.316a.267.366 0 0 0 .267-.366.267.366 0 0 0-.267-.366.267.366 0 0 0-.267.366.267.366 0 0 0 .267.366zm1.165-.823a.02.02 0 0 0 .036.016q.174-.222.465-.179.01.002.01.013l.001.312a.01.011 7.93 0 1-.014.011q-.27-.094-.396.047c-.132.148-.09.594-.08.8a.036.037 0 0 1-.037.039h-.31q-.04 0-.04-.04l-.001-1.118q0-.046.045-.046h.297a.042.043 0 0 1 .041.051z" style="stroke-width:.0467141"/><path fill="#007b97" d="M11.54 12.929q-.302-.001-.505.152.167-.246.505-.152z" style="stroke-width:.0467141"/><path fill="#01a1cc" d="M11.943 13.42c.055-.498.6-.599.995-.48q.05.015.051.067l.007.22a.03.03 0 0 1-.047.026c-.258-.16-.626-.096-.622.274.003.36.353.427.611.282q.052-.03.054.03l.005.202a.072.073 0 0 1-.054.072c-.523.137-1.073-.031-1-.693zm-.403-.491q.27.072.273.447.004.37 0 .71a.044.044 0 0 1-.045.043l-.296.001a.046.046 0 0 1-.046-.045l-.008-.772a.137.138 0 0 0-.174-.13l-.056.016a.27.272 0 0 0-.199.263l.003.626a.041.042 0 0 1-.042.042h-.316a.032.032 0 0 1-.032-.032l.001-1.142q0-.03.03-.03l.342.002a.022.022 0 0 1 .02.027l-.02.085a.029.029 0 0 0 .024.035l.036.006q.203-.153.505-.152z" style="stroke-width:.0467141"/><path fill="#fafafa" d="m9.76 13.144.177.02a.059.059 0 0 1 .042.025l.079.115a.059.059 0 0 1-.048.093h-.39a.059.059 0 0 1-.043-.1l.134-.135a.059.059 0 0 1 .048-.018z" style="stroke-width:.0467141"/><ellipse fill="#fafafa" cx="13.527" cy="-4.715" transform="rotate(90)" rx=".366" ry=".267" style="stroke-width:.0467141"/><ellipse fill="#fafafa" cx="13.643" cy="-8.264" transform="rotate(89.203) skewX(.006)" rx=".359" ry=".263" style="stroke-width:.0467141"/></svg>