<svg xmlns="http://www.w3.org/2000/svg" viewBox="0 0 32 32" width="16" height="16"><defs><linearGradient id="a" x1="15.997" y1="929" x2="15.997" y2="957" gradientTransform="matrix(1 0 0 -1 0 959)" gradientUnits="userSpaceOnUse"><stop offset="0" stop-color="#2af598"/><stop offset="1" stop-color="#009efd"/></linearGradient></defs><path d="M18.488 2a1.753 1.753 0 0 0-.564.1c1.611 1.058-.28 2.594.6 3.9A2.234 2.234 0 0 1 19.6 3.765c.285-.237.467-.322.406-.714C19.91 2.409 19.054 2 18.488 2Zm2.3.414c-.222 1.123-.5 1.164-1.323 1.887a1.82 1.82 0 0 0-.528 2.191c-3.4-1.32-7.758-2.118-10.953.166-1.149.821-1.851 2-3.268 2.481-.916.313-1.816.221-2.388 1.129a1.413 1.413 0 0 0 .056 1.832c.17.175.5.287.636.465.079.1.077.2.152.333a2.586 2.586 0 0 0 .564.828c.146.121.652.239.738.368.107.161-.173.8.062.9.159.073.622-.744.667-.816-.092.643-.213 1.784.51.834.343-.451.364-.6.941-.7a8.36 8.36 0 0 1 9.739 7.506c-.108-.5-.761-1.3-1.369-1.11-.259.08-.355.527-.525.786a3.75 3.75 0 0 1-.785.868 4.657 4.657 0 0 0-.072-1.452c-.182.748-.547 1.989-1.466 1.788a1.652 1.652 0 0 1-1.328-1.142c-.119-.76.684-1.651-.607-1.714-2.59-.127-1.991 3.682-.462 4.675a3.272 3.272 0 0 0-1.015.283 6.893 6.893 0 0 0 10.276-4.911 7.046 7.046 0 0 1-.646 4.79 6.9 6.9 0 0 1-1.23 1.668c-.3.3-.894.63-1.089.941a13.427 13.427 0 0 0 3.525-.968A11.647 11.647 0 0 1 15.1 30a11.59 11.59 0 0 0 9.3-5.909 11.657 11.657 0 0 1-1.945 4.668 11.531 11.531 0 0 0 4.975-7.783 11.655 11.655 0 0 1 .209 3.5A12.418 12.418 0 0 0 29.53 13.91a15.755 15.755 0 0 0-1.689-3.962 14.838 14.838 0 0 0-.941-1.394c-.133-.173-.844-.806-.844-1q-.009.029-.015 0c0 3.266-3.5 5.311-6.431 4.463a5 5 0 0 0 4.56-4.288 4.988 4.988 0 0 0-3.381-5.315Z" style="fill-rule:evenodd;fill:url(#a)"/></svg>