<svg xmlns="http://www.w3.org/2000/svg" width="16" height="16" viewBox="0 0 16 16" fill-rule="evenodd" clip-rule="evenodd" stroke-linejoin="round" stroke-miterlimit="1.414"><path d="M8.995 11.904V10.51a.247.238 0 0 0-.244-.242H7.289a.247.238 0 0 0-.244.242v1.394a.247.238 0 0 0 .244.242h1.462a.247.238 0 0 0 .244-.242zM8.98 9.16l.138-3.368a.184.177 0 0 0-.077-.14c-.046-.037-.114-.08-.183-.08H7.182c-.07 0-.137.043-.183.08a.203.203 0 0 0-.076.154l.129 3.354c0 .095.114.169.26.169h1.41c.136 0 .25-.074.258-.169zm-.106-6.855 5.85 10.333a.975.94 0 0 1-.853 1.387H2.17a.975.94 0 0 1-.854-1.387l5.85-10.333a.97.934 0 0 1 1.708 0z" fill="#FFA300" fill-rule="nonzero"/></svg>