<svg width="16" height="16" viewBox="0 0 16 16" xmlns="http://www.w3.org/2000/svg"><g stroke-width="2" fill="none"><path stroke="#7f8965" vector-effect="non-scaling-stroke" d="M15.88 2.01q-1.26-.32-1.87.98" transform="matrix(.42575 0 0 .47352 1.265 .435)"/><path stroke="#7f6621" vector-effect="non-scaling-stroke" d="M14.01 2.99q-.66.67-.18 2.3" transform="matrix(.42575 0 0 .47352 1.265 .435)"/><path stroke="#7d8078" vector-effect="non-scaling-stroke" d="M13.83 5.29q.02.63.36.73" transform="matrix(.42575 0 0 .47352 1.265 .435)"/><path stroke="#545543" vector-effect="non-scaling-stroke" d="m14.19 6.02-.35 3.77" transform="matrix(.42575 0 0 .47352 1.265 .435)"/><path stroke="#02698f" vector-effect="non-scaling-stroke" d="M13.84 9.79q.16.63-.17.98" transform="matrix(.42575 0 0 .47352 1.265 .435)"/><path stroke="#7a726b" vector-effect="non-scaling-stroke" d="M13.67 10.77q-.79.79-1.54.73-.53-.05-.65-.56l-1.04-4.1" transform="matrix(.42575 0 0 .47352 1.265 .435)"/><path stroke="#7e3a44" vector-effect="non-scaling-stroke" d="M10.44 6.84q.51-1.16.41-1.74a.38.38 0 0 0-.67-.18l-.96 1.17" transform="matrix(.42575 0 0 .47352 1.265 .435)"/><path stroke="#661930" vector-effect="non-scaling-stroke" d="M9.22 6.09Q6.93 5.8 4.77 8.75A1.01 1.01 0 0 0 6 10.26q2.14-.96 3.57-3.62" transform="matrix(.42575 0 0 .47352 1.265 .435)"/><path stroke="#7e3a44" vector-effect="non-scaling-stroke" d="M9.57 6.64q.19 1.07.32.92" transform="matrix(.42575 0 0 .47352 1.265 .435)"/><path stroke="#7a726b" vector-effect="non-scaling-stroke" d="m9.89 7.56.68 5.36q.07.55.61.4l2.07-.59" transform="matrix(.42575 0 0 .47352 1.265 .435)"/><path stroke="#474d25" vector-effect="non-scaling-stroke" d="m13.25 12.73-.17 2.8" transform="matrix(.42575 0 0 .47352 1.265 .435)"/><path stroke="#80999c" vector-effect="non-scaling-stroke" d="m13.08 15.53-2.86 3.24" transform="matrix(.42575 0 0 .47352 1.265 .435)"/><path stroke="#02698f" vector-effect="non-scaling-stroke" d="M10.22 18.77q-.27 1.68.36 2.41 1.98 2.29 5.43 2.85" transform="matrix(.42575 0 0 .47352 1.265 .435)"/><path stroke="#7d8078" vector-effect="non-scaling-stroke" d="m16.01 24.03 1.77 5.7q.11.36.49.31l.43-.05q.39-.04.35-.43l-.62-5.5" transform="matrix(.42575 0 0 .47352 1.265 .435)"/><path stroke="#02698f" vector-effect="non-scaling-stroke" d="M18.43 24.06q.52-.26.93-.24" transform="matrix(.42575 0 0 .47352 1.265 .435)"/><path stroke="#7d8078" vector-effect="non-scaling-stroke" d="m19.36 23.82 4.26 4.21a.64.64 0 0 0 .98-.82l-3.23-4.74" transform="matrix(.42575 0 0 .47352 1.265 .435)"/><path stroke="#02698f" vector-effect="non-scaling-stroke" d="M21.37 22.47q1.71-2.79 4.7-4.05.58-.25.22-.76-1.38-1.92-3.28-2.64" transform="matrix(.42575 0 0 .47352 1.265 .435)"/><path stroke="#7f6621" vector-effect="non-scaling-stroke" d="M23.01 15.02q1.54-3.48-2.17-9.57" transform="matrix(.42575 0 0 .47352 1.265 .435)"/><path stroke="#7f8965" vector-effect="non-scaling-stroke" d="M20.84 5.45q.65-.15-.24-1.74" transform="matrix(.42575 0 0 .47352 1.265 .435)"/><path stroke="#7f6621" vector-effect="non-scaling-stroke" d="M20.6 3.71q-1.29-3.09-4.72-1.7" transform="matrix(.42575 0 0 .47352 1.265 .435)"/><path stroke="#febd4c" vector-effect="non-scaling-stroke" d="m20.6 3.71-4.72-1.7m4.96 3.44q-3.78-.24-6.83-2.46" transform="matrix(.42575 0 0 .47352 1.265 .435)"/><path stroke="#819d77" vector-effect="non-scaling-stroke" d="m23.01 15.02-.79-.12" transform="matrix(.42575 0 0 .47352 1.265 .435)"/><path stroke="#ffcd84" vector-effect="non-scaling-stroke" d="M22.22 14.9 21 11.98" transform="matrix(.42575 0 0 .47352 1.265 .435)"/><path stroke="#819d77" vector-effect="non-scaling-stroke" d="M21 11.98q.6-1.54-2.71-2.18" transform="matrix(.42575 0 0 .47352 1.265 .435)"/><path stroke="#fcb45f" vector-effect="non-scaling-stroke" d="M18.29 9.8q.52-1.99-.27-2.3-.2-.08-.05-.23l.22-.21q.23-.23.14-.54-.21-.81-1.01-.73" transform="matrix(.42575 0 0 .47352 1.265 .435)"/><path stroke="#d3892b" vector-effect="non-scaling-stroke" d="M17.32 5.79q-.14-.17-.28-.35" transform="matrix(.42575 0 0 .47352 1.265 .435)"/><path stroke="#fcb45f" vector-effect="non-scaling-stroke" d="M17.04 5.44q-.31-1.06-3.21-.15" transform="matrix(.42575 0 0 .47352 1.265 .435)"/><path stroke="#d1a382" vector-effect="non-scaling-stroke" d="M17.04 5.44q-1.72 2.07-2.85.58" transform="matrix(.42575 0 0 .47352 1.265 .435)"/><path stroke="#d3bba6" vector-effect="non-scaling-stroke" d="M18.79 14.33q.21.12.44.14.54.05.64-.49.11-.6-.13-1.3" transform="matrix(.42575 0 0 .47352 1.265 .435)"/><path stroke="#82d0f2" vector-effect="non-scaling-stroke" d="M22.22 14.9q-2.81-.62.82 1.98.51.37.07.82c-1.45 1.5-2.63 3.45-4.64 4.08q-5.25 1.66-8.25-3.01" transform="matrix(.42575 0 0 .47352 1.265 .435)"/><path stroke="#c6b488" vector-effect="non-scaling-stroke" d="m13.08 15.53 2-1.31q.45-.3.16-.75l-.46-.76" transform="matrix(.42575 0 0 .47352 1.265 .435)"/><path stroke="#82d0f2" vector-effect="non-scaling-stroke" d="M21 11.98q-.94.02-1.26.7" transform="matrix(.42575 0 0 .47352 1.265 .435)"/><path stroke="#568c99" vector-effect="non-scaling-stroke" d="m19.74 12.68-.95 1.65" transform="matrix(.42575 0 0 .47352 1.265 .435)"/><path stroke="#82d0f2" vector-effect="non-scaling-stroke" d="M18.79 14.33q-.45-.64-.26-1.79.1-.56-.46-.58l-2.74-.12q-.43-.01-.57.39-.09.24.02.48" transform="matrix(.42575 0 0 .47352 1.265 .435)"/><path stroke="#49847b" vector-effect="non-scaling-stroke" d="m14.78 12.71-.96-.1" transform="matrix(.42575 0 0 .47352 1.265 .435)"/><path stroke="#7fb7ce" vector-effect="non-scaling-stroke" d="M18.29 9.8q.44.54-.04.84-.43.26-.9.08l-1.96-.78" transform="matrix(.42575 0 0 .47352 1.265 .435)"/><path stroke="#d1a382" vector-effect="non-scaling-stroke" d="M17.32 5.79q-.65 1.05-1.82 1.72-.49.28-.39.83l.28 1.6" transform="matrix(.42575 0 0 .47352 1.265 .435)"/><path stroke="#568c99" vector-effect="non-scaling-stroke" d="M15.39 9.94q-1.06.5-1.55-.15" transform="matrix(.42575 0 0 .47352 1.265 .435)"/><path stroke="#7fb7ce" vector-effect="non-scaling-stroke" d="m21.37 22.47-2.01 1.35m-.93.24-2.42-.03" transform="matrix(.42575 0 0 .47352 1.265 .435)"/><path stroke="#7ca9c1" vector-effect="non-scaling-stroke" d="M13.67 10.77q.45 1.23.15 1.84" transform="matrix(.42575 0 0 .47352 1.265 .435)"/><path stroke="#c18d57" vector-effect="non-scaling-stroke" d="M13.82 12.61q-.38-.08-.57.12" transform="matrix(.42575 0 0 .47352 1.265 .435)"/><path stroke="#f87976" vector-effect="non-scaling-stroke" d="m10.44 6.84-.55.72" transform="matrix(.42575 0 0 .47352 1.265 .435)"/><path stroke="#e3213b" vector-effect="non-scaling-stroke" d="M9.57 6.64q.41.31-.35-.55" transform="matrix(.42575 0 0 .47352 1.265 .435)"/><path stroke="#fde7db" vector-effect="non-scaling-stroke" d="M17.49 14.92q-1.03.55-1.69 1.44a.48.48 0 0 0 .69.65q1-.82 1.4-1.72.33-.75-.4-.37" transform="matrix(.42575 0 0 .47352 1.265 .435)"/><path stroke="#a5e0f8" vector-effect="non-scaling-stroke" d="M19.98 16.9q-.15-.68-.72-.28l-1 .69q-.71.5.01.99l.81.54a.75.75 0 0 0 1.16-.78l-.26-1.16" transform="matrix(.42575 0 0 .47352 1.265 .435)"/></g><path fill="#003239" d="M12.288.435h1l-.464 15.153h-1.673l-7.642-.308q-.243-.01-.252-.28L2.772 1.265q-.008-.242.213-.256zm-4.262.952q-.537-.152-.796.464-.281.317-.077 1.089.009.298.153.346L7.157 5.07q.068.298-.072.464-.336.374-.656.345-.225-.023-.276-.265l-.443-1.94q.217-.55.174-.824a.162.18 0 0 0-.285-.085l-.409.554q-.975-.138-1.894 1.26a.43.478 0 0 0 .523.714q.912-.454 1.52-1.714.081.507.137.436l.29 2.538q.029.26.259.19l.881-.28-.072 1.326-1.218 1.534q-.115.795.153 1.141.843 1.085 2.312 1.35l.754 2.699q.047.17.208.147l.183-.024q.166-.019.15-.204l-.265-2.604q.222-.123.396-.114l1.814 1.994a.272.303 0 0 0 .417-.388l-1.375-2.245q.728-1.321 2.001-1.918.247-.118.094-.36-.588-.909-1.397-1.25.656-1.648-.923-4.531.276-.071-.103-.824-.549-1.463-2.01-.805Z" style="stroke-width:.449003"/><path fill="#fe9a08" d="m10.035 2.192-2.01-.805q1.461-.658 2.01.805Z" style="stroke-width:.449003"/><path fill="#fddf90" d="m8.026 1.387 2.01.805q.378.753.102.824-1.61-.114-2.908-1.165.26-.616.796-.464Z" style="stroke-width:.449003"/><path fill="#fe9a08" d="M7.23 1.85q1.298 1.052 2.908 1.166 1.58 2.883.923 4.531l-.336-.057-.52-1.382q.256-.73-1.153-1.033.221-.942-.115-1.089-.085-.038-.021-.109l.093-.099q.098-.109.06-.256-.09-.383-.43-.345-.06-.08-.12-.166-.131-.502-1.366-.071-.204-.772.077-1.09Z" style="stroke-width:.449003"/><path fill="#fb414e" d="m5.71 3.674-.234.34q-.056.072-.137-.435.175.147-.149-.26l.409-.554a.162.18 0 0 1 .285.085q.043.275-.174.824z" style="stroke-width:.449003"/><path fill="#faceb6" d="M8.52 3.01q-.733.981-1.214.276-.144-.048-.153-.346 1.235-.431 1.367.07Z" style="stroke-width:.449003"/><path fill="#a7774d" d="M8.52 3.01q.06.086.119.167-.277.497-.775.814-.209.133-.166.393l.12.758q-.452.237-.66-.071l.148-1.785q.481.705 1.214-.275Z" style="stroke-width:.449003"/><path fill="#faceb6" d="M8.639 3.177q.34-.038.43.345.038.147-.06.256l-.093.1q-.064.07.02.108.337.147.116 1.09.187.255-.017.397-.183.123-.383.038l-.835-.37-.119-.757q-.043-.26.166-.393.498-.317.775-.814Z" style="stroke-width:.449003"/><path fill="#cb0027" d="M5.19 3.319q.324.407.15.26-.61 1.26-1.52 1.714a.43.478 0 0 1-.524-.715q.92-1.397 1.894-1.26Z" style="stroke-width:.449003"/><path fill="#f4b19d" d="m5.71 3.674.443 1.941q.05.242.276.265.32.029.656-.345.192.582.064.871-.162-.038-.243.057l-.881.28q-.23.07-.26-.19l-.29-2.538Z" style="stroke-width:.449003"/><path fill="#04a0e5" d="M7.157 5.07q.209.309.66.072l.835.37q.2.084.383-.039.204-.142.017-.398 1.41.304 1.154 1.033-.4.01-.537.331l-.404.782q-.192-.304-.11-.848.042-.265-.197-.275l-1.166-.057q-.183-.004-.243.185-.038.114.009.227l-.41-.047q.129-.289-.063-.871.14-.166.072-.464Z" style="stroke-width:.449003"/><path fill="#fff" d="M9.265 7.22q.09.057.187.067.23.023.273-.232.046-.284-.056-.616.136-.322.537-.331l.52 1.382q-1.197-.293.348.938.217.175.03.388c-.617.71-1.12 1.634-1.975 1.932q-2.236.786-3.513-1.425l1.218-1.534.851-.62q.192-.143.068-.356l-.195-.36q-.047-.113-.009-.227.06-.19.243-.185l1.166.057q.239.01.196.275-.08.544.11.848zm-.554.28q-.438.26-.72.682a.204.227 0 0 0 .295.308q.425-.389.596-.815.14-.355-.17-.175Zm1.06.937q-.063-.322-.306-.132l-.426.327q-.302.236.004.468l.345.256a.32.355 0 0 0 .494-.37z" style="stroke-width:.449003"/><path fill="#8d6810" d="m7.149 6.406.409.047.195.36q.124.213-.068.355l-.851.62.072-1.325q.081-.095.243-.057z" style="stroke-width:.449003"/><path fill="#a7774d" d="M9.67 6.44q.101.33.055.615-.043.255-.273.232-.098-.01-.187-.066z" style="stroke-width:.449003"/><path fill="#04a0e5" d="m10.725 7.49.336.057q.81.341 1.397 1.25.153.242-.094.36-1.273.597-2 1.918l-.857.64q-.174-.01-.396.113l-1.03-.014q-1.469-.265-2.312-1.35-.268-.346-.153-1.141 1.277 2.211 3.513 1.425c.855-.298 1.358-1.221 1.975-1.932q.187-.213-.03-.388-1.545-1.231-.349-.938Z" style="stroke-width:.449003"/><path fill="#faceb6" d="M8.711 7.5q.311-.18.17.175-.17.426-.595.815a.204.227 0 0 1-.294-.308q.28-.422.72-.682Z" style="stroke-width:.449003"/><path fill="#4bc0f0" d="m9.771 8.437.111.55a.32.355 0 0 1-.494.37L9.043 9.1q-.306-.232-.004-.468l.426-.327q.243-.19.306.132Z" style="stroke-width:.449003"/><path fill="#faceb6" d="m10.363 11.075 1.375 2.245a.272.303 0 0 1-.417.388l-1.814-1.994Zm-2.282.739 1.03.014.264 2.604q.017.185-.149.204l-.183.024q-.161.023-.208-.147z" style="stroke-width:.449003"/></svg>