<svg xmlns="http://www.w3.org/2000/svg" width="16" height="16" viewBox="0 -1 16 16"><path fill="#8069F3" d="M14.314 7.02 11.32 9.893l2.994 2.87m-.302-6.033h-5.99l2.996 2.872m2.994-3.283-2.994-2.87-2.994 2.87M10.5 3.365H4.512l2.994 2.87M14.314.289 11.32 3.16l2.994 2.87M10.5 2.955 7.506.085l-2.994 2.87M6.988 0H1l2.994 2.87M1.687 6.98 4.68 4.106l-2.993-2.87M4.984 4.4 1.99 7.27h5.988m-5.988.41 2.993 2.87L7.98 7.68m-6.293.29v5.74l2.993-2.87-.877-.84m7.685.635-2.992-2.87-2.994 2.87m0 .41 2.993 2.87 2.993-2.87m.518.084L9.014 14H15" class="i-color"/></svg>