<svg width="16" height="16" viewBox="0 0 1000 1000" fill="none" xmlns="http://www.w3.org/2000/svg"><g clip-path="url(#a)" transform="translate(-588.375 -426.353) scale(1.87175)"><path fill-rule="evenodd" clip-rule="evenodd" d="M704.14 527.73c.184-.372.339-.744.507-1.134l-.018-.014c-.15.386-.319.776-.489 1.147m-279.285-54.56c-1.857.1-3.257 2.295-3.154 4.946.099 2.648 1.702 4.744 3.525 4.642 1.856-.067 3.272-2.28 3.154-4.914-.099-2.648-1.702-4.745-3.525-4.674m5.973 38.27c-1.199-5.149-5.08-8.66-8.69-7.834-3.61.828-5.57 5.708-4.354 10.857 1.2 5.145 5.077 8.691 8.688 7.83 3.596-.828 5.555-5.704 4.356-10.853m17.99-55.523c-3.695-.235-7.004 3.814-7.376 9.118-.385 5.28 2.295 9.79 5.975 10.025 3.713.268 7.003-3.78 7.375-9.066.39-5.3-2.294-9.79-5.975-10.077m9.077 90.182c-4.438-5.35-11.036-7.208-14.764-4.123-3.747 3.089-3.207 9.93 1.198 15.296 4.39 5.35 11.018 7.208 14.764 4.119 3.75-3.089 3.192-9.927-1.198-15.292" fill="#a776c1" style="stroke-width:1.01"/><path fill-rule="evenodd" clip-rule="evenodd" d="M556.245 698.028c-.202.034-.437.034-.69.034-2.229.065-4.49.103-6.717.103-24.452 0-48.062-3.446-70.403-9.893a140.45 140.45 0 0 1-4.47-1.454c-7.14-2.294-14.045-5.046-20.776-8.172-10.243 5.775-21.6 9.828-33.768 11.685-2.783.404-5.552.71-8.404.894-5.5.37-10.883.301-16.184-.221l-.032-.034a118.391 118.391 0 0 0-19.574-.338c-11.444.762-22.36 3.16-32.554 6.973-1.42-3.681-2.294-7.63-2.581-11.75-1.468-22.077 15.22-41.154 37.26-42.624 8.25-.556 15.845 1.302 22.493 5.148 3.613 1.994 7.66 3.461 11.915 4.322a76.245 76.245 0 0 1-1.805-1.538 4.538 4.538 0 0 1-.522-.452c-3.817-3.193-7.526-6.55-11.056-10.095-5.147-4.88-11.507-11.548-17.82-20.21-.554-.71-1.113-1.467-1.687-2.228-1.518-2.056-3.022-4.119-4.47-6.245a195.551 195.551 0 0 1-18.06-32.717 114.163 114.163 0 0 1-1.616-3.85 184.27 184.27 0 0 1-4.39-11.813 120.493 120.493 0 0 1-1.316-3.987 248.806 248.806 0 0 1-2.194-7.631c-.339-1.266-.692-2.53-.993-3.847a168.087 168.087 0 0 1-2.026-9.198c-.507-2.586-.996-5.219-1.404-7.87a154.678 154.678 0 0 1-.688-4.914 106.06 106.06 0 0 1-.526-4.284c-.135-1.32-.268-2.586-.404-3.884 0-.254-.033-.49-.033-.728a88.306 88.306 0 0 1-.305-4.12 81.469 81.469 0 0 1-.254-4.439 195.68 195.68 0 0 1-.202-8.86c0-1.723.036-3.393.07-5.082.033-1.416.065-2.82.132-4.221.036-.791.103-1.585.136-2.38.084-1.166.155-2.328.254-3.46.103-1.689.272-3.343.441-5.014a74.76 74.76 0 0 1 .386-3.442c.235-2.026.507-4.053.81-6.08.116-.76.22-1.485.352-2.228.168-1.015.305-2.008.507-3.004a138.3 138.3 0 0 1 .93-4.797c.32-1.618.658-3.206 1.029-4.81.354-1.486.692-2.92 1.063-4.406 2.92-11.412 6.8-22.4 11.61-32.867a106.536 106.536 0 0 1 1.72-3.645 190.857 190.857 0 0 1 9.166-16.899 162.792 162.792 0 0 1 5.058-7.866 199.422 199.422 0 0 1 5.49-7.731c1.856-2.483 3.775-4.914 5.701-7.327 1.166-1.335 2.295-2.717 3.46-4.052.963-1.063 1.922-2.16 2.886-3.226 1.078-1.162 2.143-2.313 3.24-3.475 1.062-1.132 2.194-2.261 3.29-3.361.206-.254.422-.457.657-.659 1.89-1.89 3.85-3.715 5.806-5.535a195.655 195.655 0 0 1 47.69-32.21c1.18-.591 2.378-1.183 3.61-1.687a184.923 184.923 0 0 1 17.617-7.043c1.302-.452 2.585-.86 3.882-1.28.762-.239 1.486-.474 2.228-.676 1.115-.387 2.21-.692 3.31-.997a150.617 150.617 0 0 1 5.771-1.553c-63.892 18.282-135.004 76.674-135.004 178.47 0 129.377 107.63 154.43 157.698 177.692 30.36 14.078 41.312 25.932 45.26 33.088" fill="#96d7e8" style="stroke-width:1.01"/><path fill-rule="evenodd" clip-rule="evenodd" d="M426.474 522.293c-3.61.86-7.492-2.684-8.69-7.833-1.214-5.15.742-10.025 4.355-10.857 3.611-.824 7.49 2.685 8.691 7.834 1.195 5.149-.76 10.03-4.356 10.856m32.622 39.098c-3.747 3.09-10.379 1.232-14.768-4.12-4.4-5.368-4.942-12.205-1.195-15.295 3.728-3.09 10.326-1.232 14.764 4.12 4.386 5.368 4.945 12.206 1.2 15.295m-4.305-95.396c-.371 5.284-3.662 9.333-7.375 9.065-3.68-.239-6.36-4.744-5.975-10.029.372-5.3 3.68-9.352 7.375-9.117 3.677.287 6.36 4.78 5.975 10.081m-26.408 11.85c.117 2.633-1.302 4.843-3.154 4.913-1.824.1-3.431-1.993-3.53-4.645-.099-2.647 1.302-4.843 3.158-4.942 1.82-.07 3.423 2.022 3.526 4.674" fill="#96d7e8" style="stroke-width:1.01"/><mask id="b" mask-type="alpha" maskUnits="userSpaceOnUse" x="317" y="302" width="551" height="393"><path fill-rule="evenodd" clip-rule="evenodd" d="M317.929 302.87h549.345v391.447H317.929Z" fill="#fff"/></mask><g mask="url(#b)"><path fill-rule="evenodd" clip-rule="evenodd" d="M562.187 646.86c-1.231 5.012-6.478 8.05-11.78 6.737-5.282-1.268-8.554-6.38-7.341-11.396 1.235-4.995 5.25-2.85 10.5-1.553 5.297 1.266 9.852 1.232 8.621 6.212zm-103.092-85.47c-3.746 3.09-10.378 1.232-14.768-4.12-4.4-5.365-4.94-12.206-1.195-15.295 3.728-3.085 10.327-1.232 14.765 4.123 4.386 5.365 4.944 12.203 1.198 15.292zm-32.62-39.099c-3.61.86-7.492-2.684-8.69-7.83-1.214-5.148.743-10.028 4.356-10.856 3.61-.827 7.49 2.685 8.691 7.834 1.195 5.149-.761 10.025-4.357 10.852zm-1.618-49.122c1.82-.07 3.423 2.026 3.526 4.674.117 2.633-1.302 4.847-3.154 4.913-1.824.103-3.43-1.993-3.53-4.641-.099-2.651 1.302-4.847 3.158-4.946zm16.588-8.136c.372-5.303 3.677-9.352 7.376-9.117 3.676.287 6.36 4.778 5.974 10.077-.372 5.285-3.666 9.334-7.375 9.066-3.68-.236-6.364-4.744-5.975-10.026zm322.925 11.983c-.547-.1-1.092-.206-1.636-.32a47.51 47.51 0 0 1-2.195-.54 33.56 33.56 0 0 1-2.143-.623c-.019-.018-.034-.018-.052-.018-.455-.15-.912-.305-1.367-.455a43.517 43.517 0 0 1-2.684-1.03c0-.019-.015 0-.015 0a49.806 49.806 0 0 1-6.53-3.259 53.291 53.291 0 0 1-7.627-5.421 46.608 46.608 0 0 1-4.997-4.877 31.192 31.192 0 0 1-1.504-1.772c-2.9-3.597-5.194-7.58-6.68-11.816-11.576-41.563-36.418-77.637-69.66-103.297-33.279-25.677-74.962-40.922-120.237-40.922-16.606 0-32.756 2.06-48.179 5.944-.202.065-.372.103-.574.168-63.891 18.282-135 76.674-135 178.47 0 129.377 107.63 154.43 157.699 177.692 30.36 14.078 41.311 25.932 45.256 33.088 33.382-.93 65.157-8.322 94.13-21 2.721-1.268 4.978-2.717 6.835-4.288a10.26 10.26 0 0 0 4.272 1.67l102.888 9.69 57.36 4.83 23.193 4.64-178.82-39.144c-.169-.038-.334-.071-.47-.103-.236-6.113-5.603-10.162-7.662-12.95-1.79-2.412-1.856-4.016-1.856-4.016-1.688-24.527-12.776-46.527-29.669-62.326-15.084-14.112-34.728-23.365-56.528-25.186v-.036a28.784 28.784 0 0 0-10.095-10.956c-6.666-5.215-10.953-13.64-10.953-22.772v-.17c-14.158 1.266-25.698 11.666-28.654 25.273-26.44-13.117-44.598-40.4-44.598-71.898 0-21.876 8.724-41.713 22.9-56.164 19.136-20.175 45.783-32.36 75.734-32.36 48.617 0 89.49 33.07 101.402 77.939-7.727 9.588-19.572 16.458-31.319 18.418-21.8 3.78-38.947 21.169-42.374 43.08 20.184 0 33.617 27.55 71.131 27.55h.015a33.883 33.883 0 0 0 23.962-9.856 43.742 43.742 0 0 0 1.706-1.81 35.925 35.925 0 0 0 2.632-3.442 25.43 25.43 0 0 0 .997-1.585 33.484 33.484 0 0 0 1.738-3.328 20.8 20.8 0 0 0 .49-1.147l.014.018c.32.776.677 1.52 1.03 2.261.371.762.78 1.486 1.198 2.196a36.182 36.182 0 0 0 2.078 3.104c.254.32.507.658.756.983a35.405 35.405 0 0 0 1.64 1.853c.284.305.574.607.861.897a34.503 34.503 0 0 0 9.077 6.447c.742.353 1.504.692 2.28 1.012a34.454 34.454 0 0 0 12.62 2.397c.71 0 1.402-.015 2.077-.033.692-.014 1.368-.051 2.04-.085a39.734 39.734 0 0 0 2.012-.135c.586-.046 1.17-.101 1.754-.166 1.207-.135 2.41-.3 3.61-.493.507-.084 1.01-.183 1.503-.268.504-.1.997-.202 1.486-.305.489-.1.978-.202 1.467-.32l1.419-.354a67.38 67.38 0 0 0 9.5-3.258c.437-.187.874-.372 1.316-.592.202-.085.404-.169.607-.269.184-.103.389-.202.592-.286 17.31-8.139 27.961-20.985 41.748-20.985-3.393-21.71-20.234-38.962-41.748-42.945z" fill="#48c4e5" style="stroke-width:1.01"/></g></g><defs><clipPath id="a"><path fill="#fff" d="M0 0h1000v1000H0z"/></clipPath></defs></svg>