<!-- SPDX-License-Identifier: MIT -->

<svg fill="none" width="16" height="16" viewBox="0 0 16 16" aria-hidden="true" class="h-9 mb-2 sm:h-12 sm:mb-3" xmlns="http://www.w3.org/2000/svg"><path fill="#0d1a2b" fill-rule="evenodd" d="M8.496.767a1.048 1.048 0 0 0-1.01 0L2.318 3.61a1.943 1.943 0 0 0-.012.008l-.681.374a1.048 1.048 0 0 0-.543.918v6.389c0 .384.208.734.543.918l5.218 2.869.02.01.625.345a1.048 1.048 0 0 0 1.01 0l.624-.345.02-.01 5.217-2.868a1.047 1.047 0 0 0 .544-.918V4.91c0-.384-.208-.735-.544-.918l-.678-.373a1.816 1.816 0 0 0-.015-.009zm.332 7.337 4.838-2.66a1.99 1.99 0 0 0 .015-.008l.056-.03a.242.242 0 0 1 .36.211v4.974a.242.242 0 0 1-.358.212l-.046-.025a2.132 2.132 0 0 0-.027-.016zM2.305 5.437a.201.201 0 0 0 .013.008l4.835 2.658-4.835 2.66a.678.678 0 0 0-.027.016l-.045.024a.242.242 0 0 1-.36-.211V5.617a.242.242 0 0 1 .36-.213Zm10.98-1.118L8.751 1.83a.242.242 0 0 0-.357.203v5.39l4.89-2.687a.242.242 0 0 0 0-.416zm-10.586.417 4.889 2.687v-5.39a.242.242 0 0 0-.359-.205l-4.53 2.49a.242.242 0 0 0 0 .418zm.006 7.156a.242.242 0 0 1-.013-.417l4.896-2.69v5.39a.242.242 0 0 1-.348.209zm5.689 2.275V8.785l4.896 2.691a.242.242 0 0 1-.014.417l-4.534 2.492a.242.242 0 0 1-.348-.21Z"/><path fill="#e2d23f" d="M7.875 1.472a.242.242 0 0 1 .233 0l5.17 2.842a.242.242 0 0 1 0 .424L8.107 7.58a.242.242 0 0 1-.233 0l-5.17-2.842a.242.242 0 0 1 0-.424l5.17-2.84Z"/><path fill="#ffec40" d="M1.887 5.615a.242.242 0 0 1 .358-.211l5.219 2.87a.242.242 0 0 1 .124.212v5.681a.242.242 0 0 1-.357.213l-5.219-2.87a.242.242 0 0 1-.124-.212V5.617Z"/><path fill="#fff" d="M13.737 5.404a.242.242 0 0 1 .36.211v5.683a.243.243 0 0 1-.126.213l-5.219 2.867a.242.242 0 0 1-.357-.212V8.485a.245.245 0 0 1 .124-.214Z"/><path fill="#0d1a2b" d="m4.079 10.075-.001.008-1.224-.644v-.008c.03-.38.327-.546.664-.367.337.177.588.63.56 1.01zm1.925 1.112v.007L4.78 10.55v-.008c.028-.38.324-.545.663-.367.338.177.588.63.56 1.01z"/></svg>
