<svg xmlns="http://www.w3.org/2000/svg" width="16" height="16" viewBox="0 0 16 16" preserveAspectRatio="xMinYMin meet"><path d="M1.148 4.625 8.186 1.01l7.037 3.614v7.222L8.186 15.46l-7.038-3.614z" fill="#6b6b6b"/><path d="m8.383 8.233 6.544-3.324.263 6.7-6.807 3.625z" fill="#fff"/><path d="m15.026 4.706-.02 7.1-6.827 3.492-.033-6.978zM9.284 8.9l.02 4.664 2.269-1.166-.007-3.515 1.145-.598v3.527l1.144-.592.006-4.722L9.284 8.9z" fill="#6b6b6b"/><path d="M8.633 1.063c-.316-.157-.822-.157-1.138 0L1.26 4.224c-.316.157-.565.551-.565.865v6.323c0 .319.256.707.565.864l6.235 3.161c.316.157.822.157 1.138 0l6.235-3.161c.315-.157.565-.551.565-.864V5.089c0-.32-.256-.708-.565-.865zm5.531 3.306c.316.157.316.418 0 .575L8.705 7.71c-.315.156-.822.156-1.138 0L2.03 4.903c-.316-.157-.316-.418 0-.574l5.458-2.767c.316-.157.822-.157 1.138 0l5.538 2.807zM1.181 5.547c0-.319.257-.447.566-.29l5.584 2.83c.315.157.565.552.565.865v5.615c0 .32-.256.447-.565.29l-5.584-2.83c-.316-.157-.566-.552-.566-.865zm7.78 9.223c-.315.157-.565.03-.565-.29V8.952c0-.319.257-.708.566-.864l5.419-2.744c.316-.157.566-.03.566.29v5.528c0 .32-.257.708-.566.865l-5.42 2.743z" fill="#535353"/></svg>