<svg xmlns="http://www.w3.org/2000/svg" height="16" viewBox="0 0 24 24" width="16"><path d="m12.832 2.01 7.646 3.808a1.911 1.904 0 0 1 1.06 1.705v9.073a1.911 1.904 0 0 1-1.06 1.705l-7.646 3.808a1.911 1.904 0 0 1-1.71 0l-7.646-3.808a1.911 1.904 0 0 1-1.051-1.714V7.523a1.911 1.904 0 0 1 1.06-1.705l7.646-3.808a1.911 1.904 0 0 1 1.701 0z" fill="none" stroke="#8cd3ec" stroke-linecap="round" stroke-linejoin="round" stroke-width="1.908"/><path fill="none" stroke="#8cd3ec" stroke-linecap="round" stroke-linejoin="round" stroke-width="1.908" d="m2.73 6.494 9.252 4.609 9.251-4.609M11.982 22.3V11.103M7.203 3.962l9.557 4.76"/></svg>