<svg xmlns="http://www.w3.org/2000/svg" width="16" height="16" viewBox="0 0 16 16" version="1.0"><path d="M11.973 1.348c-.549.172-.851.722-.718 1.29.024.105.07.275.097.38.088.331.036.577-.17.805-.179.196-.445.196-.851 0-.388-.187-.654-.39-1.215-.919l-.418-.398-.763.738c-.821.793-.854.822-1.121.986-.654.403-1.3.564-1.57.389a.757.757 0 0 1-.193-.226l-.09-.16.008-.662c.006-.398-.003-.716-.024-.801-.07-.305-.406-.662-.751-.802-.573-.231-1.336.006-1.9.585-.95.98-1.232 1.94-.727 2.481.143.152.467.307.736.354.182.032.27.03.597-.014.636-.085.957-.024 1.19.23.213.232.143.72-.2 1.393-.142.278-.142.278-1.187 1.296L1.658 9.31l2.827 2.73 2.823 2.726.818-.79c.75-.722 1.12-1.12 1.242-1.325a.558.558 0 0 1 .063-.094c.012-.008.07-.1.127-.205.27-.47.34-.845.188-1.018a.915.915 0 0 0-.236-.164c-.19-.087-.436-.099-1.006-.04-.566.055-.836-.015-1.127-.29a1.126 1.126 0 0 1-.363-.752c-.015-.208.024-.52.082-.63l.12-.236c.11-.214.373-.541.573-.717.076-.064.158-.137.185-.16.079-.074.494-.34.63-.407.406-.2.882-.296 1.215-.24.436.067.721.319.875.76.082.237.085.425.003.802-.087.418-.072.693.049.884.145.225.218.263.509.26.34-.003.618-.102 1.072-.377.121-.077.518-.433 1.151-1.045l.964-.93-.685-.664c-.718-.703-.93-.928-1.16-1.238a7.072 7.072 0 0 0-.164-.22 4.653 4.653 0 0 1-.14-.26c-.154-.307-.166-.497-.032-.635.23-.234.478-.295.939-.23.881.122 1.184.04 1.487-.402.218-.316.273-.687.167-1.1-.212-.816-.979-1.58-1.909-1.899-.185-.064-.833-.1-.972-.055z" fill="#de4c36"/></svg>