<svg xmlns="http://www.w3.org/2000/svg" width="16" height="16" fill-rule="evenodd" viewBox="0 0 24 24"><path fill="#D73736" d="M11.356 10.906c-.254.804-.618 1.663-1.115 2.608-.221.413-.464.804-.553 1.13l.122-.043a21.102 21.102 0 0 1 3.689-1.01 3.776 3.776 0 0 1-.453-.349c-.663-.554-1.237-1.358-1.69-2.336m7.157 4.14c-.188.207-.52.326-1.005.326-.84 0-2.21-.25-3.314-.804-1.9.207-3.313.457-4.45.815-.056.022-.122.044-.2.076-1.369 2.304-2.385 3.337-3.28 3.337-.176 0-.353-.044-.485-.12l-.53-.337-.034-.054a.972.972 0 0 1-.055-.587c.122-.576.751-1.489 2.077-2.304.21-.152.54-.326.982-.532.332-.565.685-1.228 1.06-1.957.564-1.119.917-2.227 1.193-3.184v-.01c-.408-1.316-.651-2.109-.242-3.554.099-.413.463-.837.872-.837h.265a.95.95 0 0 1 .674.26c.729.718.386 2.468.022 3.913-.022.065-.033.12-.044.152.441 1.228 1.071 2.217 1.767 2.782.287.218.607.435.96.63.498-.054.972-.075 1.425-.075 1.37 0 2.198.239 2.518.75.11.173.166.38.133.597-.011.272-.11.522-.31.717m1.204-12.769H4.255c-1.226 0-2.21.967-2.21 2.174v15.214a2.209 2.173 0 0 0 2.21 2.174h15.461a2.209 2.173 0 0 0 2.21-2.174V4.451c0-1.207-.995-2.174-2.21-2.174M18.06 14.275c-.11-.109-.552-.38-2.099-.38-.077 0-.154 0-.254.108.807.348 1.59.554 2.099.554.077 0 .143-.01.21-.021h.044c.055-.022.088-.033.1-.142-.023-.032-.045-.076-.1-.12M7.932 15.862c-.232.13-.42.25-.53.337-.784.707-1.28 1.424-1.336 1.837.497-.163 1.148-.88 1.866-2.174m3.336-7.509.055-.043c.077-.348.11-.652.177-.892l.033-.173c.11-.62.088-.935-.1-1.196l-.165-.054a1.38 1.38 0 0 0-.078.13c-.187.457-.176 1.25.078 2.228z"/></svg>