<svg viewBox="0 0 16 16" width="16" height="16" xmlns="http://www.w3.org/2000/svg"><path fill="#fff" d="M10.196 9.206q1.069-.146 2.034-.156c.874-.01 2.413.17 2.837 1.134q.224.502-.105 1.05c-.245.406-.66.616-1.141.655-1.469.122-2.907-.627-3.996-1.594q-.026-.023-.06-.016-1.57.307-3.358.905-.135.044-.176.117-.663 1.177-1.496 2.237-.683.867-1.551 1.371c-.74.43-1.95.335-2.299-.59-.595-1.58 2.574-3.011 3.6-3.465q.23-.1.36-.352Q5.96 8.381 6.699 6.094q.026-.082-.021-.194-.296-.716-.49-1.468c-.202-.776-.388-2.197.091-2.92Q6.747.807 7.602.987q.343.073.595.302c.794.724.699 1.945.574 2.942q-.139 1.105-.518 2.235-.05.149.046.316c.483.832 1.109 1.78 1.838 2.404q.025.022.06.018zM7.637 2.442c-.005-.223-.008-.465-.144-.575-.346-.276-.602.156-.633.46q-.138 1.358.345 2.642.011.03.022 0 .44-1.225.41-2.527zM9.006 9.42a.019.02 0 0 0 .01-.033q-.67-.71-1.178-1.544-.022-.036-.035.004-.365 1.057-.827 2.075-.015.03.018.023zm4.7 1.186c.24-.777-1.017-.8-1.443-.795q-.77.01-1.52.119a.014.012 67.834 0 0-.003.024q.911.681 2.004.988c.333.094.844.05.963-.336zM1.834 14.242c.743.277 2.132-1.78 2.463-2.33q.038-.063-.028-.036-1.136.48-2.12 1.29c-.2.164-.814.889-.315 1.076z" style="stroke-width:.0664727"/></svg>