<svg xmlns="http://www.w3.org/2000/svg" width="16" height="16" fill="#D73736" fill-rule="evenodd" viewBox="0 0 24 24"><path d="M11.356 10.906c-.254.804-.618 1.663-1.115 2.608-.221.413-.464.804-.553 1.13l.122-.043a21.102 21.102 0 013.689-1.01 3.776 3.776 0 01-.453-.349c-.663-.554-1.237-1.358-1.69-2.336m7.157 4.14c-.188.207-.52.326-1.005.326-.84 0-2.21-.25-3.314-.804-1.9.207-3.313.457-4.45.815-.056.022-.122.044-.2.076-1.369 2.304-2.385 3.337-3.28 3.337-.176 0-.353-.044-.485-.12l-.53-.337-.034-.054a.972.972 0 01-.055-.587c.122-.576.751-1.489 2.077-2.304.21-.152.54-.326.982-.532.332-.565.685-1.228 1.06-1.957.564-1.119.917-2.227 1.193-3.184v-.01c-.408-1.316-.651-2.109-.242-3.554.099-.413.463-.837.872-.837h.265a.95.95 0 01.674.26c.729.718.386 2.468.022 3.913-.022.065-.033.12-.044.152.441 1.228 1.071 2.217 1.767 2.782.287.218.607.435.96.63.498-.054.972-.075 1.425-.075 1.37 0 2.198.239 2.518.75.11.173.166.38.133.597-.011.272-.11.522-.31.717m1.204-12.769H4.255c-1.226 0-2.21.967-2.21 2.174v15.214a2.209 2.173 0 002.21 2.174h15.461a2.209 2.173 0 002.21-2.174V4.451c0-1.207-.995-2.174-2.21-2.174M18.06 14.275c-.11-.109-.552-.38-2.099-.38-.077 0-.154 0-.254.108.807.348 1.59.554 2.099.554.077 0 .143-.01.21-.021h.044c.055-.022.088-.033.1-.142-.023-.032-.045-.076-.1-.12M7.932 15.862c-.232.13-.42.25-.53.337-.784.707-1.28 1.424-1.336 1.837.497-.163 1.148-.88 1.866-2.174m3.336-7.509l.055-.043c.077-.348.11-.652.177-.892l.033-.173c.11-.62.088-.935-.1-1.196l-.165-.054a1.38 1.38 0 00-.078.13c-.187.457-.176 1.25.078 2.228z" stroke-width="1.096"/><path d="M5.964 18.738a2.743 2.743 0 01-.426-.231c-.294-.187-.305-.198-.347-.34-.084-.283-.034-.551.174-.943.41-.771 1.397-1.624 2.533-2.19l.33-.164.127-.22c.455-.792 1.05-1.948 1.296-2.52.21-.487.45-1.15.656-1.818l.182-.588-.055-.178c-.277-.896-.366-1.318-.39-1.854-.02-.449.02-.81.148-1.338.088-.362.18-.549.367-.746.218-.23.363-.282.76-.267.263.01.345.024.464.082.287.139.486.414.597.828.082.302.09 1.079.015 1.57a19.594 19.594 0 01-.305 1.504l-.083.333.132.332c.245.615.628 1.304.98 1.76.326.422.776.805 1.377 1.175l.227.14.482-.034c.918-.065 1.769-.036 2.332.08.92.188 1.359.638 1.261 1.293-.041.278-.126.454-.306.635-.266.267-.68.36-1.363.303a8.304 8.304 0 01-2.574-.627l-.38-.157-.386.044c-.772.088-1.781.24-2.425.366-.673.13-1.707.406-1.808.48a6.492 6.492 0 00-.309.47c-.92 1.479-1.69 2.362-2.343 2.693-.322.162-.675.21-.94.127zm.407-.854c.394-.264.869-.836 1.328-1.6.123-.206.224-.386.224-.401 0-.034-.21.085-.45.254-.218.153-.7.656-.952.99-.2.267-.395.614-.444.793-.026.097-.023.109.024.109.03 0 .15-.065.27-.145zm3.801-3.4a21.98 21.98 0 012.869-.792c.246-.05.452-.095.456-.1a1.712 1.712 0 00-.217-.176 7.018 7.018 0 01-1.062-1.075 8.623 8.623 0 01-.697-1.135c-.079-.159-.151-.29-.162-.29-.01 0-.055.107-.098.238-.221.669-.645 1.62-1.092 2.45-.357.666-.527 1.042-.47 1.042.01 0 .223-.073.473-.162zm7.931.045c.081-.043.07-.162-.023-.25-.25-.235-.972-.385-1.85-.385-.322 0-.413.01-.467.047-.037.025-.056.057-.043.07.082.082.981.379 1.441.477.341.072.843.094.942.041zM11.45 7.72c.186-.924.2-1.318.056-1.575-.08-.142-.212-.184-.288-.09-.1.123-.157.454-.155.9.001.437.028.66.133 1.136.052.232.07.277.1.246.021-.02.09-.298.154-.617z" fill="#f9f9f9" stroke="#e6e6e6" stroke-width=".003"/></svg>