<svg version="1.1" viewBox="0 0 16 16" width="16px" height="16px" xmlns="http://www.w3.org/2000/svg"><g transform="matrix(0.087495, 0, 0, 0.0875, -5.788737, -2.9375)"><g><path d="M237.6 95L187.6 95L187.6 45L237.6 45L237.6 95Z" transform="matrix(1, 0, 0, 1, 0, 0)" opacity="1" fill="#f9ad00" fill-opacity="1"></path></g><g><path d="M182.59 95L132.59 95L132.59 45L182.59 45L182.59 95Z" transform="matrix(1, 0, 0, 1, 0, 0)" opacity="1" fill="#f9ad00" fill-opacity="1"></path></g><g><path d="M127.59 95L77.59 95L77.59 45L127.59 45L127.59 95Z" transform="matrix(1, 0, 0, 1, 0, 0)" opacity="1" fill="#f9ad00" fill-opacity="1"></path></g><g><path d="M237.6 150L187.6 150L187.6 100L237.6 100L237.6 150Z" transform="matrix(1, 0, 0, 1, 0, 0)" opacity="1" fill="#f9ad00" fill-opacity="1"></path></g><g><path d="M182.59 150L132.59 150L132.59 100L182.59 100L182.59 150Z" transform="matrix(1, 0, 0, 1, 0, 0)" opacity="1" fill="#4e4e4e" fill-opacity="1"></path></g><g><path d="M182.59 205L132.59 205L132.59 155L182.59 155L182.59 205Z" transform="matrix(1, 0, 0, 1, 0, 0)" opacity="1" fill="#4e4e4e" fill-opacity="1"></path></g><g><path d="M237.6 205L187.6 205L187.6 155L237.6 155L237.6 205Z" transform="matrix(1, 0, 0, 1, 0, 0)" opacity="1" fill="#4e4e4e" fill-opacity="1"></path></g><g><path d="M127.59 205L77.59 205L77.59 155L127.59 155L127.59 205Z" transform="matrix(1, 0, 0, 1, 0, 0)" opacity="1" fill="#4e4e4e" fill-opacity="1"></path></g></g></svg>
