<svg xmlns="http://www.w3.org/2000/svg" width="16" height="16" viewBox="0 0 16 16"><path d="M8.943.965c-3.872-.513-7.412 2.289-7.91 6.25-.496 3.96 2.238 7.587 6.11 8.095 3.872.508 7.412-2.29 7.913-6.25.497-3.96-2.237-7.587-6.113-8.095.005 0 .005 0 0 0zm1.456 4.508a.508.508 0 0 0-.348.152L7.427 8.309l-.56-.573c2.581-2.637 3.052-2.663 3.532-2.263zM7.534 8.404l2.615-2.658a.366.366 0 0 1 .624.274.383.383 0 0 1-.123.27L7.886 8.781zm.195.404-.65.17a.03.03 0 0 1-.038 0 .038.038 0 0 1 0-.044l.395-.404zM6.073 8.53l.692-.708.522.548-1.184.26a.047.047 0 0 1-.055-.039c-.005-.017 0-.03.012-.043zM3.93 12.21c-.017-.005-.034-.018-.038-.03a.078.078 0 0 1 0-.049l.556-.573.722.734zm1.427-.76a.141.141 0 0 0-.073.152l.12.52a.084.084 0 0 1-.035.088c-.025.022-.063.022-.085 0l-.721-.76 2.216-2.272 1.074-.234.514.525A14.285 14.285 0 0 1 5.36 11.44v.01zm3.116-2.067-.493-.504 2.764-2.489a.417.417 0 0 0 .072-.078c-.089.808-1.201 1.954-2.343 3.07zm2.156-3.896a1.117 1.117 0 0 1 .034-1.555 1.05 1.05 0 0 1 1.414-.06l-.95.968a.08.08 0 0 0 0 .104l.738.751a1.055 1.055 0 0 1-1.24-.217zm1.516 0c-.05.048-.102.096-.161.135l-.71-.726.905-.925c.39.43.378 1.099-.034 1.516z" fill="#ff6c37" fill-opacity=".9"/></svg>