<svg version="1.0" width="16" height="16" viewBox="0 0 200 200" xmlns="http://www.w3.org/2000/svg"><path fill="#004f91" d="M69.147 5.806C67.76 6.019 64.88 7.3 62.745 8.58c-2.134 1.174-6.722 3.735-10.243 5.548a1797.81 1797.81 0 0 1-12.27 6.616c-8.003 4.268-7.79 5.975 1.6 10.99 4.161 2.134 9.603 5.122 12.27 6.615 2.668 1.387 5.762 3.095 6.936 3.735 6.722 3.414 14.511 7.576 28.809 15.258 4.161 2.24 10.99 5.868 15.365 8.216 4.374 2.24 9.283 5.335 10.99 6.935l2.987 2.775v27.101c0 27.85.534 31.904 4.482 32.65 1.494.32 14.938-6.295 34.997-17.178l6.936-3.841.32-29.983c.213-28.809.107-30.196-1.92-33.077-1.174-1.707-3.522-3.735-5.122-4.588-7.896-4.055-23.58-12.484-27.422-14.618-2.347-1.387-9.07-4.908-14.938-8.003-11.417-5.868-21.98-11.523-28.596-15.364-4.16-2.348-13.764-3.628-18.779-2.561z"/><path fill="#00a3e2" d="M53.035 62.677c-.746 1.494-1.067 18.886-.853 54.95l.32 52.817 2.667 2.56c3.308 3.095 36.385 20.914 39.053 20.914.64 0 1.92-.854 2.987-2.027 1.6-1.814 1.707-6.509 1.494-55.058l-.32-53.03-3.414-2.88c-1.814-1.494-7.683-5.015-12.911-7.79a1712.697 1712.697 0 0 0-16.752-8.749c-8.11-4.375-10.67-4.695-12.27-1.707z"/></svg>