<svg width="16" height="16" viewBox="0 0 1500 1500" xmlns="http://www.w3.org/2000/svg"><path d="M219.513 192.146h1066.014c28.854 0 52.244 23.391 52.244 52.245s-23.39 52.244-52.244 52.244H219.513c-28.853 0-52.244-23.39-52.244-52.244s23.39-52.245 52.244-52.245z" fill="#696969"/><path d="M228.805 86.42h214.338v49.463H228.805z" fill="#009fe3"/><path d="M509.093 86.42H723.43v49.463H509.093z" fill="#c7d302"/><path d="M785.67 86.42h214.338v49.463H785.67Z" fill="#f07e16"/><path d="M1061.079 86.42h214.338v49.463h-214.338zm0 264.624h214.338v362.312h-214.338z" fill="#df2815"/><path d="M785.67 351.044h214.736v588.602H785.67Z" fill="#f07e16"/><path d="M509.093 351.044h214.323v881.667H509.093z" fill="#c7d302"/><path d="M228.805 351.044h214.338v1074.57H228.805z" fill="#009fe3"/></svg>