<svg xmlns="http://www.w3.org/2000/svg" aria-hidden="true" width="16" viewBox="0 0 16 16" class="octicon octicon-book mr-2" height="16"><path fill="#7dccfc" d="M1.137 2.852a.642.655 0 0 1 .642-.655h3.64c1.05 0 1.984.515 2.569 1.311a3.205 3.271 0 0 1 2.57-1.311h3.634a.642.655 0 0 1 .642.655v9.174a.642.655 0 0 1-.642.655h-3.858a1.926 1.966 0 0 0-1.362.576l-.532.542a.642.655 0 0 1-.908 0L7 13.257a1.926 1.966 0 0 0-1.362-.576h-3.86a.642.655 0 0 1-.641-.655zM8.63 5.473a1.926 1.966 0 0 1 1.926-1.966h2.992v7.863h-3.216c-.608 0-1.198.176-1.705.5zm-1.287 6.399.003-4.432-.001-1.969A1.926 1.966 0 0 0 5.42 3.507h-3v7.863h3.217a3.21 3.276 0 0 1 1.707.502z" fill-rule="evenodd"/></svg>