<!--Copyright 2000-2022 JetBrains s.r.o. and contributors. Use of this source code is governed by the Apache 2.0 license.--><svg width="16" height="16" viewBox="0 0 16 16" fill="none" xmlns="http://www.w3.org/2000/svg"><path d="M14.451 11.252c-.747.39-4.617 1.981-5.441 2.41-.824.43-1.282.426-1.933.115-.65-.311-4.77-1.975-5.511-2.33-.37-.177-.566-.326-.566-.467V9.563s5.362-1.167 6.228-1.477c.865-.311 1.166-.322 1.902-.052.737.27 5.142 1.064 5.87 1.33v1.396c0 .14-.168.293-.549.491Z" fill="#A42122"/><path d="M14.451 9.837c-.747.389-4.617 1.98-5.441 2.41-.824.43-1.282.425-1.933.114-.65-.31-4.77-1.975-5.511-2.33-.742-.354-.757-.598-.029-.883.729-.286 4.825-1.893 5.69-2.203.866-.31 1.167-.322 1.903-.052.737.27 4.584 1.801 5.312 2.068.728.266.756.486.01.876Z" fill="#D82F27"/><path d="M14.451 8.945c-.747.389-4.617 1.98-5.441 2.41-.824.43-1.282.425-1.933.114-.65-.311-4.77-1.975-5.511-2.33C1.196 8.963 1 8.814 1 8.673V7.256S6.362 6.09 7.228 5.78c.865-.31 1.166-.322 1.902-.052.737.27 5.142 1.064 5.87 1.33v1.396c0 .14-.168.293-.549.492Z" fill="#A42122"/><path d="M14.451 7.53c-.747.389-4.617 1.98-5.441 2.41-.824.43-1.282.425-1.933.114-.65-.311-4.77-1.975-5.511-2.33-.742-.354-.757-.598-.029-.884.729-.285 4.825-1.892 5.69-2.203.866-.31 1.167-.321 1.903-.052.737.27 4.584 1.801 5.312 2.068.728.267.756.487.01.876Z" fill="#D82F27"/><path d="M14.451 6.551c-.747.39-4.617 1.981-5.441 2.41-.824.43-1.282.426-1.933.115-.65-.311-4.77-1.975-5.511-2.33C1.196 6.57 1 6.42 1 6.28V4.863s5.362-1.167 6.228-1.477c.865-.311 1.166-.322 1.902-.052.737.27 5.142 1.064 5.87 1.33V6.06c0 .14-.168.293-.549.491Z" fill="#A42122"/><path d="M14.451 5.136c-.747.39-4.617 1.98-5.441 2.41-.824.43-1.282.426-1.933.115-.65-.311-4.77-1.975-5.511-2.33-.742-.354-.757-.598-.029-.884.73-.285 4.825-1.892 5.69-2.203.866-.31 1.167-.322 1.903-.052.737.27 4.584 1.801 5.312 2.068.728.267.756.487.01.876Z" fill="#D82F27"/><path d="M9.834 3.773 8.621 3.9l-.271.654-.439-.73-1.4-.125 1.045-.377-.314-.579.979.383.922-.302-.25.598.941.352Zm-1.557 3.17-2.264-.939 3.244-.498-.98 1.437ZM5.139 5.48c.957 0 1.733-.3 1.733-.672 0-.37-.776-.672-1.733-.672-.958 0-1.734.301-1.734.672 0 .372.776.672 1.734.672Z" fill="#fff"/><path d="m11.268 3.952 1.92.758-1.918.758-.002-1.516Z" fill="#791514"/><path d="m9.144 4.792 2.124-.84.002 1.516-.209.082-1.917-.758Z" fill="#AD2524"/></svg>