<svg xmlns="http://www.w3.org/2000/svg" width="16" height="16" viewBox="0 0 16 16"><path style="stroke:none;fill-rule:nonzero;fill:#bfbfbf;fill-opacity:1" d="M2.215 7.938c.3-.981.844-1.84 1.55-2.528-.238-.164-1.183-.832-1.226-1.355-.07-.86.875-3.75.875-3.75S.554 3.469.36 4.746c-.16 1 1.649 2.992 1.84 3.191Zm11.629-.055v.008c0 .004.004.007.004.011.316-.343 1.953-2.199 1.804-3.156C15.453 3.47 12.594.305 12.594.305s.949 2.89.879 3.75c-.04.504-.903 1.133-1.188 1.328a5.897 5.897 0 0 1 1.559 2.5Zm0 0"/><path style="stroke:none;fill-rule:nonzero;fill:#566366;fill-opacity:1" d="M13.844 7.887v-.008a5.945 5.945 0 0 0-1.559-2.5 6.16 6.16 0 0 0-4.254-1.703V7.09h.004c.402.004.723.3.723.664a.618.618 0 0 1-.012.125c-.062.305-.355.539-.71.543h-.013v1.265l-.007 6h.14s1.535-2.019 2.367-2.597c.97-.676 3.32-1.512 3.32-1.512V7.93l.012-.004c-.003-.008-.003-.02-.007-.028 0-.003 0-.007-.004-.011Zm0 0"/><path style="stroke:none;fill-rule:nonzero;fill:#7d9199;fill-opacity:1" d="M8.023 9.691V8.426c-.335-.004-.613-.211-.699-.489a.69.69 0 0 1-.027-.18c0-.366.324-.663.73-.663h.004V3.69a6.12 6.12 0 0 0-4.265 1.72 5.937 5.937 0 0 0-1.551 2.527h-.012v3.695s2.352.836 3.32 1.512c.805.562 2.36 2.55 2.36 2.55h.144v-.004H8.02Zm0 0"/><path style="stroke:none;fill-rule:nonzero;fill:#fff;fill-opacity:1" d="M7.297 7.758c0 .062.008.12.027.18.086.277.364.484.7.488h.011c.352-.004.649-.239.711-.543a.618.618 0 0 0 .012-.125c0-.363-.32-.66-.723-.664h-.008c-.406 0-.73.297-.73.664Zm0 0"/></svg>