<?xml version="1.0" encoding="UTF-8"?>
<svg xmlns="http://www.w3.org/2000/svg" width="16px" height="16px" viewBox="0 0 16 16" version="1.1">
<g id="surface1">
<path style=" stroke:none;fill-rule:nonzero;fill:rgb(74.901961%,74.901961%,74.901961%);fill-opacity:1;" d="M 2.214844 7.9375 C 2.515625 6.957031 3.058594 6.097656 3.765625 5.410156 C 3.527344 5.246094 2.582031 4.578125 2.539062 4.054688 C 2.46875 3.195312 3.414062 0.304688 3.414062 0.304688 C 3.414062 0.304688 0.554688 3.46875 0.359375 4.746094 C 0.199219 5.746094 2.007812 7.738281 2.199219 7.9375 Z M 13.84375 7.882812 L 13.84375 7.890625 C 13.84375 7.894531 13.847656 7.898438 13.847656 7.902344 C 14.164062 7.558594 15.800781 5.703125 15.652344 4.746094 C 15.453125 3.46875 12.59375 0.304688 12.59375 0.304688 C 12.59375 0.304688 13.542969 3.195312 13.472656 4.054688 C 13.433594 4.558594 12.570312 5.1875 12.285156 5.382812 C 12.992188 6.058594 13.539062 6.910156 13.84375 7.882812 Z M 13.84375 7.882812 "/>
<path style=" stroke:none;fill-rule:nonzero;fill:rgb(33.72549%,38.823529%,40%);fill-opacity:1;" d="M 13.84375 7.886719 L 13.84375 7.878906 C 13.539062 6.910156 12.992188 6.058594 12.285156 5.378906 C 11.171875 4.316406 9.660156 3.675781 8.03125 3.675781 L 8.03125 7.089844 L 8.035156 7.089844 C 8.4375 7.09375 8.757812 7.390625 8.757812 7.753906 C 8.757812 7.800781 8.753906 7.839844 8.746094 7.878906 C 8.683594 8.183594 8.390625 8.417969 8.035156 8.421875 L 8.023438 8.421875 L 8.023438 9.6875 L 8.015625 15.6875 L 8.15625 15.6875 C 8.15625 15.6875 9.691406 13.667969 10.523438 13.089844 C 11.492188 12.414062 13.84375 11.578125 13.84375 11.578125 L 13.84375 7.929688 L 13.855469 7.925781 C 13.851562 7.917969 13.851562 7.90625 13.847656 7.898438 C 13.847656 7.894531 13.847656 7.890625 13.84375 7.886719 Z M 13.84375 7.886719 "/>
<path style=" stroke:none;fill-rule:nonzero;fill:rgb(49.019608%,56.862745%,60%);fill-opacity:1;" d="M 8.023438 9.691406 L 8.023438 8.425781 C 7.6875 8.421875 7.410156 8.214844 7.324219 7.9375 C 7.308594 7.878906 7.296875 7.820312 7.296875 7.757812 C 7.296875 7.390625 7.621094 7.09375 8.027344 7.09375 L 8.03125 7.09375 L 8.03125 3.691406 C 6.394531 3.691406 4.878906 4.332031 3.765625 5.410156 C 3.058594 6.09375 2.515625 6.957031 2.214844 7.9375 L 2.203125 7.9375 L 2.203125 11.632812 C 2.203125 11.632812 4.554688 12.46875 5.523438 13.144531 C 6.328125 13.707031 7.882812 15.695312 7.882812 15.695312 L 8.027344 15.695312 L 8.027344 15.691406 L 8.019531 15.691406 Z M 8.023438 9.691406 "/>
<path style=" stroke:none;fill-rule:nonzero;fill:rgb(100%,100%,100%);fill-opacity:1;" d="M 7.296875 7.757812 C 7.296875 7.820312 7.304688 7.878906 7.324219 7.9375 C 7.410156 8.214844 7.6875 8.421875 8.023438 8.425781 L 8.035156 8.425781 C 8.386719 8.421875 8.683594 8.1875 8.746094 7.882812 C 8.753906 7.84375 8.757812 7.804688 8.757812 7.757812 C 8.757812 7.394531 8.4375 7.097656 8.035156 7.09375 L 8.027344 7.09375 C 7.621094 7.09375 7.296875 7.390625 7.296875 7.757812 Z M 7.296875 7.757812 "/>
</g>
</svg>
