<svg xmlns="http://www.w3.org/2000/svg" version="1.0" width="16" height="16" viewBox="0 0 200 200"><path d="M90.58 189.197c-12.097-1.282-25.759-5.983-36.415-12.532-17.553-10.787-30.95-27.748-37.734-47.776-2.624-7.744-3.568-12.738-4.07-21.537-.976-17.107 1.37-30.11 7.941-44.014 12.107-25.618 35.3-43.844 62.955-49.472 24.298-4.946 49.917 1.028 70.42 16.42 4.733 3.554 13.223 12.025 16.711 16.674a90.638 90.638 0 0 1 17.494 43.34c.676 5.483.553 17.317-.238 22.845-3.787 26.46-19.075 49.601-42.385 64.158-15.215 9.501-35.538 13.922-54.68 11.895zm59.97-30.52c1.652-.694 6.323-4.94 8.026-7.296 1.543-2.134 1.562-4.072.071-7.132-.883-1.814-3.608-4.822-12.249-13.524-6.112-6.155-11.924-11.696-12.915-12.313-1.981-1.232-5.255-1.515-7.685-.663-1.705.597-3.246-.184-5.546-2.81-2.02-2.308-2.503-3.791-1.656-5.092.333-.51 6.25-6.736 13.149-13.834 6.899-7.098 13.256-13.946 14.126-15.216 3.325-4.853 2.573-7.063-5.02-14.747-6.266-6.34-8.494-7.86-11.524-7.86-2.816 0-5.911 1.495-6.116 2.954-.187 1.332.662 2.896 2.151 3.962 1.046.749 1.36.786 2.652.316 1.356-.493 1.6-.44 3.228.694 1.887 1.314 10.22 9.883 10.22 10.51 0 .474-5.61 6.472-15.806 16.896-13.306 13.602-14.342 15.007-13.912 18.844.218 1.948 1.182 3.497 4.945 7.946 2.13 2.52 2.258 2.797 1.943 4.227-.186.842-.35 2.693-.364 4.114-.032 3.194.32 3.712 8.283 12.177 10.864 11.55 19.012 18.431 21.826 18.431.43 0 1.408-.263 2.173-.584zM81.6 122.11c8.407-7.49 46.654-46.18 46.654-47.195 0-.645-10.796-11.7-12.768-13.074-1.648-1.149-1.741-1.164-2.806-.463-3.894 2.565-47.712 46.604-50.262 50.515-.72 1.105-.707 1.15 1.002 3.367 3.47 4.502 10.897 11.025 12.552 11.025.587 0 2.707-1.572 5.628-4.175zm-6.176-30.324L92.68 74.417l-3.964-3.724-3.964-3.724 4.283-4.274 4.283-4.274 3.836 3.837 3.835 3.838 4.473-4.48c2.46-2.465 4.473-4.707 4.473-4.981 0-.505-23.989-24.22-24.797-24.514-.24-.088-2.427 1.836-4.862 4.275L75.85 40.83l4.269 4.305 4.268 4.305-4.265 4.264-4.266 4.263 4.365 4.425 4.364 4.425-4.215 4.038c-2.319 2.22-4.342 4.037-4.498 4.037-.155 0-3.998-3.767-8.54-8.37l-8.258-8.37 4.341-4.379 4.34-4.378-4.367-4.356-4.367-4.356-2.402 2.12c-1.32 1.165-3.314 3.193-4.43 4.506l-2.029 2.387 4.21 4.247 4.21 4.247-4.248 4.284-4.246 4.285 8.409 8.46c4.624 4.653 8.408 8.657 8.408 8.896 0 .404-4.487 4.959-6.727 6.829l-.976.815-4.27-4.258-4.269-4.258-4.247 4.407c-3.776 3.917-4.187 4.492-3.702 5.18.827 1.175 14.958 16.324 15.226 16.324.13 0 7.999-7.816 17.488-17.369zm-36.01-19.918c-1.637-1.67-3.676-3.6-4.531-4.29l-1.555-1.254-4.29 4.392-4.29 4.391 4.349 4.393 4.348 4.392 4.472-4.495 4.472-4.495z" fill="#20409a"/><path d="M72.867 123.985c-2.781-2.22-9.46-9.071-10.177-10.442-.465-.888-.142-1.356 4.132-5.995 11.717-12.72 41.003-41.905 45.535-45.38l1.414-1.083 2.388 1.852c3.249 2.52 11.233 11.124 11.239 12.112.003.488-8.58 9.429-22.044 22.961-21.581 21.692-28.093 27.846-29.463 27.846-.374 0-1.735-.842-3.024-1.87zM51.672 101.98c-3.263-3.474-6.617-7.083-7.453-8.02l-1.52-1.704 3.9-4.133 3.9-4.132 4.367 4.33 4.367 4.329 4.263-4.27 4.263-4.268-8.587-8.64-8.587-8.639 4.093-4.214 4.092-4.215 8.65 8.672 8.649 8.672 4.263-4.286 4.263-4.285 3.737 3.774 3.738 3.774-16.82 16.786c-9.25 9.232-17.004 16.786-17.232 16.786-.227 0-3.083-2.842-6.346-6.317zm3.194-48.37-4.155-4.216 4.04-4.044 4.04-4.043 3.999 3.837c2.2 2.111 4.024 3.952 4.056 4.091.03.14-1.717 2.129-3.885 4.421l-3.94 4.169zm-25.532 25.4-4.123-3.982 4.13-4.137 4.132-4.137 4.023 4.062 4.024 4.061-1.47 1.614c-3.201 3.516-6.152 6.537-6.367 6.52-.125-.01-2.082-1.81-4.35-4.001zm51.203-16.751-4.032-4.07 4.146-4.183c2.28-2.3 4.146-4.316 4.146-4.48 0-.163-1.82-2.183-4.044-4.489-2.225-2.306-4.046-4.301-4.048-4.435-.006-.395 7.943-8.108 8.357-8.108.209 0 5.841 5.492 12.517 12.205l12.137 12.206-4.337 4.36-4.337 4.359-3.899-3.994-3.898-3.994-4.339 4.346-4.338 4.346z" fill="#ffc300"/><path d="M144.44 156.837c-2.89-1.937-23.914-22.963-24.881-24.882-.804-1.595-.929-3.226-.49-6.383.366-2.627.157-3.101-3.182-7.21-3.053-3.758-3.418-4.477-3.465-6.824-.064-3.188.965-4.452 18.496-22.73 6.034-6.29 10.97-11.762 10.97-12.158 0-.695-9.827-10.897-11.288-11.718-.395-.222-1.536-.28-2.537-.13-1.7.257-1.908.174-3.157-1.257-1.503-1.72-1.494-1.692-.92-2.769.99-1.859 6.13-2.32 9.08-.814 2.372 1.211 11.853 10.774 13.072 13.185 1.398 2.768 1.043 4.946-1.304 8.004-1.016 1.324-5.881 6.576-10.812 11.671-14.141 14.615-16.419 17.136-16.417 18.174.004 1.861 2.965 5.804 5.267 7.012 1.041.546 1.619.561 3.92.102 4.123-.824 5.37-.278 10.776 4.718 6.663 6.158 18.124 18.097 19.858 20.684 2.732 4.078 2.012 6.799-3.05 11.528-4.145 3.873-6.268 4.257-9.936 1.797z" fill="#fff"/></svg>