<svg width="16" height="16" viewBox="0 0 16 16" fill="none" xmlns="http://www.w3.org/2000/svg"><path fill-rule="evenodd" clip-rule="evenodd" d="m3.957 5.574 1.132 1.132-1.617 1.617a2.973 2.973 0 1 0 4.205 4.205l1.617-1.617 1.132 1.132-1.617 1.617a4.574 4.574 0 0 1-6.47-6.469l1.618-1.617Zm1.617-1.617L7.191 2.34a4.574 4.574 0 0 1 6.47 6.469l-1.618 1.617-1.132-1.132 1.617-1.617a2.973 2.973 0 0 0-4.205-4.205L6.706 5.089 5.574 3.957Zm-.566 5.765 4.71-4.71 1.274 1.272-4.71 4.71-1.274-1.272Z" fill="#FFC900"/><path style="fill:#40a0cf" d="m11.473 9.852-.556-.556.922-.926c.989-.993 1.05-1.064 1.247-1.458.238-.473.328-.896.309-1.454a2.675 2.675 0 0 0-.282-1.164A2.962 2.962 0 0 0 10.427 2.6c-.497 0-.904.096-1.348.318-.38.19-.457.257-1.449 1.244l-.926.921-.56-.56-.561-.561.863-.865a34.99 34.99 0 0 1 1.046-1.019 4.637 4.637 0 0 1 2.302-1.026c.305-.047.96-.047 1.266 0a4.571 4.571 0 0 1 3.789 3.399c.103.407.133.654.133 1.122 0 .445-.025.674-.117 1.065a4.8 4.8 0 0 1-.554 1.332c-.245.397-.371.539-1.33 1.502-.512.515-.936.936-.942.936-.006 0-.26-.25-.566-.556z"/><path style="fill:#9aa7b0" d="m5.645 10.355-.628-.629 2.35-2.35 2.35-2.35.628.629.629.628-2.35 2.35-2.35 2.35Z"/></svg>