<svg width="16" height="16" viewBox="0 0 16 16" fill="none" xmlns="http://www.w3.org/2000/svg"><path fill-rule="evenodd" clip-rule="evenodd" d="m3.957 5.574 1.132 1.132-1.617 1.617a2.973 2.973 0 1 0 4.205 4.205l1.617-1.617 1.132 1.132-1.617 1.617a4.574 4.574 0 0 1-6.47-6.469l1.618-1.617Zm1.617-1.617L7.191 2.34a4.574 4.574 0 0 1 6.47 6.469l-1.618 1.617-1.132-1.132 1.617-1.617a2.973 2.973 0 0 0-4.205-4.205L6.706 5.089 5.574 3.957Zm-.566 5.765 4.71-4.71 1.274 1.272-4.71 4.71-1.274-1.272Z" fill="#9AA7B0"/><path fill="#40A0CF" fill-opacity=".9" d="M11.491 6.878c-.35 0-.701.03-1.047.089-.928.162-1.097.501-1.097 1.127v.827h2.193v.275H8.524a1.366 1.366 0 0 0-1.37 1.1 4.011 4.011 0 0 0 0 2.204c.06.606.558 1.075 1.166 1.1h.754v-.991a1.386 1.386 0 0 1 1.37-1.347h2.19a1.099 1.099 0 0 0 1.096-1.103V8.094a1.217 1.217 0 0 0-1.096-1.127 6.913 6.913 0 0 0-1.143-.089Zm-1.186.665a.413.413 0 1 1 .004.827.413.413 0 0 1-.004-.827Z"/><path fill="#FFC900" fill-opacity=".9" d="M14.004 9.196v.963a1.399 1.399 0 0 1-1.37 1.376h-2.19a1.112 1.112 0 0 0-1.097 1.102v2.065a1.27 1.27 0 0 0 1.097 1.102c.713.22 1.476.22 2.19 0a1.251 1.251 0 0 0 1.096-1.102v-.827h-2.19V13.6h3.286c.638 0 .875-.44 1.097-1.1a3.683 3.683 0 0 0 0-2.204 1.17 1.17 0 0 0-1.097-1.1h-.822Zm-1.232 5.23a.413.413 0 1 1 .003.827.413.413 0 0 1-.003-.827Z"/></svg>