<svg width="16" height="16" viewBox="0 0 16 16" xmlns="http://www.w3.org/2000/svg"><path fill="#ff5e5b" d="M9.402 6.134c-1.3-2.162 1-4.468 3.556-3.438 3.073 1.238.626 4.352-.634 5.78q-.52.586-1.093.032-.978-.956-1.829-2.374zm3.255-1.355a.928.785 0 0 0-.928-.785.928.785 0 0 0-.929.785.928.785 0 0 0 .929.786.928.785 0 0 0 .928-.786z" style="stroke-width:.502193"/><path fill="#88a84e" d="m3.932 4.77-.066 7.484a.186.157 0 0 1-.103.14L.711 13.676a.186.157 0 0 1-.267-.138L.526 6.04a.186.157 0 0 1 .103-.137l3.036-1.271a.186.157 0 0 1 .267.139zm3.8 1.183-.016 7.198q0 .12.147.12h.142q.23 0 .23-.195v-7.11q.146-.11.3-.147.266-.064.393.144.78 1.297 1.741 2.508c.983 1.238.879 2.101.753 3.483q-.022.236-.24.384-3.264 2.267-6.447 0-.213-.153-.213-.39l-.006-7.144a.18.152 0 0 1 .262-.133zm7.737 7.461q0 .373-.4.208l-2.723-1.137a.633.531.637 0 1-.35-.475l-.006-2.246q-.006-.25.153-.462L14.6 5.976a.389.463 88.347 0 1 .852.203z" style="stroke-width:.502193"/></svg>