<svg xmlns="http://www.w3.org/2000/svg" version="1.0" viewBox="0 0 16 16" height="16" width="16"><path stroke-width=".64" fill="#ff5722" d="M7.864 1.388A1.216 1.344 0 019.08 2.733c0 .497-.243.934-.608 1.162v.854h.608a4.258 4.705 0 014.258 4.704h.608a.608.672 0 01.608.672v2.016a.608.672 0 01-.608.672h-.608v.673a1.216 1.344 0 01-1.216 1.344H3.607a1.216 1.344 0 01-1.217-1.344v-.673h-.608a.608.672 0 01-.609-.672v-2.015a.608.672 0 01.609-.673h.608A4.258 4.705 0 016.648 4.75h.608v-.854a1.207 1.333 0 01-.608-1.162 1.216 1.344 0 011.217-1.345M5.127 8.78a1.52 1.68 0 00-1.52 1.681 1.52 1.68 0 001.52 1.68 1.52 1.68 0 001.52-1.68 1.52 1.68 0 00-1.52-1.68m5.474 0a1.52 1.68 0 00-1.52 1.68 1.52 1.68 0 001.52 1.68 1.52 1.68 0 001.522-1.68 1.52 1.68 0 00-1.522-1.68z"/></svg>