<svg xmlns="http://www.w3.org/2000/svg" width="16" height="16" viewBox="0 0 16 16" version="1.0"><g fill="#86b918"><path d="M3.932 1.712c-.225.07-1.943 1.775-2.11 2.096-.116.214-.116.23-.131 4.138-.01 3.465-.006 3.962.068 4.218.078.268.162.375.906 1.145.471.491.932.92 1.084 1.01l.262.155h3.954c3.744 0 3.964-.005 4.163-.101.131-.065.56-.466 1.131-1.054.896-.925.927-.967.99-1.25.042-.215.053-1.353.042-4.17-.016-3.856-.016-3.877-.13-4.09-.058-.118-.52-.626-1.022-1.129-.723-.727-.948-.925-1.12-.973-.289-.085-7.815-.08-8.087.005zm7.688 1.342c.079.043.403.348.728.685.45.47.592.647.618.79.016.103.026 1.77.016 3.706l-.016 3.518-.686.69-.686.695H4.388l-.686-.696-.686-.69L3 8.183c-.005-1.963 0-3.63.016-3.706.036-.144 1.057-1.235 1.309-1.395.152-.096.325-.102 3.655-.102 2.917 0 3.52.011 3.64.075z"/><path d="M5.613 5.359c-.366.107-.565.235-.843.54-.32.352-.44.663-.445 1.128 0 .363.01.4.162.556.403.411 1.121.117 1.121-.46 0-.22.12-.38.34-.455.157-.053.21-.048.357.038.089.059.183.16.199.235.136.513.183.61.36.733.273.187.593.139.823-.118.152-.166.173-.23.173-.481 0-.476-.173-.861-.545-1.24-.476-.482-1.089-.653-1.702-.476zm4.217.668c-.907.61-1.08.786-1.08 1.096 0 .22.168.481.372.593.304.155.487.086 1.414-.561 1.037-.722 1.178-.92.964-1.342-.126-.24-.325-.374-.582-.374-.199 0-.324.07-1.089.588zM4.728 9.593c-.314.155-.44.641-.246.946.199.305.105.3 3.587.3h3.195l.189-.177c.151-.139.193-.224.21-.412.03-.288-.048-.46-.289-.625l-.178-.123H8.048c-2.801 0-3.168.01-3.32.09z"/></g></svg>