<svg xmlns="http://www.w3.org/2000/svg" width="16" height="16" viewBox="0 0 16 16"><g transform="matrix(.0234 0 0 .02368 -3.666 -3.793)"><linearGradient id="a" gradientUnits="userSpaceOnUse" x1="444.469" y1="526.051" x2="598.469" y2="562.051"><stop offset="0" stop-color="#FF6533"/><stop offset=".157" stop-color="#FF5633"/><stop offset=".434" stop-color="#FF4333"/><stop offset=".714" stop-color="#FF3733"/><stop offset="1" stop-color="#F33"/></linearGradient><path d="M721 410c0-33.6-8.8-65.1-24.3-92.4-41.1-42.3-130.5-52.1-152.7-.2-22.8 53.2 38.3 112.4 65 107.7 34-6-6-84-6-84 52 98 40 68-54 158S359 779 345 787c-.6.4-1.2.7-1.9 1h368.7c6.5 0 10.7-6.9 7.8-12.7l-96.4-190.8c-2.1-4.1-.6-9.2 3.4-11.5C683 540.6 721 479.8 721 410z" fill="url(#a)"/></g><g transform="matrix(.0234 0 0 .02368 -3.666 -3.793)"><linearGradient id="b" gradientUnits="userSpaceOnUse" x1="420.382" y1="475.002" x2="696.383" y2="689.002"><stop offset="0" stop-color="#BF3338"/><stop offset="1" stop-color="#F33"/></linearGradient><path d="M721 410c0-33.6-8.8-65.1-24.3-92.4-41.1-42.3-130.5-52.1-152.7-.2-22.8 53.2 38.3 112.4 65 107.7 34-6-6-84-6-84 52 98 40 68-54 158S359 779 345 787c-.6.4-1.2.7-1.9 1h368.7c6.5 0 10.7-6.9 7.8-12.7l-96.4-190.8c-2.1-4.1-.6-9.2 3.4-11.5C683 540.6 721 479.8 721 410z" fill="url(#b)"/></g><linearGradient id="c" gradientUnits="userSpaceOnUse" x1="429.386" y1="517.156" x2="469.386" y2="559.156" gradientTransform="matrix(.0234 0 0 .02368 -3.666 -3.793)"><stop offset="0" stop-color="#FF6533"/><stop offset=".157" stop-color="#FF5633"/><stop offset=".434" stop-color="#FF4333"/><stop offset=".714" stop-color="#FF3733"/><stop offset="1" stop-color="#F33"/></linearGradient><path d="M4.406 14.84c.328-.19 2.574-4.688 4.774-6.819 2.2-2.13 2.48-1.42 1.263-3.74 0 0-4.656 6.605-6.34 9.872" fill="url(#c)"/><g transform="matrix(.0234 0 0 .02368 -3.666 -3.793)"><linearGradient id="d" gradientUnits="userSpaceOnUse" x1="502.111" y1="589.457" x2="490.111" y2="417.457"><stop offset="0" stop-color="#FF6533"/><stop offset=".157" stop-color="#FF5633"/><stop offset=".434" stop-color="#FF4333"/><stop offset=".714" stop-color="#FF3733"/><stop offset="1" stop-color="#F33"/></linearGradient><path d="M373 537c134.4-247.1 152-272 222-272 36.8 0 73.9 16.6 97.9 46.1-32.7-52.7-90.6-88-156.9-89H307.7c-4.8 0-8.7 3.9-8.7 8.7V691c13.6-35.1 36.7-85.3 74-154z" fill="url(#d)"/></g><linearGradient id="e" gradientUnits="userSpaceOnUse" x1="450.125" y1="514.209" x2="506.943" y2="552.846" gradientTransform="matrix(.0234 0 0 .02368 -3.666 -3.793)"><stop offset="0" stop-color="#FBB040"/><stop offset="1" stop-color="#FB8840"/></linearGradient><path d="M9.18 8.021c-2.2 2.131-4.446 6.63-4.774 6.819-.327.19-.877.213-1.17-.118-.31-.353-.795-.924 1.826-5.8 3.144-5.851 3.556-6.44 5.194-6.44.861 0 1.73.392 2.29 1.09.031.05.062.103.092.155-.962-1.002-3.054-1.234-3.573-.005-.533 1.26.896 2.661 1.52 2.55.796-.142-.14-1.989-.14-1.989 1.215 2.318.934 1.608-1.265 3.738z" fill="url(#e)"/><linearGradient id="f" gradientUnits="userSpaceOnUse" x1="508.333" y1="295.758" x2="450.333" y2="933.758" gradientTransform="matrix(.0234 0 0 .02368 -3.666 -3.793)"><stop offset="0" stop-color="#FFF"/><stop offset="1" stop-color="#FFF" stop-opacity="0"/></linearGradient><path d="M5.319 9.182c3.145-5.85 3.556-6.44 5.194-6.44.71 0 1.423.267 1.966.75a2.967 2.967 0 0 0-2.223-1.01c-1.638 0-2.05.589-5.194 6.44-2.621 4.876-2.137 5.447-1.825 5.8.044.05.095.092.15.128-.274-.403-.396-1.338 1.932-5.668z" opacity=".3" fill="url(#f)"/></svg>