<svg xmlns="http://www.w3.org/2000/svg" width="16" height="16" viewBox="0 0 16 16"><path d="M10.462 9.096c.96 0 2.35-.196 2.35-1.318a1.075 1.056 0 0 0-.024-.258l-.572-2.441c-.132-.537-.247-.781-1.207-1.253-.744-.374-2.368-.993-2.847-.993-.446 0-.576.566-1.109.566-.513 0-.893-.422-1.374-.422-.46 0-.76.31-.992.943 0 0-.645 1.79-.73 2.05a.494.485 0 0 0-.014.146c0 .695 2.786 2.976 6.52 2.976m2.497-.858c.132.618.132.682.132.764 0 1.056-1.208 1.642-2.796 1.642-3.59.003-6.734-2.065-6.734-3.43a1.416 1.392 0 0 1 .115-.554c-1.288.063-2.962.29-2.962 1.74 0 2.375 5.727 5.303 10.26 5.303 3.476 0 4.353-1.546 4.353-2.766 0-.96-.845-2.049-2.367-2.7" fill="#e00"/><path d="M12.96 8.234c.132.618.132.682.132.764 0 1.056-1.208 1.642-2.796 1.642-3.59.003-6.734-2.065-6.734-3.43a1.416 1.392 0 0 1 .115-.554l.282-.684a.494.485 0 0 0-.017.144c0 .695 2.786 2.976 6.52 2.976.96 0 2.35-.194 2.35-1.317a1.075 1.056 0 0 0-.024-.259z"/></svg>