<svg xmlns="http://www.w3.org/2000/svg" viewBox="0 0 16 16" height="16" width="16"><g fill="#010101"><path d="M8.028 1.944c3.407 0 6.17 2.739 6.17 6.118 0 3.379-2.763 6.118-6.17 6.118-3.408 0-6.17-2.74-6.17-6.118 0-3.379 2.762-6.118 6.17-6.118m0-1.099a7.286 7.286 0 0 0-6.706 4.408A7.12 7.12 0 0 0 .75 8.062c0 .974.193 1.919.572 2.81.367.859.892 1.63 1.56 2.293a7.285 7.285 0 0 0 5.146 2.114 7.285 7.285 0 0 0 6.705-4.408c.38-.89.572-1.835.572-2.81 0-.973-.192-1.918-.572-2.808a7.256 7.256 0 0 0-3.872-3.84A7.286 7.286 0 0 0 8.028.845z"/><path d="M7.31 11.816H5.592V4.308h2.585c1.008 0 1.554.255 1.79.819.119.287.172.702.172 1.297 0 1.17-.214 1.606-.954 1.957l1.276 3.435H7.309z"/></g></svg>