<svg class="img" viewBox="0 0 16 16" width="16" height="16" xmlns="http://www.w3.org/2000/svg"><defs><linearGradient id="a" x1="55.37" y1="5" x2="55.37" y2="105.73" gradientUnits="userSpaceOnUse" gradientTransform="translate(.444 .511) scale(.1008)"><stop offset="0" stop-color="#2980c3"/><stop offset=".5" stop-color="#0d72b9"/><stop offset="1" stop-color="#0a5287"/></linearGradient><linearGradient id="b" x1="94.63" y1="145" x2="94.63" y2="44.27" gradientUnits="userSpaceOnUse" gradientTransform="translate(.444 .511) scale(.1008)"><stop offset="0" stop-color="#2980c3"/><stop offset=".7" stop-color="#0d72b9"/><stop offset="1" stop-color="#0a5287"/></linearGradient></defs><path d="M11 5.075a5.077 5.077 0 1 0-5.991 5.99 5.081 5.081 0 0 1-.101-1.015V8.886a3.007 3.007 0 1 1 4.133-2.794v3.012H6.973v.946a2.992 2.992 0 0 0 .217 1.12h3.912V6.092A5.081 5.081 0 0 0 11 5.075z" fill="url(#a)" style="fill:url(#a);stroke-width:.1008"/><path d="M11 5.075a5.081 5.081 0 0 1 .1 1.016v1.166a3.007 3.007 0 1 1-4.133 2.793V7.04h2.07v-.947a2.992 2.992 0 0 0-.218-1.119H4.906v5.077A5.077 5.077 0 1 0 11 5.075z" fill="url(#b)" style="fill:url(#b);stroke-width:.1008"/></svg>