<svg xmlns="http://www.w3.org/2000/svg" width="16" viewBox="0 0 16 16" height="16"><path d="M14.27 4.436V2.45c0-.32-.242-.576-.586-.64L8.177.913h-.24l-5.474.897c-.344.064-.585.32-.585.64 0 .737 0 1.41-.034 1.986 0 1.057-.035 1.825.034 2.305.31 3.042.998 4.42 2.169 5.924.93 1.185 2.306 2.018 3.855 2.306.034 0 .103.032.137.032h.138c1.549-.32 2.926-1.12 3.855-2.306 1.17-1.537 1.859-2.914 2.168-5.956.07-.48.07-1.248.07-2.305z" fill="#2197f3"/><path d="M13.271 4.852V3.187a.532.532 0 0 0-.482-.512l-4.612-.769c-.034 0-.069-.032-.103-.032V13.69h.103a5.473 5.473 0 0 0 3.236-1.953c.998-1.25 1.548-2.434 1.824-4.996.034-.384.034-1.024.034-1.889z" fill="#52ABF0"/><path d="M7.391 10.644h-.005a.431.431 0 0 1-.345-.182L5.175 7.858a.454.454 0 0 1 .093-.624.427.427 0 0 1 .608.095L7.4 9.455l3-3.994a.428.428 0 0 1 .61-.08c.19.15.226.43.08.625L7.735 10.47a.431.431 0 0 1-.345.174z" fill="#fff"/></svg>