<svg xmlns="http://www.w3.org/2000/svg" xmlns:xlink="http://www.w3.org/1999/xlink" width="16" height="16" viewBox="0 0 16 16"><defs><linearGradient x1="18.01%" y1="80.098%" x2="77.804%" y2="28.779%" id="a"><stop stop-color="#00437C" offset="0%"/><stop stop-color="#093266" offset="100%"/></linearGradient><linearGradient x1="0%" y1="50%" y2="50%" id="b"><stop stop-color="#00437C" offset="0%"/><stop stop-color="#3984B5" offset="100%"/></linearGradient><linearGradient xlink:href="#a" id="g" x1="9.179" y1="38.616" x2="37.824" y2="14.032" gradientTransform="scale(.55098 1.81494)" gradientUnits="userSpaceOnUse"/><linearGradient xlink:href="#a" id="f" x1="9.179" y1="38.616" x2="37.824" y2="14.032" gradientTransform="scale(.55098 1.81494)" gradientUnits="userSpaceOnUse"/><linearGradient xlink:href="#b" id="k" x1=".364" y1="31.319" y2="31.319" gradientTransform="scale(1.24281 .80463)" x2="61.918" gradientUnits="userSpaceOnUse"/><linearGradient xlink:href="#b" id="j" x1=".364" y1="31.319" y2="31.319" gradientTransform="scale(1.24281 .80463)" x2="61.918" gradientUnits="userSpaceOnUse"/><path d="M7.244 76.155C2.72 73.543.304 70.957.304 65.835v-58.3c0-2.664.71-5.061 1.858-7.09l24.537 14.1V87.39L7.244 76.155z" id="d"/><path d="M8.741 48.056.453 43.271V12.79l15.349 8.861L52.318.571V.436l24.635 14.156c-1.188 2.158-2.96 3.944-5.292 5.29L22.878 48.047a14.114 14.114 0 0 1-7.075 1.917 14.11 14.11 0 0 1-7.062-1.908" id="h"/><filter id="c" color-interpolation-filters="sRGB"><feColorMatrix values="0.536458 0 0 0 0.463542 0 0.536458 0 0 0.463542 0 0 0.536458 0 0.463542 0 0 0 1 0" result="fbSourceGraphic"/><feColorMatrix result="fbSourceGraphicAlpha" in="fbSourceGraphic" values="0 0 0 -1 0 0 0 0 -1 0 0 0 0 -1 0 0 0 0 1 0"/><feColorMatrix type="hueRotate" values="0" in="fbSourceGraphic"/><feColorMatrix type="saturate" values="1"/><feColorMatrix values="2 -1 0 0 0 0 2 -1 0 0 -1 0 2 0 0 0 0 0 1 0"/></filter></defs><g transform="matrix(.10846 0 0 .09842 1.154 1.09)" fill="none" fill-rule="evenodd" filter="url(#c)"><path d="M79.05 62.437 63.724 53.59l-15.326 8.848 15.326 8.935z" fill="#00577b"/><path d="m63.724 88.989 15.326-8.851v-17.7l-15.326 8.85z" fill="#1e384b"/><path d="m63.724 88.989-15.326-8.851v-17.7l15.326 8.85z" fill="#15211f"/><path d="M100.24 50.419V92.45l-36.516 21.083-36.52-21.083v-.063l-24.536 14.1c1.286 2.27 3.121 4.075 5.153 5.249 16.194 9.348 32.385 18.699 48.58 28.047 4.753 2.745 9.868 2.758 14.594.03l48.698-28.117c4.546-2.624 6.943-6.789 6.943-12.085v-56.03c0-2.756-.602-5.214-1.761-7.32L100.24 50.42z" fill="#00437c" fill-rule="nonzero"/><g transform="matrix(1 0 0 -1 .506 106.933)"><mask id="e" fill="#fff"><use xlink:href="#d" width="100%" height="100%"/></mask><g mask="url(#e)" fill="url(#f)" fill-rule="nonzero"><path d="M7.244 76.155C2.72 73.543.304 70.957.304 65.835v-58.3c0-2.664.71-5.061 1.858-7.09l24.537 14.1V87.39z" fill="url(#g)"/></g></g><g transform="matrix(1 0 0 -1 47.922 50.854)"><mask id="i" fill="#fff"><use xlink:href="#h" width="100%" height="100%"/></mask><g mask="url(#i)" fill="url(#j)" fill-rule="nonzero"><path d="M8.741 48.056.453 43.271V12.79l15.349 8.861L52.318.571V.436l24.635 14.156c-1.188 2.158-2.96 3.944-5.292 5.29L22.878 48.047a14.114 14.114 0 0 1-7.075 1.917 14.11 14.11 0 0 1-7.062-1.908" fill="url(#k)"/></g></g></g></svg>