<svg xmlns="http://www.w3.org/2000/svg" xmlns:xlink="http://www.w3.org/1999/xlink" width="16" height="16" viewBox="0 0 16 16"><defs><linearGradient x1="18.01%" y1="80.098%" x2="77.804%" y2="28.779%" id="a"><stop stop-color="#00437C" offset="0%"/><stop stop-color="#093266" offset="100%"/></linearGradient><linearGradient x1="0%" y1="50%" y2="50%" id="b"><stop stop-color="#00437C" offset="0%"/><stop stop-color="#3984B5" offset="100%"/></linearGradient><linearGradient xlink:href="#a" id="f" x1="9.179" y1="38.616" x2="37.824" y2="14.032" gradientTransform="scale(.55098 1.81494)" gradientUnits="userSpaceOnUse"/><linearGradient xlink:href="#a" id="e" x1="9.179" y1="38.616" x2="37.824" y2="14.032" gradientTransform="scale(.55098 1.81494)" gradientUnits="userSpaceOnUse"/><linearGradient xlink:href="#b" id="j" x1=".364" y1="31.319" y2="31.319" gradientTransform="scale(1.24281 .80463)" x2="61.918" gradientUnits="userSpaceOnUse"/><linearGradient xlink:href="#b" id="i" x1=".364" y1="31.319" y2="31.319" gradientTransform="scale(1.24281 .80463)" x2="61.918" gradientUnits="userSpaceOnUse"/><path d="M7.244 76.155C2.72 73.543.304 70.957.304 65.835v-58.3c0-2.664.71-5.061 1.858-7.09l24.537 14.1V87.39L7.244 76.155z" id="c"/><path d="M8.741 48.056.453 43.271V12.79l15.349 8.861L52.318.571V.436l24.635 14.156c-1.188 2.158-2.96 3.944-5.292 5.29L22.878 48.047a14.114 14.114 0 0 1-7.075 1.917 14.11 14.11 0 0 1-7.062-1.908" id="g"/></defs><g fill="none" fill-rule="evenodd"><path d="m9.728 7.235-1.663-.87-1.662.87 1.662.88z" fill="#00577b"/><path d="m8.065 9.848 1.663-.871V7.235l-1.663.871z" fill="#1e384b"/><path d="m8.065 9.848-1.662-.871V7.235l1.662.871z" fill="#15211f"/><path d="M12.026 6.052v4.137l-3.96 2.075-3.962-2.075v-.006L1.443 11.57c.14.224.339.401.559.517l5.27 2.76c.515.27 1.07.272 1.582.003l5.282-2.767c.493-.258.753-.668.753-1.19V5.38c0-.271-.065-.513-.19-.72l-2.673 1.393z" fill="#00437c" fill-rule="nonzero"/><g transform="matrix(.10846 0 0 -.09842 1.208 11.614)"><mask id="d" fill="#fff"><use xlink:href="#c" width="100%" height="100%"/></mask><g mask="url(#d)" fill="url(#e)" fill-rule="nonzero"><path d="M7.244 76.155C2.72 73.543.304 70.957.304 65.835v-58.3c0-2.664.71-5.061 1.858-7.09l24.537 14.1V87.39z" fill="url(#f)"/></g></g><g transform="matrix(.10846 0 0 -.09842 6.351 6.095)"><mask id="h" fill="#fff"><use xlink:href="#g" width="100%" height="100%"/></mask><g mask="url(#h)" fill="url(#i)" fill-rule="nonzero"><path d="M8.741 48.056.453 43.271V12.79l15.349 8.861L52.318.571V.436l24.635 14.156c-1.188 2.158-2.96 3.944-5.292 5.29L22.878 48.047a14.114 14.114 0 0 1-7.075 1.917 14.11 14.11 0 0 1-7.062-1.908" fill="url(#j)"/></g></g></g></svg>