<svg viewBox="0 0 16 16" width="16" height="16" xmlns="http://www.w3.org/2000/svg"><g stroke-width="2" fill="none" stroke="#28acac"><path vector-effect="non-scaling-stroke" d="M14.01 8.411q.045.003.086.003a.375.375 0 0 0 .068-.736q-.56-.135-.562-.793-.015-1.902-.003-3.803.005-1.427-1.495-1.442-4.092-.044-8.193-.044-1.395-.003-1.36 1.407.023.986-.023 4.279-.003.176-.16.258l-.674.36a.161.158 48.8 0 0-.017.268l.684.498a.406.406 0 0 1 .17.324l.032 4.516a.962.966.2 0 0 .947.956q4.487.068 8.851-.017 1.117-.02 1.172-1.2.09-2.017.062-4.448a.383.383 0 0 1 .415-.386"/><path vector-effect="non-scaling-stroke" d="M8.574 11.175q-1.618.512-3.268-.421a.216.214-68.1 0 0-.312.135L4.643 12.3a.348.345 18.7 0 0 .202.403q1.941.829 4.188.343c2.84-.615 3.636-4.373.851-5.622-.96-.432-3.013-.994-2.808-2.007.255-1.263 2.627-.797 3.361-.461q.245.11.316-.15l.374-1.43a.278.275 15.1 0 0-.196-.335Q9.11 2.549 7.503 2.81c-2.545.41-3.917 3.25-1.732 5.075q.72.599 2.449 1.208c.992.344 1.488 1.722.354 2.082"/></g><path fill="#28fefe" d="M3.298 1.034h9.52q1.401.37 1.413 1.46.029 2.215.02 4.44 0 .153.147.2l.631.21V8.73l-.652.096a.175.178 85.1 0 0-.152.179q.032 2.1.003 4.168-.023 1.635-1.51 1.902H3.195q-1.334-.408-1.331-1.536.006-2.154-.006-4.32 0-.442-.5-.264a.178.182 68.4 0 1-.226-.096L.99 8.525v-.836q.029-.503.584-.345a.216.219 8.3 0 0 .278-.208q.024-2.001.015-4.054-.006-1.664 1.43-2.048ZM14.01 8.411q.044.003.085.003a.375.375 0 0 0 .068-.736q-.56-.135-.562-.793-.015-1.902-.003-3.803.005-1.427-1.495-1.442-4.092-.044-8.193-.044-1.395-.003-1.36 1.407.023.986-.023 4.279-.003.176-.16.258l-.674.36a.161.158 48.8 0 0-.017.268l.684.498a.406.406 0 0 1 .17.324l.032 4.516a.962.966.2 0 0 .948.957q4.486.067 8.85-.018 1.117-.02 1.173-1.2.09-2.017.062-4.448a.383.383 0 0 1 .415-.386z" style="stroke-width:.292492"/><path fill="#285959" d="M14.01 8.411a.383.383 0 0 0-.414.386q.029 2.431-.062 4.449-.056 1.179-1.172 1.2-4.364.083-8.851.017a.962.966.2 0 1-.948-.957L2.53 8.99a.406.406 0 0 0-.17-.324l-.683-.498a.161.158 48.8 0 1 .017-.269l.673-.36q.159-.081.16-.257.047-3.293.024-4.279-.035-1.41 1.36-1.407 4.102 0 8.194.044 1.5.015 1.494 1.442-.012 1.901.003 3.802.003.658.562.793a.375.375 0 0 1-.067.736l-.085-.002zm-5.436 2.764q-1.618.512-3.268-.421a.214.216 21.9 0 0-.312.135L4.643 12.3a.348.345 18.7 0 0 .202.403q1.941.829 4.188.343c2.84-.615 3.636-4.373.851-5.622-.96-.432-3.013-.994-2.808-2.007.255-1.263 2.627-.797 3.361-.461q.245.11.316-.15l.374-1.43a.278.275 15.1 0 0-.196-.335Q9.11 2.549 7.503 2.81c-2.545.41-3.917 3.25-1.732 5.075q.72.599 2.449 1.208c.992.344 1.488 1.722.354 2.082z" style="stroke-width:.292492"/><path fill="#28fefe" d="M8.574 11.175c1.134-.36.638-1.738-.354-2.082q-1.73-.609-2.45-1.208C3.586 6.06 4.958 3.22 7.503 2.81q1.606-.26 3.428.23a.278.275 15.1 0 1 .196.337l-.374 1.43q-.07.26-.317.15c-.733-.336-3.105-.802-3.36.461-.205 1.013 1.848 1.575 2.808 2.007 2.785 1.25 1.99 5.008-.851 5.622q-2.247.485-4.188-.343a.348.345 18.7 0 1-.202-.403l.35-1.412a.214.216 21.9 0 1 .313-.135q1.65.933 3.268.42z" style="stroke-width:.292492"/></svg>