<svg viewBox="0 0 200 200" height="16" width="16" xmlns:xlink="http://www.w3.org/1999/xlink" xmlns="http://www.w3.org/2000/svg"><defs><linearGradient id="a" x1="29.49" y1="29.48" x2="169.71" y2="169.7" gradientUnits="userSpaceOnUse"><stop offset="0" stop-color="#45afe4"/><stop offset="1" stop-color="#364f9e"/></linearGradient><linearGradient id="c" x1="28.05" y1="30.92" x2="168.27" y2="171.14" xlink:href="#a" gradientTransform="translate(9.561 9.562) scale(.90438)"/><linearGradient xlink:href="#a" id="b" gradientUnits="userSpaceOnUse" x1="29.49" y1="29.48" x2="169.71" y2="169.7" gradientTransform="translate(9.561 9.562) scale(.90438)"/></defs><path d="M175.127 81.696a78.247 78.247 0 0 0-9.36-21.488c3.102-4.368 6.076-8.837 8.835-13.567l-21.307-21.243c-4.848 2.84-9.442 5.915-13.937 9.125a77.343 77.343 0 0 0-20.8-8.582c-.905-5.427-2.017-10.917-3.446-16.379H84.923c-1.41 5.355-2.469 10.708-3.373 16.062a77.642 77.642 0 0 0-21.443 8.502c-4.314-3.066-8.736-6.015-13.394-8.728L25.397 46.705c2.568 4.386 5.326 8.574 8.193 12.661a77.85 77.85 0 0 0-9.948 22.52 188.922 188.922 0 0 0-14.08 3.038v30.153c4.367 1.139 8.717 2.061 13.085 2.857a77.85 77.85 0 0 0 9.66 24.572c-2.416 3.482-4.74 7.064-6.91 10.79l21.317 21.316c3.616-2.097 7.045-4.322 10.408-6.638a77.922 77.922 0 0 0 25.18 10.491 170.96 170.96 0 0 0 2.621 11.983h30.153c1.067-4.097 1.935-8.184 2.713-12.29a77.614 77.614 0 0 0 24.544-10.6 184.324 184.324 0 0 0 10.98 7.054l21.307-21.317c-2.37-4.042-4.92-7.921-7.57-11.756a77.94 77.94 0 0 0 9.044-23.433c4.775-.84 9.56-1.809 14.335-3.057V84.925c-5.092-1.32-10.202-2.36-15.302-3.228zm-52.852 72.432a56.976 56.976 0 0 1-44.804.424.245.245 0 0 0 0-.117s0 .055-.072.064a57.211 57.211 0 0 1-31.102-31.889c-.099-.253-.207-.507-.289-.76a56.831 56.831 0 0 1 1.113-42.506 37.25 37.25 0 0 1 1.058-2.297A57.355 57.355 0 0 1 77 49.564a55.219 55.219 0 0 1 3.809-1.474 56.976 56.976 0 0 1 18.584-3.11 56.38 56.38 0 0 1 19.526 3.472 56.752 56.752 0 0 1 4.197 1.727 57.211 57.211 0 0 1 27.458 26.76 53.739 53.739 0 0 1 1.52 3.364 56.976 56.976 0 0 1 1.067 40.498 33.376 33.376 0 0 1-.697 1.882 57.256 57.256 0 0 1-29.844 31.273 3.427 3.427 0 0 1-.344.172z" fill="url(#a)" style="fill:url(#b);stroke-width:.904382"/><path d="M140.444 119.734a11.45 11.45 0 0 0-19.237-5.897l-9.043-6.728a15.645 15.645 0 0 0-4.124-20.44l7.334-12.543a7.805 7.805 0 1 0-3.129-1.809l-7.307 12.544a15.61 15.61 0 0 0-20.16 7.108L69.25 85.865v-.154a7.235 7.235 0 1 0-1.347 3.528l15.546 6.095a15.628 15.628 0 0 0 5.283 15.99L81.496 122.6a9.668 9.668 0 1 0 3.048 1.954l7.235-11.269a15.645 15.645 0 0 0 18.223-3.293l9.044 6.757a11.45 11.45 0 1 0 21.389 2.984z" fill="url(#c)" style="fill:url(#c);stroke-width:.904382"/></svg>