<svg xmlns="http://www.w3.org/2000/svg" preserveAspectRatio="xMidYMid" viewBox="0 0 256 256" height="16" width="16"><path fill="#49a32b" d="M126.515 241.806c-59.687-.415-111.58-50.285-111.178-113.644.387-60.967 50.707-112.297 112.972-111.88 60.514.405 111.568 50.978 111.027 112.934.501 61.394-50.803 113.024-112.821 112.59zm0 0c-59.687-.415-111.58-50.285-111.178-113.644.387-60.967 50.707-112.297 112.972-111.88 60.514.405 111.568 50.978 111.027 112.934.501 61.394-50.803 113.024-112.821 112.59z"/><path fill="#EEE" d="M169.038 129c-.287 5.374-4.95 9.837-9.546 9.058h-.07c-5.09.007-9.221-4.143-9.227-9.269.173-5.139 4.407-9.19 9.512-9.102 5.091.025 9.606 4.356 9.331 9.313zM87.18 181.079c1.92.056 3.84.015 6.054.015v14.005c-13.758 2.342-25.09-1.591-27.872-13.3a78.216 78.216 0 0 1-1.751-13.09c-.296-4.665.215-9.382-.138-14.038-.978-12.813-2.627-17.187-14.839-17.793v-15.946a22.728 22.728 0 0 1 2.656-.46c6.695-.331 9.518-2.398 11.015-9.038a76.251 76.251 0 0 0 1.205-11.3c.53-7.331.342-14.782 1.556-21.994 1.753-10.43 8.185-15.498 18.808-16.065 3.023-.164 6.056-.025 9.481-.025v14.315c-1.41.1-2.701.307-3.985.268-8.657-.267-9.105 2.702-9.737 9.917-.394 4.525.15 9.128-.157 13.668-.32 4.518-.92 9.012-1.797 13.456-1.249 6.44-5.181 11.228-10.63 15.292 10.578 6.931 11.781 17.7 12.468 28.636.37 5.876.201 11.794.793 17.642.462 4.538 2.215 5.696 6.87 5.835zm8.916-61.392h.164c5.057.084 9.091 4.28 9.008 9.374 0 .167-.005.333-.016.499-.284 4.977-4.521 8.779-9.465 8.492-.2.004-.397 0-.596-.01-5.035-.252-8.913-4.565-8.663-9.633.25-5.07 4.534-8.974 9.568-8.722zm31.518 0c5.532-.043 9.206 3.566 9.235 9.072.03 5.654-3.453 9.271-8.949 9.295-5.59.025-9.269-3.535-9.3-9.007a9.522 9.522 0 0 1-.011-.839c.155-4.862 4.196-8.677 9.025-8.521zm65.991-6.975c1.472 5.534 4.336 7.479 10.122 7.744.948.044 1.892.206 3.192.352v15.941c-.703.233-1.425.407-2.157.52-7.754.486-11.288 3.688-12.07 11.515-.5 4.997-.46 10.049-.803 15.064a128.652 128.652 0 0 1-1.49 16.437c-1.978 9.857-8.091 14.775-18.191 15.375-3.251.194-6.525.03-10.03.03v-14.248c1.886-.117 3.551-.279 5.22-.32 6.035-.144 8.17-2.103 8.464-8.137.328-6.63.47-13.267.764-19.897.428-9.584 3.034-18.145 11.902-24.123-5.074-3.642-9.148-8.054-10.203-14.002-1.277-7.21-1.689-14.58-2.376-21.89-.34-3.655-.323-7.342-.677-10.994-.382-3.942-3.073-5.306-6.637-5.395-2.042-.05-4.092-.01-6.702-.01V62.762c16.658-2.785 28.166 2.796 29.234 18.842.448 6.739.382 13.509.811 20.247a56.417 56.417 0 0 0 1.627 10.862z"/></svg>