<svg xmlns="http://www.w3.org/2000/svg" viewBox="0 0 48 48" width="16" height="16"><path fill="#ffca28" d="M1.232 38.5S9.568 21 27.22 18c6.865 9 15.69 19 15.69 19s4.414-.5 4.414 2.5H42.42c-26.478-14-36.387-9.178-36.285-1z" stroke-width=".99"/><path fill="#212121" d="M47.814 40h-5.513l-.106-.056C21.27 28.88 12.807 30.587 9.625 32.588c-1.995 1.254-3.032 3.296-3 5.905l.006.507H.448l.342-.719c.085-.177 8.651-17.767 26.35-20.774l.288-.049.18.235c6.269 8.219 14.277 17.387 15.507 18.789.713-.045 2.703-.056 3.853.994.56.513.846 1.194.846 2.024zm-5.274-1h4.237a1.52 1.52 0 00-.463-.777c-1.058-.967-3.327-.728-3.35-.726l-.25.027-.168-.189c-.087-.1-8.761-9.94-15.533-18.792C12.035 21.241 3.839 34.721 2.049 38H5.65c.098-2.739 1.287-4.898 3.459-6.264 5.786-3.637 17.657-1.059 33.43 7.264z" stroke-width=".99"/><path fill="#212121" d="M22.316 37h-4.573l-.13-.097C17 36.444 2.617 25.559 6.678 17.276c1.809-3.691 5.246-3.464 7.304-3.323.36.025.692.047.98.047v1c-.308 0-.66-.023-1.045-.049-2.042-.137-4.844-.325-6.363 2.772C4.05 24.872 16.655 34.907 18.067 36h3.2a1.107 1.107 0 00-.432-.59c-.56-.392-1.508-.385-2.102-.151l-.356.14-.22-.317c-2.901-4.176-.799-9.544-.708-9.771l.908.379c-.02.049-1.882 4.828.404 8.516.818-.201 1.885-.141 2.629.381.422.295.926.867.926 1.913z" stroke-width=".99"/><path fill="#ffe082" d="M43.401 6.5c-2.165 1.583-3.923 3-3.923 5-1.593-.625-2.789-.844-4.81-.859-2.207-.017-3.403.234-4.996.859 0-2-1.594-3.375-3.923-5-2.942 18 8.826 23 8.826 23s11.768-5 8.826-23z" stroke-width=".99"/><path fill="#212121" d="M34.575 30.042l-.188-.08c-.122-.052-12.093-5.363-9.122-23.544l.127-.773.633.442c1.957 1.365 3.735 2.761 4.077 4.721 1.467-.514 2.649-.697 4.568-.667 1.808.014 2.996.188 4.378.668.331-1.844 1.98-3.189 4.067-4.715l.64-.468.129.792c2.971 18.181-9 23.492-9.122 23.544zM26.112 7.368c-2.244 15.72 6.962 20.856 8.463 21.583 1.501-.727 10.7-5.858 8.465-21.565-1.782 1.342-3.071 2.559-3.071 4.114v.728l-.667-.261c-1.555-.61-2.683-.812-4.639-.826-2.22-.032-3.384.266-4.815.826l-.667.261V11.5c0-1.525-1.074-2.678-3.07-4.132zM21.336 16c-3.923 2-7.54 1.521-6.824-1.375.695-2.875 4.862-.625 6.824 1.375z" stroke-width=".99"/><path fill="#212121" d="M13.184 24.406L15.452 26l-.981-3zm4.719-3.062l-2.084 1.031L19.374 24zm3.77-1.813L18.393 21l4.904 3zM38.007 31l-1.256-1.125L35.065 32zm.981 2l-.98-1-1.962 2zM25.871 17.375l-.245-1.531L28.201 17zm.553 2.313l-.246-1.094 1.93.5zm17.222-2.313l.245-1.531L40.95 17zm-.551 2.313l.245-1.094-2.39.406z"/><path fill="#212121" d="M28.568 12.5s-2.114-.75-2.636-5.75c.92.719 4.122 3.453 4.092 5.141-1.104.437-1.456.609-1.456.609zm12.025 0s2.115-.75 2.636-5.75c-.92.719-4.121 3.453-4.09 5.141 1.101.437 1.454.609 1.454.609zM11.958 30.969s2.882-.844 5.15-.375c.244 1.563.367 3.25 1.685 4.281 1.042-.219 2.82-.5 3.157 1.594-1.288-.031-3.83.063-3.83.063s-4.63-3.188-6.162-5.563zM31.94 20.854l-.43-.238c.893-1.675 1.346-3.186 1.346-4.491 0-.998-.273-1.604-.81-1.803-.848-.313-2.13.427-2.676 1.096l-.378-.32c.64-.783 2.115-1.656 3.22-1.245.516.19 1.133.74 1.133 2.272.001 1.389-.472 2.98-1.405 4.729z" stroke-width=".99"/><path fill="#212121" stroke-width=".99" d="M30.652 17.25h8.826v.5h-8.826zm-5.394 4h4.903v.5h-4.903zm0 2h4.903v.5h-4.903zm13.73-2h4.903v.5h-4.903zm0 2h4.903v.5h-4.903z"/><path fill="#212121" d="M37.514 20.25l.006.5-5.782.063-.005-.5z"/><path fill="#212121" d="M37.164 20.772c-.037-.105-.901-2.598.215-4.217.595-.866 1.633-1.306 3.081-1.306v.5c-1.28 0-2.181.367-2.68 1.093-.97 1.409-.162 3.736-.153 3.76zm-5.686-.078l.306-.39 4.904 4-.306.39z" stroke-width=".99"/><path fill="#212121" d="M32.46 24.305l4.903-4 .307.39-4.904 4zM36.046 11h-2.942l1.961 4z"/></svg>