<svg xmlns="http://www.w3.org/2000/svg" width="16" height="16" viewBox="0 0 229.921 228.052"><path fill="#363B3F" d="M229.84 85.102a55.33 55.33 0 0 0-.482-5.006 37.775 37.775 0 0 0-.411-2.494 30.394 30.394 0 0 0-.594-2.554l-.179-.647-.465-.364c-2.635-2.072-5.481-3.637-8.372-5.023-2.387-1.125-4.809-2.107-7.261-3.012-6.828-18.956-18.576-35.768-34.015-47.487C162.1 6.404 143.33 0 123.779 0c-19.551 0-38.321 6.404-54.284 18.516-15.439 11.718-27.186 28.531-34.018 47.491a90.38 90.38 0 0 0-7.255 3.007c-2.893 1.386-5.737 2.951-8.374 5.023l-.464.364-.179.647c-.255.924-.423 1.71-.595 2.554a44.986 44.986 0 0 0-.411 2.494 59.152 59.152 0 0 0-.482 5.006 62.936 62.936 0 0 0 .298 10.04 62.905 62.905 0 0 0 1.863 9.891 51.346 51.346 0 0 0 1.614 4.826c.309.797.648 1.589 1.023 2.382.184.392.387.78.595 1.178l.333.589c.125.214.208.374.399.66l.339.525.53.272c.565.292 1.029.513 1.541.752l1.494.672c.275.113.536.227.816.339-6.773 6.267-14.135 14.403-20.509 24.468L0 154.394l11.302-9.921c.191-.167 9.664-8.375 25.472-17.665l.22 1.816c-1.03.535-6.005 3.148-7.48 4.379-2.447 2.036-2.566 5.19-1.911 11.077.332 3.016 1.47 8.874 2.993 14.24 2.625 9.244 4.553 10.874 6.244 11.26.761.18 1.75.263 2.855.263 3.024 0 6.91-.589 9.434-1.35 2.97 9.23 7.172 17.563 12.296 24.871-.244.072-.488.144-.738.214-3.082-1.428-13.856-6.415-17.48-8.047l-7.57-3.404 4.476 6.987c.328.505 8.052 12.557 14.367 20.676 5.898 7.581 13.98 15.325 29.229 15.325 1.832 0 3.754-.114 5.731-.334 4.551-.517 7.969-.927 10.568-1.261 16.005 5.881 33.656 6.237 50.404-.106a73.636 73.636 0 0 0 12.594-6.22c.077-.011.153-.03.226-.048 6.23-1.499 13.294-3.183 16.783-4.165.566-.155 1.26-.316 1.993-.489 4.863-1.117 12.987-3.004 17.319-11.67 4.363-8.749 11.487-22.147 11.564-22.283l3.322-6.248-6.488 2.819c-.345.155-8.559 3.732-12.832 5.976-.155.083-.327.153-.5.238 3.464-7.07 5.214-12.731 5.827-14.901 2.386.577 5.935.505 8.54.505 1.281 0 2.601-.22 3.459-.441 1.69-.433 2.999-1.553 5.464-11.093 1.428-5.542 2.458-11.576 2.738-14.676.547-6.04.374-9.272-2.095-11.313-1.227-1.013-4.828-2.954-6.66-3.912l.09-.66c.934.225 1.434.352 1.475.363l1.66-6.308c.588-.25 1.208-.5 1.911-.775a98.98 98.98 0 0 0 3.012-1.225l1.492-.672c.513-.239.976-.459 1.543-.752l.53-.272.338-.525c.185-.286.28-.445.4-.66l.327-.589c.22-.399.416-.786.601-1.178a42.67 42.67 0 0 0 1.023-2.382 51.637 51.637 0 0 0 1.614-4.826 63.833 63.833 0 0 0 1.862-9.891 62.11 62.11 0 0 0 .296-10.039z"/><path fill="#E5D667" d="M225.13 80.571a57.548 57.548 0 0 0-.241-2.31 30.9 30.9 0 0 0-.247-1.636c-2.062-1.735-4.404-3.279-6.842-4.681-2.642-1.544-5.408-2.926-8.23-4.21-2.803-1.322-5.681-2.519-8.577-3.687a152.825 152.825 0 0 0-4.367-1.699c-1.459-.569-2.932-1.099-4.409-1.636 3.1.513 6.168 1.217 9.214 2a122.67 122.67 0 0 1 5.909 1.699c-13.924-36.39-47.214-60.09-83.561-60.09-36.352 0-69.64 23.7-83.561 60.09a124.189 124.189 0 0 1 5.905-1.699c3.05-.783 6.119-1.488 9.218-2-1.482.538-2.951 1.067-4.415 1.636a169.44 169.44 0 0 0-4.366 1.699c-2.895 1.167-5.767 2.365-8.576 3.687-2.816 1.285-5.584 2.666-8.226 4.21-2.439 1.402-4.779 2.946-6.848 4.681a44.3 44.3 0 0 0-.241 1.636 57.358 57.358 0 0 0-.241 2.31 59.985 59.985 0 0 0-.204 4.668 68.02 68.02 0 0 0 .575 9.324c.426 3.094.994 6.168 1.833 9.141a49.177 49.177 0 0 0 1.426 4.377c.273.71.569 1.408.878 2.088.154.338.315.672.475.992l.198.378c.229.116.469.234.697.345l1.384.661c.771.35 1.839.856 2.723 1.253a3.1 3.1 0 0 0 .142-.131l-2.57-9.786c.545-.148 5.423-1.408 13.833-3.008a43.172 43.172 0 0 1-2.037-.438c-1.914-.475-3.804-1.056-5.632-1.797a25.745 25.745 0 0 1-2.654-1.283c-.853-.489-1.693-1.044-2.342-1.78 9.238 3.015 28.326 1.649 45.294-.105 15.519-1.599 31.073-2.636 46.708-2.666 15.636.03 31.197 1.067 46.708 2.666 16.975 1.753 36.063 3.119 45.3.105-.648.736-1.487 1.291-2.34 1.78-.852.481-1.746.9-2.654 1.283-1.83.741-3.718 1.322-5.632 1.797-.284.069-.57.13-.854.192 9.22 1.71 14.587 3.099 15.161 3.254l-2.458 9.324c.495-.222.994-.438 1.483-.66l1.382-.661c.23-.111.463-.23.698-.345l.191-.378c.168-.32.329-.655.482-.992.31-.68.607-1.378.878-2.088a49.069 49.069 0 0 0 1.427-4.377c.84-2.973 1.408-6.047 1.834-9.141a68.33 68.33 0 0 0 .576-9.324 59.016 59.016 0 0 0-.207-4.668z"/><path fill="#856A5B" d="M134.26 209.988a50.13 50.13 0 0 1-3.662.431c-.784.037-1.614.117-2.366.117l-.278.006c.945-2.111 1.662-3.748 2.206-4.989a161.056 161.056 0 0 0 4.1 4.435zm2.659 2.71c3.798 3.762 8.504 5.915 13.685 6.298-8.701 3.534-16.901 4.898-23.219 5.323-6.297.422-12.682-.32-18.938-2.036.525-.094.908-.161 1.371-.217.513-.062 11.733-1.525 16.791-9.046l.474.011 1.242-.011c.84 0 1.604-.069 2.408-.1a50.369 50.369 0 0 0 5.608-.808c.191.197.382.389.578.586z"/><path fill="#A1A0A0" d="M147.683 100.097c-.364.475-.771.999-1.205 1.544-2.222 2.81-5.304 6.403-8.96 9.918a424.956 424.956 0 0 0-13.11-.205c-7.427 0-14.548.197-21.31.525 9.554-3.965 21.034-7.838 33.464-10.165a131.434 131.434 0 0 1 11.121-1.617zm-55.92 4.279c-3.41 2.396-7.262 5.453-10.998 9.163a414.905 414.905 0 0 0-24.793 3.23c10.584-4.865 22.662-9.343 35.791-12.393zm116.868 19.746-3.89 27.221-18.638 13.054-48.609-5.526-7.317-24.097a1.59 1.59 0 0 0-1.274-1.116c-1.802-.291-3.395-.439-4.723-.439-1.333 0-2.921.148-4.73.439-.6.098-1.092.53-1.272 1.116l-7.138 23.51-48.338 10.757-19.155-13.418-3.774-30.547c.822-.464 1.657-.927 2.502-1.389 1.185-.255 2.519-.525 3.995-.81l3.557 28.825a1.6 1.6 0 0 0 .673 1.111l13.177 9.233a1.64 1.64 0 0 0 1.266.245l39.742-8.842c.136-.031.272-.08.396-.142a1.6 1.6 0 0 0 .784-.95l7.157-23.564c1.92-.494 6.837-1.643 11.158-1.643 4.31 0 9.231 1.149 11.153 1.643l7.156 23.564a1.604 1.604 0 0 0 1.352 1.124l39.742 4.515c.385.042.779-.058 1.094-.278l13.185-9.225c.357-.253.597-.65.659-1.088l3.52-24.625c2.644.504 4.855.967 6.59 1.342zm4.909-17.072-3.421 12.979c-6.996-1.542-22.367-4.57-43.287-6.608 6.835-2.915 13.795-6.57 20.154-11.14 12.449 1.76 21.589 3.645 26.554 4.769z"/><path d="M73.392 147.657c2.71-1.464 5.773-1.247 10.565-1.241.513.012 1.044.006 1.598-.006.471-.006.945-.013 1.446-.025 4.939-.048 9.046.42 8.973-7.336-.075-7.755-3.52-14.023-8.454-13.973-4.94.042-9.719 6.397-9.423 14.147.08 2.019.377 3.476.853 4.526-4.305 1.079-5.491 3.74-5.558 3.908zm59.385-31.901c-1.914 1.55-3.933 3.001-6.034 4.266l-7.009 4.231a60.182 60.182 0 0 0-8.428 1.686 1.398 1.398 0 0 0-.364.161 1.62 1.62 0 0 0-.723.913l-7.137 23.521-38.15 8.485-12.016-8.416-3.496-28.32c6.824-1.253 15.95-2.704 26.912-3.932a64.835 64.835 0 0 0-3.397 4.432l-6.526 9.368 9.503-6.336c.142-.099 6.193-4.081 16.092-8.922a433.515 433.515 0 0 1 40.773-1.137zm41.774 28.72c-.048-.184-1.087-3.302-5.681-2.755.53-1.153.766-2.708.599-4.84-.607-7.738-5.107-13.887-10.042-13.715-4.934.175-8.095 6.589-7.823 14.345.271 7.75 4.415 7.695 9.348 7.522 6.633-.124 10.277-2.162 13.599-.557zm24.348-22.284-3.44 24.077-12.116 8.483-38.099-4.329-7.108-23.41a1.62 1.62 0 0 0-1.087-1.074c-.235-.069-4.953-1.414-9.954-1.847l.913-.061c.79-.056 13.931-1.668 29.622-7.078 17.378 1.335 31.568 3.471 41.269 5.239z" opacity=".8" fill="#6A5853"/><path fill="#856A5B" d="M215.53 132.782c.585.481 1.048 1.729.525 7.539-.642 7.114-3.632 19.599-5.485 21.612-2.043.395-6.329-.073-8.942-.685.452-1.793.581-2.651.945-4.484l4.57-3.198a1.6 1.6 0 0 0 .667-1.082l3.193-22.378c1.938 1.052 3.933 2.187 4.527 2.676zM47.061 161.989c.229.81.469 1.617.717 2.414-2.459.722-7.466 1.414-9.732 1.019-1.878-1.891-5.379-14.906-6.145-21.817-.624-5.6-.186-6.811.383-7.281.661-.555 3.136-1.963 5.28-3.112l2.896 23.508c.055.452.296.852.673 1.111l5.928 4.158zm92.441.328-.174 1.5s-5.266 4.884-13.745 5.976c-8.479 1.092-15.142-4.118-15.142-4.118.278.906.674 2.951 2.594 4.698a61.192 61.192 0 0 0-7.257-.452c-.924 0-1.858.027-2.76.07-5.218.272-12.559 8.163-17.72 16.111-2.533.802-10.449 3.315-19.612 6.02-8.553-11.851-12.759-23.96-13.184-25.213l.006-.006a50.904 50.904 0 0 1-.507-1.458l2.2 1.538v.006l5.434 3.804 1.816 1.266c.271.192.592.291.913.291.118 0 .234-.012.351-.036l49.933-11.116a1.593 1.593 0 0 0 1.178-1.092l7.121-23.441c1.229-.167 2.308-.253 3.235-.253.921 0 2.007.086 3.236.253l7.328 24.138a1.594 1.594 0 0 0 1.347 1.124l3.409.39z"/><path fill="#856A5B" d="m196.498 161.02 1.612-1.131c-.267 1.119-.557 2.23-.859 3.329-2.241 7.183-4.885 13.536-7.823 19.148-.65.045-1.335.07-2.069.07-2.267 0-4.583-.192-7.145-.427-4.447-.408-11.504-1.216-13.734-1.475a3451.4 3451.4 0 0 0-13.956-11.054c-.215-.173-.4-.334-.581-.483-.962-.814-2.056-1.739-4.273-1.739-2.013 0-4.953.733-12.059 2.883 3.692-2.76 3.716-6.323 3.716-6.323l.174-1.5 46.844 5.321a1.62 1.62 0 0 0 1.098-.277l4.706-3.298 4.349-3.044z"/><path fill="#E2453C" d="M180.788 100.559a.09.09 0 0 1 .036.012c-.383.272-.764.556-1.149.828-15.394 10.744-33.197 15.295-43.459 17.135 7.248-5.995 12.904-13.073 15.752-16.932a74.808 74.808 0 0 0 1.809-2.557c5.242.216 10.479.47 15.715.766 3.774.217 7.535.47 11.296.748zm-57.625-2.205c2.654.006 5.309.033 7.965.069a166.51 166.51 0 0 0-12.93 3.421c-13.801 4.248-25.535 9.725-33.512 13.925 8.904-8.516 18.365-13.289 19.446-13.818.054-.033.099-.052.105-.056l7.207-3.415c3.907-.073 7.81-.119 11.713-.125h.006zm-26.338.533c-4.65.9-9.182 1.982-13.584 3.21-27.64 7.738-50.031 21.156-62.882 30.091 13.228-15.814 32.487-27.904 37.514-30.913.543-.067 1.08-.128 1.63-.184 1.908-.203 3.829-.364 5.756-.513 3.847-.291 7.699-.55 11.565-.766a975.167 975.167 0 0 1 20.001-.925z"/><path fill="#CEBD3F" d="M162.022 62.466c.142 4.168.038 11.72-1.903 18.79-.079.273-.067.55 0 .81-2.469-.259-4.94-.481-7.41-.68 2.773-5.811 3.378-11.998 3.509-14.176 2.129-1.514 4.248-3.33 5.804-4.744zm-70.679 4.743c.129 2.179.734 8.353 3.502 14.159a286.8 286.8 0 0 0-7.405.686 1.525 1.525 0 0 0 0-.799c-1.938-7.056-2.038-14.615-1.901-18.79 1.555 1.415 3.667 3.231 5.804 4.744z"/><path fill="#363B3F" d="M174.551 144.476c-3.322-1.605-6.966.433-13.597.556-4.934.173-9.078.228-9.348-7.522-.273-7.756 2.889-14.17 7.823-14.345 4.934-.172 9.435 5.978 10.042 13.715.166 2.132-.069 3.687-.599 4.84 4.592-.546 5.63 2.572 5.679 2.756zm-15.506-11.355a2.531 2.531 0 0 0 2.476-2.569 2.513 2.513 0 0 0-2.57-2.475 2.524 2.524 0 0 0 .094 5.044z"/><path fill="#F4F4F4" d="M161.521 130.552a2.532 2.532 0 0 1-2.476 2.569 2.524 2.524 0 0 1-2.568-2.477 2.516 2.516 0 0 1 2.474-2.568 2.514 2.514 0 0 1 2.57 2.476z"/><path fill="#363B3F" d="M95.974 139.049c.073 7.756-4.034 7.288-8.973 7.336-.501.012-.975.019-1.446.025-.554.012-1.085.019-1.598.006-4.792-.006-7.855-.223-10.565 1.241.067-.167 1.253-2.829 5.558-3.909-.476-1.05-.773-2.507-.853-4.526-.295-7.75 4.484-14.104 9.423-14.147 4.934-.05 8.38 6.219 8.454 13.974zm-7.627-4.058a2.524 2.524 0 1 0-.142-5.046 2.524 2.524 0 0 0 .142 5.046z"/><ellipse transform="rotate(-1.473 88.267 132.453)" fill="#F4F4F4" cx="88.278" cy="132.469" rx="2.524" ry="2.523"/><path d="M58.275 86.399s.767-9.991 2.333-13.822c.808-1.974 5.744-3.23 9.514-4.127 3.768-.897 9.781-2.693 10.949 2.602 1.167 5.295 3.049 9.155 4.306 10.86l-1.614-21.809-25.937 6.283-1.706 19.296.808 1.527 1.347-.81m131.244 0s-.765-9.991-2.333-13.822c-.808-1.974-5.744-3.23-9.513-4.127-3.77-.897-9.784-2.693-10.951 2.602-1.165 5.295-3.051 9.155-4.308 10.86l1.617-21.809 25.938 6.283 1.705 19.296-.808 1.527-1.347-.81" fill="#CEBD3F"/><path fill="#CEBD3F" d="M152.858 21.128s-.687 52.295-12.903 52.295h-31.761c-12.216 0-13.202-52.272-13.202-52.272l-6 17.748.097 24.352 4.261 3.388 1.937 10.457 2.71 6.1 52.287.097 2.42-4.357 2.034-7.358.291-4.648 5.774-16.486-7.945-29.316zm38.471 48.761s2.514 18.04 9.167 21.292c6.654 3.252 0 0 0 0l-9.315-2.808.148-18.484zm-135.104 0s-2.514 18.04-9.168 21.292c-6.654 3.252 0 0 0 0l9.316-2.808-.148-18.484z"/><path fill="#363B3F" d="M193.12 88.29c3.167 1.038 6.353 2.136 9.239 3.823-1.544-.611-3.137-1.05-4.744-1.446a79.934 79.934 0 0 0-4.829-1.061 149.28 149.28 0 0 0-9.769-1.525 216.483 216.483 0 0 0-9.825-1.063c-3.285-.278-6.563-.555-9.855-.747-13.158-.81-26.354-1.013-39.557-1.025-13.201.006-26.397.253-39.557 1.031-3.291.191-6.57.469-9.855.747-3.284.277-6.564.63-9.824 1.061-3.273.397-6.527.916-9.769 1.525-1.618.303-3.23.656-4.835 1.056-1.599.395-3.199.835-4.743 1.446 2.885-1.686 6.07-2.791 9.244-3.829.266-.086.537-.161.809-.247-.018-.067-.036-.13-.05-.203-.055-.364-1.229-9.035.815-21.434a1.537 1.537 0 0 1 1.106-1.236l3.353-.955c.728-26.01 11.441-38.244 11.776-38.62-9.571 15.402-9.484 33.668-9.318 37.922l20.841-5.923c.019-.005.03-.005.049-.011.088-.019.173-.031.259-.037.024 0 .056-.006.086-.006.106-.006.224.006.342.031.017 0 .036.012.061.019.086.017.166.048.258.086.037.019.062.037.099.056.067.038.136.08.204.128.019.013.039.019.056.038l.037.038c.019.019.043.031.062.05.013.019.568.567 1.451 1.389-.211-6.868.116-26.568 9.496-42.893-.198.573-7.64 22.335-5.076 46.726a39.09 39.09 0 0 0 2.562 1.896c.413.284.667.753.672 1.253.007.081.185 7.855 3.619 14.469.048.099.086.203.118.309 8.54-.581 17.104-.816 25.65-.822 8.548.006 17.107.253 25.645.841.032-.113.069-.222.125-.328 3.432-6.614 3.612-14.387 3.612-14.469.011-.5.265-.969.68-1.253a41.172 41.172 0 0 0 2.557-1.896c2.568-24.391-4.874-46.153-5.071-46.726 9.373 16.326 9.707 36.025 9.498 42.892a77.245 77.245 0 0 0 1.449-1.389c.018-.019.045-.031.061-.05.013-.012.021-.025.038-.038.019-.019.037-.025.056-.038.069-.048.136-.091.204-.136.032-.011.062-.03.093-.048.093-.038.178-.069.271-.092.019 0 .037-.012.056-.012.11-.025.23-.038.34-.031.032 0 .056.006.08.006.086.006.179.019.265.037.013.006.032.006.048.011l20.841 5.923c.168-4.254.254-22.52-9.317-37.922.332.377 11.046 12.61 11.769 38.62l3.36.955a1.55 1.55 0 0 1 1.106 1.236c2.043 12.399.865 21.07.814 21.434-.011.073-.03.142-.049.209.273.08.538.16.811.248zm-3.791-1.113c.161-1.388.908-8.977-.68-19.315l-23.59-6.706c.211 3.996.305 12.66-1.962 20.922a1.88 1.88 0 0 1-.116.297c.233.025.468.044.696.073 6.632.76 13.233 1.822 19.76 3.254 1.97.458 3.94.945 5.892 1.475zm-29.21-5.922c1.94-7.07 2.045-14.622 1.903-18.79-1.555 1.414-3.675 3.23-5.804 4.743-.131 2.179-.736 8.366-3.509 14.176 2.47.198 4.941.42 7.41.68a1.521 1.521 0 0 1 0-.809zm-65.275.113c-2.768-5.806-3.373-11.981-3.502-14.159-2.136-1.513-4.248-3.329-5.804-4.743-.136 4.174-.037 11.734 1.901 18.79.075.273.067.544 0 .799 2.466-.262 4.934-.49 7.405-.687zm-10.269.994a1.886 1.886 0 0 1-.112-.284c-2.271-8.261-2.172-16.925-1.968-20.922l-23.583 6.706c-1.586 10.326-.846 17.915-.686 19.31a159.286 159.286 0 0 1 5.898-1.477c3.26-.722 6.545-1.327 9.836-1.883 3.298-.549 6.607-.969 9.917-1.371.234-.031.463-.048.698-.079z"/><path fill="#A1A0A0" d="M35.286 107.05a262.262 262.262 0 0 1 8.106-1.689 119.491 119.491 0 0 0-7.153 5.284l-.953-3.595z"/><path fill="#695348" d="M109.34 160.692s.566 3.638-4.527 5.195c-5.091 1.558-37.342 11.169-41.02 10.649-3.677-.519-13.013-6.753-13.013-6.753l-2.263-8.052 13.014 7.012 47.809-8.051z"/><path fill="#363B3F" d="M148.629 21.816v19.573h-13.874V35.67h-3.127v26.419h4.724v14.773h-24.268V62.089h4.705V35.67h-3.117v5.719H99.807V21.816z"/><path fill="#695348" d="M138.232 159.987s-.407 3.659 4.749 4.995c5.155 1.335 37.793 9.536 41.444 8.857 3.651-.68 12.706-7.312 12.706-7.312l1.912-8.144-12.697 7.573-48.114-5.969zm-105.569-5.99s4.469 8.938 11.687 5.843l5.156 1.891-.515 3.782-10.828 1.374-2.922-1.718-2.578-11.172z"/><path fill="#695348" d="M215.61 151.543s-7.304 9.328-14.522 6.236l-2.321 1.497.515 3.78 10.828 1.375 2.921-1.719 2.579-11.169zm-112.975 70.221s26.476 13.348 56.453-4.815l-9.627-.656s-21.005 8.314-37.635 3.719l-9.191 1.752z"/><path fill="#E2453C" d="M138.417 25.975h-34.45v11.254h5.536v-5.717h11.455v34.746h-4.714v6.445h15.939v-6.445h-4.714V31.512h11.455v5.717h5.536V25.975zm18.419 152.754c-2.266-1.758-4.851-3.721-7.009-5.418-.261-.214-.752-.522-.967-.7-.678-.578-.962-.6-1.367-.6-2.066 0-7.895 1.934-21.05 6.012l-.808.256-.792-.298c-.09-.03-8.719-3.236-19.062-3.236l-.302.003-3.054.244c-1.154.479-3.585 2.023-6.676 5.257h.014c-.856.906-1.811 2.16-2.816 3.585l63.889-5.105z"/><path fill="#DACD52" d="M45.874 191.384c.475.69 1.321 1.753 2.336 2.981l5.606-.448c-1.481-1.121-2.914-2.122-3.804-2.533h-4.138z"/><path fill="#E07E39" d="M163.956 184.836c-.045-.033-2.502-1.989-5.778-4.587h.599c-.79-.627-1.671-1.311-2.585-2.018l-62.826 5.02c-1.101 1.529-3.623 5.076-3.623 5.076-.251.382-.503.772-.758 1.175l-.482.755-.851.274a443.9 443.9 0 0 1-2.85.91l79.471-6.35-.317-.255z"/><path fill="#E5D667" d="M203.178 182.564c-2.142.988-4.387 2.058-5.982 2.897-2.458 1.291-5.677 1.916-9.838 1.916-2.474 0-4.904-.208-7.593-.447-5.375-.494-14.469-1.564-14.562-1.577l-.697-.077-.357-.286-78.883 6.303a976.744 976.744 0 0 1-16.031 4.931h-.129c-2.406.715-5.405 1.633-7.943 2.359l-.881.25-.834-.388c-.034-.014-3.011-2.556-5.764-4.629l-5.56.444c1.778 2.156 4.108 4.854 5.941 7.031l145.403-11.619.697-1.346c.001.002 2.231-4.275 3.013-5.762z"/><path fill="#51B95B" d="M196.144 196.238h-.042a883.09 883.09 0 0 1 3.51-6.842L53.855 201.043c1.138 1.348 2.11 2.521 2.663 3.261h-.047c.582.78 1.346 1.731 1.907 2.452.351.452.71.9 1.074 1.345l66.518-5.315c.874-2.029 1.115-2.663 1.13-2.701l1.4-3.837h-.001l.078-.14.103.131h-.011l2.638 3.114c.019.025.951 1.133 2.45 2.812l61.875-4.944c.178-.338.356-.674.512-.983z"/><path d="M123.284 208.88c.8-1.789 1.564-3.417 2.071-4.576h-.045c.278-.635.513-1.179.715-1.647l-66.666 5.327c1.24 1.521 2.563 2.998 4.019 4.372h-.118a30.97 30.97 0 0 0 3.168 2.569l55.939-4.47a9.14 9.14 0 0 0 .917-1.575zm66.702-4.574h-.083c1.934-1.289 3.699-3.081 5.002-5.692.227-.455.516-.994.796-1.524l-62.046 4.958c.596.669 1.284 1.43 2.048 2.258h-.044a166.345 166.345 0 0 0 4.582 4.721l48.294-3.859a14.81 14.81 0 0 0 1.451-.862z" fill="#1E72B7"/><path d="M178.682 208.225a43.506 43.506 0 0 1 2.213-.542c2.306-.533 5.313-1.201 7.958-2.678l-48.74 3.895.283.283a17.333 17.333 0 0 0 4.478 3.228h-.272c2.168 1.019 5.138 1.712 7.685 1.712a20.89 20.89 0 0 0 4.869-.602c1.244-.303 3.331-.783 4.7-1.111h-.08l.309-.074c6.188-1.479 13.198-3.159 16.597-4.111zm-56.216 2.085-56.215 4.492c4.373 3.141 10.009 5.374 17.457 5.374 1.641 0 3.386-.102 5.177-.305 13.313-1.505 16.742-2.111 18.587-2.433.624-.106 1.119-.197 1.75-.273.079-.01 7.203-1.101 11.574-4.808h-.13a11.188 11.188 0 0 0 1.8-2.047z" fill="#6F5BA7"/><path fill="#363B3F" d="M229.84 85.102a55.33 55.33 0 0 0-.482-5.006 37.775 37.775 0 0 0-.411-2.494 30.394 30.394 0 0 0-.594-2.554l-.179-.647-.465-.364c-2.635-2.072-5.481-3.637-8.372-5.023-2.387-1.125-4.809-2.107-7.261-3.012-6.828-18.956-18.576-35.768-34.015-47.487C162.1 6.404 143.33 0 123.779 0c-19.551 0-38.321 6.404-54.284 18.516-15.438 11.718-27.186 28.531-34.018 47.491a90.38 90.38 0 0 0-7.255 3.007c-2.893 1.386-5.737 2.951-8.374 5.023l-.464.364-.179.647c-.255.924-.423 1.71-.595 2.554a44.986 44.986 0 0 0-.411 2.494 59.152 59.152 0 0 0-.482 5.006 62.936 62.936 0 0 0 .298 10.04 62.905 62.905 0 0 0 1.863 9.891 51.346 51.346 0 0 0 1.614 4.826c.309.797.648 1.589 1.023 2.382.184.392.387.78.595 1.178l.333.589c.125.214.208.374.399.66l.339.525.53.272c.565.292 1.029.513 1.541.752l1.494.672c.275.113.536.227.816.339-6.773 6.267-14.135 14.403-20.509 24.468L0 154.394l11.302-9.921c.191-.167 9.664-8.375 25.472-17.665l.22 1.816c-1.03.535-6.005 3.148-7.48 4.379-2.447 2.036-2.566 5.19-1.911 11.077.332 3.016 1.47 8.874 2.993 14.24 2.625 9.244 4.553 10.874 6.244 11.26.761.18 1.75.263 2.855.263 3.024 0 6.91-.589 9.434-1.35 2.97 9.23 7.172 17.563 12.296 24.871-.244.072-.488.144-.738.214-3.082-1.428-13.856-6.415-17.48-8.047l-7.57-3.404 4.476 6.987c.328.505 8.052 12.557 14.367 20.676 5.898 7.581 13.98 15.325 29.229 15.325 1.832 0 3.754-.114 5.731-.334 4.551-.517 7.969-.927 10.568-1.261 16.004 5.881 33.656 6.237 50.404-.106a73.6 73.6 0 0 0 12.594-6.22c.077-.011.153-.03.226-.048 6.23-1.499 13.294-3.183 16.783-4.165.566-.155 1.26-.316 1.993-.489 4.863-1.117 12.987-3.004 17.319-11.67 4.363-8.749 11.487-22.147 11.564-22.283l3.322-6.248-6.488 2.819c-.345.155-8.559 3.732-12.832 5.976-.155.083-.327.153-.501.238 3.464-7.07 5.214-12.731 5.827-14.901 2.386.577 5.935.505 8.54.505 1.281 0 2.601-.22 3.459-.441 1.69-.433 2.999-1.553 5.464-11.093 1.428-5.542 2.458-11.576 2.738-14.676.547-6.04.374-9.272-2.095-11.313-1.227-1.013-4.828-2.954-6.66-3.912l.09-.66c.934.225 1.434.352 1.475.363l1.66-6.308c.588-.25 1.208-.5 1.911-.775a98.98 98.98 0 0 0 3.012-1.225l1.492-.672c.513-.239.976-.459 1.543-.752l.53-.272.338-.525c.185-.286.28-.445.4-.66l.327-.589c.22-.399.416-.786.601-1.178a42.67 42.67 0 0 0 1.023-2.382 51.637 51.637 0 0 0 1.614-4.826 63.833 63.833 0 0 0 1.862-9.891c.375-3.333.465-6.69.297-10.039zM20.359 132.189c13.225-15.813 32.49-27.907 37.512-30.913a47.51 47.51 0 0 1 1.63-.184c1.911-.209 3.827-.363 5.756-.511 3.851-.292 7.701-.555 11.57-.767 6.66-.377 13.33-.686 19.995-.93a172.356 172.356 0 0 0-13.58 3.215c-27.643 7.736-50.032 21.157-62.883 30.09zm14.927-25.139a262.262 262.262 0 0 1 8.106-1.689 119.491 119.491 0 0 0-7.153 5.284l-.953-3.595zm41.047 11.302a60.576 60.576 0 0 0-3.399 4.434l-6.528 9.368 9.505-6.339c.142-.102 6.195-4.082 16.092-8.921a431.857 431.857 0 0 1 32.407-1.221c2.839 0 5.623.036 8.367.083-1.916 1.547-3.933 3.001-6.034 4.268l-7.005 4.231c-4.398.536-8.213 1.625-8.434 1.685-.13.036-.25.089-.362.161-.34.197-.601.524-.721.911l-7.141 23.525-38.149 8.481-12.017-8.416-3.493-28.317c6.821-1.256 15.95-2.708 26.912-3.933zm-20.359-1.585c10.582-4.868 22.662-9.343 35.785-12.39-3.405 2.393-7.261 5.451-10.998 9.16a415.185 415.185 0 0 0-24.787 3.23zm72.037 7.261c.792-.053 13.932-1.664 29.621-7.075 17.379 1.333 31.566 3.469 41.268 5.235l-3.44 24.082-12.118 8.481-38.095-4.327-7.111-23.413a1.615 1.615 0 0 0-1.085-1.072c-.237-.07-4.951-1.416-9.956-1.846l.916-.065zm8.206-5.491c7.249-6 12.904-13.076 15.754-16.933a85.9 85.9 0 0 0 1.81-2.558c5.237.22 10.475.47 15.711.769 3.774.213 7.535.469 11.296.749.013 0 .024.006.036.012-.381.267-.762.553-1.149.827-15.397 10.742-33.196 15.294-43.458 17.134zm10.262-16.898c-2.22 2.81-5.304 6.404-8.958 9.916a444.978 444.978 0 0 0-13.11-.203c-7.429 0-14.546.197-21.314.524 9.552-3.963 21.034-7.831 33.465-10.158a128.62 128.62 0 0 1 11.117-1.619c-.362.476-.767 1-1.2 1.54zm-28.282.203c-13.803 4.249-25.533 9.73-33.514 13.926 8.904-8.516 18.367-13.29 19.45-13.818.054-.031.095-.05.101-.055l7.207-3.416c3.911-.077 7.816-.119 11.713-.125h.006c2.655.006 5.315.03 7.97.072a165.677 165.677 0 0 0-12.933 3.416zm-80.15 63.581c-1.88-1.893-5.38-14.909-6.148-21.819-.619-5.601-.184-6.809.387-7.28.661-.553 3.136-1.963 5.279-3.112l2.892 23.508c.06.453.298.852.673 1.114l5.934 4.152c.226.81.463 1.619.713 2.416-2.457.724-7.468 1.419-9.73 1.021zm89.338 58.895c-6.297.424-12.682-.32-18.938-2.035.525-.095.906-.161 1.369-.214.513-.066 11.737-1.53 16.791-9.047l.474.012 1.246-.012c.838 0 1.601-.07 2.404-.1a50.984 50.984 0 0 0 5.612-.81l.577.589c3.798 3.762 8.506 5.915 13.683 6.297-8.701 3.529-16.904 4.898-23.218 5.32zm.566-13.777a448.138 448.138 0 0 0 2.207-4.989 161.74 161.74 0 0 0 4.101 4.434 52.178 52.178 0 0 1-3.661.434c-.786.038-1.613.12-2.368.12h-.279zm69.245-25.08c1.595-.839 3.84-1.91 5.982-2.897-2.471 4.699-5.802 11.11-8.273 16.05-3.285 6.583-9.487 8.024-14.01 9.069-.79.18-1.541.352-2.213.542-3.399.952-10.409 2.632-16.598 4.112-1.714.411-3.387.81-4.928 1.185-1.66.4-3.303.602-4.869.602-4.583 0-8.581-1.66-11.89-4.94-4.977-4.934-9.048-9.779-9.089-9.832 0 0-2.73-3.238-2.73-3.244-.226.239-1.477 3.977-1.477 3.977-.024.064-.661 1.744-3.815 8.796-3.059 6.862-13.962 8.272-14.062 8.285-.631.077-1.126.167-1.75.273-1.845.322-5.274.928-18.587 2.433a46.249 46.249 0 0 1-5.177.305c-13.088 0-19.915-6.445-25.33-13.42-3.1-3.982-6.624-9.06-9.38-13.131 5.053 2.322 10.362 4.785 10.451 4.821l.834.388.881-.25a914.794 914.794 0 0 0 26.489-8.053l.851-.274.482-.755c7.434-11.762 13.248-14.523 14.284-14.576a49.416 49.416 0 0 1 2.512-.064c10.342 0 18.972 3.201 19.062 3.23l.792.298.808-.256c13.155-4.077 19.159-5.94 21.224-5.94.405 0 .405 0 1.083.578.215.178.452.375.713.589 6.441 5.065 14.41 11.415 14.492 11.474l.549.441.697.077c.093.012 9.188 1.083 14.562 1.577 2.689.239 5.119.447 7.593.447 4.16-.001 7.38-.626 9.837-1.917zm.054-22.24c-2.243 7.177-4.885 13.534-7.827 19.145-.648.042-1.333.072-2.066.072-2.267 0-4.583-.197-7.147-.428-4.447-.411-11.504-1.214-13.73-1.475-1.924-1.53-8.493-6.75-13.958-11.052-.213-.174-.398-.333-.583-.481-.958-.817-2.052-1.746-4.273-1.746-2.011 0-4.951.738-12.058 2.887 3.696-2.76 3.72-6.326 3.72-6.326s-5.266 4.887-13.748 5.983c-8.48 1.088-15.14-4.12-15.14-4.12.28.905.672 2.952 2.594 4.696a61.837 61.837 0 0 0-7.254-.452c-.928 0-1.864.028-2.762.07-5.22.273-12.565 8.16-17.724 16.111a1016.82 1016.82 0 0 1-19.609 6.017c-8.553-11.849-12.76-23.955-13.183-25.21l.007-.006c-.174-.481-.351-.964-.506-1.458l2.196 1.535v.013l5.433 3.802 1.814 1.263c.274.195.596.291.917.291.114 0 .232-.011.351-.034l49.933-11.119a1.59 1.59 0 0 0 1.178-1.088l7.119-23.442c1.225-.167 2.308-.252 3.239-.252.915 0 2.005.084 3.231.252l7.332 24.139a1.596 1.596 0 0 0 1.346 1.124l3.41.388 46.842 5.326a1.63 1.63 0 0 0 1.096-.28l4.708-3.298 4.344-3.048 1.614-1.13a87.37 87.37 0 0 1-.856 3.331zm-11.147 1.177-48.607-5.528-7.319-24.091a1.582 1.582 0 0 0-1.274-1.121c-1.804-.291-3.393-.439-4.719-.439-1.341 0-2.923.148-4.732.439a1.596 1.596 0 0 0-1.274 1.121l-7.136 23.508-48.338 10.754-19.159-13.422-3.772-30.542c.821-.464 1.655-.928 2.499-1.394 1.191-.248 2.524-.522 4-.808l3.553 28.823c.059.452.303.856.672 1.113l13.183 9.23c.268.192.589.288.91.288.12 0 .226-.012.351-.038l39.744-8.842a1.597 1.597 0 0 0 1.179-1.089l7.16-23.567c1.916-.495 6.833-1.644 11.161-1.644 4.308 0 9.229 1.149 11.147 1.644l7.158 23.567a1.599 1.599 0 0 0 1.352 1.119l39.744 4.517c.381.042.779-.059 1.089-.28l13.188-9.224a1.63 1.63 0 0 0 .661-1.085l3.516-24.627c2.644.506 4.857.969 6.588 1.344l-3.892 27.218-18.633 13.056zm29.425-31.615c.59.477 1.047 1.727.523 7.534-.637 7.119-3.629 19.606-5.481 21.617-2.041.394-6.326-.078-8.938-.685.447-1.791.577-2.655.94-4.487l4.572-3.198c.362-.255.607-.649.667-1.083l3.195-22.376c1.939 1.055 3.932 2.184 4.522 2.678zm-5.41-12.754c-6.994-1.541-22.365-4.57-43.285-6.606 6.837-2.916 13.795-6.57 20.152-11.141 12.451 1.763 21.592 3.645 26.556 4.768l-3.423 12.979zm14.64-25.466c-.422 3.096-.993 6.173-1.834 9.143a48.232 48.232 0 0 1-1.421 4.373 36.402 36.402 0 0 1-.881 2.091c-.155.338-.316.672-.482.992l-.191.375c-.231.12-.47.238-.696.345l-1.388.661c-.487.227-.986.439-1.481.66l2.458-9.319c-.572-.155-5.939-1.547-15.159-3.255.286-.059.572-.127.852-.191a42.54 42.54 0 0 0 5.636-1.797 26.177 26.177 0 0 0 2.654-1.286c.851-.488 1.69-1.041 2.338-1.778-9.235 3.018-28.323 1.649-45.302-.102-15.509-1.602-31.073-2.636-46.708-2.672-15.634.036-31.185 1.071-46.706 2.672-16.969 1.75-36.055 3.119-45.292.102.649.738 1.489 1.291 2.34 1.778.85.483 1.749.9 2.654 1.286 1.826.738 3.72 1.322 5.63 1.797.672.161 1.362.309 2.041.434-8.409 1.6-13.29 2.863-13.832 3.012l2.565 9.785a1.558 1.558 0 0 1-.143.131c-.881-.394-1.946-.899-2.72-1.257l-1.387-.661a24.872 24.872 0 0 1-.696-.345l-.197-.375a32.55 32.55 0 0 1-1.351-3.083 48.48 48.48 0 0 1-1.429-4.373c-.838-2.969-1.404-6.047-1.832-9.143-.393-3.088-.607-6.208-.577-9.325a60.94 60.94 0 0 1 .207-4.667c.06-.774.149-1.541.239-2.308.071-.542.154-1.113.243-1.636 2.066-1.739 4.406-3.28 6.844-4.685 2.643-1.541 5.41-2.921 8.226-4.207 2.81-1.321 5.684-2.524 8.576-3.69 1.452-.583 2.91-1.155 4.368-1.697a225.07 225.07 0 0 1 4.417-1.635c-3.102.511-6.172 1.219-9.22 1.999a124.151 124.151 0 0 0-5.903 1.702C54.141 28.019 87.427 4.32 123.779 4.32c36.345 0 69.637 23.699 83.559 60.092a120.511 120.511 0 0 0-5.911-1.702c-3.04-.78-6.112-1.488-9.212-1.999 1.475.536 2.952 1.07 4.409 1.635 1.464.542 2.923 1.114 4.37 1.697 2.893 1.166 5.773 2.369 8.576 3.69 2.822 1.286 5.588 2.666 8.23 4.207 2.441 1.405 4.779 2.946 6.844 4.685.089.524.179 1.094.245 1.636.095.767.179 1.535.245 2.308.131 1.547.191 3.107.202 4.667a67.76 67.76 0 0 1-.578 9.327z"/></svg>