<svg xmlns="http://www.w3.org/2000/svg" width="16" height="16" viewBox="0 0 720 720"><path d="M95.1 333.8c6.1-1.6-14.5-3.5-7.4-5.8 0 6.5 64.6-61.6 65-55.7-.9.5-1.7.9-2.3 1.3-8.2 5.2-10 14.9-10.6 33.4-.3 9.5.5 28.1 2.7 45.4 3.8 29.7 7.3 33.6 12.3 35.6 2.5 1 6.4 2.2 10.3 2.7 7.9 1-45.8 77-38.4 76.1.1.6.2 1.2.3 1.9-3.4 6-6.8 9.1-6.8 9.1 11.7 35.3-9.7 54.9-9.7 54.9 8 36.6-25.2 45.3-25.2 45.3l-2.4 10.5c6.5 10.4 17.6 7.4 11.8 52.9s-36 53.1-36 53.1c2.3-7-10.7-23.8-10.7-23.8-43.3-85.4 22.2-83.8 22.2-83.8l.5-10.9s-18.9-22.9-17-38.2c1.9-15.3 10.3-28.5 10.3-28.5s-11.9-22.1-10-36.9c1.9-14.9 8-23.7 8-23.7s-8.5-19.4-6.3-36.9c2.2-17.6 12.4-29.1 12.4-29.1s18.6-14.8 20.7-31.5c1-7.5 3.6-13.3 6.3-17.4z" fill="#4a4440"/><path d="M152.5 272c.1 0 .2.1.2.4-.6.3-1.2.6-1.7.9.7-.8 1.2-1.3 1.5-1.3m-1.5 1.3c-1.9 2.3-5.3 7.6-9.2 13.9 1.5-6.4 4.1-10.7 8.6-13.6l.6-.3m-9.2 13.9c-1.2 5.1-1.7 11.6-2 19.8-.3 9.5.5 28.1 2.7 45.4 3.8 29.7 7.3 33.6 12.3 35.6 2.5 1 6.4 2.2 10.3 2.7 7.8 1-45.3 76.1-38.5 76.1h.1c.1.6.2 1.2.3 1.9-3.4 6-6.8 9.1-6.8 9.1 11.7 35.3-9.7 54.9-9.7 54.9 8 36.6-25.2 45.3-25.2 45.3l-2.4 10.5c-6.3 12.2 17.6 7.4 11.8 52.9-5.7 45.5-36 53.1-36 53.1.6-26.5-21.9-49.7-21.3-68.9 1.1-35.5 22.1-38.8 29.9-38.8 1.8 0 2.9.2 2.9.2l.5-10.9s-18.9-22.9-17-38.2c1.9-15.3 10.3-28.5 10.3-28.5s-11.9-22.1-10-36.9c1.9-14.9 8-23.7 8-23.7s-8.5-19.4-6.3-36.9c2.2-17.6 12.4-29.1 12.4-29.1s18.6-14.8 20.7-31.5c.9-7.5 3.6-13.3 6.3-17.4 6.1-1.6 12.8-3.5 19.9-5.8 0 .3.1.4.2.4 2 0 16.2-24.6 26.6-41.3m25.9-62.7-26 42c-3.4 2.8-6.1 6.3-8.1 10.6l-30.1 36.3 14.6-8.5c-3.2 5.3-6.5 10.4-8.5 13.4-5.7 1.8-11.6 3.5-17.5 5l-4.1 1.1-2.3 3.5c-4.3 6.6-6.9 14-7.9 21.9-1.3 10-12.8 21.2-16.7 24.3l-.8.6-.6.7c-.5.6-12.4 14.3-15 34.9-1.8 14.5 2.4 29.6 5.1 37.4-2.4 4.9-5.5 12.8-6.8 23.2-1.7 13.3 4.6 29.5 8.5 38-3 6-7.4 16.1-8.8 27.4-1.8 14.5 8.3 31.4 14.9 40.6-15.8 3.9-30.2 17.9-31.2 48.2-.4 11.6 4.9 22.6 10.5 34.2 5.4 11.4 11 23.2 10.8 34.8l-.3 14.3 13.9-3.5c1.5-.4 37.5-10 44.1-62.3 4.2-33.2-6.3-44.9-11.9-51.3l-.2-.2.1-.3 1.1-4.7c14-6.2 31.4-21.8 27.6-50.3 6.5-8.4 17.2-27.5 10.2-55.5 1.3-1.7 2.7-3.9 4.2-6.4l1.9-3.3-.6-3.8c-.1-.4-.1-.9-.2-1.3 2.7-5.7 10.3-18.2 16.1-27.8 21.8-35.9 25.7-43.7 21.9-51.5-1.7-3.6-5.1-6-9.1-6.5-2.8-.4-5.7-1.2-7.5-1.9-.9-1.4-3.1-6.9-5.6-26.9-2.1-16.7-2.9-34.5-2.6-43.6.3-7.4.7-12.4 1.4-16.1 3.1-5 5-7.9 6.2-9.5l5.9-3-.3-3.9 34.6-41.7-37.9 21.9 7-30.5z" fill="#2d3136"/><path d="M80.1 583.4c-1.9 0-3.7-1-4.7-2.8-1.5-2.6-1.6-3.7 2-7.4.1-.1 17.5-15.4 17.5-15.4s-8.1 20.7-8.5 21c-.9.5-5.4 4.6-6.3 4.6zM54.5 618c-3.6-16-2.7-19.1-1.1-23.2 3.6-9.2 7.7-11 8.1-11.2 2.4-1.8 5.8-1.3 7.6 1.2 1.8 2.4 1.3 5.8-1.1 7.6-.3.2-3.9 2.5-7.9 8-1.8 2.5-3.1 5.9-5.6 17.6z" fill="#2d3136"/><path fill="#f4edae" d="m57.7 576.8 37.4 8.5-2.5 9-36-9z"/><path d="m57.7 576.8 37.4 8.5-2.5 9-36-9 1.1-8.5m0-5.5c-1.1 0-2.2.3-3.1 1-1.3.9-2.1 2.3-2.3 3.8l-1.1 8.5c-.3 2.7 1.4 5.3 4.1 6l36 9c.4.1.9.2 1.3.2 2.4 0 4.6-1.6 5.3-4l2.5-9c.4-1.4.2-3-.6-4.3-.8-1.3-2-2.2-3.5-2.5l-37.4-8.5c-.4-.1-.8-.2-1.2-.2z" fill="#2d3136"/><path d="M655.1 333.8c-6.1-1.6-12.8-3.5-19.9-5.8 0 6.5-64.6-61.6-65-55.7.9.5 1.7.9 2.3 1.3 8.2 5.2 10 14.9 10.6 33.4.3 9.5-.5 28.1-2.7 45.4-3.8 29.7-7.3 33.6-12.3 35.6-2.5 1-6.4 2.2-10.3 2.7-7.9 1 45.8 77 38.4 76.1-.1.6-.2 1.2-.3 1.9 3.4 6 6.8 9.1 6.8 9.1-11.7 35.3 9.7 54.9 9.7 54.9-8 36.6 25.2 45.3 25.2 45.3l2.4 10.5c-6.5 10.4-17.6 7.4-11.8 52.9s36 53.1 36 53.1c-2.3-7 10.7-23.8 10.7-23.8 43.3-85.4-22.2-83.8-22.2-83.8l-.5-10.9s18.9-22.9 17-38.2c-1.9-15.3-9.7-28.3-9.7-28.3s11.3-22.2 9.4-37.1c-1.9-14.9-8-23.7-8-23.7s8.5-19.4 6.3-36.9c-2.2-17.6-12.4-29.1-12.4-29.1s8.7-14.8 6.5-31.5c-.9-7.5-3.6-13.3-6.2-17.4z" fill="#4a4440"/><path d="M570.6 272c5.1 0 59.1 56.5 64.2 56.5.3 0 .4-.1.4-.4 7.1 2.2 13.8 4.2 19.9 5.8 2.7 4.1 5.3 9.9 6.3 17.4 2.1 16.7-6.5 31.5-6.5 31.5s10.1 11.5 12.4 29.1c2.2 17.6-6.3 36.9-6.3 36.9s6.1 8.8 8 23.7c1.9 14.9-9.4 37.1-9.4 37.1s7.8 13 9.7 28.3c1.9 15.3-17 38.2-17 38.2l.5 10.9s1.1-.2 2.9-.2c7.8 0 28.8 3.3 29.9 38.8.6 19.3-21.8 42.4-21.3 68.9 0 0-30.2-7.6-36-53.1-5.7-45.5 18.1-40.6 11.8-52.9l-2.4-10.5s-33.2-8.7-25.2-45.3c0 0-21.4-19.6-9.7-54.9 0 0-3.4-3.1-6.8-9.1.1-.7.2-1.4.3-1.9h.1c6.7 0-46.3-75.1-38.5-76.1 3.9-.5 7.8-1.7 10.3-2.7 5-1.9 8.5-5.8 12.3-35.6 2.2-17.3 3-35.9 2.7-45.4-.7-18.4-2.4-28.1-10.6-33.4-.6-.4-1.4-.8-2.3-1.3-.1-.2 0-.3.3-.3m0-10.9c-6 0-10.9 4.5-11.3 10.6l-.5 7.2 6.4 3.3c.9.5 1.3.7 1.4.8 3.1 2 4.9 6.5 5.6 24.5.3 9.1-.5 27-2.6 43.6-2.6 20-4.7 25.4-5.6 26.9-1.8.7-4.7 1.6-7.5 1.9-4 .5-7.4 2.9-9.1 6.5-3.8 7.9.1 15.6 21.9 51.5 5.8 9.5 13.4 22.1 16.1 27.8-.1.4-.1.8-.2 1.3l-.6 3.8 1.9 3.3c1.4 2.5 2.9 4.7 4.2 6.4-7.1 28 3.7 47.1 10.2 55.5-3.8 28.5 13.6 44.1 27.6 50.3l1.1 4.7.1.3-.2.2c-5.6 6.3-16.1 18.1-11.9 51.3 6.6 52.3 42.6 61.9 44.1 62.3l13.9 3.5-.3-14.3c-.2-11.7 5.4-23.4 10.8-34.8 5.6-11.7 10.8-22.7 10.5-34.2-.9-30.3-15.4-44.3-31.2-48.2 6.5-9.2 16.7-26 14.9-40.6-1.4-11.3-5.6-21.4-8.4-27.3 3.6-8.4 9.7-24.8 8-38.2-1.3-10.4-4.4-18.4-6.8-23.2 2.7-7.8 7-22.9 5.1-37.4-1.6-12.8-6.8-22.9-10.6-28.9 2.9-7 6.4-18.8 4.8-31.7-1-8-3.7-15.3-7.9-21.9l-2.3-3.5-4.1-1.1c-6.6-1.8-13.1-3.7-19.5-5.6l-1.3-.4c-5.4-4.3-18.2-16.5-27.1-25-29.7-28.3-33.4-31.2-39.6-31.2z" fill="#2d3136"/><path d="M606.3 541.6c-1.3 0-2.6-.5-3.7-1.4-2.2-2-2.4-5.5-.4-7.7l13.4-9.8-4.3 17.2c-1 1.2-3.5 1.7-5 1.7zm59.7-25.2c-1.7 0-5.5-5.5-6.5-6.9l-9-19.6 19.9 17.9c1.8 2.4 1.3 5.8-1.2 7.6-.9.6-2.1 1-3.2 1zm-608.2 0c-1.1 0-2.3-.3-3.2-1.1-2.4-1.8-3-5.2-1.2-7.6l19.9-17.9-9.3 19.5c-1.1 1.5-4.5 7.1-6.2 7.1z" fill="#2d3136"/><path fill="#856a5b" d="M93.3 320.6v135.8l10.9 40.9 36.9 19.8 22.5 54.6 18.4 26.6L563.3 573l29.4-70.3 16.4-48.4 23.8-128.9L361.4 296z"/><path fill="#856a5b" d="m363 508.4 67.3 10.5 8.7.4 18.6 6.4 101 35 7.2 5.9-38.2 55.1-54.1 49.6-64.6 25-56.8 3.1-48.7-8.1-60.5-29.1-45.4-40.1-22.3-32.3 14.1-10.4 107.3-55.5z"/><path d="M534.9 603s-87.8 79.1-168.3 79.1S199.3 613 199.3 613 247 699.4 373 699.4 534.9 603 534.9 603z" fill="#695348"/><path d="m128.5 504.8-.2-.2-18.1-12.6-.3-.5c-.7-.7-1.2-1.5-1.5-2.4l-.3-.5-8.7-71.6c-6.5 3.5-13.9 7.7-15.9 9.4-1.7 1.4-3.1 5.1-1.2 22.2 1.4 12.8 5.9 32.5 10.5 47.3 0 .1.1.2.1.3 9.1 6.9 22.5 14.2 36.3 11.6l1.2 4.2h.2c-.4-1.4-.8-2.8-1.3-4.3-.2-1.1-.5-2-.8-2.9zm512.8-89.2c-1.7-1.4-12.5-7.4-13.8-8.1l-9.7 68.1c-.2 1.3-.9 2.5-2 3.3l-.1.1-5.2 3.6-8.6 6c-.3 1.7-.6 3.1-.9 4.4 13.6 3.3 26.8-6.5 34.3-13.6-3.1 12-6.5 21.9-9.1 24.9h.1c5.6-6.1 14.7-44.1 16.7-65.8 1.5-17.7.1-21.5-1.7-22.9z" fill="#856a5b"/><path d="m132.9 495.2 8.2 25.2s66.2 28 124.2 10.9 78.5-62.1 85.3-87.3-13.7 11-13.7 11-73.7 45.7-117.3 45.7-86.7-5.5-86.7-5.5zm461.9 0-8.2 25.2s-66.2 28-124.2 10.9-78.5-62.1-85.3-87.3c-6.8-25.2 13.6 10.9 13.6 10.9s73.7 45.7 117.3 45.7 86.8-5.4 86.8-5.4z" fill="#695348"/><path d="M600.9 493c-.6 3.1-1.1 5.5-2.1 9.3 8 1.9 21 3.3 27.2 2.1 2.7-2.9 6.1-13 9.2-25-7.4 7.1-20.6 17-34.3 13.6zm-470.4 18.9c-.4-1.4-.8-2.8-1.3-4.3-13.9 2.6-27.4-4.8-36.5-11.8 3 9.5 5.9 16.9 8.2 19.2 6.8 1.3 22.1-.9 29.6-3.1z" fill="#856a5b"/><path d="M584.2 523s48-25.5 58-52 2.5-46 2.5-46-8 48-51.5 70l-9 28zm-442.8-3s-48-25.5-58-52-2.5-46-2.5-46 8 48 51.5 70l9 28z" fill="#695348"/><path d="M594.7 518c7.3 1.8 18.1 1.5 26 1.5 3.9 0 7.9-.7 10.5-1.3 5.2-1.3 9.1-4.7 16.6-33.8 4.4-16.9 7.5-35.2 8.3-44.7 1.7-18.4 1.1-28.2-6.4-34.4-3.7-3.1-14.5-8.9-20.1-11.8h-.3l-2 13.9s12.1 6.7 13.9 8.2c1.8 1.5 3.2 5.3 1.6 22.9-1.9 21.7-11 59.7-16.7 65.8-6.2 1.2-19.3-.2-27.2-2.1 1.3-5.5 1.8-8.1 2.8-13.7l-13.6 9.5c-.8 3.4-1.7 6.8-2.6 10.2-1.4 4.4-2.8 8.7-4.3 12.8-5.8 16.7-12.4 31.8-19.6 45.5h-.1v.1s5.8 1.1 15.1-3.2l.2-.1c10.7-21.5 16.1-38.7 17.9-45.3zm-422.5 82.1 12.8-3.7c.1 0 .2-.1.2-.1v-.1s-27.6-45.9-33.9-60.8c-3.7-8.7-5.7-14.6-6.2-16-.5-1.4-1-2.8-1.4-4.2l-5.7-13.8-14.8-10.4c.3.9 6 15.5 6.3 16.5.4 1.4.8 2.9 1.3 4.3-7.5 2.2-22.7 4.3-29.6 3.1-2.2-2.3-5.2-9.7-8.2-19.2-4.6-14.8-9.1-34.5-10.5-47.3-1.9-17.1-.6-20.7 1.2-22.2 2-1.7 9.4-5.9 15.9-9.4l-1.7-14c-3.4 1.8-18.2 9.5-22.6 13.3-7.4 6.2-7.8 15.8-5.8 33.7 1 9.2 4.5 27 9.1 43.4 8 28.1 13.9 33.1 19 34.3 2.3.6 5.3.8 8.7.8 9.2 0 21-1.8 28.7-4.1 9 28 21.8 53.4 37.3 75.6-.2.1-.1.3-.1.3z" fill="#2d3136"/><path d="m92.4 337.3 2.9 10.9c8.1-6.5 15.5-11.8 21.8-16.1-10.2 2.1-18.5 3.9-24.7 5.2z" fill="#9a9c9e"/><path d="m399.6 363.7-6.5-3.5c-.7-.3-12-5.9-27.9-5.2h-1.4c-16.3-.7-27.8 5.2-28 5.2l-6.6 3.6-6.9-2.8c-62-23.9-110.4-26.7-146-28.2l-63.5 11.3c-1.6.4-3.2.9-4.5 1.3 1.3 55.7 12.6 92.9 34.4 113.4 19 17.9 47.3 25.5 94.6 25.5 73.1 0 83.3-69.3 83.7-72.3l1.2-8.7 7.9-3.8c.2-.1 19-8.1 34.5-8.1 15.6 0 34.4 8 34.5 8.1l7.9 3.8 1.2 8.7c.4 2.9 11.2 72.3 83.7 72.3 47.3 0 75.6-7.6 94.6-25.5 21.3-20 32.5-56 34.2-109.5l-88.4-20.5c-33 3.4-74.7 12.5-125.5 32.1l-7.2 2.8z" fill="#695348"/><path d="M699.1 404.3s-131-40.9-155.5-108.2l114.3 13.6s-8.8 47.3 41.2 94.6zM225.9 266.7l-72.5 29.5s5 10.3 5.9 27.7l-86.6 10.3s-2.1 47.3-52.1 94.6c0 0 106.9-25.7 160.7-91.7-4.7 28.4-19.8 42.8-37.3 61.1 0 0 83.7-25.2 136.2-102.9-3.1 11.9-13.2 50-21.8 64.1 0 0 286.7-71.6 292.7-143l-327.7 43.3c0 .1 1.2 2.6 2.5 7z" fill="#4a4440"/><path d="m720 416.5-22.5-7c-5.5-1.7-133.8-42.5-159-111.6l-3-8.3L664.3 305l-1.1 5.7c-.1.7-7.3 45.3 39.6 89.6l17.2 16.2zM552.4 302.6c22.7 43.7 92.3 75.3 127.5 89-27.1-33.6-28.7-64.6-28-77.1l-99.5-11.9zM0 440.8l16.8-15.9c47.6-45 50.4-90.4 50.4-90.9l.2-4.6 4.6-.6 81.4-9.7c-1.4-12.9-5-20.5-5-20.6l-2.5-5.2 5.3-2.2 67.8-27.5c-.4-.9-.6-1.4-.6-1.5l-3.1-6.7 7.3-1.1L529.8 210l-.6 6.8c-2.6 31.8-49.2 66.4-138.3 102.9-65.2 26.6-130.4 44.7-131.1 44.9l-13.3 3.7 7.1-11.8c2.8-4.6 7.2-14.4 13.5-35.3-51.9 60.6-118.5 81.3-121.7 82.2l-19.8 6 14.3-14.9c7.9-8.2 23.1-25.5 33.6-45.3C119.4 404 26.4 432.6 22 434l-22 6.8zm77.7-101.6c-1.6 11.6-8.5 42.9-37.6 77.1 12.1-4.6 28.2-11.2 45.6-19.8 32.7-16.2 76.4-42.9 99.3-78.1l14.3-21.9-4.3 25.8c-3.9 23.3-19.1 46.5-32.1 62.9 27.7-12.5 77.7-40.7 112.8-92.7l17.9-26.5-8.1 31c-6.3 24-11.9 42.1-16.8 54.1 21.6-6.4 70-21.4 118.3-41.2 93.7-38.3 123.3-67.4 130-86.7l-286 41.2.3.9 1.4 4.7-72.2 29.3c1.7 5 3.8 13.4 4.4 24.4l.3 5.1-87.5 10.4z" fill="#2d3136"/><path d="M670.4 256.7c-.2-2.4-.4-4.7-.7-7-.2-1.7-.5-3.4-.8-5-6.3-5.3-13.4-10-20.8-14.2-8-4.7-16.5-8.9-25.1-12.8-8.5-4-17.3-7.7-26.1-11.2-4.4-1.8-8.8-3.5-13.3-5.2-4.4-1.7-8.9-3.4-13.4-5 9.4 1.6 18.8 3.7 28.1 6.1 6 1.5 12 3.3 18 5.2-42.4-110.9-143.8-183-254.4-183-110.7 0-212 72.2-254.4 182.9 5.9-1.9 12-3.6 18-5.2 9.3-2.4 18.6-4.5 28.1-6.1-4.5 1.6-9 3.3-13.5 5-4.4 1.6-8.9 3.4-13.3 5.2-8.8 3.6-17.6 7.2-26.1 11.2-8.6 3.9-17 8.1-25 12.8-7.4 4.3-14.6 9-20.8 14.2-.3 1.6-.5 3.3-.7 5-.3 2.3-.5 4.7-.7 7-.4 4.7-.6 9.5-.6 14.2-.1 9.5.5 19 1.7 28.4 1.3 9.4 3 18.8 5.6 27.8 1.3 4.5 2.7 9 4.3 13.3.8 2.2 1.7 4.3 2.7 6.4.5 1 .9 2.1 1.4 3l.6 1.2c.7.3 1.4.7 2.1 1l4.2 2c2.4 1.1 5.6 2.6 8.3 3.8.2-.1.3-.3.4-.4l-7.8-29.8c1.7-.4 16.5-4.3 42.1-9.2-2.1-.4-4.1-.8-6.2-1.3-5.8-1.5 53.9-9.8 105.5-15.1 47.2-4.9 94.6-8 142.2-8.1 47.6.1 95 3.3 142.2 8.1 51.7 5.3 125.5 8.5 122.7 9.7-5.6 2.2-11.3 4-17.1 5.5-.9.2-1.7.4-2.6.6 28.1 5.2 44.4 9.4 46.2 9.9l-7.5 28.4c1.5-.7 3-1.3 4.5-2l4.2-2c.7-.3 1.4-.7 2.1-1l.6-1.2 1.5-3c.9-2.1 1.8-4.2 2.7-6.4 1.6-4.3 3.1-8.8 4.3-13.3 2.6-9.1 4.3-18.4 5.6-27.8 1.2-9.4 1.9-18.9 1.8-28.4-.2-4.7-.4-9.5-.8-14.2z" fill="#f4edae"/><path d="M478.3 201.6c.4 12.7.1 35.7-5.8 57.2-.2.8-.2 1.7 0 2.5-7.5-.8-15-1.5-22.6-2.1 8.4-17.7 10.3-36.5 10.7-43.2 6.5-4.6 12.9-10.1 17.7-14.4zM263.1 216c.4 6.6 2.2 25.4 10.7 43.1-7.5.6-15 1.3-22.6 2.1.2-.8.2-1.6 0-2.4-5.9-21.5-6.2-44.5-5.8-57.2 4.8 4.3 11.2 9.8 17.7 14.4z" fill="#ebd599" opacity=".75"/><path d="M502.2 302.1c-23.8-2.5-47.7-4.5-71.6-5.9-23.5-1.4-47-2.2-70.5-2.2-23.4.1-46.8.8-70.1 2.2-24.1 1.4-48.1 3.4-72.1 5.9-51.7 5.3-111.4 13.7-105.5 15.1 1.1.3 2.1.5 3.2.7 1 .2 2 .5 3 .6 0 0 22.8-.4 64.1-.8.4 0 .8-.1 1.2-.1 4.8-.4 9.6-.7 14.4-1 5.7-.4 11.5-.8 17.2-1.1 1.2-.1 2.4-.2 3.6-.2 3-.2 6.1-.3 9.1-.5 7.1-.4 14.3-.8 21.4-1.1 10.1-.5 20.3-.9 30.4-1.3l44.5-1.2c11.9-.2 23.8-.4 35.6-.4 8.1 0 16.2.1 24.3.2h-.1.1l69 1.9c15.9.7 31.9 1.4 47.8 2.3 4.4.2 8.7.5 13 .8.3 0 .6 0 .9.1 5.1.3 10.2.7 15.3 1.1 24.2.1 49.1.3 74.8.6.9-.2 1.7-.4 2.6-.6 5.7-1.4-54-9.8-105.6-15.1zm148.1 281.3c-.9 0-1.8-.2-2.7-.7-.5-.3-12.1-24.9-12.1-24.9s17.4 15.4 17.5 15.4c2.6 1.5 3.5 4.8 2 7.4-1 1.8-2.8 2.8-4.7 2.8z" fill="#2d3136"/><path d="M236.2 197.6 164.4 218c-4.3 27.9-3 49.2-2.3 56.7l.4-.2s2.3-30.4 7.1-42.1c2.5-6 17.5-9.8 28.9-12.6 11.5-2.7 29.8-8.2 33.3 7.9 2.2 10 5.2 18.2 8.1 24.4-4.6-22.1-4.3-43.8-3.7-54.5zm251.3 0c.6 11.1.9 34-4.3 57.1 3.3-6.3 6.9-15.5 9.4-26.9 3.6-16.1 21.9-10.7 33.3-7.9 11.5 2.7 26.5 6.6 29 12.6 4 9.9 6.3 33.2 6.9 40.1.7-8.9 1.4-28.9-2.5-54.5l-71.8-20.5zm-225 6.2c2.5 2 5.2 4 7.8 5.8 1.3.9 2 2.3 2.1 3.8 0 .2.6 23.9 11 44 .2.3.3.6.4.9 26-1.8 52.1-2.5 78.1-2.5 26 0 52.1.8 78.1 2.6.1-.3.2-.7.4-1 10.4-20.1 11-43.8 11-44 0-1.5.8-3 2.1-3.8 2.5-1.7 5-3.6 7.5-5.6l.3-.9c5.4-52.9-4.5-101.7-10.9-125.8-.4 16.5-4.3 157.7-39.3 157.7h-96.7c-37.2 0-40.2-159.2-40.2-159.2l-1.9 5.7c-6.3 25.4-15.1 72-9.8 122.3zm-109.3 75.7c0-.2-.1-.4-.1-.6-.1-.8-1.9-14-.8-34.8-3.9 15.9-11 36.8-22.1 44 6.7-3.1 13.6-5.5 20.6-7.8.8-.3 1.6-.6 2.4-.8z" fill="#ebd599" opacity=".75"/><path d="M443.4 678.1C417 688.8 392.1 693 373 694.2c-19.1 1.3-38.5-1-57.5-6.1-.1 0-.2 0-.3.1l-25.4 3.7c48.7 17.8 102.4 18.9 153.3-.4 13.9-5.3 26.5-11.7 38.1-18.8-.6.1-22.2 5.1-37.7 5.5 0 0 0-.1-.1-.1z" fill="#2d3136"/><path d="M185.2 596.2s52.7 74.4 130 91.9l-9.7 4.2-15.7-.5s-60.8-17.4-117.7-92l.7-10.2 12.4 6.6zm410.3-307.1s-.1 0-.1-.1c-.6-.3-1.3-.7-1.9-1.1-6.6-3.1-13.6-5.4-20.6-7.7-.8-.3-1.6-.5-2.5-.7.1-.2.1-.4.2-.6.1-.8 1.9-14 .8-34.8-.5-8.9-1.4-19.2-3.3-30.5-.3-1.8-1.6-3.3-3.4-3.8l-10.2-2.9c-2.2-79.2-34.8-116.4-35.8-117.6 29.1 46.9 28.9 102.5 28.4 115.5l-63.5-18h-.1c-.3-.1-.5-.1-.8-.1h-.2c-.3 0-.7 0-1 .1h-.2c-.3.1-.5.1-.8.3-.1 0-.2.1-.3.1-.2.1-.4.3-.6.4l-.1.1c-.1 0-.1.1-.1.1-.1.1-.1.1-.2.1-.1.1-1.8 1.7-4.4 4.2.2-5.9.2-15-.4-26.1-.1-1-.1-2.1-.2-3.2-2-27.9-8.6-67-28.3-101.3.2.5 2.1 6.2 4.6 15.8 6.3 24.1 16.3 72.9 10.9 125.8 0 .2 0 .5-.1.7-.1.1-.2.1-.3.2-2.5 2-5 3.9-7.5 5.6-1.3.9-2 2.3-2.1 3.8 0 .2-.6 23.9-11 44-.2.3-.3.7-.4 1-26-1.8-52-2.5-78.1-2.6-26 0-52.1.7-78.1 2.5-.1-.3-.2-.6-.4-.9-10.5-20.1-11-43.8-11-44 0-1.5-.8-3-2.1-3.8-2.6-1.8-5.3-3.7-7.8-5.8-5.3-50.3 3.4-97 9.8-122.4 3-12.1 5.5-19.3 5.7-19.9-28.6 49.7-29.5 109.7-28.9 130.6-2.7-2.5-4.4-4.2-4.4-4.2s-.1-.1-.2-.1l-.1-.1s-.1-.1-.2-.1c-.2-.1-.4-.3-.6-.4-.1-.1-.2-.1-.3-.2-.3-.1-.5-.2-.8-.3-.1 0-.1-.1-.2-.1-.4-.1-.7-.1-1-.1h-.3c-.3 0-.5.1-.8.1h-.2l-63.4 18c-.5-13-.8-68.6 28.4-115.5-1 1.2-33.6 38.4-35.8 117.6l-10.2 2.9c-1.8.5-3.1 2-3.4 3.8-1.9 11.3-2.8 21.5-3.3 30.4-1.1 20.8.7 34.1.8 34.8 0 .2.1.4.1.6-.8.3-1.6.5-2.5.7-7 2.3-14 4.7-20.6 7.8-.6.4-1.2.8-1.9 1.1 0 0-.1 0-.1.1-.3.2-1.6.8-3 1.5-.6.3-1.1.5-1.6.8-.3.2-.7.4-1 .5 4.7-1.8 9.6-3.2 14.4-4.4 4.9-1.2 9.8-2.3 14.7-3.2 9.9-1.8 19.8-3.4 29.7-4.6 9.9-1.3 19.9-2.4 29.9-3.2 10-.9 20-1.7 30-2.3 40.1-2.4 80.2-3.1 120.4-3.1s80.4.7 120.4 3.1c10 .6 20 1.4 30 2.3 10 .9 20 1.9 29.9 3.3 10 1.2 19.9 2.8 29.7 4.6 4.9.9 9.8 2 14.7 3.2 4.9 1.2 9.7 2.5 14.5 4.4-.3-.2-.5-.3-.8-.4l-1.8-.9c-1.1-.7-2.3-1.3-2.7-1.4zm-355.1-26.7c-10.1 1.2-20.2 2.5-30.2 4.2-10 1.7-20 3.5-29.9 5.7-6 1.4-12 2.9-18 4.5-.1-.5-.1-1.2-.2-2.1-.7-7.4-2-28.7 2.3-56.7l71.8-20.4c-.5 10.7-.8 32.3 3.8 54.5.6 3.1 1.4 6.1 2.2 9.2l.3.9c-.7.1-1.4.1-2.1.2zm10.8-1.2c.2-.8.2-1.6 0-2.4-5.9-21.5-6.2-44.5-5.8-57.2 4.8 4.3 11.2 9.8 17.7 14.4.4 6.6 2.2 25.4 10.7 43.1-7.6.7-15.1 1.3-22.6 2.1zm221.3-2.4c-.2.8-.2 1.7 0 2.5-7.5-.8-15-1.5-22.6-2.1 8.4-17.7 10.3-36.5 10.7-43.2 6.5-4.6 12.9-10.1 17.7-14.4.4 12.7.1 35.7-5.8 57.2zm89.3 13.7c-.2 2.1-.3 3.6-.4 4.3-5.9-1.6-11.9-3.1-18-4.5-19.9-4.4-39.9-7.6-60.1-9.9-.7-.1-1.4-.1-2.1-.2.1-.3.3-.6.3-.9.6-2.2 1.1-4.4 1.6-6.6 5.2-23 4.9-46 4.3-57.1l71.8 20.4c4.1 25.6 3.3 45.6 2.6 54.5z" fill="#2d3136"/><path d="M366.5 245.9h33.7v-45.4h-14.4V120h9.5v17.4h42.2V77.8H288.9v59.6h42.2V120h9.5v80.4h-14.3v45.4h40.2zm-27.6-32.7h14.4V107.4h-34.9v17.4h-16.9V90.5h123.3v34.3H408v-17.4h-34.9v105.8h14.4v19.6H339v-19.6z" fill="#2d3136"/><path d="M80.5 356.4c-1.8-.8-3.6-1.7-5.1-2.4l-4.2-2c-.7-.3-1.4-.7-2.1-1l-.6-1.1c-.5-1-1-2-1.4-3-.8-1.8-1.6-3.6-2.3-5.5-.1-.3-.2-.5-.3-.8-1.6-4.3-3.1-8.8-4.3-13.3-2.5-9-4.3-18.4-5.6-27.8-.4-3-.7-6-1-9-.6-6.4-.9-12.9-.8-19.3 0-2.1.1-4.2.2-6.4.1-2.6.2-5.2.5-7.9.2-2.4.5-4.7.7-7 .2-1.6.5-3.4.7-5 6.3-5.3 13.4-10 20.8-14.3 8-4.7 16.5-8.9 25-12.8 8.6-4 17.3-7.7 26.1-11.2 4.4-1.8 8.9-3.5 13.3-5.2.6-.2 1.2-.4 1.8-.7 3.9-1.5 7.7-2.9 11.6-4.3-9.4 1.6-18.8 3.7-28.1 6.1-6 1.5-12 3.3-18 5.2 42.4-111 143.8-183.1 254.5-183.1 17.3 0 34.4 1.8 51 5.2 89.9 18.3 167.6 84.3 203.4 177.8-5.9-1.9-12-3.6-18-5.2-9.3-2.4-18.6-4.5-28-6.1 3.9 1.4 7.8 2.8 11.7 4.3.6.2 1.2.4 1.7.6 4.5 1.7 8.9 3.4 13.3 5.2 8.8 3.6 17.6 7.2 26.1 11.2 8.6 3.9 17 8.1 25.1 12.8 7.4 4.3 14.6 9 20.8 14.3.3 1.6.6 3.3.8 5 .3 2.3.5 4.7.7 7 .4 4.7.6 9.5.6 14.2.1 9.5-.6 19-1.8 28.4-1.3 9.4-3 18.8-5.6 27.8-1.3 4.5-2.7 9-4.3 13.3-.8 2.2-1.7 4.3-2.7 6.4-.5 1-1 2.1-1.5 3l-.6 1.2c-.7.3-1.4.7-2.1 1l-4.2 2c-1.5.7-3 1.3-4.5 2l-9.6 36.5 5.1-19.2c1.8-.8 3.7-1.5 5.8-2.4 3.1-1.2 6.1-2.4 9.2-3.7l4.5-2c1.6-.7 3-1.4 4.7-2.3l1.6-.8 1-1.6c.6-.9.9-1.3 1.2-2l1-1.8c.7-1.2 1.3-2.4 1.8-3.6 1.1-2.4 2.2-4.8 3.1-7.3 1.9-4.9 3.5-9.7 4.9-14.7 2.7-9.9 4.6-20 5.7-30.1 1.2-10.1 1.4-20.4.9-30.6-.2-5.1-.8-10.2-1.5-15.2-.3-2.5-.7-5.1-1.2-7.6-.5-2.6-1-5-1.8-7.8l-.5-2-1.4-1.1c-8-6.3-16.7-11.1-25.5-15.3-7.3-3.4-14.6-6.4-22.1-9.2-20.8-57.7-56.6-108.9-103.6-144.6-48.6-36.9-105.7-56.4-165.3-56.4-59.5 0-116.7 19.5-165.3 56.4-47 35.7-82.8 86.8-103.6 144.6-7.4 2.7-14.8 5.7-22.1 9.2-8.8 4.2-17.5 9-25.5 15.3l-1.4 1.1-.5 2c-.8 2.8-1.3 5.2-1.8 7.8-.5 2.5-.9 5-1.2 7.6-.7 5-1.2 10.1-1.5 15.2-.5 10.2-.2 20.4.9 30.6 1.1 10.1 3 20.2 5.7 30.1 1.4 4.9 3 9.8 4.9 14.7.9 2.4 2 4.8 3.1 7.3l1.8 3.6 1 1.8c.4.7.6 1.1 1.2 2l1 1.6 1.6.8c1.7.9 3.1 1.6 4.7 2.3l4.5 2c.8.3 1.6.7 2.5 1l11.7-10.4c-.8-.4-1.9-.9-3-1.4z" fill="#2d3136"/><path fill="#cb3349" d="M338.9 213.2h14.4V107.4h-34.9v17.4h-16.9V90.5h123.3v34.3H408v-17.4h-34.9v105.8h14.3v19.6h-48.5z"/><path d="M481.2 672.7s67.8-43 95.6-109.2l-8.4-3.1-6.6 6.1s-48.9 82-118.3 111.6l-.9 4.7 38.6-10.1zm-71.8-162.5s-16 14.9-41.9 18.2c-25.8 3.3-46.1-12.5-46.1-12.5.9 2.7 2.1 8.9 7.8 14.2h-.1.2c1.1 1.4 12.6 10.9 35.6 10.9 17.4 0 30.5-10.1 32.7-11.6l.5-.1h-.1c11.3-8.3 11.4-19.1 11.4-19.1z" fill="#2d3136"/><path d="M491.8 517.1c-73.7 0-105.5-54.4-114.2-90.4-4.4-1.3-9.5-2.4-13.1-2.4-3.6 0-8.6 1.1-13.1 2.4-8.7 36-40.5 90.4-114.2 90.4-97.1 0-161.8-31.1-161.8-182.8v-8.6l7-4.9c3.3-2.3 80.8-54.2 245.4 7.2 7.6-2.8 20.6-6.4 36.7-5.8 16.1-.6 29.1 3 36.7 5.8 164.5-61.4 242.1-9.5 245.4-7.2l7 4.9v8.6c0 151.7-64.7 182.8-161.8 182.8zM364.5 391.5c15.5 0 34.3 8 34.5 8l7.9 3.8 1.2 8.7c.4 2.9 11.2 72.3 83.7 72.3 47.3 0 75.6-7.6 94.6-25.5 22-20.7 33.2-58.3 34.4-114.8-8.1-3.7-23.2-9.1-45.6-11.7-33.1-3.8-89.3-1.9-168.5 28.6l-7 2.7-6.5-3.5c-.7-.3-12-5.9-27.9-5.2h-1.4c-16.3-.7-27.8 5.2-28 5.2l-6.6 3.6-6.9-2.8c-79.2-30.5-135.3-32.4-168.5-28.6-22.3 2.6-37.4 8-45.6 11.7 1.1 56.5 12.4 94.1 34.4 114.8 19 17.9 47.3 25.5 94.6 25.5 73.1 0 83.3-69.3 83.7-72.3l1.2-8.7 7.9-3.8c0-.1 18.9-8 34.4-8z" fill="#979595"/><path d="M665.3 618c3.6-16 2.7-19.1 1.1-23.2-3.6-9.2-7.7-11-8.1-11.2-2.4-1.8-5.8-1.3-7.6 1.2-1.8 2.4-1.3 5.8 1.1 7.6.3.2 3.9 2.5 7.9 8 1.8 2.5 3.1 5.9 5.6 17.6z" fill="#2d3136"/><circle cx="248.9" cy="397" r="10.9" fill="#fff"/><circle cx="481.7" cy="397" r="10.9" fill="#fff"/><path d="M491.8 522.5c-69.6 0-106.7-46.7-118.7-91.5-3.6-.9-6.6-1.4-8.6-1.4s-5 .5-8.6 1.4c-12 44.8-49.1 91.5-118.7 91.5-57.4 0-94.7-11.1-121.1-36-31-29.3-46.1-79.1-46.1-152.3v-12.9l11.7-6.4c9.7-5.8 31.4-16.3 67.3-20.5 52.3-6.2 112.5 3.2 178.9 27.8 8.4-2.9 21.1-6 36.6-5.5 15.5-.5 28.2 2.5 36.6 5.5 66.4-24.6 126.6-34 178.9-27.8 35.9 4.2 57.6 14.7 67.3 20.5l.4.2 11.3 6.2v12.9c0 73.1-15.1 122.9-46.2 152.3-26.3 24.9-63.7 36-121 36zM364.5 418.8c4.5 0 10.4 1.4 14.6 2.7l3 .9.7 3.1c3.5 14.4 25.1 86.3 108.9 86.3 54.4 0 89.4-10.2 113.6-33 28.8-27.2 42.8-74.4 42.8-144.3V328l-5.7-3.1c-.1-.1-.4-.2-.7-.4-13.8-8.3-90.2-46.7-238.6 8.9l-1.9.7-1.9-.7c-7.5-2.8-19.6-6-34.6-5.5h-.4c-15.1-.5-27.1 2.7-34.6 5.5l-1.9.7-1.9-.7c-65.5-24.5-124.6-33.9-175.6-27.9-35.1 4.2-55.8 14.7-63 19-.3.2-.6.3-.7.4l-5.7 3.1v6.5c0 69.9 14 117.2 42.8 144.3 24.2 22.8 59.2 33 113.6 33 83.8 0 105.4-71.9 108.9-86.3l.7-3.1 3-.9c4.2-1.3 10.1-2.7 14.6-2.7zm127.3 71c-77.1 0-88.7-73.8-89.1-77l-.8-5.8-5.2-2.6s-17.8-7.5-32.1-7.5c-14.4 0-32.2 7.5-32.3 7.6l-5 2.5-.8 5.8c-.4 3.1-11.3 77-89.1 77-48.8 0-78.2-8.1-98.3-27-22.9-21.6-34.7-60-36.1-117.3l-.1-4.1 3.9-1.2c1.1-.3 2.2-.7 3.5-1.1 26.4-8.5 88.3-28.5 205.9 16.8l5 2c6.1-2.3 23.9-8.4 42.8-8.4 19 0 37.9 6.2 44 8.4l5.1-2c117.7-45.4 179.5-25.4 205.9-16.8 1.3.4 2.4.8 3.5 1.1l3.9 1.2-.1 4.1c-1.3 57.3-13.1 95.7-36.1 117.3-20.2 18.9-49.6 27-98.4 27zM364.5 386c17.1 0 36.7 8.5 36.9 8.6l10.5 5.1 1.6 11.6c.4 2.7 10.5 67.6 78.3 67.6 45.8 0 72.9-7.2 90.8-24 20.2-19 30.8-53.6 32.5-105.5-25.5-8.2-84.7-27-198.3 16.7l-9 3.5-2-.8c-.2-.1-21.5-8.4-42-8.4s-40.5 8.3-40.7 8.4l-2.1.9-9-3.6c-113.4-43.7-172.7-24.9-198.2-16.7 1.7 51.9 12.4 86.5 32.5 105.5 17.9 16.9 45.1 24 90.8 24 68.4 0 77.9-64.8 78.3-67.6l1.6-11.6 10.5-5.1c.3-.1 19.9-8.6 37-8.6z" fill="#2d3136"/><g fill="#2d3136"><path d="M515 376.4c-.1.5-2.6 9-15.7 8.4.7 1.3 1.1-2.7-6-6.9 9.1.7 15.7 1.6 21.7-1.5z"/><path d="M518.8 381.5c-.1.5-2.6 9-15.7 8.4.7 1.3 1.1-2.7-6-6.9 9.1.7 15.7 1.7 21.7-1.5z"/><path d="M521.7 387.8c-.1.5-2.6 9-15.7 8.4.7 1.3 1.1-2.7-6-6.9 9.1.8 15.7 1.7 21.7-1.5z"/><path d="M480.3 441.3c1.2.2 2.3.3 3.4.4 15.6 1.4 22-6.5 22-6.5 2.2-3.2 3.6-7.8 4.2-14.3 2-23.5-8.5-44.2-23.4-46.1-14.9-1.9-27.6 15.8-30.6 39.3-2.9 23.4 9.5 25.3 24.4 27.2zm-6.3-45.4c.6-4.2 4.5-7.1 8.7-6.5 4.2.6 7.1 4.5 6.5 8.7-.6 4.2-4.5 7.1-8.7 6.5-4.2-.6-7.1-4.6-6.5-8.7z"/></g><g fill="#2d3136"><path d="M215.5 375.9c.1.5 2.4 9.1 15.6 8.6-.7 1.3-1-2.7 6.1-6.8-9.1.7-15.8 1.5-21.7-1.8z"/><path d="M211.6 381c.1.5 2.4 9.1 15.6 8.6-.7 1.3-1-2.7 6.1-6.8-9.1.6-15.8 1.5-21.7-1.8z"/><path d="M208.6 387.3c.1.5 2.4 9.1 15.6 8.6-.7 1.3-1-2.7 6.1-6.8-9.2.6-15.8 1.5-21.7-1.8z"/><path d="M273.9 414.6c-2.6-23.5-15-41.4-29.9-39.7-14.9 1.7-25.8 22.2-24.1 45.8.4 6.5 1.9 11.1 4 14.3 0 0 6.3 8 21.9 6.8 1.1-.1 2.2-.2 3.4-.4 14.9-1.7 27.4-3.3 24.7-26.8zm-24.3-9.9c-4.2.5-8.1-2.4-8.6-6.6-.6-4.2 2.4-8.1 6.6-8.6 4.2-.5 8.1 2.4 8.6 6.6.5 4.2-2.4 8-6.6 8.6z"/></g><path d="M420.1 600.7s-18.7-4.9-24.5-4.9c-5.8 0-31.8 7.2-31.8 7.2L332 590.3l-24.5 10.3 30.7 10.8h20.2l5.6 2.7s17.4-1.3 25.7-2.7c8.3-1.4 30.7-10.8 30.7-10.8l19.4-10.9" fill="#414042"/><path d="M361 603s0 3.7 2.7 3.7 33.4-.2 53.8-6l-16.3-9.7-39.6 1.1-.6 10.9z" fill="#fff"/><path d="M365.6 603s0 3.7-2.7 3.7-33.4-.2-53.8-6l16.3-9.7 39.6 1.1.6 10.9z" fill="#fff"/><path d="M445 587c-.1-.1-.2 0-.2 0s-15.7 7.3-24-1-21.4-16.4-31.8-16.4c-8.8 0-21.1 7.4-24.5 9.6-4-2.2-18.3-9.6-27.1-9.6-10.3 0-23.5 8.2-31.8 16.4-8.3 8.3-24 1-24 1h-.2c-.1.1 0 .1 0 .1l27.7 29.5s13.8 15.5 21.8 19.8c8 4.3 26.4 7.5 31.7 7.5h1c5.3 0 23.7-3.2 31.7-7.5s21.8-19.8 21.8-19.8l27.7-29.5c.2.1.3 0 .2-.1zm-24.8 13.7s-22.4 9.4-30.7 10.8c-8.3 1.4-26 2.7-26 2.7s-18.1-1.3-26.4-2.7c-8.3-1.4-30.7-10.8-30.7-10.8h-.1.2s18.7-4.9 24.5-4.9c5.8 0 31.8 7.2 31.8 7.2h.7c.1 0 26-7.2 31.8-7.2 5.8 0 24.5 4.9 24.5 4.9h.4z" fill="#5c433e"/><path d="M363.5 616.9h-.2c-.7-.1-18.3-1.3-26.7-2.8-8.5-1.5-30.4-10.6-31.3-11l-.3-.1-13.4-7.3 14.7 2.2c3.5-.9 19.1-4.8 24.7-4.8 5.3 0 28.7 3.8 32.2 4.5 3.4-.7 26.8-4.5 32.2-4.5 5.6 0 21.1 3.9 24.7 4.8l14.5-2.2-13.4 7.5c-.9.4-22.8 9.5-31.3 11-8.3 1.4-25.5 2.7-26.2 2.8l-.2-.1zm-48.1-15.6c7.1 2.8 17.4 6.6 22.2 7.5 7.6 1.3 23.9 2.5 25.9 2.7 2-.1 17.9-1.4 25.5-2.7 4.9-.8 15.1-4.6 22.2-7.5-5.9-1.4-12.9-2.8-15.7-2.8-5.2 0-29.4 4.1-31.3 4.4 0 0-.5.1-.9.1-.3 0-.8-.1-.8-.1h-.3c-2.8-.5-26.1-4.4-31.2-4.4-2.8 0-9.7 1.4-15.6 2.8z" fill="#2d3136"/><path fill="#f4edae" d="m665.2 576.8-37.4 8.5 2.5 9 36-9z"/><path d="m665.2 576.8 1.1 8.5-36 9-2.5-9 37.4-8.5m0-5.5c-.4 0-.8 0-1.2.1l-37.4 8.5c-1.5.3-2.7 1.2-3.5 2.5-.8 1.3-1 2.8-.6 4.3l2.5 9c.7 2.4 2.9 4 5.3 4 .4 0 .9-.1 1.3-.2l36-9c2.7-.7 4.4-3.2 4.1-6l-1.1-8.5c-.2-1.5-1-2.9-2.3-3.8-.9-.5-2-.9-3.1-.9z" fill="#2d3136"/><path d="M570.8 279.5c0-.2.1-.4.1-.6.1-.8 1.9-14 .8-34.8 3.9 15.9 11 36.8 22.1 44-6.7-3.1-13.6-5.5-20.6-7.8-.7-.3-1.6-.6-2.4-.8z" fill="#ebd599" opacity=".75"/><path d="M443.1 583.3c-.1.1-13.2 5.9-19.3-.2-8.8-8.8-22.9-17.6-34.7-17.6-8.5 0-19 5.5-24.7 9-6.5-3.4-18.5-9-26.9-9-11.8 0-25.9 8.9-34.7 17.6-6.1 6-19.2.2-19.4.1 0 0-8.3-3-8.3-1.9s31.1 38 31.1 38c.6.7 14.4 16.1 22.9 20.7 8.9 4.8 28.2 8 33.6 8h1c5.4 0 24.8-3.2 33.7-8 8.5-4.6 22.3-20 22.8-20.6 0 0 31-37.2 31-38.1.2-1-8.1 2-8.1 2zm-28.8 30.6c-3.7 4.2-14.7 15.7-20.7 18.9-7.2 3.9-25 7-29.7 7h-1c-4.7 0-22.5-3.1-29.7-7-6-3.3-17-14.8-20.8-19L293.8 594c5.1.2 10.7-.9 14.9-5.1 7.6-7.6 19.9-15.2 28.9-15.2 6.2 0 17.1 4.7 25.1 9.1l2.1 1.2 2-1.3c6.8-4.3 16.2-9 22.3-9 8.9 0 21.3 7.7 28.9 15.2 4.3 4.3 9.8 5.3 14.9 5.1l-18.6 19.9z" fill="#2d3136"/></svg>