<svg xmlns="http://www.w3.org/2000/svg" fill="none" height="16" viewBox="0 0 512 512" width="16"><rect fill="#3178c6" height="454.338" rx="44.466" width="455.332" x="28.831" y="30.819"/><rect fill="#3178c6" height="454.338" rx="44.466" width="455.332" x="28.831" y="30.819"/><path clip-rule="evenodd" d="M310.691 392.359v44.423c7.238 3.702 15.797 6.478 25.68 8.329 9.882 1.85 20.296 2.776 31.246 2.776 10.67 0 20.807-1.017 30.411-3.054 9.604-2.036 18.025-5.39 25.262-10.065 7.237-4.673 12.967-10.781 17.189-18.324 4.221-7.543 6.333-16.866 6.333-27.972 0-8.052-1.206-15.108-3.619-21.17a49.466 49.466 0 0 0-10.439-16.173c-4.546-4.72-9.998-8.954-16.354-12.702-6.356-3.749-13.523-7.288-21.503-10.62-5.846-2.406-11.088-4.743-15.728-7.01-4.64-2.268-8.583-4.582-11.83-6.941-3.248-2.36-5.754-4.86-7.516-7.497-1.763-2.638-2.645-5.622-2.645-8.954 0-3.054.789-5.807 2.366-8.26 1.578-2.453 3.805-4.557 6.681-6.316 2.877-1.758 6.402-3.124 10.578-4.096 4.176-.971 8.814-1.457 13.918-1.457 3.711 0 7.632.278 11.76.833a93.262 93.262 0 0 1 12.458 2.568 86.845 86.845 0 0 1 12.179 4.373c3.943 1.759 7.585 3.794 10.925 6.109V249.65c-6.773-2.592-14.173-4.512-22.2-5.761-8.025-1.25-17.235-1.874-27.627-1.874-10.578 0-20.6 1.134-30.063 3.4-9.465 2.268-17.792 5.808-24.984 10.62-7.191 4.813-12.874 10.944-17.05 18.395-4.175 7.45-6.263 16.357-6.263 26.722 0 13.234 3.828 24.525 11.483 33.873 7.655 9.347 19.276 17.26 34.865 23.738a472.089 472.089 0 0 1 17.12 7.358c5.288 2.406 9.859 4.905 13.708 7.496 3.851 2.591 6.89 5.414 9.118 8.468 2.227 3.054 3.34 6.524 3.34 10.412 0 2.869-.696 5.53-2.088 7.982-1.392 2.453-3.503 4.58-6.333 6.386-2.83 1.805-6.356 3.215-10.578 4.233-4.222 1.019-9.162 1.527-14.823 1.527-9.65 0-19.206-1.688-28.671-5.066s-18.233-8.445-26.306-15.201zm-74.844-109.451h57.112v-36.456H133.771v36.456h56.833v162.317h45.243z" fill="#fff" fill-rule="evenodd"/></svg>