<!--SPDX-License-Identifier: MIT--><svg width="16" height="16" viewBox="0 0 16 16" xml:space="preserve" xmlns="http://www.w3.org/2000/svg"><path fill="#fbbd16" d="M2.213 5.362v7.067l1.494.751V8.92l.817 4.6 1.33.663.854-3.823v4.183l1.5.738v-7.06L5.929 7.14l-.722 3.37-.727-4.064z"/><path fill="#452e7f" d="M8.423 15.317 8.417 8.22l2.38-1.237v5.123l3.292-1.703.012 1.93z"/><path fill="#962444" d="M7.457.773 5.774 2.262S9.058 3.95 9.457 4.149c.399.2.967.583.353 1.15-.614.569-1.29.492-1.75.262-.46-.23-3.867-1.95-3.867-1.95L2.46 5.086S5.805 6.788 6.357 7.08c.553.292 2.609 1.013 4.558-.506 1.949-1.52 1.672-2.072 1.672-2.18 0-.107-.046-.675-.383-1.028-.338-.353-1.32-.859-1.734-1.074A705.602 705.602 0 0 0 7.457.773Z" style="stroke-width:.0558013"/></svg>