<svg xmlns="http://www.w3.org/2000/svg" xmlns:xlink="http://www.w3.org/1999/xlink" width="16" viewBox="0 0 16 16" height="16"><defs><path id="a" d="M0 .685h32V33H0z"/><path id="c" d="M0 .996h17.987v29.987H0z"/><path id="e" d="M.004.685h31.974v6.931H.004z"/></defs><g fill-rule="evenodd" fill="none"><g transform="matrix(.4455 0 0 .44242 .867 .598)"><mask fill="#fff" id="b"><use height="100%" width="100%" xlink:href="#a"/></mask><path mask="url(#b)" d="M31.979 3.002c-.23-.189-2.044-1.162-2.044-1.162L28 2.965l-.001-.001 1.934-1.124L28 .687l-.001 2.277-2.02-1.129s-1.65.964-2.451 1.427a449.405 449.405 0 0 0-3.484 2.056v2.176l-2.04 5.311v2.884l-1.43.835-.57 1.489-4.01-10.407V5.323L4 .685.002 2.997 0 2.996v2.352l2.493 5.999 1.512.891.002 2.736 6 14.574 5.997 3.432V33l5.99-3.465L32 5.3l-.021-2.298" fill="#3185b8"/></g><g transform="matrix(.4455 0 0 .44242 .867 1.483)"><mask fill="#fff" id="d"><use height="100%" width="100%" xlink:href="#c"/></mask><path mask="url(#d)" fill="#3185b8" d="M2.491 9.347 0 3.348V.996l1.971 1.149V4.46l2.037 1.182V3.313l3.98 2.303.192 2.28 5.786 15.019 4.021 2.341v4.594l-1.985-1.168.006 2.301-6.002-3.435-6-14.574-.001-2.736z"/></g><path d="M1.744 2.432v1.024l.908-.507zM6.21 3.963l1.788 4.605-.004 2.536-.906.512L4.51 4.969l-.086-1.001L6.21 2.953z" fill="#61a5ce"/><path fill="#eae9e6" d="m2.652 2.949-.907.508.907.522z"/><path fill="#3185b8" d="m10.647 7.207.245-.574.652.38V6.006l-.888-.512.893-.515-.878-.502-.002-1.022-.873-.505v.963l-.908 2.35v1.275l-.638.37-.253.659-.004 2.536.893.508.995-2.48.766.452z"/><path fill="#61a5ce" d="m7.98 12.142.9.515-.005 2.033 1.789-1.025 4.458-10.722-.009-1.016-2.672 1.53v2.04l-.897.51v1.005l-.652-.38-.245.575v2.372l-1.24.725-.52 1.308-.906.53"/><path fill="#eae9e6" d="M5.317 4.47v1.023l-.897-.506z"/><path fill="#3185b8" d="m5.316 5.493.889.499V4.987l-.889-.517z"/><path fill="#61a5ce" d="m3.536 8.556.899-.513-.899-.518z"/><path fill="#eae9e6" d="m5.33 8.561-.9.521-.893-.526.897-.513z"/><path fill="#61a5ce" d="m5.318 12.663.903-.518-.903-.522z"/><path fill="#eae9e6" d="m8 14.185.003-1.056-.913.531z"/><path fill="#61a5ce" d="m8 14.185.875.505-.88.508z"/><path fill="#eae9e6" d="m7.993 11.104-.906.512.894.526.905-.53z"/><path fill="#3185b8" d="m10.671 4.478 1.77 1.019v-2.04l-.885-.501v1.017z"/><path fill="#eae9e6" d="m10.656 5.495.893-.515.892.517-.897.51z"/><path fill="#61a5ce" d="m10.671 4.478.885-.505V2.956l-.887.5z"/><path fill="#3185b8" d="m13.34.902.862.51-.862.498z"/><g transform="matrix(.4455 0 0 .44242 .867 .598)"><mask fill="#fff" id="f"><use height="100%" width="100%" xlink:href="#e"/></mask><path mask="url(#f)" d="M11.993 5.323 7.988 7.616.004 2.996 3.998.686l7.995 4.638m19.985-2.321L25.98 6.46l-1.985-1.131-1.99 1.13-1.96-1.141s2.474-1.474 3.483-2.056c.802-.462 2.452-1.427 2.452-1.427L28 2.965l1.935-1.124s1.814.972 2.044 1.16c-.546.32 0 0 0 0" fill="#eae9e6"/></g><path d="m11.58 8.049.865-.493v.989zm2.636-4.616V2.44l-.87.498z" fill="#3185b8"/><path fill="#eae9e6" d="m9.772 13.16.901-.518-.901-.507z"/><path fill="#3185b8" d="m10.668 11.626-.896.509.907.507z"/></g></svg>