<svg xmlns="http://www.w3.org/2000/svg" width="16" height="16" viewBox="0 0 300 300"><g fill="#0288d1"><path d="M150 61.553A88.446 88.446 0 0061.553 150 88.446 88.446 0 00150 238.446 88.446 88.446 0 00238.446 150 88.446 88.446 0 00150 61.553zm.011 25.082a63.353 63.353 0 0163.353 63.353 63.353 63.353 0 01-63.353 63.353 63.353 63.353 0 01-63.353-63.353 63.353 63.353 0 0163.353-63.353z" paint-order="fill markers stroke"/><path d="M45.008 193.096L12.213 225.89l32.795 32.794V238.44h104.99v-25.097H45.008zm29.08-180.884L41.293 45.006h20.246v104.99h25.098V45.007h20.246zm180.901 29.092V61.55h-104.99v25.097h104.99v20.246L287.784 74.1zM213.32 149.998V254.99h-20.246l32.795 32.795 32.795-32.795h-20.246V150z" stroke-width="15.81"/></g></svg>