<svg xmlns="http://www.w3.org/2000/svg" viewBox="0 0 512 512" height="16" width="16"><path d="M453.166 255.683c0 109.642-88.135 198.52-196.847 198.52-108.717 0-196.85-88.878-196.85-198.52 0-109.642 88.133-198.52 196.85-198.52 108.713 0 196.847 88.878 196.847 198.52zm0 0" fill="#fcfcfc"/><path d="m334.072 243.658-112.484-70.903c-4.332-2.75-9.843-2.865-14.258-.4a14.27 14.27 0 0 0-7.253 12.428v141.801c0 5.162 2.78 9.927 7.253 12.421a14.106 14.106 0 0 0 6.801 1.76 13.9 13.9 0 0 0 7.457-2.157l112.484-70.901c4.104-2.583 6.608-7.148 6.608-12.025 0-4.877-2.505-9.446-6.608-12.024zm0 0" fill="#2299f8"/><path d="M87.586 255.683h-56.24c0-125.1 100.928-226.886 224.973-226.886v56.721c-93.053.001-168.733 76.321-168.733 170.165zm0 0" fill="#f84437"/><path d="M256.319 482.569v-56.725c93.05 0 168.723-76.317 168.723-170.161h56.246c0 125.098-100.926 226.886-224.97 226.886zm0 0" fill="#ffc107"/><path d="M256.319 482.569c-124.045 0-224.973-101.788-224.973-226.886h56.24c0 93.844 75.68 170.161 168.733 170.161zm0 0" fill="#2299f8"/><path d="M481.289 255.683h-56.246c0-93.844-75.673-170.165-168.723-170.165v-56.72c124.042 0 224.969 101.785 224.969 226.885zm0 0" fill="#5acf5f"/></svg>