<svg xmlns="http://www.w3.org/2000/svg" width="16" height="16" viewBox="0 0 410 404" fill="none"><path d="m391.859 65.046-176.638 315.86c-3.647 6.521-13.017 6.56-16.719.07l-180.14-315.9c-4.033-7.071 2.015-15.637 10.029-14.205l176.827 31.607a9.6 9.6 0 0 0 3.41-.006l173.13-31.556c7.987-1.455 14.063 7.044 10.101 14.13z" fill="url(#a)" style="fill:url(#a);stroke-width:.96"/><path d="M289.45 9.414 158.733 35.028a4.8 4.8 0 0 0-3.87 4.427l-8.04 135.805c-.19 3.198 2.748 5.68 5.87 4.96l36.394-8.398c3.405-.785 6.482 2.214 5.782 5.638l-10.813 52.947c-.727 3.563 2.618 6.61 6.098 5.553l22.479-6.829c3.485-1.058 6.833 1.998 6.096 5.564l-17.183 83.168c-1.076 5.202 5.844 8.039 8.73 3.579l1.928-2.98 106.515-212.57c1.784-3.56-1.292-7.618-5.2-6.863l-37.462 7.23c-3.52.678-6.515-2.6-5.522-6.044l24.45-84.76c.995-3.45-2.01-6.731-5.535-6.04z" fill="url(#b)" style="fill:url(#b);stroke-width:.96"/><defs><linearGradient id="a" x1="6" y1="33" x2="235" y2="344" gradientUnits="userSpaceOnUse" gradientTransform="matrix(.96 0 0 .96 8.204 7.903)"><stop stop-color="#41D1FF"/><stop offset="1" stop-color="#BD34FE"/></linearGradient><linearGradient id="b" x1="194.651" y1="8.818" x2="236.076" y2="292.989" gradientUnits="userSpaceOnUse" gradientTransform="matrix(.96 0 0 .96 8.204 7.903)"><stop stop-color="#FFEA83"/><stop offset=".083" stop-color="#FFDD35"/><stop offset="1" stop-color="#FFA800"/></linearGradient></defs></svg>