<svg width="16" height="16" viewBox="0 0 165 165" fill="none" xmlns="http://www.w3.org/2000/svg"><path d="m122.368 56.152-37.605 54.373a3.237 3.237 0 0 1-5.331-.008 3.204 3.204 0 0 1-.555-1.968l1.505-30.02-24.297-5.153a3.229 3.229 0 0 1-2.325-1.952 3.2 3.2 0 0 1 .344-3.012L91.709 14.04a3.244 3.244 0 0 1 3.696-1.227 3.223 3.223 0 0 1 1.634 1.235 3.2 3.2 0 0 1 .556 1.968l-1.506 30.02 24.297 5.153a3.23 3.23 0 0 1 1.409.686 3.2 3.2 0 0 1 .573 4.28z" fill="#fcc72b" style="stroke-width:1.0406"/><path d="M82.988 156.143a7.592 7.592 0 0 1-5.385-2.23l-35.533-35.53a7.612 7.612 0 0 1 5.388-12.984 7.617 7.617 0 0 1 5.38 2.215l30.15 30.146 65.68-65.677a7.614 7.614 0 0 1 10.768 10.767L88.37 153.913a7.584 7.584 0 0 1-5.383 2.23z" fill="#729b1b" style="stroke-width:1.0406"/><path d="M82.956 156.143a7.592 7.592 0 0 0 5.386-2.23l35.532-35.53a7.61 7.61 0 0 0-.014-10.753 7.617 7.617 0 0 0-10.754-.016l-30.15 30.146-65.68-65.677A7.615 7.615 0 0 0 6.507 82.85l71.066 71.063a7.586 7.586 0 0 0 5.383 2.23z" fill="#729b1b" fill-opacity=".5" style="stroke-width:1.0406"/></svg>