<svg xmlns="http://www.w3.org/2000/svg" width="16" height="16" viewBox="0 0 16 16"><path d="M1.027 6.055s-.346-.25.069-.586l.967-.87s.277-.292.57-.037l8.926 6.794v3.258s-.004.512-.657.455z" fill="#2489ca"/><path d="m3.328 8.155-2.301 2.103s-.237.176 0 .492l1.068.977s.254.274.629-.037l2.439-1.86z" fill="#1070b3"/><path d="m7.367 8.172 4.22-3.239-.028-3.24s-.18-.708-.781-.34L5.163 6.491z" fill="#0877b9"/><path d="M10.902 15.074c.245.252.542.17.542.17l3.288-1.63c.421-.288.362-.646.362-.646V3.24c0-.427-.435-.575-.435-.575l-2.85-1.381c-.623-.387-1.031.07-1.031.07s.525-.38.781.339v12.862a.587.587 0 0 1-.056.253c-.075.153-.238.295-.628.235z" fill="#3c99d4"/></svg>