<svg xmlns="http://www.w3.org/2000/svg" width="16" height="16" viewBox="0 0 100 74"><defs><linearGradient id="a" x2="49.404" y1="27.626" y2="27.626" gradientTransform="scale(.98307 1.01722)" x1=".198" gradientUnits="userSpaceOnUse"><stop stop-color="#00D2E6" offset="0"/><stop stop-color="#2ECCAA" offset="1"/></linearGradient><linearGradient id="b" x1="24.509" x2="49.897" y1="68.944" y2="56.981" gradientTransform="scale(1.16306 .8598)" gradientUnits="userSpaceOnUse"><stop stop-opacity="0" offset="0"/><stop offset=".514"/><stop stop-opacity="0" offset="1"/></linearGradient><linearGradient id="c" x1="100.911" x2="51.789" y1="28.825" y2="28.825" gradientTransform="scale(.98308 1.01721)" gradientUnits="userSpaceOnUse"><stop stop-color="#1FA385" offset="0"/><stop stop-color="#2ECCAA" offset="1"/></linearGradient></defs><g fill="none" fill-rule="evenodd"><path d="M63.624 55.803a10.727 10.727 0 01-4.24-.892c-3.056-1.332-5.747-3.846-7.936-7.248a36.014 36.014 0 001.69-3.426c2.202-5.122 3.25-10.73 3.33-16.297a7.552 7.552 0 01-.028-.333l-.006-.286c-.005-2.182-.337-4.394-1.088-6.454-.865-2.373-2.244-4.748-4.433-5.674a2.97 2.97 0 00-1.232-.228c-2.752-5.145-2.84-10.074 0-14.77l.154.001c3.35.037 6.67 1.071 9.51 2.877 7.735 4.917 11.592 14.5 11.677 23.909 0 .11 0 .22-.004.33h.043c-.01 9.944-2.402 20.028-7.437 28.49zm-17.15 15.608c-7.224 2.971-15.614 2.812-22.775-.512-8.238-3.824-14.532-11.257-18.409-19.74-6.631-14.51-6.783-31.858-.494-46.59 4.723 1.889 8.923-1.12 8.923-1.12s-.01 4.63 4.473 6.952c-4.6 10.778-4.49 23.583.121 34.086 2.22 5.054 5.61 9.76 10.309 12.421a14.56 14.56 0 005.417 1.793l.02.033c3.349 5.225 7.567 9.579 12.415 12.677z" fill="url(#a)" fill-rule="nonzero" transform="matrix(.88386 0 0 .88239 6.131 5.593)"/><path d="M63.621 55.807a10.727 10.727 0 01-4.238-.892c-3.056-1.332-5.747-3.847-7.936-7.25a36.001 36.001 0 001.69-3.428 38.892 38.892 0 001.682-4.75c1.064-3.75 15.191 1.009 13.036 7.185a50.18 50.18 0 01-4.234 9.135zM46.47 71.413c-7.223 2.97-15.612 2.81-22.771-.514-8.238-3.824.224-16.652 4.923-13.99a14.571 14.571 0 005.414 1.793l.024.037c3.347 5.223 7.564 9.576 12.41 12.675z" fill="url(#b)" opacity=".7" style="mix-blend-mode:soft-light" transform="matrix(.88386 0 0 .88239 6.131 5.593)"/><path d="M28.381 27.314a8.154 8.154 0 01-.004-.33c.086-9.41 3.942-18.993 11.676-23.91 2.841-1.806 6.16-2.84 9.511-2.877h.154v14.769a2.97 2.97 0 00-1.232.228c-2.188.927-3.568 3.301-4.433 5.674-.75 2.06-1.083 4.272-1.088 6.455l-.006.285a7.554 7.554 0 01-.028.333c.08 5.567 1.128 11.175 3.33 16.297 2.467 5.736 6.388 11.013 11.925 13.424 4.176 1.82 8.806 1.39 12.59-.753 4.7-2.661 8.09-7.367 10.31-12.421 4.61-10.503 4.72-23.308.12-34.086C85.69 8.08 85.68 3.449 85.68 3.449s4.2 3.01 8.923 1.12c6.289 14.733 6.137 32.08-.494 46.591-3.877 8.484-10.171 15.916-18.41 19.74-7.333 3.404-15.955 3.489-23.295.291-6.595-2.874-11.96-8.053-15.818-14.075-5.59-8.721-8.236-19.339-8.248-29.802z" fill="url(#c)" fill-rule="nonzero" transform="matrix(.88386 0 0 .88239 6.131 5.593)"/></g></svg>