<svg xmlns="http://www.w3.org/2000/svg" width="16" height="16" viewBox="0 0 16 16"><path d="m14.178 11.602-5.914 3.034v-2.36l3.686-1.838zm.404-.33v-6.34L12.42 6.063v4.077zm-12.753.33 5.914 3.031v-2.359l-3.686-1.836zm-.404-.33v-6.34l2.162 1.131v4.077zm.252-6.75 6.066-3.108v2.282L3.856 5.632l-.03.016zm12.65 0L8.265 1.414v2.282l3.884 1.939.031.015z" fill="#8ed6fb"/><path d="M7.743 11.738 4.108 9.925V6.337l3.635 1.9zm.521 0 3.635-1.81v-3.59l-3.635 1.9zm-.26-3.636zm-3.652-2.18 3.652-1.818 3.649 1.818-3.65 1.908z" fill="#1c78c0"/></svg>