<svg width="16" height="16" viewBox="0 0 57 57" xmlns="http://www.w3.org/2000/svg"><path fill="#06f" fill-rule="evenodd" d="m44.698 31.057 2.125 6.35 3.708-6.35zm-.387-13.73v11.742h6.292zm-1.989 6.63V14.47h-3.174zM35.4 3.273l3.082 9.208h3.234l-5.249-9.796-.794.437-.273.15zm-4.333 51.143h4.718l-1.78-3.28-.59.64c-.7.853-1.48 1.735-2.348 2.64zm-2.31-2.99.08-19.13a30.7 30.7 0 0 0-2.097 1.351c.081 2.362.46 10.406 2.017 17.778zm-5.383-15.153c.072 1.513.522 6.945 3.32 12.858-1.009-5.79-1.376-11.527-1.504-14.346a39.9 39.9 0 0 0-1.816 1.488zm-1.722 18.143h4.91l-.375-.44a44.73 44.73 0 0 1-2.628-3.07l-1.907 3.51zm-1.57-14.858c.177 1.067 1.558 5.09 4.99 9.88-2.26-4.902-2.977-9.388-3.202-11.78a30.034 30.034 0 0 0-1.789 1.9zm2.481-9.864v4.55a30.179 30.179 0 0 1 2.497-1.938c2.201-1.63 3.097-1.965 3.662-2h-.003v-.612zM6.906 31.057l3.964 6.787 2.728-6.787zm7.17-10.777-6.864 8.788h6.863V20.28zm1.99-2.547v7.187l4.827-12.01-.645-.532-4.183 5.355zm32.07 21.372h3.997l.995.995v15.31l-.995.996H5.304l-.994-.994v-15.31l.994-.996h3.998l-4.988-8.54.074-1.114 14.92-19.1 1.355-.15.025-.035 6.703 5.028-1.194 1.592-3.624-2.72L12.14 40.021l7.808 13.365 2.311-4.254c-3.915-5.687-4.2-9.603-4.214-9.824l.233-.7a40.406 40.406 0 0 1 2.295-2.507v-7.4l.996-.995h14.3l.995.995v7.17c.814.801 1.662 1.71 2.528 2.738l.232.7c-.012.223-.305 4.223-4.343 10.011l2.21 4.066 7.998-13.694L33.63 4.25l-3.253 1.795-.96-1.742 6.97-3.846 1.357.402 15.397 28.735-.018.972-4.989 8.54z"/></svg>