<!--Created with Inkscape (http://www.inkscape.org/)--><svg width="16" height="16" xmlns="http://www.w3.org/2000/svg"><path d="M145 75h-14.063c0 30.897-25.04 55.938-55.937 55.938V145c38.66 0 70-31.34 70-70z" transform="translate(-.571 -.571) scale(.11429)" style="fill:#ffe204;fill-opacity:1;stroke:none"/><path d="M75 19.063c30.897 0 55.938 25.04 55.938 55.937H145c0-38.66-31.34-70-70-70Z" transform="translate(-.571 -.571) scale(.11429)" style="fill:#00a51d;fill-opacity:1;stroke:none"/><path d="M5 75c0 38.66 31.34 70 70 70v-14.063c-30.897 0-55.938-25.04-55.938-55.937Z" transform="translate(-.571 -.571) scale(.11429)" style="fill:#1a6ae9;fill-opacity:1;stroke:none"/><path d="M5 75h14.063c0-30.897 25.04-55.938 55.937-55.938V5C36.34 5 5 36.34 5 75Z" transform="translate(-.571 -.571) scale(.11429)" style="fill:#ff2a04;fill-opacity:1;stroke:none"/><path d="M534.853 667.085c-2.127.133-3.973 2.102-3.97 4.233v53.233c.005 1.486.856 2.941 2.149 3.673 1.293.733 2.978.713 4.255-.048l44.766-26.617a4.318 4.318 0 0 0 2.068-3.638 4.318 4.318 0 0 0-2.068-3.637l-44.766-26.59a4.264 4.264 0 0 0-2.434-.609z" style="color:#000;font-style:normal;font-variant:normal;font-weight:400;font-stretch:normal;font-size:medium;line-height:normal;font-family:'Andale Mono';-inkscape-font-specification:'Andale Mono';text-indent:0;text-align:start;text-decoration:none;text-decoration-line:none;letter-spacing:normal;word-spacing:normal;text-transform:none;writing-mode:lr-tb;direction:ltr;text-anchor:start;display:inline;overflow:visible;visibility:visible;fill:#000;fill-opacity:1;fill-rule:nonzero;stroke:none;stroke-width:10;marker:none;enable-background:accumulate" transform="translate(-55.347 -71.764) scale(.11429)"/></svg>