<!--Created with Inkscape (http://www.inkscape.org/)--><svg width="16" height="16" xmlns="http://www.w3.org/2000/svg"><path d="M15.15 8h-1.436A5.713 5.713 0 0 1 8 13.715v1.436A7.15 7.15 0 0 0 15.15 8z" style="fill:#ffe204;fill-opacity:1;stroke:none;stroke-width:.102136"/><path d="M8 2.288A5.713 5.713 0 0 1 13.715 8h1.436A7.15 7.15 0 0 0 8 .85z" style="fill:#00a51d;fill-opacity:1;stroke:none;stroke-width:.102136"/><path d="M.851 8a7.15 7.15 0 0 0 7.15 7.15v-1.436A5.713 5.713 0 0 1 2.287 8z" style="fill:#1a6ae9;fill-opacity:1;stroke:none;stroke-width:.102136"/><path d="M.851 8h1.437A5.713 5.713 0 0 1 8 2.288V.851a7.15 7.15 0 0 0-7.15 7.15z" style="fill:#ff2a04;fill-opacity:1;stroke:none;stroke-width:.102136"/><path d="M6.017 4.852a.449.449 0 0 0-.405.432v5.437c0 .152.087.3.22.375a.441.441 0 0 0 .434-.005l4.572-2.718A.441.441 0 0 0 11.05 8a.441.441 0 0 0-.21-.371L6.265 4.914a.436.436 0 0 0-.249-.062Z" style="color:#000;font-style:normal;font-variant:normal;font-weight:400;font-stretch:normal;font-size:medium;line-height:normal;font-family:&quot;Andale Mono&quot;;-inkscape-font-specification:&quot;Andale Mono&quot;;text-indent:0;text-align:start;text-decoration:none;text-decoration-line:none;letter-spacing:normal;word-spacing:normal;text-transform:none;writing-mode:lr-tb;direction:ltr;text-anchor:start;display:inline;overflow:visible;visibility:visible;fill:#000;fill-opacity:1;fill-rule:nonzero;stroke:none;stroke-width:1.02136;marker:none"/></svg>