<!--Created with Inkscape (http://www.inkscape.org/)--><svg width="16" height="16" xmlns="http://www.w3.org/2000/svg"><path d="M15.15 8h-1.436A5.713 5.713 0 0 1 8 13.715v1.436A7.15 7.15 0 0 0 15.15 8z" style="fill:#ffe204;fill-opacity:1;stroke:none;stroke-width:.102136"/><path d="M8 2.288A5.713 5.713 0 0 1 13.715 8h1.436A7.15 7.15 0 0 0 8 .85z" style="fill:#00a51d;fill-opacity:1;stroke:none;stroke-width:.102136"/><path d="M.851 8a7.15 7.15 0 0 0 7.15 7.15v-1.436A5.713 5.713 0 0 1 2.287 8z" style="fill:#1a6ae9;fill-opacity:1;stroke:none;stroke-width:.102136"/><path d="M.851 8h1.437A5.713 5.713 0 0 1 8 2.288V.851a7.15 7.15 0 0 0-7.15 7.15z" style="fill:#ff2a04;fill-opacity:1;stroke:none;stroke-width:.102136"/><path style="fill:#fff;stroke-width:.130524" d="M5.74 10.931c-.037-.092-.05-1.456-.03-3.033.032-2.575.058-2.871.257-2.91.233-.044 4.624 2.485 4.899 2.823.114.139.12.245.024.362-.185.224-4.743 2.924-4.935 2.924-.084 0-.181-.075-.216-.167z"/></svg>