<!--Created with Inkscape (http://www.inkscape.org/)--><svg width="16" height="16" xmlns="http://www.w3.org/2000/svg"><path d="M145 75h-14.063c0 30.897-25.04 55.938-55.937 55.938V145c38.66 0 70-31.34 70-70z" transform="translate(-.571 -.571) scale(.11429)" style="fill:#ffe204;fill-opacity:1;stroke:none"/><path d="M75 19.063c30.897 0 55.938 25.04 55.938 55.937H145c0-38.66-31.34-70-70-70Z" transform="translate(-.571 -.571) scale(.11429)" style="fill:#00a51d;fill-opacity:1;stroke:none"/><path d="M5 75c0 38.66 31.34 70 70 70v-14.063c-30.897 0-55.938-25.04-55.938-55.937Z" transform="translate(-.571 -.571) scale(.11429)" style="fill:#1a6ae9;fill-opacity:1;stroke:none"/><path d="M5 75h14.063c0-30.897 25.04-55.938 55.937-55.938V5C36.34 5 5 36.34 5 75Z" transform="translate(-.571 -.571) scale(.11429)" style="fill:#ff2a04;fill-opacity:1;stroke:none"/><path style="fill:#fff;stroke-width:.146056" d="M5.47 11.28c-.04-.103-.054-1.63-.032-3.394.035-2.882.064-3.213.287-3.256.261-.05 5.174 2.78 5.482 3.158.127.156.135.275.027.406-.207.25-5.308 3.271-5.523 3.271-.093 0-.202-.083-.241-.186z"/></svg>