<?xml version="1.0" encoding="UTF-8" standalone="no"?>
<!-- Created with Inkscape (http://www.inkscape.org/) -->

<svg
    version="1.1"
    width="16"
    height="16"
    id="svg2"
    xmlns="http://www.w3.org/2000/svg"
>
  <g
     transform="matrix(0.11428571,0,0,0.11428571,-55.346936,-71.763836)"
     id="layer1">
    <path
       d="m 145,75 h -14.0625 c 0,30.89731 -25.04019,55.9375 -55.9375,55.9375 V 145 c 38.65993,0 70,-31.34007 70,-70 z"
       transform="translate(479.28571,622.93359)"
       id="path2861"
       style="fill:#ffe204;fill-opacity:1;stroke:none" />
    <path
       d="m 75,19.0625 c 30.89731,0 55.9375,25.040194 55.9375,55.9375 H 145 C 145,36.340068 113.65993,5 75,5 Z"
       transform="translate(479.28571,622.93359)"
       id="path2866"
       style="fill:#00a51d;fill-opacity:1;stroke:none" />
    <path
       d="m 5,75 c 0,38.65993 31.340068,70 70,70 V 130.9375 C 44.102694,130.9375 19.0625,105.89731 19.0625,75 Z"
       transform="translate(479.28571,622.93359)"
       id="path2864"
       style="fill:#1a6ae9;fill-opacity:1;stroke:none" />
    <path
       d="M 5,75 H 19.0625 C 19.0625,44.102694 44.102694,19.0625 75,19.0625 V 5 C 36.340068,5 5,36.340068 5,75 Z"
       transform="translate(479.28571,622.93359)"
       id="path2844"
       style="fill:#ff2a04;fill-opacity:1;stroke:none" />
  </g>
  <path
     style="fill:#ffffff;stroke-width:0.146056"
     d="m 5.4695933,11.279407 c -0.039262,-0.102314 -0.05363,-1.6295692 -0.03193,-3.3939006 0.035439,-2.8814162 0.064666,-3.2127213 0.2871865,-3.2554957 0.2613376,-0.050236 5.1738192,2.7796388 5.4825092,3.1582439 0.127034,0.1558053 0.134988,0.2752368 0.027,0.405358 -0.207398,0.2498991 -5.3085566,3.2718204 -5.5230014,3.2718204 -0.093707,0 -0.2024995,-0.08371 -0.2417612,-0.186026 z"
     id="path1020" />
</svg>
