<svg width="16" height="16" viewBox="0 0 16 16" fill="none" xmlns="http://www.w3.org/2000/svg"><path d="M2.648.917h8.8v8.8h-1.36v-7.44h-7.44Zm6.4 2.4v8h-8v-8zm-2.4 5.04h-4.4v1.36h4.4z" fill="url(#a)" style="fill:url(#a);stroke-width:.8"/><defs><linearGradient id="a" x1="2.346" y1="1.34" x2="13.726" y2="12.709" gradientUnits="userSpaceOnUse" gradientTransform="matrix(.8 0 0 .8 -.552 .117)"><stop offset=".256" stop-color="#FF318C"/><stop offset=".723" stop-color="#AF1DF5"/></linearGradient></defs><path fill="#40B6E0" d="m14.904 12.579.91.653a3.996 3.996 0 0 1-.835 1.445l-1.02-.46a2.95 2.95 0 0 1-1.006.582l-.111 1.114a4.016 4.016 0 0 1-1.67 0l-.111-1.114a2.95 2.95 0 0 1-1.006-.582l-1.02.46a3.996 3.996 0 0 1-.835-1.445l.91-.653a2.968 2.968 0 0 1 0-1.158l-.91-.653a3.996 3.996 0 0 1 .835-1.445l1.02.46a2.95 2.95 0 0 1 1.006-.582l.11-1.114a4.016 4.016 0 0 1 1.67 0l.112 1.114a2.95 2.95 0 0 1 1.006.582l1.02-.46c.372.413.66.904.835 1.445l-.91.653a2.968 2.968 0 0 1 0 1.158Zm-2.897.837a1.415 1.415 0 1 0 0-2.831 1.415 1.415 0 0 0 0 2.83Z" fill-rule="evenodd"/></svg>