<svg width="16" height="16" viewBox="0 0 16 16" xml:space="preserve" style="clip-rule:evenodd;fill-rule:evenodd;stroke-miterlimit:1.41421" xmlns="http://www.w3.org/2000/svg"><path d="M24.673 42.732 66.713.692l47.481 47.48-47.48 47.481-44.166-44.17" style="fill:#3f6086;stroke:#082d51;stroke-width:.94px" transform="matrix(.14932 0 0 .16729 -2.068 -.06)"/><path d="M41.42 28.532s15.377-11.143 23.79-10.66c8.417.48 16.611 4.718 16.611 4.718l2.184 4.591s5.923 2.7 7.239 4.463c1.288 1.724 1.255 1.588 4.67 11.216 0 0-33.582 3.41-36.862-.105-3.28-3.517-17.633-14.223-17.633-14.223z" style="fill:#82d6e0;stroke:#3a9cdd;stroke-width:.92px" transform="matrix(.14932 0 0 .16729 -2.068 -.06)"/><path d="M82.05 43.69c3.003-1.37 12.576-2.33 16.754-4.447 3.183-1.615 17.187-7.185 21.332-4.41 2.26 1.514-5.486 14.677-8.392 17.954-2.878 3.25-.585 13.212-1.074 14.596-1.013 2.857-7.718 3.936-9.336 3.356-1.52-.543-10.795-3.362-14.907-5.037-3.346-1.363-5.57-3.435-15.123-2.222-9.55 1.21 10.747-19.79 10.747-19.79z" style="fill:#82d6e0;stroke:#33bdf2;stroke-width:.92px" transform="matrix(.14932 0 0 .16729 -2.068 -.06)"/><path d="M53.41 66.04s8.181 3.377 13.533 3.306l5.48-.947s4.474-2.87-.093-5.859" style="fill:#82d6e0;stroke:#3a9cdd;stroke-width:.92px" transform="matrix(.14932 0 0 .16729 -2.068 -.06)"/><path d="M63.81 64.468c-5.998 2.309-24.635 4.176-31.244-1.027-3.732-2.94-8.547-15.136-8.547-15.136s4.578-8.508 5.059-8.696c0 0-2.392-5.71 9.652-9.7 7.7-2.55 6.937-2.95 17.159-1.964 6.377.614 16.69 6.025 19.018 8.451 4.003 4.17 13.935 7.25 17.709 7.651 3.778.402 6.199.015 6.199.015s-1.253 8.39-4.866 13.051c-3.616 4.66-6.36 5.125-6.36 5.125s-5.89.14-11.338.223c-8.097.116-12.441 2.006-12.441 2.006z" style="fill:#f8ac16;stroke:#f7a30e;stroke-width:.92px" transform="matrix(.14932 0 0 .16729 -2.068 -.06)"/><path d="M22.503 46.9s6.003-16.497 20.476-17.536c12.904-.922 20.53 9.451 20.513 16.948-.023 9.29-6.901 18.098-15.99 19.08-11.014 1.187-16.302-1.99-16.635-3.145-.331-1.16-10.591-11.195-8.364-15.348z" style="fill:#fcd24c;stroke:#f7a30e;stroke-width:1px" transform="matrix(.14932 0 0 .16729 -2.068 -.06)"/><path d="M33.51 62.708c-1.104.87-.173.5-4.679 1.123-3.181.441-6.428-.093-8.22-2.417-1.575-2.046.553-2.377 3.535-2.567 1.334-.086 2.733.02 2.385-.62-1.398-2.56-3.977-5.508-7.044-5.864-6.527-.755-4.833-5.339-4.833-5.339.382-1.63 4.935-1.959 8.932-1.177l10.408 12.084" style="fill:#82d6e0;stroke:#33bdf2;stroke-width:1.21px" transform="matrix(.14932 0 0 .16729 -2.068 -.06)"/><path d="M49.417 36.162c.067 4.996-3.87 9.104-8.802 9.173-4.926.064-8.97-3.936-9.03-8.937-.067-5 3.87-9.105 8.796-9.171 4.93-.066 8.973 3.934 9.036 8.935z" style="fill:#fff;fill-rule:nonzero;stroke:#d89026;stroke-width:.95px" transform="matrix(.14932 0 0 .16729 -2.068 -.06)"/><path d="M42.575 36.196c.012 1-.781 1.824-1.764 1.839a1.802 1.802 0 0 1-1.809-1.79 1.8 1.8 0 0 1 1.763-1.837c.985-.012 1.792.789 1.81 1.788z" style="fill:#221d1d;fill-rule:nonzero" transform="matrix(.14932 0 0 .16729 -2.068 -.06)"/><path d="M62.21 48.134s12.619-.652 13.4-1.3c.778-.651 1.743.458 1.908 1.256.168.797-9.171 9.393-11.382 9.264-2.209-.134-11.182.507-10.884-.775" style="fill:#82d6e0;stroke:#33bdf2;stroke-width:.92px" transform="matrix(.14932 0 0 .16729 -2.068 -.06)"/></svg>