<?xml version="1.0" encoding="UTF-8" standalone="no"?>
<svg
    width="16"
    height="16"
    viewBox="0 0 16 16"
    version="1.1"
    xml:space="preserve"
    style="clip-rule:evenodd;fill-rule:evenodd;stroke-miterlimit:1.41421"
    id="svg25"
    xmlns="http://www.w3.org/2000/svg"
><defs
     id="defs29" /><g
     id="g12"
     transform="matrix(0.14931938,0,0,0.16728801,-2.0681803,-0.0600166)"><path
       id="path3437"
       d="M 24.6728,42.7322 66.7133,0.6911 114.1943,48.1728 66.7133,95.6532 22.5479,51.4827"
       style="fill:#3f6086;stroke:#082d51;stroke-width:0.94px" /><path
       id="path3439"
       d="m 41.4193,28.5317 c 0,0 15.3774,-11.1425 23.7905,-10.6606 8.41752,0.480036 16.6114,4.71926 16.6114,4.71926 l 2.18339,4.59109 c 0,0 5.92374,2.70049 7.23943,4.46291 1.28805,1.72346 1.25475,1.58775 4.66963,11.2154 0,0 -33.5821,3.40986 -36.8619,-0.104931 -3.28042,-3.5173 -17.6324,-14.2231 -17.6324,-14.2231 v 0 z"
       style="fill:#82d6e0;stroke:#3a9cdd;stroke-width:0.92px" /><path
       id="path3441"
       d="m 82.0504,43.6891 c 3.00271,-1.3691 12.5757,-2.32916 16.754,-4.44594 3.18304,-1.6154 17.1869,-7.18477 21.3319,-4.40951 2.25942,1.51361 -5.48643,14.6762 -8.39238,17.9534 -2.87768,3.24901 -0.58496,13.2122 -1.07379,14.5964 -1.01284,2.85694 -7.71821,3.93576 -9.33611,3.35582 -1.51926,-0.542863 -10.7951,-3.36273 -14.9067,-5.03719 -3.3464,-1.36344 -5.57064,-3.43499 -15.1235,-2.22235 -9.54975,1.21013 10.7467,-19.7906 10.7467,-19.7906 v 0 z"
       style="fill:#82d6e0;stroke:#33bdf2;stroke-width:0.92px" /><path
       id="path3443"
       d="m 53.41,66.0401 c 0,0 8.18127,3.37718 13.5326,3.30619 l 5.48078,-0.946869 c 0,0 4.4736,-2.87014 -0.09362,-5.85902"
       style="fill:#82d6e0;stroke:#3a9cdd;stroke-width:0.92px" /><path
       id="path3445"
       d="m 63.8099,64.4675 c -5.99789,2.30906 -24.6349,4.1764 -31.2435,-1.02666 -3.73281,-2.93988 -8.54758,-15.1355 -8.54758,-15.1355 0,0 4.5779,-8.508 5.05918,-8.69587 0,0 -2.39199,-5.71012 9.65153,-9.70054 7.70061,-2.5497 6.93722,-2.94993 17.1593,-1.96411 6.37676,0.613862 16.6905,6.02553 19.0184,8.45145 4.00299,4.17012 13.9347,7.24886 17.7084,7.65098 3.77868,0.402121 6.19895,0.01506 6.19895,0.01506 0,0 -1.25223,8.39051 -4.86566,13.0507 -3.61595,4.6602 -6.35917,5.12516 -6.35917,5.12516 0,0 -5.89045,0.140742 -11.3386,0.222421 -8.09708,0.116866 -12.4412,2.00683 -12.4412,2.00683 v 2.6e-5 z"
       style="fill:#f8ac16;stroke:#f7a30e;stroke-width:0.92px" /><path
       id="path3447"
       d="m 22.5026,46.8992 c 0,0 6.00291,-16.4964 20.4767,-17.535 12.9037,-0.922362 20.5302,9.4511 20.5126,16.9475 -0.02265,9.29025 -6.9014,18.098 -15.9906,19.08 -11.0137,1.18751 -16.3016,-1.98987 -16.6346,-3.14471 -0.331122,-1.1605 -10.5909,-11.1953 -8.36411,-15.3478 v 0 z"
       style="fill:#fcd24c;stroke:#f7a30e;stroke-width:1px" /><path
       id="path3449"
       d="m 33.5107,62.7082 c -1.10457,0.870215 -0.173414,0.500135 -4.67968,1.1228 -3.18116,0.441072 -6.42765,-0.093 -8.21961,-2.41713 -1.57518,-2.04579 0.552289,-2.37691 3.5349,-2.56666 1.33328,-0.0867 2.73316,0.02007 2.38445,-0.620772 -1.39737,-2.56038 -3.97723,-5.50717 -7.04403,-5.86342 -6.52692,-0.754604 -4.83236,-5.33878 -4.83236,-5.33878 0.382015,-1.62985 4.93415,-1.95909 8.93211,-1.17684 l 10.4074,12.0837"
       style="fill:#82d6e0;stroke:#33bdf2;stroke-width:1.21px" /><path
       id="path3451"
       d="m 49.4171,36.1619 c 0.0666,4.99636 -3.87042,9.10364 -8.80205,9.17276 -4.92598,0.06472 -8.9698,-3.93576 -9.03075,-8.93651 -0.06597,-4.99949 3.87042,-9.1049 8.79702,-9.1715 4.92913,-0.06597 8.97233,3.9345 9.03578,8.93525 z"
       style="fill:#ffffff;fill-rule:nonzero;stroke:#d89026;stroke-width:0.95px" /><path
       id="path3453"
       d="m 42.5747,36.1959 c 0.01257,1.0009 -0.78099,1.82399 -1.76368,1.83908 -0.984566,0.01004 -1.79635,-0.788537 -1.80891,-1.78944 -0.01571,-1.00091 0.775965,-1.82399 1.76305,-1.83719 0.985196,-0.01197 1.79195,0.78853 1.80954,1.78755 z"
       style="fill:#221d1d;fill-rule:nonzero" /><path
       id="path3455"
       d="m 62.2095,48.1338 c 0,0 12.6191,-0.651564 13.4001,-1.29936 0.77848,-0.651558 1.74294,0.458045 1.90882,1.25538 0.167758,0.797325 -9.1715,9.39329 -11.3825,9.26449 -2.20853,-0.134456 -11.1815,0.507052 -10.8837,-0.775341"
       style="fill:#82d6e0;stroke:#33bdf2;stroke-width:0.92px" /></g></svg>
