<svg viewBox="0 0 24 24" width="16" height="16" xmlns="http://www.w3.org/2000/svg"><path d="M12 1.49A10.51 10.51 0 0 1 22.51 12 10.51 10.51 0 0 1 12 22.51 10.51 10.51 0 0 1 1.49 12 10.51 10.51 0 0 1 12 1.49m0 2.102A8.408 8.408 0 0 0 3.592 12 8.408 8.408 0 0 0 12 20.408a4.204 4.204 0 0 1-4.204-4.204A4.204 4.204 0 0 1 12 12a4.204 4.204 0 0 0 4.204-4.204A4.204 4.204 0 0 0 12 3.592m0 2.627a1.577 1.577 0 0 1 1.577 1.577A1.577 1.577 0 0 1 12 9.372a1.577 1.577 0 0 1-1.577-1.576A1.577 1.577 0 0 1 12 6.219m0 8.409a1.577 1.577 0 0 0-1.577 1.576A1.577 1.577 0 0 0 12 17.781a1.577 1.577 0 0 0 1.577-1.577A1.577 1.577 0 0 0 12 14.628Z" style="fill:#42a5f5;stroke-width:1.05101"/></svg>