<!--Copyright 2000-2021 JetBrains s.r.o. Use of this source code is governed by the Apache 2.0 license that can be found in the LICENSE file.--><svg xmlns="http://www.w3.org/2000/svg" xmlns:xlink="http://www.w3.org/1999/xlink" width="16" height="16" viewBox="0 0 16 16"><defs><path id="a" d="M0 0h8v14H0z"/></defs><g fill="none" fill-rule="evenodd"><path fill="#9AA7B0" fill-opacity=".8" d="M3 3.106A6.974 6.974 0 0 0 1 8c0 1.905.764 3.63 2 4.894v-9.79zm10 0v9.789A6.974 6.974 0 0 0 15 8a6.972 6.972 0 0 0-2-4.895"/><g transform="translate(4 1)"><mask id="b" fill="#fff"><use xlink:href="#a"/></mask><g mask="url(#b)"><path fill="#E05555" fill-opacity=".6" d="M11 7A7 7 0 1 1-3 7a7 7 0 0 1 14 0"/><path fill="#231F20" fill-opacity=".7" d="m3 12 2-4H0l5-6-1 4h4z"/></g></g></g></svg>