<svg xmlns="http://www.w3.org/2000/svg" xmlns:xlink="http://www.w3.org/1999/xlink" width="16" height="16" viewBox="0 0 16 16"><defs><circle id="a" cx="7" cy="7" r="7"/><circle id="d" cx="7" cy="7" r="7"/><circle id="g" cx="7" cy="7" r="7"/><circle id="j" cx="7" cy="7" r="7"/><circle id="m" cx="7" cy="7" r="7"/><circle id="p" cx="7" cy="7" r="7"/><circle id="s" cx="7" cy="7" r="7"/><linearGradient id="c" x1="4.547%" x2="25.932%" y1="62.056%" y2="43.316%"><stop offset="0%" stop-color="#EC9200" stop-opacity=".39"/><stop offset="100%" stop-color="#A52714" stop-opacity="0"/></linearGradient><linearGradient id="f" x1="83.873%" x2="68.178%" y1="87.776%" y2="80.707%"><stop offset="0%" stop-color="#F0A800"/><stop offset="100%" stop-color="#F5BC09"/></linearGradient><linearGradient id="i" x1="32.625%" x2="48.553%" y1="-4.841%" y2="45.414%"><stop offset="0%" stop-color="#EA6100" stop-opacity=".3"/><stop offset="66%" stop-color="#EA6100" stop-opacity="0"/></linearGradient><linearGradient id="q" x1="68.916%" x2="-26.883%" y1="9.006%" y2="110.032%"><stop offset="0%" stop-color="#E82200" stop-opacity=".073"/><stop offset="100%" stop-color="#263238" stop-opacity="0"/></linearGradient><radialGradient id="k" cx="-4.872%" cy="-.248%" r="401.327%" fx="-4.872%" fy="-.248%" gradientTransform="matrix(.26722 0 0 1 -.036 0)"><stop offset="0%" stop-color="#E82200" stop-opacity=".2"/><stop offset="100%" stop-color="#3E2723" stop-opacity="0"/></radialGradient><radialGradient id="n" cx="-.157%" cy=".104%" r="136.321%" fx="-.157%" fy=".104%" gradientTransform="scale(1 .84752)"><stop offset="0%" stop-color="#E82200" stop-opacity=".099"/><stop offset="100%" stop-color="#3E2723" stop-opacity="0"/></radialGradient><radialGradient id="u" cx="14.935%" cy="13.644%" r="100.426%" fx="14.935%" fy="13.644%"><stop offset="0%" stop-color="#FFF" stop-opacity=".1"/><stop offset="100%" stop-color="#FFF" stop-opacity="0"/></radialGradient></defs><g fill="none" fill-rule="evenodd" transform="translate(1 1)"><mask id="b" fill="#fff"><use xlink:href="#a"/></mask><g fill-rule="nonzero" mask="url(#b)"><path fill="#F49C00" d="M.554-.557V9.894h3.47l3.052-5.806h7.752V-.557z"/><path fill="url(#c)" d="M.077 0v10.451h3.47l3.052-5.806h7.752V0z" transform="translate(.477 -.557)"/></g><mask id="e" fill="#fff"><use xlink:href="#d"/></mask><g fill-rule="nonzero" mask="url(#e)"><path fill="#F5BA00" d="M-.557 14.227H6.63l3.336-3.612V7.91H4.021L-.557-.591z"/><path fill="url(#f)" d="M0 14.863h7.187l3.336-3.612V8.546H4.578L0 .045z" transform="translate(-.557 -.636)"/></g><mask id="h" fill="#fff"><use xlink:href="#g"/></mask><g fill-rule="nonzero" mask="url(#h)"><path fill="#FFCD40" d="M6.722 3.898 9.65 8.745l-3.286 5.494h7.795V3.898z"/><path fill="url(#i)" d="m.412 0 3.377 4.847L0 10.341h8.989V0z" transform="translate(6.364 3.898)"/></g><mask id="l" fill="#fff"><use xlink:href="#j"/></mask><path fill="url(#k)" fill-rule="nonzero" mask="url(#l)" d="M7.52 3.881v1.666l6.237-1.666z"/><mask id="o" fill="#fff"><use xlink:href="#m"/></mask><path fill="url(#n)" fill-rule="nonzero" mask="url(#o)" transform="rotate(2 3.379 5.458)" d="m1.102 2.772 4.554 4.553-1.421.82z"/><mask id="r" fill="#fff"><use xlink:href="#p"/></mask><path fill="url(#q)" fill-rule="nonzero" mask="url(#r)" d="m6.462 14.238 1.668-6.22 1.42.82z"/><mask id="t" fill="#fff"><use xlink:href="#s"/></mask><g fill-rule="nonzero" mask="url(#t)"><g transform="translate(3.818 3.818)"><circle cx="3.182" cy="3.182" r="3.182" fill="#F1F1F1"/><circle cx="3.182" cy="3.182" r="2.545" fill="#F7C310"/></g></g><circle cx="7" cy="7" r="7" fill="url(#u)" fill-rule="nonzero"/></g></svg>