<svg width="16" height="16" viewBox="0 0 16 16" fill="none" xmlns="http://www.w3.org/2000/svg"><path d="M13.636 11.42a5.38 5.38 0 0 1-.576.257 5.571 5.571 0 0 1-1.964.353c-2.587 0-4.841-1.78-4.841-4.064a1.722 1.722 0 0 1 .898-1.493c-2.34.098-2.942 2.537-2.942 3.966 0 4.04 3.723 4.45 4.526 4.45.432 0 1.085-.126 1.476-.25l.072-.024a7.018 7.018 0 0 0 3.642-2.887.218.218 0 0 0-.291-.309Z" fill="url(#a)"/><path opacity=".35" d="M13.636 11.42a5.38 5.38 0 0 1-.576.257 5.571 5.571 0 0 1-1.964.353c-2.587 0-4.841-1.78-4.841-4.064a1.722 1.722 0 0 1 .898-1.493c-2.34.098-2.942 2.537-2.942 3.966 0 4.04 3.723 4.45 4.526 4.45.432 0 1.085-.126 1.476-.25l.072-.024a7.018 7.018 0 0 0 3.642-2.887.218.218 0 0 0-.291-.309Z" fill="url(#b)"/><path d="M6.782 14.202c-.488-.303-.91-.7-1.244-1.167a4.414 4.414 0 0 1 1.615-6.562c.17-.08.462-.226.85-.219a1.769 1.769 0 0 1 1.405.71c.22.296.342.653.347 1.021 0-.011 1.338-4.353-4.374-4.353-2.4 0-4.375 2.279-4.375 4.277a7 7 0 0 0 9.214 6.732 4.131 4.131 0 0 1-3.433-.437l-.005-.002Z" fill="url(#c)"/><path opacity=".41" d="M6.782 14.202c-.488-.303-.91-.7-1.244-1.167a4.414 4.414 0 0 1 1.615-6.562c.17-.08.462-.226.85-.219a1.769 1.769 0 0 1 1.405.71c.22.296.342.653.347 1.021 0-.011 1.338-4.353-4.374-4.353-2.4 0-4.375 2.279-4.375 4.277a7 7 0 0 0 9.214 6.732 4.131 4.131 0 0 1-3.433-.437l-.005-.002Z" fill="url(#d)"/><path d="M9.33 9.14c-.044.058-.18.137-.18.31 0 .143.093.28.258.395.786.547 2.269.475 2.272.475a3.257 3.257 0 0 0 1.656-.457A3.357 3.357 0 0 0 15 6.972c.014-1.226-.438-2.04-.62-2.402C13.22 2.304 10.72 1 8 1a7 7 0 0 0-7 6.901C1.026 5.903 3.012 4.29 5.375 4.29c.191 0 1.283.019 2.296.55.894.47 1.362 1.037 1.687 1.598.338.584.399 1.32.399 1.615 0 .293-.15.728-.427 1.088Z" fill="url(#e)"/><path d="M9.33 9.14c-.044.058-.18.137-.18.31 0 .143.093.28.258.395.786.547 2.269.475 2.272.475a3.257 3.257 0 0 0 1.656-.457A3.357 3.357 0 0 0 15 6.972c.014-1.226-.438-2.04-.62-2.402C13.22 2.304 10.72 1 8 1a7 7 0 0 0-7 6.901C1.026 5.903 3.012 4.29 5.375 4.29c.191 0 1.283.019 2.296.55.894.47 1.362 1.037 1.687 1.598.338.584.399 1.32.399 1.615 0 .293-.15.728-.427 1.088Z" fill="url(#f)"/><defs><radialGradient id="b" cx="0" cy="0" r="1" gradientUnits="userSpaceOnUse" gradientTransform="matrix(5.21577 0 0 4.95498 9.597 10.759)"><stop offset=".72" stop-opacity="0"/><stop offset=".95" stop-opacity=".53"/><stop offset="1"/></radialGradient><radialGradient id="d" cx="0" cy="0" r="1" gradientUnits="userSpaceOnUse" gradientTransform="rotate(-81.384 9.34 3.115) scale(7.84312 6.33646)"><stop offset=".76" stop-opacity="0"/><stop offset=".95" stop-opacity=".5"/><stop offset="1"/></radialGradient><radialGradient id="e" cx="0" cy="0" r="1" gradientUnits="userSpaceOnUse" gradientTransform="matrix(-.44279 11.06975 -23.57615 -.94304 2.414 3.59)"><stop offset="0" stop-color="#35C1F1"/><stop offset=".11" stop-color="#34C1ED"/><stop offset=".23" stop-color="#2FC2DF"/><stop offset=".31" stop-color="#2BC3D2"/><stop offset=".67" stop-color="#36C752"/></radialGradient><radialGradient id="f" cx="0" cy="0" r="1" gradientUnits="userSpaceOnUse" gradientTransform="matrix(1.49043 5.11003 -4.15548 1.21201 14.128 5.233)"><stop offset="0" stop-color="#66EB6E"/><stop offset="1" stop-color="#66EB6E" stop-opacity="0"/></radialGradient><linearGradient id="a" x1="4.211" y1="10.682" x2="13.963" y2="10.682" gradientUnits="userSpaceOnUse"><stop offset="0" stop-color="#0C59A4"/><stop offset="1" stop-color="#114A8B"/></linearGradient><linearGradient id="c" x1="9.352" y1="6.451" x2="3.261" y2="13.086" gradientUnits="userSpaceOnUse"><stop offset="0" stop-color="#1B9DE2"/><stop offset=".16" stop-color="#1595DF"/><stop offset=".67" stop-color="#0680D7"/><stop offset="1" stop-color="#0078D4"/></linearGradient></defs></svg>