<svg xmlns="http://www.w3.org/2000/svg" width="16" height="16" viewBox="0 0 16 16"><g fill="#1EBBEE"><path d="M15 8.035a6.015 6.015 0 0 0-.788-2.982C16.35.321 11.92 1.015 11.673 1.062a11.45 11.45 0 0 0-2.608.833 6.485 6.485 0 0 0-.356-.01c-2.99 0-5.492 2.038-6.133 4.77 1.576-1.727 2.679-2.425 3.34-2.704a14.88 14.88 0 0 0-.311.28c-.034.03-.066.062-.1.094a11.74 11.74 0 0 0-.199.189l-.114.114c-.058.058-.116.115-.172.173l-.12.124a15.453 15.453 0 0 0-.787.885l-.122.15c-.04.048-.078.096-.116.144l-.108.137-.12.155-.082.11a19.066 19.066 0 0 0-.84 1.215l-.008.013c-.051.08-.1.16-.148.238l-.006.008c-.129.212-.249.415-.357.607-.567 1.003-.843 1.705-.854 1.746-1.79 6.253 3.795 3.613 4.574 3.219a6.384 6.384 0 0 0 2.783.633c2.735 0 5.063-1.707 5.929-4.09h-3.306c-.489.807-1.43 1.354-2.512 1.354-1.585 0-2.87-1.174-2.87-2.622h8.998c.034-.26.052-.524.052-.792Zm-1.175-6.052c.541.357.976.919.23 2.81a6.28 6.28 0 0 0-3.073-2.494c.582-.275 2.024-.856 2.843-.316ZM2.31 13.539c-.441-.442-.52-1.52.455-3.483a6.2 6.2 0 0 0 2.739 3.273c-.63.339-2.304 1.102-3.194.21Zm3.625-6.394c.05-1.408 1.303-2.534 2.843-2.534s2.792 1.126 2.843 2.534H5.936Z"/><path d="M15 8.035a6.015 6.015 0 0 0-.788-2.982C16.35.321 11.92 1.015 11.673 1.062a11.45 11.45 0 0 0-2.608.833 6.485 6.485 0 0 0-.356-.01c-2.99 0-5.492 2.038-6.133 4.77 1.576-1.727 2.679-2.425 3.34-2.704a14.88 14.88 0 0 0-.311.28c-.034.03-.066.062-.1.094a11.74 11.74 0 0 0-.199.189l-.114.114c-.058.058-.116.115-.172.173l-.12.124a15.453 15.453 0 0 0-.787.885l-.122.15c-.04.048-.078.096-.116.144l-.108.137-.12.155-.082.11a19.066 19.066 0 0 0-.84 1.215l-.008.013c-.051.08-.1.16-.148.238l-.006.008c-.129.212-.249.415-.357.607-.567 1.003-.843 1.705-.854 1.746-1.79 6.253 3.795 3.613 4.574 3.219a6.384 6.384 0 0 0 2.783.633c2.735 0 5.063-1.707 5.929-4.09h-3.306c-.489.807-1.43 1.354-2.512 1.354-1.585 0-2.87-1.174-2.87-2.622h8.998c.034-.26.052-.524.052-.792Zm-1.175-6.052c.541.357.976.919.23 2.81a6.28 6.28 0 0 0-3.073-2.494c.582-.275 2.024-.856 2.843-.316ZM2.31 13.539c-.441-.442-.52-1.52.455-3.483a6.2 6.2 0 0 0 2.739 3.273c-.63.339-2.304 1.102-3.194.21Zm3.625-6.394c.05-1.408 1.303-2.534 2.843-2.534s2.792 1.126 2.843 2.534H5.936Z"/></g></svg>