<svg xmlns="http://www.w3.org/2000/svg" width="16" height="16" viewBox="0 0 16 16"><defs><linearGradient id="f" gradientUnits="userSpaceOnUse" x1=".42" y1="-.1" x2=".61" y2="1.14" gradientTransform="matrix(4.70703 0 0 10.15234 9.516 0)"><stop offset="0" style="stop-color:#aaf2ff;stop-opacity:1"/><stop offset=".29" style="stop-color:#0df;stop-opacity:1"/><stop offset=".61" style="stop-color:#0090ed;stop-opacity:1"/><stop offset=".89" style="stop-color:#0250bb;stop-opacity:1"/></linearGradient><linearGradient id="g" gradientUnits="userSpaceOnUse" x1=".38" y1="0" x2=".63" y2="1.24" gradientTransform="matrix(3.60547 0 0 6.11328 7.754 .004)"><stop offset="0" style="stop-color:#aaf2ff;stop-opacity:1"/><stop offset=".29" style="stop-color:#0df;stop-opacity:1"/><stop offset=".74" style="stop-color:#0090ed;stop-opacity:1"/><stop offset="1" style="stop-color:#0250bb;stop-opacity:1"/></linearGradient><linearGradient id="k" gradientUnits="userSpaceOnUse" x1=".86" y1=".15" x2=".2" y2=".84" gradientTransform="matrix(14.96484 0 0 15.5 .492 0)"><stop offset=".24" style="stop-color:#80ebff;stop-opacity:.501961"/><stop offset=".7" style="stop-color:#0df;stop-opacity:0"/></linearGradient><linearGradient id="l" gradientUnits="userSpaceOnUse" x1=".61" y1="-.1" x2=".2" y2="1.49" gradientTransform="matrix(3.44922 0 0 3.25 4.574 6.547)"><stop offset="0" style="stop-color:#bff3ff;stop-opacity:.901961"/><stop offset="1" style="stop-color:#80ebff;stop-opacity:.501961"/></linearGradient><linearGradient id="m" gradientUnits="userSpaceOnUse" x1=".51" y1="-.02" x2=".48" y2="1.39" gradientTransform="matrix(4.74219 0 0 12.46484 9.48 0)"><stop offset="0" style="stop-color:#bff3ff;stop-opacity:1"/><stop offset="1" style="stop-color:#0df;stop-opacity:0"/></linearGradient><linearGradient id="n" gradientUnits="userSpaceOnUse" x1=".52" y1="-.04" x2=".47" y2="1.43" gradientTransform="matrix(2.55078 0 0 3.83594 7.793 .004)"><stop offset="0" style="stop-color:#bff3ff;stop-opacity:1"/><stop offset="1" style="stop-color:#aaf2ff;stop-opacity:.501961"/></linearGradient><linearGradient id="o" gradientUnits="userSpaceOnUse" x1=".53" y1="-.02" x2=".47" y2="1.42" gradientTransform="matrix(4.64844 0 0 5.83984 7.86 5.633)"><stop offset="0" style="stop-color:#bff3ff;stop-opacity:1"/><stop offset="1" style="stop-color:#0df;stop-opacity:0"/></linearGradient><linearGradient id="p" gradientUnits="userSpaceOnUse" x1=".49" y1="-.02" x2=".57" y2="1.23" gradientTransform="matrix(5.5 0 0 4.5625 2.441 6.438)"><stop offset="0" style="stop-color:#bff3ff;stop-opacity:.8"/><stop offset="1" style="stop-color:#80ebff;stop-opacity:.2"/></linearGradient><linearGradient id="q" gradientUnits="userSpaceOnUse" x1="1.17" y1="-.23" x2=".24" y2="1.28" gradientTransform="matrix(1.76172 0 0 1.83594 3.73 2.988)"><stop offset="0" style="stop-color:#bff3ff;stop-opacity:.8"/><stop offset="1" style="stop-color:#80ebff;stop-opacity:.2"/></linearGradient><linearGradient id="r" gradientUnits="userSpaceOnUse" x1=".52" y1="-.01" x2=".47" y2="1.37" gradientTransform="matrix(5.04688 0 0 7.88281 .492 7.2)"><stop offset="0" style="stop-color:#0df;stop-opacity:.4"/><stop offset="1" style="stop-color:#0df;stop-opacity:0"/></linearGradient><linearGradient id="s" gradientUnits="userSpaceOnUse" x1=".5" y1="-.12" x2=".5" y2=".99" gradientTransform="matrix(7.28906 0 0 11.59766 .563 2.504)"><stop offset="0" style="stop-color:#bff3ff;stop-opacity:1"/><stop offset="1" style="stop-color:#0df;stop-opacity:0"/></linearGradient><linearGradient id="t" gradientUnits="userSpaceOnUse" x1=".53" y1="-.03" x2=".47" y2="1.42" gradientTransform="matrix(8.64453 0 0 12.20313 6.813 3.297)"><stop offset="0" style="stop-color:#bff3ff;stop-opacity:.8"/><stop offset="1" style="stop-color:#0df;stop-opacity:0"/></linearGradient><radialGradient id="a" gradientUnits="userSpaceOnUse" cx=".55" cy=".25" fx=".55" fy=".25" r=".6" gradientTransform="translate(4.371 4.16) scale(7.32422)"><stop offset=".1" style="stop-color:#0df;stop-opacity:.4"/><stop offset=".9" style="stop-color:#7542e5;stop-opacity:.25098"/></radialGradient><radialGradient id="b" gradientUnits="userSpaceOnUse" cx=".492" cy=".527" fx=".49" fy=".527" r=".51" gradientTransform="translate(4.371 4.16) scale(7.32422)"><stop offset=".91" style="stop-color:#7542e5;stop-opacity:0"/><stop offset="1" style="stop-color:#0df;stop-opacity:.4"/></radialGradient><radialGradient id="c" gradientUnits="userSpaceOnUse" cx=".86" cy="-.13" fx=".86" fy="-.13" r="1.28" gradientTransform="matrix(12.16088 0 0 12.20313 2.887 3.297)"><stop offset="0" style="stop-color:#80ebff;stop-opacity:1"/><stop offset=".26" style="stop-color:#0df;stop-opacity:1"/><stop offset=".53" style="stop-color:#0090ed;stop-opacity:1"/><stop offset=".86" style="stop-color:#0060df;stop-opacity:1"/></radialGradient><radialGradient id="d" gradientUnits="userSpaceOnUse" cx=".477" cy=".4" fx=".48" fy=".4" r="1.28" gradientTransform="matrix(12.16088 0 0 12.20313 1.839 3.297)"><stop offset=".3" style="stop-color:#321c64;stop-opacity:.8"/><stop offset=".37" style="stop-color:#212f83;stop-opacity:.501961"/><stop offset=".48" style="stop-color:#0a47ac;stop-opacity:.141176"/><stop offset=".53" style="stop-color:#0250bb;stop-opacity:0"/></radialGradient><radialGradient id="e" gradientUnits="userSpaceOnUse" cx=".9" cy="-.5" fx=".9" fy="-.5" r="2.1" gradientTransform="matrix(11.455 0 0 11.80469 2.311 2.504)"><stop offset="0" style="stop-color:#80ebff;stop-opacity:1"/><stop offset=".47" style="stop-color:#00b3f4;stop-opacity:1"/><stop offset=".84" style="stop-color:#0060df;stop-opacity:1"/><stop offset="1" style="stop-color:#592acb;stop-opacity:1"/></radialGradient><radialGradient id="h" gradientUnits="userSpaceOnUse" cx="2.08" cy="-1.04" fx="2.08" fy="-1.04" r="3" gradientTransform="matrix(1.83203 0 0 1.83127 3.66 2.983)"><stop offset="0" style="stop-color:#0df;stop-opacity:1"/><stop offset=".82" style="stop-color:#0090ed;stop-opacity:1"/></radialGradient><radialGradient id="i" gradientUnits="userSpaceOnUse" cx="1.55" cy="-.45" fx="1.55" fy="-.45" r="3.13" gradientTransform="matrix(4.99215 0 0 4.6914 3.36 6.438)"><stop offset=".29" style="stop-color:#80ebff;stop-opacity:1"/><stop offset="1" style="stop-color:#00b3f4;stop-opacity:1"/></radialGradient><radialGradient id="j" gradientUnits="userSpaceOnUse" cx=".15" cy="-.43" fx=".15" fy="-.43" r="2.3" gradientTransform="matrix(5.98807 0 0 5.96094 6.425 5.64)"><stop offset=".18" style="stop-color:#aaf2ff;stop-opacity:1"/><stop offset=".43" style="stop-color:#0df;stop-opacity:1"/><stop offset=".69" style="stop-color:#0060df;stop-opacity:1"/></radialGradient></defs><path style="stroke:none;fill-rule:nonzero;fill:#09204d;fill-opacity:1" d="m4.582 9.035.473 1.313.71.957 1.669.32.8.066 1.364-.34.586-.562Zm0 0"/><path style="stroke:none;fill-rule:nonzero;fill:#09204d;fill-opacity:1" d="m11.645 7.098-.165-.555-.48-.898-.547-.579-.578-.414-.504-.199-.605-.215-.996-.062-.625.113-.516.156-.906.535-.57.633-.524.852-.203.723-.04 1.097.196.75.434.852.304.41.422.39.528.356.652.281 1.09.13.566.015.844-.235.75-.414.484-.414.375-.445.531-1.04.118-.71Zm0 0"/><path style="stroke:none;fill-rule:nonzero;fill:#0e56d7;fill-opacity:1" d="m7.79 4.676-.446.441.726.297.54-.672Zm0 0"/><path style="stroke:none;fill-rule:nonzero;fill:#1053d1;fill-opacity:1" d="m8.07 5.414 1.407-.043-.868-.629Zm0 0"/><path style="stroke:none;fill-rule:nonzero;fill:#0b4fbf;fill-opacity:1" d="m9.375 4.738-.766.004.868.63.804-.056Zm0 0"/><path style="stroke:none;fill-rule:nonzero;fill:#0b48b0;fill-opacity:1" d="m10.281 5.316-.457-.628.63.378Zm0 0"/><path style="stroke:none;fill-rule:nonzero;fill:#0c45a7;fill-opacity:1" d="m10.883 5.703-.602-.387.172-.25Zm0 0"/><path style="stroke:none;fill-rule:nonzero;fill:#0f46af;fill-opacity:1" d="m10.281 5.316-.101.43.55.223Zm0 0"/><path style="stroke:none;fill-rule:nonzero;fill:#0c47ad;fill-opacity:1" d="m10.281 5.316.602.387-.153.266Zm0 0"/><path style="stroke:none;fill-rule:nonzero;fill:#0e4fc3;fill-opacity:1" d="m9.477 5.371.804-.055-.101.43Zm0 0"/><path style="stroke:none;fill-rule:nonzero;fill:#174dca;fill-opacity:1" d="m9.477 5.371-.633.57.816.403Zm0 0"/><path style="stroke:none;fill-rule:nonzero;fill:#1650d4;fill-opacity:1" d="m8.07 5.414 1.407-.043-.633.57Zm0 0"/><path style="stroke:none;fill-rule:nonzero;fill:#1246b2;fill-opacity:1" d="m10.18 5.746.383.746.167-.523Zm0 0"/><path style="stroke:none;fill-rule:nonzero;fill:#133ea1;fill-opacity:1" d="m10.563 6.492.167-.523.403.957Zm0 0"/><path style="stroke:none;fill-rule:nonzero;fill:#103d98;fill-opacity:1" d="m10.73 5.969.614.449-.211.508Zm0 0"/><path style="stroke:none;fill-rule:nonzero;fill:#0b3785;fill-opacity:1" d="M10.883 5.703 11 5.645l.344.773Zm0 0"/><path style="stroke:none;fill-rule:nonzero;fill:#0b3685;fill-opacity:1" d="m11.344 6.418.136.125-.48-.898Zm0 0"/><path style="stroke:none;fill-rule:nonzero;fill:#0c3b91;fill-opacity:1" d="m11.344 6.418-.461-.715-.153.266Zm-.89-1.352.429.637.117-.058Zm0 0"/><path style="stroke:none;fill-rule:nonzero;fill:#0b3279;fill-opacity:1" d="m11.617 7.531-.137-.988.165.555-.032.433Zm0 0"/><path style="stroke:none;fill-rule:nonzero;fill:#0f388d;fill-opacity:1" d="m11.344 6.418.273 1.113-.137-.988Zm0 0"/><path style="stroke:none;fill-rule:nonzero;fill:#0d3481;fill-opacity:1" d="m11.133 6.926.484.605-.273-1.113Zm0 0"/><path style="stroke:none;fill-rule:nonzero;fill:#0b2e71;fill-opacity:1" d="m11.613 7.531.032-.433.035 1.113-.063-.68Zm0 0"/><path style="stroke:none;fill-rule:nonzero;fill:#0e2f77;fill-opacity:1" d="m11.535 8.41.145-.2-.063-.679Zm0 0"/><path style="stroke:none;fill-rule:nonzero;fill:#0e2969;fill-opacity:1" d="m11.563 8.922-.118.055.235-.766Zm0 0"/><path style="stroke:none;fill-rule:nonzero;fill:#0c2a69;fill-opacity:1" d="m11.445 8.977.235-.766-.145.2Zm0 0"/><path style="stroke:none;fill-rule:nonzero;fill:#123180;fill-opacity:1" d="m11.535 8.41.082-.879-.25.293Zm0 0"/><path style="stroke:none;fill-rule:nonzero;fill:#112b70;fill-opacity:1" d="m11.445 8.977.09-.567-.48.805Zm0 0"/><path style="stroke:none;fill-rule:nonzero;fill:#12378c;fill-opacity:1" d="m11.133 6.926.484.605-.25.293Zm0 0"/><path style="stroke:none;fill-rule:nonzero;fill:#122e7b;fill-opacity:1" d="m11.535 8.41-.168-.586-.254.723Zm0 0"/><path style="stroke:none;fill-rule:nonzero;fill:#11296c;fill-opacity:1" d="m11.031 9.96.414-.983-.386.714Zm0 0"/><path style="stroke:none;fill-rule:nonzero;fill:#142a72;fill-opacity:1" d="m11.059 9.691.386-.714-.39.238Zm0 0"/><path style="stroke:none;fill-rule:nonzero;fill:#112768;fill-opacity:1" d="m11.445 8.977-.414.984.531-1.04Zm-.789 1.43.375-.446.028-.27Zm-.484.413.484-.414-.511.235Zm0 0"/><path style="stroke:none;fill-rule:nonzero;fill:#1c226a;fill-opacity:1" d="m7.348 11.105-.489.122.016-.34Zm0 0"/><path style="stroke:none;fill-rule:nonzero;fill:#182b7a;fill-opacity:1" d="m4.629 6.465.137-.05-.34.772Zm0 0"/><path style="stroke:none;fill-rule:nonzero;fill:#1f308d;fill-opacity:1" d="m4.426 7.188.258-.047.082-.727Zm0 0"/><path style="stroke:none;fill-rule:nonzero;fill:#1e2b7f;fill-opacity:1" d="m4.438 8.117-.012-.93.258-.046Zm0 0"/><path style="stroke:none;fill-rule:nonzero;fill:#1346b5;fill-opacity:1" d="m10.18 5.746-.52.598.902.148Zm-4.528-.61.66-.452-.59.296Zm0 0"/><path style="stroke:none;fill-rule:nonzero;fill:#1244ac;fill-opacity:1" d="m5.723 4.98.906-.535-.316.239-.59.296"/><path style="stroke:none;fill-rule:nonzero;fill:#0e4ab6;fill-opacity:1" d="m6.313 4.684.832-.395-.516.156Zm0 0"/><path style="stroke:none;fill-rule:nonzero;fill:#0e4bba;fill-opacity:1" d="m9.477 5.371.183.973.52-.598Zm-2.657-.73.77-.313-.445-.039Zm0 0"/><path style="stroke:none;fill-rule:nonzero;fill:#0a4ebc;fill-opacity:1" d="m7.77 4.176-.625.113.445.04Zm0 0"/><path style="stroke:none;fill-rule:nonzero;fill:#0c54cc;fill-opacity:1" d="m8.363 4.324-.773.004.18-.152"/><path style="stroke:none;fill-rule:nonzero;fill:#0b4bb4;fill-opacity:1" d="m9.824 4.688-.449.05.906.578Zm-1.46-.364 1.007.13-.605-.216Zm0 0"/><path style="stroke:none;fill-rule:nonzero;fill:#0c3889;fill-opacity:1" d="m9.824 4.688-.453-.235.504.2Zm0 0"/><path style="stroke:none;fill-rule:nonzero;fill:#202575;fill-opacity:1" d="m4.582 9.035.297.242-.438-1.16Zm4.106 2.313.261-.618-.953.258Zm.261-.618.797.223.047-.617Zm0 0"/><path style="stroke:none;fill-rule:nonzero;fill:#1b2773;fill-opacity:1" d="m10.145 10.64-.352-.304.848-.563Zm0 0"/><path style="stroke:none;fill-rule:nonzero;fill:#15276d;fill-opacity:1" d="m10.64 9.773-.495.868.511-.235.403-.715Zm0 0"/><path style="stroke:none;fill-rule:nonzero;fill:#0c409d;fill-opacity:1" d="m9.875 4.652-.05.035.628.38Zm-.5.086.45-.05-.454-.235Zm0 0"/><path style="stroke:none;fill-rule:nonzero;fill:#0b4cb7;fill-opacity:1" d="m7.77 4.176.593.148.403-.086Zm1.601.277-1.008-.129 1.012.414Zm0 0"/><path style="stroke:none;fill-rule:nonzero;fill:#0b55ce;fill-opacity:1" d="m8.363 4.324.246.418.766-.004Zm0 0"/><path style="stroke:none;fill-rule:nonzero;fill:#0a52c5;fill-opacity:1" d="m8.363 4.324.246.418-.82-.066Zm0 0"/><path style="stroke:none;fill-rule:nonzero;fill:#0951c4;fill-opacity:1" d="m7.59 4.328.2.348.573-.352Zm0 0"/><path style="stroke:none;fill-rule:nonzero;fill:#0b50c4;fill-opacity:1" d="m6.82 4.64.77-.312.2.348Zm0 0"/><path style="stroke:none;fill-rule:nonzero;fill:#0f4dbf;fill-opacity:1" d="m6.313 4.684.507-.043.325-.352Zm.507-.043.524.476.445-.441Zm0 0"/><path style="stroke:none;fill-rule:nonzero;fill:#1546b6;fill-opacity:1" d="m6.82 4.64-.855.801.348-.757Zm0 0"/><path style="stroke:none;fill-rule:nonzero;fill:#1549bd;fill-opacity:1" d="m5.965 5.441.543.09.312-.89Zm0 0"/><path style="stroke:none;fill-rule:nonzero;fill:#144bc3;fill-opacity:1" d="m6.508 5.531.312-.89.524.476Zm0 0"/><path style="stroke:none;fill-rule:nonzero;fill:#173794;fill-opacity:1" d="m5.152 5.613.035.32.465-.796Zm0 0"/><path style="stroke:none;fill-rule:nonzero;fill:#192f84;fill-opacity:1" d="m4.766 6.414.386-.8.035.32Zm0 0"/><path style="stroke:none;fill-rule:nonzero;fill:#1a389b;fill-opacity:1" d="m5.188 5.934.464-.797.313.304Zm0 0"/><path style="stroke:none;fill-rule:nonzero;fill:#1d3089;fill-opacity:1" d="m5.16 6.625.027-.691-.421.48Zm0 0"/><path style="stroke:none;fill-rule:nonzero;fill:#1e389f;fill-opacity:1" d="m5.16 6.625.027-.691.547.445Zm0 0"/><path style="stroke:none;fill-rule:nonzero;fill:#1c40af;fill-opacity:1" d="m5.734 6.379.23-.938-.777.493Zm0 0"/><path style="stroke:none;fill-rule:nonzero;fill:#1e41b7;fill-opacity:1" d="m5.734 6.379.23-.938.544.09Zm0 0"/><path style="stroke:none;fill-rule:nonzero;fill:#192c7d;fill-opacity:1" d="m4.684 7.14.082-.726.394.211Zm0 0"/><path style="stroke:none;fill-rule:nonzero;fill:#162467;fill-opacity:1" d="m8.688 11.348.734-.114.324-.28ZM4.386 8.285l.054-.168-.015-.93Zm.297-1.144-.243.976.438 1.16-.215-1.343Zm0 0"/><path style="stroke:none;fill-rule:nonzero;fill:#1a236a;fill-opacity:1" d="m4.879 9.277.363.051-.254-.59Zm0 0"/><path style="stroke:none;fill-rule:nonzero;fill:#132668;fill-opacity:1" d="m10.145 10.64-.399.313-.324.281.75-.414Zm-2.133.813.566.016.844-.235-.735.114Zm-2.793-1.5.379.074-.356-.695Zm0 0"/><path style="stroke:none;fill-rule:nonzero;fill:#1b2268;fill-opacity:1" d="m6.875 10.887-.648-.5-.266.261.898.579ZM4.582 9.035l.434.852-.137-.61Zm-.195-.75.195.75-.14-.918Zm3.61 2.703-1.122-.101.473.222-.489.118-.59-.184.653.281 1.09.13.675-.106ZM5.241 9.332l-.363-.055.34.676Zm-.578-1.398.215 1.343.11-.539Zm.934 2.093-.38-.074-.202-.066.304.41.422.39.528.356-.31-.395Zm0 0"/><path style="stroke:none;fill-rule:nonzero;fill:#212a81;fill-opacity:1" d="m4.684 7.14.511.79-.035-1.305Zm0 0"/><path style="stroke:none;fill-rule:nonzero;fill:#21267a;fill-opacity:1" d="m4.664 7.934.324.804.207-.808Zm0 0"/><path style="stroke:none;fill-rule:nonzero;fill:#262781;fill-opacity:1" d="m4.988 8.738.207-.808.254.636Zm0 0"/><path style="stroke:none;fill-rule:nonzero;fill:#272379;fill-opacity:1" d="m5.242 9.328.98.61-.773-1.372Zm0 0"/><path style="stroke:none;fill-rule:nonzero;fill:#1e226d;fill-opacity:1" d="m5.016 9.887.203.066-.34-.676Zm2.168.351-.309.649 1.121.101Zm-1.942-.91.356.7.363.617.266-.258-.004-.45Zm0 0"/><path style="stroke:none;fill-rule:nonzero;fill:#222475;fill-opacity:1" d="m9.793 10.336-.047.617.399-.312Zm-1.715-.09-.082.742.953-.258-.035-.832Zm0 0"/><path style="stroke:none;fill-rule:nonzero;fill:#23277d;fill-opacity:1" d="m4.664 7.934.531-.004-.511-.79Zm4.25 1.964.035.832.844-.394Zm0 0"/><path style="stroke:none;fill-rule:nonzero;fill:#1e2776;fill-opacity:1" d="m8.914 9.898.547-.492.332.93Zm0 0"/><path style="stroke:none;fill-rule:nonzero;fill:#222b86;fill-opacity:1" d="m9.793 10.336.414-1.246-.746.316Zm0 0"/><path style="stroke:none;fill-rule:nonzero;fill:#192974;fill-opacity:1" d="m10.64 9.773-.847.563.414-1.246Zm0 0"/><path style="stroke:none;fill-rule:nonzero;fill:#172a75;fill-opacity:1" d="m11.055 9.215-.848-.125.434.683.418-.082Zm0 0"/><path style="stroke:none;fill-rule:nonzero;fill:#172d7d;fill-opacity:1" d="m11.113 8.547-.906.543.848.125.48-.805Zm0 0"/><path style="stroke:none;fill-rule:nonzero;fill:#18338a;fill-opacity:1" d="m4.766 6.414.386-.8-.523.85Zm6.011.992.336 1.14.254-.722Zm0 0"/><path style="stroke:none;fill-rule:nonzero;fill:#153791;fill-opacity:1" d="m11.367 7.824-.234-.898-.356.48Zm0 0"/><path style="stroke:none;fill-rule:nonzero;fill:#1b318b;fill-opacity:1" d="m10.207 9.09.906-.543-.879-.395Zm0 0"/><path style="stroke:none;fill-rule:nonzero;fill:#242d8d;fill-opacity:1" d="m10.207 9.09-.824-.832.078 1.148Zm0 0"/><path style="stroke:none;fill-rule:nonzero;fill:#2a2b8f;fill-opacity:1" d="m8.914 9.898-.633-.558 1.18.066Zm0 0"/><path style="stroke:none;fill-rule:nonzero;fill:#27267f;fill-opacity:1" d="m5.242 9.328.207-.762-.46.172Zm3.04.012-.204.906.836-.348Zm0 0"/><path style="stroke:none;fill-rule:nonzero;fill:#2d2381;fill-opacity:1" d="m6.973 9.523-.61-.308-.14.723.96.3.895.008Zm0 0"/><path style="stroke:none;fill-rule:nonzero;fill:#2f2485;fill-opacity:1" d="m8.078 10.246.203-.906-1.308.183Zm0 0"/><path style="stroke:none;fill-rule:nonzero;fill:#233196;fill-opacity:1" d="m5.195 7.93.262-.836-.297-.469Zm0 0"/><path style="stroke:none;fill-rule:nonzero;fill:#293cb7;fill-opacity:1" d="m5.734 6.379 1.153-.336-.61 1.246Zm0 0"/><path style="stroke:none;fill-rule:nonzero;fill:#25339c;fill-opacity:1" d="m10.207 9.09-.824-.832.851-.106Zm0 0"/><path style="stroke:none;fill-rule:nonzero;fill:#19348f;fill-opacity:1" d="m11.113 8.547-.336-1.14-.543.745Zm0 0"/><path style="stroke:none;fill-rule:nonzero;fill:#2a309a;fill-opacity:1" d="m9.46 9.406-.944-.91.867-.238Zm0 0"/><path style="stroke:none;fill-rule:nonzero;fill:#302b96;fill-opacity:1" d="m8.281 9.34 1.18.066-.945-.91Zm0 0"/><path style="stroke:none;fill-rule:nonzero;fill:#3630a7;fill-opacity:1" d="m8.281 9.34-.644-.524.879-.32Zm0 0"/><path style="stroke:none;fill-rule:nonzero;fill:#173da2;fill-opacity:1" d="m5.652 5.137.07-.157-.57.633Zm4.91 1.355.215.914.356-.48Zm0 0"/><path style="stroke:none;fill-rule:nonzero;fill:#2a36a8;fill-opacity:1" d="m5.734 6.379.543.91-.82-.195Zm0 0"/><path style="stroke:none;fill-rule:nonzero;fill:#312e9f;fill-opacity:1" d="m5.457 7.094.82.195-.554.875Zm0 0"/><path style="stroke:none;fill-rule:nonzero;fill:#184dcd;fill-opacity:1" d="m6.887 6.043.457-.926-.836.414Zm0 0"/><path style="stroke:none;fill-rule:nonzero;fill:#272986;fill-opacity:1" d="m5.195 7.93.528.234-.274.402Zm0 0"/><path style="stroke:none;fill-rule:nonzero;fill:#2c2584;fill-opacity:1" d="m5.723 8.164-.274.402.774 1.371.14-.722Zm0 0"/><path style="stroke:none;fill-rule:nonzero;fill:#32268b;fill-opacity:1" d="M6.363 9.215 6.45 7.94l-.726.223Zm0 0"/><path style="stroke:none;fill-rule:nonzero;fill:#372999;fill-opacity:1" d="m6.363 9.215 1.274-.399-1.188-.875Zm0 0"/><path style="stroke:none;fill-rule:nonzero;fill:#392da5;fill-opacity:1" d="m7.637 8.816-.121-.988-1.067.113Zm0 0"/><path style="stroke:none;fill-rule:nonzero;fill:#3338bc;fill-opacity:1" d="m7.516 7.828.898-.336.102 1.004Zm0 0"/><path style="stroke:none;fill-rule:nonzero;fill:#362896;fill-opacity:1" d="M6.973 9.523 8.28 9.34l-.644-.524Zm0 0"/><path style="stroke:none;fill-rule:nonzero;fill:#35268f;fill-opacity:1" d="m6.973 9.523-.61-.308 1.274-.399Zm0 0"/><path style="stroke:none;fill-rule:nonzero;fill:#2648d3;fill-opacity:1" d="m6.887 6.043.781.082-.324-1.008Zm0 0"/><path style="stroke:none;fill-rule:nonzero;fill:#1057dc;fill-opacity:1" d="m8.07 5.414-.726-.297.324 1.008Zm0 0"/><path style="stroke:none;fill-rule:nonzero;fill:#1653da;fill-opacity:1" d="m8.07 5.414.774.527-1.176.184Zm0 0"/><path style="stroke:none;fill-rule:nonzero;fill:#2b46d5;fill-opacity:1" d="m7.668 6.125 1.152.613-.406.754Zm0 0"/><path style="stroke:none;fill-rule:nonzero;fill:#244ad7;fill-opacity:1" d="m8.82 6.738.024-.797-1.176.184Zm0 0"/><path style="stroke:none;fill-rule:nonzero;fill:#2547cf;fill-opacity:1" d="m8.82 6.738.024-.797.816.403Zm0 0"/><path style="stroke:none;fill-rule:nonzero;fill:#333cc5;fill-opacity:1" d="m7.668 6.125.746 1.367-1.309-.652Zm0 0"/><path style="stroke:none;fill-rule:nonzero;fill:#3833b6;fill-opacity:1" d="m7.516 7.828.898-.336-1.309-.652Zm0 0"/><path style="stroke:none;fill-rule:nonzero;fill:#2a41c6;fill-opacity:1" d="m8.414 7.492 1.152-.207-.746-.547Zm0 0"/><path style="stroke:none;fill-rule:nonzero;fill:#2045c1;fill-opacity:1" d="m9.66 6.344-.094.941-.746-.547Zm0 0"/><path style="stroke:none;fill-rule:nonzero;fill:#1b43b7;fill-opacity:1" d="m9.66 6.344.543.738-.637.203Zm0 0"/><path style="stroke:none;fill-rule:nonzero;fill:#1742af;fill-opacity:1" d="m10.563 6.492-.903-.148.543.738Zm0 0"/><path style="stroke:none;fill-rule:nonzero;fill:#1740a9;fill-opacity:1" d="m5.965 5.441.348-.757-.66.453Zm4.598 1.051-.36.59.574.324Zm0 0"/><path style="stroke:none;fill-rule:nonzero;fill:#1b3ca4;fill-opacity:1" d="m10.234 8.152.543-.746-.574-.324Zm0 0"/><path style="stroke:none;fill-rule:nonzero;fill:#1f3dad;fill-opacity:1" d="m10.234 8.152-.03-1.07-.638.203Zm0 0"/><path style="stroke:none;fill-rule:nonzero;fill:#2543c3;fill-opacity:1" d="m5.734 6.379 1.153-.336-.38-.512Zm2.68 1.113.969.766.183-.973Zm0 0"/><path style="stroke:none;fill-rule:nonzero;fill:#2e37b2;fill-opacity:1" d="m8.516 8.496.867-.238-.969-.766Zm0 0"/><path style="stroke:none;fill-rule:nonzero;fill:#2d40c7;fill-opacity:1" d="m6.887 6.043.218.797.563-.715Zm0 0"/><path style="stroke:none;fill-rule:nonzero;fill:#3537b8;fill-opacity:1" d="m6.887 6.043-.61 1.246.828-.45Zm0 0"/><path style="stroke:none;fill-rule:nonzero;fill:#3931b0;fill-opacity:1" d="m7.105 6.84-.655 1.1 1.067-.113Zm0 0"/><path style="stroke:none;fill-rule:nonzero;fill:#3735b8;fill-opacity:1" d="m7.516 7.828.12.988.88-.32Zm-1.067.113.656-1.101-.828.45Zm0 0"/><path style="stroke:none;fill-rule:nonzero;fill:#342892;fill-opacity:1" d="m5.723 8.164.554-.875.172.652Zm0 0"/><path style="stroke:none;fill-rule:nonzero;fill:#232372;fill-opacity:1" d="m6.27 11.043.59.184-.9-.579Zm-.043-.656.648.5.309-.649-.961-.3Zm1.77.601.081-.742-.894-.008Zm.952-.258-.261.618 1.058-.395Zm0 0"/><path style="stroke:none;fill-rule:nonzero;fill:#2a2f96;fill-opacity:1" d="m5.195 7.93.262-.836.266 1.07Zm0 0"/><path style="stroke:none;fill-rule:nonzero;fill:#2636a5;fill-opacity:1" d="m5.457 7.094.277-.715-.574.246Zm4.11.191-.184.973.851-.106Zm0 0"/><path style="stroke:none;fill-rule:nonzero;fill:url(#a)" d="m11.695 8.21-.03-1.112v-.004l-.169-.555-.48-.902v-.004l-.551-.578-.582-.414v-.004h-.004l-.5-.196h-.004l-.602-.214h-.007l-.993-.067H7.77l-.63.113h-.003l-.512.16h-.004l-.906.532H5.71v.004l-.57.633v.003l-.524.848v.004h-.004l-.203.727c-.004 0-.004.003-.004.003L4.37 8.285v.004l.195.75v.004L5 9.895l.309.414.421.39h.004l.528.356v.004l.652.28h.004l1.09.13.57.015h.004l.844-.238h.004l.75-.414h.004l.484-.414.375-.45h.004v-.003l.531-1.035v-.008l.117-.707Zm-5.941 2.462-.11-.098.247.192Zm1.598.418-.387-.18.91.082Zm.14-3.274-1.012.106.625-1.047Zm-.355-.941 1.234.617-.848.317Zm.363.973.117.93-1.125-.825Zm.102.96-1.22.383.083-1.218Zm-.067-.945.945.63-.828.3Zm.016-.031.847-.316.098.945Zm1.304-1.09.786-.37-.09.882Zm.668.531-1.078.2.383-.711Zm-1.109.188-.707-1.293 1.094.578Zm-.039-.004-1.242-.625.531-.676Zm-1.918.441-.16-.601.766-.414Zm-.105 1.266-.602-.992.684-.207Zm1.23-.316-.613.656-.563-.285Zm.91-.325-.219.786-.601-.489Zm-.058-.992.914.719-.817.227Zm.02-.027 1.089-.2-.172.923Zm1.132-.242.086-.875.504.687Zm.601-.16.028 1.003-.621-.812ZM8.84 6.71l.02-.742.761.375Zm-.035 0-1.086-.578 1.11-.172Zm-1.692.094-.203-.742.727.078Zm-.027.027-.77.418.567-1.16ZM6.43 7.93l-.668.203.511-.805Zm-.121 1.226-.836-.594.25-.37Zm.066.082.563.29-.692.378Zm1.266-.402.601.492-1.226.176Zm.886-.309.891.86-1.113-.063Zm.024-.023.816-.227.074 1.086Zm1.023-1.18.63.817-.802.097Zm.649-.215.527.301-.5.695Zm.004-.035.328-.539.195.836Zm-.024-.023-.508-.688.84.14ZM8.875 5.937l.594-.535.168.91Zm-1.176.168.375-.668.727.497Zm-.785-.074.426-.87.305.944Zm-.637 1.223-.515-.863 1.093-.32Zm-.547.867-.25-1.008.774.184Zm-.277.41-.23-.57.476.207Zm.895.692-.133.668L5.5 8.625Zm.617.328.195.66-.894-.277Zm1.297-.192-.196.86-1.046-.684Zm1.156.063-.504.457-.586-.52ZM9.402 8.3l.774.785-.703.297Zm.016-.031.797-.098-.024.879Zm1.352-.829.32 1.075-.832-.368Zm-.18-.91.52.395-.325.441Zm-.899-.199.485-.555.355.692Zm-.023-.027L9.5 5.402l.652.352Zm-.824-.383-.723-.496 1.313-.04Zm-1.172.164-.3-.941.675.277Zm-.79-.074-.347-.477.774-.383Zm-.023.023-1.074.313.723-.793Zm-.613 1.227-.766-.18.258-.664Zm-.547.87-.484-.21.238-.77Zm-.27.427-.417.152.187-.727Zm.75 1.332-.917-.567.195-.715Zm.934.34-.867.14-.004-.41ZM7 9.562l1.023.667-.828-.007Zm1.293-.192.594.524-.785.324Zm1.16.063.313.867-.82-.406Zm.027-.02.7-.293-.387 1.164Zm.77-1.234.828.367-.855.515Zm.555-.735.543.387-.23.66Zm-.008-.043.328-.441.215.824Zm-.215-.918.152-.468.36.859Zm-.023-.035-.344-.668.496.196ZM9.535 5.383l.723-.047-.09.387Zm-1.43.012.508-.63.817.59Zm-.03-.016-.262-.684.765.059Zm-.032.004-.672-.27.41-.41Zm-1.504.113.285-.828.489.445Zm-.773.824.21-.863.5.086Zm-.313.735-.27-.422.524-.223Zm-.016.039-.23.738-.031-1.148Zm-.265.855-.188.735-.296-.735Zm-.492-.035.015-.723.47.723Zm.746.68-.188.687-.226-.535Zm.75 1.336-.567.078-.324-.633Zm.031.027.004.402-.563-.324Zm.95.3-.29.602-.597-.46Zm.034.009.758.699-1.05-.094Zm.036-.012.832.008-.075.691Zm1.671-.332.036.781-.817-.453Zm.036.004.824.41-.793.371Zm1.277-.797.41.64-.797.528Zm.027-.016.79.114-.383.515Zm.016-.031.84-.504-.055.617Zm1.113-1.203.149.52-.375.12Zm-.199-.883.426.535-.219.258Zm-.398-.98.554.406-.191.46Zm-.57-.278.09-.383.398.579Zm-.708-.386-.097-.582.835.535Zm-.035-.02-.797-.574.7-.004ZM7.84 4.664l.52-.32.222.379Zm-.496.43-.48-.438.886.035Zm-.844.418L6 5.43l.781-.735Zm-.773.84-.512-.415.723-.46Zm-.024.023-.527.227.027-.633Zm-.527 1.5-.473-.734.442-.477Zm-.203.863-.09.45-.18-1.114Zm.02.055.222.516-.317-.043Zm.577 1.21-.336-.062.024-.546Zm.633.388-.238.23-.32-.55Zm.027.02.57.437-.808-.211Zm1.86-.138.816.454-.89.238Zm1.687.09-.047.567-.734-.203Zm.817-.539-.453.793-.32-.281Zm.445-.558.004.414-.363.07Zm.09-.707.371-.118-.422.704Zm.258-.73.207-.247-.067.738Zm-.235-.907.188-.453.242.996Zm-.398-.957.129-.23.398.617Zm-.024-.027-.39-.563.52.332ZM9.422 4.75l.394-.043.399.55Zm-.8-.023-.22-.372.891.368Zm-.829-.075-.172-.304.684-.008Zm-.031.004-.867-.031.69-.273Zm-1.746.715.308-.672.45-.039Zm-.055.04-.285-.27.597-.407Zm-.024.027-.703.445.418-.719Zm-.792 1.16-.356-.188.379-.43Zm-.012.03-.43.462.074-.652Zm-.485 1.298-.18.148.196-.789Zm.004.039.184 1.156-.375-1Zm.575 1.379-.024.547-.297-.59Zm.363.699.3.516-.62-.579Zm1.265.855-.011.301-.79-.511Zm.036.012.41.192-.426.105Zm1.09.098.011.418-.594-.313Zm.94-.254-.241.57-.637-.332Zm.036-.004.734.203-.972.363Zm.852-.379.312.27-.355.273Zm.843-.582.36-.07-.785.816Zm.422-.16-.004-.406.332-.2Zm.031-.461.399-.676-.074.473Zm.512-1.457.047.496-.11.145Zm-.246-1.246.094.09.09.664Zm-.465-.758.086-.043.25.566Zm-.601-.394.148-.215.371.547Zm-.024-.024-.398-.543.547.324Zm-.89-.57-.004-.239.383.2Zm-.036-.008-.867-.356.867.114Zm-1.718-.399.136-.117.461.114Zm-.758.286.27-.29.374.032Zm-.07.027-.407.035.668-.32Zm-1.122.469.047-.102.375-.187Zm-.488.789-.027-.266.406-.387Zm-.031.047-.336.383.313-.641Zm-.5 1.195-.215.04.281-.645Zm-.008.035-.207.832-.012-.793Zm.184 2.067-.246-.2-.118-.757Zm.343.699-.16-.051-.101-.469Zm.668.644-.52-.28-.085-.282Zm.094.09.227.285-.692-.539Zm.086.055.715.46-.469-.148Zm1.313.41.554.29-.965-.188Zm.664-.11.625.325-.61.094ZM9.668 11l-.254.219-.57.086Zm.465-.328.023.137-.328.101Zm.847-.875-.335.598-.426.195Zm.094-.098.227-.418-.242.57Zm.477-1.281.086-.117-.137.449Zm.082-.887v-.008l.008-.113.007.29Zm-.024-.164-.086-.617.106.352Zm-.254-.96-.152-.352.215.41Zm-.464-.727-.313-.457.395.414Zm-1.036-.992.02-.016.238.172Zm-.03-.02-.165-.082.18.07Zm-1.36-.348.3-.062.454.16Zm-.102-.015-.41-.102.692.047Zm-.777.008-.32-.028.449-.082Zm-1.133.285.184-.137.297-.09Zm-.148.074-.16.078.246-.145Zm-.668.457-.188.18.215-.243Zm-.883 1.27-.086.03.328-.527Zm-.11.078.09-.036-.23.52Zm-.226 1.347.004.29-.016.054Zm.016.364.082.53-.114-.433Zm.43 1.101.105.473-.336-.664Zm.34.676.073.25-.218-.297Zm1.644 1.277.03.047-.32-.14Zm.082.07-.035-.062.699.137Zm1.715.06-.075.081-.383-.012Zm.05-.009.457-.074-.523.149Zm1.059-.398.27-.082-.473.262Zm.43-.176-.02-.137.39-.18Zm.851-1.02-.02.184-.257.309Zm.426-.78.066-.032-.304.594Zm.086-.079-.074.035.148-.492Zm0 0"/><path style="stroke:none;fill-rule:nonzero;fill:url(#b)" d="m11.695 8.21-.03-1.112v-.004l-.169-.555-.48-.902v-.004l-.551-.578-.582-.414v-.004h-.004l-.5-.196h-.004l-.602-.214h-.007l-.993-.067H7.77l-.63.113h-.003l-.512.16h-.004l-.906.532H5.71v.004l-.57.633v.003l-.524.848v.004h-.004l-.203.727c-.004 0-.004.003-.004.003L4.37 8.285v.004l.195.75v.004L5 9.895l.309.414.421.39h.004l.528.356v.004l.652.28h.004l1.09.13.57.015h.004l.844-.238h.004l.75-.414h.004l.484-.414.375-.45h.004v-.003l.531-1.035v-.008l.117-.707Zm-5.941 2.462-.11-.098.247.192Zm1.598.418-.387-.18.91.082Zm.14-3.274-1.012.106.625-1.047Zm-.355-.941 1.234.617-.848.317Zm.363.973.117.93-1.125-.825Zm.102.96-1.22.383.083-1.218Zm-.067-.945.945.63-.828.3Zm.016-.031.847-.316.098.945Zm1.304-1.09.786-.37-.09.882Zm.668.531-1.078.2.383-.711Zm-1.109.188-.707-1.293 1.094.578Zm-.039-.004-1.242-.625.531-.676Zm-1.918.441-.16-.601.766-.414Zm-.105 1.266-.602-.992.684-.207Zm1.23-.316-.613.656-.563-.285Zm.91-.325-.219.786-.601-.489Zm-.058-.992.914.719-.817.227Zm.02-.027 1.089-.2-.172.923Zm1.132-.242.086-.875.504.687Zm.601-.16.028 1.003-.621-.812ZM8.84 6.71l.02-.742.761.375Zm-.035 0-1.086-.578 1.11-.172Zm-1.692.094-.203-.742.727.078Zm-.027.027-.77.418.567-1.16ZM6.43 7.93l-.668.203.511-.805Zm-.121 1.226-.836-.594.25-.37Zm.066.082.563.29-.692.378Zm1.266-.402.601.492-1.226.176Zm.886-.309.891.86-1.113-.063Zm.024-.023.816-.227.074 1.086Zm1.023-1.18.63.817-.802.097Zm.649-.215.527.301-.5.695Zm.004-.035.328-.539.195.836Zm-.024-.023-.508-.688.84.14ZM8.875 5.937l.594-.535.168.91Zm-1.176.168.375-.668.727.497Zm-.785-.074.426-.87.305.944Zm-.637 1.223-.515-.863 1.093-.32Zm-.547.867-.25-1.008.774.184Zm-.277.41-.23-.57.476.207Zm.895.692-.133.668L5.5 8.625Zm.617.328.195.66-.894-.277Zm1.297-.192-.196.86-1.046-.684Zm1.156.063-.504.457-.586-.52ZM9.402 8.3l.774.785-.703.297Zm.016-.031.797-.098-.024.879Zm1.352-.829.32 1.075-.832-.368Zm-.18-.91.52.395-.325.441Zm-.899-.199.485-.555.355.692Zm-.023-.027L9.5 5.402l.652.352Zm-.824-.383-.723-.496 1.313-.04Zm-1.172.164-.3-.941.675.277Zm-.79-.074-.347-.477.774-.383Zm-.023.023-1.074.313.723-.793Zm-.613 1.227-.766-.18.258-.664Zm-.547.87-.484-.21.238-.77Zm-.27.427-.417.152.187-.727Zm.75 1.332-.917-.567.195-.715Zm.934.34-.867.14-.004-.41ZM7 9.562l1.023.667-.828-.007Zm1.293-.192.594.524-.785.324Zm1.16.063.313.867-.82-.406Zm.027-.02.7-.293-.387 1.164Zm.77-1.234.828.367-.855.515Zm.555-.735.543.387-.23.66Zm-.008-.043.328-.441.215.824Zm-.215-.918.152-.468.36.859Zm-.023-.035-.344-.668.496.196ZM9.535 5.383l.723-.047-.09.387Zm-1.43.012.508-.63.817.59Zm-.03-.016-.262-.684.765.059Zm-.032.004-.672-.27.41-.41Zm-1.504.113.285-.828.489.445Zm-.773.824.21-.863.5.086Zm-.313.735-.27-.422.524-.223Zm-.016.039-.23.738-.031-1.148Zm-.265.855-.188.735-.296-.735Zm-.492-.035.015-.723.47.723Zm.746.68-.188.687-.226-.535Zm.75 1.336-.567.078-.324-.633Zm.031.027.004.402-.563-.324Zm.95.3-.29.602-.597-.46Zm.034.009.758.699-1.05-.094Zm.036-.012.832.008-.075.691Zm1.671-.332.036.781-.817-.453Zm.036.004.824.41-.793.371Zm1.277-.797.41.64-.797.528Zm.027-.016.79.114-.383.515Zm.016-.031.84-.504-.055.617Zm1.113-1.203.149.52-.375.12Zm-.199-.883.426.535-.219.258Zm-.398-.98.554.406-.191.46Zm-.57-.278.09-.383.398.579Zm-.708-.386-.097-.582.835.535Zm-.035-.02-.797-.574.7-.004ZM7.84 4.664l.52-.32.222.379Zm-.496.43-.48-.438.886.035Zm-.844.418L6 5.43l.781-.735Zm-.773.84-.512-.415.723-.46Zm-.024.023-.527.227.027-.633Zm-.527 1.5-.473-.734.442-.477Zm-.203.863-.09.45-.18-1.114Zm.02.055.222.516-.317-.043Zm.577 1.21-.336-.062.024-.546Zm.633.388-.238.23-.32-.55Zm.027.02.57.437-.808-.211Zm1.86-.138.816.454-.89.238Zm1.687.09-.047.567-.734-.203Zm.817-.539-.453.793-.32-.281Zm.445-.558.004.414-.363.07Zm.09-.707.371-.118-.422.704Zm.258-.73.207-.247-.067.738Zm-.235-.907.188-.453.242.996Zm-.398-.957.129-.23.398.617Zm-.024-.027-.39-.563.52.332ZM9.422 4.75l.394-.043.399.55Zm-.8-.023-.22-.372.891.368Zm-.829-.075-.172-.304.684-.008Zm-.031.004-.867-.031.69-.273Zm-1.746.715.308-.672.45-.039Zm-.055.04-.285-.27.597-.407Zm-.024.027-.703.445.418-.719Zm-.792 1.16-.356-.188.379-.43Zm-.012.03-.43.462.074-.652Zm-.485 1.298-.18.148.196-.789Zm.004.039.184 1.156-.375-1Zm.575 1.379-.024.547-.297-.59Zm.363.699.3.516-.62-.579Zm1.265.855-.011.301-.79-.511Zm.036.012.41.192-.426.105Zm1.09.098.011.418-.594-.313Zm.94-.254-.241.57-.637-.332Zm.036-.004.734.203-.972.363Zm.852-.379.312.27-.355.273Zm.843-.582.36-.07-.785.816Zm.422-.16-.004-.406.332-.2Zm.031-.461.399-.676-.074.473Zm.512-1.457.047.496-.11.145Zm-.246-1.246.094.09.09.664Zm-.465-.758.086-.043.25.566Zm-.601-.394.148-.215.371.547Zm-.024-.024-.398-.543.547.324Zm-.89-.57-.004-.239.383.2Zm-.036-.008-.867-.356.867.114Zm-1.718-.399.136-.117.461.114Zm-.758.286.27-.29.374.032Zm-.07.027-.407.035.668-.32Zm-1.122.469.047-.102.375-.187Zm-.488.789-.027-.266.406-.387Zm-.031.047-.336.383.313-.641Zm-.5 1.195-.215.04.281-.645Zm-.008.035-.207.832-.012-.793Zm.184 2.067-.246-.2-.118-.757Zm.343.699-.16-.051-.101-.469Zm.668.644-.52-.28-.085-.282Zm.094.09.227.285-.692-.539Zm.086.055.715.46-.469-.148Zm1.313.41.554.29-.965-.188Zm.664-.11.625.325-.61.094ZM9.668 11l-.254.219-.57.086Zm.465-.328.023.137-.328.101Zm.847-.875-.335.598-.426.195Zm.094-.098.227-.418-.242.57Zm.477-1.281.086-.117-.137.449Zm.082-.887v-.008l.008-.113.007.29Zm-.024-.164-.086-.617.106.352Zm-.254-.96-.152-.352.215.41Zm-.464-.727-.313-.457.395.414Zm-1.036-.992.02-.016.238.172Zm-.03-.02-.165-.082.18.07Zm-1.36-.348.3-.062.454.16Zm-.102-.015-.41-.102.692.047Zm-.777.008-.32-.028.449-.082Zm-1.133.285.184-.137.297-.09Zm-.148.074-.16.078.246-.145Zm-.668.457-.188.18.215-.243Zm-.883 1.27-.086.03.328-.527Zm-.11.078.09-.036-.23.52Zm-.226 1.347.004.29-.016.054Zm.016.364.082.53-.114-.433Zm.43 1.101.105.473-.336-.664Zm.34.676.073.25-.218-.297Zm1.644 1.277.03.047-.32-.14Zm.082.07-.035-.062.699.137Zm1.715.06-.075.081-.383-.012Zm.05-.009.457-.074-.523.149Zm1.059-.398.27-.082-.473.262Zm.43-.176-.02-.137.39-.18Zm.851-1.02-.02.184-.257.309Zm.426-.78.066-.032-.304.594Zm.086-.079-.074.035.148-.492Zm0 0"/><path style="stroke:none;fill-rule:nonzero;fill:url(#c)" d="M14.969 5.2c-.328-.786-.989-1.634-1.508-1.903.422.828.668 1.66.762 2.281v.016c.71 1.918.324 3.87-.235 5.066-.86 1.848-2.945 3.738-6.21 3.649C4.25 14.207 1.14 11.594.562 8.168c-.106-.54 0-.813.05-1.25-.062.336-.09.434-.12 1.035v.04c0 4.144 3.366 7.507 7.519 7.507a7.52 7.52 0 0 0 7.41-6.238l.035-.29c.148-1.288-.02-2.64-.488-3.773Zm0 0"/><path style="stroke:none;fill-rule:nonzero;fill:url(#d)" d="M14.969 5.2c-.328-.786-.989-1.634-1.508-1.903.422.828.668 1.66.762 2.281v.016c.71 1.918.324 3.87-.235 5.066-.86 1.848-2.945 3.738-6.21 3.649C4.25 14.207 1.14 11.594.562 8.168c-.106-.54 0-.813.05-1.25-.062.336-.09.434-.12 1.035v.04c0 4.144 3.366 7.507 7.519 7.507a7.52 7.52 0 0 0 7.41-6.238l.035-.29c.148-1.288-.02-2.64-.488-3.773Zm0 0"/><path style="stroke:none;fill-rule:nonzero;fill:url(#e)" d="M.563 8.168c.578 3.426 3.687 6.039 7.214 6.14 3.266.09 5.352-1.8 6.211-3.648.559-1.195.946-3.148.235-5.066v-.016.012c.265 1.738-.621 3.426-2.004 4.562-.004.008-.004.012-.004.012-2.7 2.195-5.281 1.324-5.805.969-.035-.02-.07-.04-.11-.055-1.57-.754-2.222-2.183-2.081-3.41-1.328 0-1.782-1.121-1.782-1.121s1.192-.848 2.766-.11c1.453.684 2.82.11 2.82.11 0-.059-1.308-.582-1.82-1.082-.273-.27-.402-.399-.516-.496a2.289 2.289 0 0 0-.195-.145c-.05-.035-.105-.07-.156-.105-.547-.356-1.64-.336-1.676-.336h-.004c-.297-.375-.277-1.621-.258-1.88-.003-.015-.222.114-.253.134a5.625 5.625 0 0 0-.735.629 6.846 6.846 0 0 0-.703.84v.003-.004A6.387 6.387 0 0 0 .699 6.383c-.004.015-.27 1.18-.136 1.785Zm0 0"/><path style="stroke:none;fill-rule:nonzero;fill:url(#f)" d="M10.664 5.207c.274.27.508.574.695.91.043.031.082.063.114.09 1.707 1.57.812 3.79.746 3.945 1.383-1.136 2.27-2.824 2.004-4.562-.852-2.117-2.293-2.969-3.47-4.828-.058-.094-.12-.188-.175-.29a1.434 1.434 0 0 1-.195-.45c0-.01-.008-.018-.02-.022h-.011c-.004 0-.004.004-.004.004-.004 0-.004 0-.008.004-.29.137-2.016 2.863.324 5.199Zm0 0"/><path style="stroke:none;fill-rule:nonzero;fill:url(#g)" d="m7.77 4.176.996.062.605.215.504.2.578.413.547.579.191.355c.028.016.079.05.121.082.02.012.032.023.047.035a4.047 4.047 0 0 0-.695-.91c-2.34-2.336-.613-5.062-.324-5.2 0-.003.004-.003.004-.003-1.887 1.101-2.528 3.148-2.59 4.168v.008Zm0 0"/><path style="stroke:none;fill-rule:nonzero;fill:url(#h)" d="M5.336 4.719c.05.035.105.07.156.105a3.487 3.487 0 0 1-.023-1.836c-.77.352-1.371.907-1.809 1.395.035 0 1.13-.02 1.676.336Zm0 0"/><path style="stroke:none;fill-rule:nonzero;fill:url(#i)" d="M4.637 8.672S4.98 7.379 7.12 7.379c.23 0 .89-.645.902-.832 0 0-1.367.574-2.82-.11-1.574-.738-2.766.11-2.766.11s.454 1.121 1.782 1.121c-.14 1.227.511 2.656 2.082 3.41.035.016.07.035.105.05-.918-.476-1.676-1.37-1.77-2.456Zm0 0"/><path style="stroke:none;fill-rule:nonzero;fill:url(#j)" d="M11.473 6.207a1.646 1.646 0 0 0-.114-.09c-.015-.012-.027-.023-.046-.035-.399-.281-1.118-.559-1.813-.441 2.707 1.351 1.98 6-1.77 5.828a3.358 3.358 0 0 1-.976-.192 4.158 4.158 0 0 1-.223-.09l-.125-.058h.004c.524.36 3.106 1.23 5.805-.965 0 0 0-.004.004-.012.066-.156.96-2.375-.746-3.945Zm0 0"/><path style="stroke:none;fill-rule:nonzero;fill:url(#k)" d="M14.969 5.2c-.328-.786-.989-1.634-1.508-1.903a7.804 7.804 0 0 1 .762 2.293c-.853-2.117-2.293-2.97-3.47-4.828a5.189 5.189 0 0 1-.179-.29c-.027-.05-.054-.1-.082-.156A1.505 1.505 0 0 1 10.38.02c.004-.008-.004-.016-.016-.02h-.015v.004c-.004 0-.004 0-.008.004 0-.004.004-.004.004-.004-1.89 1.101-2.531 3.152-2.59 4.176l.016-.004.996.062.562.2.547.214.578.414.547.579.191.355c-.437-.258-1.07-.465-1.691-.36 2.707 1.352 1.98 6-1.77 5.825a3.206 3.206 0 0 1-.976-.188 4.158 4.158 0 0 1-.223-.09l-.125-.058h.004c-.035-.016-.074-.035-.11-.05.036.015.071.034.106.05-.918-.477-1.676-1.371-1.773-2.457 0 0 .347-1.293 2.488-1.293.23 0 .89-.645.902-.832-.003-.063-1.312-.582-1.82-1.082-.273-.27-.402-.399-.52-.496a1.754 1.754 0 0 0-.19-.145 3.487 3.487 0 0 1-.024-1.836c-.77.352-1.371.907-1.809 1.395h-.004c-.297-.375-.277-1.621-.261-1.88 0-.015-.22.114-.25.134a5.625 5.625 0 0 0-.735.629A6.387 6.387 0 0 0 .687 6.43c-.011.066-.074.402-.085.476 0 .004 0-.008 0 0a8.488 8.488 0 0 0-.11 1.047v.04c0 4.144 3.363 7.507 7.516 7.507a7.524 7.524 0 0 0 7.414-6.238l.035-.29c.148-1.288-.02-2.64-.488-3.773Zm-.746.386v.008-.008Zm0 0"/><path style="stroke:none;fill-rule:nonzero;fill:url(#l)" d="M8.023 6.547s-.03.016-.09.035c-.148.246-.667.723-.867.719-2.14-.008-2.492 1.27-2.492 1.27.04.437.184.859.418 1.226a2.733 2.733 0 0 1-.355-1.125s.343-1.293 2.484-1.293c.23 0 .89-.645.902-.832Zm0 0"/><path style="stroke:none;fill-rule:nonzero;fill:url(#m)" d="M14.223 5.594v-.016.012c-.051-.125-.106-.25-.16-.371-.02-.043-.043-.082-.063-.121a3.997 3.997 0 0 0-.113-.227c-.024-.047-.051-.09-.075-.133-.035-.066-.07-.133-.109-.195a3.957 3.957 0 0 1-.082-.133c-.039-.058-.074-.117-.113-.172-.028-.047-.059-.09-.09-.133-.035-.054-.074-.105-.113-.16l-.094-.129c-.04-.05-.074-.097-.113-.148-.036-.043-.067-.086-.102-.125a4.69 4.69 0 0 0-.117-.145l-.102-.125c-.02-.023-.039-.046-.058-.066.008.008.015.02.023.027-.648-.77-1.355-1.476-1.988-2.472-.059-.094-.121-.188-.176-.29a1.689 1.689 0 0 1-.188-.418L10.388.04l-.004-.016c0-.011-.008-.02-.02-.023h-.011c-.004 0-.004.004-.004.004-.004 0-.004 0-.008.004a.173.173 0 0 0-.043.031l-.012.012a.294.294 0 0 0-.058.062h-.004c-.45.532-1.602 2.832.254 4.895C8.743 2.969 9.837.763 10.31.185c.027.078.058.152.093.226.028.05.055.106.082.156.059.098.118.192.18.286 1.176 1.859 2.617 2.71 3.469 4.828 0-.004-.004-.008-.004-.012 0 .004.004.004.004.008v.008c.71 1.921.324 3.875-.235 5.066a6.154 6.154 0 0 1-1.195 1.715 6.188 6.188 0 0 0 1.285-1.805c.559-1.195.946-3.148.235-5.066Zm0 0"/><path style="stroke:none;fill-rule:nonzero;fill:url(#n)" d="M10.34.008c0-.004.004-.004.004-.004-1.7.992-2.39 2.75-2.551 3.836.184-1.004.828-2.535 2.27-3.504.12-.188.222-.305.277-.328Zm0 0"/><path style="stroke:none;fill-rule:nonzero;fill:url(#o)" d="M12.215 10.164s0-.004.004-.012c.066-.156.96-2.375-.746-3.945a1.646 1.646 0 0 0-.114-.09c-.015-.012-.027-.023-.046-.035-.387-.273-1.07-.543-1.743-.45-.023 0-.047.005-.07.009 2.676 1.336 1.996 5.898-1.64 5.832h.027c3.687.144 4.414-4.38 1.851-5.797a2.733 2.733 0 0 1 1.426.414c.016.008.031.02.047.031.043.027.082.059.117.086 1.766 1.504.957 3.754.899 3.914 0 .004-.004.008-.004.012"/><path style="stroke:none;fill-rule:nonzero;fill:url(#p)" d="M5.223 6.512c1.23.535 2.37.195 2.718.066-.32.11-1.496.442-2.738-.14-1.414-.665-2.52-.047-2.73.085l-.012.008-.008.004-.008.008h-.004l.004.008.004.011.008.016.047.094c.168.293.672.988 1.719.988-.137 1.192.472 2.574 1.941 3.34-1.406-.813-2-2.281-1.832-3.453-1.086-.027-1.574-.68-1.71-.957a3.01 3.01 0 0 1 2.6-.078Zm0 0"/><path style="stroke:none;fill-rule:nonzero;fill:url(#q)" d="M5.492 4.82a.343.343 0 0 1-.039-.023c.012.008.027.02.04.027V4.82Zm-.008-.027a3.49 3.49 0 0 1-.015-1.805c-.73.332-1.309.848-1.739 1.32.41-.398.942-.828 1.586-1.12-.039.304-.074.933.168 1.605Zm0 0"/><path style="stroke:none;fill-rule:nonzero;fill:url(#r)" d="M.742 8.957c0-.008-.004-.016-.004-.023a6.393 6.393 0 0 1-.175-.766c-.06-.262-.04-.633 0-.969a6.308 6.308 0 0 0-.07.754v.04c0 3.28 2.109 6.07 5.046 7.089A7.6 7.6 0 0 1 .742 8.957Zm0 0"/><path style="stroke:none;fill-rule:nonzero;fill:url(#s)" d="M.684 8.2C.55 7.593.816 6.43.82 6.41a6.4 6.4 0 0 1 1.711-3.113 5.624 5.624 0 0 1 .766-.649c0 .57.031 1.536.297 1.852h.004c.035-.004 1.129-.05 1.687.29.055.034.11.065.16.1.07.044.137.09.2.141.117.094.25.219.53.48.407.38 1.294.755 1.677.934-.372-.187-1.25-.59-1.649-.98-.273-.27-.402-.399-.516-.496a2.289 2.289 0 0 0-.195-.145c-.05-.035-.105-.07-.156-.105-.547-.356-1.64-.336-1.676-.336h-.004c-.273-.344-.277-1.41-.261-1.79v-.066c0-.007.003-.015.003-.023h-.015c-.004.004-.008.004-.012.008l-.008.004c-.004 0-.011.004-.015.004l-.008.007-.008.004-.012.004-.007.004a2.798 2.798 0 0 0-.168.098 5.625 5.625 0 0 0-.735.629 6.846 6.846 0 0 0-.703.84v.003-.004A6.387 6.387 0 0 0 .699 6.383c-.004.015-.27 1.18-.136 1.785.492 2.914 2.816 5.242 5.671 5.934-2.8-.727-5.066-3.032-5.55-5.903Zm0 0"/><path style="stroke:none;fill-rule:nonzero;fill:url(#t)" d="M14.969 5.2c-.29-.692-.84-1.434-1.32-1.786l-.012-.008-.047-.031-.016-.012-.043-.023-.015-.012-.055-.031.059.121.035.074c.363.762.582 1.512.668 2.086v.012c.265 1.738-.621 3.426-2.004 4.562-.004.008-.004.012-.004.012-1.723 1.399-3.395 1.55-4.52 1.387 1.121.207 2.883.12 4.7-1.356l.003-.011c1.387-1.141 2.274-2.825 2.004-4.563V5.61a7.514 7.514 0 0 0-.547-1.832c.329.352.606.746.82 1.172.532 1.086.774 2.406.696 3.684-.008.094-.012.191-.02.285-.406 3.516-3.34 6.34-7.054 6.547a7.857 7.857 0 0 1-1.485-.059c.395.063.797.094 1.2.094a7.516 7.516 0 0 0 7.41-6.238l.035-.29c.148-1.288-.02-2.64-.488-3.773Zm-.746.394v-.008.008Zm0 0"/></svg>