<svg xmlns="http://www.w3.org/2000/svg" width="16" height="16" viewBox="0 0 16 16"><defs><linearGradient id="a" x1="49.994%" x2="49.994%" y1="1.631%" y2="98.543%"><stop offset="0%" stop-color="#FF1B2D"/><stop offset="30%" stop-color="#FF1B2D"/><stop offset="61%" stop-color="#FF1B2D"/><stop offset="100%" stop-color="#A70014"/></linearGradient><linearGradient id="b" x1="50.005%" x2="50.005%" y1=".848%" y2="99.602%"><stop offset="0%" stop-color="#9C0000"/><stop offset="70%" stop-color="#FF4B4B"/><stop offset="100%" stop-color="#FF4B4B"/></linearGradient></defs><g fill="none"><path fill="url(#a)" d="M6.948 0C3.11 0 0 3.134 0 7c0 3.754 2.934 6.818 6.618 6.992a6.895 6.895 0 0 0 4.962-1.773 4.985 4.985 0 0 1-2.785.856c-1.655 0-3.136-.827-4.133-2.131-.77-.913-1.267-2.264-1.3-3.78v-.33c.033-1.514.53-2.865 1.298-3.78C5.657 1.752 7.14.926 8.795.926c1.018 0 1.97.313 2.785.858A6.895 6.895 0 0 0 6.974 0h-.026Z" transform="translate(1 1)"/><path fill="url(#b)" d="M4.667 3.01c.635-.764 1.454-1.224 2.35-1.224 2.012 0 3.643 2.328 3.643 5.198 0 2.871-1.631 5.198-3.644 5.198-.895 0-1.714-.46-2.348-1.224.992 1.314 2.465 2.147 4.112 2.147a4.92 4.92 0 0 0 2.77-.863 7.102 7.102 0 0 0 2.304-5.258c0-2.088-.89-3.966-2.305-5.257a4.91 4.91 0 0 0-2.77-.863c-1.646 0-3.12.834-4.111 2.147" transform="translate(1 1)"/></g></svg>