<svg xmlns="http://www.w3.org/2000/svg" xmlns:xlink="http://www.w3.org/1999/xlink" width="16" height="16" viewBox="0 0 16 16"><defs><linearGradient id="a" x1="50%" x2="50%" y1="100%" y2="0%"><stop offset="25%" stop-color="#DBDBDA"/><stop offset="100%" stop-color="#FFF"/></linearGradient><linearGradient id="c" x1="50%" x2="50%" y1="0%" y2="100%"><stop offset="0%" stop-color="#676767" stop-opacity=".387"/><stop offset="100%" stop-opacity=".387"/></linearGradient><path id="e" d="m1.073.119 1.074 6.054H0z"/><path id="g" d="m1.073.119 1.074 6.054H0z"/><radialGradient id="b" cx="57.025%" cy="39.017%" r="61.032%" fx="57.025%" fy="39.017%"><stop offset="0%" stop-color="#2ABCE1"/><stop offset="11.363%" stop-color="#2ABBE1"/><stop offset="100%" stop-color="#3375F8"/></radialGradient><filter id="d" width="100%" height="100%" x="0%" y="0%" filterUnits="objectBoundingBox"><feGaussianBlur in="SourceGraphic"/></filter></defs><g fill="none" fill-rule="evenodd" transform="translate(1 1)"><circle cx="7" cy="7" r="7" fill="url(#a)" fill-rule="nonzero"/><circle cx="7" cy="7" r="6.364" fill="url(#b)" fill-rule="nonzero"/><path fill="#F4F2F3" fill-rule="nonzero" d="M7 1a.092.092 0 0 0-.092.092v1.065a.092.092 0 1 0 .185 0V1.092A.092.092 0 0 0 7 1Zm-.604.038h-.02a.092.092 0 0 0-.081.102l.046.445a.092.092 0 1 0 .184-.02l-.047-.445a.092.092 0 0 0-.082-.082Zm1.213 0a.092.092 0 0 0-.083.083l-.047.445a.092.092 0 0 0 .082.102.092.092 0 0 0 .102-.083l.047-.445a.092.092 0 0 0-.101-.101Zm-1.834.09c-.006 0-.013 0-.019.002a.092.092 0 0 0-.071.11l.22 1.04a.092.092 0 1 0 .181-.037L5.866 1.2a.092.092 0 0 0-.091-.073Zm2.454.001a.092.092 0 0 0-.09.073l-.222 1.041a.092.092 0 1 0 .18.038l.222-1.04a.092.092 0 0 0-.09-.112Zm-3.047.166a.092.092 0 0 0-.096.12l.14.426a.092.092 0 1 0 .175-.057l-.139-.426a.092.092 0 0 0-.08-.063Zm3.636 0a.092.092 0 0 0-.08.064l-.138.426c-.016.048.01.1.06.116.048.016.1-.01.116-.06l.138-.425a.092.092 0 0 0-.096-.12Zm-4.222.214a.092.092 0 0 0-.082.13l.433.973a.092.092 0 1 0 .168-.075l-.432-.973a.092.092 0 0 0-.087-.055Zm4.815.003c-.036 0-.07.02-.086.055l-.434.972a.092.092 0 1 0 .169.075l.434-.972a.092.092 0 0 0-.083-.13Zm-5.358.285a.092.092 0 0 0-.086.138l.223.388a.092.092 0 1 0 .16-.093l-.224-.387a.092.092 0 0 0-.073-.046Zm5.894 0a.092.092 0 0 0-.073.046l-.224.387c-.026.045-.01.1.034.127.044.025.1.01.126-.034l.224-.388a.092.092 0 0 0-.087-.138Zm-6.422.329a.093.093 0 0 0-.072.146l.626.862a.092.092 0 1 0 .15-.109l-.627-.861a.092.092 0 0 0-.077-.038Zm6.957.004a.092.092 0 0 0-.078.038l-.627.861a.092.092 0 1 0 .15.109l.626-.861a.092.092 0 0 0-.071-.147Zm-7.43.391a.092.092 0 0 0-.074.154l.3.333a.092.092 0 1 0 .138-.124l-.3-.332a.092.092 0 0 0-.063-.03Zm7.896 0a.093.093 0 0 0-.064.031l-.3.333a.092.092 0 1 0 .137.124l.3-.333a.092.092 0 0 0-.073-.154ZM2.6 2.956a.092.092 0 0 0-.057.161l.792.712a.092.092 0 1 0 .124-.137l-.792-.712a.092.092 0 0 0-.067-.024Zm8.803.003a.092.092 0 0 0-.067.024l-.792.712a.092.092 0 1 0 .124.137l.792-.712a.092.092 0 0 0-.057-.16Zm-9.18.48a.092.092 0 0 0-.057.168l.363.263a.092.092 0 1 0 .109-.15l-.363-.263a.092.092 0 0 0-.051-.017Zm9.556.004a.092.092 0 0 0-.052.018l-.362.263a.092.092 0 1 0 .108.15l.363-.264a.092.092 0 0 0-.057-.167Zm-9.907.512a.092.092 0 0 0-.04.172l.923.532a.092.092 0 1 0 .093-.16l-.923-.532a.092.092 0 0 0-.053-.012Zm10.256 0a.092.092 0 0 0-.053.012l-.923.533a.092.092 0 1 0 .092.16l.923-.533a.092.092 0 0 0-.04-.172Zm-10.521.55a.094.094 0 0 0-.087.054c-.02.047 0 .101.047.122l.41.183a.092.092 0 1 0 .075-.169l-.41-.182a.092.092 0 0 0-.035-.008Zm10.788.003a.092.092 0 0 0-.036.008l-.41.183a.092.092 0 1 0 .075.169l.41-.183a.092.092 0 0 0-.039-.177Zm-11.025.57a.092.092 0 0 0-.021.18l1.013.33a.092.092 0 1 0 .057-.175l-1.013-.33a.092.092 0 0 0-.036-.004Zm11.262.005a.09.09 0 0 0-.037.004l-1.013.33a.092.092 0 1 0 .057.175l1.013-.33a.092.092 0 0 0-.02-.18Zm-11.41.599a.092.092 0 0 0-.02.182l.439.093a.092.092 0 1 0 .038-.18l-.438-.093a.09.09 0 0 0-.019-.002Zm11.556 0-.018.003-.439.093a.092.092 0 1 0 .038.18l.439-.093a.092.092 0 0 0-.02-.183ZM1.11 6.288a.092.092 0 0 0 0 .184l1.06.112a.092.092 0 1 0 .019-.184l-1.06-.112H1.11Zm11.78.008h-.018l-1.06.11a.092.092 0 1 0 .02.184l1.06-.11a.092.092 0 0 0-.001-.184Zm-11.798.613a.092.092 0 1 0 0 .184h.449a.092.092 0 1 0 0-.184h-.449Zm11.367 0a.092.092 0 1 0 0 .184h.449a.092.092 0 1 0 0-.184h-.449ZM2.187 7.41H2.17l-1.06.11a.092.092 0 1 0 .02.184l1.059-.11a.092.092 0 0 0 0-.184Zm9.625.006a.092.092 0 0 0 0 .184l1.059.112a.092.092 0 1 0 .02-.184l-1.06-.111h-.02.001ZM1.659 8.04c-.006 0-.012 0-.018.002l-.439.093a.092.092 0 1 0 .038.18l.439-.092a.092.092 0 0 0-.02-.183Zm10.682 0a.092.092 0 0 0-.02.183l.438.093a.092.092 0 1 0 .039-.18l-.439-.093a.09.09 0 0 0-.018-.002Zm-9.943.364a.09.09 0 0 0-.037.005l-1.013.329a.092.092 0 1 0 .057.175l1.013-.329a.092.092 0 0 0-.02-.18Zm9.203.004a.092.092 0 0 0-.02.18l1.013.33a.092.092 0 1 0 .057-.176l-1.013-.33a.092.092 0 0 0-.037-.004Zm-9.59.717a.092.092 0 0 0-.036.008l-.41.182a.092.092 0 1 0 .075.169l.41-.182a.092.092 0 0 0-.04-.177Zm9.977.004a.092.092 0 0 0-.04.177l.41.182a.092.092 0 1 0 .075-.169l-.41-.182a.092.092 0 0 0-.035-.008Zm-9.18.2a.092.092 0 0 0-.053.012l-.922.532a.092.092 0 1 0 .092.16l.923-.532a.092.092 0 0 0-.04-.172Zm8.384 0a.092.092 0 0 0-.04.172l.923.532a.092.092 0 1 0 .092-.16l-.922-.532a.092.092 0 0 0-.053-.012Zm-8.614.78a.093.093 0 0 0-.051.018l-.363.263a.092.092 0 1 0 .108.15l.363-.263a.092.092 0 0 0-.057-.167Zm8.842.004a.092.092 0 0 0-.057.167l.362.263a.092.092 0 1 0 .109-.15l-.363-.263a.092.092 0 0 0-.051-.017Zm-8.02.032a.092.092 0 0 0-.067.023l-.793.712a.092.092 0 1 0 .124.137l.792-.711a.092.092 0 0 0-.056-.161Zm7.198.002a.093.093 0 0 0-.057.161l.792.712a.092.092 0 1 0 .124-.137l-.792-.712a.092.092 0 0 0-.067-.024Zm-6.447.676a.092.092 0 0 0-.078.038l-.626.861a.092.092 0 1 0 .15.109l.626-.861a.092.092 0 0 0-.072-.147Zm5.692.004a.093.093 0 0 0-.071.147l.626.861a.092.092 0 1 0 .15-.108l-.627-.862a.092.092 0 0 0-.078-.038Zm-6.5.133a.093.093 0 0 0-.065.03l-.3.333a.092.092 0 1 0 .137.124l.3-.333a.092.092 0 0 0-.073-.154Zm7.314 0a.092.092 0 0 0-.073.154l.3.333a.092.092 0 1 0 .137-.123l-.3-.333a.092.092 0 0 0-.064-.03Zm-5.63.37a.093.093 0 0 0-.086.054l-.435.973a.092.092 0 0 0 .169.075l.434-.972a.092.092 0 0 0-.082-.13Zm3.94.002a.092.092 0 0 0-.082.13l.432.973a.092.092 0 1 0 .17-.075l-.433-.973a.092.092 0 0 0-.087-.055Zm-4.703.298a.092.092 0 0 0-.074.046l-.224.388a.092.092 0 1 0 .16.092l.224-.387a.092.092 0 0 0-.086-.139Zm5.472 0a.092.092 0 0 0-.086.138l.224.388a.092.092 0 1 0 .16-.092l-.224-.388a.092.092 0 0 0-.074-.046Zm-3.743.014a.092.092 0 0 0-.09.073L5.68 12.76a.092.092 0 1 0 .18.038l.222-1.041a.092.092 0 0 0-.09-.112Zm2.01 0-.018.003a.092.092 0 0 0-.071.11l.22 1.04a.092.092 0 1 0 .181-.038l-.22-1.041a.092.092 0 0 0-.091-.073ZM7 11.752a.092.092 0 0 0-.092.092v1.065a.092.092 0 1 0 .185 0v-1.065A.092.092 0 0 0 7 11.751Zm-1.696.344a.092.092 0 0 0-.08.063l-.138.426a.092.092 0 1 0 .176.057l.138-.426a.092.092 0 0 0-.096-.12Zm3.391 0a.092.092 0 0 0-.096.12l.139.427a.092.092 0 1 0 .175-.058l-.138-.425a.092.092 0 0 0-.08-.064Zm-2.275.237a.092.092 0 0 0-.083.083l-.047.445a.092.092 0 1 0 .184.02l.047-.446a.092.092 0 0 0-.1-.102Zm1.156 0h-.019a.092.092 0 0 0-.082.102l.047.446a.092.092 0 1 0 .184-.02l-.047-.445a.092.092 0 0 0-.083-.082Z"/><path fill="url(#c)" d="m3.235 6.23-.974 6.21-.975-6.21.975-6.21.974 6.21Z" filter="url(#d)" transform="rotate(48 3.581 12.14)"/><g transform="rotate(48 3.081 13.263)"><mask id="f" fill="#fff"><use xlink:href="#e"/></mask><use fill="#FE504D" xlink:href="#e"/><path fill="#FE504D" mask="url(#f)" d="M-.371.117h3.64V6.17h-3.64z"/><path fill="#000" fill-opacity=".25" mask="url(#f)" style="mix-blend-mode:multiply" d="M1.072-6.201h3.92v12.42h-3.92z"/></g><g transform="rotate(-132 4.23 5.279)"><mask id="h" fill="#fff"><use xlink:href="#g"/></mask><use fill="#EEE" xlink:href="#g"/><path fill="#EEE" mask="url(#h)" d="M-.371.117h3.64V6.17h-3.64z"/><path fill="#000" fill-opacity=".25" mask="url(#h)" style="mix-blend-mode:multiply" d="M-2.844-6.185h3.92v12.42h-3.92z"/></g></g></svg>