<svg width="16" height="16" viewBox="0 0 456 455" xmlns="http://www.w3.org/2000/svg"><defs><linearGradient id="a" x1="142.44" x2="358.949" y1="80.536" y2="456.889" gradientTransform="scale(1.0018 .9982)" gradientUnits="userSpaceOnUse"><stop stop-opacity=".2" offset="0%"/><stop stop-opacity=".05" offset="79.08%"/></linearGradient></defs><g fill="none"><path fill="#ef3939" d="M228 438.896c92.927 0 144.563 0 178.397-33.648 33.741-33.647 33.741-85.097 33.741-177.745 0-92.647 0-144.097-33.74-177.744C372.562 16.204 320.926 16.204 228 16.204c-92.927 0-144.563 0-178.397 33.648-33.741 33.647-33.741 85.097-33.741 177.745 0 92.647 0 144.097 33.74 177.744 33.835 33.555 85.471 33.555 178.398 33.555z"/><path fill="url(#a)" d="M376 143.7c-21.8-38.1-58.3-67.8-104.2-80.1C180.7 39.3 87.1 93.1 62.7 183.8c-12.3 45.6-4.7 91.9 17.5 129.7.3.5.6 1.1 1 1.6l80.2 138.5c13.3.4 27.7.5 43.2.5h22.6c44.3 0 79.9 0 109-3.2 36.3-4 62.3-12.9 82.4-32.9 29.3-29.2 34.9-71 36-138.7-46.8-80.8-78.5-135.5-78.6-135.6Z" style="fill:url(#a)" transform="translate(15.49 15.459) scale(.93207)"/><path fill="#fff" d="M339.661 115.749c-61.982-61.89-162.552-61.89-224.627 0-61.983 61.889-61.983 162.18 0 223.975 61.982 61.89 162.552 61.89 224.627 0 62.076-61.89 62.076-162.18 0-223.975zm-9.507 72.794c-26.19 45.392-52.382 90.783-78.573 136.268-4.846 8.482-11.93 13.515-21.624 14.26-10.812.746-19.387-3.82-24.886-13.142-16.59-28.427-32.995-57.042-49.4-85.563-9.972-17.337-20.039-34.673-30.012-52.103-10.066-17.522 1.305-38.867 21.438-39.892 10.625-.56 18.827 4.38 24.233 13.608 7.364 12.583 14.634 25.352 21.997 38.028 5.313 9.135 10.44 18.362 15.845 27.31 7.83 13.142 19.387 20.505 34.766 21.437 21.717 1.305 41.943-14.447 44.553-37.469.186-1.677.28-3.448.373-4.287-.093-7.457-1.491-13.795-4.474-19.667-8.109-16.218.56-34.393 18.175-38.308 14.354-3.169 29.267 7.364 31.131 21.904.932 6.245-.373 12.117-3.542 17.616z"/></g></svg>