<svg width="16" height="16" viewBox="0 0 512 470.647" xmlns="http://www.w3.org/2000/svg"><path d="M325.247 179.518h-94.941l-19.31 46.626h-42.042l88.9-209.667h43.004l85.293 209.667h-44.926l-15.98-46.626Zm-15.77-41.86-29.105-76.942-32.47 76.942Z" style="fill:#ff604a"/><path fill-opacity=".85" style="fill:#eee" d="M3.113 11.643v-3.21l.882.008.882.007.757 1.446c.416.795.764 1.446.773 1.447.008 0 .375-.65.814-1.446l.798-1.447.893-.007.893-.008v6.42H8.516v-2.264c0-1.244-.01-2.262-.02-2.262-.012 0-.355.69-.762 1.535l-.74 1.536-.534-.007-.534-.006-.714-1.472a74.905 74.905 0 0 0-.734-1.493c-.012-.011-.021.981-.021 2.206v2.226H3.113Zm7.57-.013V8.433h1.371v5.048h3.401v1.344h-4.772zm-7.57-5.207v-1.27l-1.262-1.98A196.26 196.26 0 0 1 .59 1.179c0-.007.404-.013.898-.013l.898.001.808 1.287c.444.707.815 1.282.823 1.277.008-.005.379-.584.824-1.287l.81-1.278h.856c.472 0 .857.006.857.014 0 .007-.592.902-1.316 1.988L4.73 5.142v2.551H3.113Z" transform="matrix(32 0 0 32 0 -20.677)"/></svg>
