<svg width="16" height="16" viewBox="0 0 512 470.647" xmlns="http://www.w3.org/2000/svg"><path fill-opacity=".9" d="M494.609 410.003H386.152V249.12H341.23v204.61h153.379v-43.724zm-222.821 44.615h42.296v-205.45h-57.75L205.092 342.1l-48.803-92.932H99.134V454.66h44.09V312.914l46.142 95.275h34.704l47.718-98.624z"/><path d="M325.247 179.518h-94.941l-19.31 46.626h-42.042l88.9-209.667h43.004l85.293 209.667h-44.926l-15.98-46.626Zm-15.77-41.86-29.105-76.942-32.47 76.942Z" style="fill:#cb171e"/><path fill-opacity=".9" d="m128.324 98.61 52.405-82.623h56.437l-85.578 128.32v81.347H99.135v-81.346L17.391 15.987h58.953z"/></svg>